<svg width="197" height="133" viewBox="0 0 197 133" fill="none" xmlns="http://www.w3.org/2000/svg">
<path d="M29.7817 16.7371C30.4118 15.5601 31.9873 15.2889 33.0508 15.2437C34.6263 15.1533 35.9257 15.0177 36.9105 14.836C37.3832 14.7908 37.856 14.5187 38.4467 14.1119C39.234 13.4782 40.2582 13.0705 41.243 12.8897C46.0474 11.8031 50.9312 11.2607 55.7356 11.2155C57.9805 11.2155 60.6588 11.4867 63.7697 12.0752C64.0057 12.0752 64.3604 12.1656 64.5972 12.03C66.8814 10.6722 69.0477 9.45003 71.4106 8.99711C76.9245 7.82011 82.5564 7.41334 88.2276 6.96043C90.4725 6.77964 92.5199 6.55271 94.4502 6.23633C106.187 4.29004 117.214 2.61493 127.532 1.12154C132.928 0.39745 138.205 0.713829 143.364 2.20815C145.097 2.66106 146.673 3.33996 148.366 4.01886C151.596 5.28626 155.022 6.10074 158.291 7.05082C166.207 9.31349 173.139 13.7042 180.109 19.6335C185.386 24.0694 190.388 29.6813 193.263 36.1991C193.854 37.4213 194.169 38.6435 194.327 39.9109C194.445 40.6802 194.563 41.4043 194.799 42.0832C196.255 47.0181 197.2 51.9964 196.964 56.84C196.925 58.017 196.609 61.0942 195.625 61.773C194.444 62.5423 193.735 61.1845 193.144 60.2345C193.026 59.9633 192.908 60.0085 192.868 60.2797C191.569 66.4801 189.875 72.6815 187.118 78.0675C185.661 80.9648 183.692 83.8612 181.211 85.6719C180.975 85.8075 180.778 85.9883 180.62 86.2604C179.872 87.4826 179.163 88.6144 177.981 89.2933C177.942 89.3837 177.824 89.4289 177.824 89.5645C177.155 92.0993 177.273 94.9956 178.1 97.44C179.085 100.473 180.03 103.55 178.928 106.538C178.416 107.986 177.471 109.163 176.644 110.43C175.029 113.01 174.123 116.043 173.847 119.256C173.532 122.425 173.02 125.593 171.838 128.444C171.248 129.892 169.909 131.432 168.491 130.074C167.624 129.214 167.033 128.263 165.734 129.079C164.119 130.029 162.543 131.116 160.85 131.432C159.511 131.703 158.212 131.84 156.99 131.84C156.203 131.84 155.73 130.98 155.454 130.301C155.454 130.165 155.415 130.165 155.297 130.165C154.39 130.256 153.366 130.256 152.264 130.211C151.477 130.12 150.965 129.667 150.728 128.853C150.728 128.717 150.689 128.672 150.571 128.672C150.177 128.627 149.823 128.627 149.586 128.672C147.184 129.08 144.781 129.17 142.497 128.084C141.552 127.676 140.331 126.59 140.843 125.232C141.355 123.875 142.301 123.06 143.64 122.878C149.98 121.974 153.446 113.011 154.549 106.856C154.588 106.585 154.588 106.222 154.549 105.905C153.919 101.832 153.643 97.5766 153.801 93.1868C153.801 93.0512 153.84 92.8704 153.84 92.7339C153.919 92.5983 153.84 92.5531 153.366 92.507C148.68 95.6755 143.993 98.5267 139.228 101.016C135.486 103.053 131.311 104.954 127.216 105.678C125.68 105.904 124.341 105.995 123.277 105.859C119.024 105.316 114.574 104.411 109.808 103.279C105.594 102.238 101.813 100.654 97.7176 99.0248C95.512 98.1651 93.0312 97.3949 90.3922 96.8073C90.2742 96.8073 90.2349 96.8525 90.2349 96.9881C90.5495 99.4325 90.8256 101.786 91.1804 104.004C91.7711 107.761 91.5351 111.065 91.0624 114.776C90.9051 115.998 90.8657 117.401 90.9051 119.03C90.9837 119.981 91.141 120.705 91.4958 121.384C92.4806 123.058 92.8345 125.141 92.5986 127.585C92.4413 129.214 91.7719 131.251 90.3143 131.703C89.0936 132.066 88.3456 131.115 87.4001 130.436C86.4546 129.802 84.9192 130.3 84.0524 130.752C83.0676 131.295 82.123 131.748 81.2955 132.019C79.7986 132.563 78.0658 132.789 76.0576 132.744C75.4276 132.744 74.9942 132.2 74.7189 131.612C74.7189 131.521 74.6796 131.476 74.5616 131.476C74.0495 131.476 73.4588 131.476 72.8681 131.521C71.726 131.567 70.6232 131.431 70.2684 130.028C70.2291 129.802 70.0325 129.666 69.8744 129.62C68.3382 129.258 66.9601 129.122 65.4239 129.575C62.2335 130.616 59.0833 130.752 56.2084 129.258C55.539 128.896 55.0269 128.443 54.6722 127.764C54.0815 126.633 55.657 124.867 56.3657 124.46C56.8384 124.144 57.5078 124.053 58.0199 124.007C59.3586 123.872 60.7375 123.057 61.7215 122.106C63.2577 120.658 63.8484 117.897 63.9664 115.589C64.0843 112.601 63.9664 109.795 63.5723 107.079C63.0995 104.047 61.9967 101.829 60.6973 99.2489C59.0038 95.9448 57.3497 91.8714 56.759 88.25C56.4042 85.8969 56.1289 83.5429 55.4202 81.3706C55.3416 81.1899 55.1842 80.9629 54.9475 80.9177C53.9233 80.7369 53.1753 80.3292 52.2298 79.6503C51.245 78.8358 50.2209 78.157 49.2369 77.4329C49.0796 77.2973 48.8822 77.2973 48.7249 77.4329C48.2521 77.7944 47.7401 78.1117 47.1493 78.5195C45.4952 79.6513 43.605 79.5157 42.1475 78.1117C40.454 76.4818 39.4692 74.5365 39.1152 72.2277C39.1152 72.1373 39.0366 72.0921 38.9973 72.0921H38.9579C38.1304 72.771 37.1858 73.1787 36.3583 73.7663C35.0982 74.7173 33.7988 75.6674 32.4986 76.6626C31.9078 77.0703 31.2384 77.3867 30.6084 77.5223C30.293 77.6127 30.0177 77.6579 29.7809 77.7935C29.7416 77.7935 29.6629 77.8839 29.6236 77.9291C27.7335 80.8254 25.8032 83.1343 22.4555 83.315C19.0685 83.4958 15.7208 82.5006 12.492 81.8217C10.9558 81.4601 8.78954 81.2784 5.9146 81.1428C3.03966 80.962 1.38548 80.011 0.755447 76.5713C0.480164 74.8962 0.2827 73.4028 0.243378 71.9998C0.125397 70.0987 0.0467529 68.288 0.00743103 66.6138C-0.071228 64.9397 0.480148 64.1242 1.46495 62.9924C1.85904 62.5395 1.97704 61.7702 2.09502 61.1817C2.17366 60.6384 2.52841 60.1412 3.04047 60.1864C3.9073 60.2316 4.85196 60.0509 5.79744 59.5075C8.79036 57.8324 10.3659 54.9813 12.1774 51.9484C13.1622 50.228 14.2649 48.6443 15.5644 46.8788C15.643 46.7432 15.6823 46.6076 15.6823 46.4711C15.8396 44.57 15.8396 42.6689 15.0916 40.8582C13.9102 38.1426 13.6734 35.1097 15.4857 32.7566C16.5492 31.3988 17.9272 31.3084 19.3454 31.1267C20.921 30.8555 22.299 30.2218 22.6931 28.2746C22.8898 27.5957 23.1265 27.0072 23.5206 26.4639C23.5993 26.3283 23.6386 26.1927 23.6386 26.0561C23.6386 25.8302 23.5206 25.6484 23.3625 25.5128C23.1265 25.2869 22.7718 25.1513 22.4957 25.1051C21.1963 24.9243 20.3294 24.381 19.7387 23.43C18.6359 21.6193 18.1239 19.0393 18.7539 16.9574C19.1873 15.69 20.2901 15.464 20.9988 16.5497C22.0623 18.2239 23.283 19.4913 25.1732 19.899C25.6066 19.9442 26.1186 19.8086 26.4726 19.6278C27.1419 19.1749 27.8506 18.6768 28.5995 18.2248C29.1902 17.8623 29.427 17.3199 29.7809 16.7314L29.7817 16.7371Z" fill="white"/>
</svg>
