<svg width="173" height="132" viewBox="0 0 173 132" fill="none" xmlns="http://www.w3.org/2000/svg">
<path d="M142.86 91.2341C140.557 95.6368 138.979 100.023 138.641 104.825C138.433 107.797 137.862 110.732 137.793 113.725C137.703 117.728 138.4 121.523 140.422 125.017C141.127 126.232 141.144 127.589 141.294 128.922C141.376 129.636 141.078 130.141 140.357 130.414C138.82 130.997 137.296 131.592 135.6 131.299C135.314 131.25 134.992 131.193 134.727 131.274C131.307 132.314 127.871 132.012 124.369 131.747C122.164 131.58 120.11 131.201 118.096 130.361C117.317 130.035 117.118 129.42 117.122 128.669C117.134 126.888 117.407 125.347 118.879 123.957C123.501 119.583 124.622 113.949 123.994 107.867C123.803 106.004 123.64 104.141 123.522 102.274C123.253 97.9849 121.895 94.1122 119.559 90.4636C117.676 87.5244 116.286 84.2713 115.092 80.9815C114.643 79.7463 114.113 79.3916 112.809 79.5017C108.435 79.8726 104.033 79.9664 99.6709 79.4487C97.323 79.1674 95.0321 78.3765 92.7371 77.7324C90.7886 77.1862 90.5155 77.2596 89.9448 79.1185C89.1825 81.5848 88.2327 83.9655 86.9038 86.1873C83.4919 91.8904 83.7569 97.8667 86.1212 103.741C87.7762 107.858 91.4367 109.974 95.5538 111.258C97.2781 111.796 99.0595 112.167 100.498 113.399C102.439 115.062 102.948 117.32 101.526 119.444C100.262 121.327 99.0391 123.325 97.5512 124.964C95.9574 126.721 93.7317 128.038 91.5631 129.102C89.4597 130.137 87.6783 129.208 86.9691 126.578C85.9907 122.954 83.5775 120.439 80.9931 118.123C78.9183 116.268 76.7904 114.442 74.63 112.677C69.8606 108.784 68.3076 103.639 68.3035 97.777C68.3035 95.1517 68.1527 92.5264 68.2546 89.9092C68.3239 88.0544 68.8497 86.2077 68.2016 84.361C68.0874 84.0389 67.9978 83.7046 67.8265 83.1502C66.1838 87.6997 64.0478 91.8864 64.0926 96.6193C64.1171 99.3547 64.382 102.09 64.3657 104.838C64.3535 106.831 64.3005 108.78 63.8847 110.757C63.1877 114.092 63.8643 117.385 64.8101 120.59C65.2666 122.147 66.0615 123.602 66.6892 125.115C67.9733 128.209 66.9542 130.084 63.6075 130.496C60.7174 130.85 57.8517 131.148 54.8882 130.585C53.0253 130.235 51.0402 131.177 49.0183 130.659C47.9992 130.398 47.5101 130.051 47.3022 129.069C46.919 127.271 47.078 125.473 47.9381 123.945C49.5686 121.042 49.9599 117.826 50.3105 114.687C51.0198 108.364 50.1067 102.172 48.5617 95.9629C46.813 88.9349 45.9162 81.7316 46.6826 74.4141C46.9475 71.8784 47.1962 69.3265 46.9271 66.7297C46.6907 64.4346 45.1621 62.8121 44.3998 60.8105C44.1267 60.093 43.5968 60.6311 43.234 60.8023C41.5097 61.6177 39.8873 62.6368 37.9796 63.0649C36.8912 63.3054 35.7743 63.3665 34.7103 63.607C31.7754 64.2634 28.9831 65.2621 27.5278 68.2584C27.4789 68.3644 27.4422 68.4786 27.377 68.5764C26.7492 69.5303 26.2845 71.165 25.1717 71.0101C24.0344 70.8552 24.2912 69.1879 24.1404 68.128C24.067 67.6266 24.067 67.1822 23.4433 67.117C22.9093 67.064 22.3712 67.0477 22.0451 67.598C21.9269 67.7978 21.7924 68.0138 21.7639 68.234C21.181 72.6408 18.193 75.7634 15.8736 79.2285C13.7905 82.3431 11.895 85.5473 10.4683 89.0164C10.236 89.579 9.9547 91.8089 9.9547 91.8089C9.9547 91.8089 11.414 90.7327 11.9317 90.4881C14.0514 89.4893 16.2771 89.6075 18.4702 89.8888C20.2556 90.1212 21.344 91.5154 21.9799 93.0441C24.3238 98.7065 22.9175 101.719 18.0666 104.842C14.296 107.267 8.13258 104.944 5.65008 102.918C1.97322 99.9254 0.183708 95.7877 0.016578 91.226C-0.0853306 88.4457 0.261159 86.7784 0.933755 84.6463C2.5969 79.3875 4.05623 74.0839 6.42459 69.0126C8.23856 65.1235 9.48592 60.835 10.3583 56.5382C11.0553 53.1017 12.1926 49.7996 13.3381 46.5017C13.9984 44.5938 13.7824 42.5841 14.1859 40.6477C14.4387 39.4288 14.6221 38.161 15.3803 37.1989C17.7364 34.2148 18.356 30.6193 18.9879 27.0686C19.5586 23.8562 21.2951 21.3532 23.2721 18.9643C23.9039 18.202 24.5439 17.4641 25.1065 16.6447C26.4557 14.6757 28.2086 13.359 30.7155 13.2367C35.3911 13.0084 39.9362 11.7487 44.6036 11.4145C51.5945 10.913 58.1697 8.50784 64.8957 6.80383C66.9583 6.28203 69.0658 6.31872 71.1284 6.09858C78.3598 5.32403 85.3304 3.34688 92.4232 1.95676C97.0009 1.06399 101.538 0 106.258 0C107.995 0 109.597 0.468808 111.268 0.676714C115.552 1.21075 119.784 1.97715 123.974 3.03706C127.977 4.04805 131.422 6.05781 134.74 8.38555C135.457 8.88697 136.113 9.53107 136.904 9.86943C141.282 11.7528 144.364 15.275 147.556 18.5485C150.193 21.2553 152.419 24.3943 154.616 27.4925C156.116 29.6083 157.05 32.1276 158.59 34.2067C161.122 37.6188 162.565 41.4222 163.641 45.4621C164.623 49.1474 164.44 52.8856 164.232 56.5912C164.024 60.2806 164.905 63.7905 165.475 67.3371C165.969 70.3986 166.507 73.452 166.694 76.5421C166.841 79.0003 167.42 81.1853 169.046 83.1421C170.29 84.6382 170.432 86.6439 170.314 88.4906C170.212 90.0927 170.261 91.6173 170.599 93.1746C170.95 94.7889 170.807 96.3217 169.409 97.4876C168.904 97.9116 168.365 97.8463 168.541 97.19C169.609 93.2887 166.792 90.4229 165.924 87.0474C165.659 86.0242 165.255 85.0458 165.422 83.9778C166.013 80.2273 164.766 76.6684 164.036 73.1218C163.066 68.4174 162.398 63.6886 161.652 58.9557C161.044 55.0992 161.566 54.0271 160.767 50.1991C160.702 49.8812 159.312 46.734 158.431 46.4976C158.431 48.4014 158.354 50.2154 158.452 52.0214C158.554 53.9537 158.656 55.8778 158.374 57.7979C157.751 62.0579 158.88 66.1631 159.512 70.3049C160.319 75.6208 160.91 80.9652 162.023 86.2362C163.449 92.983 165.19 99.6441 167.053 106.285C168.308 110.765 169.935 115.172 170.391 119.856C170.526 121.217 171.007 122.453 171.818 123.578C172.731 124.842 173.294 126.179 172.833 127.842C172.556 128.845 172.034 129.432 171.068 129.489C167.632 129.697 164.228 130.569 160.767 130.219C158.729 130.015 156.736 129.815 154.677 130.084C153.389 130.251 152.129 129.693 151.053 128.955C149.639 127.98 149.256 125.681 150.617 124.104C153.89 120.3 153.532 116.085 152.566 111.682C151.155 105.245 148.167 99.5259 144.653 94.0347C144.095 93.1583 143.532 92.2859 142.856 91.226L142.86 91.2341ZM15.6738 94.9112C14.6343 94.9112 14.027 95.1925 13.4481 95.4615C12.8408 95.7428 12.3068 96.5051 12.3068 96.5051C12.3068 96.5051 12.9875 97.5936 13.9821 98.3518C14.296 98.5883 14.9441 98.7799 15.4496 98.9226C16.3872 99.1875 17.0272 98.6413 17.5489 97.9931C17.9566 97.4876 18.2501 96.8598 17.7691 96.232C17.2717 95.5879 16.7337 94.952 15.6738 94.9153V94.9112Z" fill="white"/>
</svg>
