<svg width="251" height="116" viewBox="0 0 251 116" fill="none" xmlns="http://www.w3.org/2000/svg">
<path d="M-0.00280762 2.49288C6.45543 6.2012 12.8776 9.96382 19.5188 13.3541C29.6545 18.5261 39.664 23.9489 49.7921 29.1364C51.8744 30.2018 52.6011 31.2466 52.0007 33.6826C50.7637 38.6942 50.993 43.4551 56.1086 46.522C60.75 56.2144 70.8728 58.0142 79.1711 62.1389C87.9049 66.4808 97.4479 68.8366 107.303 69.1779C109.826 69.2659 110.596 70.7916 111.534 72.5811C115.707 80.5434 120.838 87.6058 129.6 91.0374C133.574 92.5941 137.684 93.6854 141.986 93.6311C146.575 93.5716 147.702 91.6425 145.279 87.8256C143.096 84.3862 141.401 80.7296 139.813 77.0032C138.298 73.4474 136.849 69.8374 132.239 69.1262C139.661 68.278 146.733 66.9566 153.49 64.2077C163.979 59.9408 174.217 61.3941 184.219 65.8136C192.582 69.509 200.354 74.262 207.789 79.5943C209.506 80.8253 209.89 82.0666 209.282 84.081C207.753 89.147 206.184 94.2285 205.872 99.5608C205.609 104.084 206.359 108.459 208.336 112.568C208.874 113.688 209.511 114.795 210.611 115.475C211.923 116.287 213.204 116.308 213.23 114.425C213.292 109.571 215.76 106.235 219.505 103.582C219.84 103.344 220.121 103.026 220.407 102.726C224.193 98.7566 227.479 94.6345 224.074 88.2471C230.612 90.7762 234.602 88.1204 237.779 83.1061C239.655 80.1452 241.49 77.0989 244.258 74.7947C245.706 73.5897 247.155 72.4647 249 71.9294C249.886 71.6734 250.915 71.3864 250.995 70.2511C251.085 68.9737 250.026 68.459 249.075 68.0918C245.168 66.5919 241.124 66.8428 237.13 67.5203C231.543 68.472 226.589 71.1485 221.6 73.6827C220.587 74.1974 219.575 74.7637 218.497 75.0818C216.157 75.7722 214.33 75.2576 213.08 72.8578C208.083 63.2741 202.45 54.068 195.85 45.5109C185.753 32.4232 173.967 21.425 158.072 15.6685C145.985 11.2904 133.62 11.0008 121.016 12.5498C112.197 13.6334 103.442 15.3013 94.5126 15.4927C89.5182 15.6013 84.6011 14.9574 79.6608 14.5022C74.6689 14.0419 69.7415 14.135 64.9068 15.6478C61.3349 16.765 58.1935 18.6398 56.2065 21.818C54.7427 24.1558 53.2738 23.7911 51.292 22.8628C40.0429 17.5977 28.8144 12.2886 17.4855 7.20457C11.7385 4.62633 6.11526 1.70933 0.00752258 -0.00518799V2.48771L-0.00280762 2.49288Z" fill="white"/>
</svg>
