<svg width="17" height="45" viewBox="0 0 17 45" fill="none" xmlns="http://www.w3.org/2000/svg">
<path d="M17.0007 24.5659C15.6357 24.8842 14.3529 25.3812 13.6735 26.7808C13.6499 26.832 13.6318 26.8868 13.6003 26.9341C13.2969 27.3953 13.0726 28.1857 12.5348 28.1108C11.9855 28.0357 12.1097 27.2297 12.0368 26.7173C12.0014 26.475 12.0011 26.2606 11.6999 26.229C11.4418 26.2034 11.1817 26.1953 11.0241 26.4614C10.967 26.558 10.9021 26.6627 10.8884 26.769C10.6066 28.8996 9.16247 30.4092 8.04168 32.0845C7.03507 33.5904 6.11883 35.1405 5.42937 36.8179C5.31803 37.0884 5.1835 38.1503 5.18133 38.1675C5.18133 38.1675 5.88721 37.6471 6.13738 37.5288C7.16157 37.0461 8.23694 37.1038 9.29656 37.2397C10.1593 37.3521 10.6856 38.026 10.9929 38.7651C12.1254 41.5029 11.4453 42.9594 9.10125 44.4692C7.2791 45.6419 4.30087 44.5182 3.10125 43.5386C1.3247 42.0919 0.459437 40.0917 0.378593 37.8862C0.329349 36.542 0.49696 35.7354 0.821953 34.7046C1.62566 32.1619 2.33078 29.5971 3.47527 27.145C4.35184 25.2646 4.95509 23.1913 5.37664 21.1138C5.71345 19.4523 6.26262 17.8557 6.81609 16.2612C7.13521 15.3387 7.03123 14.3665 7.22625 13.4302C7.34835 12.841 7.43722 12.2283 7.8034 11.7632C8.94192 10.3204 9.24125 8.58149 9.54656 6.86475C9.82234 5.31153 10.6615 4.10086 11.6169 2.9458C11.9221 2.57727 12.2318 2.22081 12.5036 1.82471C13.1556 0.87266 14.0031 0.235403 15.2145 0.17627C15.8136 0.146985 16.4082 0.0822455 17.0007 0.000488281V24.5659ZM7.945 39.6675C7.44283 39.6675 7.14948 39.804 6.8698 39.9341C6.5808 40.068 6.3258 40.427 6.31805 40.438C6.31805 40.438 6.64697 40.9649 7.12762 41.3315C7.27922 41.4458 7.5924 41.538 7.8366 41.6069C8.28967 41.7351 8.59911 41.4711 8.85125 41.1577C9.04822 40.9133 9.19013 40.6097 8.95769 40.3062C8.71741 39.9948 8.45707 39.6872 7.945 39.6694V39.6675Z" fill="#C2C2C2"/>
</svg>
