<svg width="16" height="45" viewBox="0 0 16 45" fill="none" xmlns="http://www.w3.org/2000/svg">
<path d="M15.4503 0C14.6355 4.89527 13.7138 11.7164 13.2882 19.8838C12.5189 34.648 13.8353 44.8437 12.839 44.998C11.9403 45.1365 9.7908 36.9944 8.56753 28.6602C6.51379 14.6771 7.58452 3.68517 7.62906 0H15.4503ZM6.80581 0C6.09296 2.41243 5.14561 7.77174 4.74624 13.2998C4.57152 15.7077 4.5534 17.8638 4.52163 22.0781C4.4422 32.7365 4.81123 38.1073 4.29605 38.1709C3.98061 38.2073 3.51544 36.2174 2.94839 33.7812C2.47179 31.7317 2.1862 29.9902 1.82535 27.4414C1.45771 24.8382 1.23004 23.2311 0.925931 20.3691C0.399425 15.4169 0.113734 12.7315 0.027494 9.39746C-0.0689198 5.7414 0.10642 2.51682 0.338041 0H6.80581Z" fill="#C2C2C2"/>
</svg>
