<svg width="195" height="132" viewBox="0 0 195 132" fill="none" xmlns="http://www.w3.org/2000/svg">
<path fill-rule="evenodd" clip-rule="evenodd" d="M58.0932 13.1417C59.2534 11.2235 60.8551 9.32077 62.5573 8.39521C63.5322 7.86443 64.6344 7.93179 65.5895 7.3066C66.5799 6.65761 67.3454 5.58374 68.3472 4.97912C69.2754 4.41854 70.4186 4.20092 71.402 3.73231C72.6981 3.11457 73.8329 2.17558 75.1983 1.72867C76.1562 1.41519 77.1537 1.44547 78.113 1.15288C79.6256 0.691718 81.2881 -0.158541 82.8898 0.0257276C83.8704 0.138588 84.783 0.716171 85.6504 1.34168C86.4682 1.48709 87.2733 1.70454 88.0515 1.9905C91.245 3.16509 93.9815 5.47379 96.7816 7.53038C101.358 10.8914 106.154 14.0332 111.32 15.9687C113.096 16.6345 114.908 17.3492 116.782 17.5461C121.08 17.9981 125.467 17.5622 129.734 17.0529C131.558 16.8351 133.433 16.8089 135.228 16.3513C140.076 15.1157 145.423 12.7994 150.453 14.3409C151.747 14.7379 152.953 15.4907 154.071 16.3194C155.122 17.0979 156.274 17.6919 157.385 18.3506C159.295 19.4839 161.164 20.7755 163.153 21.728C165.972 23.0776 168.827 23.9248 171.414 25.8611C171.565 25.9747 171.715 26.0934 171.864 26.2153C172.362 26.1679 172.858 26.1504 173.358 26.217C177.314 26.7456 178.996 30.1255 181.286 33.328C182.645 35.2299 184.164 37.025 185.574 38.8837C186.035 39.4905 186.521 40.0872 186.901 40.7583C188.349 42.4239 189.683 44.7358 189.927 46.799C190.153 48.7233 189.983 50.7035 190.227 52.6561C190.613 55.7427 191.38 58.9596 191.367 62.0872C191.363 62.7755 191.35 63.465 191.32 64.1527C191.593 64.9396 191.835 65.8425 191.899 66.7185C191.93 67.1508 191.919 67.5751 191.847 67.9767C191.963 69.3692 191.828 70.867 191.837 72.2401C191.855 75.3344 191.913 77.7973 191.534 80.7702C191.68 81.9328 191.821 83.097 191.937 84.2678C192.113 86.0424 192.253 87.8365 192.574 89.5886C192.689 90.2152 192.812 90.8499 192.894 91.483C192.925 91.7324 192.97 91.9753 192.983 92.2279C192.986 92.27 193.018 92.3801 192.988 92.3542C190.669 90.3917 189.658 86.2869 189.249 82.8655C189.126 82.5659 188.976 82.2745 188.788 81.9943C187.149 79.5493 186.635 76.5327 186.463 73.4982C186.439 73.0821 186.412 72.6562 186.398 72.2287C186.299 76.0064 185.805 79.8181 185.154 83.5051C184.983 84.4782 184.763 85.4595 184.541 86.4489C184.599 87.1824 184.602 87.9126 184.548 88.6283C184.54 88.7368 184.526 88.8502 184.503 88.9684C185.363 89.8298 186.217 90.6961 187.102 91.5009C188.766 93.01 190.389 94.5774 190.802 97.139C191.129 99.1647 190.251 101.47 189.863 103.41C189.522 105.115 189.61 106.723 189.784 108.445C190.068 111.254 191.258 113.976 191.708 116.78C192.206 117.227 192.814 117.493 193.262 118.024C194.828 119.884 195.81 123.351 194.103 125.409C193.312 126.365 192.12 126.797 191.08 127.284C189.983 127.798 188.878 128.275 187.772 128.748C185.331 130.685 181.938 130.698 178.601 130.259C177.315 130.089 174.576 130.022 173.677 128.547C173.243 129.597 172.49 130.659 171.933 131.18C170.604 132.425 167.968 131.865 166.453 131.481C166.239 131.426 166.026 131.379 165.81 131.339C165.031 131.817 163.306 131.588 162.471 131.624C159.834 131.732 157.385 131.659 154.809 130.945C154.034 130.73 153.216 130.516 152.497 130.11C151.496 130.199 150.644 130.013 150.42 129.095C149.924 127.04 152.056 124.672 153.161 123.39C155.855 120.265 157.113 115.961 159.07 112.253C159.698 109.597 160.178 106.858 160.509 104.15C160.544 103.867 160.582 103.483 160.649 103.082C160.139 99.8658 159.2 96.8184 158.357 93.6674C158.075 93.3792 157.808 93.0764 157.561 92.7558C155.917 90.6038 154.652 87.3427 153.568 84.4102C150.647 86.308 147.425 87.5661 144.272 88.8372C140.098 90.5212 136.073 92.1421 131.691 93.0068C127.15 93.9038 122.555 93.6949 117.963 93.6949C113.897 93.6949 109.764 93.9378 105.714 93.4731C103.703 93.2432 101.99 92.0012 100.052 91.4847C99.736 92.8578 99.4233 94.2309 99.1531 95.6121C99.5167 97.9567 99.869 100.3 99.5068 102.68C99.013 105.925 98.181 109.185 97.5372 112.4C97.2429 113.874 96.667 115.498 96.7646 117.028C97.025 121.107 101.517 125.587 99.903 129.485C99.1587 131.282 97.2387 131.381 95.7516 131.65C91.5464 132.416 87.6157 130.573 83.4841 130.184C81.6985 130.016 78.8375 131.755 77.6192 129.533C77.025 128.45 77.4579 127.538 77.9913 126.64C77.5074 126.703 77.0235 126.777 76.5311 126.81C76.043 126.842 75.4897 126.965 75.1671 126.45C73.7069 124.12 75.4699 121.382 76.9684 119.85C77.6249 119.18 78.3762 118.774 78.7314 117.786C79.5945 115.381 80.2482 112.36 80.5934 109.8C80.6118 109.664 80.6274 109.523 80.6401 109.377C80.3359 108.912 80.0274 108.449 79.794 107.928C79.0667 106.307 78.5559 104.586 78.1229 102.837C75.5251 100.138 73.8682 97.1779 71.6864 93.6949C68.5948 88.7595 65.639 83.4905 64.2778 77.5771L64.2891 77.5722C63.9694 76.4825 63.685 75.3733 63.419 74.256C63.0964 74.1119 62.7865 73.7686 62.5389 73.5873C61.9602 73.1598 61.3192 72.925 60.6811 72.6498C60.3061 72.4862 59.9538 72.2433 59.5689 72.1105C58.7044 71.8126 57.755 72.0361 56.9103 71.696C56.5919 71.5665 56.2877 71.3479 56.0316 71.0985C55.8165 70.8864 55.6821 70.6144 55.4062 70.4913C55.0907 70.3488 54.6917 70.4492 54.3563 70.3958C53.6163 71.4807 52.7447 72.4457 51.7557 73.2489C50.0111 74.6673 48.0061 75.6372 46.0988 76.7221C44.0273 77.8993 42.0153 79.24 39.8561 80.2132C39.1006 80.5532 38.229 80.7265 37.3984 80.8398C37.189 80.992 36.9711 81.12 36.7489 81.2139C36.0613 81.5053 35.293 81.413 34.6067 81.7094C32.6711 82.5465 30.6562 83.3869 28.8847 84.624C28.2891 85.0401 27.8179 85.649 27.4104 86.2902C27.068 86.8261 26.7454 87.4495 26.2006 87.7475C25.3805 88.196 24.2817 87.8754 23.419 87.7572C22.3806 87.6147 21.6201 87.5564 20.6138 87.9871C20.099 88.2073 19.4337 88.868 18.8909 88.8761C18.6334 88.8793 18.3397 88.5684 18.1344 88.4146C17.3668 87.8382 16.5306 86.4246 16.6026 85.3591C16.4609 85.6635 16.3237 85.9728 16.1956 86.2902C15.9429 86.9152 15.5868 88.0309 14.9207 88.2106C14.3173 88.3725 14.0706 87.5127 13.697 87.1419C13.244 86.6901 12.7006 86.5379 12.1651 86.2691C11.5925 85.9809 11.1039 85.6214 10.6187 85.1729C9.21197 83.8727 7.40906 83.3173 6.12303 81.834C5.72982 81.3823 5.22017 80.7977 5.05589 80.1743C4.83884 79.3485 5.11023 78.3235 5.16456 77.4896C5.20715 76.8371 5.34454 76.1554 5.61309 75.5644C4.9942 75.0155 4.55218 74.2188 4.04931 73.5436C2.53717 71.5147 1.50201 69.455 0.735544 66.9452C0.527124 66.2635 0.2713 65.7 0.157964 64.9756C0.0167542 64.072 0.00840637 63.1753 0.00614248 62.2591C0.00543501 62.0182 -0.0402666 61.4966 0.128818 61.3054C0.373318 61.0288 1.05362 61.5859 1.26176 61.7229C2.2839 62.3953 3.03905 63.5612 4.26806 63.8215C4.84818 63.9444 5.53655 63.3356 5.85434 62.8315C6.0837 62.4677 6.18444 62.059 6.57836 61.8827C7.84133 61.3172 9.07798 62.1239 10.3111 61.6696C11.4536 61.2484 12.4299 60.3216 13.3665 59.4988C13.5803 59.311 13.8044 59.1399 14.0307 58.9718C13.9751 58.4436 13.9203 57.9152 13.8726 57.3872C13.8321 56.9385 13.7321 56.3528 13.7223 55.813C8.94809 43.0455 5.90825 28.104 4.6208 10.9661C4.59901 10.6748 4.6924 10.3875 4.87521 10.1833C5.05986 9.9759 5.26799 9.91195 5.50061 9.96668C5.84104 10.0473 6.11582 10.3339 6.21756 10.7141C10.3401 26.092 16.4745 36.5648 24.3781 42.7213C24.735 42.6021 25.1254 42.5516 25.5573 42.5874C26.9576 40.8336 29.5554 40.193 30.7298 38.1556C31.5972 36.6476 32.0033 34.8305 32.5211 33.1432C33.3276 30.513 34.2926 27.5708 35.7726 25.1812C35.7726 25.1638 35.7726 25.1465 35.7712 25.1292C35.767 24.7807 35.8123 24.4823 35.8986 24.2289C34.8062 24.2611 33.7266 23.1615 32.9824 22.3949C31.2052 20.568 31.0326 17.7269 30.9222 15.1406C30.8458 13.3502 30.6463 11.6327 31.0453 9.86985C31.218 9.1101 31.576 8.18358 31.3015 7.40732C31.1345 6.93304 30.444 6.42558 30.4299 5.94126C30.4214 5.65806 30.935 5.575 31.0935 5.55476C32.7418 5.34377 34.0874 6.09914 35.3043 7.29057C36.4306 8.39327 36.7702 9.65271 37.4125 11.1124C37.8087 12.0113 38.3931 12.8999 38.9675 13.6598C39.5052 14.3723 40.2297 14.8689 40.8749 15.4397C41.3687 15.877 41.9191 16.3484 42.4752 16.8554C41.8045 14.9761 41.8314 12.6983 42.2007 10.8147C42.4653 9.46618 43.0397 8.21289 43.31 6.85679C43.5166 5.82193 43.4048 4.72539 43.1968 3.70187C43.0581 3.01661 42.6832 2.44357 42.9279 1.73094C43.0963 1.23999 43.5208 0.734303 44.0259 0.826923C44.8112 0.970873 45.5399 1.70811 46.3139 1.98273C47.6637 2.46186 48.957 2.31354 50.1993 3.20768C50.8275 3.66026 51.293 4.33531 51.7826 4.96001C53.4833 7.13124 54.2828 9.59215 55.4784 12.1305C55.4925 12.1611 55.5067 12.1912 55.5222 12.2211C56.4405 11.5075 57.3574 12.3531 58.0932 13.1417ZM174.966 108.273C174.176 109.837 173.274 111.317 172.396 112.653C172.308 112.786 172.216 112.925 172.12 113.067C172.009 113.361 171.907 113.652 171.815 113.947C171.266 115.704 171.067 117.624 171.09 119.541C171.518 121.018 172.166 122.472 172.731 123.707C172.98 124.255 173.308 124.784 173.573 125.34C173.635 125.045 173.7 124.76 173.754 124.488C174.017 123.149 174.211 121.748 174.644 120.461C175.206 118.79 175.947 117.243 176.299 115.483C176.756 113.202 175.96 110.579 174.966 108.273ZM187.69 66.5582C187.207 67.3581 186.71 68.1532 186.239 68.9012C186.341 69.5748 186.403 70.2614 186.413 70.9641C186.449 70.4606 186.526 69.9635 186.675 69.4858C186.797 69.0955 186.976 68.7102 187.193 68.3329C187.34 67.7402 187.508 67.1476 187.69 66.5582Z" fill="black"/>
</svg>
