<svg width="218" height="116" viewBox="0 0 218 116" fill="none" xmlns="http://www.w3.org/2000/svg">
<path d="M2.43404 17.7447C1.45671 20.6708 0.908496 23.2667 0.585593 25.3027C0.381805 26.592 -0.096092 29.9489 0.017283 34.249C0.0718178 36.3582 0.252644 38.0567 0.585593 41.1896C0.7779 43.0002 0.921412 44.0167 1.1539 45.6635C1.38209 47.2759 1.56291 48.3772 1.86429 49.6737C2.22307 51.2157 2.51727 52.4749 2.71676 52.4505C3.04253 52.4103 2.8086 49.0132 2.85883 42.2708C2.87892 39.6045 2.89041 38.2405 3.00091 36.7172C3.34391 31.9676 4.3241 27.4147 4.70728 27.4621C5.21387 27.5238 3.81893 35.5456 5.41766 46.4346C6.1912 51.7068 7.55026 56.8569 8.11857 56.7693C8.74859 56.6717 7.91622 50.2222 8.40273 40.8824C8.70697 35.0416 9.41162 30.2891 9.96701 27.1548C11.0721 27.251 12.7641 27.5253 14.6599 28.3882C16.2629 29.1175 18.3209 30.0551 19.4948 32.0896C20.1722 33.2655 20.1449 35.4608 20.0631 39.8027C19.9971 43.3175 19.8249 44.6772 19.779 48.749C19.7732 49.2989 19.7517 51.1138 19.779 52.2969C19.9641 60.4981 22.9606 62.5312 22.7655 68.8012C22.6937 71.1272 22.0063 73.3857 20.6329 77.9012C19.8579 80.4512 19.0227 83.1978 17.3622 86.5389C15.3071 90.6754 13.6208 94.0711 10.2526 96.8737C9.23797 97.718 7.83585 99.227 4.84935 102.119C3.96819 102.971 2.92485 103.979 3.14299 104.895C3.23484 105.28 3.56779 105.73 5.13351 106.284C7.70238 107.193 9.91678 107.084 10.3947 107.055C14.0715 106.837 15.3645 105.763 16.0821 106.593C16.8944 107.532 15.4262 109.134 16.2242 110.911C17.0551 112.762 19.6182 113.194 21.6274 113.533C22.2129 113.632 23.905 113.902 25.9314 113.519C26.5312 113.405 26.6102 113.338 27.3148 113.224C28.6524 113.008 29.7014 113.032 31.0117 113.071C32.012 113.1 32.5315 113.114 33.2864 113.224C33.8762 113.311 34.8105 113.453 35.8452 113.842C36.6546 114.146 37.9204 114.751 39.2579 116.001C39.4746 115.671 40.2166 114.626 41.5326 114.304C41.8498 114.227 42.431 114.084 43.0969 114.304C44.1101 114.639 44.189 115.441 44.9453 115.537C45.5725 115.618 45.7347 115.091 46.7938 114.611C48.2375 113.958 49.278 114.329 49.3526 113.994C49.4703 113.473 46.8124 113.065 45.7978 110.909C45.4548 110.179 45.1577 108.95 45.5137 108.132C46.5412 105.768 52.9878 106.89 59.5908 107.978C70.4719 109.77 75.9125 110.666 78.5015 110.909C84.1243 111.435 89.5491 111.26 100.399 110.909C103.11 110.821 106.518 110.71 110.637 110.446C124.26 109.57 134.177 107.745 143.625 105.972C147.858 105.178 161.031 102.634 165.664 98.723C166.004 98.4358 167.267 97.3231 169.219 96.4099C169.974 96.0567 171.18 95.5686 175.902 94.8679C179.407 94.3467 181.19 94.0897 182.728 94.2505C184.619 94.4487 184.575 94.7889 187.989 95.6389C191.813 96.5909 193.818 97.0891 196.235 96.7186C197.512 96.5234 199.563 95.985 201.922 94.2505C204.064 94.7143 210.105 95.6964 214.435 91.7824C216.99 89.4722 218.497 85.8655 217.848 85.1491C217.304 84.5475 215.513 86.2848 211.592 86.8462C210.16 87.0515 207.928 87.1735 207.753 86.5375C207.495 85.5985 211.997 83.9689 211.734 82.5273C211.608 81.831 210.401 81.3457 209.46 81.4476C208.698 81.5295 208.593 81.943 206.759 83.1447C205.638 83.8784 205.064 84.2474 204.342 84.3781C203.653 84.5044 202.506 84.5317 202.494 84.5317C201.023 84.0378 200.929 83.9143 200.929 83.9143C200.151 82.8906 201.924 79.7491 201.925 79.7491C201.925 79.7491 200.535 78.7641 199.366 78.6694C198.29 78.5818 197.561 79.2652 196.808 79.7491C196.808 79.7491 195.381 80.6651 190.978 80.8288C186.169 81.0083 178.639 74.7913 175.298 72.4094C172.211 70.2083 166.523 68.5557 155.147 65.2491C143.795 61.9497 133.244 58.8828 127.421 59.5418C126.574 59.638 123.478 60.0774 119.743 58.9245C118.263 58.4679 117.21 57.9237 116.756 57.6911C108.691 53.5388 100.446 49.7957 92.4423 45.5056C92.4423 45.5056 82.6203 40.242 72.6777 33.9375C69.6625 32.025 67.3161 30.4385 65.284 27.4592C63.6551 25.0701 63.5446 23.7147 61.0188 20.3636C59.9898 18.9981 59.2234 18.1812 57.7481 16.0447C57.0406 15.0196 56.7478 14.5285 55.4734 12.652C54.6281 11.4086 53.757 10.1508 53.3408 9.56645C50.9284 6.18087 49.7214 4.48664 48.0624 3.44713C46.5627 2.50669 43.8934 2.28989 38.5533 1.85484C37.7482 1.7888 34.5723 1.54615 34.5723 1.54615C34.5723 1.54615 32.896 0.835436 31.5858 0.466439C30.1607 0.0672904 29.0154 0.0270884 28.3122 0.00555161C26.4853 -0.0490082 26.2715 0.286966 23.3352 0.467875C21.6217 0.574123 21.6102 0.463567 20.7764 0.621504C18.7414 1.00629 18.6739 1.68255 17.3637 1.70121C16.0591 1.71988 16.1108 1.04937 13.6668 0.621504C13.0712 0.516691 11.6762 0.31281 11.6762 0.31281C11.6762 0.31281 10.3818 0.937377 9.2595 1.39252C7.50577 2.10323 7.39383 1.90366 6.273 2.47223C5.36026 2.93599 4.78334 3.22889 4.28248 3.86064C3.6582 4.64745 3.53765 5.47015 3.2865 7.40846C2.93633 10.1178 2.76124 11.4717 2.71819 12.036C2.60482 13.4948 2.48426 15.4331 2.43404 17.7432V17.7447Z" fill="black"/>
</svg>
