<svg width="251" height="116" viewBox="0 0 251 116" fill="none" xmlns="http://www.w3.org/2000/svg">
<path d="M-0.00280792 2.49295C6.45542 6.20126 12.8776 9.96389 19.5188 13.3541C29.6545 18.5261 39.664 23.9489 49.7921 29.1365C51.8744 30.2019 52.6011 31.2466 52.0007 33.6826C50.7637 38.6943 50.993 43.4551 56.1086 46.5221C60.7499 56.2144 70.8728 58.0143 79.1711 62.1389C87.9049 66.4808 97.4479 68.8367 107.303 69.178C109.826 69.2659 110.596 70.7917 111.534 72.5812C115.707 80.5435 120.838 87.6058 129.6 91.0374C133.574 92.5942 137.684 93.6855 141.986 93.6312C146.575 93.5717 147.702 91.6425 145.279 87.8256C143.096 84.3862 141.401 80.7296 139.813 77.0032C138.298 73.4475 136.849 69.8374 132.239 69.1263C139.661 68.2781 146.733 66.9566 153.49 64.2077C163.979 59.9408 174.217 61.3942 184.219 65.8136C192.582 69.509 200.354 74.2621 207.789 79.5944C209.506 80.8253 209.89 82.0666 209.282 84.0811C207.753 89.1471 206.184 94.2285 205.872 99.5609C205.609 104.084 206.359 108.459 208.336 112.568C208.874 113.688 209.511 114.795 210.611 115.475C211.923 116.287 213.204 116.308 213.23 114.425C213.292 109.571 215.76 106.235 219.505 103.582C219.84 103.344 220.121 103.026 220.407 102.726C224.193 98.7566 227.479 94.6346 224.074 88.2471C230.612 90.7762 234.602 88.1204 237.779 83.1062C239.655 80.1452 241.49 77.0989 244.258 74.7948C245.706 73.5897 247.155 72.4648 249 71.9295C249.886 71.6735 250.915 71.3865 250.995 70.2512C251.085 68.9737 250.026 68.4591 249.075 68.0919C245.168 66.592 241.124 66.8429 237.13 67.5204C231.543 68.472 226.589 71.1485 221.6 73.6828C220.587 74.1974 219.575 74.7638 218.497 75.0818C216.157 75.7723 214.33 75.2577 213.08 72.8579C208.083 63.2742 202.45 54.068 195.85 45.511C185.753 32.4233 173.967 21.425 158.072 15.6686C145.985 11.2905 133.62 11.0009 121.016 12.5499C112.197 13.6334 103.442 15.3014 94.5126 15.4927C89.5182 15.6014 84.6011 14.9574 79.6607 14.5023C74.6689 14.042 69.7415 14.1351 64.9068 15.6479C61.3349 16.7651 58.1935 18.6399 56.2065 21.8181C54.7427 24.1558 53.2738 23.7912 51.292 22.8628C40.0429 17.5977 28.8144 12.2887 17.4855 7.20463C11.7385 4.62639 6.11527 1.70939 0.00752228 -0.00512695V2.48777L-0.00280792 2.49295Z" fill="black"/>
</svg>
