<svg width="17" height="45" viewBox="0 0 17 45" fill="none" xmlns="http://www.w3.org/2000/svg">
<path d="M17.0007 24.5659C15.6356 24.8842 14.3529 25.3811 13.6735 26.7808C13.6499 26.832 13.6317 26.8868 13.6003 26.9341C13.2969 27.3953 13.0726 28.1857 12.5348 28.1108C11.9852 28.0359 12.1097 27.2298 12.0368 26.7173C12.0014 26.475 12.0008 26.2607 11.6999 26.229C11.4418 26.2034 11.1817 26.1953 11.0241 26.4614C10.967 26.558 10.9021 26.6626 10.8884 26.769C10.6066 28.8995 9.16247 30.4092 8.04168 32.0845C7.03507 33.5904 6.11883 35.1405 5.42938 36.8179C5.31811 37.088 5.18369 38.1488 5.18133 38.1675C5.1946 38.1577 5.88859 37.646 6.13641 37.5288C7.16074 37.0459 8.23677 37.1037 9.29656 37.2397C10.1592 37.3522 10.6846 38.0261 10.9919 38.7651C12.1245 41.503 11.4454 42.9594 9.10125 44.4692C7.27912 45.642 4.3009 44.5182 3.10125 43.5386C1.32457 42.0919 0.459443 40.0917 0.378594 37.8862C0.329349 36.542 0.496942 35.7354 0.821954 34.7046C1.62566 32.1619 2.33078 29.5971 3.47527 27.145C4.35182 25.2646 4.9551 23.1912 5.37664 21.1138C5.71346 19.4523 6.26261 17.8557 6.81609 16.2612C7.13521 15.3387 7.03123 14.3665 7.22625 13.4302C7.34835 12.8409 7.43714 12.2283 7.8034 11.7632C8.94193 10.3204 9.24125 8.58151 9.54656 6.86475C9.82235 5.31151 10.6615 4.10087 11.6169 2.9458C11.9222 2.57726 12.2318 2.22083 12.5036 1.82471C13.1556 0.872713 14.0022 0.235464 15.2136 0.17627C15.8129 0.14699 16.4079 0.0822865 17.0007 0.000488281V24.5659ZM7.945 39.6675C7.44283 39.6675 7.14945 39.804 6.86981 39.9341C6.58195 40.0675 6.32772 40.4243 6.31805 40.438C6.31805 40.438 6.64697 40.9649 7.12762 41.3315C7.27936 41.4458 7.59246 41.538 7.8366 41.6069C8.28967 41.7351 8.59911 41.4711 8.85125 41.1577C9.04816 40.9133 9.19008 40.6096 8.9577 40.3062C8.71738 39.9947 8.45712 39.6872 7.945 39.6694V39.6675Z" fill="#5C5C5C"/>
</svg>
