<svg width="27" height="45" viewBox="0 0 27 45" fill="none" xmlns="http://www.w3.org/2000/svg">
<path d="M26.2088 40.832C25.5681 39.9755 25.1729 39.0018 25.0038 37.8984C25.0035 37.841 24.9536 37.8125 24.9286 37.8125H24.9032C24.3743 38.2463 23.7709 38.5073 23.242 38.8828C22.4365 39.4907 21.6054 40.0982 20.7743 40.7344C20.3968 40.9949 19.9689 41.1965 19.5663 41.2832C19.3646 41.341 19.1883 41.3704 19.037 41.457C19.0118 41.4573 18.9615 41.5151 18.9364 41.5439C17.7282 43.3953 16.4942 44.8708 14.3543 44.9863C12.1893 45.1019 10.0492 44.4662 7.98521 44.0322C7.00327 43.8011 5.61871 43.6843 3.78111 43.5977C1.94336 43.4821 0.885049 42.8745 0.482279 40.6758C0.306303 39.605 0.180269 38.6498 0.15513 37.7529C0.0797299 36.5379 0.0298783 35.3806 0.00473948 34.3105C-0.0455391 33.2403 0.30685 32.7186 0.93638 31.9951C1.18816 31.7056 1.26333 31.214 1.33872 30.8379C1.38899 30.4907 1.61603 30.1725 1.94322 30.2012C2.49733 30.2301 3.10152 30.1149 3.70591 29.7676C5.61902 28.6968 6.6261 26.8742 7.78404 24.9355C8.41357 23.8358 9.11843 22.8229 9.94908 21.6943C9.99918 21.6079 10.0242 21.5216 10.0243 21.4346C10.1248 20.2193 10.1255 19.0032 9.64732 17.8457C8.89219 16.1099 8.74083 14.1711 9.89927 12.667C10.579 11.7994 11.4597 11.7411 12.3661 11.625C13.3732 11.4516 14.2548 11.0465 14.5067 9.80176C14.6324 9.36799 14.7832 8.9917 15.035 8.64453C15.0853 8.55786 15.1112 8.47107 15.1112 8.38379C15.1111 8.2396 15.0353 8.12371 14.9344 8.03711C14.7836 7.89265 14.5562 7.80586 14.3797 7.77637C13.5493 7.66076 12.9956 7.31294 12.618 6.70508C11.9131 5.5476 11.5854 3.89821 11.9881 2.56738C12.2652 1.75751 12.9707 1.61284 13.4237 2.30664C14.1035 3.37685 14.8834 4.18761 16.0917 4.44824C16.3687 4.47713 16.6965 4.38998 16.9227 4.27441C17.3505 3.98497 17.8036 3.66675 18.2821 3.37793C18.6596 3.14619 18.8107 2.79901 19.037 2.42285L19.0379 2.42676C19.4408 1.67454 20.448 1.50155 21.1278 1.47266C22.1347 1.41488 22.9652 1.32805 23.5946 1.21191C23.8968 1.18302 24.1994 1.00905 24.577 0.749023C25.0389 0.377246 25.6284 0.127944 26.2088 0V40.832Z" fill="#5C5C5C"/>
</svg>
