<svg width="16" height="45" viewBox="0 0 16 45" fill="none" xmlns="http://www.w3.org/2000/svg">
<path d="M15.4504 0C14.6356 4.89528 13.7139 11.7164 13.2883 19.8838C12.5191 34.6463 13.8348 44.8415 12.8391 44.998C11.9404 45.1365 9.79089 36.9944 8.56763 28.6602C6.51387 14.6771 7.58364 3.68518 7.62817 0H15.4504ZM6.80591 0C6.09305 2.41239 5.14474 7.77167 4.74536 13.2998C4.57064 15.7077 4.55252 17.8638 4.52075 22.0781C4.44132 32.7365 4.81132 38.1073 4.29614 38.1709C3.9807 38.2088 3.51572 36.2183 2.94849 33.7812C2.47189 31.7317 2.18532 29.9902 1.82446 27.4414C1.45683 24.8383 1.23013 23.2311 0.926026 20.3691C0.399517 15.4169 0.113828 12.7316 0.0275881 9.39746C-0.0688254 5.74142 0.10554 2.51681 0.337158 0H6.80591Z" fill="#5C5C5C"/>
</svg>
