<svg width="500" height="600" viewBox="0 0 500 600" fill="none" xmlns="http://www.w3.org/2000/svg">
<path d="M183.631 579.565C182.265 579.884 180.982 580.381 180.302 581.78C180.279 581.831 180.262 581.886 180.23 581.934C179.927 582.395 179.702 583.185 179.165 583.11C178.615 583.035 178.739 582.229 178.666 581.717C178.63 581.474 178.63 581.26 178.329 581.229C178.071 581.203 177.811 581.195 177.653 581.461C177.596 581.557 177.531 581.662 177.517 581.769C177.235 583.899 175.791 585.409 174.671 587.084C173.664 588.59 172.749 590.14 172.059 591.817C171.948 592.087 171.814 593.147 171.811 593.167C171.83 593.153 172.52 592.645 172.766 592.528C173.79 592.046 174.866 592.103 175.925 592.239C176.788 592.352 177.314 593.025 177.622 593.765C178.754 596.502 178.075 597.959 175.731 599.469C173.909 600.642 170.93 599.518 169.73 598.538C167.954 597.091 167.089 595.091 167.008 592.886C166.959 591.541 167.127 590.735 167.452 589.704C168.256 587.161 168.961 584.597 170.105 582.145C170.982 580.264 171.584 578.191 172.006 576.113C172.342 574.452 172.892 572.855 173.446 571.261C173.765 570.338 173.66 569.366 173.855 568.43C173.977 567.841 174.066 567.228 174.432 566.763C175.571 565.32 175.871 563.581 176.176 561.864C176.452 560.311 177.291 559.1 178.247 557.945C178.552 557.577 178.861 557.22 179.133 556.824C179.785 555.872 180.632 555.235 181.843 555.176C182.443 555.146 183.038 555.082 183.631 555V579.565ZM174.575 594.667C174.073 594.667 173.778 594.804 173.499 594.934C173.208 595.068 172.952 595.431 172.947 595.438C172.947 595.438 173.276 595.964 173.757 596.331C173.908 596.445 174.222 596.537 174.466 596.606C174.919 596.734 175.229 596.471 175.481 596.157C175.678 595.913 175.819 595.609 175.587 595.306C175.346 594.994 175.087 594.687 174.575 594.669V594.667Z" fill="#5C5C5C"/>
<path d="M183.631 489.565C182.266 489.884 180.983 490.381 180.303 491.78C180.28 491.831 180.262 491.886 180.231 491.934C179.928 492.395 179.703 493.185 179.165 493.11C178.615 493.035 178.74 492.229 178.667 491.717C178.631 491.474 178.631 491.26 178.33 491.229C178.072 491.203 177.812 491.195 177.654 491.461C177.597 491.557 177.532 491.662 177.518 491.769C177.236 493.899 175.792 495.409 174.672 497.084C173.665 498.59 172.749 500.14 172.059 501.817C171.948 502.088 171.813 503.15 171.811 503.167C171.811 503.167 172.517 502.647 172.767 502.528C173.791 502.046 174.867 502.103 175.926 502.239C176.789 502.352 177.315 503.025 177.623 503.765C178.755 506.502 178.075 507.959 175.731 509.469C173.909 510.641 170.931 509.518 169.731 508.538C167.955 507.091 167.089 505.091 167.008 502.886C166.959 501.542 167.127 500.735 167.452 499.704C168.256 497.161 168.961 494.597 170.105 492.145C170.982 490.264 171.585 488.191 172.007 486.113C172.343 484.452 172.893 482.855 173.446 481.261C173.765 480.338 173.661 479.366 173.856 478.43C173.978 477.84 174.067 477.228 174.433 476.763C175.572 475.32 175.871 473.581 176.176 471.864C176.452 470.311 177.291 469.1 178.247 467.945C178.552 467.577 178.862 467.22 179.133 466.824C179.786 465.872 180.633 465.235 181.844 465.176C182.443 465.146 183.038 465.082 183.631 465V489.565ZM174.575 504.667C174.073 504.667 173.779 504.804 173.5 504.934C173.211 505.068 172.955 505.427 172.948 505.438C172.948 505.438 173.277 505.964 173.757 506.331C173.909 506.445 174.222 506.537 174.466 506.606C174.92 506.735 175.229 506.471 175.481 506.157C175.678 505.913 175.82 505.609 175.588 505.306C175.347 504.994 175.087 504.687 174.575 504.669V504.667Z" fill="#5C5C5C"/>
<path d="M183.631 534.565C182.266 534.884 180.983 535.381 180.303 536.78C180.28 536.831 180.262 536.886 180.231 536.934C179.928 537.395 179.703 538.185 179.165 538.11C178.615 538.035 178.74 537.229 178.667 536.717C178.631 536.474 178.631 536.26 178.33 536.229C178.072 536.203 177.812 536.195 177.654 536.461C177.597 536.557 177.532 536.662 177.518 536.769C177.236 538.899 175.792 540.409 174.672 542.084C173.665 543.59 172.749 545.14 172.059 546.817C171.948 547.088 171.813 548.15 171.811 548.167C171.811 548.167 172.517 547.647 172.767 547.528C173.791 547.046 174.867 547.103 175.926 547.239C176.789 547.352 177.315 548.025 177.623 548.765C178.755 551.502 178.075 552.959 175.731 554.469C173.909 555.641 170.931 554.518 169.731 553.538C167.955 552.091 167.089 550.091 167.008 547.886C166.959 546.542 167.127 545.735 167.452 544.704C168.256 542.161 168.961 539.597 170.105 537.145C170.982 535.264 171.585 533.191 172.007 531.113C172.343 529.452 172.893 527.855 173.446 526.261C173.765 525.338 173.661 524.366 173.856 523.43C173.978 522.84 174.067 522.228 174.433 521.763C175.572 520.32 175.871 518.581 176.176 516.864C176.452 515.311 177.291 514.1 178.247 512.945C178.552 512.577 178.862 512.22 179.133 511.824C179.786 510.872 180.633 510.235 181.844 510.176C182.443 510.146 183.038 510.082 183.631 510V534.565ZM174.575 549.667C174.073 549.667 173.779 549.804 173.5 549.934C173.211 550.068 172.955 550.427 172.948 550.438C172.948 550.438 173.277 550.964 173.757 551.331C173.909 551.445 174.222 551.537 174.466 551.606C174.92 551.735 175.229 551.471 175.481 551.157C175.678 550.913 175.82 550.609 175.588 550.306C175.347 549.994 175.087 549.687 174.575 549.669V549.667Z" fill="#5C5C5C"/>
<path d="M183.631 444.565C182.265 444.884 180.983 445.381 180.303 446.78C180.28 446.831 180.262 446.886 180.23 446.934C179.927 447.395 179.702 448.185 179.165 448.11C178.615 448.035 178.74 447.229 178.667 446.717C178.631 446.475 178.631 446.26 178.33 446.229C178.072 446.203 177.812 446.195 177.654 446.461C177.597 446.558 177.532 446.662 177.518 446.769C177.237 448.899 175.792 450.409 174.672 452.084C173.665 453.59 172.749 455.14 172.059 456.817C171.948 457.088 171.814 458.149 171.811 458.167C171.824 458.158 172.518 457.646 172.766 457.528C173.791 457.045 174.867 457.103 175.926 457.239C176.789 457.352 177.315 458.026 177.623 458.765C178.755 461.502 178.075 462.959 175.731 464.469C173.909 465.642 170.931 464.518 169.731 463.538C167.954 462.091 167.089 460.091 167.008 457.886C166.959 456.541 167.127 455.735 167.452 454.704C168.256 452.161 168.961 449.597 170.105 447.145C170.982 445.264 171.585 443.191 172.007 441.113C172.343 439.452 172.892 437.855 173.446 436.261C173.765 435.338 173.661 434.366 173.856 433.43C173.978 432.84 174.067 432.228 174.433 431.763C175.572 430.32 175.871 428.581 176.176 426.864C176.452 425.311 177.291 424.1 178.247 422.945C178.552 422.577 178.862 422.22 179.133 421.824C179.785 420.872 180.632 420.235 181.843 420.176C182.443 420.147 183.038 420.082 183.631 420V444.565ZM174.575 459.667C174.073 459.667 173.779 459.804 173.5 459.934C173.212 460.067 172.957 460.424 172.948 460.438C172.948 460.438 173.277 460.964 173.758 461.331C173.909 461.445 174.222 461.537 174.466 461.606C174.92 461.735 175.229 461.471 175.481 461.157C175.678 460.913 175.82 460.609 175.588 460.306C175.347 459.994 175.087 459.687 174.575 459.669V459.667Z" fill="#5C5C5C"/>
<path d="M183.631 399.565C182.265 399.884 180.983 400.381 180.303 401.78C180.28 401.831 180.262 401.886 180.23 401.934C179.927 402.395 179.702 403.185 179.165 403.11C178.615 403.035 178.739 402.229 178.666 401.717C178.63 401.474 178.63 401.26 178.329 401.229C178.071 401.203 177.811 401.195 177.653 401.461C177.596 401.557 177.531 401.662 177.517 401.769C177.235 403.899 175.791 405.409 174.671 407.084C173.664 408.59 172.749 410.14 172.059 411.817C171.948 412.087 171.814 413.147 171.811 413.167C171.829 413.154 172.519 412.645 172.766 412.528C173.79 412.046 174.866 412.103 175.925 412.239C176.788 412.352 177.314 413.025 177.622 413.765C178.754 416.502 178.075 417.959 175.731 419.469C173.909 420.642 170.93 419.518 169.73 418.538C167.954 417.091 167.089 415.091 167.008 412.886C166.959 411.541 167.127 410.735 167.452 409.704C168.256 407.161 168.961 404.597 170.105 402.145C170.982 400.264 171.584 398.191 172.006 396.113C172.342 394.452 172.892 392.855 173.446 391.261C173.765 390.338 173.66 389.366 173.855 388.43C173.977 387.841 174.066 387.228 174.432 386.763C175.571 385.32 175.871 383.581 176.176 381.864C176.452 380.311 177.291 379.1 178.247 377.945C178.552 377.577 178.861 377.22 179.133 376.824C179.785 375.872 180.632 375.235 181.843 375.176C182.443 375.146 183.038 375.082 183.631 375V399.565ZM174.575 414.667C174.073 414.667 173.778 414.804 173.499 414.934C173.208 415.069 172.951 415.432 172.947 415.438C172.947 415.438 173.277 415.964 173.758 416.331C173.909 416.445 174.222 416.538 174.466 416.606C174.919 416.734 175.229 416.471 175.481 416.157C175.678 415.913 175.819 415.609 175.587 415.306C175.346 414.994 175.087 414.687 174.575 414.669V414.667Z" fill="#5C5C5C"/>
<path d="M183.631 354.565C182.266 354.884 180.983 355.381 180.303 356.78C180.28 356.831 180.262 356.886 180.231 356.934C179.928 357.395 179.703 358.185 179.165 358.11C178.616 358.035 178.74 357.229 178.667 356.717C178.631 356.474 178.631 356.26 178.33 356.229C178.072 356.203 177.812 356.195 177.654 356.461C177.597 356.557 177.532 356.662 177.518 356.769C177.236 358.899 175.792 360.409 174.672 362.084C173.665 363.59 172.749 365.14 172.059 366.817C171.948 367.088 171.813 368.15 171.811 368.167C171.811 368.167 172.517 367.647 172.767 367.528C173.791 367.046 174.867 367.103 175.926 367.239C176.789 367.352 177.315 368.025 177.623 368.765C178.755 371.502 178.075 372.959 175.731 374.469C173.909 375.641 170.931 374.518 169.731 373.538C167.955 372.091 167.089 370.091 167.008 367.886C166.959 366.542 167.127 365.735 167.452 364.704C168.256 362.161 168.961 359.597 170.105 357.145C170.982 355.264 171.585 353.191 172.007 351.113C172.343 349.452 172.893 347.855 173.447 346.261C173.766 345.338 173.661 344.366 173.856 343.43C173.978 342.84 174.067 342.228 174.433 341.763C175.572 340.32 175.871 338.581 176.176 336.864C176.452 335.311 177.291 334.1 178.247 332.945C178.552 332.577 178.862 332.22 179.133 331.824C179.786 330.872 180.633 330.235 181.844 330.176C182.443 330.146 183.038 330.082 183.631 330V354.565ZM174.575 369.667C174.073 369.667 173.779 369.804 173.5 369.934C173.21 370.068 172.955 370.427 172.948 370.438C172.948 370.438 173.277 370.964 173.757 371.331C173.909 371.445 174.222 371.537 174.466 371.606C174.92 371.735 175.229 371.471 175.481 371.157C175.678 370.913 175.82 370.609 175.588 370.306C175.347 369.994 175.087 369.687 174.575 369.669V369.667Z" fill="#5C5C5C"/>
<path d="M213.631 579.565C212.266 579.884 210.983 580.381 210.303 581.78C210.28 581.831 210.262 581.886 210.231 581.934C209.928 582.395 209.703 583.185 209.165 583.11C208.615 583.035 208.74 582.229 208.667 581.717C208.631 581.474 208.631 581.26 208.33 581.229C208.072 581.203 207.812 581.195 207.654 581.461C207.597 581.557 207.532 581.662 207.518 581.769C207.236 583.899 205.792 585.409 204.672 587.084C203.665 588.59 202.749 590.14 202.059 591.817C201.948 592.088 201.813 593.15 201.811 593.167C201.811 593.167 202.517 592.647 202.767 592.528C203.791 592.046 204.867 592.103 205.926 592.239C206.789 592.352 207.315 593.025 207.623 593.765C208.755 596.502 208.075 597.959 205.731 599.469C203.909 600.641 200.931 599.518 199.731 598.538C197.955 597.091 197.089 595.091 197.008 592.886C196.959 591.542 197.127 590.735 197.452 589.704C198.256 587.161 198.961 584.597 200.105 582.145C200.982 580.264 201.585 578.191 202.007 576.113C202.343 574.452 202.893 572.855 203.446 571.261C203.765 570.338 203.661 569.366 203.856 568.43C203.978 567.84 204.067 567.228 204.433 566.763C205.572 565.32 205.871 563.581 206.176 561.864C206.452 560.311 207.291 559.1 208.247 557.945C208.552 557.577 208.862 557.22 209.133 556.824C209.786 555.872 210.633 555.235 211.844 555.176C212.443 555.146 213.038 555.082 213.631 555V579.565ZM204.575 594.667C204.073 594.667 203.779 594.804 203.5 594.934C203.211 595.068 202.955 595.427 202.948 595.438C202.948 595.438 203.277 595.964 203.757 596.331C203.909 596.445 204.222 596.537 204.466 596.606C204.92 596.735 205.229 596.471 205.481 596.157C205.678 595.913 205.82 595.609 205.588 595.306C205.347 594.994 205.087 594.687 204.575 594.669V594.667Z" fill="#5C5C5C"/>
<path d="M213.631 489.565C212.265 489.884 210.983 490.381 210.303 491.78C210.28 491.831 210.262 491.886 210.23 491.934C209.927 492.395 209.702 493.185 209.165 493.11C208.615 493.035 208.74 492.229 208.667 491.717C208.631 491.475 208.631 491.26 208.33 491.229C208.072 491.203 207.812 491.195 207.654 491.461C207.597 491.558 207.532 491.662 207.518 491.769C207.237 493.899 205.792 495.409 204.672 497.084C203.665 498.59 202.749 500.14 202.059 501.817C201.948 502.088 201.814 503.149 201.811 503.167C201.824 503.158 202.518 502.646 202.766 502.528C203.791 502.045 204.867 502.103 205.926 502.239C206.789 502.352 207.315 503.026 207.623 503.765C208.755 506.502 208.075 507.959 205.731 509.469C203.909 510.642 200.931 509.518 199.731 508.538C197.954 507.091 197.089 505.091 197.008 502.886C196.959 501.541 197.127 500.735 197.452 499.704C198.256 497.161 198.961 494.597 200.105 492.145C200.982 490.264 201.585 488.191 202.007 486.113C202.343 484.452 202.892 482.855 203.446 481.261C203.765 480.338 203.661 479.366 203.856 478.43C203.978 477.84 204.067 477.228 204.433 476.763C205.572 475.32 205.871 473.581 206.176 471.864C206.452 470.311 207.291 469.1 208.247 467.945C208.552 467.577 208.862 467.22 209.133 466.824C209.785 465.872 210.632 465.235 211.843 465.176C212.443 465.147 213.038 465.082 213.631 465V489.565ZM204.575 504.667C204.073 504.667 203.779 504.804 203.5 504.934C203.212 505.067 202.957 505.424 202.948 505.438C202.948 505.438 203.277 505.964 203.758 506.331C203.909 506.445 204.222 506.537 204.466 506.606C204.92 506.735 205.229 506.471 205.481 506.157C205.678 505.913 205.82 505.609 205.588 505.306C205.347 504.994 205.087 504.687 204.575 504.669V504.667Z" fill="#5C5C5C"/>
<path d="M213.631 534.565C212.265 534.884 210.983 535.381 210.303 536.78C210.28 536.831 210.262 536.886 210.23 536.934C209.927 537.395 209.702 538.185 209.165 538.11C208.615 538.035 208.74 537.229 208.667 536.717C208.631 536.475 208.631 536.26 208.33 536.229C208.072 536.203 207.812 536.195 207.654 536.461C207.597 536.558 207.532 536.662 207.518 536.769C207.237 538.899 205.792 540.409 204.672 542.084C203.665 543.59 202.749 545.14 202.059 546.817C201.948 547.088 201.814 548.149 201.811 548.167C201.824 548.158 202.518 547.646 202.766 547.528C203.791 547.045 204.867 547.103 205.926 547.239C206.789 547.352 207.315 548.026 207.623 548.765C208.755 551.502 208.075 552.959 205.731 554.469C203.909 555.642 200.931 554.518 199.731 553.538C197.954 552.091 197.089 550.091 197.008 547.886C196.959 546.541 197.127 545.735 197.452 544.704C198.256 542.161 198.961 539.597 200.105 537.145C200.982 535.264 201.585 533.191 202.007 531.113C202.343 529.452 202.892 527.855 203.446 526.261C203.765 525.338 203.661 524.366 203.856 523.43C203.978 522.84 204.067 522.228 204.433 521.763C205.572 520.32 205.871 518.581 206.176 516.864C206.452 515.311 207.291 514.1 208.247 512.945C208.552 512.577 208.862 512.22 209.133 511.824C209.785 510.872 210.632 510.235 211.843 510.176C212.443 510.147 213.038 510.082 213.631 510V534.565ZM204.575 549.667C204.073 549.667 203.779 549.804 203.5 549.934C203.212 550.067 202.957 550.424 202.948 550.438C202.948 550.438 203.277 550.964 203.758 551.331C203.909 551.445 204.222 551.537 204.466 551.606C204.92 551.735 205.229 551.471 205.481 551.157C205.678 550.913 205.82 550.609 205.588 550.306C205.347 549.994 205.087 549.687 204.575 549.669V549.667Z" fill="#5C5C5C"/>
<path d="M213.631 444.565C212.265 444.884 210.983 445.381 210.303 446.78C210.28 446.831 210.262 446.886 210.23 446.934C209.927 447.395 209.702 448.185 209.165 448.11C208.615 448.035 208.739 447.229 208.666 446.717C208.63 446.474 208.63 446.26 208.329 446.229C208.071 446.203 207.811 446.195 207.653 446.461C207.596 446.557 207.531 446.662 207.517 446.769C207.235 448.899 205.791 450.409 204.671 452.084C203.664 453.59 202.749 455.14 202.059 456.817C201.948 457.087 201.814 458.147 201.811 458.167C201.829 458.154 202.519 457.645 202.766 457.528C203.79 457.046 204.866 457.103 205.925 457.239C206.788 457.352 207.314 458.025 207.622 458.765C208.754 461.502 208.075 462.959 205.731 464.469C203.909 465.642 200.93 464.518 199.73 463.538C197.954 462.091 197.089 460.091 197.008 457.886C196.959 456.541 197.127 455.735 197.452 454.704C198.256 452.161 198.961 449.597 200.105 447.145C200.982 445.264 201.584 443.191 202.006 441.113C202.342 439.452 202.892 437.855 203.446 436.261C203.765 435.338 203.66 434.366 203.855 433.43C203.977 432.841 204.066 432.228 204.432 431.763C205.571 430.32 205.871 428.581 206.176 426.864C206.452 425.311 207.291 424.1 208.247 422.945C208.552 422.577 208.861 422.22 209.133 421.824C209.785 420.872 210.632 420.235 211.843 420.176C212.443 420.146 213.038 420.082 213.631 420V444.565ZM204.575 459.667C204.073 459.667 203.778 459.804 203.499 459.934C203.208 460.069 202.951 460.432 202.947 460.438C202.947 460.438 203.277 460.964 203.758 461.331C203.909 461.445 204.222 461.538 204.466 461.606C204.919 461.734 205.229 461.471 205.481 461.157C205.678 460.913 205.819 460.609 205.587 460.306C205.346 459.994 205.087 459.687 204.575 459.669V459.667Z" fill="#5C5C5C"/>
<path d="M213.631 399.565C212.266 399.884 210.983 400.381 210.303 401.78C210.28 401.831 210.262 401.886 210.231 401.934C209.928 402.395 209.703 403.185 209.165 403.11C208.616 403.035 208.74 402.229 208.667 401.717C208.631 401.474 208.631 401.26 208.33 401.229C208.072 401.203 207.812 401.195 207.654 401.461C207.597 401.557 207.532 401.662 207.518 401.769C207.236 403.899 205.792 405.409 204.672 407.084C203.665 408.59 202.749 410.14 202.059 411.817C201.948 412.088 201.813 413.15 201.811 413.167C201.811 413.167 202.517 412.647 202.767 412.528C203.791 412.046 204.867 412.103 205.926 412.239C206.789 412.352 207.315 413.025 207.623 413.765C208.755 416.502 208.075 417.959 205.731 419.469C203.909 420.641 200.931 419.518 199.731 418.538C197.955 417.091 197.089 415.091 197.008 412.886C196.959 411.542 197.127 410.735 197.452 409.704C198.256 407.161 198.961 404.597 200.105 402.145C200.982 400.264 201.585 398.191 202.007 396.113C202.343 394.452 202.893 392.855 203.447 391.261C203.766 390.338 203.661 389.366 203.856 388.43C203.978 387.84 204.067 387.228 204.433 386.763C205.572 385.32 205.871 383.581 206.176 381.864C206.452 380.311 207.291 379.1 208.247 377.945C208.552 377.577 208.862 377.22 209.133 376.824C209.786 375.872 210.633 375.235 211.844 375.176C212.443 375.146 213.038 375.082 213.631 375V399.565ZM204.575 414.667C204.073 414.667 203.779 414.804 203.5 414.934C203.21 415.068 202.955 415.427 202.948 415.438C202.948 415.438 203.277 415.964 203.757 416.331C203.909 416.445 204.222 416.537 204.466 416.606C204.92 416.735 205.229 416.471 205.481 416.157C205.678 415.913 205.82 415.609 205.588 415.306C205.347 414.994 205.087 414.687 204.575 414.669V414.667Z" fill="#5C5C5C"/>
<path d="M243.631 579.565C242.265 579.884 240.983 580.381 240.303 581.78C240.28 581.831 240.262 581.886 240.23 581.934C239.927 582.395 239.702 583.185 239.165 583.11C238.615 583.035 238.74 582.229 238.667 581.717C238.631 581.475 238.631 581.26 238.33 581.229C238.072 581.203 237.812 581.195 237.654 581.461C237.597 581.558 237.532 581.662 237.518 581.769C237.237 583.899 235.792 585.409 234.672 587.084C233.665 588.59 232.749 590.14 232.059 591.817C231.948 592.088 231.814 593.149 231.811 593.167C231.824 593.158 232.518 592.646 232.766 592.528C233.791 592.045 234.867 592.103 235.926 592.239C236.789 592.352 237.315 593.026 237.623 593.765C238.755 596.502 238.075 597.959 235.731 599.469C233.909 600.642 230.931 599.518 229.731 598.538C227.954 597.091 227.089 595.091 227.008 592.886C226.959 591.541 227.127 590.735 227.452 589.704C228.256 587.161 228.961 584.597 230.105 582.145C230.982 580.264 231.585 578.191 232.007 576.113C232.343 574.452 232.892 572.855 233.446 571.261C233.765 570.338 233.661 569.366 233.856 568.43C233.978 567.84 234.067 567.228 234.433 566.763C235.572 565.32 235.871 563.581 236.176 561.864C236.452 560.311 237.291 559.1 238.247 557.945C238.552 557.577 238.862 557.22 239.133 556.824C239.785 555.872 240.632 555.235 241.843 555.176C242.443 555.147 243.038 555.082 243.631 555V579.565ZM234.575 594.667C234.073 594.667 233.779 594.804 233.5 594.934C233.212 595.067 232.957 595.424 232.948 595.438C232.948 595.438 233.277 595.964 233.758 596.331C233.909 596.445 234.222 596.537 234.466 596.606C234.92 596.735 235.229 596.471 235.481 596.157C235.678 595.913 235.82 595.609 235.588 595.306C235.347 594.994 235.087 594.687 234.575 594.669V594.667Z" fill="#5C5C5C"/>
<path d="M243.631 489.565C242.265 489.884 240.983 490.381 240.303 491.78C240.28 491.831 240.262 491.886 240.23 491.934C239.927 492.395 239.702 493.185 239.165 493.11C238.615 493.035 238.739 492.229 238.666 491.717C238.63 491.474 238.63 491.26 238.329 491.229C238.071 491.203 237.811 491.195 237.653 491.461C237.596 491.557 237.531 491.662 237.517 491.769C237.235 493.899 235.791 495.409 234.671 497.084C233.664 498.59 232.749 500.14 232.059 501.817C231.948 502.087 231.814 503.147 231.811 503.167C231.829 503.154 232.519 502.645 232.766 502.528C233.79 502.046 234.866 502.103 235.925 502.239C236.788 502.352 237.314 503.025 237.622 503.765C238.754 506.502 238.075 507.959 235.731 509.469C233.909 510.642 230.93 509.518 229.73 508.538C227.954 507.091 227.089 505.091 227.008 502.886C226.959 501.541 227.127 500.735 227.452 499.704C228.256 497.161 228.961 494.597 230.105 492.145C230.982 490.264 231.584 488.191 232.006 486.113C232.342 484.452 232.892 482.855 233.446 481.261C233.765 480.338 233.66 479.366 233.855 478.43C233.977 477.841 234.066 477.228 234.432 476.763C235.571 475.32 235.871 473.581 236.176 471.864C236.452 470.311 237.291 469.1 238.247 467.945C238.552 467.577 238.861 467.22 239.133 466.824C239.785 465.872 240.632 465.235 241.843 465.176C242.443 465.146 243.038 465.082 243.631 465V489.565ZM234.575 504.667C234.073 504.667 233.778 504.804 233.499 504.934C233.208 505.069 232.951 505.432 232.947 505.438C232.947 505.438 233.277 505.964 233.758 506.331C233.909 506.445 234.222 506.538 234.466 506.606C234.919 506.734 235.229 506.471 235.481 506.157C235.678 505.913 235.819 505.609 235.587 505.306C235.346 504.994 235.087 504.687 234.575 504.669V504.667Z" fill="#5C5C5C"/>
<path d="M243.631 534.565C242.265 534.884 240.983 535.381 240.303 536.78C240.28 536.831 240.262 536.886 240.23 536.934C239.927 537.395 239.702 538.185 239.165 538.11C238.615 538.035 238.739 537.229 238.666 536.717C238.63 536.474 238.63 536.26 238.329 536.229C238.071 536.203 237.811 536.195 237.653 536.461C237.596 536.557 237.531 536.662 237.517 536.769C237.235 538.899 235.791 540.409 234.671 542.084C233.664 543.59 232.749 545.14 232.059 546.817C231.948 547.087 231.814 548.147 231.811 548.167C231.829 548.154 232.519 547.645 232.766 547.528C233.79 547.046 234.866 547.103 235.925 547.239C236.788 547.352 237.314 548.025 237.622 548.765C238.754 551.502 238.075 552.959 235.731 554.469C233.909 555.642 230.93 554.518 229.73 553.538C227.954 552.091 227.089 550.091 227.008 547.886C226.959 546.541 227.127 545.735 227.452 544.704C228.256 542.161 228.961 539.597 230.105 537.145C230.982 535.264 231.584 533.191 232.006 531.113C232.342 529.452 232.892 527.855 233.446 526.261C233.765 525.338 233.66 524.366 233.855 523.43C233.977 522.841 234.066 522.228 234.432 521.763C235.571 520.32 235.871 518.581 236.176 516.864C236.452 515.311 237.291 514.1 238.247 512.945C238.552 512.577 238.861 512.22 239.133 511.824C239.785 510.872 240.632 510.235 241.843 510.176C242.443 510.146 243.038 510.082 243.631 510V534.565ZM234.575 549.667C234.073 549.667 233.778 549.804 233.499 549.934C233.208 550.069 232.951 550.432 232.947 550.438C232.947 550.438 233.277 550.964 233.758 551.331C233.909 551.445 234.222 551.538 234.466 551.606C234.919 551.734 235.229 551.471 235.481 551.157C235.678 550.913 235.819 550.609 235.587 550.306C235.346 549.994 235.087 549.687 234.575 549.669V549.667Z" fill="#5C5C5C"/>
<path d="M243.631 444.565C242.266 444.884 240.983 445.381 240.303 446.78C240.28 446.831 240.262 446.886 240.231 446.934C239.928 447.395 239.703 448.185 239.165 448.11C238.616 448.035 238.74 447.229 238.667 446.717C238.631 446.474 238.631 446.26 238.33 446.229C238.072 446.203 237.812 446.195 237.654 446.461C237.597 446.557 237.532 446.662 237.518 446.769C237.236 448.899 235.792 450.409 234.672 452.084C233.665 453.59 232.749 455.14 232.059 456.817C231.948 457.088 231.813 458.15 231.811 458.167C231.811 458.167 232.517 457.647 232.767 457.528C233.791 457.046 234.867 457.103 235.926 457.239C236.789 457.352 237.315 458.025 237.623 458.765C238.755 461.502 238.075 462.959 235.731 464.469C233.909 465.641 230.931 464.518 229.731 463.538C227.955 462.091 227.089 460.091 227.008 457.886C226.959 456.542 227.127 455.735 227.452 454.704C228.256 452.161 228.961 449.597 230.105 447.145C230.982 445.264 231.585 443.191 232.007 441.113C232.343 439.452 232.893 437.855 233.447 436.261C233.766 435.338 233.661 434.366 233.856 433.43C233.978 432.84 234.067 432.228 234.433 431.763C235.572 430.32 235.871 428.581 236.176 426.864C236.452 425.311 237.291 424.1 238.247 422.945C238.552 422.577 238.862 422.22 239.133 421.824C239.786 420.872 240.633 420.235 241.844 420.176C242.443 420.146 243.038 420.082 243.631 420V444.565ZM234.575 459.667C234.073 459.667 233.779 459.804 233.5 459.934C233.21 460.068 232.955 460.427 232.948 460.438C232.948 460.438 233.277 460.964 233.757 461.331C233.909 461.445 234.222 461.537 234.466 461.606C234.92 461.735 235.229 461.471 235.481 461.157C235.678 460.913 235.82 460.609 235.588 460.306C235.347 459.994 235.087 459.687 234.575 459.669V459.667Z" fill="#5C5C5C"/>
<path d="M243.631 399.565C242.265 399.884 240.983 400.381 240.303 401.78C240.28 401.831 240.262 401.886 240.23 401.934C239.927 402.395 239.703 403.185 239.165 403.11C238.615 403.035 238.74 402.229 238.667 401.717C238.631 401.475 238.631 401.26 238.33 401.229C238.072 401.203 237.812 401.195 237.654 401.461C237.597 401.558 237.532 401.662 237.518 401.769C237.236 403.899 235.792 405.409 234.672 407.084C233.665 408.59 232.749 410.14 232.059 411.817C231.948 412.088 231.814 413.149 231.811 413.167C231.823 413.159 232.518 412.646 232.766 412.528C233.791 412.045 234.867 412.103 235.926 412.239C236.789 412.352 237.315 413.026 237.623 413.765C238.755 416.502 238.075 417.959 235.731 419.469C233.909 420.642 230.931 419.518 229.731 418.538C227.954 417.091 227.089 415.091 227.008 412.886C226.959 411.541 227.127 410.735 227.452 409.704C228.256 407.161 228.961 404.597 230.105 402.145C230.982 400.264 231.585 398.191 232.007 396.113C232.343 394.452 232.892 392.855 233.446 391.261C233.765 390.338 233.661 389.366 233.856 388.43C233.978 387.84 234.067 387.228 234.433 386.763C235.572 385.32 235.871 383.581 236.176 381.864C236.452 380.311 237.291 379.1 238.247 377.945C238.552 377.577 238.862 377.22 239.133 376.824C239.785 375.872 240.632 375.235 241.843 375.176C242.443 375.147 243.038 375.082 243.631 375V399.565ZM234.575 414.667C234.073 414.667 233.779 414.804 233.5 414.934C233.212 415.067 232.957 415.424 232.948 415.438C232.948 415.438 233.277 415.964 233.758 416.331C233.909 416.445 234.222 416.537 234.466 416.606C234.92 416.735 235.229 416.471 235.481 416.157C235.678 415.913 235.82 415.609 235.588 415.306C235.347 414.994 235.087 414.687 234.575 414.669V414.667Z" fill="#5C5C5C"/>
<path d="M273.631 579.565C272.265 579.884 270.983 580.381 270.303 581.78C270.28 581.831 270.262 581.886 270.23 581.934C269.927 582.395 269.702 583.185 269.165 583.11C268.615 583.035 268.739 582.229 268.666 581.717C268.63 581.474 268.63 581.26 268.329 581.229C268.071 581.203 267.811 581.195 267.653 581.461C267.596 581.557 267.531 581.662 267.517 581.769C267.235 583.899 265.791 585.409 264.671 587.084C263.664 588.59 262.749 590.14 262.059 591.817C261.948 592.087 261.814 593.147 261.811 593.167C261.829 593.154 262.519 592.645 262.766 592.528C263.79 592.046 264.866 592.103 265.925 592.239C266.788 592.352 267.314 593.025 267.622 593.765C268.754 596.502 268.075 597.959 265.731 599.469C263.909 600.642 260.93 599.518 259.73 598.538C257.954 597.091 257.089 595.091 257.008 592.886C256.959 591.541 257.127 590.735 257.452 589.704C258.256 587.161 258.961 584.597 260.105 582.145C260.982 580.264 261.584 578.191 262.006 576.113C262.342 574.452 262.892 572.855 263.446 571.261C263.765 570.338 263.66 569.366 263.855 568.43C263.977 567.841 264.066 567.228 264.432 566.763C265.571 565.32 265.871 563.581 266.176 561.864C266.452 560.311 267.291 559.1 268.247 557.945C268.552 557.577 268.861 557.22 269.133 556.824C269.785 555.872 270.632 555.235 271.843 555.176C272.443 555.146 273.038 555.082 273.631 555V579.565ZM264.575 594.667C264.073 594.667 263.778 594.804 263.499 594.934C263.208 595.069 262.951 595.432 262.947 595.438C262.947 595.438 263.277 595.964 263.758 596.331C263.909 596.445 264.222 596.538 264.466 596.606C264.919 596.734 265.229 596.471 265.481 596.157C265.678 595.913 265.819 595.609 265.587 595.306C265.346 594.994 265.087 594.687 264.575 594.669V594.667Z" fill="#5C5C5C"/>
<path d="M273.631 489.565C272.266 489.884 270.983 490.381 270.303 491.78C270.28 491.831 270.262 491.886 270.231 491.934C269.928 492.395 269.703 493.185 269.165 493.11C268.616 493.035 268.74 492.229 268.667 491.717C268.631 491.474 268.631 491.26 268.33 491.229C268.072 491.203 267.812 491.195 267.654 491.461C267.597 491.557 267.532 491.662 267.518 491.769C267.236 493.899 265.792 495.409 264.672 497.084C263.665 498.59 262.749 500.14 262.059 501.817C261.948 502.088 261.813 503.15 261.811 503.167C261.811 503.167 262.517 502.647 262.767 502.528C263.791 502.046 264.867 502.103 265.926 502.239C266.789 502.352 267.315 503.025 267.623 503.765C268.755 506.502 268.075 507.959 265.731 509.469C263.909 510.641 260.931 509.518 259.731 508.538C257.955 507.091 257.089 505.091 257.008 502.886C256.959 501.542 257.127 500.735 257.452 499.704C258.256 497.161 258.961 494.597 260.105 492.145C260.982 490.264 261.585 488.191 262.007 486.113C262.343 484.452 262.893 482.855 263.447 481.261C263.766 480.338 263.661 479.366 263.856 478.43C263.978 477.84 264.067 477.228 264.433 476.763C265.572 475.32 265.871 473.581 266.176 471.864C266.452 470.311 267.291 469.1 268.247 467.945C268.552 467.577 268.862 467.22 269.133 466.824C269.786 465.872 270.633 465.235 271.844 465.176C272.443 465.146 273.038 465.082 273.631 465V489.565ZM264.575 504.667C264.073 504.667 263.779 504.804 263.5 504.934C263.21 505.068 262.955 505.427 262.948 505.438C262.948 505.438 263.277 505.964 263.757 506.331C263.909 506.445 264.222 506.537 264.466 506.606C264.92 506.735 265.229 506.471 265.481 506.157C265.678 505.913 265.82 505.609 265.588 505.306C265.347 504.994 265.087 504.687 264.575 504.669V504.667Z" fill="#5C5C5C"/>
<path d="M273.631 534.565C272.266 534.884 270.983 535.381 270.303 536.78C270.28 536.831 270.262 536.886 270.231 536.934C269.928 537.395 269.703 538.185 269.165 538.11C268.616 538.035 268.74 537.229 268.667 536.717C268.631 536.474 268.631 536.26 268.33 536.229C268.072 536.203 267.812 536.195 267.654 536.461C267.597 536.557 267.532 536.662 267.518 536.769C267.236 538.899 265.792 540.409 264.672 542.084C263.665 543.59 262.749 545.14 262.059 546.817C261.948 547.088 261.813 548.15 261.811 548.167C261.811 548.167 262.517 547.647 262.767 547.528C263.791 547.046 264.867 547.103 265.926 547.239C266.789 547.352 267.315 548.025 267.623 548.765C268.755 551.502 268.075 552.959 265.731 554.469C263.909 555.641 260.931 554.518 259.731 553.538C257.955 552.091 257.089 550.091 257.008 547.886C256.959 546.542 257.127 545.735 257.452 544.704C258.256 542.161 258.961 539.597 260.105 537.145C260.982 535.264 261.585 533.191 262.007 531.113C262.343 529.452 262.893 527.855 263.447 526.261C263.766 525.338 263.661 524.366 263.856 523.43C263.978 522.84 264.067 522.228 264.433 521.763C265.572 520.32 265.871 518.581 266.176 516.864C266.452 515.311 267.291 514.1 268.247 512.945C268.552 512.577 268.862 512.22 269.133 511.824C269.786 510.872 270.633 510.235 271.844 510.176C272.443 510.146 273.038 510.082 273.631 510V534.565ZM264.575 549.667C264.073 549.667 263.779 549.804 263.5 549.934C263.21 550.068 262.955 550.427 262.948 550.438C262.948 550.438 263.277 550.964 263.757 551.331C263.909 551.445 264.222 551.537 264.466 551.606C264.92 551.735 265.229 551.471 265.481 551.157C265.678 550.913 265.82 550.609 265.588 550.306C265.347 549.994 265.087 549.687 264.575 549.669V549.667Z" fill="#5C5C5C"/>
<path d="M273.631 444.565C272.265 444.884 270.983 445.381 270.303 446.78C270.28 446.831 270.262 446.886 270.23 446.934C269.927 447.395 269.703 448.185 269.165 448.11C268.615 448.035 268.74 447.229 268.667 446.717C268.631 446.475 268.631 446.26 268.33 446.229C268.072 446.203 267.812 446.195 267.654 446.461C267.597 446.558 267.532 446.662 267.518 446.769C267.236 448.899 265.792 450.409 264.672 452.084C263.665 453.59 262.749 455.14 262.059 456.817C261.948 457.088 261.814 458.149 261.811 458.167C261.823 458.159 262.518 457.646 262.766 457.528C263.791 457.045 264.867 457.103 265.926 457.239C266.789 457.352 267.315 458.026 267.623 458.765C268.755 461.502 268.075 462.959 265.731 464.469C263.909 465.642 260.931 464.518 259.731 463.538C257.954 462.091 257.089 460.091 257.008 457.886C256.959 456.541 257.127 455.735 257.452 454.704C258.256 452.161 258.961 449.597 260.105 447.145C260.982 445.264 261.585 443.191 262.007 441.113C262.343 439.452 262.892 437.855 263.446 436.261C263.765 435.338 263.661 434.366 263.856 433.43C263.978 432.84 264.067 432.228 264.433 431.763C265.572 430.32 265.871 428.581 266.176 426.864C266.452 425.311 267.291 424.1 268.247 422.945C268.552 422.577 268.862 422.22 269.133 421.824C269.785 420.872 270.632 420.235 271.843 420.176C272.443 420.147 273.038 420.082 273.631 420V444.565ZM264.575 459.667C264.073 459.667 263.779 459.804 263.5 459.934C263.212 460.067 262.957 460.424 262.948 460.438C262.948 460.438 263.277 460.964 263.758 461.331C263.909 461.445 264.222 461.537 264.466 461.606C264.92 461.735 265.229 461.471 265.481 461.157C265.678 460.913 265.82 460.609 265.588 460.306C265.347 459.994 265.087 459.687 264.575 459.669V459.667Z" fill="#5C5C5C"/>
<path d="M273.631 399.565C272.265 399.884 270.983 400.381 270.303 401.78C270.28 401.831 270.262 401.886 270.23 401.934C269.927 402.395 269.702 403.185 269.165 403.11C268.615 403.035 268.739 402.229 268.666 401.717C268.63 401.474 268.63 401.26 268.329 401.229C268.071 401.203 267.812 401.195 267.654 401.461C267.597 401.558 267.531 401.662 267.517 401.769C267.236 403.899 265.792 405.409 264.672 407.084C263.665 408.59 262.749 410.14 262.059 411.817C261.948 412.087 261.814 413.147 261.811 413.167C261.829 413.154 262.519 412.645 262.766 412.528C263.79 412.046 264.866 412.103 265.925 412.239C266.788 412.352 267.314 413.025 267.622 413.765C268.754 416.502 268.075 417.959 265.731 419.469C263.909 420.642 260.931 419.518 259.731 418.538C257.954 417.091 257.089 415.091 257.008 412.886C256.959 411.541 257.127 410.735 257.452 409.704C258.256 407.161 258.961 404.597 260.105 402.145C260.982 400.264 261.584 398.191 262.006 396.113C262.342 394.452 262.892 392.855 263.446 391.261C263.765 390.338 263.66 389.366 263.855 388.43C263.977 387.841 264.066 387.228 264.432 386.763C265.571 385.32 265.871 383.581 266.176 381.864C266.452 380.311 267.291 379.1 268.247 377.945C268.552 377.577 268.861 377.22 269.133 376.824C269.785 375.872 270.632 375.235 271.843 375.176C272.443 375.146 273.038 375.082 273.631 375V399.565ZM264.575 414.667C264.073 414.667 263.778 414.804 263.499 414.934C263.212 415.067 262.959 415.422 262.948 415.438C262.948 415.438 263.277 415.964 263.758 416.331C263.909 416.445 264.222 416.538 264.466 416.606C264.919 416.734 265.229 416.471 265.481 416.157C265.678 415.913 265.82 415.609 265.588 415.306C265.347 414.994 265.087 414.687 264.575 414.669V414.667Z" fill="#5C5C5C"/>
<path d="M303.631 579.565C302.266 579.884 300.983 580.381 300.303 581.78C300.28 581.831 300.262 581.886 300.231 581.934C299.928 582.395 299.703 583.185 299.165 583.11C298.616 583.035 298.74 582.229 298.667 581.717C298.631 581.474 298.631 581.26 298.33 581.229C298.072 581.203 297.812 581.195 297.654 581.461C297.597 581.557 297.532 581.662 297.518 581.769C297.236 583.899 295.792 585.409 294.672 587.084C293.665 588.59 292.749 590.14 292.059 591.817C291.948 592.088 291.813 593.15 291.811 593.167C291.811 593.167 292.517 592.647 292.767 592.528C293.791 592.046 294.867 592.103 295.926 592.239C296.789 592.352 297.315 593.025 297.623 593.765C298.755 596.502 298.075 597.959 295.731 599.469C293.909 600.641 290.931 599.518 289.731 598.538C287.955 597.091 287.089 595.091 287.008 592.886C286.959 591.542 287.127 590.735 287.452 589.704C288.256 587.161 288.961 584.597 290.105 582.145C290.982 580.264 291.585 578.191 292.007 576.113C292.343 574.452 292.893 572.855 293.447 571.261C293.766 570.338 293.661 569.366 293.856 568.43C293.978 567.84 294.067 567.228 294.433 566.763C295.572 565.32 295.871 563.581 296.176 561.864C296.452 560.311 297.291 559.1 298.247 557.945C298.552 557.577 298.862 557.22 299.133 556.824C299.786 555.872 300.633 555.235 301.844 555.176C302.443 555.146 303.038 555.082 303.631 555V579.565ZM294.575 594.667C294.073 594.667 293.779 594.804 293.5 594.934C293.21 595.068 292.955 595.427 292.948 595.438C292.948 595.438 293.277 595.964 293.757 596.331C293.909 596.445 294.222 596.537 294.466 596.606C294.92 596.735 295.229 596.471 295.481 596.157C295.678 595.913 295.82 595.609 295.588 595.306C295.347 594.994 295.087 594.687 294.575 594.669V594.667Z" fill="#5C5C5C"/>
<path d="M303.631 489.565C302.265 489.884 300.983 490.381 300.303 491.78C300.28 491.831 300.262 491.886 300.23 491.934C299.927 492.395 299.703 493.185 299.165 493.11C298.615 493.035 298.74 492.229 298.667 491.717C298.631 491.475 298.631 491.26 298.33 491.229C298.072 491.203 297.812 491.195 297.654 491.461C297.597 491.558 297.532 491.662 297.518 491.769C297.236 493.899 295.792 495.409 294.672 497.084C293.665 498.59 292.749 500.14 292.059 501.817C291.948 502.088 291.814 503.149 291.811 503.167C291.823 503.159 292.518 502.646 292.766 502.528C293.791 502.045 294.867 502.103 295.926 502.239C296.789 502.352 297.315 503.026 297.623 503.765C298.755 506.502 298.075 507.959 295.731 509.469C293.909 510.642 290.931 509.518 289.731 508.538C287.954 507.091 287.089 505.091 287.008 502.886C286.959 501.541 287.127 500.735 287.452 499.704C288.256 497.161 288.961 494.597 290.105 492.145C290.982 490.264 291.585 488.191 292.007 486.113C292.343 484.452 292.892 482.855 293.446 481.261C293.765 480.338 293.661 479.366 293.856 478.43C293.978 477.84 294.067 477.228 294.433 476.763C295.572 475.32 295.871 473.581 296.176 471.864C296.452 470.311 297.291 469.1 298.247 467.945C298.552 467.577 298.862 467.22 299.133 466.824C299.785 465.872 300.632 465.235 301.843 465.176C302.443 465.147 303.038 465.082 303.631 465V489.565ZM294.575 504.667C294.073 504.667 293.779 504.804 293.5 504.934C293.212 505.067 292.957 505.424 292.948 505.438C292.948 505.438 293.277 505.964 293.758 506.331C293.909 506.445 294.222 506.537 294.466 506.606C294.92 506.735 295.229 506.471 295.481 506.157C295.678 505.913 295.82 505.609 295.588 505.306C295.347 504.994 295.087 504.687 294.575 504.669V504.667Z" fill="#5C5C5C"/>
<path d="M303.631 534.565C302.265 534.884 300.983 535.381 300.303 536.78C300.28 536.831 300.262 536.886 300.23 536.934C299.927 537.395 299.703 538.185 299.165 538.11C298.615 538.035 298.74 537.229 298.667 536.717C298.631 536.475 298.631 536.26 298.33 536.229C298.072 536.203 297.812 536.195 297.654 536.461C297.597 536.558 297.532 536.662 297.518 536.769C297.236 538.899 295.792 540.409 294.672 542.084C293.665 543.59 292.749 545.14 292.059 546.817C291.948 547.088 291.814 548.149 291.811 548.167C291.823 548.159 292.518 547.646 292.766 547.528C293.791 547.045 294.867 547.103 295.926 547.239C296.789 547.352 297.315 548.026 297.623 548.765C298.755 551.502 298.075 552.959 295.731 554.469C293.909 555.642 290.931 554.518 289.731 553.538C287.954 552.091 287.089 550.091 287.008 547.886C286.959 546.541 287.127 545.735 287.452 544.704C288.256 542.161 288.961 539.597 290.105 537.145C290.982 535.264 291.585 533.191 292.007 531.113C292.343 529.452 292.892 527.855 293.446 526.261C293.765 525.338 293.661 524.366 293.856 523.43C293.978 522.84 294.067 522.228 294.433 521.763C295.572 520.32 295.871 518.581 296.176 516.864C296.452 515.311 297.291 514.1 298.247 512.945C298.552 512.577 298.862 512.22 299.133 511.824C299.785 510.872 300.632 510.235 301.843 510.176C302.443 510.147 303.038 510.082 303.631 510V534.565ZM294.575 549.667C294.073 549.667 293.779 549.804 293.5 549.934C293.212 550.067 292.957 550.424 292.948 550.438C292.948 550.438 293.277 550.964 293.758 551.331C293.909 551.445 294.222 551.537 294.466 551.606C294.92 551.735 295.229 551.471 295.481 551.157C295.678 550.913 295.82 550.609 295.588 550.306C295.347 549.994 295.087 549.687 294.575 549.669V549.667Z" fill="#5C5C5C"/>
<path d="M303.631 444.565C302.265 444.884 300.983 445.381 300.303 446.78C300.28 446.831 300.262 446.886 300.23 446.934C299.927 447.395 299.702 448.185 299.165 448.11C298.615 448.035 298.739 447.229 298.666 446.717C298.63 446.474 298.63 446.26 298.329 446.229C298.071 446.203 297.812 446.195 297.654 446.461C297.597 446.558 297.531 446.662 297.517 446.769C297.236 448.899 295.792 450.409 294.672 452.084C293.665 453.59 292.749 455.14 292.059 456.817C291.948 457.087 291.814 458.147 291.811 458.167C291.829 458.154 292.519 457.645 292.766 457.528C293.79 457.046 294.866 457.103 295.925 457.239C296.788 457.352 297.314 458.025 297.622 458.765C298.754 461.502 298.075 462.959 295.731 464.469C293.909 465.642 290.931 464.518 289.731 463.538C287.954 462.091 287.089 460.091 287.008 457.886C286.959 456.541 287.127 455.735 287.452 454.704C288.256 452.161 288.961 449.597 290.105 447.145C290.982 445.264 291.584 443.191 292.006 441.113C292.342 439.452 292.892 437.855 293.446 436.261C293.765 435.338 293.66 434.366 293.855 433.43C293.977 432.841 294.066 432.228 294.432 431.763C295.571 430.32 295.871 428.581 296.176 426.864C296.452 425.311 297.291 424.1 298.247 422.945C298.552 422.577 298.861 422.22 299.133 421.824C299.785 420.872 300.632 420.235 301.843 420.176C302.443 420.146 303.038 420.082 303.631 420V444.565ZM294.575 459.667C294.073 459.667 293.778 459.804 293.499 459.934C293.212 460.067 292.959 460.422 292.948 460.438C292.948 460.438 293.277 460.964 293.758 461.331C293.909 461.445 294.222 461.538 294.466 461.606C294.919 461.734 295.229 461.471 295.481 461.157C295.678 460.913 295.82 460.609 295.588 460.306C295.347 459.994 295.087 459.687 294.575 459.669V459.667Z" fill="#5C5C5C"/>
<path d="M303.631 399.565C302.265 399.884 300.982 400.38 300.302 401.78C300.279 401.831 300.262 401.886 300.23 401.934C299.927 402.395 299.702 403.185 299.164 403.11C298.615 403.035 298.739 402.229 298.666 401.717C298.63 401.474 298.63 401.26 298.329 401.229C298.071 401.203 297.811 401.195 297.653 401.461C297.596 401.557 297.531 401.662 297.517 401.769C297.236 403.899 295.791 405.409 294.671 407.084C293.664 408.59 292.748 410.14 292.058 411.817C291.947 412.088 291.812 413.15 291.81 413.167C291.81 413.167 292.516 412.647 292.766 412.528C293.791 412.046 294.866 412.103 295.926 412.239C296.788 412.352 297.314 413.025 297.622 413.765C298.754 416.502 298.074 417.959 295.73 419.469C293.908 420.641 290.93 419.518 289.73 418.538C287.954 417.091 287.089 415.091 287.009 412.886C286.959 411.542 287.126 410.735 287.451 409.704C288.255 407.161 288.96 404.597 290.104 402.145C290.981 400.264 291.584 398.191 292.006 396.113C292.342 394.452 292.893 392.855 293.446 391.261C293.765 390.338 293.66 389.366 293.855 388.43C293.977 387.84 294.066 387.228 294.432 386.763C295.571 385.32 295.87 383.581 296.176 381.864C296.451 380.311 297.29 379.1 298.246 377.945C298.551 377.577 298.861 377.22 299.133 376.824C299.785 375.872 300.632 375.235 301.843 375.176C302.443 375.146 303.038 375.082 303.631 375V399.565ZM294.574 414.667C294.072 414.667 293.778 414.804 293.499 414.934C293.209 415.068 292.954 415.428 292.947 415.438C292.947 415.438 293.276 415.964 293.757 416.331C293.908 416.445 294.221 416.537 294.466 416.606C294.919 416.735 295.228 416.471 295.48 416.157C295.677 415.913 295.819 415.609 295.587 415.306C295.346 414.994 295.086 414.687 294.574 414.669V414.667Z" fill="#5C5C5C"/>
<path d="M333.631 579.565C332.265 579.884 330.983 580.381 330.303 581.78C330.28 581.831 330.262 581.886 330.23 581.934C329.927 582.395 329.703 583.185 329.165 583.11C328.615 583.035 328.74 582.229 328.667 581.717C328.631 581.475 328.631 581.26 328.33 581.229C328.072 581.203 327.812 581.195 327.654 581.461C327.597 581.558 327.532 581.662 327.518 581.769C327.236 583.899 325.792 585.409 324.672 587.084C323.665 588.59 322.749 590.14 322.059 591.817C321.948 592.088 321.814 593.149 321.811 593.167C321.823 593.159 322.518 592.646 322.766 592.528C323.791 592.045 324.867 592.103 325.926 592.239C326.789 592.352 327.315 593.026 327.623 593.765C328.755 596.502 328.075 597.959 325.731 599.469C323.909 600.642 320.931 599.518 319.731 598.538C317.954 597.091 317.089 595.091 317.008 592.886C316.959 591.541 317.127 590.735 317.452 589.704C318.256 587.161 318.961 584.597 320.105 582.145C320.982 580.264 321.585 578.191 322.007 576.113C322.343 574.452 322.892 572.855 323.446 571.261C323.765 570.338 323.661 569.366 323.856 568.43C323.978 567.84 324.067 567.228 324.433 566.763C325.572 565.32 325.871 563.581 326.176 561.864C326.452 560.311 327.291 559.1 328.247 557.945C328.552 557.577 328.862 557.22 329.133 556.824C329.785 555.872 330.632 555.235 331.843 555.176C332.443 555.147 333.038 555.082 333.631 555V579.565ZM324.575 594.667C324.073 594.667 323.779 594.804 323.5 594.934C323.212 595.067 322.957 595.424 322.948 595.438C322.948 595.438 323.277 595.964 323.758 596.331C323.909 596.445 324.222 596.537 324.466 596.606C324.92 596.735 325.229 596.471 325.481 596.157C325.678 595.913 325.82 595.609 325.588 595.306C325.347 594.994 325.087 594.687 324.575 594.669V594.667Z" fill="#5C5C5C"/>
<path d="M333.631 489.565C332.265 489.884 330.983 490.381 330.303 491.78C330.28 491.831 330.262 491.886 330.23 491.934C329.927 492.395 329.702 493.185 329.165 493.11C328.615 493.035 328.739 492.229 328.666 491.717C328.63 491.474 328.63 491.26 328.329 491.229C328.071 491.203 327.812 491.195 327.654 491.461C327.597 491.558 327.531 491.662 327.517 491.769C327.236 493.899 325.792 495.409 324.672 497.084C323.665 498.59 322.749 500.14 322.059 501.817C321.948 502.087 321.814 503.147 321.811 503.167C321.829 503.154 322.519 502.645 322.766 502.528C323.79 502.046 324.866 502.103 325.925 502.239C326.788 502.352 327.314 503.025 327.622 503.765C328.754 506.502 328.075 507.959 325.731 509.469C323.909 510.642 320.931 509.518 319.731 508.538C317.954 507.091 317.089 505.091 317.008 502.886C316.959 501.541 317.127 500.735 317.452 499.704C318.256 497.161 318.961 494.597 320.105 492.145C320.982 490.264 321.584 488.191 322.006 486.113C322.342 484.452 322.892 482.855 323.446 481.261C323.765 480.338 323.66 479.366 323.855 478.43C323.977 477.841 324.066 477.228 324.432 476.763C325.571 475.32 325.871 473.581 326.176 471.864C326.452 470.311 327.291 469.1 328.247 467.945C328.552 467.577 328.861 467.22 329.133 466.824C329.785 465.872 330.632 465.235 331.843 465.176C332.443 465.146 333.038 465.082 333.631 465V489.565ZM324.575 504.667C324.073 504.667 323.778 504.804 323.499 504.934C323.212 505.067 322.959 505.422 322.948 505.438C322.948 505.438 323.277 505.964 323.758 506.331C323.909 506.445 324.222 506.538 324.466 506.606C324.919 506.734 325.229 506.471 325.481 506.157C325.678 505.913 325.82 505.609 325.588 505.306C325.347 504.994 325.087 504.687 324.575 504.669V504.667Z" fill="#5C5C5C"/>
<path d="M333.631 534.565C332.265 534.884 330.983 535.381 330.303 536.78C330.28 536.831 330.262 536.886 330.23 536.934C329.927 537.395 329.702 538.185 329.165 538.11C328.615 538.035 328.739 537.229 328.666 536.717C328.63 536.474 328.63 536.26 328.329 536.229C328.071 536.203 327.812 536.195 327.654 536.461C327.597 536.558 327.531 536.662 327.517 536.769C327.236 538.899 325.792 540.409 324.672 542.084C323.665 543.59 322.749 545.14 322.059 546.817C321.948 547.087 321.814 548.147 321.811 548.167C321.829 548.154 322.519 547.645 322.766 547.528C323.79 547.046 324.866 547.103 325.925 547.239C326.788 547.352 327.314 548.025 327.622 548.765C328.754 551.502 328.075 552.959 325.731 554.469C323.909 555.642 320.931 554.518 319.731 553.538C317.954 552.091 317.089 550.091 317.008 547.886C316.959 546.541 317.127 545.735 317.452 544.704C318.256 542.161 318.961 539.597 320.105 537.145C320.982 535.264 321.584 533.191 322.006 531.113C322.342 529.452 322.892 527.855 323.446 526.261C323.765 525.338 323.66 524.366 323.855 523.43C323.977 522.841 324.066 522.228 324.432 521.763C325.571 520.32 325.871 518.581 326.176 516.864C326.452 515.311 327.291 514.1 328.247 512.945C328.552 512.577 328.861 512.22 329.133 511.824C329.785 510.872 330.632 510.235 331.843 510.176C332.443 510.146 333.038 510.082 333.631 510V534.565ZM324.575 549.667C324.073 549.667 323.778 549.804 323.499 549.934C323.212 550.067 322.959 550.422 322.948 550.438C322.948 550.438 323.277 550.964 323.758 551.331C323.909 551.445 324.222 551.538 324.466 551.606C324.919 551.734 325.229 551.471 325.481 551.157C325.678 550.913 325.82 550.609 325.588 550.306C325.347 549.994 325.087 549.687 324.575 549.669V549.667Z" fill="#5C5C5C"/>
<path d="M333.631 444.565C332.265 444.884 330.982 445.38 330.302 446.78C330.279 446.831 330.262 446.886 330.23 446.934C329.927 447.395 329.702 448.185 329.164 448.11C328.615 448.035 328.739 447.229 328.666 446.717C328.63 446.474 328.63 446.26 328.329 446.229C328.071 446.203 327.811 446.195 327.653 446.461C327.596 446.557 327.531 446.662 327.517 446.769C327.236 448.899 325.791 450.409 324.671 452.084C323.664 453.59 322.748 455.14 322.058 456.817C321.947 457.088 321.812 458.15 321.81 458.167C321.81 458.167 322.516 457.647 322.766 457.528C323.791 457.046 324.866 457.103 325.926 457.239C326.788 457.352 327.314 458.025 327.622 458.765C328.754 461.502 328.074 462.959 325.73 464.469C323.908 465.641 320.93 464.518 319.73 463.538C317.954 462.091 317.089 460.091 317.009 457.886C316.959 456.542 317.126 455.735 317.451 454.704C318.255 452.161 318.96 449.597 320.104 447.145C320.981 445.264 321.584 443.191 322.006 441.113C322.342 439.452 322.893 437.855 323.446 436.261C323.765 435.338 323.66 434.366 323.855 433.43C323.977 432.84 324.066 432.228 324.432 431.763C325.571 430.32 325.87 428.581 326.176 426.864C326.451 425.311 327.29 424.1 328.246 422.945C328.551 422.577 328.861 422.22 329.133 421.824C329.785 420.872 330.632 420.235 331.843 420.176C332.443 420.146 333.038 420.082 333.631 420V444.565ZM324.574 459.667C324.072 459.667 323.778 459.804 323.499 459.934C323.209 460.068 322.954 460.428 322.947 460.438C322.947 460.438 323.276 460.964 323.757 461.331C323.908 461.445 324.221 461.537 324.466 461.606C324.919 461.735 325.228 461.471 325.48 461.157C325.677 460.913 325.819 460.609 325.587 460.306C325.346 459.994 325.086 459.687 324.574 459.669V459.667Z" fill="#5C5C5C"/>
<path d="M333.631 399.565C332.266 399.884 330.983 400.381 330.303 401.78C330.28 401.831 330.262 401.886 330.23 401.934C329.927 402.395 329.703 403.185 329.165 403.11C328.615 403.035 328.74 402.229 328.667 401.717C328.631 401.474 328.631 401.26 328.33 401.229C328.072 401.203 327.812 401.195 327.654 401.461C327.597 401.558 327.532 401.662 327.518 401.769C327.236 403.899 325.792 405.409 324.672 407.084C323.665 408.59 322.749 410.14 322.059 411.817C321.948 412.088 321.813 413.149 321.811 413.167C321.82 413.16 322.518 412.646 322.766 412.528C323.791 412.045 324.867 412.103 325.926 412.239C326.789 412.352 327.315 413.026 327.623 413.765C328.755 416.502 328.075 417.959 325.731 419.469C323.909 420.642 320.931 419.518 319.731 418.538C317.955 417.091 317.089 415.091 317.008 412.886C316.959 411.542 317.127 410.735 317.452 409.704C318.256 407.161 318.961 404.597 320.105 402.145C320.982 400.264 321.585 398.191 322.007 396.113C322.343 394.452 322.892 392.855 323.446 391.261C323.765 390.338 323.661 389.366 323.856 388.43C323.978 387.84 324.067 387.228 324.433 386.763C325.572 385.32 325.871 383.581 326.176 381.864C326.452 380.311 327.291 379.1 328.247 377.945C328.552 377.577 328.862 377.22 329.133 376.824C329.785 375.872 330.632 375.235 331.843 375.176C332.443 375.147 333.038 375.082 333.631 375V399.565ZM324.575 414.667C324.073 414.667 323.779 414.804 323.5 414.934C323.211 415.067 322.957 415.425 322.948 415.438C322.948 415.438 323.277 415.964 323.758 416.331C323.909 416.445 324.222 416.537 324.466 416.606C324.92 416.735 325.229 416.471 325.481 416.157C325.678 415.913 325.82 415.609 325.588 415.306C325.347 414.994 325.087 414.687 324.575 414.669V414.667Z" fill="#5C5C5C"/>
</svg>
