<svg width="500" height="600" viewBox="0 0 500 600" fill="none" xmlns="http://www.w3.org/2000/svg">
<path d="M183.631 414.565C182.265 414.884 180.982 415.381 180.302 416.78C180.279 416.831 180.262 416.886 180.23 416.934C179.927 417.395 179.702 418.185 179.165 418.11C178.615 418.035 178.739 417.229 178.666 416.717C178.63 416.474 178.63 416.26 178.329 416.229C178.071 416.203 177.811 416.195 177.653 416.461C177.596 416.557 177.531 416.662 177.517 416.769C177.235 418.899 175.791 420.409 174.671 422.084C173.664 423.59 172.749 425.14 172.059 426.817C171.948 427.087 171.814 428.147 171.811 428.167C171.83 428.153 172.52 427.645 172.766 427.528C173.79 427.046 174.866 427.103 175.925 427.239C176.788 427.352 177.314 428.025 177.622 428.765C178.754 431.502 178.075 432.959 175.731 434.469C173.909 435.642 170.93 434.518 169.73 433.538C167.954 432.091 167.089 430.091 167.008 427.886C166.959 426.541 167.127 425.735 167.452 424.704C168.256 422.161 168.961 419.597 170.105 417.145C170.982 415.264 171.584 413.191 172.006 411.113C172.342 409.452 172.892 407.855 173.446 406.261C173.765 405.338 173.66 404.366 173.855 403.43C173.977 402.841 174.066 402.228 174.432 401.763C175.571 400.32 175.871 398.581 176.176 396.864C176.452 395.311 177.291 394.1 178.247 392.945C178.552 392.577 178.861 392.22 179.133 391.824C179.785 390.872 180.632 390.235 181.843 390.176C182.443 390.146 183.038 390.082 183.631 390V414.565ZM174.575 429.667C174.073 429.667 173.778 429.804 173.499 429.934C173.208 430.068 172.952 430.431 172.947 430.438C172.947 430.438 173.276 430.964 173.757 431.331C173.908 431.445 174.222 431.537 174.466 431.606C174.919 431.734 175.229 431.471 175.481 431.157C175.678 430.913 175.819 430.609 175.587 430.306C175.346 429.994 175.087 429.687 174.575 429.669V429.667Z" fill="#5C5C5C"/>
<path d="M183.631 324.565C182.266 324.884 180.983 325.381 180.303 326.78C180.28 326.831 180.262 326.886 180.231 326.934C179.928 327.395 179.703 328.185 179.165 328.11C178.615 328.035 178.74 327.229 178.667 326.717C178.631 326.474 178.631 326.26 178.33 326.229C178.072 326.203 177.812 326.195 177.654 326.461C177.597 326.557 177.532 326.662 177.518 326.769C177.236 328.899 175.792 330.409 174.672 332.084C173.665 333.59 172.749 335.14 172.059 336.817C171.948 337.088 171.813 338.15 171.811 338.167C171.811 338.167 172.517 337.647 172.767 337.528C173.791 337.046 174.867 337.103 175.926 337.239C176.789 337.352 177.315 338.025 177.623 338.765C178.755 341.502 178.075 342.959 175.731 344.469C173.909 345.641 170.931 344.518 169.731 343.538C167.955 342.091 167.089 340.091 167.008 337.886C166.959 336.542 167.127 335.735 167.452 334.704C168.256 332.161 168.961 329.597 170.105 327.145C170.982 325.264 171.585 323.191 172.007 321.113C172.343 319.452 172.893 317.855 173.446 316.261C173.765 315.338 173.661 314.366 173.856 313.43C173.978 312.84 174.067 312.228 174.433 311.763C175.572 310.32 175.871 308.581 176.176 306.864C176.452 305.311 177.291 304.1 178.247 302.945C178.552 302.577 178.862 302.22 179.133 301.824C179.786 300.872 180.633 300.235 181.844 300.176C182.443 300.146 183.038 300.082 183.631 300V324.565ZM174.575 339.667C174.073 339.667 173.779 339.804 173.5 339.934C173.211 340.068 172.955 340.427 172.948 340.438C172.948 340.438 173.277 340.964 173.757 341.331C173.909 341.445 174.222 341.537 174.466 341.606C174.92 341.735 175.229 341.471 175.481 341.157C175.678 340.913 175.82 340.609 175.588 340.306C175.347 339.994 175.087 339.687 174.575 339.669V339.667Z" fill="#5C5C5C"/>
<path d="M183.631 369.565C182.266 369.884 180.983 370.381 180.303 371.78C180.28 371.831 180.262 371.886 180.231 371.934C179.928 372.395 179.703 373.185 179.165 373.11C178.615 373.035 178.74 372.229 178.667 371.717C178.631 371.474 178.631 371.26 178.33 371.229C178.072 371.203 177.812 371.195 177.654 371.461C177.597 371.557 177.532 371.662 177.518 371.769C177.236 373.899 175.792 375.409 174.672 377.084C173.665 378.59 172.749 380.14 172.059 381.817C171.948 382.088 171.813 383.15 171.811 383.167C171.811 383.167 172.517 382.647 172.767 382.528C173.791 382.046 174.867 382.103 175.926 382.239C176.789 382.352 177.315 383.025 177.623 383.765C178.755 386.502 178.075 387.959 175.731 389.469C173.909 390.641 170.931 389.518 169.731 388.538C167.955 387.091 167.089 385.091 167.008 382.886C166.959 381.542 167.127 380.735 167.452 379.704C168.256 377.161 168.961 374.597 170.105 372.145C170.982 370.264 171.585 368.191 172.007 366.113C172.343 364.452 172.893 362.855 173.446 361.261C173.765 360.338 173.661 359.366 173.856 358.43C173.978 357.84 174.067 357.228 174.433 356.763C175.572 355.32 175.871 353.581 176.176 351.864C176.452 350.311 177.291 349.1 178.247 347.945C178.552 347.577 178.862 347.22 179.133 346.824C179.786 345.872 180.633 345.235 181.844 345.176C182.443 345.146 183.038 345.082 183.631 345V369.565ZM174.575 384.667C174.073 384.667 173.779 384.804 173.5 384.934C173.211 385.068 172.955 385.427 172.948 385.438C172.948 385.438 173.277 385.964 173.757 386.331C173.909 386.445 174.222 386.537 174.466 386.606C174.92 386.735 175.229 386.471 175.481 386.157C175.678 385.913 175.82 385.609 175.588 385.306C175.347 384.994 175.087 384.687 174.575 384.669V384.667Z" fill="#5C5C5C"/>
<path d="M183.631 279.565C182.265 279.884 180.983 280.381 180.303 281.78C180.28 281.831 180.262 281.886 180.23 281.934C179.927 282.395 179.702 283.185 179.165 283.11C178.615 283.035 178.74 282.229 178.667 281.717C178.631 281.475 178.631 281.26 178.33 281.229C178.072 281.203 177.812 281.195 177.654 281.461C177.597 281.558 177.532 281.662 177.518 281.769C177.237 283.899 175.792 285.409 174.672 287.084C173.665 288.59 172.749 290.14 172.059 291.817C171.948 292.088 171.814 293.149 171.811 293.167C171.824 293.158 172.518 292.646 172.766 292.528C173.791 292.045 174.867 292.103 175.926 292.239C176.789 292.352 177.315 293.026 177.623 293.765C178.755 296.502 178.075 297.959 175.731 299.469C173.909 300.642 170.931 299.518 169.731 298.538C167.954 297.091 167.089 295.091 167.008 292.886C166.959 291.541 167.127 290.735 167.452 289.704C168.256 287.161 168.961 284.597 170.105 282.145C170.982 280.264 171.585 278.191 172.007 276.113C172.343 274.452 172.892 272.855 173.446 271.261C173.765 270.338 173.661 269.366 173.856 268.43C173.978 267.84 174.067 267.228 174.433 266.763C175.572 265.32 175.871 263.581 176.176 261.864C176.452 260.311 177.291 259.1 178.247 257.945C178.552 257.577 178.862 257.22 179.133 256.824C179.785 255.872 180.632 255.235 181.843 255.176C182.443 255.147 183.038 255.082 183.631 255V279.565ZM174.575 294.667C174.073 294.667 173.779 294.804 173.5 294.934C173.212 295.067 172.957 295.424 172.948 295.438C172.948 295.438 173.277 295.964 173.758 296.331C173.909 296.445 174.222 296.537 174.466 296.606C174.92 296.735 175.229 296.471 175.481 296.157C175.678 295.913 175.82 295.609 175.588 295.306C175.347 294.994 175.087 294.687 174.575 294.669V294.667Z" fill="#5C5C5C"/>
<path d="M183.631 234.565C182.265 234.884 180.983 235.381 180.303 236.78C180.28 236.831 180.262 236.886 180.23 236.934C179.927 237.395 179.702 238.185 179.165 238.11C178.615 238.035 178.739 237.229 178.666 236.717C178.63 236.474 178.63 236.26 178.329 236.229C178.071 236.203 177.811 236.195 177.653 236.461C177.596 236.557 177.531 236.662 177.517 236.769C177.235 238.899 175.791 240.409 174.671 242.084C173.664 243.59 172.749 245.14 172.059 246.817C171.948 247.087 171.814 248.147 171.811 248.167C171.829 248.154 172.519 247.645 172.766 247.528C173.79 247.046 174.866 247.103 175.925 247.239C176.788 247.352 177.314 248.025 177.622 248.765C178.754 251.502 178.075 252.959 175.731 254.469C173.909 255.642 170.93 254.518 169.73 253.538C167.954 252.091 167.089 250.091 167.008 247.886C166.959 246.541 167.127 245.735 167.452 244.704C168.256 242.161 168.961 239.597 170.105 237.145C170.982 235.264 171.584 233.191 172.006 231.113C172.342 229.452 172.892 227.855 173.446 226.261C173.765 225.338 173.66 224.366 173.855 223.43C173.977 222.841 174.066 222.228 174.432 221.763C175.571 220.32 175.871 218.581 176.176 216.864C176.452 215.311 177.291 214.1 178.247 212.945C178.552 212.577 178.861 212.22 179.133 211.824C179.785 210.872 180.632 210.235 181.843 210.176C182.443 210.146 183.038 210.082 183.631 210V234.565ZM174.575 249.667C174.073 249.667 173.778 249.804 173.499 249.934C173.208 250.069 172.951 250.432 172.947 250.438C172.947 250.438 173.277 250.964 173.758 251.331C173.909 251.445 174.222 251.538 174.466 251.606C174.919 251.734 175.229 251.471 175.481 251.157C175.678 250.913 175.819 250.609 175.587 250.306C175.346 249.994 175.087 249.687 174.575 249.669V249.667Z" fill="#5C5C5C"/>
<path d="M183.631 189.565C182.266 189.884 180.983 190.381 180.303 191.78C180.28 191.831 180.262 191.886 180.231 191.934C179.928 192.395 179.703 193.185 179.165 193.11C178.616 193.035 178.74 192.229 178.667 191.717C178.631 191.474 178.631 191.26 178.33 191.229C178.072 191.203 177.812 191.195 177.654 191.461C177.597 191.557 177.532 191.662 177.518 191.769C177.236 193.899 175.792 195.409 174.672 197.084C173.665 198.59 172.749 200.14 172.059 201.817C171.948 202.088 171.813 203.15 171.811 203.167C171.811 203.167 172.517 202.647 172.767 202.528C173.791 202.046 174.867 202.103 175.926 202.239C176.789 202.352 177.315 203.025 177.623 203.765C178.755 206.502 178.075 207.959 175.731 209.469C173.909 210.641 170.931 209.518 169.731 208.538C167.955 207.091 167.089 205.091 167.008 202.886C166.959 201.542 167.127 200.735 167.452 199.704C168.256 197.161 168.961 194.597 170.105 192.145C170.982 190.264 171.585 188.191 172.007 186.113C172.343 184.452 172.893 182.855 173.447 181.261C173.766 180.338 173.661 179.366 173.856 178.43C173.978 177.84 174.067 177.228 174.433 176.763C175.572 175.32 175.871 173.581 176.176 171.864C176.452 170.311 177.291 169.1 178.247 167.945C178.552 167.577 178.862 167.22 179.133 166.824C179.786 165.872 180.633 165.235 181.844 165.176C182.443 165.146 183.038 165.082 183.631 165V189.565ZM174.575 204.667C174.073 204.667 173.779 204.804 173.5 204.934C173.21 205.068 172.955 205.427 172.948 205.438C172.948 205.438 173.277 205.964 173.757 206.331C173.909 206.445 174.222 206.537 174.466 206.606C174.92 206.735 175.229 206.471 175.481 206.157C175.678 205.913 175.82 205.609 175.588 205.306C175.347 204.994 175.087 204.687 174.575 204.669V204.667Z" fill="#5C5C5C"/>
<path d="M213.631 414.565C212.266 414.884 210.983 415.381 210.303 416.78C210.28 416.831 210.262 416.886 210.231 416.934C209.928 417.395 209.703 418.185 209.165 418.11C208.615 418.035 208.74 417.229 208.667 416.717C208.631 416.474 208.631 416.26 208.33 416.229C208.072 416.203 207.812 416.195 207.654 416.461C207.597 416.557 207.532 416.662 207.518 416.769C207.236 418.899 205.792 420.409 204.672 422.084C203.665 423.59 202.749 425.14 202.059 426.817C201.948 427.088 201.813 428.15 201.811 428.167C201.811 428.167 202.517 427.647 202.767 427.528C203.791 427.046 204.867 427.103 205.926 427.239C206.789 427.352 207.315 428.025 207.623 428.765C208.755 431.502 208.075 432.959 205.731 434.469C203.909 435.641 200.931 434.518 199.731 433.538C197.955 432.091 197.089 430.091 197.008 427.886C196.959 426.542 197.127 425.735 197.452 424.704C198.256 422.161 198.961 419.597 200.105 417.145C200.982 415.264 201.585 413.191 202.007 411.113C202.343 409.452 202.893 407.855 203.446 406.261C203.765 405.338 203.661 404.366 203.856 403.43C203.978 402.84 204.067 402.228 204.433 401.763C205.572 400.32 205.871 398.581 206.176 396.864C206.452 395.311 207.291 394.1 208.247 392.945C208.552 392.577 208.862 392.22 209.133 391.824C209.786 390.872 210.633 390.235 211.844 390.176C212.443 390.146 213.038 390.082 213.631 390V414.565ZM204.575 429.667C204.073 429.667 203.779 429.804 203.5 429.934C203.211 430.068 202.955 430.427 202.948 430.438C202.948 430.438 203.277 430.964 203.757 431.331C203.909 431.445 204.222 431.537 204.466 431.606C204.92 431.735 205.229 431.471 205.481 431.157C205.678 430.913 205.82 430.609 205.588 430.306C205.347 429.994 205.087 429.687 204.575 429.669V429.667Z" fill="#5C5C5C"/>
<path d="M213.631 324.565C212.265 324.884 210.983 325.381 210.303 326.78C210.28 326.831 210.262 326.886 210.23 326.934C209.927 327.395 209.702 328.185 209.165 328.11C208.615 328.035 208.74 327.229 208.667 326.717C208.631 326.475 208.631 326.26 208.33 326.229C208.072 326.203 207.812 326.195 207.654 326.461C207.597 326.558 207.532 326.662 207.518 326.769C207.237 328.899 205.792 330.409 204.672 332.084C203.665 333.59 202.749 335.14 202.059 336.817C201.948 337.088 201.814 338.149 201.811 338.167C201.824 338.158 202.518 337.646 202.766 337.528C203.791 337.045 204.867 337.103 205.926 337.239C206.789 337.352 207.315 338.026 207.623 338.765C208.755 341.502 208.075 342.959 205.731 344.469C203.909 345.642 200.931 344.518 199.731 343.538C197.954 342.091 197.089 340.091 197.008 337.886C196.959 336.541 197.127 335.735 197.452 334.704C198.256 332.161 198.961 329.597 200.105 327.145C200.982 325.264 201.585 323.191 202.007 321.113C202.343 319.452 202.892 317.855 203.446 316.261C203.765 315.338 203.661 314.366 203.856 313.43C203.978 312.84 204.067 312.228 204.433 311.763C205.572 310.32 205.871 308.581 206.176 306.864C206.452 305.311 207.291 304.1 208.247 302.945C208.552 302.577 208.862 302.22 209.133 301.824C209.785 300.872 210.632 300.235 211.843 300.176C212.443 300.147 213.038 300.082 213.631 300V324.565ZM204.575 339.667C204.073 339.667 203.779 339.804 203.5 339.934C203.212 340.067 202.957 340.424 202.948 340.438C202.948 340.438 203.277 340.964 203.758 341.331C203.909 341.445 204.222 341.537 204.466 341.606C204.92 341.735 205.229 341.471 205.481 341.157C205.678 340.913 205.82 340.609 205.588 340.306C205.347 339.994 205.087 339.687 204.575 339.669V339.667Z" fill="#5C5C5C"/>
<path d="M213.631 369.565C212.265 369.884 210.983 370.381 210.303 371.78C210.28 371.831 210.262 371.886 210.23 371.934C209.927 372.395 209.702 373.185 209.165 373.11C208.615 373.035 208.74 372.229 208.667 371.717C208.631 371.475 208.631 371.26 208.33 371.229C208.072 371.203 207.812 371.195 207.654 371.461C207.597 371.558 207.532 371.662 207.518 371.769C207.237 373.899 205.792 375.409 204.672 377.084C203.665 378.59 202.749 380.14 202.059 381.817C201.948 382.088 201.814 383.149 201.811 383.167C201.824 383.158 202.518 382.646 202.766 382.528C203.791 382.045 204.867 382.103 205.926 382.239C206.789 382.352 207.315 383.026 207.623 383.765C208.755 386.502 208.075 387.959 205.731 389.469C203.909 390.642 200.931 389.518 199.731 388.538C197.954 387.091 197.089 385.091 197.008 382.886C196.959 381.541 197.127 380.735 197.452 379.704C198.256 377.161 198.961 374.597 200.105 372.145C200.982 370.264 201.585 368.191 202.007 366.113C202.343 364.452 202.892 362.855 203.446 361.261C203.765 360.338 203.661 359.366 203.856 358.43C203.978 357.84 204.067 357.228 204.433 356.763C205.572 355.32 205.871 353.581 206.176 351.864C206.452 350.311 207.291 349.1 208.247 347.945C208.552 347.577 208.862 347.22 209.133 346.824C209.785 345.872 210.632 345.235 211.843 345.176C212.443 345.147 213.038 345.082 213.631 345V369.565ZM204.575 384.667C204.073 384.667 203.779 384.804 203.5 384.934C203.212 385.067 202.957 385.424 202.948 385.438C202.948 385.438 203.277 385.964 203.758 386.331C203.909 386.445 204.222 386.537 204.466 386.606C204.92 386.735 205.229 386.471 205.481 386.157C205.678 385.913 205.82 385.609 205.588 385.306C205.347 384.994 205.087 384.687 204.575 384.669V384.667Z" fill="#5C5C5C"/>
<path d="M213.631 279.565C212.265 279.884 210.983 280.381 210.303 281.78C210.28 281.831 210.262 281.886 210.23 281.934C209.927 282.395 209.702 283.185 209.165 283.11C208.615 283.035 208.739 282.229 208.666 281.717C208.63 281.474 208.63 281.26 208.329 281.229C208.071 281.203 207.811 281.195 207.653 281.461C207.596 281.557 207.531 281.662 207.517 281.769C207.235 283.899 205.791 285.409 204.671 287.084C203.664 288.59 202.749 290.14 202.059 291.817C201.948 292.087 201.814 293.147 201.811 293.167C201.829 293.154 202.519 292.645 202.766 292.528C203.79 292.046 204.866 292.103 205.925 292.239C206.788 292.352 207.314 293.025 207.622 293.765C208.754 296.502 208.075 297.959 205.731 299.469C203.909 300.642 200.93 299.518 199.73 298.538C197.954 297.091 197.089 295.091 197.008 292.886C196.959 291.541 197.127 290.735 197.452 289.704C198.256 287.161 198.961 284.597 200.105 282.145C200.982 280.264 201.584 278.191 202.006 276.113C202.342 274.452 202.892 272.855 203.446 271.261C203.765 270.338 203.66 269.366 203.855 268.43C203.977 267.841 204.066 267.228 204.432 266.763C205.571 265.32 205.871 263.581 206.176 261.864C206.452 260.311 207.291 259.1 208.247 257.945C208.552 257.577 208.861 257.22 209.133 256.824C209.785 255.872 210.632 255.235 211.843 255.176C212.443 255.146 213.038 255.082 213.631 255V279.565ZM204.575 294.667C204.073 294.667 203.778 294.804 203.499 294.934C203.208 295.069 202.951 295.432 202.947 295.438C202.947 295.438 203.277 295.964 203.758 296.331C203.909 296.445 204.222 296.538 204.466 296.606C204.919 296.734 205.229 296.471 205.481 296.157C205.678 295.913 205.819 295.609 205.587 295.306C205.346 294.994 205.087 294.687 204.575 294.669V294.667Z" fill="#5C5C5C"/>
<path d="M213.631 234.565C212.266 234.884 210.983 235.381 210.303 236.78C210.28 236.831 210.262 236.886 210.231 236.934C209.928 237.395 209.703 238.185 209.165 238.11C208.616 238.035 208.74 237.229 208.667 236.717C208.631 236.474 208.631 236.26 208.33 236.229C208.072 236.203 207.812 236.195 207.654 236.461C207.597 236.557 207.532 236.662 207.518 236.769C207.236 238.899 205.792 240.409 204.672 242.084C203.665 243.59 202.749 245.14 202.059 246.817C201.948 247.088 201.813 248.15 201.811 248.167C201.811 248.167 202.517 247.647 202.767 247.528C203.791 247.046 204.867 247.103 205.926 247.239C206.789 247.352 207.315 248.025 207.623 248.765C208.755 251.502 208.075 252.959 205.731 254.469C203.909 255.641 200.931 254.518 199.731 253.538C197.955 252.091 197.089 250.091 197.008 247.886C196.959 246.542 197.127 245.735 197.452 244.704C198.256 242.161 198.961 239.597 200.105 237.145C200.982 235.264 201.585 233.191 202.007 231.113C202.343 229.452 202.893 227.855 203.447 226.261C203.766 225.338 203.661 224.366 203.856 223.43C203.978 222.84 204.067 222.228 204.433 221.763C205.572 220.32 205.871 218.581 206.176 216.864C206.452 215.311 207.291 214.1 208.247 212.945C208.552 212.577 208.862 212.22 209.133 211.824C209.786 210.872 210.633 210.235 211.844 210.176C212.443 210.146 213.038 210.082 213.631 210V234.565ZM204.575 249.667C204.073 249.667 203.779 249.804 203.5 249.934C203.21 250.068 202.955 250.427 202.948 250.438C202.948 250.438 203.277 250.964 203.757 251.331C203.909 251.445 204.222 251.537 204.466 251.606C204.92 251.735 205.229 251.471 205.481 251.157C205.678 250.913 205.82 250.609 205.588 250.306C205.347 249.994 205.087 249.687 204.575 249.669V249.667Z" fill="#5C5C5C"/>
<path d="M243.631 414.565C242.265 414.884 240.983 415.381 240.303 416.78C240.28 416.831 240.262 416.886 240.23 416.934C239.927 417.395 239.702 418.185 239.165 418.11C238.615 418.035 238.74 417.229 238.667 416.717C238.631 416.475 238.631 416.26 238.33 416.229C238.072 416.203 237.812 416.195 237.654 416.461C237.597 416.558 237.532 416.662 237.518 416.769C237.237 418.899 235.792 420.409 234.672 422.084C233.665 423.59 232.749 425.14 232.059 426.817C231.948 427.088 231.814 428.149 231.811 428.167C231.824 428.158 232.518 427.646 232.766 427.528C233.791 427.045 234.867 427.103 235.926 427.239C236.789 427.352 237.315 428.026 237.623 428.765C238.755 431.502 238.075 432.959 235.731 434.469C233.909 435.642 230.931 434.518 229.731 433.538C227.954 432.091 227.089 430.091 227.008 427.886C226.959 426.541 227.127 425.735 227.452 424.704C228.256 422.161 228.961 419.597 230.105 417.145C230.982 415.264 231.585 413.191 232.007 411.113C232.343 409.452 232.892 407.855 233.446 406.261C233.765 405.338 233.661 404.366 233.856 403.43C233.978 402.84 234.067 402.228 234.433 401.763C235.572 400.32 235.871 398.581 236.176 396.864C236.452 395.311 237.291 394.1 238.247 392.945C238.552 392.577 238.862 392.22 239.133 391.824C239.785 390.872 240.632 390.235 241.843 390.176C242.443 390.147 243.038 390.082 243.631 390V414.565ZM234.575 429.667C234.073 429.667 233.779 429.804 233.5 429.934C233.212 430.067 232.957 430.424 232.948 430.438C232.948 430.438 233.277 430.964 233.758 431.331C233.909 431.445 234.222 431.537 234.466 431.606C234.92 431.735 235.229 431.471 235.481 431.157C235.678 430.913 235.82 430.609 235.588 430.306C235.347 429.994 235.087 429.687 234.575 429.669V429.667Z" fill="#5C5C5C"/>
<path d="M243.631 324.565C242.265 324.884 240.983 325.381 240.303 326.78C240.28 326.831 240.262 326.886 240.23 326.934C239.927 327.395 239.702 328.185 239.165 328.11C238.615 328.035 238.739 327.229 238.666 326.717C238.63 326.474 238.63 326.26 238.329 326.229C238.071 326.203 237.811 326.195 237.653 326.461C237.596 326.557 237.531 326.662 237.517 326.769C237.235 328.899 235.791 330.409 234.671 332.084C233.664 333.59 232.749 335.14 232.059 336.817C231.948 337.087 231.814 338.147 231.811 338.167C231.829 338.154 232.519 337.645 232.766 337.528C233.79 337.046 234.866 337.103 235.925 337.239C236.788 337.352 237.314 338.025 237.622 338.765C238.754 341.502 238.075 342.959 235.731 344.469C233.909 345.642 230.93 344.518 229.73 343.538C227.954 342.091 227.089 340.091 227.008 337.886C226.959 336.541 227.127 335.735 227.452 334.704C228.256 332.161 228.961 329.597 230.105 327.145C230.982 325.264 231.584 323.191 232.006 321.113C232.342 319.452 232.892 317.855 233.446 316.261C233.765 315.338 233.66 314.366 233.855 313.43C233.977 312.841 234.066 312.228 234.432 311.763C235.571 310.32 235.871 308.581 236.176 306.864C236.452 305.311 237.291 304.1 238.247 302.945C238.552 302.577 238.861 302.22 239.133 301.824C239.785 300.872 240.632 300.235 241.843 300.176C242.443 300.146 243.038 300.082 243.631 300V324.565ZM234.575 339.667C234.073 339.667 233.778 339.804 233.499 339.934C233.208 340.069 232.951 340.432 232.947 340.438C232.947 340.438 233.277 340.964 233.758 341.331C233.909 341.445 234.222 341.538 234.466 341.606C234.919 341.734 235.229 341.471 235.481 341.157C235.678 340.913 235.819 340.609 235.587 340.306C235.346 339.994 235.087 339.687 234.575 339.669V339.667Z" fill="#5C5C5C"/>
<path d="M243.631 369.565C242.265 369.884 240.983 370.381 240.303 371.78C240.28 371.831 240.262 371.886 240.23 371.934C239.927 372.395 239.702 373.185 239.165 373.11C238.615 373.035 238.739 372.229 238.666 371.717C238.63 371.474 238.63 371.26 238.329 371.229C238.071 371.203 237.811 371.195 237.653 371.461C237.596 371.557 237.531 371.662 237.517 371.769C237.235 373.899 235.791 375.409 234.671 377.084C233.664 378.59 232.749 380.14 232.059 381.817C231.948 382.087 231.814 383.147 231.811 383.167C231.829 383.154 232.519 382.645 232.766 382.528C233.79 382.046 234.866 382.103 235.925 382.239C236.788 382.352 237.314 383.025 237.622 383.765C238.754 386.502 238.075 387.959 235.731 389.469C233.909 390.642 230.93 389.518 229.73 388.538C227.954 387.091 227.089 385.091 227.008 382.886C226.959 381.541 227.127 380.735 227.452 379.704C228.256 377.161 228.961 374.597 230.105 372.145C230.982 370.264 231.584 368.191 232.006 366.113C232.342 364.452 232.892 362.855 233.446 361.261C233.765 360.338 233.66 359.366 233.855 358.43C233.977 357.841 234.066 357.228 234.432 356.763C235.571 355.32 235.871 353.581 236.176 351.864C236.452 350.311 237.291 349.1 238.247 347.945C238.552 347.577 238.861 347.22 239.133 346.824C239.785 345.872 240.632 345.235 241.843 345.176C242.443 345.146 243.038 345.082 243.631 345V369.565ZM234.575 384.667C234.073 384.667 233.778 384.804 233.499 384.934C233.208 385.069 232.951 385.432 232.947 385.438C232.947 385.438 233.277 385.964 233.758 386.331C233.909 386.445 234.222 386.538 234.466 386.606C234.919 386.734 235.229 386.471 235.481 386.157C235.678 385.913 235.819 385.609 235.587 385.306C235.346 384.994 235.087 384.687 234.575 384.669V384.667Z" fill="#5C5C5C"/>
<path d="M243.631 279.565C242.266 279.884 240.983 280.381 240.303 281.78C240.28 281.831 240.262 281.886 240.231 281.934C239.928 282.395 239.703 283.185 239.165 283.11C238.616 283.035 238.74 282.229 238.667 281.717C238.631 281.474 238.631 281.26 238.33 281.229C238.072 281.203 237.812 281.195 237.654 281.461C237.597 281.557 237.532 281.662 237.518 281.769C237.236 283.899 235.792 285.409 234.672 287.084C233.665 288.59 232.749 290.14 232.059 291.817C231.948 292.088 231.813 293.15 231.811 293.167C231.811 293.167 232.517 292.647 232.767 292.528C233.791 292.046 234.867 292.103 235.926 292.239C236.789 292.352 237.315 293.025 237.623 293.765C238.755 296.502 238.075 297.959 235.731 299.469C233.909 300.641 230.931 299.518 229.731 298.538C227.955 297.091 227.089 295.091 227.008 292.886C226.959 291.542 227.127 290.735 227.452 289.704C228.256 287.161 228.961 284.597 230.105 282.145C230.982 280.264 231.585 278.191 232.007 276.113C232.343 274.452 232.893 272.855 233.447 271.261C233.766 270.338 233.661 269.366 233.856 268.43C233.978 267.84 234.067 267.228 234.433 266.763C235.572 265.32 235.871 263.581 236.176 261.864C236.452 260.311 237.291 259.1 238.247 257.945C238.552 257.577 238.862 257.22 239.133 256.824C239.786 255.872 240.633 255.235 241.844 255.176C242.443 255.146 243.038 255.082 243.631 255V279.565ZM234.575 294.667C234.073 294.667 233.779 294.804 233.5 294.934C233.21 295.068 232.955 295.427 232.948 295.438C232.948 295.438 233.277 295.964 233.757 296.331C233.909 296.445 234.222 296.537 234.466 296.606C234.92 296.735 235.229 296.471 235.481 296.157C235.678 295.913 235.82 295.609 235.588 295.306C235.347 294.994 235.087 294.687 234.575 294.669V294.667Z" fill="#5C5C5C"/>
<path d="M243.631 234.565C242.265 234.884 240.983 235.381 240.303 236.78C240.28 236.831 240.262 236.886 240.23 236.934C239.927 237.395 239.703 238.185 239.165 238.11C238.615 238.035 238.74 237.229 238.667 236.717C238.631 236.475 238.631 236.26 238.33 236.229C238.072 236.203 237.812 236.195 237.654 236.461C237.597 236.558 237.532 236.662 237.518 236.769C237.236 238.899 235.792 240.409 234.672 242.084C233.665 243.59 232.749 245.14 232.059 246.817C231.948 247.088 231.814 248.149 231.811 248.167C231.823 248.159 232.518 247.646 232.766 247.528C233.791 247.045 234.867 247.103 235.926 247.239C236.789 247.352 237.315 248.026 237.623 248.765C238.755 251.502 238.075 252.959 235.731 254.469C233.909 255.642 230.931 254.518 229.731 253.538C227.954 252.091 227.089 250.091 227.008 247.886C226.959 246.541 227.127 245.735 227.452 244.704C228.256 242.161 228.961 239.597 230.105 237.145C230.982 235.264 231.585 233.191 232.007 231.113C232.343 229.452 232.892 227.855 233.446 226.261C233.765 225.338 233.661 224.366 233.856 223.43C233.978 222.84 234.067 222.228 234.433 221.763C235.572 220.32 235.871 218.581 236.176 216.864C236.452 215.311 237.291 214.1 238.247 212.945C238.552 212.577 238.862 212.22 239.133 211.824C239.785 210.872 240.632 210.235 241.843 210.176C242.443 210.147 243.038 210.082 243.631 210V234.565ZM234.575 249.667C234.073 249.667 233.779 249.804 233.5 249.934C233.212 250.067 232.957 250.424 232.948 250.438C232.948 250.438 233.277 250.964 233.758 251.331C233.909 251.445 234.222 251.537 234.466 251.606C234.92 251.735 235.229 251.471 235.481 251.157C235.678 250.913 235.82 250.609 235.588 250.306C235.347 249.994 235.087 249.687 234.575 249.669V249.667Z" fill="#5C5C5C"/>
<path d="M273.631 414.565C272.265 414.884 270.983 415.381 270.303 416.78C270.28 416.831 270.262 416.886 270.23 416.934C269.927 417.395 269.702 418.185 269.165 418.11C268.615 418.035 268.739 417.229 268.666 416.717C268.63 416.474 268.63 416.26 268.329 416.229C268.071 416.203 267.811 416.195 267.653 416.461C267.596 416.557 267.531 416.662 267.517 416.769C267.235 418.899 265.791 420.409 264.671 422.084C263.664 423.59 262.749 425.14 262.059 426.817C261.948 427.087 261.814 428.147 261.811 428.167C261.829 428.154 262.519 427.645 262.766 427.528C263.79 427.046 264.866 427.103 265.925 427.239C266.788 427.352 267.314 428.025 267.622 428.765C268.754 431.502 268.075 432.959 265.731 434.469C263.909 435.642 260.93 434.518 259.73 433.538C257.954 432.091 257.089 430.091 257.008 427.886C256.959 426.541 257.127 425.735 257.452 424.704C258.256 422.161 258.961 419.597 260.105 417.145C260.982 415.264 261.584 413.191 262.006 411.113C262.342 409.452 262.892 407.855 263.446 406.261C263.765 405.338 263.66 404.366 263.855 403.43C263.977 402.841 264.066 402.228 264.432 401.763C265.571 400.32 265.871 398.581 266.176 396.864C266.452 395.311 267.291 394.1 268.247 392.945C268.552 392.577 268.861 392.22 269.133 391.824C269.785 390.872 270.632 390.235 271.843 390.176C272.443 390.146 273.038 390.082 273.631 390V414.565ZM264.575 429.667C264.073 429.667 263.778 429.804 263.499 429.934C263.208 430.069 262.951 430.432 262.947 430.438C262.947 430.438 263.277 430.964 263.758 431.331C263.909 431.445 264.222 431.538 264.466 431.606C264.919 431.734 265.229 431.471 265.481 431.157C265.678 430.913 265.819 430.609 265.587 430.306C265.346 429.994 265.087 429.687 264.575 429.669V429.667Z" fill="#5C5C5C"/>
<path d="M273.631 324.565C272.266 324.884 270.983 325.381 270.303 326.78C270.28 326.831 270.262 326.886 270.231 326.934C269.928 327.395 269.703 328.185 269.165 328.11C268.616 328.035 268.74 327.229 268.667 326.717C268.631 326.474 268.631 326.26 268.33 326.229C268.072 326.203 267.812 326.195 267.654 326.461C267.597 326.557 267.532 326.662 267.518 326.769C267.236 328.899 265.792 330.409 264.672 332.084C263.665 333.59 262.749 335.14 262.059 336.817C261.948 337.088 261.813 338.15 261.811 338.167C261.811 338.167 262.517 337.647 262.767 337.528C263.791 337.046 264.867 337.103 265.926 337.239C266.789 337.352 267.315 338.025 267.623 338.765C268.755 341.502 268.075 342.959 265.731 344.469C263.909 345.641 260.931 344.518 259.731 343.538C257.955 342.091 257.089 340.091 257.008 337.886C256.959 336.542 257.127 335.735 257.452 334.704C258.256 332.161 258.961 329.597 260.105 327.145C260.982 325.264 261.585 323.191 262.007 321.113C262.343 319.452 262.893 317.855 263.447 316.261C263.766 315.338 263.661 314.366 263.856 313.43C263.978 312.84 264.067 312.228 264.433 311.763C265.572 310.32 265.871 308.581 266.176 306.864C266.452 305.311 267.291 304.1 268.247 302.945C268.552 302.577 268.862 302.22 269.133 301.824C269.786 300.872 270.633 300.235 271.844 300.176C272.443 300.146 273.038 300.082 273.631 300V324.565ZM264.575 339.667C264.073 339.667 263.779 339.804 263.5 339.934C263.21 340.068 262.955 340.427 262.948 340.438C262.948 340.438 263.277 340.964 263.757 341.331C263.909 341.445 264.222 341.537 264.466 341.606C264.92 341.735 265.229 341.471 265.481 341.157C265.678 340.913 265.82 340.609 265.588 340.306C265.347 339.994 265.087 339.687 264.575 339.669V339.667Z" fill="#5C5C5C"/>
<path d="M273.631 369.565C272.266 369.884 270.983 370.381 270.303 371.78C270.28 371.831 270.262 371.886 270.231 371.934C269.928 372.395 269.703 373.185 269.165 373.11C268.616 373.035 268.74 372.229 268.667 371.717C268.631 371.474 268.631 371.26 268.33 371.229C268.072 371.203 267.812 371.195 267.654 371.461C267.597 371.557 267.532 371.662 267.518 371.769C267.236 373.899 265.792 375.409 264.672 377.084C263.665 378.59 262.749 380.14 262.059 381.817C261.948 382.088 261.813 383.15 261.811 383.167C261.811 383.167 262.517 382.647 262.767 382.528C263.791 382.046 264.867 382.103 265.926 382.239C266.789 382.352 267.315 383.025 267.623 383.765C268.755 386.502 268.075 387.959 265.731 389.469C263.909 390.641 260.931 389.518 259.731 388.538C257.955 387.091 257.089 385.091 257.008 382.886C256.959 381.542 257.127 380.735 257.452 379.704C258.256 377.161 258.961 374.597 260.105 372.145C260.982 370.264 261.585 368.191 262.007 366.113C262.343 364.452 262.893 362.855 263.447 361.261C263.766 360.338 263.661 359.366 263.856 358.43C263.978 357.84 264.067 357.228 264.433 356.763C265.572 355.32 265.871 353.581 266.176 351.864C266.452 350.311 267.291 349.1 268.247 347.945C268.552 347.577 268.862 347.22 269.133 346.824C269.786 345.872 270.633 345.235 271.844 345.176C272.443 345.146 273.038 345.082 273.631 345V369.565ZM264.575 384.667C264.073 384.667 263.779 384.804 263.5 384.934C263.21 385.068 262.955 385.427 262.948 385.438C262.948 385.438 263.277 385.964 263.757 386.331C263.909 386.445 264.222 386.537 264.466 386.606C264.92 386.735 265.229 386.471 265.481 386.157C265.678 385.913 265.82 385.609 265.588 385.306C265.347 384.994 265.087 384.687 264.575 384.669V384.667Z" fill="#5C5C5C"/>
<path d="M273.631 279.565C272.265 279.884 270.983 280.381 270.303 281.78C270.28 281.831 270.262 281.886 270.23 281.934C269.927 282.395 269.703 283.185 269.165 283.11C268.615 283.035 268.74 282.229 268.667 281.717C268.631 281.475 268.631 281.26 268.33 281.229C268.072 281.203 267.812 281.195 267.654 281.461C267.597 281.558 267.532 281.662 267.518 281.769C267.236 283.899 265.792 285.409 264.672 287.084C263.665 288.59 262.749 290.14 262.059 291.817C261.948 292.088 261.814 293.149 261.811 293.167C261.823 293.159 262.518 292.646 262.766 292.528C263.791 292.045 264.867 292.103 265.926 292.239C266.789 292.352 267.315 293.026 267.623 293.765C268.755 296.502 268.075 297.959 265.731 299.469C263.909 300.642 260.931 299.518 259.731 298.538C257.954 297.091 257.089 295.091 257.008 292.886C256.959 291.541 257.127 290.735 257.452 289.704C258.256 287.161 258.961 284.597 260.105 282.145C260.982 280.264 261.585 278.191 262.007 276.113C262.343 274.452 262.892 272.855 263.446 271.261C263.765 270.338 263.661 269.366 263.856 268.43C263.978 267.84 264.067 267.228 264.433 266.763C265.572 265.32 265.871 263.581 266.176 261.864C266.452 260.311 267.291 259.1 268.247 257.945C268.552 257.577 268.862 257.22 269.133 256.824C269.785 255.872 270.632 255.235 271.843 255.176C272.443 255.147 273.038 255.082 273.631 255V279.565ZM264.575 294.667C264.073 294.667 263.779 294.804 263.5 294.934C263.212 295.067 262.957 295.424 262.948 295.438C262.948 295.438 263.277 295.964 263.758 296.331C263.909 296.445 264.222 296.537 264.466 296.606C264.92 296.735 265.229 296.471 265.481 296.157C265.678 295.913 265.82 295.609 265.588 295.306C265.347 294.994 265.087 294.687 264.575 294.669V294.667Z" fill="#5C5C5C"/>
<path d="M273.631 234.565C272.265 234.884 270.983 235.381 270.303 236.78C270.28 236.831 270.262 236.886 270.23 236.934C269.927 237.395 269.702 238.185 269.165 238.11C268.615 238.035 268.739 237.229 268.666 236.717C268.63 236.474 268.63 236.26 268.329 236.229C268.071 236.203 267.812 236.195 267.654 236.461C267.597 236.558 267.531 236.662 267.517 236.769C267.236 238.899 265.792 240.409 264.672 242.084C263.665 243.59 262.749 245.14 262.059 246.817C261.948 247.087 261.814 248.147 261.811 248.167C261.829 248.154 262.519 247.645 262.766 247.528C263.79 247.046 264.866 247.103 265.925 247.239C266.788 247.352 267.314 248.025 267.622 248.765C268.754 251.502 268.075 252.959 265.731 254.469C263.909 255.642 260.931 254.518 259.731 253.538C257.954 252.091 257.089 250.091 257.008 247.886C256.959 246.541 257.127 245.735 257.452 244.704C258.256 242.161 258.961 239.597 260.105 237.145C260.982 235.264 261.584 233.191 262.006 231.113C262.342 229.452 262.892 227.855 263.446 226.261C263.765 225.338 263.66 224.366 263.855 223.43C263.977 222.841 264.066 222.228 264.432 221.763C265.571 220.32 265.871 218.581 266.176 216.864C266.452 215.311 267.291 214.1 268.247 212.945C268.552 212.577 268.861 212.22 269.133 211.824C269.785 210.872 270.632 210.235 271.843 210.176C272.443 210.146 273.038 210.082 273.631 210V234.565ZM264.575 249.667C264.073 249.667 263.778 249.804 263.499 249.934C263.212 250.067 262.959 250.422 262.948 250.438C262.948 250.438 263.277 250.964 263.758 251.331C263.909 251.445 264.222 251.538 264.466 251.606C264.919 251.734 265.229 251.471 265.481 251.157C265.678 250.913 265.82 250.609 265.588 250.306C265.347 249.994 265.087 249.687 264.575 249.669V249.667Z" fill="#5C5C5C"/>
<path d="M303.631 414.565C302.266 414.884 300.983 415.381 300.303 416.78C300.28 416.831 300.262 416.886 300.231 416.934C299.928 417.395 299.703 418.185 299.165 418.11C298.616 418.035 298.74 417.229 298.667 416.717C298.631 416.474 298.631 416.26 298.33 416.229C298.072 416.203 297.812 416.195 297.654 416.461C297.597 416.557 297.532 416.662 297.518 416.769C297.236 418.899 295.792 420.409 294.672 422.084C293.665 423.59 292.749 425.14 292.059 426.817C291.948 427.088 291.813 428.15 291.811 428.167C291.811 428.167 292.517 427.647 292.767 427.528C293.791 427.046 294.867 427.103 295.926 427.239C296.789 427.352 297.315 428.025 297.623 428.765C298.755 431.502 298.075 432.959 295.731 434.469C293.909 435.641 290.931 434.518 289.731 433.538C287.955 432.091 287.089 430.091 287.008 427.886C286.959 426.542 287.127 425.735 287.452 424.704C288.256 422.161 288.961 419.597 290.105 417.145C290.982 415.264 291.585 413.191 292.007 411.113C292.343 409.452 292.893 407.855 293.447 406.261C293.766 405.338 293.661 404.366 293.856 403.43C293.978 402.84 294.067 402.228 294.433 401.763C295.572 400.32 295.871 398.581 296.176 396.864C296.452 395.311 297.291 394.1 298.247 392.945C298.552 392.577 298.862 392.22 299.133 391.824C299.786 390.872 300.633 390.235 301.844 390.176C302.443 390.146 303.038 390.082 303.631 390V414.565ZM294.575 429.667C294.073 429.667 293.779 429.804 293.5 429.934C293.21 430.068 292.955 430.427 292.948 430.438C292.948 430.438 293.277 430.964 293.757 431.331C293.909 431.445 294.222 431.537 294.466 431.606C294.92 431.735 295.229 431.471 295.481 431.157C295.678 430.913 295.82 430.609 295.588 430.306C295.347 429.994 295.087 429.687 294.575 429.669V429.667Z" fill="#5C5C5C"/>
<path d="M303.631 324.565C302.265 324.884 300.983 325.381 300.303 326.78C300.28 326.831 300.262 326.886 300.23 326.934C299.927 327.395 299.703 328.185 299.165 328.11C298.615 328.035 298.74 327.229 298.667 326.717C298.631 326.475 298.631 326.26 298.33 326.229C298.072 326.203 297.812 326.195 297.654 326.461C297.597 326.558 297.532 326.662 297.518 326.769C297.236 328.899 295.792 330.409 294.672 332.084C293.665 333.59 292.749 335.14 292.059 336.817C291.948 337.088 291.814 338.149 291.811 338.167C291.823 338.159 292.518 337.646 292.766 337.528C293.791 337.045 294.867 337.103 295.926 337.239C296.789 337.352 297.315 338.026 297.623 338.765C298.755 341.502 298.075 342.959 295.731 344.469C293.909 345.642 290.931 344.518 289.731 343.538C287.954 342.091 287.089 340.091 287.008 337.886C286.959 336.541 287.127 335.735 287.452 334.704C288.256 332.161 288.961 329.597 290.105 327.145C290.982 325.264 291.585 323.191 292.007 321.113C292.343 319.452 292.892 317.855 293.446 316.261C293.765 315.338 293.661 314.366 293.856 313.43C293.978 312.84 294.067 312.228 294.433 311.763C295.572 310.32 295.871 308.581 296.176 306.864C296.452 305.311 297.291 304.1 298.247 302.945C298.552 302.577 298.862 302.22 299.133 301.824C299.785 300.872 300.632 300.235 301.843 300.176C302.443 300.147 303.038 300.082 303.631 300V324.565ZM294.575 339.667C294.073 339.667 293.779 339.804 293.5 339.934C293.212 340.067 292.957 340.424 292.948 340.438C292.948 340.438 293.277 340.964 293.758 341.331C293.909 341.445 294.222 341.537 294.466 341.606C294.92 341.735 295.229 341.471 295.481 341.157C295.678 340.913 295.82 340.609 295.588 340.306C295.347 339.994 295.087 339.687 294.575 339.669V339.667Z" fill="#5C5C5C"/>
<path d="M303.631 369.565C302.265 369.884 300.983 370.381 300.303 371.78C300.28 371.831 300.262 371.886 300.23 371.934C299.927 372.395 299.703 373.185 299.165 373.11C298.615 373.035 298.74 372.229 298.667 371.717C298.631 371.475 298.631 371.26 298.33 371.229C298.072 371.203 297.812 371.195 297.654 371.461C297.597 371.558 297.532 371.662 297.518 371.769C297.236 373.899 295.792 375.409 294.672 377.084C293.665 378.59 292.749 380.14 292.059 381.817C291.948 382.088 291.814 383.149 291.811 383.167C291.823 383.159 292.518 382.646 292.766 382.528C293.791 382.045 294.867 382.103 295.926 382.239C296.789 382.352 297.315 383.026 297.623 383.765C298.755 386.502 298.075 387.959 295.731 389.469C293.909 390.642 290.931 389.518 289.731 388.538C287.954 387.091 287.089 385.091 287.008 382.886C286.959 381.541 287.127 380.735 287.452 379.704C288.256 377.161 288.961 374.597 290.105 372.145C290.982 370.264 291.585 368.191 292.007 366.113C292.343 364.452 292.892 362.855 293.446 361.261C293.765 360.338 293.661 359.366 293.856 358.43C293.978 357.84 294.067 357.228 294.433 356.763C295.572 355.32 295.871 353.581 296.176 351.864C296.452 350.311 297.291 349.1 298.247 347.945C298.552 347.577 298.862 347.22 299.133 346.824C299.785 345.872 300.632 345.235 301.843 345.176C302.443 345.147 303.038 345.082 303.631 345V369.565ZM294.575 384.667C294.073 384.667 293.779 384.804 293.5 384.934C293.212 385.067 292.957 385.424 292.948 385.438C292.948 385.438 293.277 385.964 293.758 386.331C293.909 386.445 294.222 386.537 294.466 386.606C294.92 386.735 295.229 386.471 295.481 386.157C295.678 385.913 295.82 385.609 295.588 385.306C295.347 384.994 295.087 384.687 294.575 384.669V384.667Z" fill="#5C5C5C"/>
<path d="M303.631 279.565C302.265 279.884 300.983 280.381 300.303 281.78C300.28 281.831 300.262 281.886 300.23 281.934C299.927 282.395 299.702 283.185 299.165 283.11C298.615 283.035 298.739 282.229 298.666 281.717C298.63 281.474 298.63 281.26 298.329 281.229C298.071 281.203 297.812 281.195 297.654 281.461C297.597 281.558 297.531 281.662 297.517 281.769C297.236 283.899 295.792 285.409 294.672 287.084C293.665 288.59 292.749 290.14 292.059 291.817C291.948 292.087 291.814 293.147 291.811 293.167C291.829 293.154 292.519 292.645 292.766 292.528C293.79 292.046 294.866 292.103 295.925 292.239C296.788 292.352 297.314 293.025 297.622 293.765C298.754 296.502 298.075 297.959 295.731 299.469C293.909 300.642 290.931 299.518 289.731 298.538C287.954 297.091 287.089 295.091 287.008 292.886C286.959 291.541 287.127 290.735 287.452 289.704C288.256 287.161 288.961 284.597 290.105 282.145C290.982 280.264 291.584 278.191 292.006 276.113C292.342 274.452 292.892 272.855 293.446 271.261C293.765 270.338 293.66 269.366 293.855 268.43C293.977 267.841 294.066 267.228 294.432 266.763C295.571 265.32 295.871 263.581 296.176 261.864C296.452 260.311 297.291 259.1 298.247 257.945C298.552 257.577 298.861 257.22 299.133 256.824C299.785 255.872 300.632 255.235 301.843 255.176C302.443 255.146 303.038 255.082 303.631 255V279.565ZM294.575 294.667C294.073 294.667 293.778 294.804 293.499 294.934C293.212 295.067 292.959 295.422 292.948 295.438C292.948 295.438 293.277 295.964 293.758 296.331C293.909 296.445 294.222 296.538 294.466 296.606C294.919 296.734 295.229 296.471 295.481 296.157C295.678 295.913 295.82 295.609 295.588 295.306C295.347 294.994 295.087 294.687 294.575 294.669V294.667Z" fill="#5C5C5C"/>
<path d="M303.631 234.565C302.265 234.884 300.982 235.38 300.302 236.78C300.279 236.831 300.262 236.886 300.23 236.934C299.927 237.395 299.702 238.185 299.164 238.11C298.615 238.035 298.739 237.229 298.666 236.717C298.63 236.474 298.63 236.26 298.329 236.229C298.071 236.203 297.811 236.195 297.653 236.461C297.596 236.557 297.531 236.662 297.517 236.769C297.236 238.899 295.791 240.409 294.671 242.084C293.664 243.59 292.748 245.14 292.058 246.817C291.947 247.088 291.812 248.15 291.81 248.167C291.81 248.167 292.516 247.647 292.766 247.528C293.791 247.046 294.866 247.103 295.926 247.239C296.788 247.352 297.314 248.025 297.622 248.765C298.754 251.502 298.074 252.959 295.73 254.469C293.908 255.641 290.93 254.518 289.73 253.538C287.954 252.091 287.089 250.091 287.009 247.886C286.959 246.542 287.126 245.735 287.451 244.704C288.255 242.161 288.96 239.597 290.104 237.145C290.981 235.264 291.584 233.191 292.006 231.113C292.342 229.452 292.893 227.855 293.446 226.261C293.765 225.338 293.66 224.366 293.855 223.43C293.977 222.84 294.066 222.228 294.432 221.763C295.571 220.32 295.87 218.581 296.176 216.864C296.451 215.311 297.29 214.1 298.246 212.945C298.551 212.577 298.861 212.22 299.133 211.824C299.785 210.872 300.632 210.235 301.843 210.176C302.443 210.146 303.038 210.082 303.631 210V234.565ZM294.574 249.667C294.072 249.667 293.778 249.804 293.499 249.934C293.209 250.068 292.954 250.428 292.947 250.438C292.947 250.438 293.276 250.964 293.757 251.331C293.908 251.445 294.221 251.537 294.466 251.606C294.919 251.735 295.228 251.471 295.48 251.157C295.677 250.913 295.819 250.609 295.587 250.306C295.346 249.994 295.086 249.687 294.574 249.669V249.667Z" fill="#5C5C5C"/>
<path d="M333.631 414.565C332.265 414.884 330.983 415.381 330.303 416.78C330.28 416.831 330.262 416.886 330.23 416.934C329.927 417.395 329.703 418.185 329.165 418.11C328.615 418.035 328.74 417.229 328.667 416.717C328.631 416.475 328.631 416.26 328.33 416.229C328.072 416.203 327.812 416.195 327.654 416.461C327.597 416.558 327.532 416.662 327.518 416.769C327.236 418.899 325.792 420.409 324.672 422.084C323.665 423.59 322.749 425.14 322.059 426.817C321.948 427.088 321.814 428.149 321.811 428.167C321.823 428.159 322.518 427.646 322.766 427.528C323.791 427.045 324.867 427.103 325.926 427.239C326.789 427.352 327.315 428.026 327.623 428.765C328.755 431.502 328.075 432.959 325.731 434.469C323.909 435.642 320.931 434.518 319.731 433.538C317.954 432.091 317.089 430.091 317.008 427.886C316.959 426.541 317.127 425.735 317.452 424.704C318.256 422.161 318.961 419.597 320.105 417.145C320.982 415.264 321.585 413.191 322.007 411.113C322.343 409.452 322.892 407.855 323.446 406.261C323.765 405.338 323.661 404.366 323.856 403.43C323.978 402.84 324.067 402.228 324.433 401.763C325.572 400.32 325.871 398.581 326.176 396.864C326.452 395.311 327.291 394.1 328.247 392.945C328.552 392.577 328.862 392.22 329.133 391.824C329.785 390.872 330.632 390.235 331.843 390.176C332.443 390.147 333.038 390.082 333.631 390V414.565ZM324.575 429.667C324.073 429.667 323.779 429.804 323.5 429.934C323.212 430.067 322.957 430.424 322.948 430.438C322.948 430.438 323.277 430.964 323.758 431.331C323.909 431.445 324.222 431.537 324.466 431.606C324.92 431.735 325.229 431.471 325.481 431.157C325.678 430.913 325.82 430.609 325.588 430.306C325.347 429.994 325.087 429.687 324.575 429.669V429.667Z" fill="#5C5C5C"/>
<path d="M333.631 324.565C332.265 324.884 330.983 325.381 330.303 326.78C330.28 326.831 330.262 326.886 330.23 326.934C329.927 327.395 329.702 328.185 329.165 328.11C328.615 328.035 328.739 327.229 328.666 326.717C328.63 326.474 328.63 326.26 328.329 326.229C328.071 326.203 327.812 326.195 327.654 326.461C327.597 326.558 327.531 326.662 327.517 326.769C327.236 328.899 325.792 330.409 324.672 332.084C323.665 333.59 322.749 335.14 322.059 336.817C321.948 337.087 321.814 338.147 321.811 338.167C321.829 338.154 322.519 337.645 322.766 337.528C323.79 337.046 324.866 337.103 325.925 337.239C326.788 337.352 327.314 338.025 327.622 338.765C328.754 341.502 328.075 342.959 325.731 344.469C323.909 345.642 320.931 344.518 319.731 343.538C317.954 342.091 317.089 340.091 317.008 337.886C316.959 336.541 317.127 335.735 317.452 334.704C318.256 332.161 318.961 329.597 320.105 327.145C320.982 325.264 321.584 323.191 322.006 321.113C322.342 319.452 322.892 317.855 323.446 316.261C323.765 315.338 323.66 314.366 323.855 313.43C323.977 312.841 324.066 312.228 324.432 311.763C325.571 310.32 325.871 308.581 326.176 306.864C326.452 305.311 327.291 304.1 328.247 302.945C328.552 302.577 328.861 302.22 329.133 301.824C329.785 300.872 330.632 300.235 331.843 300.176C332.443 300.146 333.038 300.082 333.631 300V324.565ZM324.575 339.667C324.073 339.667 323.778 339.804 323.499 339.934C323.212 340.067 322.959 340.422 322.948 340.438C322.948 340.438 323.277 340.964 323.758 341.331C323.909 341.445 324.222 341.538 324.466 341.606C324.919 341.734 325.229 341.471 325.481 341.157C325.678 340.913 325.82 340.609 325.588 340.306C325.347 339.994 325.087 339.687 324.575 339.669V339.667Z" fill="#5C5C5C"/>
<path d="M333.631 369.565C332.265 369.884 330.983 370.381 330.303 371.78C330.28 371.831 330.262 371.886 330.23 371.934C329.927 372.395 329.702 373.185 329.165 373.11C328.615 373.035 328.739 372.229 328.666 371.717C328.63 371.474 328.63 371.26 328.329 371.229C328.071 371.203 327.812 371.195 327.654 371.461C327.597 371.558 327.531 371.662 327.517 371.769C327.236 373.899 325.792 375.409 324.672 377.084C323.665 378.59 322.749 380.14 322.059 381.817C321.948 382.087 321.814 383.147 321.811 383.167C321.829 383.154 322.519 382.645 322.766 382.528C323.79 382.046 324.866 382.103 325.925 382.239C326.788 382.352 327.314 383.025 327.622 383.765C328.754 386.502 328.075 387.959 325.731 389.469C323.909 390.642 320.931 389.518 319.731 388.538C317.954 387.091 317.089 385.091 317.008 382.886C316.959 381.541 317.127 380.735 317.452 379.704C318.256 377.161 318.961 374.597 320.105 372.145C320.982 370.264 321.584 368.191 322.006 366.113C322.342 364.452 322.892 362.855 323.446 361.261C323.765 360.338 323.66 359.366 323.855 358.43C323.977 357.841 324.066 357.228 324.432 356.763C325.571 355.32 325.871 353.581 326.176 351.864C326.452 350.311 327.291 349.1 328.247 347.945C328.552 347.577 328.861 347.22 329.133 346.824C329.785 345.872 330.632 345.235 331.843 345.176C332.443 345.146 333.038 345.082 333.631 345V369.565ZM324.575 384.667C324.073 384.667 323.778 384.804 323.499 384.934C323.212 385.067 322.959 385.422 322.948 385.438C322.948 385.438 323.277 385.964 323.758 386.331C323.909 386.445 324.222 386.538 324.466 386.606C324.919 386.734 325.229 386.471 325.481 386.157C325.678 385.913 325.82 385.609 325.588 385.306C325.347 384.994 325.087 384.687 324.575 384.669V384.667Z" fill="#5C5C5C"/>
<path d="M333.631 279.565C332.265 279.884 330.982 280.38 330.302 281.78C330.279 281.831 330.262 281.886 330.23 281.934C329.927 282.395 329.702 283.185 329.164 283.11C328.615 283.035 328.739 282.229 328.666 281.717C328.63 281.474 328.63 281.26 328.329 281.229C328.071 281.203 327.811 281.195 327.653 281.461C327.596 281.557 327.531 281.662 327.517 281.769C327.236 283.899 325.791 285.409 324.671 287.084C323.664 288.59 322.748 290.14 322.058 291.817C321.947 292.088 321.812 293.15 321.81 293.167C321.81 293.167 322.516 292.647 322.766 292.528C323.791 292.046 324.866 292.103 325.926 292.239C326.788 292.352 327.314 293.025 327.622 293.765C328.754 296.502 328.074 297.959 325.73 299.469C323.908 300.641 320.93 299.518 319.73 298.538C317.954 297.091 317.089 295.091 317.009 292.886C316.959 291.542 317.126 290.735 317.451 289.704C318.255 287.161 318.96 284.597 320.104 282.145C320.981 280.264 321.584 278.191 322.006 276.113C322.342 274.452 322.893 272.855 323.446 271.261C323.765 270.338 323.66 269.366 323.855 268.43C323.977 267.84 324.066 267.228 324.432 266.763C325.571 265.32 325.87 263.581 326.176 261.864C326.451 260.311 327.29 259.1 328.246 257.945C328.551 257.577 328.861 257.22 329.133 256.824C329.785 255.872 330.632 255.235 331.843 255.176C332.443 255.146 333.038 255.082 333.631 255V279.565ZM324.574 294.667C324.072 294.667 323.778 294.804 323.499 294.934C323.209 295.068 322.954 295.428 322.947 295.438C322.947 295.438 323.276 295.964 323.757 296.331C323.908 296.445 324.221 296.537 324.466 296.606C324.919 296.735 325.228 296.471 325.48 296.157C325.677 295.913 325.819 295.609 325.587 295.306C325.346 294.994 325.086 294.687 324.574 294.669V294.667Z" fill="#5C5C5C"/>
<path d="M333.631 234.565C332.266 234.884 330.983 235.381 330.303 236.78C330.28 236.831 330.262 236.886 330.23 236.934C329.927 237.395 329.703 238.185 329.165 238.11C328.615 238.035 328.74 237.229 328.667 236.717C328.631 236.474 328.631 236.26 328.33 236.229C328.072 236.203 327.812 236.195 327.654 236.461C327.597 236.558 327.532 236.662 327.518 236.769C327.236 238.899 325.792 240.409 324.672 242.084C323.665 243.59 322.749 245.14 322.059 246.817C321.948 247.088 321.813 248.149 321.811 248.167C321.82 248.16 322.518 247.646 322.766 247.528C323.791 247.045 324.867 247.103 325.926 247.239C326.789 247.352 327.315 248.026 327.623 248.765C328.755 251.502 328.075 252.959 325.731 254.469C323.909 255.642 320.931 254.518 319.731 253.538C317.955 252.091 317.089 250.091 317.008 247.886C316.959 246.542 317.127 245.735 317.452 244.704C318.256 242.161 318.961 239.597 320.105 237.145C320.982 235.264 321.585 233.191 322.007 231.113C322.343 229.452 322.892 227.855 323.446 226.261C323.765 225.338 323.661 224.366 323.856 223.43C323.978 222.84 324.067 222.228 324.433 221.763C325.572 220.32 325.871 218.581 326.176 216.864C326.452 215.311 327.291 214.1 328.247 212.945C328.552 212.577 328.862 212.22 329.133 211.824C329.785 210.872 330.632 210.235 331.843 210.176C332.443 210.147 333.038 210.082 333.631 210V234.565ZM324.575 249.667C324.073 249.667 323.779 249.804 323.5 249.934C323.211 250.067 322.957 250.425 322.948 250.438C322.948 250.438 323.277 250.964 323.758 251.331C323.909 251.445 324.222 251.537 324.466 251.606C324.92 251.735 325.229 251.471 325.481 251.157C325.678 250.913 325.82 250.609 325.588 250.306C325.347 249.994 325.087 249.687 324.575 249.669V249.667Z" fill="#5C5C5C"/>
</svg>
