<svg width="500" height="600" viewBox="0 0 500 600" fill="none" xmlns="http://www.w3.org/2000/svg">
<path d="M165.209 430.833C164.568 429.976 164.174 429.003 164.005 427.9C164.005 427.843 163.955 427.813 163.93 427.813H163.904C163.375 428.247 162.771 428.508 162.242 428.883C161.437 429.491 160.606 430.099 159.775 430.735C159.398 430.996 158.969 431.197 158.566 431.284C158.365 431.342 158.189 431.371 158.038 431.458C158.013 431.458 157.962 431.516 157.937 431.545C156.729 433.396 155.495 434.871 153.355 434.987C151.19 435.102 149.05 434.467 146.986 434.033C146.004 433.802 144.619 433.685 142.781 433.598C140.943 433.483 139.886 432.875 139.483 430.676C139.307 429.606 139.181 428.65 139.156 427.754C139.081 426.538 139.03 425.381 139.005 424.311C138.954 423.241 139.307 422.719 139.936 421.996C140.188 421.706 140.264 421.215 140.34 420.839C140.39 420.491 140.617 420.173 140.944 420.202C141.498 420.231 142.102 420.115 142.706 419.768C144.619 418.697 145.627 416.875 146.785 414.936C147.415 413.837 148.119 412.823 148.95 411.695C149 411.609 149.025 411.522 149.025 411.435C149.126 410.22 149.125 409.004 148.647 407.846C147.892 406.111 147.741 404.172 148.899 402.668C149.579 401.8 150.46 401.742 151.367 401.626C152.374 401.452 153.255 401.047 153.507 399.802C153.632 399.369 153.784 398.992 154.036 398.645C154.086 398.559 154.111 398.472 154.111 398.384C154.111 398.24 154.035 398.124 153.934 398.038C153.784 397.893 153.557 397.807 153.381 397.777C152.55 397.661 151.996 397.314 151.618 396.706C150.913 395.548 150.586 393.899 150.989 392.568C151.266 391.758 151.971 391.614 152.424 392.307C153.103 393.377 153.884 394.188 155.092 394.449C155.369 394.478 155.696 394.391 155.923 394.275C156.35 393.986 156.804 393.667 157.282 393.379C157.66 393.147 157.812 392.8 158.038 392.423V392.427C158.441 391.675 159.448 391.502 160.128 391.473C161.135 391.415 161.966 391.329 162.596 391.213C162.898 391.184 163.2 391.009 163.577 390.75C164.039 390.378 164.628 390.129 165.209 390.001V430.833Z" fill="#5C5C5C"/>
<path d="M165.209 385.833C164.568 384.976 164.174 384.003 164.005 382.9C164.005 382.842 163.955 382.813 163.93 382.813H163.904C163.375 383.247 162.771 383.508 162.242 383.883C161.437 384.491 160.606 385.099 159.775 385.735C159.398 385.995 158.969 386.197 158.566 386.284C158.365 386.341 158.189 386.371 158.038 386.458C158.013 386.458 157.962 386.516 157.937 386.544C156.729 388.396 155.495 389.871 153.355 389.987C151.19 390.102 149.05 389.467 146.986 389.033C146.004 388.802 144.619 388.685 142.781 388.598C140.943 388.483 139.886 387.875 139.483 385.676C139.307 384.605 139.181 383.65 139.156 382.753C139.081 381.538 139.03 380.381 139.005 379.311C138.954 378.241 139.307 377.719 139.936 376.996C140.188 376.706 140.264 376.215 140.34 375.838C140.39 375.491 140.617 375.173 140.944 375.202C141.498 375.231 142.102 375.115 142.706 374.768C144.619 373.697 145.627 371.875 146.785 369.936C147.415 368.836 148.119 367.823 148.95 366.695C149 366.608 149.025 366.522 149.025 366.435C149.126 365.22 149.125 364.004 148.647 362.846C147.892 361.11 147.741 359.172 148.899 357.667C149.579 356.8 150.46 356.742 151.367 356.625C152.374 356.452 153.255 356.047 153.507 354.802C153.632 354.368 153.784 353.992 154.036 353.645C154.086 353.558 154.111 353.471 154.111 353.384C154.111 353.24 154.035 353.124 153.934 353.038C153.784 352.893 153.557 352.806 153.381 352.777C152.55 352.661 151.996 352.314 151.618 351.706C150.913 350.548 150.586 348.899 150.989 347.568C151.266 346.758 151.971 346.614 152.424 347.307C153.103 348.377 153.884 349.188 155.092 349.449C155.369 349.478 155.696 349.39 155.923 349.275C156.35 348.985 156.804 348.667 157.282 348.378C157.66 348.147 157.812 347.8 158.038 347.423V347.427C158.441 346.675 159.448 346.502 160.128 346.473C161.135 346.415 161.966 346.329 162.596 346.212C162.898 346.183 163.2 346.009 163.577 345.75C164.039 345.378 164.628 345.128 165.209 345V385.833Z" fill="#5C5C5C"/>
<path d="M165.209 340.832C164.568 339.976 164.174 339.003 164.005 337.9C164.005 337.842 163.955 337.813 163.93 337.813H163.904C163.375 338.247 162.771 338.508 162.242 338.883C161.437 339.491 160.606 340.099 159.775 340.735C159.398 340.995 158.969 341.197 158.566 341.284C158.365 341.341 158.189 341.371 158.038 341.457C158.013 341.457 157.962 341.515 157.937 341.544C156.729 343.396 155.495 344.871 153.355 344.987C151.19 345.102 149.05 344.467 146.986 344.033C146.004 343.801 144.619 343.685 142.781 343.598C140.943 343.482 139.886 342.875 139.483 340.676C139.307 339.605 139.181 338.65 139.156 337.753C139.081 336.538 139.03 335.381 139.005 334.311C138.954 333.241 139.307 332.719 139.936 331.995C140.188 331.706 140.264 331.214 140.34 330.838C140.39 330.491 140.617 330.173 140.944 330.202C141.498 330.23 142.102 330.115 142.706 329.768C144.619 328.697 145.627 326.875 146.785 324.936C147.415 323.836 148.119 322.823 148.95 321.695C149 321.608 149.025 321.522 149.025 321.435C149.126 320.22 149.125 319.004 148.647 317.846C147.892 316.11 147.741 314.171 148.899 312.667C149.579 311.799 150.46 311.742 151.367 311.625C152.374 311.452 153.255 311.047 153.507 309.802C153.632 309.368 153.784 308.992 154.036 308.645C154.086 308.558 154.111 308.471 154.111 308.384C154.111 308.24 154.035 308.124 153.934 308.037C153.784 307.893 153.557 307.806 153.381 307.777C152.55 307.661 151.996 307.313 151.618 306.705C150.913 305.548 150.586 303.898 150.989 302.568C151.266 301.758 151.971 301.614 152.424 302.307C153.103 303.377 153.884 304.188 155.092 304.449C155.369 304.478 155.696 304.39 155.923 304.275C156.35 303.985 156.804 303.667 157.282 303.378C157.66 303.147 157.812 302.799 158.038 302.423V302.427C158.441 301.675 159.448 301.502 160.128 301.473C161.135 301.415 161.966 301.328 162.596 301.212C162.898 301.183 163.2 301.009 163.577 300.749C164.039 300.378 164.628 300.128 165.209 300V340.832Z" fill="#5C5C5C"/>
<path d="M165.209 295.832C164.568 294.976 164.174 294.003 164.005 292.9C164.005 292.842 163.955 292.813 163.93 292.813H163.904C163.375 293.247 162.771 293.507 162.242 293.883C161.437 294.491 160.606 295.098 159.775 295.735C159.398 295.995 158.969 296.197 158.566 296.283C158.365 296.341 158.189 296.371 158.038 296.457C158.013 296.457 157.962 296.515 157.937 296.544C156.729 298.395 155.495 299.871 153.355 299.987C151.19 300.102 149.05 299.466 146.986 299.032C146.004 298.801 144.619 298.685 142.781 298.598C140.943 298.482 139.886 297.875 139.483 295.676C139.307 294.605 139.181 293.65 139.156 292.753C139.081 291.538 139.03 290.381 139.005 289.311C138.954 288.241 139.307 287.719 139.936 286.995C140.188 286.706 140.264 286.214 140.34 285.838C140.39 285.491 140.617 285.173 140.944 285.201C141.498 285.23 142.102 285.115 142.706 284.768C144.619 283.697 145.627 281.875 146.785 279.936C147.415 278.836 148.119 277.823 148.95 276.695C149 276.608 149.025 276.522 149.025 276.435C149.126 275.22 149.125 274.003 148.647 272.846C147.892 271.11 147.741 269.171 148.899 267.667C149.579 266.799 150.46 266.741 151.367 266.625C152.374 266.452 153.255 266.047 153.507 264.802C153.632 264.368 153.784 263.992 154.036 263.645C154.086 263.558 154.111 263.471 154.111 263.384C154.111 263.24 154.035 263.124 153.934 263.037C153.784 262.893 153.557 262.806 153.381 262.777C152.55 262.661 151.996 262.313 151.618 261.705C150.913 260.548 150.586 258.898 150.989 257.568C151.266 256.758 151.971 256.613 152.424 257.307C153.103 258.377 153.884 259.188 155.092 259.448C155.369 259.477 155.696 259.39 155.923 259.275C156.35 258.985 156.804 258.667 157.282 258.378C157.66 258.146 157.812 257.799 158.038 257.423V257.427C158.441 256.675 159.448 256.502 160.128 256.473C161.135 256.415 161.966 256.328 162.596 256.212C162.898 256.183 163.2 256.009 163.577 255.749C164.039 255.378 164.628 255.128 165.209 255V295.832Z" fill="#5C5C5C"/>
<path d="M165.209 250.832C164.568 249.976 164.174 249.003 164.005 247.9C164.005 247.842 163.955 247.813 163.93 247.813H163.904C163.375 248.247 162.771 248.507 162.242 248.883C161.437 249.491 160.606 250.098 159.775 250.734C159.398 250.995 158.969 251.197 158.566 251.283C158.365 251.341 158.189 251.371 158.038 251.457C158.013 251.457 157.962 251.515 157.937 251.544C156.729 253.395 155.495 254.871 153.355 254.986C151.19 255.102 149.05 254.466 146.986 254.032C146.004 253.801 144.619 253.684 142.781 253.598C140.943 253.482 139.886 252.874 139.483 250.676C139.307 249.605 139.181 248.65 139.156 247.753C139.081 246.538 139.03 245.381 139.005 244.311C138.954 243.24 139.307 242.719 139.936 241.995C140.188 241.706 140.264 241.214 140.34 240.838C140.39 240.491 140.617 240.172 140.944 240.201C141.498 240.23 142.102 240.115 142.706 239.768C144.619 238.697 145.627 236.874 146.785 234.936C147.415 233.836 148.119 232.823 148.95 231.694C149 231.608 149.025 231.522 149.025 231.435C149.126 230.219 149.125 229.003 148.647 227.846C147.892 226.11 147.741 224.171 148.899 222.667C149.579 221.799 150.46 221.741 151.367 221.625C152.374 221.452 153.255 221.047 153.507 219.802C153.632 219.368 153.784 218.992 154.036 218.645C154.086 218.558 154.111 218.471 154.111 218.384C154.111 218.24 154.035 218.124 153.934 218.037C153.784 217.893 153.557 217.806 153.381 217.776C152.55 217.661 151.996 217.313 151.618 216.705C150.913 215.548 150.586 213.898 150.989 212.568C151.266 211.758 151.971 211.613 152.424 212.307C153.103 213.377 153.884 214.188 155.092 214.448C155.369 214.477 155.696 214.39 155.923 214.275C156.35 213.985 156.804 213.667 157.282 213.378C157.66 213.146 157.812 212.799 158.038 212.423V212.427C158.441 211.675 159.448 211.502 160.128 211.473C161.135 211.415 161.966 211.328 162.596 211.212C162.898 211.183 163.2 211.009 163.577 210.749C164.039 210.377 164.628 210.128 165.209 210V250.832Z" fill="#5C5C5C"/>
<path d="M165.209 205.832C164.568 204.976 164.174 204.002 164.005 202.899C164.005 202.842 163.955 202.813 163.93 202.812H163.904C163.375 203.246 162.771 203.507 162.242 203.883C161.437 204.491 160.606 205.098 159.775 205.734C159.398 205.995 158.969 206.197 158.566 206.283C158.365 206.341 158.189 206.37 158.038 206.457C158.013 206.457 157.962 206.515 157.937 206.544C156.729 208.395 155.495 209.871 153.355 209.986C151.19 210.102 149.05 209.466 146.986 209.032C146.004 208.801 144.619 208.684 142.781 208.598C140.943 208.482 139.886 207.874 139.483 205.676C139.307 204.605 139.181 203.65 139.156 202.753C139.081 201.538 139.03 200.381 139.005 199.311C138.954 198.24 139.307 197.719 139.936 196.995C140.188 196.706 140.264 196.214 140.34 195.838C140.39 195.491 140.617 195.172 140.944 195.201C141.498 195.23 142.102 195.115 142.706 194.768C144.619 193.697 145.627 191.874 146.785 189.936C147.415 188.836 148.119 187.823 148.95 186.694C149 186.608 149.025 186.522 149.025 186.435C149.126 185.219 149.125 184.003 148.647 182.846C147.892 181.11 147.741 179.171 148.899 177.667C149.579 176.799 150.46 176.741 151.367 176.625C152.374 176.452 153.255 176.046 153.507 174.802C153.632 174.368 153.784 173.992 154.036 173.645C154.086 173.558 154.111 173.471 154.111 173.384C154.111 173.239 154.035 173.124 153.934 173.037C153.784 172.893 153.557 172.806 153.381 172.776C152.55 172.661 151.996 172.313 151.618 171.705C150.913 170.548 150.586 168.898 150.989 167.567C151.266 166.758 151.971 166.613 152.424 167.307C153.103 168.377 153.884 169.188 155.092 169.448C155.369 169.477 155.696 169.39 155.923 169.274C156.35 168.985 156.804 168.667 157.282 168.378C157.66 168.146 157.812 167.799 158.038 167.423V167.427C158.441 166.674 159.448 166.502 160.128 166.473C161.135 166.415 161.966 166.328 162.596 166.212C162.898 166.183 163.2 166.009 163.577 165.749C164.039 165.377 164.628 165.128 165.209 165V205.832Z" fill="#5C5C5C"/>
<path d="M204.418 430.833C203.777 429.976 203.383 429.003 203.214 427.9C203.214 427.843 203.164 427.813 203.139 427.813H203.113C202.584 428.247 201.98 428.508 201.451 428.883C200.646 429.491 199.815 430.099 198.984 430.735C198.607 430.996 198.178 431.197 197.775 431.284C197.574 431.342 197.398 431.371 197.247 431.458C197.222 431.458 197.171 431.516 197.146 431.545C195.938 433.396 194.704 434.871 192.564 434.987C190.399 435.102 188.259 434.467 186.195 434.033C185.213 433.802 183.828 433.685 181.99 433.598C180.152 433.483 179.095 432.875 178.692 430.676C178.516 429.606 178.39 428.65 178.365 427.754C178.29 426.538 178.239 425.381 178.214 424.311C178.163 423.241 178.516 422.719 179.145 421.996C179.397 421.706 179.473 421.215 179.549 420.839C179.599 420.491 179.826 420.173 180.153 420.202C180.707 420.231 181.311 420.115 181.915 419.768C183.828 418.697 184.836 416.875 185.994 414.936C186.624 413.837 187.328 412.823 188.159 411.695C188.209 411.609 188.234 411.522 188.234 411.435C188.335 410.22 188.334 409.004 187.856 407.846C187.101 406.111 186.95 404.172 188.108 402.668C188.788 401.8 189.669 401.742 190.576 401.626C191.583 401.452 192.464 401.047 192.716 399.802C192.841 399.369 192.993 398.992 193.245 398.645C193.295 398.559 193.32 398.472 193.32 398.384C193.32 398.24 193.244 398.124 193.143 398.038C192.993 397.893 192.766 397.807 192.59 397.777C191.759 397.661 191.205 397.314 190.827 396.706C190.122 395.548 189.795 393.899 190.198 392.568C190.475 391.758 191.18 391.614 191.633 392.307C192.312 393.377 193.093 394.188 194.301 394.449C194.578 394.478 194.905 394.391 195.132 394.275C195.559 393.986 196.013 393.667 196.491 393.379C196.869 393.147 197.021 392.8 197.247 392.423V392.427C197.65 391.675 198.657 391.502 199.337 391.473C200.344 391.415 201.175 391.329 201.805 391.213C202.107 391.184 202.409 391.009 202.786 390.75C203.248 390.378 203.837 390.129 204.418 390.001V430.833Z" fill="#5C5C5C"/>
<path d="M204.418 385.833C203.777 384.976 203.383 384.003 203.214 382.9C203.214 382.842 203.164 382.813 203.139 382.813H203.113C202.584 383.247 201.98 383.508 201.451 383.883C200.646 384.491 199.815 385.099 198.984 385.735C198.607 385.995 198.178 386.197 197.775 386.284C197.574 386.341 197.398 386.371 197.247 386.458C197.222 386.458 197.171 386.516 197.146 386.544C195.938 388.396 194.704 389.871 192.564 389.987C190.399 390.102 188.259 389.467 186.195 389.033C185.213 388.802 183.828 388.685 181.99 388.598C180.152 388.483 179.095 387.875 178.692 385.676C178.516 384.605 178.39 383.65 178.365 382.753C178.29 381.538 178.239 380.381 178.214 379.311C178.163 378.241 178.516 377.719 179.145 376.996C179.397 376.706 179.473 376.215 179.549 375.838C179.599 375.491 179.826 375.173 180.153 375.202C180.707 375.231 181.311 375.115 181.915 374.768C183.828 373.697 184.836 371.875 185.994 369.936C186.624 368.836 187.328 367.823 188.159 366.695C188.209 366.608 188.234 366.522 188.234 366.435C188.335 365.22 188.334 364.004 187.856 362.846C187.101 361.11 186.95 359.172 188.108 357.667C188.788 356.8 189.669 356.742 190.576 356.625C191.583 356.452 192.464 356.047 192.716 354.802C192.841 354.368 192.993 353.992 193.245 353.645C193.295 353.558 193.32 353.471 193.32 353.384C193.32 353.24 193.244 353.124 193.143 353.038C192.993 352.893 192.766 352.806 192.59 352.777C191.759 352.661 191.205 352.314 190.827 351.706C190.122 350.548 189.795 348.899 190.198 347.568C190.475 346.758 191.18 346.614 191.633 347.307C192.312 348.377 193.093 349.188 194.301 349.449C194.578 349.478 194.905 349.39 195.132 349.275C195.559 348.985 196.013 348.667 196.491 348.378C196.869 348.147 197.021 347.8 197.247 347.423V347.427C197.65 346.675 198.657 346.502 199.337 346.473C200.344 346.415 201.175 346.329 201.805 346.212C202.107 346.183 202.409 346.009 202.786 345.75C203.248 345.378 203.837 345.128 204.418 345V385.833Z" fill="#5C5C5C"/>
<path d="M204.418 340.832C203.777 339.976 203.383 339.003 203.214 337.9C203.214 337.842 203.164 337.813 203.139 337.813H203.113C202.584 338.247 201.98 338.508 201.451 338.883C200.646 339.491 199.815 340.099 198.984 340.735C198.607 340.995 198.178 341.197 197.775 341.284C197.574 341.341 197.398 341.371 197.247 341.457C197.222 341.457 197.171 341.515 197.146 341.544C195.938 343.396 194.704 344.871 192.564 344.987C190.399 345.102 188.259 344.467 186.195 344.033C185.213 343.801 183.828 343.685 181.99 343.598C180.152 343.482 179.095 342.875 178.692 340.676C178.516 339.605 178.39 338.65 178.365 337.753C178.29 336.538 178.239 335.381 178.214 334.311C178.163 333.241 178.516 332.719 179.145 331.995C179.397 331.706 179.473 331.214 179.549 330.838C179.599 330.491 179.826 330.173 180.153 330.202C180.707 330.23 181.311 330.115 181.915 329.768C183.828 328.697 184.836 326.875 185.994 324.936C186.624 323.836 187.328 322.823 188.159 321.695C188.209 321.608 188.234 321.522 188.234 321.435C188.335 320.22 188.334 319.004 187.856 317.846C187.101 316.11 186.95 314.171 188.108 312.667C188.788 311.799 189.669 311.742 190.576 311.625C191.583 311.452 192.464 311.047 192.716 309.802C192.841 309.368 192.993 308.992 193.245 308.645C193.295 308.558 193.32 308.471 193.32 308.384C193.32 308.24 193.244 308.124 193.143 308.037C192.993 307.893 192.766 307.806 192.59 307.777C191.759 307.661 191.205 307.313 190.827 306.705C190.122 305.548 189.795 303.898 190.198 302.568C190.475 301.758 191.18 301.614 191.633 302.307C192.312 303.377 193.093 304.188 194.301 304.449C194.578 304.478 194.905 304.39 195.132 304.275C195.559 303.985 196.013 303.667 196.491 303.378C196.869 303.147 197.021 302.799 197.247 302.423V302.427C197.65 301.675 198.657 301.502 199.337 301.473C200.344 301.415 201.175 301.328 201.805 301.212C202.107 301.183 202.409 301.009 202.786 300.749C203.248 300.378 203.837 300.128 204.418 300V340.832Z" fill="#5C5C5C"/>
<path d="M204.418 295.832C203.777 294.976 203.383 294.003 203.214 292.9C203.214 292.842 203.164 292.813 203.139 292.813H203.113C202.584 293.247 201.98 293.507 201.451 293.883C200.646 294.491 199.815 295.098 198.984 295.735C198.607 295.995 198.178 296.197 197.775 296.283C197.574 296.341 197.398 296.371 197.247 296.457C197.222 296.457 197.171 296.515 197.146 296.544C195.938 298.395 194.704 299.871 192.564 299.987C190.399 300.102 188.259 299.466 186.195 299.032C185.213 298.801 183.828 298.685 181.99 298.598C180.152 298.482 179.095 297.875 178.692 295.676C178.516 294.605 178.39 293.65 178.365 292.753C178.29 291.538 178.239 290.381 178.214 289.311C178.163 288.241 178.516 287.719 179.145 286.995C179.397 286.706 179.473 286.214 179.549 285.838C179.599 285.491 179.826 285.173 180.153 285.201C180.707 285.23 181.311 285.115 181.915 284.768C183.828 283.697 184.836 281.875 185.994 279.936C186.624 278.836 187.328 277.823 188.159 276.695C188.209 276.608 188.234 276.522 188.234 276.435C188.335 275.22 188.334 274.003 187.856 272.846C187.101 271.11 186.95 269.171 188.108 267.667C188.788 266.799 189.669 266.741 190.576 266.625C191.583 266.452 192.464 266.047 192.716 264.802C192.841 264.368 192.993 263.992 193.245 263.645C193.295 263.558 193.32 263.471 193.32 263.384C193.32 263.24 193.244 263.124 193.143 263.037C192.993 262.893 192.766 262.806 192.59 262.777C191.759 262.661 191.205 262.313 190.827 261.705C190.122 260.548 189.795 258.898 190.198 257.568C190.475 256.758 191.18 256.613 191.633 257.307C192.312 258.377 193.093 259.188 194.301 259.448C194.578 259.477 194.905 259.39 195.132 259.275C195.559 258.985 196.013 258.667 196.491 258.378C196.869 258.146 197.021 257.799 197.247 257.423V257.427C197.65 256.675 198.657 256.502 199.337 256.473C200.344 256.415 201.175 256.328 201.805 256.212C202.107 256.183 202.409 256.009 202.786 255.749C203.248 255.378 203.837 255.128 204.418 255V295.832Z" fill="#5C5C5C"/>
<path d="M204.418 250.832C203.777 249.976 203.383 249.003 203.214 247.9C203.214 247.842 203.164 247.813 203.139 247.813H203.113C202.584 248.247 201.98 248.507 201.451 248.883C200.646 249.491 199.815 250.098 198.984 250.734C198.607 250.995 198.178 251.197 197.775 251.283C197.574 251.341 197.398 251.371 197.247 251.457C197.222 251.457 197.171 251.515 197.146 251.544C195.938 253.395 194.704 254.871 192.564 254.986C190.399 255.102 188.259 254.466 186.195 254.032C185.213 253.801 183.828 253.684 181.99 253.598C180.152 253.482 179.095 252.874 178.692 250.676C178.516 249.605 178.39 248.65 178.365 247.753C178.29 246.538 178.239 245.381 178.214 244.311C178.163 243.24 178.516 242.719 179.145 241.995C179.397 241.706 179.473 241.214 179.549 240.838C179.599 240.491 179.826 240.172 180.153 240.201C180.707 240.23 181.311 240.115 181.915 239.768C183.828 238.697 184.836 236.874 185.994 234.936C186.624 233.836 187.328 232.823 188.159 231.694C188.209 231.608 188.234 231.522 188.234 231.435C188.335 230.219 188.334 229.003 187.856 227.846C187.101 226.11 186.95 224.171 188.108 222.667C188.788 221.799 189.669 221.741 190.576 221.625C191.583 221.452 192.464 221.047 192.716 219.802C192.841 219.368 192.993 218.992 193.245 218.645C193.295 218.558 193.32 218.471 193.32 218.384C193.32 218.24 193.244 218.124 193.143 218.037C192.993 217.893 192.766 217.806 192.59 217.776C191.759 217.661 191.205 217.313 190.827 216.705C190.122 215.548 189.795 213.898 190.198 212.568C190.475 211.758 191.18 211.613 191.633 212.307C192.312 213.377 193.093 214.188 194.301 214.448C194.578 214.477 194.905 214.39 195.132 214.275C195.559 213.985 196.013 213.667 196.491 213.378C196.869 213.146 197.021 212.799 197.247 212.423V212.427C197.65 211.675 198.657 211.502 199.337 211.473C200.344 211.415 201.175 211.328 201.805 211.212C202.107 211.183 202.409 211.009 202.786 210.749C203.248 210.377 203.837 210.128 204.418 210V250.832Z" fill="#5C5C5C"/>
<path d="M204.418 205.832C203.777 204.976 203.383 204.002 203.214 202.899C203.214 202.842 203.164 202.813 203.139 202.812H203.113C202.584 203.246 201.98 203.507 201.451 203.883C200.646 204.491 199.815 205.098 198.984 205.734C198.607 205.995 198.178 206.197 197.775 206.283C197.574 206.341 197.398 206.37 197.247 206.457C197.222 206.457 197.171 206.515 197.146 206.544C195.938 208.395 194.704 209.871 192.564 209.986C190.399 210.102 188.259 209.466 186.195 209.032C185.213 208.801 183.828 208.684 181.99 208.598C180.152 208.482 179.095 207.874 178.692 205.676C178.516 204.605 178.39 203.65 178.365 202.753C178.29 201.538 178.239 200.381 178.214 199.311C178.163 198.24 178.516 197.719 179.145 196.995C179.397 196.706 179.473 196.214 179.549 195.838C179.599 195.491 179.826 195.172 180.153 195.201C180.707 195.23 181.311 195.115 181.915 194.768C183.828 193.697 184.836 191.874 185.994 189.936C186.624 188.836 187.328 187.823 188.159 186.694C188.209 186.608 188.234 186.522 188.234 186.435C188.335 185.219 188.334 184.003 187.856 182.846C187.101 181.11 186.95 179.171 188.108 177.667C188.788 176.799 189.669 176.741 190.576 176.625C191.583 176.452 192.464 176.046 192.716 174.802C192.841 174.368 192.993 173.992 193.245 173.645C193.295 173.558 193.32 173.471 193.32 173.384C193.32 173.239 193.244 173.124 193.143 173.037C192.993 172.893 192.766 172.806 192.59 172.776C191.759 172.661 191.205 172.313 190.827 171.705C190.122 170.548 189.795 168.898 190.198 167.567C190.475 166.758 191.18 166.613 191.633 167.307C192.312 168.377 193.093 169.188 194.301 169.448C194.578 169.477 194.905 169.39 195.132 169.274C195.559 168.985 196.013 168.667 196.491 168.378C196.869 168.146 197.021 167.799 197.247 167.423V167.427C197.65 166.674 198.657 166.502 199.337 166.473C200.344 166.415 201.175 166.328 201.805 166.212C202.107 166.183 202.409 166.009 202.786 165.749C203.248 165.377 203.837 165.128 204.418 165V205.832Z" fill="#5C5C5C"/>
<path d="M243.627 430.833C242.986 429.976 242.592 429.003 242.423 427.9C242.423 427.843 242.373 427.813 242.348 427.813H242.322C241.793 428.247 241.189 428.508 240.66 428.883C239.855 429.491 239.024 430.099 238.193 430.735C237.816 430.996 237.387 431.197 236.984 431.284C236.783 431.342 236.607 431.371 236.456 431.458C236.431 431.458 236.38 431.516 236.355 431.545C235.147 433.396 233.913 434.871 231.773 434.987C229.608 435.102 227.468 434.467 225.404 434.033C224.422 433.802 223.037 433.685 221.199 433.598C219.361 433.483 218.304 432.875 217.901 430.676C217.725 429.606 217.599 428.65 217.574 427.754C217.499 426.538 217.448 425.381 217.423 424.311C217.372 423.241 217.725 422.719 218.354 421.996C218.606 421.706 218.682 421.215 218.758 420.839C218.808 420.491 219.035 420.173 219.362 420.202C219.916 420.231 220.52 420.115 221.124 419.768C223.037 418.697 224.045 416.875 225.203 414.936C225.832 413.837 226.537 412.823 227.368 411.695C227.418 411.609 227.443 411.522 227.443 411.435C227.544 410.22 227.543 409.004 227.065 407.846C226.31 406.111 226.159 404.172 227.317 402.668C227.997 401.8 228.878 401.742 229.785 401.626C230.792 401.452 231.673 401.047 231.925 399.802C232.05 399.369 232.202 398.992 232.454 398.645C232.504 398.559 232.529 398.472 232.529 398.384C232.529 398.24 232.453 398.124 232.352 398.038C232.202 397.893 231.975 397.807 231.799 397.777C230.968 397.661 230.414 397.314 230.036 396.706C229.331 395.548 229.004 393.899 229.407 392.568C229.684 391.758 230.389 391.614 230.842 392.307C231.521 393.377 232.302 394.188 233.51 394.449C233.787 394.478 234.114 394.391 234.341 394.275C234.768 393.986 235.221 393.667 235.7 393.379C236.078 393.147 236.23 392.8 236.456 392.423V392.427C236.859 391.675 237.866 391.502 238.546 391.473C239.553 391.415 240.384 391.329 241.014 391.213C241.316 391.184 241.618 391.009 241.995 390.75C242.457 390.378 243.046 390.129 243.627 390.001V430.833Z" fill="#5C5C5C"/>
<path d="M243.627 385.833C242.986 384.976 242.592 384.003 242.423 382.9C242.423 382.842 242.373 382.813 242.348 382.813H242.322C241.793 383.247 241.189 383.508 240.66 383.883C239.855 384.491 239.024 385.099 238.193 385.735C237.816 385.995 237.387 386.197 236.984 386.284C236.783 386.341 236.607 386.371 236.456 386.458C236.431 386.458 236.38 386.516 236.355 386.544C235.147 388.396 233.913 389.871 231.773 389.987C229.608 390.102 227.468 389.467 225.404 389.033C224.422 388.802 223.037 388.685 221.199 388.598C219.361 388.483 218.304 387.875 217.901 385.676C217.725 384.605 217.599 383.65 217.574 382.753C217.499 381.538 217.448 380.381 217.423 379.311C217.372 378.241 217.725 377.719 218.354 376.996C218.606 376.706 218.682 376.215 218.758 375.838C218.808 375.491 219.035 375.173 219.362 375.202C219.916 375.231 220.52 375.115 221.124 374.768C223.037 373.697 224.045 371.875 225.203 369.936C225.832 368.836 226.537 367.823 227.368 366.695C227.418 366.608 227.443 366.522 227.443 366.435C227.544 365.22 227.543 364.004 227.065 362.846C226.31 361.11 226.159 359.172 227.317 357.667C227.997 356.8 228.878 356.742 229.785 356.625C230.792 356.452 231.673 356.047 231.925 354.802C232.05 354.368 232.202 353.992 232.454 353.645C232.504 353.558 232.529 353.471 232.529 353.384C232.529 353.24 232.453 353.124 232.352 353.038C232.202 352.893 231.975 352.806 231.799 352.777C230.968 352.661 230.414 352.314 230.036 351.706C229.331 350.548 229.004 348.899 229.407 347.568C229.684 346.758 230.389 346.614 230.842 347.307C231.521 348.377 232.302 349.188 233.51 349.449C233.787 349.478 234.114 349.39 234.341 349.275C234.768 348.985 235.221 348.667 235.7 348.378C236.078 348.147 236.23 347.8 236.456 347.423V347.427C236.859 346.675 237.866 346.502 238.546 346.473C239.553 346.415 240.384 346.329 241.014 346.212C241.316 346.183 241.618 346.009 241.995 345.75C242.457 345.378 243.046 345.128 243.627 345V385.833Z" fill="#5C5C5C"/>
<path d="M243.627 340.832C242.986 339.976 242.592 339.003 242.423 337.9C242.423 337.842 242.373 337.813 242.348 337.813H242.322C241.793 338.247 241.189 338.508 240.66 338.883C239.855 339.491 239.024 340.099 238.193 340.735C237.816 340.995 237.387 341.197 236.984 341.284C236.783 341.341 236.607 341.371 236.456 341.457C236.431 341.457 236.38 341.515 236.355 341.544C235.147 343.396 233.913 344.871 231.773 344.987C229.608 345.102 227.468 344.467 225.404 344.033C224.422 343.801 223.037 343.685 221.199 343.598C219.361 343.482 218.304 342.875 217.901 340.676C217.725 339.605 217.599 338.65 217.574 337.753C217.499 336.538 217.448 335.381 217.423 334.311C217.372 333.241 217.725 332.719 218.354 331.995C218.606 331.706 218.682 331.214 218.758 330.838C218.808 330.491 219.035 330.173 219.362 330.202C219.916 330.23 220.52 330.115 221.124 329.768C223.037 328.697 224.045 326.875 225.203 324.936C225.832 323.836 226.537 322.823 227.368 321.695C227.418 321.608 227.443 321.522 227.443 321.435C227.544 320.22 227.543 319.004 227.065 317.846C226.31 316.11 226.159 314.171 227.317 312.667C227.997 311.799 228.878 311.742 229.785 311.625C230.792 311.452 231.673 311.047 231.925 309.802C232.05 309.368 232.202 308.992 232.454 308.645C232.504 308.558 232.529 308.471 232.529 308.384C232.529 308.24 232.453 308.124 232.352 308.037C232.202 307.893 231.975 307.806 231.799 307.777C230.968 307.661 230.414 307.313 230.036 306.705C229.331 305.548 229.004 303.898 229.407 302.568C229.684 301.758 230.389 301.614 230.842 302.307C231.521 303.377 232.302 304.188 233.51 304.449C233.787 304.478 234.114 304.39 234.341 304.275C234.768 303.985 235.221 303.667 235.7 303.378C236.078 303.147 236.23 302.799 236.456 302.423V302.427C236.859 301.675 237.866 301.502 238.546 301.473C239.553 301.415 240.384 301.328 241.014 301.212C241.316 301.183 241.618 301.009 241.995 300.749C242.457 300.378 243.046 300.128 243.627 300V340.832Z" fill="#5C5C5C"/>
<path d="M243.627 295.832C242.986 294.976 242.592 294.003 242.423 292.9C242.423 292.842 242.373 292.813 242.348 292.813H242.322C241.793 293.247 241.189 293.507 240.66 293.883C239.855 294.491 239.024 295.098 238.193 295.735C237.816 295.995 237.387 296.197 236.984 296.283C236.783 296.341 236.607 296.371 236.456 296.457C236.431 296.457 236.38 296.515 236.355 296.544C235.147 298.395 233.913 299.871 231.773 299.987C229.608 300.102 227.468 299.466 225.404 299.032C224.422 298.801 223.037 298.685 221.199 298.598C219.361 298.482 218.304 297.875 217.901 295.676C217.725 294.605 217.599 293.65 217.574 292.753C217.499 291.538 217.448 290.381 217.423 289.311C217.372 288.241 217.725 287.719 218.354 286.995C218.606 286.706 218.682 286.214 218.758 285.838C218.808 285.491 219.035 285.173 219.362 285.201C219.916 285.23 220.52 285.115 221.124 284.768C223.037 283.697 224.045 281.875 225.203 279.936C225.832 278.836 226.537 277.823 227.368 276.695C227.418 276.608 227.443 276.522 227.443 276.435C227.544 275.22 227.543 274.003 227.065 272.846C226.31 271.11 226.159 269.171 227.317 267.667C227.997 266.799 228.878 266.741 229.785 266.625C230.792 266.452 231.673 266.047 231.925 264.802C232.05 264.368 232.202 263.992 232.454 263.645C232.504 263.558 232.529 263.471 232.529 263.384C232.529 263.24 232.453 263.124 232.352 263.037C232.202 262.893 231.975 262.806 231.799 262.777C230.968 262.661 230.414 262.313 230.036 261.705C229.331 260.548 229.004 258.898 229.407 257.568C229.684 256.758 230.389 256.613 230.842 257.307C231.521 258.377 232.302 259.188 233.51 259.448C233.787 259.477 234.114 259.39 234.341 259.275C234.768 258.985 235.221 258.667 235.7 258.378C236.078 258.146 236.23 257.799 236.456 257.423V257.427C236.859 256.675 237.866 256.502 238.546 256.473C239.553 256.415 240.384 256.328 241.014 256.212C241.316 256.183 241.618 256.009 241.995 255.749C242.457 255.378 243.046 255.128 243.627 255V295.832Z" fill="#5C5C5C"/>
<path d="M243.627 250.832C242.986 249.976 242.592 249.003 242.423 247.9C242.423 247.842 242.373 247.813 242.348 247.813H242.322C241.793 248.247 241.189 248.507 240.66 248.883C239.855 249.491 239.024 250.098 238.193 250.734C237.816 250.995 237.387 251.197 236.984 251.283C236.783 251.341 236.607 251.371 236.456 251.457C236.431 251.457 236.38 251.515 236.355 251.544C235.147 253.395 233.913 254.871 231.773 254.986C229.608 255.102 227.468 254.466 225.404 254.032C224.422 253.801 223.037 253.684 221.199 253.598C219.361 253.482 218.304 252.874 217.901 250.676C217.725 249.605 217.599 248.65 217.574 247.753C217.499 246.538 217.448 245.381 217.423 244.311C217.372 243.24 217.725 242.719 218.354 241.995C218.606 241.706 218.682 241.214 218.758 240.838C218.808 240.491 219.035 240.172 219.362 240.201C219.916 240.23 220.52 240.115 221.124 239.768C223.037 238.697 224.045 236.874 225.203 234.936C225.832 233.836 226.537 232.823 227.368 231.694C227.418 231.608 227.443 231.522 227.443 231.435C227.544 230.219 227.543 229.003 227.065 227.846C226.31 226.11 226.159 224.171 227.317 222.667C227.997 221.799 228.878 221.741 229.785 221.625C230.792 221.452 231.673 221.047 231.925 219.802C232.05 219.368 232.202 218.992 232.454 218.645C232.504 218.558 232.529 218.471 232.529 218.384C232.529 218.24 232.453 218.124 232.352 218.037C232.202 217.893 231.975 217.806 231.799 217.776C230.968 217.661 230.414 217.313 230.036 216.705C229.331 215.548 229.004 213.898 229.407 212.568C229.684 211.758 230.389 211.613 230.842 212.307C231.521 213.377 232.302 214.188 233.51 214.448C233.787 214.477 234.114 214.39 234.341 214.275C234.768 213.985 235.221 213.667 235.7 213.378C236.078 213.146 236.23 212.799 236.456 212.423V212.427C236.859 211.675 237.866 211.502 238.546 211.473C239.553 211.415 240.384 211.328 241.014 211.212C241.316 211.183 241.618 211.009 241.995 210.749C242.457 210.377 243.046 210.128 243.627 210V250.832Z" fill="#5C5C5C"/>
<path d="M243.627 205.832C242.986 204.976 242.592 204.002 242.423 202.899C242.423 202.842 242.373 202.813 242.348 202.812H242.322C241.793 203.246 241.189 203.507 240.66 203.883C239.855 204.491 239.024 205.098 238.193 205.734C237.816 205.995 237.387 206.197 236.984 206.283C236.783 206.341 236.607 206.37 236.456 206.457C236.431 206.457 236.38 206.515 236.355 206.544C235.147 208.395 233.913 209.871 231.773 209.986C229.608 210.102 227.468 209.466 225.404 209.032C224.422 208.801 223.037 208.684 221.199 208.598C219.361 208.482 218.304 207.874 217.901 205.676C217.725 204.605 217.599 203.65 217.574 202.753C217.499 201.538 217.448 200.381 217.423 199.311C217.372 198.24 217.725 197.719 218.354 196.995C218.606 196.706 218.682 196.214 218.758 195.838C218.808 195.491 219.035 195.172 219.362 195.201C219.916 195.23 220.52 195.115 221.124 194.768C223.037 193.697 224.045 191.874 225.203 189.936C225.832 188.836 226.537 187.823 227.368 186.694C227.418 186.608 227.443 186.522 227.443 186.435C227.544 185.219 227.543 184.003 227.065 182.846C226.31 181.11 226.159 179.171 227.317 177.667C227.997 176.799 228.878 176.741 229.785 176.625C230.792 176.452 231.673 176.046 231.925 174.802C232.05 174.368 232.202 173.992 232.454 173.645C232.504 173.558 232.529 173.471 232.529 173.384C232.529 173.239 232.453 173.124 232.352 173.037C232.202 172.893 231.975 172.806 231.799 172.776C230.968 172.661 230.414 172.313 230.036 171.705C229.331 170.548 229.004 168.898 229.407 167.567C229.684 166.758 230.389 166.613 230.842 167.307C231.521 168.377 232.302 169.188 233.51 169.448C233.787 169.477 234.114 169.39 234.341 169.274C234.768 168.985 235.221 168.667 235.7 168.378C236.078 168.146 236.23 167.799 236.456 167.423V167.427C236.859 166.674 237.866 166.502 238.546 166.473C239.553 166.415 240.384 166.328 241.014 166.212C241.316 166.183 241.618 166.009 241.995 165.749C242.457 165.377 243.046 165.128 243.627 165V205.832Z" fill="#5C5C5C"/>
<path d="M282.836 430.833C282.195 429.976 281.801 429.003 281.632 427.9C281.632 427.843 281.582 427.813 281.556 427.813H281.531C281.002 428.247 280.398 428.508 279.869 428.883C279.064 429.491 278.233 430.099 277.402 430.735C277.025 430.996 276.596 431.197 276.193 431.284C275.992 431.342 275.816 431.371 275.665 431.458C275.64 431.458 275.589 431.516 275.564 431.545C274.356 433.396 273.122 434.871 270.982 434.987C268.817 435.102 266.677 434.467 264.613 434.033C263.631 433.802 262.246 433.685 260.408 433.598C258.57 433.483 257.513 432.875 257.11 430.676C256.934 429.606 256.808 428.65 256.783 427.754C256.708 426.538 256.657 425.381 256.632 424.311C256.581 423.241 256.934 422.719 257.563 421.996C257.815 421.706 257.891 421.215 257.967 420.839C258.017 420.491 258.244 420.173 258.571 420.202C259.125 420.231 259.729 420.115 260.333 419.768C262.246 418.697 263.254 416.875 264.412 414.936C265.041 413.837 265.746 412.823 266.577 411.695C266.627 411.609 266.652 411.522 266.652 411.435C266.753 410.22 266.752 409.004 266.274 407.846C265.519 406.111 265.368 404.172 266.526 402.668C267.206 401.8 268.087 401.742 268.994 401.626C270.001 401.452 270.882 401.047 271.134 399.802C271.259 399.369 271.411 398.992 271.663 398.645C271.713 398.559 271.738 398.472 271.738 398.384C271.738 398.24 271.662 398.124 271.561 398.038C271.411 397.893 271.184 397.807 271.008 397.777C270.177 397.661 269.623 397.314 269.245 396.706C268.54 395.548 268.213 393.899 268.616 392.568C268.893 391.758 269.598 391.614 270.051 392.307C270.73 393.377 271.511 394.188 272.719 394.449C272.996 394.478 273.323 394.391 273.55 394.275C273.977 393.986 274.43 393.667 274.909 393.379C275.287 393.147 275.439 392.8 275.665 392.423V392.427C276.068 391.675 277.075 391.502 277.755 391.473C278.762 391.415 279.593 391.329 280.223 391.213C280.525 391.184 280.827 391.009 281.204 390.75C281.666 390.378 282.255 390.129 282.836 390.001V430.833Z" fill="#5C5C5C"/>
<path d="M282.836 385.833C282.195 384.976 281.801 384.003 281.632 382.9C281.632 382.842 281.582 382.813 281.556 382.813H281.531C281.002 383.247 280.398 383.508 279.869 383.883C279.064 384.491 278.233 385.099 277.402 385.735C277.025 385.995 276.596 386.197 276.193 386.284C275.992 386.341 275.816 386.371 275.665 386.458C275.64 386.458 275.589 386.516 275.564 386.544C274.356 388.396 273.122 389.871 270.982 389.987C268.817 390.102 266.677 389.467 264.613 389.033C263.631 388.802 262.246 388.685 260.408 388.598C258.57 388.483 257.513 387.875 257.11 385.676C256.934 384.605 256.808 383.65 256.783 382.753C256.708 381.538 256.657 380.381 256.632 379.311C256.581 378.241 256.934 377.719 257.563 376.996C257.815 376.706 257.891 376.215 257.967 375.838C258.017 375.491 258.244 375.173 258.571 375.202C259.125 375.231 259.729 375.115 260.333 374.768C262.246 373.697 263.254 371.875 264.412 369.936C265.041 368.836 265.746 367.823 266.577 366.695C266.627 366.608 266.652 366.522 266.652 366.435C266.753 365.22 266.752 364.004 266.274 362.846C265.519 361.11 265.368 359.172 266.526 357.667C267.206 356.8 268.087 356.742 268.994 356.625C270.001 356.452 270.882 356.047 271.134 354.802C271.259 354.368 271.411 353.992 271.663 353.645C271.713 353.558 271.738 353.471 271.738 353.384C271.738 353.24 271.662 353.124 271.561 353.038C271.411 352.893 271.184 352.806 271.008 352.777C270.177 352.661 269.623 352.314 269.245 351.706C268.54 350.548 268.213 348.899 268.616 347.568C268.893 346.758 269.598 346.614 270.051 347.307C270.73 348.377 271.511 349.188 272.719 349.449C272.996 349.478 273.323 349.39 273.55 349.275C273.977 348.985 274.43 348.667 274.909 348.378C275.287 348.147 275.439 347.8 275.665 347.423V347.427C276.068 346.675 277.075 346.502 277.755 346.473C278.762 346.415 279.593 346.329 280.223 346.212C280.525 346.183 280.827 346.009 281.204 345.75C281.666 345.378 282.255 345.128 282.836 345V385.833Z" fill="#5C5C5C"/>
<path d="M282.836 340.832C282.195 339.976 281.801 339.003 281.632 337.9C281.632 337.842 281.582 337.813 281.556 337.813H281.531C281.002 338.247 280.398 338.508 279.869 338.883C279.064 339.491 278.233 340.099 277.402 340.735C277.025 340.995 276.596 341.197 276.193 341.284C275.992 341.341 275.816 341.371 275.665 341.457C275.64 341.457 275.589 341.515 275.564 341.544C274.356 343.396 273.122 344.871 270.982 344.987C268.817 345.102 266.677 344.467 264.613 344.033C263.631 343.801 262.246 343.685 260.408 343.598C258.57 343.482 257.513 342.875 257.11 340.676C256.934 339.605 256.808 338.65 256.783 337.753C256.708 336.538 256.657 335.381 256.632 334.311C256.581 333.241 256.934 332.719 257.563 331.995C257.815 331.706 257.891 331.214 257.967 330.838C258.017 330.491 258.244 330.173 258.571 330.202C259.125 330.23 259.729 330.115 260.333 329.768C262.246 328.697 263.254 326.875 264.412 324.936C265.041 323.836 265.746 322.823 266.577 321.695C266.627 321.608 266.652 321.522 266.652 321.435C266.753 320.22 266.752 319.004 266.274 317.846C265.519 316.11 265.368 314.171 266.526 312.667C267.206 311.799 268.087 311.742 268.994 311.625C270.001 311.452 270.882 311.047 271.134 309.802C271.259 309.368 271.411 308.992 271.663 308.645C271.713 308.558 271.738 308.471 271.738 308.384C271.738 308.24 271.662 308.124 271.561 308.037C271.411 307.893 271.184 307.806 271.008 307.777C270.177 307.661 269.623 307.313 269.245 306.705C268.54 305.548 268.213 303.898 268.616 302.568C268.893 301.758 269.598 301.614 270.051 302.307C270.73 303.377 271.511 304.188 272.719 304.449C272.996 304.478 273.323 304.39 273.55 304.275C273.977 303.985 274.43 303.667 274.909 303.378C275.287 303.147 275.439 302.799 275.665 302.423V302.427C276.068 301.675 277.075 301.502 277.755 301.473C278.762 301.415 279.593 301.328 280.223 301.212C280.525 301.183 280.827 301.009 281.204 300.749C281.666 300.378 282.255 300.128 282.836 300V340.832Z" fill="#5C5C5C"/>
<path d="M282.836 295.832C282.195 294.976 281.801 294.003 281.632 292.9C281.632 292.842 281.582 292.813 281.556 292.813H281.531C281.002 293.247 280.398 293.507 279.869 293.883C279.064 294.491 278.233 295.098 277.402 295.735C277.025 295.995 276.596 296.197 276.193 296.283C275.992 296.341 275.816 296.371 275.665 296.457C275.64 296.457 275.589 296.515 275.564 296.544C274.356 298.395 273.122 299.871 270.982 299.987C268.817 300.102 266.677 299.466 264.613 299.032C263.631 298.801 262.246 298.685 260.408 298.598C258.57 298.482 257.513 297.875 257.11 295.676C256.934 294.605 256.808 293.65 256.783 292.753C256.708 291.538 256.657 290.381 256.632 289.311C256.581 288.241 256.934 287.719 257.563 286.995C257.815 286.706 257.891 286.214 257.967 285.838C258.017 285.491 258.244 285.173 258.571 285.201C259.125 285.23 259.729 285.115 260.333 284.768C262.246 283.697 263.254 281.875 264.412 279.936C265.041 278.836 265.746 277.823 266.577 276.695C266.627 276.608 266.652 276.522 266.652 276.435C266.753 275.22 266.752 274.003 266.274 272.846C265.519 271.11 265.368 269.171 266.526 267.667C267.206 266.799 268.087 266.741 268.994 266.625C270.001 266.452 270.882 266.047 271.134 264.802C271.259 264.368 271.411 263.992 271.663 263.645C271.713 263.558 271.738 263.471 271.738 263.384C271.738 263.24 271.662 263.124 271.561 263.037C271.411 262.893 271.184 262.806 271.008 262.777C270.177 262.661 269.623 262.313 269.245 261.705C268.54 260.548 268.213 258.898 268.616 257.568C268.893 256.758 269.598 256.613 270.051 257.307C270.73 258.377 271.511 259.188 272.719 259.448C272.996 259.477 273.323 259.39 273.55 259.275C273.977 258.985 274.43 258.667 274.909 258.378C275.287 258.146 275.439 257.799 275.665 257.423V257.427C276.068 256.675 277.075 256.502 277.755 256.473C278.762 256.415 279.593 256.328 280.223 256.212C280.525 256.183 280.827 256.009 281.204 255.749C281.666 255.378 282.255 255.128 282.836 255V295.832Z" fill="#5C5C5C"/>
<path d="M282.836 250.832C282.195 249.976 281.801 249.003 281.632 247.9C281.632 247.842 281.582 247.813 281.556 247.813H281.531C281.002 248.247 280.398 248.507 279.869 248.883C279.064 249.491 278.233 250.098 277.402 250.734C277.025 250.995 276.596 251.197 276.193 251.283C275.992 251.341 275.816 251.371 275.665 251.457C275.64 251.457 275.589 251.515 275.564 251.544C274.356 253.395 273.122 254.871 270.982 254.986C268.817 255.102 266.677 254.466 264.613 254.032C263.631 253.801 262.246 253.684 260.408 253.598C258.57 253.482 257.513 252.874 257.11 250.676C256.934 249.605 256.808 248.65 256.783 247.753C256.708 246.538 256.657 245.381 256.632 244.311C256.581 243.24 256.934 242.719 257.563 241.995C257.815 241.706 257.891 241.214 257.967 240.838C258.017 240.491 258.244 240.172 258.571 240.201C259.125 240.23 259.729 240.115 260.333 239.768C262.246 238.697 263.254 236.874 264.412 234.936C265.041 233.836 265.746 232.823 266.577 231.694C266.627 231.608 266.652 231.522 266.652 231.435C266.753 230.219 266.752 229.003 266.274 227.846C265.519 226.11 265.368 224.171 266.526 222.667C267.206 221.799 268.087 221.741 268.994 221.625C270.001 221.452 270.882 221.047 271.134 219.802C271.259 219.368 271.411 218.992 271.663 218.645C271.713 218.558 271.738 218.471 271.738 218.384C271.738 218.24 271.662 218.124 271.561 218.037C271.411 217.893 271.184 217.806 271.008 217.776C270.177 217.661 269.623 217.313 269.245 216.705C268.54 215.548 268.213 213.898 268.616 212.568C268.893 211.758 269.598 211.613 270.051 212.307C270.73 213.377 271.511 214.188 272.719 214.448C272.996 214.477 273.323 214.39 273.55 214.275C273.977 213.985 274.43 213.667 274.909 213.378C275.287 213.146 275.439 212.799 275.665 212.423V212.427C276.068 211.675 277.075 211.502 277.755 211.473C278.762 211.415 279.593 211.328 280.223 211.212C280.525 211.183 280.827 211.009 281.204 210.749C281.666 210.377 282.255 210.128 282.836 210V250.832Z" fill="#5C5C5C"/>
<path d="M282.836 205.832C282.195 204.976 281.801 204.002 281.632 202.899C281.632 202.842 281.582 202.813 281.556 202.812H281.531C281.002 203.246 280.398 203.507 279.869 203.883C279.064 204.491 278.233 205.098 277.402 205.734C277.025 205.995 276.596 206.197 276.193 206.283C275.992 206.341 275.816 206.37 275.665 206.457C275.64 206.457 275.589 206.515 275.564 206.544C274.356 208.395 273.122 209.871 270.982 209.986C268.817 210.102 266.677 209.466 264.613 209.032C263.631 208.801 262.246 208.684 260.408 208.598C258.57 208.482 257.513 207.874 257.11 205.676C256.934 204.605 256.808 203.65 256.783 202.753C256.708 201.538 256.657 200.381 256.632 199.311C256.581 198.24 256.934 197.719 257.563 196.995C257.815 196.706 257.891 196.214 257.967 195.838C258.017 195.491 258.244 195.172 258.571 195.201C259.125 195.23 259.729 195.115 260.333 194.768C262.246 193.697 263.254 191.874 264.412 189.936C265.041 188.836 265.746 187.823 266.577 186.694C266.627 186.608 266.652 186.522 266.652 186.435C266.753 185.219 266.752 184.003 266.274 182.846C265.519 181.11 265.368 179.171 266.526 177.667C267.206 176.799 268.087 176.741 268.994 176.625C270.001 176.452 270.882 176.046 271.134 174.802C271.259 174.368 271.411 173.992 271.663 173.645C271.713 173.558 271.738 173.471 271.738 173.384C271.738 173.239 271.662 173.124 271.561 173.037C271.411 172.893 271.184 172.806 271.008 172.776C270.177 172.661 269.623 172.313 269.245 171.705C268.54 170.548 268.213 168.898 268.616 167.567C268.893 166.758 269.598 166.613 270.051 167.307C270.73 168.377 271.511 169.188 272.719 169.448C272.996 169.477 273.323 169.39 273.55 169.274C273.977 168.985 274.43 168.667 274.909 168.378C275.287 168.146 275.439 167.799 275.665 167.423V167.427C276.068 166.674 277.075 166.502 277.755 166.473C278.762 166.415 279.593 166.328 280.223 166.212C280.525 166.183 280.827 166.009 281.204 165.749C281.666 165.377 282.255 165.128 282.836 165V205.832Z" fill="#5C5C5C"/>
<path d="M322.045 430.833C321.404 429.976 321.01 429.003 320.841 427.9C320.841 427.843 320.791 427.813 320.765 427.813H320.74C320.211 428.247 319.607 428.508 319.078 428.883C318.273 429.491 317.442 430.099 316.611 430.735C316.234 430.996 315.805 431.197 315.402 431.284C315.201 431.342 315.025 431.371 314.874 431.458C314.849 431.458 314.798 431.516 314.773 431.545C313.565 433.396 312.331 434.871 310.191 434.987C308.026 435.102 305.886 434.467 303.822 434.033C302.84 433.802 301.455 433.685 299.617 433.598C297.779 433.483 296.722 432.875 296.319 430.676C296.143 429.606 296.017 428.65 295.992 427.754C295.917 426.538 295.866 425.381 295.841 424.311C295.79 423.241 296.143 422.719 296.772 421.996C297.024 421.706 297.1 421.215 297.176 420.839C297.226 420.491 297.453 420.173 297.78 420.202C298.334 420.231 298.938 420.115 299.542 419.768C301.455 418.697 302.463 416.875 303.621 414.936C304.25 413.837 304.955 412.823 305.786 411.695C305.836 411.609 305.861 411.522 305.861 411.435C305.962 410.22 305.961 409.004 305.483 407.846C304.728 406.111 304.577 404.172 305.735 402.668C306.415 401.8 307.296 401.742 308.203 401.626C309.21 401.452 310.091 401.047 310.343 399.802C310.468 399.369 310.62 398.992 310.872 398.645C310.922 398.559 310.947 398.472 310.947 398.384C310.947 398.24 310.871 398.124 310.77 398.038C310.62 397.893 310.393 397.807 310.217 397.777C309.386 397.661 308.832 397.314 308.454 396.706C307.749 395.548 307.422 393.899 307.825 392.568C308.102 391.758 308.807 391.614 309.26 392.307C309.939 393.377 310.72 394.188 311.928 394.449C312.205 394.478 312.532 394.391 312.759 394.275C313.186 393.986 313.639 393.667 314.118 393.379C314.496 393.147 314.648 392.8 314.874 392.423V392.427C315.277 391.675 316.284 391.502 316.964 391.473C317.971 391.415 318.802 391.329 319.431 391.213C319.734 391.184 320.036 391.009 320.413 390.75C320.875 390.378 321.464 390.129 322.045 390.001V430.833Z" fill="#5C5C5C"/>
<path d="M322.045 385.833C321.404 384.976 321.01 384.003 320.841 382.9C320.841 382.842 320.791 382.813 320.765 382.813H320.74C320.211 383.247 319.607 383.508 319.078 383.883C318.273 384.491 317.442 385.099 316.611 385.735C316.234 385.995 315.805 386.197 315.402 386.284C315.201 386.341 315.025 386.371 314.874 386.458C314.849 386.458 314.798 386.516 314.773 386.544C313.565 388.396 312.331 389.871 310.191 389.987C308.026 390.102 305.886 389.467 303.822 389.033C302.84 388.802 301.455 388.685 299.617 388.598C297.779 388.483 296.722 387.875 296.319 385.676C296.143 384.605 296.017 383.65 295.992 382.753C295.917 381.538 295.866 380.381 295.841 379.311C295.79 378.241 296.143 377.719 296.772 376.996C297.024 376.706 297.1 376.215 297.176 375.838C297.226 375.491 297.453 375.173 297.78 375.202C298.334 375.231 298.938 375.115 299.542 374.768C301.455 373.697 302.463 371.875 303.621 369.936C304.25 368.836 304.955 367.823 305.786 366.695C305.836 366.608 305.861 366.522 305.861 366.435C305.962 365.22 305.961 364.004 305.483 362.846C304.728 361.11 304.577 359.172 305.735 357.667C306.415 356.8 307.296 356.742 308.203 356.625C309.21 356.452 310.091 356.047 310.343 354.802C310.468 354.368 310.62 353.992 310.872 353.645C310.922 353.558 310.947 353.471 310.947 353.384C310.947 353.24 310.871 353.124 310.77 353.038C310.62 352.893 310.393 352.806 310.217 352.777C309.386 352.661 308.832 352.314 308.454 351.706C307.749 350.548 307.422 348.899 307.825 347.568C308.102 346.758 308.807 346.614 309.26 347.307C309.939 348.377 310.72 349.188 311.928 349.449C312.205 349.478 312.532 349.39 312.759 349.275C313.186 348.985 313.639 348.667 314.118 348.378C314.496 348.147 314.648 347.8 314.874 347.423V347.427C315.277 346.675 316.284 346.502 316.964 346.473C317.971 346.415 318.802 346.329 319.431 346.212C319.734 346.183 320.036 346.009 320.413 345.75C320.875 345.378 321.464 345.128 322.045 345V385.833Z" fill="#5C5C5C"/>
<path d="M322.045 340.832C321.404 339.976 321.01 339.003 320.841 337.9C320.841 337.842 320.791 337.813 320.765 337.813H320.74C320.211 338.247 319.607 338.508 319.078 338.883C318.273 339.491 317.442 340.099 316.611 340.735C316.234 340.995 315.805 341.197 315.402 341.284C315.201 341.341 315.025 341.371 314.874 341.457C314.849 341.457 314.798 341.515 314.773 341.544C313.565 343.396 312.331 344.871 310.191 344.987C308.026 345.102 305.886 344.467 303.822 344.033C302.84 343.801 301.455 343.685 299.617 343.598C297.779 343.482 296.722 342.875 296.319 340.676C296.143 339.605 296.017 338.65 295.992 337.753C295.917 336.538 295.866 335.381 295.841 334.311C295.79 333.241 296.143 332.719 296.772 331.995C297.024 331.706 297.1 331.214 297.176 330.838C297.226 330.491 297.453 330.173 297.78 330.202C298.334 330.23 298.938 330.115 299.542 329.768C301.455 328.697 302.463 326.875 303.621 324.936C304.25 323.836 304.955 322.823 305.786 321.695C305.836 321.608 305.861 321.522 305.861 321.435C305.962 320.22 305.961 319.004 305.483 317.846C304.728 316.11 304.577 314.171 305.735 312.667C306.415 311.799 307.296 311.742 308.203 311.625C309.21 311.452 310.091 311.047 310.343 309.802C310.468 309.368 310.62 308.992 310.872 308.645C310.922 308.558 310.947 308.471 310.947 308.384C310.947 308.24 310.871 308.124 310.77 308.037C310.62 307.893 310.393 307.806 310.217 307.777C309.386 307.661 308.832 307.313 308.454 306.705C307.749 305.548 307.422 303.898 307.825 302.568C308.102 301.758 308.807 301.614 309.26 302.307C309.939 303.377 310.72 304.188 311.928 304.449C312.205 304.478 312.532 304.39 312.759 304.275C313.186 303.985 313.639 303.667 314.118 303.378C314.496 303.147 314.648 302.799 314.874 302.423V302.427C315.277 301.675 316.284 301.502 316.964 301.473C317.971 301.415 318.802 301.328 319.431 301.212C319.734 301.183 320.036 301.009 320.413 300.749C320.875 300.378 321.464 300.128 322.045 300V340.832Z" fill="#5C5C5C"/>
<path d="M322.045 295.832C321.404 294.976 321.01 294.003 320.841 292.9C320.841 292.842 320.791 292.813 320.765 292.813H320.74C320.211 293.247 319.607 293.507 319.078 293.883C318.273 294.491 317.442 295.098 316.611 295.735C316.234 295.995 315.805 296.197 315.402 296.283C315.201 296.341 315.025 296.371 314.874 296.457C314.849 296.457 314.798 296.515 314.773 296.544C313.565 298.395 312.331 299.871 310.191 299.987C308.026 300.102 305.886 299.466 303.822 299.032C302.84 298.801 301.455 298.685 299.617 298.598C297.779 298.482 296.722 297.875 296.319 295.676C296.143 294.605 296.017 293.65 295.992 292.753C295.917 291.538 295.866 290.381 295.841 289.311C295.79 288.241 296.143 287.719 296.772 286.995C297.024 286.706 297.1 286.214 297.176 285.838C297.226 285.491 297.453 285.173 297.78 285.201C298.334 285.23 298.938 285.115 299.542 284.768C301.455 283.697 302.463 281.875 303.621 279.936C304.25 278.836 304.955 277.823 305.786 276.695C305.836 276.608 305.861 276.522 305.861 276.435C305.962 275.22 305.961 274.003 305.483 272.846C304.728 271.11 304.577 269.171 305.735 267.667C306.415 266.799 307.296 266.741 308.203 266.625C309.21 266.452 310.091 266.047 310.343 264.802C310.468 264.368 310.62 263.992 310.872 263.645C310.922 263.558 310.947 263.471 310.947 263.384C310.947 263.24 310.871 263.124 310.77 263.037C310.62 262.893 310.393 262.806 310.217 262.777C309.386 262.661 308.832 262.313 308.454 261.705C307.749 260.548 307.422 258.898 307.825 257.568C308.102 256.758 308.807 256.613 309.26 257.307C309.939 258.377 310.72 259.188 311.928 259.448C312.205 259.477 312.532 259.39 312.759 259.275C313.186 258.985 313.639 258.667 314.118 258.378C314.496 258.146 314.648 257.799 314.874 257.423V257.427C315.277 256.675 316.284 256.502 316.964 256.473C317.971 256.415 318.802 256.328 319.431 256.212C319.734 256.183 320.036 256.009 320.413 255.749C320.875 255.378 321.464 255.128 322.045 255V295.832Z" fill="#5C5C5C"/>
<path d="M322.045 250.832C321.404 249.976 321.01 249.003 320.841 247.9C320.841 247.842 320.791 247.813 320.765 247.813H320.74C320.211 248.247 319.607 248.507 319.078 248.883C318.273 249.491 317.442 250.098 316.611 250.734C316.234 250.995 315.805 251.197 315.402 251.283C315.201 251.341 315.025 251.371 314.874 251.457C314.849 251.457 314.798 251.515 314.773 251.544C313.565 253.395 312.331 254.871 310.191 254.986C308.026 255.102 305.886 254.466 303.822 254.032C302.84 253.801 301.455 253.684 299.617 253.598C297.779 253.482 296.722 252.874 296.319 250.676C296.143 249.605 296.017 248.65 295.992 247.753C295.917 246.538 295.866 245.381 295.841 244.311C295.79 243.24 296.143 242.719 296.772 241.995C297.024 241.706 297.1 241.214 297.176 240.838C297.226 240.491 297.453 240.172 297.78 240.201C298.334 240.23 298.938 240.115 299.542 239.768C301.455 238.697 302.463 236.874 303.621 234.936C304.25 233.836 304.955 232.823 305.786 231.694C305.836 231.608 305.861 231.522 305.861 231.435C305.962 230.219 305.961 229.003 305.483 227.846C304.728 226.11 304.577 224.171 305.735 222.667C306.415 221.799 307.296 221.741 308.203 221.625C309.21 221.452 310.091 221.047 310.343 219.802C310.468 219.368 310.62 218.992 310.872 218.645C310.922 218.558 310.947 218.471 310.947 218.384C310.947 218.24 310.871 218.124 310.77 218.037C310.62 217.893 310.393 217.806 310.217 217.776C309.386 217.661 308.832 217.313 308.454 216.705C307.749 215.548 307.422 213.898 307.825 212.568C308.102 211.758 308.807 211.613 309.26 212.307C309.939 213.377 310.72 214.188 311.928 214.448C312.205 214.477 312.532 214.39 312.759 214.275C313.186 213.985 313.639 213.667 314.118 213.378C314.496 213.146 314.648 212.799 314.874 212.423V212.427C315.277 211.675 316.284 211.502 316.964 211.473C317.971 211.415 318.802 211.328 319.431 211.212C319.734 211.183 320.036 211.009 320.413 210.749C320.875 210.377 321.464 210.128 322.045 210V250.832Z" fill="#5C5C5C"/>
<path d="M322.045 205.832C321.404 204.976 321.01 204.002 320.841 202.899C320.841 202.842 320.791 202.813 320.765 202.812H320.74C320.211 203.246 319.607 203.507 319.078 203.883C318.273 204.491 317.442 205.098 316.611 205.734C316.234 205.995 315.805 206.197 315.402 206.283C315.201 206.341 315.025 206.37 314.874 206.457C314.849 206.457 314.798 206.515 314.773 206.544C313.565 208.395 312.331 209.871 310.191 209.986C308.026 210.102 305.886 209.466 303.822 209.032C302.84 208.801 301.455 208.684 299.617 208.598C297.779 208.482 296.722 207.874 296.319 205.676C296.143 204.605 296.017 203.65 295.992 202.753C295.917 201.538 295.866 200.381 295.841 199.311C295.79 198.24 296.143 197.719 296.772 196.995C297.024 196.706 297.1 196.214 297.176 195.838C297.226 195.491 297.453 195.172 297.78 195.201C298.334 195.23 298.938 195.115 299.542 194.768C301.455 193.697 302.463 191.874 303.621 189.936C304.25 188.836 304.955 187.823 305.786 186.694C305.836 186.608 305.861 186.522 305.861 186.435C305.962 185.219 305.961 184.003 305.483 182.846C304.728 181.11 304.577 179.171 305.735 177.667C306.415 176.799 307.296 176.741 308.203 176.625C309.21 176.452 310.091 176.046 310.343 174.802C310.468 174.368 310.62 173.992 310.872 173.645C310.922 173.558 310.947 173.471 310.947 173.384C310.947 173.239 310.871 173.124 310.77 173.037C310.62 172.893 310.393 172.806 310.217 172.776C309.386 172.661 308.832 172.313 308.454 171.705C307.749 170.548 307.422 168.898 307.825 167.567C308.102 166.758 308.807 166.613 309.26 167.307C309.939 168.377 310.72 169.188 311.928 169.448C312.205 169.477 312.532 169.39 312.759 169.274C313.186 168.985 313.639 168.667 314.118 168.378C314.496 168.146 314.648 167.799 314.874 167.423V167.427C315.277 166.674 316.284 166.502 316.964 166.473C317.971 166.415 318.802 166.328 319.431 166.212C319.734 166.183 320.036 166.009 320.413 165.749C320.875 165.377 321.464 165.128 322.045 165V205.832Z" fill="#5C5C5C"/>
<path d="M361.254 430.833C360.613 429.976 360.219 429.003 360.05 427.9C360.05 427.843 360 427.813 359.974 427.813H359.949C359.42 428.247 358.816 428.508 358.287 428.883C357.482 429.491 356.651 430.099 355.82 430.735C355.443 430.996 355.014 431.197 354.611 431.284C354.41 431.342 354.234 431.371 354.083 431.458C354.058 431.458 354.007 431.516 353.982 431.545C352.774 433.396 351.54 434.871 349.4 434.987C347.235 435.102 345.095 434.467 343.031 434.033C342.049 433.802 340.664 433.685 338.826 433.598C336.988 433.483 335.931 432.875 335.528 430.676C335.352 429.606 335.226 428.65 335.201 427.754C335.126 426.538 335.075 425.381 335.05 424.311C334.999 423.241 335.352 422.719 335.981 421.996C336.233 421.706 336.309 421.215 336.385 420.839C336.435 420.491 336.662 420.173 336.989 420.202C337.543 420.231 338.147 420.115 338.751 419.768C340.664 418.697 341.672 416.875 342.83 414.936C343.459 413.837 344.164 412.823 344.995 411.695C345.045 411.609 345.07 411.522 345.07 411.435C345.171 410.22 345.17 409.004 344.692 407.846C343.937 406.111 343.786 404.172 344.944 402.668C345.624 401.8 346.505 401.742 347.412 401.626C348.419 401.452 349.3 401.047 349.552 399.802C349.677 399.369 349.829 398.992 350.081 398.645C350.131 398.559 350.156 398.472 350.156 398.384C350.156 398.24 350.08 398.124 349.979 398.038C349.829 397.893 349.602 397.807 349.426 397.777C348.595 397.661 348.041 397.314 347.663 396.706C346.958 395.548 346.631 393.899 347.034 392.568C347.311 391.758 348.016 391.614 348.469 392.307C349.148 393.377 349.929 394.188 351.137 394.449C351.414 394.478 351.741 394.391 351.968 394.275C352.395 393.986 352.848 393.667 353.327 393.379C353.705 393.147 353.857 392.8 354.083 392.423V392.427C354.486 391.675 355.493 391.502 356.173 391.473C357.18 391.415 358.011 391.329 358.64 391.213C358.942 391.184 359.245 391.009 359.622 390.75C360.084 390.378 360.673 390.129 361.254 390.001V430.833Z" fill="#5C5C5C"/>
<path d="M361.254 385.833C360.613 384.976 360.219 384.003 360.05 382.9C360.05 382.842 360 382.813 359.974 382.813H359.949C359.42 383.247 358.816 383.508 358.287 383.883C357.482 384.491 356.651 385.099 355.82 385.735C355.443 385.995 355.014 386.197 354.611 386.284C354.41 386.341 354.234 386.371 354.083 386.458C354.058 386.458 354.007 386.516 353.982 386.544C352.774 388.396 351.54 389.871 349.4 389.987C347.235 390.102 345.095 389.467 343.031 389.033C342.049 388.802 340.664 388.685 338.826 388.598C336.988 388.483 335.931 387.875 335.528 385.676C335.352 384.605 335.226 383.65 335.201 382.753C335.126 381.538 335.075 380.381 335.05 379.311C334.999 378.241 335.352 377.719 335.981 376.996C336.233 376.706 336.309 376.215 336.385 375.838C336.435 375.491 336.662 375.173 336.989 375.202C337.543 375.231 338.147 375.115 338.751 374.768C340.664 373.697 341.672 371.875 342.83 369.936C343.459 368.836 344.164 367.823 344.995 366.695C345.045 366.608 345.07 366.522 345.07 366.435C345.171 365.22 345.17 364.004 344.692 362.846C343.937 361.11 343.786 359.172 344.944 357.667C345.624 356.8 346.505 356.742 347.412 356.625C348.419 356.452 349.3 356.047 349.552 354.802C349.677 354.368 349.829 353.992 350.081 353.645C350.131 353.558 350.156 353.471 350.156 353.384C350.156 353.24 350.08 353.124 349.979 353.038C349.829 352.893 349.602 352.806 349.426 352.777C348.595 352.661 348.041 352.314 347.663 351.706C346.958 350.548 346.631 348.899 347.034 347.568C347.311 346.758 348.016 346.614 348.469 347.307C349.148 348.377 349.929 349.188 351.137 349.449C351.414 349.478 351.741 349.39 351.968 349.275C352.395 348.985 352.848 348.667 353.327 348.378C353.705 348.147 353.857 347.8 354.083 347.423V347.427C354.486 346.675 355.493 346.502 356.173 346.473C357.18 346.415 358.011 346.329 358.64 346.212C358.942 346.183 359.245 346.009 359.622 345.75C360.084 345.378 360.673 345.128 361.254 345V385.833Z" fill="#5C5C5C"/>
<path d="M361.254 340.832C360.613 339.976 360.219 339.003 360.05 337.9C360.05 337.842 360 337.813 359.974 337.813H359.949C359.42 338.247 358.816 338.508 358.287 338.883C357.482 339.491 356.651 340.099 355.82 340.735C355.443 340.995 355.014 341.197 354.611 341.284C354.41 341.341 354.234 341.371 354.083 341.457C354.058 341.457 354.007 341.515 353.982 341.544C352.774 343.396 351.54 344.871 349.4 344.987C347.235 345.102 345.095 344.467 343.031 344.033C342.049 343.801 340.664 343.685 338.826 343.598C336.988 343.482 335.931 342.875 335.528 340.676C335.352 339.605 335.226 338.65 335.201 337.753C335.126 336.538 335.075 335.381 335.05 334.311C334.999 333.241 335.352 332.719 335.981 331.995C336.233 331.706 336.309 331.214 336.385 330.838C336.435 330.491 336.662 330.173 336.989 330.202C337.543 330.23 338.147 330.115 338.751 329.768C340.664 328.697 341.672 326.875 342.83 324.936C343.459 323.836 344.164 322.823 344.995 321.695C345.045 321.608 345.07 321.522 345.07 321.435C345.171 320.22 345.17 319.004 344.692 317.846C343.937 316.11 343.786 314.171 344.944 312.667C345.624 311.799 346.505 311.742 347.412 311.625C348.419 311.452 349.3 311.047 349.552 309.802C349.677 309.368 349.829 308.992 350.081 308.645C350.131 308.558 350.156 308.471 350.156 308.384C350.156 308.24 350.08 308.124 349.979 308.037C349.829 307.893 349.602 307.806 349.426 307.777C348.595 307.661 348.041 307.313 347.663 306.705C346.958 305.548 346.631 303.898 347.034 302.568C347.311 301.758 348.016 301.614 348.469 302.307C349.148 303.377 349.929 304.188 351.137 304.449C351.414 304.478 351.741 304.39 351.968 304.275C352.395 303.985 352.848 303.667 353.327 303.378C353.705 303.147 353.857 302.799 354.083 302.423V302.427C354.486 301.675 355.493 301.502 356.173 301.473C357.18 301.415 358.011 301.328 358.64 301.212C358.942 301.183 359.245 301.009 359.622 300.749C360.084 300.378 360.673 300.128 361.254 300V340.832Z" fill="#5C5C5C"/>
<path d="M361.254 295.832C360.613 294.976 360.219 294.003 360.05 292.9C360.05 292.842 360 292.813 359.974 292.813H359.949C359.42 293.247 358.816 293.507 358.287 293.883C357.482 294.491 356.651 295.098 355.82 295.735C355.443 295.995 355.014 296.197 354.611 296.283C354.41 296.341 354.234 296.371 354.083 296.457C354.058 296.457 354.007 296.515 353.982 296.544C352.774 298.395 351.54 299.871 349.4 299.987C347.235 300.102 345.095 299.466 343.031 299.032C342.049 298.801 340.664 298.685 338.826 298.598C336.988 298.482 335.931 297.875 335.528 295.676C335.352 294.605 335.226 293.65 335.201 292.753C335.126 291.538 335.075 290.381 335.05 289.311C334.999 288.241 335.352 287.719 335.981 286.995C336.233 286.706 336.309 286.214 336.385 285.838C336.435 285.491 336.662 285.173 336.989 285.201C337.543 285.23 338.147 285.115 338.751 284.768C340.664 283.697 341.672 281.875 342.83 279.936C343.459 278.836 344.164 277.823 344.995 276.695C345.045 276.608 345.07 276.522 345.07 276.435C345.171 275.22 345.17 274.003 344.692 272.846C343.937 271.11 343.786 269.171 344.944 267.667C345.624 266.799 346.505 266.741 347.412 266.625C348.419 266.452 349.3 266.047 349.552 264.802C349.677 264.368 349.829 263.992 350.081 263.645C350.131 263.558 350.156 263.471 350.156 263.384C350.156 263.24 350.08 263.124 349.979 263.037C349.829 262.893 349.602 262.806 349.426 262.777C348.595 262.661 348.041 262.313 347.663 261.705C346.958 260.548 346.631 258.898 347.034 257.568C347.311 256.758 348.016 256.613 348.469 257.307C349.148 258.377 349.929 259.188 351.137 259.448C351.414 259.477 351.741 259.39 351.968 259.275C352.395 258.985 352.848 258.667 353.327 258.378C353.705 258.146 353.857 257.799 354.083 257.423V257.427C354.486 256.675 355.493 256.502 356.173 256.473C357.18 256.415 358.011 256.328 358.64 256.212C358.942 256.183 359.245 256.009 359.622 255.749C360.084 255.378 360.673 255.128 361.254 255V295.832Z" fill="#5C5C5C"/>
<path d="M361.254 250.832C360.613 249.976 360.219 249.003 360.05 247.9C360.05 247.842 360 247.813 359.974 247.813H359.949C359.42 248.247 358.816 248.507 358.287 248.883C357.482 249.491 356.651 250.098 355.82 250.734C355.443 250.995 355.014 251.197 354.611 251.283C354.41 251.341 354.234 251.371 354.083 251.457C354.058 251.457 354.007 251.515 353.982 251.544C352.774 253.395 351.54 254.871 349.4 254.986C347.235 255.102 345.095 254.466 343.031 254.032C342.049 253.801 340.664 253.684 338.826 253.598C336.988 253.482 335.931 252.874 335.528 250.676C335.352 249.605 335.226 248.65 335.201 247.753C335.126 246.538 335.075 245.381 335.05 244.311C334.999 243.24 335.352 242.719 335.981 241.995C336.233 241.706 336.309 241.214 336.385 240.838C336.435 240.491 336.662 240.172 336.989 240.201C337.543 240.23 338.147 240.115 338.751 239.768C340.664 238.697 341.672 236.874 342.83 234.936C343.459 233.836 344.164 232.823 344.995 231.694C345.045 231.608 345.07 231.522 345.07 231.435C345.171 230.219 345.17 229.003 344.692 227.846C343.937 226.11 343.786 224.171 344.944 222.667C345.624 221.799 346.505 221.741 347.412 221.625C348.419 221.452 349.3 221.047 349.552 219.802C349.677 219.368 349.829 218.992 350.081 218.645C350.131 218.558 350.156 218.471 350.156 218.384C350.156 218.24 350.08 218.124 349.979 218.037C349.829 217.893 349.602 217.806 349.426 217.776C348.595 217.661 348.041 217.313 347.663 216.705C346.958 215.548 346.631 213.898 347.034 212.568C347.311 211.758 348.016 211.613 348.469 212.307C349.148 213.377 349.929 214.188 351.137 214.448C351.414 214.477 351.741 214.39 351.968 214.275C352.395 213.985 352.848 213.667 353.327 213.378C353.705 213.146 353.857 212.799 354.083 212.423V212.427C354.486 211.675 355.493 211.502 356.173 211.473C357.18 211.415 358.011 211.328 358.64 211.212C358.942 211.183 359.245 211.009 359.622 210.749C360.084 210.377 360.673 210.128 361.254 210V250.832Z" fill="#5C5C5C"/>
</svg>
