<svg width="500" height="600" viewBox="0 0 500 600" fill="none" xmlns="http://www.w3.org/2000/svg">
<g clip-path="url(#clip0_276_2653)">
<path d="M165.209 595.832C164.568 594.976 164.174 594.002 164.005 592.899C164.005 592.842 163.955 592.813 163.93 592.812H163.904C163.375 593.246 162.771 593.507 162.242 593.883C161.437 594.491 160.606 595.098 159.775 595.734C159.398 595.995 158.969 596.197 158.566 596.283C158.365 596.341 158.189 596.37 158.038 596.457C158.013 596.457 157.962 596.515 157.937 596.544C156.729 598.395 155.495 599.871 153.355 599.986C151.19 600.102 149.05 599.466 146.986 599.032C146.004 598.801 144.619 598.684 142.781 598.598C140.943 598.482 139.886 597.874 139.483 595.676C139.307 594.605 139.181 593.65 139.156 592.753C139.081 591.538 139.03 590.381 139.005 589.311C138.954 588.24 139.307 587.719 139.936 586.995C140.188 586.706 140.264 586.214 140.34 585.838C140.39 585.491 140.617 585.172 140.944 585.201C141.498 585.23 142.102 585.115 142.706 584.768C144.619 583.697 145.627 581.874 146.785 579.936C147.415 578.836 148.119 577.823 148.95 576.694C149 576.608 149.025 576.522 149.025 576.435C149.126 575.219 149.125 574.003 148.647 572.846C147.892 571.11 147.741 569.171 148.899 567.667C149.579 566.799 150.46 566.741 151.367 566.625C152.374 566.452 153.255 566.046 153.507 564.802C153.632 564.368 153.784 563.992 154.036 563.645C154.086 563.558 154.111 563.471 154.111 563.384C154.111 563.239 154.035 563.124 153.934 563.037C153.784 562.893 153.557 562.806 153.381 562.776C152.55 562.661 151.996 562.313 151.618 561.705C150.913 560.548 150.586 558.898 150.989 557.567C151.266 556.758 151.971 556.613 152.424 557.307C153.103 558.377 153.884 559.188 155.092 559.448C155.369 559.477 155.696 559.39 155.923 559.274C156.35 558.985 156.804 558.667 157.282 558.378C157.66 558.146 157.812 557.799 158.038 557.423V557.427C158.441 556.674 159.448 556.502 160.128 556.473C161.135 556.415 161.966 556.328 162.596 556.212C162.898 556.183 163.2 556.009 163.577 555.749C164.039 555.377 164.628 555.128 165.209 555V595.832Z" fill="#C2C2C2"/>
<path d="M204.418 595.832C203.777 594.976 203.383 594.002 203.214 592.899C203.214 592.842 203.164 592.813 203.139 592.812H203.113C202.584 593.246 201.98 593.507 201.451 593.883C200.646 594.491 199.815 595.098 198.984 595.734C198.607 595.995 198.178 596.197 197.775 596.283C197.574 596.341 197.398 596.37 197.247 596.457C197.222 596.457 197.171 596.515 197.146 596.544C195.938 598.395 194.704 599.871 192.564 599.986C190.399 600.102 188.259 599.466 186.195 599.032C185.213 598.801 183.828 598.684 181.99 598.598C180.152 598.482 179.095 597.874 178.692 595.676C178.516 594.605 178.39 593.65 178.365 592.753C178.29 591.538 178.239 590.381 178.214 589.311C178.163 588.24 178.516 587.719 179.145 586.995C179.397 586.706 179.473 586.214 179.549 585.838C179.599 585.491 179.826 585.172 180.153 585.201C180.707 585.23 181.311 585.115 181.915 584.768C183.828 583.697 184.836 581.874 185.994 579.936C186.624 578.836 187.328 577.823 188.159 576.694C188.209 576.608 188.234 576.522 188.234 576.435C188.335 575.219 188.334 574.003 187.856 572.846C187.101 571.11 186.95 569.171 188.108 567.667C188.788 566.799 189.669 566.741 190.576 566.625C191.583 566.452 192.464 566.046 192.716 564.802C192.841 564.368 192.993 563.992 193.245 563.645C193.295 563.558 193.32 563.471 193.32 563.384C193.32 563.239 193.244 563.124 193.143 563.037C192.993 562.893 192.766 562.806 192.59 562.776C191.759 562.661 191.205 562.313 190.827 561.705C190.122 560.548 189.795 558.898 190.198 557.567C190.475 556.758 191.18 556.613 191.633 557.307C192.312 558.377 193.093 559.188 194.301 559.448C194.578 559.477 194.905 559.39 195.132 559.274C195.559 558.985 196.013 558.667 196.491 558.378C196.869 558.146 197.021 557.799 197.247 557.423V557.427C197.65 556.674 198.657 556.502 199.337 556.473C200.344 556.415 201.175 556.328 201.805 556.212C202.107 556.183 202.409 556.009 202.786 555.749C203.248 555.377 203.837 555.128 204.418 555V595.832Z" fill="#C2C2C2"/>
<path d="M243.627 595.832C242.986 594.976 242.592 594.002 242.423 592.899C242.423 592.842 242.373 592.813 242.348 592.812H242.322C241.793 593.246 241.189 593.507 240.66 593.883C239.855 594.491 239.024 595.098 238.193 595.734C237.816 595.995 237.387 596.197 236.984 596.283C236.783 596.341 236.607 596.37 236.456 596.457C236.431 596.457 236.38 596.515 236.355 596.544C235.147 598.395 233.913 599.871 231.773 599.986C229.608 600.102 227.468 599.466 225.404 599.032C224.422 598.801 223.037 598.684 221.199 598.598C219.361 598.482 218.304 597.874 217.901 595.676C217.725 594.605 217.599 593.65 217.574 592.753C217.499 591.538 217.448 590.381 217.423 589.311C217.372 588.24 217.725 587.719 218.354 586.995C218.606 586.706 218.682 586.214 218.758 585.838C218.808 585.491 219.035 585.172 219.362 585.201C219.916 585.23 220.52 585.115 221.124 584.768C223.037 583.697 224.045 581.874 225.203 579.936C225.832 578.836 226.537 577.823 227.368 576.694C227.418 576.608 227.443 576.522 227.443 576.435C227.544 575.219 227.543 574.003 227.065 572.846C226.31 571.11 226.159 569.171 227.317 567.667C227.997 566.799 228.878 566.741 229.785 566.625C230.792 566.452 231.673 566.046 231.925 564.802C232.05 564.368 232.202 563.992 232.454 563.645C232.504 563.558 232.529 563.471 232.529 563.384C232.529 563.239 232.453 563.124 232.352 563.037C232.202 562.893 231.975 562.806 231.799 562.776C230.968 562.661 230.414 562.313 230.036 561.705C229.331 560.548 229.004 558.898 229.407 557.567C229.684 556.758 230.389 556.613 230.842 557.307C231.521 558.377 232.302 559.188 233.51 559.448C233.787 559.477 234.114 559.39 234.341 559.274C234.768 558.985 235.221 558.667 235.7 558.378C236.078 558.146 236.23 557.799 236.456 557.423V557.427C236.859 556.674 237.866 556.502 238.546 556.473C239.553 556.415 240.384 556.328 241.014 556.212C241.316 556.183 241.618 556.009 241.995 555.749C242.457 555.377 243.046 555.128 243.627 555V595.832Z" fill="#C2C2C2"/>
<path d="M282.836 595.832C282.195 594.976 281.801 594.002 281.632 592.899C281.632 592.842 281.582 592.813 281.556 592.812H281.531C281.002 593.246 280.398 593.507 279.869 593.883C279.064 594.491 278.233 595.098 277.402 595.734C277.025 595.995 276.596 596.197 276.193 596.283C275.992 596.341 275.816 596.37 275.665 596.457C275.64 596.457 275.589 596.515 275.564 596.544C274.356 598.395 273.122 599.871 270.982 599.986C268.817 600.102 266.677 599.466 264.613 599.032C263.631 598.801 262.246 598.684 260.408 598.598C258.57 598.482 257.513 597.874 257.11 595.676C256.934 594.605 256.808 593.65 256.783 592.753C256.708 591.538 256.657 590.381 256.632 589.311C256.581 588.24 256.934 587.719 257.563 586.995C257.815 586.706 257.891 586.214 257.967 585.838C258.017 585.491 258.244 585.172 258.571 585.201C259.125 585.23 259.729 585.115 260.333 584.768C262.246 583.697 263.254 581.874 264.412 579.936C265.041 578.836 265.746 577.823 266.577 576.694C266.627 576.608 266.652 576.522 266.652 576.435C266.753 575.219 266.752 574.003 266.274 572.846C265.519 571.11 265.368 569.171 266.526 567.667C267.206 566.799 268.087 566.741 268.994 566.625C270.001 566.452 270.882 566.046 271.134 564.802C271.259 564.368 271.411 563.992 271.663 563.645C271.713 563.558 271.738 563.471 271.738 563.384C271.738 563.239 271.662 563.124 271.561 563.037C271.411 562.893 271.184 562.806 271.008 562.776C270.177 562.661 269.623 562.313 269.245 561.705C268.54 560.548 268.213 558.898 268.616 557.567C268.893 556.758 269.598 556.613 270.051 557.307C270.73 558.377 271.511 559.188 272.719 559.448C272.996 559.477 273.323 559.39 273.55 559.274C273.977 558.985 274.43 558.667 274.909 558.378C275.287 558.146 275.439 557.799 275.665 557.423V557.427C276.068 556.674 277.075 556.502 277.755 556.473C278.762 556.415 279.593 556.328 280.223 556.212C280.525 556.183 280.827 556.009 281.204 555.749C281.666 555.377 282.255 555.128 282.836 555V595.832Z" fill="#C2C2C2"/>
<path d="M322.045 595.832C321.404 594.976 321.01 594.002 320.841 592.899C320.841 592.842 320.791 592.813 320.765 592.812H320.74C320.211 593.246 319.607 593.507 319.078 593.883C318.273 594.491 317.442 595.098 316.611 595.734C316.234 595.995 315.805 596.197 315.402 596.283C315.201 596.341 315.025 596.37 314.874 596.457C314.849 596.457 314.798 596.515 314.773 596.544C313.565 598.395 312.331 599.871 310.191 599.986C308.026 600.102 305.886 599.466 303.822 599.032C302.84 598.801 301.455 598.684 299.617 598.598C297.779 598.482 296.722 597.874 296.319 595.676C296.143 594.605 296.017 593.65 295.992 592.753C295.917 591.538 295.866 590.381 295.841 589.311C295.79 588.24 296.143 587.719 296.772 586.995C297.024 586.706 297.1 586.214 297.176 585.838C297.226 585.491 297.453 585.172 297.78 585.201C298.334 585.23 298.938 585.115 299.542 584.768C301.455 583.697 302.463 581.874 303.621 579.936C304.25 578.836 304.955 577.823 305.786 576.694C305.836 576.608 305.861 576.522 305.861 576.435C305.962 575.219 305.961 574.003 305.483 572.846C304.728 571.11 304.577 569.171 305.735 567.667C306.415 566.799 307.296 566.741 308.203 566.625C309.21 566.452 310.091 566.046 310.343 564.802C310.468 564.368 310.62 563.992 310.872 563.645C310.922 563.558 310.947 563.471 310.947 563.384C310.947 563.239 310.871 563.124 310.77 563.037C310.62 562.893 310.393 562.806 310.217 562.776C309.386 562.661 308.832 562.313 308.454 561.705C307.749 560.548 307.422 558.898 307.825 557.567C308.102 556.758 308.807 556.613 309.26 557.307C309.939 558.377 310.72 559.188 311.928 559.448C312.205 559.477 312.532 559.39 312.759 559.274C313.186 558.985 313.639 558.667 314.118 558.378C314.496 558.146 314.648 557.799 314.874 557.423V557.427C315.277 556.674 316.284 556.502 316.964 556.473C317.971 556.415 318.802 556.328 319.431 556.212C319.734 556.183 320.036 556.009 320.413 555.749C320.875 555.377 321.464 555.128 322.045 555V595.832Z" fill="#C2C2C2"/>
</g>
<defs>
<clipPath id="clip0_276_2653">
<rect width="500" height="600" fill="white"/>
</clipPath>
</defs>
</svg>
