<svg width="500" height="600" viewBox="0 0 500 600" fill="none" xmlns="http://www.w3.org/2000/svg">
<g clip-path="url(#clip0_276_2658)">
<path d="M165.209 595.833C164.568 594.976 164.174 594.003 164.005 592.9C164.005 592.843 163.955 592.813 163.93 592.813H163.904C163.375 593.247 162.771 593.508 162.242 593.883C161.437 594.491 160.606 595.099 159.775 595.735C159.398 595.996 158.969 596.197 158.566 596.284C158.365 596.342 158.189 596.371 158.038 596.458C158.013 596.458 157.962 596.516 157.937 596.545C156.729 598.396 155.495 599.871 153.355 599.987C151.19 600.102 149.05 599.467 146.986 599.033C146.004 598.802 144.619 598.685 142.781 598.598C140.943 598.483 139.886 597.875 139.483 595.676C139.307 594.606 139.181 593.65 139.156 592.754C139.081 591.538 139.03 590.381 139.005 589.311C138.954 588.241 139.307 587.719 139.936 586.996C140.188 586.706 140.264 586.215 140.34 585.839C140.39 585.491 140.617 585.173 140.944 585.202C141.498 585.231 142.102 585.115 142.706 584.768C144.619 583.697 145.627 581.875 146.785 579.936C147.415 578.837 148.119 577.823 148.95 576.695C149 576.609 149.025 576.522 149.025 576.435C149.126 575.22 149.125 574.004 148.647 572.846C147.892 571.111 147.741 569.172 148.899 567.668C149.579 566.8 150.46 566.742 151.367 566.626C152.374 566.452 153.255 566.047 153.507 564.802C153.632 564.369 153.784 563.992 154.036 563.645C154.086 563.559 154.111 563.472 154.111 563.384C154.111 563.24 154.035 563.124 153.934 563.038C153.784 562.893 153.557 562.807 153.381 562.777C152.55 562.661 151.996 562.314 151.618 561.706C150.913 560.548 150.586 558.899 150.989 557.568C151.266 556.758 151.971 556.614 152.424 557.307C153.103 558.377 153.884 559.188 155.092 559.449C155.369 559.478 155.696 559.391 155.923 559.275C156.35 558.986 156.804 558.667 157.282 558.379C157.66 558.147 157.812 557.8 158.038 557.423V557.427C158.441 556.675 159.448 556.502 160.128 556.473C161.135 556.415 161.966 556.329 162.596 556.213C162.898 556.184 163.2 556.009 163.577 555.75C164.039 555.378 164.628 555.129 165.209 555.001V595.833Z" fill="#5C5C5C"/>
<path d="M165.209 550.833C164.568 549.976 164.174 549.003 164.005 547.9C164.005 547.842 163.955 547.813 163.93 547.813H163.904C163.375 548.247 162.771 548.508 162.242 548.883C161.437 549.491 160.606 550.099 159.775 550.735C159.398 550.995 158.969 551.197 158.566 551.284C158.365 551.341 158.189 551.371 158.038 551.458C158.013 551.458 157.962 551.516 157.937 551.544C156.729 553.396 155.495 554.871 153.355 554.987C151.19 555.102 149.05 554.467 146.986 554.033C146.004 553.802 144.619 553.685 142.781 553.598C140.943 553.483 139.886 552.875 139.483 550.676C139.307 549.605 139.181 548.65 139.156 547.753C139.081 546.538 139.03 545.381 139.005 544.311C138.954 543.241 139.307 542.719 139.936 541.996C140.188 541.706 140.264 541.215 140.34 540.838C140.39 540.491 140.617 540.173 140.944 540.202C141.498 540.231 142.102 540.115 142.706 539.768C144.619 538.697 145.627 536.875 146.785 534.936C147.415 533.836 148.119 532.823 148.95 531.695C149 531.608 149.025 531.522 149.025 531.435C149.126 530.22 149.125 529.004 148.647 527.846C147.892 526.11 147.741 524.172 148.899 522.667C149.579 521.8 150.46 521.742 151.367 521.625C152.374 521.452 153.255 521.047 153.507 519.802C153.632 519.368 153.784 518.992 154.036 518.645C154.086 518.558 154.111 518.471 154.111 518.384C154.111 518.24 154.035 518.124 153.934 518.038C153.784 517.893 153.557 517.806 153.381 517.777C152.55 517.661 151.996 517.314 151.618 516.706C150.913 515.548 150.586 513.899 150.989 512.568C151.266 511.758 151.971 511.614 152.424 512.307C153.103 513.377 153.884 514.188 155.092 514.449C155.369 514.478 155.696 514.39 155.923 514.275C156.35 513.985 156.804 513.667 157.282 513.378C157.66 513.147 157.812 512.8 158.038 512.423V512.427C158.441 511.675 159.448 511.502 160.128 511.473C161.135 511.415 161.966 511.329 162.596 511.212C162.898 511.183 163.2 511.009 163.577 510.75C164.039 510.378 164.628 510.128 165.209 510V550.833Z" fill="#5C5C5C"/>
<path d="M165.209 505.832C164.568 504.976 164.174 504.003 164.005 502.9C164.005 502.842 163.955 502.813 163.93 502.813H163.904C163.375 503.247 162.771 503.508 162.242 503.883C161.437 504.491 160.606 505.099 159.775 505.735C159.398 505.995 158.969 506.197 158.566 506.284C158.365 506.341 158.189 506.371 158.038 506.457C158.013 506.457 157.962 506.515 157.937 506.544C156.729 508.396 155.495 509.871 153.355 509.987C151.19 510.102 149.05 509.467 146.986 509.033C146.004 508.801 144.619 508.685 142.781 508.598C140.943 508.482 139.886 507.875 139.483 505.676C139.307 504.605 139.181 503.65 139.156 502.753C139.081 501.538 139.03 500.381 139.005 499.311C138.954 498.241 139.307 497.719 139.936 496.995C140.188 496.706 140.264 496.214 140.34 495.838C140.39 495.491 140.617 495.173 140.944 495.202C141.498 495.23 142.102 495.115 142.706 494.768C144.619 493.697 145.627 491.875 146.785 489.936C147.415 488.836 148.119 487.823 148.95 486.695C149 486.608 149.025 486.522 149.025 486.435C149.126 485.22 149.125 484.004 148.647 482.846C147.892 481.11 147.741 479.171 148.899 477.667C149.579 476.799 150.46 476.742 151.367 476.625C152.374 476.452 153.255 476.047 153.507 474.802C153.632 474.368 153.784 473.992 154.036 473.645C154.086 473.558 154.111 473.471 154.111 473.384C154.111 473.24 154.035 473.124 153.934 473.037C153.784 472.893 153.557 472.806 153.381 472.777C152.55 472.661 151.996 472.313 151.618 471.705C150.913 470.548 150.586 468.898 150.989 467.568C151.266 466.758 151.971 466.614 152.424 467.307C153.103 468.377 153.884 469.188 155.092 469.449C155.369 469.478 155.696 469.39 155.923 469.275C156.35 468.985 156.804 468.667 157.282 468.378C157.66 468.147 157.812 467.799 158.038 467.423V467.427C158.441 466.675 159.448 466.502 160.128 466.473C161.135 466.415 161.966 466.328 162.596 466.212C162.898 466.183 163.2 466.009 163.577 465.749C164.039 465.378 164.628 465.128 165.209 465V505.832Z" fill="#5C5C5C"/>
<path d="M165.209 460.832C164.568 459.976 164.174 459.003 164.005 457.9C164.005 457.842 163.955 457.813 163.93 457.813H163.904C163.375 458.247 162.771 458.507 162.242 458.883C161.437 459.491 160.606 460.098 159.775 460.735C159.398 460.995 158.969 461.197 158.566 461.283C158.365 461.341 158.189 461.371 158.038 461.457C158.013 461.457 157.962 461.515 157.937 461.544C156.729 463.395 155.495 464.871 153.355 464.987C151.19 465.102 149.05 464.466 146.986 464.032C146.004 463.801 144.619 463.685 142.781 463.598C140.943 463.482 139.886 462.875 139.483 460.676C139.307 459.605 139.181 458.65 139.156 457.753C139.081 456.538 139.03 455.381 139.005 454.311C138.954 453.241 139.307 452.719 139.936 451.995C140.188 451.706 140.264 451.214 140.34 450.838C140.39 450.491 140.617 450.173 140.944 450.201C141.498 450.23 142.102 450.115 142.706 449.768C144.619 448.697 145.627 446.875 146.785 444.936C147.415 443.836 148.119 442.823 148.95 441.695C149 441.608 149.025 441.522 149.025 441.435C149.126 440.22 149.125 439.003 148.647 437.846C147.892 436.11 147.741 434.171 148.899 432.667C149.579 431.799 150.46 431.741 151.367 431.625C152.374 431.452 153.255 431.047 153.507 429.802C153.632 429.368 153.784 428.992 154.036 428.645C154.086 428.558 154.111 428.471 154.111 428.384C154.111 428.24 154.035 428.124 153.934 428.037C153.784 427.893 153.557 427.806 153.381 427.777C152.55 427.661 151.996 427.313 151.618 426.705C150.913 425.548 150.586 423.898 150.989 422.568C151.266 421.758 151.971 421.613 152.424 422.307C153.103 423.377 153.884 424.188 155.092 424.448C155.369 424.477 155.696 424.39 155.923 424.275C156.35 423.985 156.804 423.667 157.282 423.378C157.66 423.146 157.812 422.799 158.038 422.423V422.427C158.441 421.675 159.448 421.502 160.128 421.473C161.135 421.415 161.966 421.328 162.596 421.212C162.898 421.183 163.2 421.009 163.577 420.749C164.039 420.378 164.628 420.128 165.209 420V460.832Z" fill="#5C5C5C"/>
<path d="M165.209 415.832C164.568 414.976 164.174 414.003 164.005 412.9C164.005 412.842 163.955 412.813 163.93 412.813H163.904C163.375 413.247 162.771 413.507 162.242 413.883C161.437 414.491 160.606 415.098 159.775 415.734C159.398 415.995 158.969 416.197 158.566 416.283C158.365 416.341 158.189 416.371 158.038 416.457C158.013 416.457 157.962 416.515 157.937 416.544C156.729 418.395 155.495 419.871 153.355 419.986C151.19 420.102 149.05 419.466 146.986 419.032C146.004 418.801 144.619 418.684 142.781 418.598C140.943 418.482 139.886 417.874 139.483 415.676C139.307 414.605 139.181 413.65 139.156 412.753C139.081 411.538 139.03 410.381 139.005 409.311C138.954 408.24 139.307 407.719 139.936 406.995C140.188 406.706 140.264 406.214 140.34 405.838C140.39 405.491 140.617 405.172 140.944 405.201C141.498 405.23 142.102 405.115 142.706 404.768C144.619 403.697 145.627 401.874 146.785 399.936C147.415 398.836 148.119 397.823 148.95 396.694C149 396.608 149.025 396.522 149.025 396.435C149.126 395.219 149.125 394.003 148.647 392.846C147.892 391.11 147.741 389.171 148.899 387.667C149.579 386.799 150.46 386.741 151.367 386.625C152.374 386.452 153.255 386.047 153.507 384.802C153.632 384.368 153.784 383.992 154.036 383.645C154.086 383.558 154.111 383.471 154.111 383.384C154.111 383.24 154.035 383.124 153.934 383.037C153.784 382.893 153.557 382.806 153.381 382.776C152.55 382.661 151.996 382.313 151.618 381.705C150.913 380.548 150.586 378.898 150.989 377.568C151.266 376.758 151.971 376.613 152.424 377.307C153.103 378.377 153.884 379.188 155.092 379.448C155.369 379.477 155.696 379.39 155.923 379.275C156.35 378.985 156.804 378.667 157.282 378.378C157.66 378.146 157.812 377.799 158.038 377.423V377.427C158.441 376.675 159.448 376.502 160.128 376.473C161.135 376.415 161.966 376.328 162.596 376.212C162.898 376.183 163.2 376.009 163.577 375.749C164.039 375.377 164.628 375.128 165.209 375V415.832Z" fill="#5C5C5C"/>
<path d="M165.209 370.832C164.568 369.976 164.174 369.002 164.005 367.899C164.005 367.842 163.955 367.813 163.93 367.812H163.904C163.375 368.246 162.771 368.507 162.242 368.883C161.437 369.491 160.606 370.098 159.775 370.734C159.398 370.995 158.969 371.197 158.566 371.283C158.365 371.341 158.189 371.37 158.038 371.457C158.013 371.457 157.962 371.515 157.937 371.544C156.729 373.395 155.495 374.871 153.355 374.986C151.19 375.102 149.05 374.466 146.986 374.032C146.004 373.801 144.619 373.684 142.781 373.598C140.943 373.482 139.886 372.874 139.483 370.676C139.307 369.605 139.181 368.65 139.156 367.753C139.081 366.538 139.03 365.381 139.005 364.311C138.954 363.24 139.307 362.719 139.936 361.995C140.188 361.706 140.264 361.214 140.34 360.838C140.39 360.491 140.617 360.172 140.944 360.201C141.498 360.23 142.102 360.115 142.706 359.768C144.619 358.697 145.627 356.874 146.785 354.936C147.415 353.836 148.119 352.823 148.95 351.694C149 351.608 149.025 351.522 149.025 351.435C149.126 350.219 149.125 349.003 148.647 347.846C147.892 346.11 147.741 344.171 148.899 342.667C149.579 341.799 150.46 341.741 151.367 341.625C152.374 341.452 153.255 341.046 153.507 339.802C153.632 339.368 153.784 338.992 154.036 338.645C154.086 338.558 154.111 338.471 154.111 338.384C154.111 338.239 154.035 338.124 153.934 338.037C153.784 337.893 153.557 337.806 153.381 337.776C152.55 337.661 151.996 337.313 151.618 336.705C150.913 335.548 150.586 333.898 150.989 332.567C151.266 331.758 151.971 331.613 152.424 332.307C153.103 333.377 153.884 334.188 155.092 334.448C155.369 334.477 155.696 334.39 155.923 334.274C156.35 333.985 156.804 333.667 157.282 333.378C157.66 333.146 157.812 332.799 158.038 332.423V332.427C158.441 331.674 159.448 331.502 160.128 331.473C161.135 331.415 161.966 331.328 162.596 331.212C162.898 331.183 163.2 331.009 163.577 330.749C164.039 330.377 164.628 330.128 165.209 330V370.832Z" fill="#5C5C5C"/>
<path d="M204.418 595.833C203.777 594.976 203.383 594.003 203.214 592.9C203.214 592.843 203.164 592.813 203.139 592.813H203.113C202.584 593.247 201.98 593.508 201.451 593.883C200.646 594.491 199.815 595.099 198.984 595.735C198.607 595.996 198.178 596.197 197.775 596.284C197.574 596.342 197.398 596.371 197.247 596.458C197.222 596.458 197.171 596.516 197.146 596.545C195.938 598.396 194.704 599.871 192.564 599.987C190.399 600.102 188.259 599.467 186.195 599.033C185.213 598.802 183.828 598.685 181.99 598.598C180.152 598.483 179.095 597.875 178.692 595.676C178.516 594.606 178.39 593.65 178.365 592.754C178.29 591.538 178.239 590.381 178.214 589.311C178.163 588.241 178.516 587.719 179.145 586.996C179.397 586.706 179.473 586.215 179.549 585.839C179.599 585.491 179.826 585.173 180.153 585.202C180.707 585.231 181.311 585.115 181.915 584.768C183.828 583.697 184.836 581.875 185.994 579.936C186.624 578.837 187.328 577.823 188.159 576.695C188.209 576.609 188.234 576.522 188.234 576.435C188.335 575.22 188.334 574.004 187.856 572.846C187.101 571.111 186.95 569.172 188.108 567.668C188.788 566.8 189.669 566.742 190.576 566.626C191.583 566.452 192.464 566.047 192.716 564.802C192.841 564.369 192.993 563.992 193.245 563.645C193.295 563.559 193.32 563.472 193.32 563.384C193.32 563.24 193.244 563.124 193.143 563.038C192.993 562.893 192.766 562.807 192.59 562.777C191.759 562.661 191.205 562.314 190.827 561.706C190.122 560.548 189.795 558.899 190.198 557.568C190.475 556.758 191.18 556.614 191.633 557.307C192.312 558.377 193.093 559.188 194.301 559.449C194.578 559.478 194.905 559.391 195.132 559.275C195.559 558.986 196.013 558.667 196.491 558.379C196.869 558.147 197.021 557.8 197.247 557.423V557.427C197.65 556.675 198.657 556.502 199.337 556.473C200.344 556.415 201.175 556.329 201.805 556.213C202.107 556.184 202.409 556.009 202.786 555.75C203.248 555.378 203.837 555.129 204.418 555.001V595.833Z" fill="#5C5C5C"/>
<path d="M204.418 550.833C203.777 549.976 203.383 549.003 203.214 547.9C203.214 547.842 203.164 547.813 203.139 547.813H203.113C202.584 548.247 201.98 548.508 201.451 548.883C200.646 549.491 199.815 550.099 198.984 550.735C198.607 550.995 198.178 551.197 197.775 551.284C197.574 551.341 197.398 551.371 197.247 551.458C197.222 551.458 197.171 551.516 197.146 551.544C195.938 553.396 194.704 554.871 192.564 554.987C190.399 555.102 188.259 554.467 186.195 554.033C185.213 553.802 183.828 553.685 181.99 553.598C180.152 553.483 179.095 552.875 178.692 550.676C178.516 549.605 178.39 548.65 178.365 547.753C178.29 546.538 178.239 545.381 178.214 544.311C178.163 543.241 178.516 542.719 179.145 541.996C179.397 541.706 179.473 541.215 179.549 540.838C179.599 540.491 179.826 540.173 180.153 540.202C180.707 540.231 181.311 540.115 181.915 539.768C183.828 538.697 184.836 536.875 185.994 534.936C186.624 533.836 187.328 532.823 188.159 531.695C188.209 531.608 188.234 531.522 188.234 531.435C188.335 530.22 188.334 529.004 187.856 527.846C187.101 526.11 186.95 524.172 188.108 522.667C188.788 521.8 189.669 521.742 190.576 521.625C191.583 521.452 192.464 521.047 192.716 519.802C192.841 519.368 192.993 518.992 193.245 518.645C193.295 518.558 193.32 518.471 193.32 518.384C193.32 518.24 193.244 518.124 193.143 518.038C192.993 517.893 192.766 517.806 192.59 517.777C191.759 517.661 191.205 517.314 190.827 516.706C190.122 515.548 189.795 513.899 190.198 512.568C190.475 511.758 191.18 511.614 191.633 512.307C192.312 513.377 193.093 514.188 194.301 514.449C194.578 514.478 194.905 514.39 195.132 514.275C195.559 513.985 196.013 513.667 196.491 513.378C196.869 513.147 197.021 512.8 197.247 512.423V512.427C197.65 511.675 198.657 511.502 199.337 511.473C200.344 511.415 201.175 511.329 201.805 511.212C202.107 511.183 202.409 511.009 202.786 510.75C203.248 510.378 203.837 510.128 204.418 510V550.833Z" fill="#5C5C5C"/>
<path d="M204.418 505.832C203.777 504.976 203.383 504.003 203.214 502.9C203.214 502.842 203.164 502.813 203.139 502.813H203.113C202.584 503.247 201.98 503.508 201.451 503.883C200.646 504.491 199.815 505.099 198.984 505.735C198.607 505.995 198.178 506.197 197.775 506.284C197.574 506.341 197.398 506.371 197.247 506.457C197.222 506.457 197.171 506.515 197.146 506.544C195.938 508.396 194.704 509.871 192.564 509.987C190.399 510.102 188.259 509.467 186.195 509.033C185.213 508.801 183.828 508.685 181.99 508.598C180.152 508.482 179.095 507.875 178.692 505.676C178.516 504.605 178.39 503.65 178.365 502.753C178.29 501.538 178.239 500.381 178.214 499.311C178.163 498.241 178.516 497.719 179.145 496.995C179.397 496.706 179.473 496.214 179.549 495.838C179.599 495.491 179.826 495.173 180.153 495.202C180.707 495.23 181.311 495.115 181.915 494.768C183.828 493.697 184.836 491.875 185.994 489.936C186.624 488.836 187.328 487.823 188.159 486.695C188.209 486.608 188.234 486.522 188.234 486.435C188.335 485.22 188.334 484.004 187.856 482.846C187.101 481.11 186.95 479.171 188.108 477.667C188.788 476.799 189.669 476.742 190.576 476.625C191.583 476.452 192.464 476.047 192.716 474.802C192.841 474.368 192.993 473.992 193.245 473.645C193.295 473.558 193.32 473.471 193.32 473.384C193.32 473.24 193.244 473.124 193.143 473.037C192.993 472.893 192.766 472.806 192.59 472.777C191.759 472.661 191.205 472.313 190.827 471.705C190.122 470.548 189.795 468.898 190.198 467.568C190.475 466.758 191.18 466.614 191.633 467.307C192.312 468.377 193.093 469.188 194.301 469.449C194.578 469.478 194.905 469.39 195.132 469.275C195.559 468.985 196.013 468.667 196.491 468.378C196.869 468.147 197.021 467.799 197.247 467.423V467.427C197.65 466.675 198.657 466.502 199.337 466.473C200.344 466.415 201.175 466.328 201.805 466.212C202.107 466.183 202.409 466.009 202.786 465.749C203.248 465.378 203.837 465.128 204.418 465V505.832Z" fill="#5C5C5C"/>
<path d="M204.418 460.832C203.777 459.976 203.383 459.003 203.214 457.9C203.214 457.842 203.164 457.813 203.139 457.813H203.113C202.584 458.247 201.98 458.507 201.451 458.883C200.646 459.491 199.815 460.098 198.984 460.735C198.607 460.995 198.178 461.197 197.775 461.283C197.574 461.341 197.398 461.371 197.247 461.457C197.222 461.457 197.171 461.515 197.146 461.544C195.938 463.395 194.704 464.871 192.564 464.987C190.399 465.102 188.259 464.466 186.195 464.032C185.213 463.801 183.828 463.685 181.99 463.598C180.152 463.482 179.095 462.875 178.692 460.676C178.516 459.605 178.39 458.65 178.365 457.753C178.29 456.538 178.239 455.381 178.214 454.311C178.163 453.241 178.516 452.719 179.145 451.995C179.397 451.706 179.473 451.214 179.549 450.838C179.599 450.491 179.826 450.173 180.153 450.201C180.707 450.23 181.311 450.115 181.915 449.768C183.828 448.697 184.836 446.875 185.994 444.936C186.624 443.836 187.328 442.823 188.159 441.695C188.209 441.608 188.234 441.522 188.234 441.435C188.335 440.22 188.334 439.003 187.856 437.846C187.101 436.11 186.95 434.171 188.108 432.667C188.788 431.799 189.669 431.741 190.576 431.625C191.583 431.452 192.464 431.047 192.716 429.802C192.841 429.368 192.993 428.992 193.245 428.645C193.295 428.558 193.32 428.471 193.32 428.384C193.32 428.24 193.244 428.124 193.143 428.037C192.993 427.893 192.766 427.806 192.59 427.777C191.759 427.661 191.205 427.313 190.827 426.705C190.122 425.548 189.795 423.898 190.198 422.568C190.475 421.758 191.18 421.613 191.633 422.307C192.312 423.377 193.093 424.188 194.301 424.448C194.578 424.477 194.905 424.39 195.132 424.275C195.559 423.985 196.013 423.667 196.491 423.378C196.869 423.146 197.021 422.799 197.247 422.423V422.427C197.65 421.675 198.657 421.502 199.337 421.473C200.344 421.415 201.175 421.328 201.805 421.212C202.107 421.183 202.409 421.009 202.786 420.749C203.248 420.378 203.837 420.128 204.418 420V460.832Z" fill="#5C5C5C"/>
<path d="M204.418 415.832C203.777 414.976 203.383 414.003 203.214 412.9C203.214 412.842 203.164 412.813 203.139 412.813H203.113C202.584 413.247 201.98 413.507 201.451 413.883C200.646 414.491 199.815 415.098 198.984 415.734C198.607 415.995 198.178 416.197 197.775 416.283C197.574 416.341 197.398 416.371 197.247 416.457C197.222 416.457 197.171 416.515 197.146 416.544C195.938 418.395 194.704 419.871 192.564 419.986C190.399 420.102 188.259 419.466 186.195 419.032C185.213 418.801 183.828 418.684 181.99 418.598C180.152 418.482 179.095 417.874 178.692 415.676C178.516 414.605 178.39 413.65 178.365 412.753C178.29 411.538 178.239 410.381 178.214 409.311C178.163 408.24 178.516 407.719 179.145 406.995C179.397 406.706 179.473 406.214 179.549 405.838C179.599 405.491 179.826 405.172 180.153 405.201C180.707 405.23 181.311 405.115 181.915 404.768C183.828 403.697 184.836 401.874 185.994 399.936C186.624 398.836 187.328 397.823 188.159 396.694C188.209 396.608 188.234 396.522 188.234 396.435C188.335 395.219 188.334 394.003 187.856 392.846C187.101 391.11 186.95 389.171 188.108 387.667C188.788 386.799 189.669 386.741 190.576 386.625C191.583 386.452 192.464 386.047 192.716 384.802C192.841 384.368 192.993 383.992 193.245 383.645C193.295 383.558 193.32 383.471 193.32 383.384C193.32 383.24 193.244 383.124 193.143 383.037C192.993 382.893 192.766 382.806 192.59 382.776C191.759 382.661 191.205 382.313 190.827 381.705C190.122 380.548 189.795 378.898 190.198 377.568C190.475 376.758 191.18 376.613 191.633 377.307C192.312 378.377 193.093 379.188 194.301 379.448C194.578 379.477 194.905 379.39 195.132 379.275C195.559 378.985 196.013 378.667 196.491 378.378C196.869 378.146 197.021 377.799 197.247 377.423V377.427C197.65 376.675 198.657 376.502 199.337 376.473C200.344 376.415 201.175 376.328 201.805 376.212C202.107 376.183 202.409 376.009 202.786 375.749C203.248 375.377 203.837 375.128 204.418 375V415.832Z" fill="#5C5C5C"/>
<path d="M204.418 370.832C203.777 369.976 203.383 369.002 203.214 367.899C203.214 367.842 203.164 367.813 203.139 367.812H203.113C202.584 368.246 201.98 368.507 201.451 368.883C200.646 369.491 199.815 370.098 198.984 370.734C198.607 370.995 198.178 371.197 197.775 371.283C197.574 371.341 197.398 371.37 197.247 371.457C197.222 371.457 197.171 371.515 197.146 371.544C195.938 373.395 194.704 374.871 192.564 374.986C190.399 375.102 188.259 374.466 186.195 374.032C185.213 373.801 183.828 373.684 181.99 373.598C180.152 373.482 179.095 372.874 178.692 370.676C178.516 369.605 178.39 368.65 178.365 367.753C178.29 366.538 178.239 365.381 178.214 364.311C178.163 363.24 178.516 362.719 179.145 361.995C179.397 361.706 179.473 361.214 179.549 360.838C179.599 360.491 179.826 360.172 180.153 360.201C180.707 360.23 181.311 360.115 181.915 359.768C183.828 358.697 184.836 356.874 185.994 354.936C186.624 353.836 187.328 352.823 188.159 351.694C188.209 351.608 188.234 351.522 188.234 351.435C188.335 350.219 188.334 349.003 187.856 347.846C187.101 346.11 186.95 344.171 188.108 342.667C188.788 341.799 189.669 341.741 190.576 341.625C191.583 341.452 192.464 341.046 192.716 339.802C192.841 339.368 192.993 338.992 193.245 338.645C193.295 338.558 193.32 338.471 193.32 338.384C193.32 338.239 193.244 338.124 193.143 338.037C192.993 337.893 192.766 337.806 192.59 337.776C191.759 337.661 191.205 337.313 190.827 336.705C190.122 335.548 189.795 333.898 190.198 332.567C190.475 331.758 191.18 331.613 191.633 332.307C192.312 333.377 193.093 334.188 194.301 334.448C194.578 334.477 194.905 334.39 195.132 334.274C195.559 333.985 196.013 333.667 196.491 333.378C196.869 333.146 197.021 332.799 197.247 332.423V332.427C197.65 331.674 198.657 331.502 199.337 331.473C200.344 331.415 201.175 331.328 201.805 331.212C202.107 331.183 202.409 331.009 202.786 330.749C203.248 330.377 203.837 330.128 204.418 330V370.832Z" fill="#5C5C5C"/>
<path d="M243.627 595.833C242.986 594.976 242.592 594.003 242.423 592.9C242.423 592.843 242.373 592.813 242.348 592.813H242.322C241.793 593.247 241.189 593.508 240.66 593.883C239.855 594.491 239.024 595.099 238.193 595.735C237.816 595.996 237.387 596.197 236.984 596.284C236.783 596.342 236.607 596.371 236.456 596.458C236.431 596.458 236.38 596.516 236.355 596.545C235.147 598.396 233.913 599.871 231.773 599.987C229.608 600.102 227.468 599.467 225.404 599.033C224.422 598.802 223.037 598.685 221.199 598.598C219.361 598.483 218.304 597.875 217.901 595.676C217.725 594.606 217.599 593.65 217.574 592.754C217.499 591.538 217.448 590.381 217.423 589.311C217.372 588.241 217.725 587.719 218.354 586.996C218.606 586.706 218.682 586.215 218.758 585.839C218.808 585.491 219.035 585.173 219.362 585.202C219.916 585.231 220.52 585.115 221.124 584.768C223.037 583.697 224.045 581.875 225.203 579.936C225.832 578.837 226.537 577.823 227.368 576.695C227.418 576.609 227.443 576.522 227.443 576.435C227.544 575.22 227.543 574.004 227.065 572.846C226.31 571.111 226.159 569.172 227.317 567.668C227.997 566.8 228.878 566.742 229.785 566.626C230.792 566.452 231.673 566.047 231.925 564.802C232.05 564.369 232.202 563.992 232.454 563.645C232.504 563.559 232.529 563.472 232.529 563.384C232.529 563.24 232.453 563.124 232.352 563.038C232.202 562.893 231.975 562.807 231.799 562.777C230.968 562.661 230.414 562.314 230.036 561.706C229.331 560.548 229.004 558.899 229.407 557.568C229.684 556.758 230.389 556.614 230.842 557.307C231.521 558.377 232.302 559.188 233.51 559.449C233.787 559.478 234.114 559.391 234.341 559.275C234.768 558.986 235.221 558.667 235.7 558.379C236.078 558.147 236.23 557.8 236.456 557.423V557.427C236.859 556.675 237.866 556.502 238.546 556.473C239.553 556.415 240.384 556.329 241.014 556.213C241.316 556.184 241.618 556.009 241.995 555.75C242.457 555.378 243.046 555.129 243.627 555.001V595.833Z" fill="#5C5C5C"/>
<path d="M243.627 550.833C242.986 549.976 242.592 549.003 242.423 547.9C242.423 547.842 242.373 547.813 242.348 547.813H242.322C241.793 548.247 241.189 548.508 240.66 548.883C239.855 549.491 239.024 550.099 238.193 550.735C237.816 550.995 237.387 551.197 236.984 551.284C236.783 551.341 236.607 551.371 236.456 551.458C236.431 551.458 236.38 551.516 236.355 551.544C235.147 553.396 233.913 554.871 231.773 554.987C229.608 555.102 227.468 554.467 225.404 554.033C224.422 553.802 223.037 553.685 221.199 553.598C219.361 553.483 218.304 552.875 217.901 550.676C217.725 549.605 217.599 548.65 217.574 547.753C217.499 546.538 217.448 545.381 217.423 544.311C217.372 543.241 217.725 542.719 218.354 541.996C218.606 541.706 218.682 541.215 218.758 540.838C218.808 540.491 219.035 540.173 219.362 540.202C219.916 540.231 220.52 540.115 221.124 539.768C223.037 538.697 224.045 536.875 225.203 534.936C225.832 533.836 226.537 532.823 227.368 531.695C227.418 531.608 227.443 531.522 227.443 531.435C227.544 530.22 227.543 529.004 227.065 527.846C226.31 526.11 226.159 524.172 227.317 522.667C227.997 521.8 228.878 521.742 229.785 521.625C230.792 521.452 231.673 521.047 231.925 519.802C232.05 519.368 232.202 518.992 232.454 518.645C232.504 518.558 232.529 518.471 232.529 518.384C232.529 518.24 232.453 518.124 232.352 518.038C232.202 517.893 231.975 517.806 231.799 517.777C230.968 517.661 230.414 517.314 230.036 516.706C229.331 515.548 229.004 513.899 229.407 512.568C229.684 511.758 230.389 511.614 230.842 512.307C231.521 513.377 232.302 514.188 233.51 514.449C233.787 514.478 234.114 514.39 234.341 514.275C234.768 513.985 235.221 513.667 235.7 513.378C236.078 513.147 236.23 512.8 236.456 512.423V512.427C236.859 511.675 237.866 511.502 238.546 511.473C239.553 511.415 240.384 511.329 241.014 511.212C241.316 511.183 241.618 511.009 241.995 510.75C242.457 510.378 243.046 510.128 243.627 510V550.833Z" fill="#5C5C5C"/>
<path d="M243.627 505.832C242.986 504.976 242.592 504.003 242.423 502.9C242.423 502.842 242.373 502.813 242.348 502.813H242.322C241.793 503.247 241.189 503.508 240.66 503.883C239.855 504.491 239.024 505.099 238.193 505.735C237.816 505.995 237.387 506.197 236.984 506.284C236.783 506.341 236.607 506.371 236.456 506.457C236.431 506.457 236.38 506.515 236.355 506.544C235.147 508.396 233.913 509.871 231.773 509.987C229.608 510.102 227.468 509.467 225.404 509.033C224.422 508.801 223.037 508.685 221.199 508.598C219.361 508.482 218.304 507.875 217.901 505.676C217.725 504.605 217.599 503.65 217.574 502.753C217.499 501.538 217.448 500.381 217.423 499.311C217.372 498.241 217.725 497.719 218.354 496.995C218.606 496.706 218.682 496.214 218.758 495.838C218.808 495.491 219.035 495.173 219.362 495.202C219.916 495.23 220.52 495.115 221.124 494.768C223.037 493.697 224.045 491.875 225.203 489.936C225.832 488.836 226.537 487.823 227.368 486.695C227.418 486.608 227.443 486.522 227.443 486.435C227.544 485.22 227.543 484.004 227.065 482.846C226.31 481.11 226.159 479.171 227.317 477.667C227.997 476.799 228.878 476.742 229.785 476.625C230.792 476.452 231.673 476.047 231.925 474.802C232.05 474.368 232.202 473.992 232.454 473.645C232.504 473.558 232.529 473.471 232.529 473.384C232.529 473.24 232.453 473.124 232.352 473.037C232.202 472.893 231.975 472.806 231.799 472.777C230.968 472.661 230.414 472.313 230.036 471.705C229.331 470.548 229.004 468.898 229.407 467.568C229.684 466.758 230.389 466.614 230.842 467.307C231.521 468.377 232.302 469.188 233.51 469.449C233.787 469.478 234.114 469.39 234.341 469.275C234.768 468.985 235.221 468.667 235.7 468.378C236.078 468.147 236.23 467.799 236.456 467.423V467.427C236.859 466.675 237.866 466.502 238.546 466.473C239.553 466.415 240.384 466.328 241.014 466.212C241.316 466.183 241.618 466.009 241.995 465.749C242.457 465.378 243.046 465.128 243.627 465V505.832Z" fill="#5C5C5C"/>
<path d="M243.627 460.832C242.986 459.976 242.592 459.003 242.423 457.9C242.423 457.842 242.373 457.813 242.348 457.813H242.322C241.793 458.247 241.189 458.507 240.66 458.883C239.855 459.491 239.024 460.098 238.193 460.735C237.816 460.995 237.387 461.197 236.984 461.283C236.783 461.341 236.607 461.371 236.456 461.457C236.431 461.457 236.38 461.515 236.355 461.544C235.147 463.395 233.913 464.871 231.773 464.987C229.608 465.102 227.468 464.466 225.404 464.032C224.422 463.801 223.037 463.685 221.199 463.598C219.361 463.482 218.304 462.875 217.901 460.676C217.725 459.605 217.599 458.65 217.574 457.753C217.499 456.538 217.448 455.381 217.423 454.311C217.372 453.241 217.725 452.719 218.354 451.995C218.606 451.706 218.682 451.214 218.758 450.838C218.808 450.491 219.035 450.173 219.362 450.201C219.916 450.23 220.52 450.115 221.124 449.768C223.037 448.697 224.045 446.875 225.203 444.936C225.832 443.836 226.537 442.823 227.368 441.695C227.418 441.608 227.443 441.522 227.443 441.435C227.544 440.22 227.543 439.003 227.065 437.846C226.31 436.11 226.159 434.171 227.317 432.667C227.997 431.799 228.878 431.741 229.785 431.625C230.792 431.452 231.673 431.047 231.925 429.802C232.05 429.368 232.202 428.992 232.454 428.645C232.504 428.558 232.529 428.471 232.529 428.384C232.529 428.24 232.453 428.124 232.352 428.037C232.202 427.893 231.975 427.806 231.799 427.777C230.968 427.661 230.414 427.313 230.036 426.705C229.331 425.548 229.004 423.898 229.407 422.568C229.684 421.758 230.389 421.613 230.842 422.307C231.521 423.377 232.302 424.188 233.51 424.448C233.787 424.477 234.114 424.39 234.341 424.275C234.768 423.985 235.221 423.667 235.7 423.378C236.078 423.146 236.23 422.799 236.456 422.423V422.427C236.859 421.675 237.866 421.502 238.546 421.473C239.553 421.415 240.384 421.328 241.014 421.212C241.316 421.183 241.618 421.009 241.995 420.749C242.457 420.378 243.046 420.128 243.627 420V460.832Z" fill="#5C5C5C"/>
<path d="M243.627 415.832C242.986 414.976 242.592 414.003 242.423 412.9C242.423 412.842 242.373 412.813 242.348 412.813H242.322C241.793 413.247 241.189 413.507 240.66 413.883C239.855 414.491 239.024 415.098 238.193 415.734C237.816 415.995 237.387 416.197 236.984 416.283C236.783 416.341 236.607 416.371 236.456 416.457C236.431 416.457 236.38 416.515 236.355 416.544C235.147 418.395 233.913 419.871 231.773 419.986C229.608 420.102 227.468 419.466 225.404 419.032C224.422 418.801 223.037 418.684 221.199 418.598C219.361 418.482 218.304 417.874 217.901 415.676C217.725 414.605 217.599 413.65 217.574 412.753C217.499 411.538 217.448 410.381 217.423 409.311C217.372 408.24 217.725 407.719 218.354 406.995C218.606 406.706 218.682 406.214 218.758 405.838C218.808 405.491 219.035 405.172 219.362 405.201C219.916 405.23 220.52 405.115 221.124 404.768C223.037 403.697 224.045 401.874 225.203 399.936C225.832 398.836 226.537 397.823 227.368 396.694C227.418 396.608 227.443 396.522 227.443 396.435C227.544 395.219 227.543 394.003 227.065 392.846C226.31 391.11 226.159 389.171 227.317 387.667C227.997 386.799 228.878 386.741 229.785 386.625C230.792 386.452 231.673 386.047 231.925 384.802C232.05 384.368 232.202 383.992 232.454 383.645C232.504 383.558 232.529 383.471 232.529 383.384C232.529 383.24 232.453 383.124 232.352 383.037C232.202 382.893 231.975 382.806 231.799 382.776C230.968 382.661 230.414 382.313 230.036 381.705C229.331 380.548 229.004 378.898 229.407 377.568C229.684 376.758 230.389 376.613 230.842 377.307C231.521 378.377 232.302 379.188 233.51 379.448C233.787 379.477 234.114 379.39 234.341 379.275C234.768 378.985 235.221 378.667 235.7 378.378C236.078 378.146 236.23 377.799 236.456 377.423V377.427C236.859 376.675 237.866 376.502 238.546 376.473C239.553 376.415 240.384 376.328 241.014 376.212C241.316 376.183 241.618 376.009 241.995 375.749C242.457 375.377 243.046 375.128 243.627 375V415.832Z" fill="#5C5C5C"/>
<path d="M243.627 370.832C242.986 369.976 242.592 369.002 242.423 367.899C242.423 367.842 242.373 367.813 242.348 367.812H242.322C241.793 368.246 241.189 368.507 240.66 368.883C239.855 369.491 239.024 370.098 238.193 370.734C237.816 370.995 237.387 371.197 236.984 371.283C236.783 371.341 236.607 371.37 236.456 371.457C236.431 371.457 236.38 371.515 236.355 371.544C235.147 373.395 233.913 374.871 231.773 374.986C229.608 375.102 227.468 374.466 225.404 374.032C224.422 373.801 223.037 373.684 221.199 373.598C219.361 373.482 218.304 372.874 217.901 370.676C217.725 369.605 217.599 368.65 217.574 367.753C217.499 366.538 217.448 365.381 217.423 364.311C217.372 363.24 217.725 362.719 218.354 361.995C218.606 361.706 218.682 361.214 218.758 360.838C218.808 360.491 219.035 360.172 219.362 360.201C219.916 360.23 220.52 360.115 221.124 359.768C223.037 358.697 224.045 356.874 225.203 354.936C225.832 353.836 226.537 352.823 227.368 351.694C227.418 351.608 227.443 351.522 227.443 351.435C227.544 350.219 227.543 349.003 227.065 347.846C226.31 346.11 226.159 344.171 227.317 342.667C227.997 341.799 228.878 341.741 229.785 341.625C230.792 341.452 231.673 341.046 231.925 339.802C232.05 339.368 232.202 338.992 232.454 338.645C232.504 338.558 232.529 338.471 232.529 338.384C232.529 338.239 232.453 338.124 232.352 338.037C232.202 337.893 231.975 337.806 231.799 337.776C230.968 337.661 230.414 337.313 230.036 336.705C229.331 335.548 229.004 333.898 229.407 332.567C229.684 331.758 230.389 331.613 230.842 332.307C231.521 333.377 232.302 334.188 233.51 334.448C233.787 334.477 234.114 334.39 234.341 334.274C234.768 333.985 235.221 333.667 235.7 333.378C236.078 333.146 236.23 332.799 236.456 332.423V332.427C236.859 331.674 237.866 331.502 238.546 331.473C239.553 331.415 240.384 331.328 241.014 331.212C241.316 331.183 241.618 331.009 241.995 330.749C242.457 330.377 243.046 330.128 243.627 330V370.832Z" fill="#5C5C5C"/>
<path d="M282.836 595.833C282.195 594.976 281.801 594.003 281.632 592.9C281.632 592.843 281.582 592.813 281.556 592.813H281.531C281.002 593.247 280.398 593.508 279.869 593.883C279.064 594.491 278.233 595.099 277.402 595.735C277.025 595.996 276.596 596.197 276.193 596.284C275.992 596.342 275.816 596.371 275.665 596.458C275.64 596.458 275.589 596.516 275.564 596.545C274.356 598.396 273.122 599.871 270.982 599.987C268.817 600.102 266.677 599.467 264.613 599.033C263.631 598.802 262.246 598.685 260.408 598.598C258.57 598.483 257.513 597.875 257.11 595.676C256.934 594.606 256.808 593.65 256.783 592.754C256.708 591.538 256.657 590.381 256.632 589.311C256.581 588.241 256.934 587.719 257.563 586.996C257.815 586.706 257.891 586.215 257.967 585.839C258.017 585.491 258.244 585.173 258.571 585.202C259.125 585.231 259.729 585.115 260.333 584.768C262.246 583.697 263.254 581.875 264.412 579.936C265.041 578.837 265.746 577.823 266.577 576.695C266.627 576.609 266.652 576.522 266.652 576.435C266.753 575.22 266.752 574.004 266.274 572.846C265.519 571.111 265.368 569.172 266.526 567.668C267.206 566.8 268.087 566.742 268.994 566.626C270.001 566.452 270.882 566.047 271.134 564.802C271.259 564.369 271.411 563.992 271.663 563.645C271.713 563.559 271.738 563.472 271.738 563.384C271.738 563.24 271.662 563.124 271.561 563.038C271.411 562.893 271.184 562.807 271.008 562.777C270.177 562.661 269.623 562.314 269.245 561.706C268.54 560.548 268.213 558.899 268.616 557.568C268.893 556.758 269.598 556.614 270.051 557.307C270.73 558.377 271.511 559.188 272.719 559.449C272.996 559.478 273.323 559.391 273.55 559.275C273.977 558.986 274.43 558.667 274.909 558.379C275.287 558.147 275.439 557.8 275.665 557.423V557.427C276.068 556.675 277.075 556.502 277.755 556.473C278.762 556.415 279.593 556.329 280.223 556.213C280.525 556.184 280.827 556.009 281.204 555.75C281.666 555.378 282.255 555.129 282.836 555.001V595.833Z" fill="#5C5C5C"/>
<path d="M282.836 550.833C282.195 549.976 281.801 549.003 281.632 547.9C281.632 547.842 281.582 547.813 281.556 547.813H281.531C281.002 548.247 280.398 548.508 279.869 548.883C279.064 549.491 278.233 550.099 277.402 550.735C277.025 550.995 276.596 551.197 276.193 551.284C275.992 551.341 275.816 551.371 275.665 551.458C275.64 551.458 275.589 551.516 275.564 551.544C274.356 553.396 273.122 554.871 270.982 554.987C268.817 555.102 266.677 554.467 264.613 554.033C263.631 553.802 262.246 553.685 260.408 553.598C258.57 553.483 257.513 552.875 257.11 550.676C256.934 549.605 256.808 548.65 256.783 547.753C256.708 546.538 256.657 545.381 256.632 544.311C256.581 543.241 256.934 542.719 257.563 541.996C257.815 541.706 257.891 541.215 257.967 540.838C258.017 540.491 258.244 540.173 258.571 540.202C259.125 540.231 259.729 540.115 260.333 539.768C262.246 538.697 263.254 536.875 264.412 534.936C265.041 533.836 265.746 532.823 266.577 531.695C266.627 531.608 266.652 531.522 266.652 531.435C266.753 530.22 266.752 529.004 266.274 527.846C265.519 526.11 265.368 524.172 266.526 522.667C267.206 521.8 268.087 521.742 268.994 521.625C270.001 521.452 270.882 521.047 271.134 519.802C271.259 519.368 271.411 518.992 271.663 518.645C271.713 518.558 271.738 518.471 271.738 518.384C271.738 518.24 271.662 518.124 271.561 518.038C271.411 517.893 271.184 517.806 271.008 517.777C270.177 517.661 269.623 517.314 269.245 516.706C268.54 515.548 268.213 513.899 268.616 512.568C268.893 511.758 269.598 511.614 270.051 512.307C270.73 513.377 271.511 514.188 272.719 514.449C272.996 514.478 273.323 514.39 273.55 514.275C273.977 513.985 274.43 513.667 274.909 513.378C275.287 513.147 275.439 512.8 275.665 512.423V512.427C276.068 511.675 277.075 511.502 277.755 511.473C278.762 511.415 279.593 511.329 280.223 511.212C280.525 511.183 280.827 511.009 281.204 510.75C281.666 510.378 282.255 510.128 282.836 510V550.833Z" fill="#5C5C5C"/>
<path d="M282.836 505.832C282.195 504.976 281.801 504.003 281.632 502.9C281.632 502.842 281.582 502.813 281.556 502.813H281.531C281.002 503.247 280.398 503.508 279.869 503.883C279.064 504.491 278.233 505.099 277.402 505.735C277.025 505.995 276.596 506.197 276.193 506.284C275.992 506.341 275.816 506.371 275.665 506.457C275.64 506.457 275.589 506.515 275.564 506.544C274.356 508.396 273.122 509.871 270.982 509.987C268.817 510.102 266.677 509.467 264.613 509.033C263.631 508.801 262.246 508.685 260.408 508.598C258.57 508.482 257.513 507.875 257.11 505.676C256.934 504.605 256.808 503.65 256.783 502.753C256.708 501.538 256.657 500.381 256.632 499.311C256.581 498.241 256.934 497.719 257.563 496.995C257.815 496.706 257.891 496.214 257.967 495.838C258.017 495.491 258.244 495.173 258.571 495.202C259.125 495.23 259.729 495.115 260.333 494.768C262.246 493.697 263.254 491.875 264.412 489.936C265.041 488.836 265.746 487.823 266.577 486.695C266.627 486.608 266.652 486.522 266.652 486.435C266.753 485.22 266.752 484.004 266.274 482.846C265.519 481.11 265.368 479.171 266.526 477.667C267.206 476.799 268.087 476.742 268.994 476.625C270.001 476.452 270.882 476.047 271.134 474.802C271.259 474.368 271.411 473.992 271.663 473.645C271.713 473.558 271.738 473.471 271.738 473.384C271.738 473.24 271.662 473.124 271.561 473.037C271.411 472.893 271.184 472.806 271.008 472.777C270.177 472.661 269.623 472.313 269.245 471.705C268.54 470.548 268.213 468.898 268.616 467.568C268.893 466.758 269.598 466.614 270.051 467.307C270.73 468.377 271.511 469.188 272.719 469.449C272.996 469.478 273.323 469.39 273.55 469.275C273.977 468.985 274.43 468.667 274.909 468.378C275.287 468.147 275.439 467.799 275.665 467.423V467.427C276.068 466.675 277.075 466.502 277.755 466.473C278.762 466.415 279.593 466.328 280.223 466.212C280.525 466.183 280.827 466.009 281.204 465.749C281.666 465.378 282.255 465.128 282.836 465V505.832Z" fill="#5C5C5C"/>
<path d="M282.836 460.832C282.195 459.976 281.801 459.003 281.632 457.9C281.632 457.842 281.582 457.813 281.556 457.813H281.531C281.002 458.247 280.398 458.507 279.869 458.883C279.064 459.491 278.233 460.098 277.402 460.735C277.025 460.995 276.596 461.197 276.193 461.283C275.992 461.341 275.816 461.371 275.665 461.457C275.64 461.457 275.589 461.515 275.564 461.544C274.356 463.395 273.122 464.871 270.982 464.987C268.817 465.102 266.677 464.466 264.613 464.032C263.631 463.801 262.246 463.685 260.408 463.598C258.57 463.482 257.513 462.875 257.11 460.676C256.934 459.605 256.808 458.65 256.783 457.753C256.708 456.538 256.657 455.381 256.632 454.311C256.581 453.241 256.934 452.719 257.563 451.995C257.815 451.706 257.891 451.214 257.967 450.838C258.017 450.491 258.244 450.173 258.571 450.201C259.125 450.23 259.729 450.115 260.333 449.768C262.246 448.697 263.254 446.875 264.412 444.936C265.041 443.836 265.746 442.823 266.577 441.695C266.627 441.608 266.652 441.522 266.652 441.435C266.753 440.22 266.752 439.003 266.274 437.846C265.519 436.11 265.368 434.171 266.526 432.667C267.206 431.799 268.087 431.741 268.994 431.625C270.001 431.452 270.882 431.047 271.134 429.802C271.259 429.368 271.411 428.992 271.663 428.645C271.713 428.558 271.738 428.471 271.738 428.384C271.738 428.24 271.662 428.124 271.561 428.037C271.411 427.893 271.184 427.806 271.008 427.777C270.177 427.661 269.623 427.313 269.245 426.705C268.54 425.548 268.213 423.898 268.616 422.568C268.893 421.758 269.598 421.613 270.051 422.307C270.73 423.377 271.511 424.188 272.719 424.448C272.996 424.477 273.323 424.39 273.55 424.275C273.977 423.985 274.43 423.667 274.909 423.378C275.287 423.146 275.439 422.799 275.665 422.423V422.427C276.068 421.675 277.075 421.502 277.755 421.473C278.762 421.415 279.593 421.328 280.223 421.212C280.525 421.183 280.827 421.009 281.204 420.749C281.666 420.378 282.255 420.128 282.836 420V460.832Z" fill="#5C5C5C"/>
<path d="M282.836 415.832C282.195 414.976 281.801 414.003 281.632 412.9C281.632 412.842 281.582 412.813 281.556 412.813H281.531C281.002 413.247 280.398 413.507 279.869 413.883C279.064 414.491 278.233 415.098 277.402 415.734C277.025 415.995 276.596 416.197 276.193 416.283C275.992 416.341 275.816 416.371 275.665 416.457C275.64 416.457 275.589 416.515 275.564 416.544C274.356 418.395 273.122 419.871 270.982 419.986C268.817 420.102 266.677 419.466 264.613 419.032C263.631 418.801 262.246 418.684 260.408 418.598C258.57 418.482 257.513 417.874 257.11 415.676C256.934 414.605 256.808 413.65 256.783 412.753C256.708 411.538 256.657 410.381 256.632 409.311C256.581 408.24 256.934 407.719 257.563 406.995C257.815 406.706 257.891 406.214 257.967 405.838C258.017 405.491 258.244 405.172 258.571 405.201C259.125 405.23 259.729 405.115 260.333 404.768C262.246 403.697 263.254 401.874 264.412 399.936C265.041 398.836 265.746 397.823 266.577 396.694C266.627 396.608 266.652 396.522 266.652 396.435C266.753 395.219 266.752 394.003 266.274 392.846C265.519 391.11 265.368 389.171 266.526 387.667C267.206 386.799 268.087 386.741 268.994 386.625C270.001 386.452 270.882 386.047 271.134 384.802C271.259 384.368 271.411 383.992 271.663 383.645C271.713 383.558 271.738 383.471 271.738 383.384C271.738 383.24 271.662 383.124 271.561 383.037C271.411 382.893 271.184 382.806 271.008 382.776C270.177 382.661 269.623 382.313 269.245 381.705C268.54 380.548 268.213 378.898 268.616 377.568C268.893 376.758 269.598 376.613 270.051 377.307C270.73 378.377 271.511 379.188 272.719 379.448C272.996 379.477 273.323 379.39 273.55 379.275C273.977 378.985 274.43 378.667 274.909 378.378C275.287 378.146 275.439 377.799 275.665 377.423V377.427C276.068 376.675 277.075 376.502 277.755 376.473C278.762 376.415 279.593 376.328 280.223 376.212C280.525 376.183 280.827 376.009 281.204 375.749C281.666 375.377 282.255 375.128 282.836 375V415.832Z" fill="#5C5C5C"/>
<path d="M282.836 370.832C282.195 369.976 281.801 369.002 281.632 367.899C281.632 367.842 281.582 367.813 281.556 367.812H281.531C281.002 368.246 280.398 368.507 279.869 368.883C279.064 369.491 278.233 370.098 277.402 370.734C277.025 370.995 276.596 371.197 276.193 371.283C275.992 371.341 275.816 371.37 275.665 371.457C275.64 371.457 275.589 371.515 275.564 371.544C274.356 373.395 273.122 374.871 270.982 374.986C268.817 375.102 266.677 374.466 264.613 374.032C263.631 373.801 262.246 373.684 260.408 373.598C258.57 373.482 257.513 372.874 257.11 370.676C256.934 369.605 256.808 368.65 256.783 367.753C256.708 366.538 256.657 365.381 256.632 364.311C256.581 363.24 256.934 362.719 257.563 361.995C257.815 361.706 257.891 361.214 257.967 360.838C258.017 360.491 258.244 360.172 258.571 360.201C259.125 360.23 259.729 360.115 260.333 359.768C262.246 358.697 263.254 356.874 264.412 354.936C265.041 353.836 265.746 352.823 266.577 351.694C266.627 351.608 266.652 351.522 266.652 351.435C266.753 350.219 266.752 349.003 266.274 347.846C265.519 346.11 265.368 344.171 266.526 342.667C267.206 341.799 268.087 341.741 268.994 341.625C270.001 341.452 270.882 341.046 271.134 339.802C271.259 339.368 271.411 338.992 271.663 338.645C271.713 338.558 271.738 338.471 271.738 338.384C271.738 338.239 271.662 338.124 271.561 338.037C271.411 337.893 271.184 337.806 271.008 337.776C270.177 337.661 269.623 337.313 269.245 336.705C268.54 335.548 268.213 333.898 268.616 332.567C268.893 331.758 269.598 331.613 270.051 332.307C270.73 333.377 271.511 334.188 272.719 334.448C272.996 334.477 273.323 334.39 273.55 334.274C273.977 333.985 274.43 333.667 274.909 333.378C275.287 333.146 275.439 332.799 275.665 332.423V332.427C276.068 331.674 277.075 331.502 277.755 331.473C278.762 331.415 279.593 331.328 280.223 331.212C280.525 331.183 280.827 331.009 281.204 330.749C281.666 330.377 282.255 330.128 282.836 330V370.832Z" fill="#5C5C5C"/>
<path d="M322.045 595.833C321.404 594.976 321.01 594.003 320.841 592.9C320.841 592.843 320.791 592.813 320.765 592.813H320.74C320.211 593.247 319.607 593.508 319.078 593.883C318.273 594.491 317.442 595.099 316.611 595.735C316.234 595.996 315.805 596.197 315.402 596.284C315.201 596.342 315.025 596.371 314.874 596.458C314.849 596.458 314.798 596.516 314.773 596.545C313.565 598.396 312.331 599.871 310.191 599.987C308.026 600.102 305.886 599.467 303.822 599.033C302.84 598.802 301.455 598.685 299.617 598.598C297.779 598.483 296.722 597.875 296.319 595.676C296.143 594.606 296.017 593.65 295.992 592.754C295.917 591.538 295.866 590.381 295.841 589.311C295.79 588.241 296.143 587.719 296.772 586.996C297.024 586.706 297.1 586.215 297.176 585.839C297.226 585.491 297.453 585.173 297.78 585.202C298.334 585.231 298.938 585.115 299.542 584.768C301.455 583.697 302.463 581.875 303.621 579.936C304.25 578.837 304.955 577.823 305.786 576.695C305.836 576.609 305.861 576.522 305.861 576.435C305.962 575.22 305.961 574.004 305.483 572.846C304.728 571.111 304.577 569.172 305.735 567.668C306.415 566.8 307.296 566.742 308.203 566.626C309.21 566.452 310.091 566.047 310.343 564.802C310.468 564.369 310.62 563.992 310.872 563.645C310.922 563.559 310.947 563.472 310.947 563.384C310.947 563.24 310.871 563.124 310.77 563.038C310.62 562.893 310.393 562.807 310.217 562.777C309.386 562.661 308.832 562.314 308.454 561.706C307.749 560.548 307.422 558.899 307.825 557.568C308.102 556.758 308.807 556.614 309.26 557.307C309.939 558.377 310.72 559.188 311.928 559.449C312.205 559.478 312.532 559.391 312.759 559.275C313.186 558.986 313.639 558.667 314.118 558.379C314.496 558.147 314.648 557.8 314.874 557.423V557.427C315.277 556.675 316.284 556.502 316.964 556.473C317.971 556.415 318.802 556.329 319.431 556.213C319.734 556.184 320.036 556.009 320.413 555.75C320.875 555.378 321.464 555.129 322.045 555.001V595.833Z" fill="#5C5C5C"/>
<path d="M322.045 550.833C321.404 549.976 321.01 549.003 320.841 547.9C320.841 547.842 320.791 547.813 320.765 547.813H320.74C320.211 548.247 319.607 548.508 319.078 548.883C318.273 549.491 317.442 550.099 316.611 550.735C316.234 550.995 315.805 551.197 315.402 551.284C315.201 551.341 315.025 551.371 314.874 551.458C314.849 551.458 314.798 551.516 314.773 551.544C313.565 553.396 312.331 554.871 310.191 554.987C308.026 555.102 305.886 554.467 303.822 554.033C302.84 553.802 301.455 553.685 299.617 553.598C297.779 553.483 296.722 552.875 296.319 550.676C296.143 549.605 296.017 548.65 295.992 547.753C295.917 546.538 295.866 545.381 295.841 544.311C295.79 543.241 296.143 542.719 296.772 541.996C297.024 541.706 297.1 541.215 297.176 540.838C297.226 540.491 297.453 540.173 297.78 540.202C298.334 540.231 298.938 540.115 299.542 539.768C301.455 538.697 302.463 536.875 303.621 534.936C304.25 533.836 304.955 532.823 305.786 531.695C305.836 531.608 305.861 531.522 305.861 531.435C305.962 530.22 305.961 529.004 305.483 527.846C304.728 526.11 304.577 524.172 305.735 522.667C306.415 521.8 307.296 521.742 308.203 521.625C309.21 521.452 310.091 521.047 310.343 519.802C310.468 519.368 310.62 518.992 310.872 518.645C310.922 518.558 310.947 518.471 310.947 518.384C310.947 518.24 310.871 518.124 310.77 518.038C310.62 517.893 310.393 517.806 310.217 517.777C309.386 517.661 308.832 517.314 308.454 516.706C307.749 515.548 307.422 513.899 307.825 512.568C308.102 511.758 308.807 511.614 309.26 512.307C309.939 513.377 310.72 514.188 311.928 514.449C312.205 514.478 312.532 514.39 312.759 514.275C313.186 513.985 313.639 513.667 314.118 513.378C314.496 513.147 314.648 512.8 314.874 512.423V512.427C315.277 511.675 316.284 511.502 316.964 511.473C317.971 511.415 318.802 511.329 319.431 511.212C319.734 511.183 320.036 511.009 320.413 510.75C320.875 510.378 321.464 510.128 322.045 510V550.833Z" fill="#5C5C5C"/>
<path d="M322.045 505.832C321.404 504.976 321.01 504.003 320.841 502.9C320.841 502.842 320.791 502.813 320.765 502.813H320.74C320.211 503.247 319.607 503.508 319.078 503.883C318.273 504.491 317.442 505.099 316.611 505.735C316.234 505.995 315.805 506.197 315.402 506.284C315.201 506.341 315.025 506.371 314.874 506.457C314.849 506.457 314.798 506.515 314.773 506.544C313.565 508.396 312.331 509.871 310.191 509.987C308.026 510.102 305.886 509.467 303.822 509.033C302.84 508.801 301.455 508.685 299.617 508.598C297.779 508.482 296.722 507.875 296.319 505.676C296.143 504.605 296.017 503.65 295.992 502.753C295.917 501.538 295.866 500.381 295.841 499.311C295.79 498.241 296.143 497.719 296.772 496.995C297.024 496.706 297.1 496.214 297.176 495.838C297.226 495.491 297.453 495.173 297.78 495.202C298.334 495.23 298.938 495.115 299.542 494.768C301.455 493.697 302.463 491.875 303.621 489.936C304.25 488.836 304.955 487.823 305.786 486.695C305.836 486.608 305.861 486.522 305.861 486.435C305.962 485.22 305.961 484.004 305.483 482.846C304.728 481.11 304.577 479.171 305.735 477.667C306.415 476.799 307.296 476.742 308.203 476.625C309.21 476.452 310.091 476.047 310.343 474.802C310.468 474.368 310.62 473.992 310.872 473.645C310.922 473.558 310.947 473.471 310.947 473.384C310.947 473.24 310.871 473.124 310.77 473.037C310.62 472.893 310.393 472.806 310.217 472.777C309.386 472.661 308.832 472.313 308.454 471.705C307.749 470.548 307.422 468.898 307.825 467.568C308.102 466.758 308.807 466.614 309.26 467.307C309.939 468.377 310.72 469.188 311.928 469.449C312.205 469.478 312.532 469.39 312.759 469.275C313.186 468.985 313.639 468.667 314.118 468.378C314.496 468.147 314.648 467.799 314.874 467.423V467.427C315.277 466.675 316.284 466.502 316.964 466.473C317.971 466.415 318.802 466.328 319.431 466.212C319.734 466.183 320.036 466.009 320.413 465.749C320.875 465.378 321.464 465.128 322.045 465V505.832Z" fill="#5C5C5C"/>
<path d="M322.045 460.832C321.404 459.976 321.01 459.003 320.841 457.9C320.841 457.842 320.791 457.813 320.765 457.813H320.74C320.211 458.247 319.607 458.507 319.078 458.883C318.273 459.491 317.442 460.098 316.611 460.735C316.234 460.995 315.805 461.197 315.402 461.283C315.201 461.341 315.025 461.371 314.874 461.457C314.849 461.457 314.798 461.515 314.773 461.544C313.565 463.395 312.331 464.871 310.191 464.987C308.026 465.102 305.886 464.466 303.822 464.032C302.84 463.801 301.455 463.685 299.617 463.598C297.779 463.482 296.722 462.875 296.319 460.676C296.143 459.605 296.017 458.65 295.992 457.753C295.917 456.538 295.866 455.381 295.841 454.311C295.79 453.241 296.143 452.719 296.772 451.995C297.024 451.706 297.1 451.214 297.176 450.838C297.226 450.491 297.453 450.173 297.78 450.201C298.334 450.23 298.938 450.115 299.542 449.768C301.455 448.697 302.463 446.875 303.621 444.936C304.25 443.836 304.955 442.823 305.786 441.695C305.836 441.608 305.861 441.522 305.861 441.435C305.962 440.22 305.961 439.003 305.483 437.846C304.728 436.11 304.577 434.171 305.735 432.667C306.415 431.799 307.296 431.741 308.203 431.625C309.21 431.452 310.091 431.047 310.343 429.802C310.468 429.368 310.62 428.992 310.872 428.645C310.922 428.558 310.947 428.471 310.947 428.384C310.947 428.24 310.871 428.124 310.77 428.037C310.62 427.893 310.393 427.806 310.217 427.777C309.386 427.661 308.832 427.313 308.454 426.705C307.749 425.548 307.422 423.898 307.825 422.568C308.102 421.758 308.807 421.613 309.26 422.307C309.939 423.377 310.72 424.188 311.928 424.448C312.205 424.477 312.532 424.39 312.759 424.275C313.186 423.985 313.639 423.667 314.118 423.378C314.496 423.146 314.648 422.799 314.874 422.423V422.427C315.277 421.675 316.284 421.502 316.964 421.473C317.971 421.415 318.802 421.328 319.431 421.212C319.734 421.183 320.036 421.009 320.413 420.749C320.875 420.378 321.464 420.128 322.045 420V460.832Z" fill="#5C5C5C"/>
<path d="M322.045 415.832C321.404 414.976 321.01 414.003 320.841 412.9C320.841 412.842 320.791 412.813 320.765 412.813H320.74C320.211 413.247 319.607 413.507 319.078 413.883C318.273 414.491 317.442 415.098 316.611 415.734C316.234 415.995 315.805 416.197 315.402 416.283C315.201 416.341 315.025 416.371 314.874 416.457C314.849 416.457 314.798 416.515 314.773 416.544C313.565 418.395 312.331 419.871 310.191 419.986C308.026 420.102 305.886 419.466 303.822 419.032C302.84 418.801 301.455 418.684 299.617 418.598C297.779 418.482 296.722 417.874 296.319 415.676C296.143 414.605 296.017 413.65 295.992 412.753C295.917 411.538 295.866 410.381 295.841 409.311C295.79 408.24 296.143 407.719 296.772 406.995C297.024 406.706 297.1 406.214 297.176 405.838C297.226 405.491 297.453 405.172 297.78 405.201C298.334 405.23 298.938 405.115 299.542 404.768C301.455 403.697 302.463 401.874 303.621 399.936C304.25 398.836 304.955 397.823 305.786 396.694C305.836 396.608 305.861 396.522 305.861 396.435C305.962 395.219 305.961 394.003 305.483 392.846C304.728 391.11 304.577 389.171 305.735 387.667C306.415 386.799 307.296 386.741 308.203 386.625C309.21 386.452 310.091 386.047 310.343 384.802C310.468 384.368 310.62 383.992 310.872 383.645C310.922 383.558 310.947 383.471 310.947 383.384C310.947 383.24 310.871 383.124 310.77 383.037C310.62 382.893 310.393 382.806 310.217 382.776C309.386 382.661 308.832 382.313 308.454 381.705C307.749 380.548 307.422 378.898 307.825 377.568C308.102 376.758 308.807 376.613 309.26 377.307C309.939 378.377 310.72 379.188 311.928 379.448C312.205 379.477 312.532 379.39 312.759 379.275C313.186 378.985 313.639 378.667 314.118 378.378C314.496 378.146 314.648 377.799 314.874 377.423V377.427C315.277 376.675 316.284 376.502 316.964 376.473C317.971 376.415 318.802 376.328 319.431 376.212C319.734 376.183 320.036 376.009 320.413 375.749C320.875 375.377 321.464 375.128 322.045 375V415.832Z" fill="#5C5C5C"/>
<path d="M322.045 370.832C321.404 369.976 321.01 369.002 320.841 367.899C320.841 367.842 320.791 367.813 320.765 367.812H320.74C320.211 368.246 319.607 368.507 319.078 368.883C318.273 369.491 317.442 370.098 316.611 370.734C316.234 370.995 315.805 371.197 315.402 371.283C315.201 371.341 315.025 371.37 314.874 371.457C314.849 371.457 314.798 371.515 314.773 371.544C313.565 373.395 312.331 374.871 310.191 374.986C308.026 375.102 305.886 374.466 303.822 374.032C302.84 373.801 301.455 373.684 299.617 373.598C297.779 373.482 296.722 372.874 296.319 370.676C296.143 369.605 296.017 368.65 295.992 367.753C295.917 366.538 295.866 365.381 295.841 364.311C295.79 363.24 296.143 362.719 296.772 361.995C297.024 361.706 297.1 361.214 297.176 360.838C297.226 360.491 297.453 360.172 297.78 360.201C298.334 360.23 298.938 360.115 299.542 359.768C301.455 358.697 302.463 356.874 303.621 354.936C304.25 353.836 304.955 352.823 305.786 351.694C305.836 351.608 305.861 351.522 305.861 351.435C305.962 350.219 305.961 349.003 305.483 347.846C304.728 346.11 304.577 344.171 305.735 342.667C306.415 341.799 307.296 341.741 308.203 341.625C309.21 341.452 310.091 341.046 310.343 339.802C310.468 339.368 310.62 338.992 310.872 338.645C310.922 338.558 310.947 338.471 310.947 338.384C310.947 338.239 310.871 338.124 310.77 338.037C310.62 337.893 310.393 337.806 310.217 337.776C309.386 337.661 308.832 337.313 308.454 336.705C307.749 335.548 307.422 333.898 307.825 332.567C308.102 331.758 308.807 331.613 309.26 332.307C309.939 333.377 310.72 334.188 311.928 334.448C312.205 334.477 312.532 334.39 312.759 334.274C313.186 333.985 313.639 333.667 314.118 333.378C314.496 333.146 314.648 332.799 314.874 332.423V332.427C315.277 331.674 316.284 331.502 316.964 331.473C317.971 331.415 318.802 331.328 319.431 331.212C319.734 331.183 320.036 331.009 320.413 330.749C320.875 330.377 321.464 330.128 322.045 330V370.832Z" fill="#5C5C5C"/>
<path d="M361.254 595.833C360.613 594.976 360.219 594.003 360.05 592.9C360.05 592.843 360 592.813 359.974 592.813H359.949C359.42 593.247 358.816 593.508 358.287 593.883C357.482 594.491 356.651 595.099 355.82 595.735C355.443 595.996 355.014 596.197 354.611 596.284C354.41 596.342 354.234 596.371 354.083 596.458C354.058 596.458 354.007 596.516 353.982 596.545C352.774 598.396 351.54 599.871 349.4 599.987C347.235 600.102 345.095 599.467 343.031 599.033C342.049 598.802 340.664 598.685 338.826 598.598C336.988 598.483 335.931 597.875 335.528 595.676C335.352 594.606 335.226 593.65 335.201 592.754C335.126 591.538 335.075 590.381 335.05 589.311C334.999 588.241 335.352 587.719 335.981 586.996C336.233 586.706 336.309 586.215 336.385 585.839C336.435 585.491 336.662 585.173 336.989 585.202C337.543 585.231 338.147 585.115 338.751 584.768C340.664 583.697 341.672 581.875 342.83 579.936C343.459 578.837 344.164 577.823 344.995 576.695C345.045 576.609 345.07 576.522 345.07 576.435C345.171 575.22 345.17 574.004 344.692 572.846C343.937 571.111 343.786 569.172 344.944 567.668C345.624 566.8 346.505 566.742 347.412 566.626C348.419 566.452 349.3 566.047 349.552 564.802C349.677 564.369 349.829 563.992 350.081 563.645C350.131 563.559 350.156 563.472 350.156 563.384C350.156 563.24 350.08 563.124 349.979 563.038C349.829 562.893 349.602 562.807 349.426 562.777C348.595 562.661 348.041 562.314 347.663 561.706C346.958 560.548 346.631 558.899 347.034 557.568C347.311 556.758 348.016 556.614 348.469 557.307C349.148 558.377 349.929 559.188 351.137 559.449C351.414 559.478 351.741 559.391 351.968 559.275C352.395 558.986 352.848 558.667 353.327 558.379C353.705 558.147 353.857 557.8 354.083 557.423V557.427C354.486 556.675 355.493 556.502 356.173 556.473C357.18 556.415 358.011 556.329 358.64 556.213C358.942 556.184 359.245 556.009 359.622 555.75C360.084 555.378 360.673 555.129 361.254 555.001V595.833Z" fill="#5C5C5C"/>
<path d="M361.254 550.833C360.613 549.976 360.219 549.003 360.05 547.9C360.05 547.842 360 547.813 359.974 547.813H359.949C359.42 548.247 358.816 548.508 358.287 548.883C357.482 549.491 356.651 550.099 355.82 550.735C355.443 550.995 355.014 551.197 354.611 551.284C354.41 551.341 354.234 551.371 354.083 551.458C354.058 551.458 354.007 551.516 353.982 551.544C352.774 553.396 351.54 554.871 349.4 554.987C347.235 555.102 345.095 554.467 343.031 554.033C342.049 553.802 340.664 553.685 338.826 553.598C336.988 553.483 335.931 552.875 335.528 550.676C335.352 549.605 335.226 548.65 335.201 547.753C335.126 546.538 335.075 545.381 335.05 544.311C334.999 543.241 335.352 542.719 335.981 541.996C336.233 541.706 336.309 541.215 336.385 540.838C336.435 540.491 336.662 540.173 336.989 540.202C337.543 540.231 338.147 540.115 338.751 539.768C340.664 538.697 341.672 536.875 342.83 534.936C343.459 533.836 344.164 532.823 344.995 531.695C345.045 531.608 345.07 531.522 345.07 531.435C345.171 530.22 345.17 529.004 344.692 527.846C343.937 526.11 343.786 524.172 344.944 522.667C345.624 521.8 346.505 521.742 347.412 521.625C348.419 521.452 349.3 521.047 349.552 519.802C349.677 519.368 349.829 518.992 350.081 518.645C350.131 518.558 350.156 518.471 350.156 518.384C350.156 518.24 350.08 518.124 349.979 518.038C349.829 517.893 349.602 517.806 349.426 517.777C348.595 517.661 348.041 517.314 347.663 516.706C346.958 515.548 346.631 513.899 347.034 512.568C347.311 511.758 348.016 511.614 348.469 512.307C349.148 513.377 349.929 514.188 351.137 514.449C351.414 514.478 351.741 514.39 351.968 514.275C352.395 513.985 352.848 513.667 353.327 513.378C353.705 513.147 353.857 512.8 354.083 512.423V512.427C354.486 511.675 355.493 511.502 356.173 511.473C357.18 511.415 358.011 511.329 358.64 511.212C358.942 511.183 359.245 511.009 359.622 510.75C360.084 510.378 360.673 510.128 361.254 510V550.833Z" fill="#5C5C5C"/>
<path d="M361.254 505.832C360.613 504.976 360.219 504.003 360.05 502.9C360.05 502.842 360 502.813 359.974 502.813H359.949C359.42 503.247 358.816 503.508 358.287 503.883C357.482 504.491 356.651 505.099 355.82 505.735C355.443 505.995 355.014 506.197 354.611 506.284C354.41 506.341 354.234 506.371 354.083 506.457C354.058 506.457 354.007 506.515 353.982 506.544C352.774 508.396 351.54 509.871 349.4 509.987C347.235 510.102 345.095 509.467 343.031 509.033C342.049 508.801 340.664 508.685 338.826 508.598C336.988 508.482 335.931 507.875 335.528 505.676C335.352 504.605 335.226 503.65 335.201 502.753C335.126 501.538 335.075 500.381 335.05 499.311C334.999 498.241 335.352 497.719 335.981 496.995C336.233 496.706 336.309 496.214 336.385 495.838C336.435 495.491 336.662 495.173 336.989 495.202C337.543 495.23 338.147 495.115 338.751 494.768C340.664 493.697 341.672 491.875 342.83 489.936C343.459 488.836 344.164 487.823 344.995 486.695C345.045 486.608 345.07 486.522 345.07 486.435C345.171 485.22 345.17 484.004 344.692 482.846C343.937 481.11 343.786 479.171 344.944 477.667C345.624 476.799 346.505 476.742 347.412 476.625C348.419 476.452 349.3 476.047 349.552 474.802C349.677 474.368 349.829 473.992 350.081 473.645C350.131 473.558 350.156 473.471 350.156 473.384C350.156 473.24 350.08 473.124 349.979 473.037C349.829 472.893 349.602 472.806 349.426 472.777C348.595 472.661 348.041 472.313 347.663 471.705C346.958 470.548 346.631 468.898 347.034 467.568C347.311 466.758 348.016 466.614 348.469 467.307C349.148 468.377 349.929 469.188 351.137 469.449C351.414 469.478 351.741 469.39 351.968 469.275C352.395 468.985 352.848 468.667 353.327 468.378C353.705 468.147 353.857 467.799 354.083 467.423V467.427C354.486 466.675 355.493 466.502 356.173 466.473C357.18 466.415 358.011 466.328 358.64 466.212C358.942 466.183 359.245 466.009 359.622 465.749C360.084 465.378 360.673 465.128 361.254 465V505.832Z" fill="#5C5C5C"/>
<path d="M361.254 460.832C360.613 459.976 360.219 459.003 360.05 457.9C360.05 457.842 360 457.813 359.974 457.813H359.949C359.42 458.247 358.816 458.507 358.287 458.883C357.482 459.491 356.651 460.098 355.82 460.735C355.443 460.995 355.014 461.197 354.611 461.283C354.41 461.341 354.234 461.371 354.083 461.457C354.058 461.457 354.007 461.515 353.982 461.544C352.774 463.395 351.54 464.871 349.4 464.987C347.235 465.102 345.095 464.466 343.031 464.032C342.049 463.801 340.664 463.685 338.826 463.598C336.988 463.482 335.931 462.875 335.528 460.676C335.352 459.605 335.226 458.65 335.201 457.753C335.126 456.538 335.075 455.381 335.05 454.311C334.999 453.241 335.352 452.719 335.981 451.995C336.233 451.706 336.309 451.214 336.385 450.838C336.435 450.491 336.662 450.173 336.989 450.201C337.543 450.23 338.147 450.115 338.751 449.768C340.664 448.697 341.672 446.875 342.83 444.936C343.459 443.836 344.164 442.823 344.995 441.695C345.045 441.608 345.07 441.522 345.07 441.435C345.171 440.22 345.17 439.003 344.692 437.846C343.937 436.11 343.786 434.171 344.944 432.667C345.624 431.799 346.505 431.741 347.412 431.625C348.419 431.452 349.3 431.047 349.552 429.802C349.677 429.368 349.829 428.992 350.081 428.645C350.131 428.558 350.156 428.471 350.156 428.384C350.156 428.24 350.08 428.124 349.979 428.037C349.829 427.893 349.602 427.806 349.426 427.777C348.595 427.661 348.041 427.313 347.663 426.705C346.958 425.548 346.631 423.898 347.034 422.568C347.311 421.758 348.016 421.613 348.469 422.307C349.148 423.377 349.929 424.188 351.137 424.448C351.414 424.477 351.741 424.39 351.968 424.275C352.395 423.985 352.848 423.667 353.327 423.378C353.705 423.146 353.857 422.799 354.083 422.423V422.427C354.486 421.675 355.493 421.502 356.173 421.473C357.18 421.415 358.011 421.328 358.64 421.212C358.942 421.183 359.245 421.009 359.622 420.749C360.084 420.378 360.673 420.128 361.254 420V460.832Z" fill="#5C5C5C"/>
<path d="M361.254 415.832C360.613 414.976 360.219 414.003 360.05 412.9C360.05 412.842 360 412.813 359.974 412.813H359.949C359.42 413.247 358.816 413.507 358.287 413.883C357.482 414.491 356.651 415.098 355.82 415.734C355.443 415.995 355.014 416.197 354.611 416.283C354.41 416.341 354.234 416.371 354.083 416.457C354.058 416.457 354.007 416.515 353.982 416.544C352.774 418.395 351.54 419.871 349.4 419.986C347.235 420.102 345.095 419.466 343.031 419.032C342.049 418.801 340.664 418.684 338.826 418.598C336.988 418.482 335.931 417.874 335.528 415.676C335.352 414.605 335.226 413.65 335.201 412.753C335.126 411.538 335.075 410.381 335.05 409.311C334.999 408.24 335.352 407.719 335.981 406.995C336.233 406.706 336.309 406.214 336.385 405.838C336.435 405.491 336.662 405.172 336.989 405.201C337.543 405.23 338.147 405.115 338.751 404.768C340.664 403.697 341.672 401.874 342.83 399.936C343.459 398.836 344.164 397.823 344.995 396.694C345.045 396.608 345.07 396.522 345.07 396.435C345.171 395.219 345.17 394.003 344.692 392.846C343.937 391.11 343.786 389.171 344.944 387.667C345.624 386.799 346.505 386.741 347.412 386.625C348.419 386.452 349.3 386.047 349.552 384.802C349.677 384.368 349.829 383.992 350.081 383.645C350.131 383.558 350.156 383.471 350.156 383.384C350.156 383.24 350.08 383.124 349.979 383.037C349.829 382.893 349.602 382.806 349.426 382.776C348.595 382.661 348.041 382.313 347.663 381.705C346.958 380.548 346.631 378.898 347.034 377.568C347.311 376.758 348.016 376.613 348.469 377.307C349.148 378.377 349.929 379.188 351.137 379.448C351.414 379.477 351.741 379.39 351.968 379.275C352.395 378.985 352.848 378.667 353.327 378.378C353.705 378.146 353.857 377.799 354.083 377.423V377.427C354.486 376.675 355.493 376.502 356.173 376.473C357.18 376.415 358.011 376.328 358.64 376.212C358.942 376.183 359.245 376.009 359.622 375.749C360.084 375.377 360.673 375.128 361.254 375V415.832Z" fill="#5C5C5C"/>
</g>
<defs>
<clipPath id="clip0_276_2658">
<rect width="500" height="600" fill="white"/>
</clipPath>
</defs>
</svg>
