<svg width="500" height="600" viewBox="0 0 500 600" fill="none" xmlns="http://www.w3.org/2000/svg">
<path d="M165.209 452.833C164.568 451.976 164.174 451.003 164.005 449.9C164.005 449.843 163.955 449.813 163.93 449.813H163.904C163.375 450.247 162.771 450.508 162.242 450.883C161.437 451.491 160.606 452.099 159.775 452.735C159.398 452.996 158.969 453.197 158.566 453.284C158.365 453.342 158.189 453.371 158.038 453.458C158.013 453.458 157.962 453.516 157.937 453.545C156.729 455.396 155.495 456.871 153.355 456.987C151.19 457.102 149.05 456.467 146.986 456.033C146.004 455.802 144.619 455.685 142.781 455.598C140.943 455.483 139.886 454.875 139.483 452.676C139.307 451.606 139.181 450.65 139.156 449.754C139.081 448.538 139.03 447.381 139.005 446.311C138.954 445.241 139.307 444.719 139.936 443.996C140.188 443.706 140.264 443.215 140.34 442.839C140.39 442.491 140.617 442.173 140.944 442.202C141.498 442.231 142.102 442.115 142.706 441.768C144.619 440.697 145.627 438.875 146.785 436.936C147.415 435.837 148.119 434.823 148.95 433.695C149 433.609 149.025 433.522 149.025 433.435C149.126 432.22 149.125 431.004 148.647 429.846C147.892 428.111 147.741 426.172 148.899 424.668C149.579 423.8 150.46 423.742 151.367 423.626C152.374 423.452 153.255 423.047 153.507 421.802C153.632 421.369 153.784 420.992 154.036 420.645C154.086 420.559 154.111 420.472 154.111 420.384C154.111 420.24 154.035 420.124 153.934 420.038C153.784 419.893 153.557 419.807 153.381 419.777C152.55 419.661 151.996 419.314 151.618 418.706C150.913 417.548 150.586 415.899 150.989 414.568C151.266 413.758 151.971 413.614 152.424 414.307C153.103 415.377 153.884 416.188 155.092 416.449C155.369 416.478 155.696 416.391 155.923 416.275C156.35 415.986 156.804 415.667 157.282 415.379C157.66 415.147 157.812 414.8 158.038 414.423V414.427C158.441 413.675 159.448 413.502 160.128 413.473C161.135 413.415 161.966 413.329 162.596 413.213C162.898 413.184 163.2 413.009 163.577 412.75C164.039 412.378 164.628 412.129 165.209 412.001V452.833Z" fill="#C2C2C2"/>
<path d="M165.209 407.833C164.568 406.976 164.174 406.003 164.005 404.9C164.005 404.842 163.955 404.813 163.93 404.813H163.904C163.375 405.247 162.771 405.508 162.242 405.883C161.437 406.491 160.606 407.099 159.775 407.735C159.398 407.995 158.969 408.197 158.566 408.284C158.365 408.341 158.189 408.371 158.038 408.458C158.013 408.458 157.962 408.516 157.937 408.544C156.729 410.396 155.495 411.871 153.355 411.987C151.19 412.102 149.05 411.467 146.986 411.033C146.004 410.802 144.619 410.685 142.781 410.598C140.943 410.483 139.886 409.875 139.483 407.676C139.307 406.605 139.181 405.65 139.156 404.753C139.081 403.538 139.03 402.381 139.005 401.311C138.954 400.241 139.307 399.719 139.936 398.996C140.188 398.706 140.264 398.215 140.34 397.838C140.39 397.491 140.617 397.173 140.944 397.202C141.498 397.231 142.102 397.115 142.706 396.768C144.619 395.697 145.627 393.875 146.785 391.936C147.415 390.836 148.119 389.823 148.95 388.695C149 388.608 149.025 388.522 149.025 388.435C149.126 387.22 149.125 386.004 148.647 384.846C147.892 383.11 147.741 381.172 148.899 379.667C149.579 378.8 150.46 378.742 151.367 378.625C152.374 378.452 153.255 378.047 153.507 376.802C153.632 376.368 153.784 375.992 154.036 375.645C154.086 375.558 154.111 375.471 154.111 375.384C154.111 375.24 154.035 375.124 153.934 375.038C153.784 374.893 153.557 374.806 153.381 374.777C152.55 374.661 151.996 374.314 151.618 373.706C150.913 372.548 150.586 370.899 150.989 369.568C151.266 368.758 151.971 368.614 152.424 369.307C153.103 370.377 153.884 371.188 155.092 371.449C155.369 371.478 155.696 371.39 155.923 371.275C156.35 370.985 156.804 370.667 157.282 370.378C157.66 370.147 157.812 369.8 158.038 369.423V369.427C158.441 368.675 159.448 368.502 160.128 368.473C161.135 368.415 161.966 368.329 162.596 368.212C162.898 368.183 163.2 368.009 163.577 367.75C164.039 367.378 164.628 367.128 165.209 367V407.833Z" fill="#C2C2C2"/>
<path d="M165.209 362.832C164.568 361.976 164.174 361.003 164.005 359.9C164.005 359.842 163.955 359.813 163.93 359.813H163.904C163.375 360.247 162.771 360.508 162.242 360.883C161.437 361.491 160.606 362.099 159.775 362.735C159.398 362.995 158.969 363.197 158.566 363.284C158.365 363.341 158.189 363.371 158.038 363.457C158.013 363.457 157.962 363.515 157.937 363.544C156.729 365.396 155.495 366.871 153.355 366.987C151.19 367.102 149.05 366.467 146.986 366.033C146.004 365.801 144.619 365.685 142.781 365.598C140.943 365.482 139.886 364.875 139.483 362.676C139.307 361.605 139.181 360.65 139.156 359.753C139.081 358.538 139.03 357.381 139.005 356.311C138.954 355.241 139.307 354.719 139.936 353.995C140.188 353.706 140.264 353.214 140.34 352.838C140.39 352.491 140.617 352.173 140.944 352.202C141.498 352.23 142.102 352.115 142.706 351.768C144.619 350.697 145.627 348.875 146.785 346.936C147.415 345.836 148.119 344.823 148.95 343.695C149 343.608 149.025 343.522 149.025 343.435C149.126 342.22 149.125 341.004 148.647 339.846C147.892 338.11 147.741 336.171 148.899 334.667C149.579 333.799 150.46 333.742 151.367 333.625C152.374 333.452 153.255 333.047 153.507 331.802C153.632 331.368 153.784 330.992 154.036 330.645C154.086 330.558 154.111 330.471 154.111 330.384C154.111 330.24 154.035 330.124 153.934 330.037C153.784 329.893 153.557 329.806 153.381 329.777C152.55 329.661 151.996 329.313 151.618 328.705C150.913 327.548 150.586 325.898 150.989 324.568C151.266 323.758 151.971 323.614 152.424 324.307C153.103 325.377 153.884 326.188 155.092 326.449C155.369 326.478 155.696 326.39 155.923 326.275C156.35 325.985 156.804 325.667 157.282 325.378C157.66 325.147 157.812 324.799 158.038 324.423V324.427C158.441 323.675 159.448 323.502 160.128 323.473C161.135 323.415 161.966 323.328 162.596 323.212C162.898 323.183 163.2 323.009 163.577 322.749C164.039 322.378 164.628 322.128 165.209 322V362.832Z" fill="#C2C2C2"/>
<path d="M165.209 317.832C164.568 316.976 164.174 316.003 164.005 314.9C164.005 314.842 163.955 314.813 163.93 314.813H163.904C163.375 315.247 162.771 315.507 162.242 315.883C161.437 316.491 160.606 317.098 159.775 317.735C159.398 317.995 158.969 318.197 158.566 318.283C158.365 318.341 158.189 318.371 158.038 318.457C158.013 318.457 157.962 318.515 157.937 318.544C156.729 320.395 155.495 321.871 153.355 321.987C151.19 322.102 149.05 321.466 146.986 321.032C146.004 320.801 144.619 320.685 142.781 320.598C140.943 320.482 139.886 319.875 139.483 317.676C139.307 316.605 139.181 315.65 139.156 314.753C139.081 313.538 139.03 312.381 139.005 311.311C138.954 310.241 139.307 309.719 139.936 308.995C140.188 308.706 140.264 308.214 140.34 307.838C140.39 307.491 140.617 307.173 140.944 307.201C141.498 307.23 142.102 307.115 142.706 306.768C144.619 305.697 145.627 303.875 146.785 301.936C147.415 300.836 148.119 299.823 148.95 298.695C149 298.608 149.025 298.522 149.025 298.435C149.126 297.22 149.125 296.003 148.647 294.846C147.892 293.11 147.741 291.171 148.899 289.667C149.579 288.799 150.46 288.741 151.367 288.625C152.374 288.452 153.255 288.047 153.507 286.802C153.632 286.368 153.784 285.992 154.036 285.645C154.086 285.558 154.111 285.471 154.111 285.384C154.111 285.24 154.035 285.124 153.934 285.037C153.784 284.893 153.557 284.806 153.381 284.777C152.55 284.661 151.996 284.313 151.618 283.705C150.913 282.548 150.586 280.898 150.989 279.568C151.266 278.758 151.971 278.613 152.424 279.307C153.103 280.377 153.884 281.188 155.092 281.448C155.369 281.477 155.696 281.39 155.923 281.275C156.35 280.985 156.804 280.667 157.282 280.378C157.66 280.146 157.812 279.799 158.038 279.423V279.427C158.441 278.675 159.448 278.502 160.128 278.473C161.135 278.415 161.966 278.328 162.596 278.212C162.898 278.183 163.2 278.009 163.577 277.749C164.039 277.378 164.628 277.128 165.209 277V317.832Z" fill="#C2C2C2"/>
<path d="M165.209 272.832C164.568 271.976 164.174 271.003 164.005 269.9C164.005 269.842 163.955 269.813 163.93 269.813H163.904C163.375 270.247 162.771 270.507 162.242 270.883C161.437 271.491 160.606 272.098 159.775 272.734C159.398 272.995 158.969 273.197 158.566 273.283C158.365 273.341 158.189 273.371 158.038 273.457C158.013 273.457 157.962 273.515 157.937 273.544C156.729 275.395 155.495 276.871 153.355 276.986C151.19 277.102 149.05 276.466 146.986 276.032C146.004 275.801 144.619 275.684 142.781 275.598C140.943 275.482 139.886 274.874 139.483 272.676C139.307 271.605 139.181 270.65 139.156 269.753C139.081 268.538 139.03 267.381 139.005 266.311C138.954 265.24 139.307 264.719 139.936 263.995C140.188 263.706 140.264 263.214 140.34 262.838C140.39 262.491 140.617 262.172 140.944 262.201C141.498 262.23 142.102 262.115 142.706 261.768C144.619 260.697 145.627 258.874 146.785 256.936C147.415 255.836 148.119 254.823 148.95 253.694C149 253.608 149.025 253.522 149.025 253.435C149.126 252.219 149.125 251.003 148.647 249.846C147.892 248.11 147.741 246.171 148.899 244.667C149.579 243.799 150.46 243.741 151.367 243.625C152.374 243.452 153.255 243.047 153.507 241.802C153.632 241.368 153.784 240.992 154.036 240.645C154.086 240.558 154.111 240.471 154.111 240.384C154.111 240.24 154.035 240.124 153.934 240.037C153.784 239.893 153.557 239.806 153.381 239.776C152.55 239.661 151.996 239.313 151.618 238.705C150.913 237.548 150.586 235.898 150.989 234.568C151.266 233.758 151.971 233.613 152.424 234.307C153.103 235.377 153.884 236.188 155.092 236.448C155.369 236.477 155.696 236.39 155.923 236.275C156.35 235.985 156.804 235.667 157.282 235.378C157.66 235.146 157.812 234.799 158.038 234.423V234.427C158.441 233.675 159.448 233.502 160.128 233.473C161.135 233.415 161.966 233.328 162.596 233.212C162.898 233.183 163.2 233.009 163.577 232.749C164.039 232.377 164.628 232.128 165.209 232V272.832Z" fill="#C2C2C2"/>
<path d="M165.209 227.832C164.568 226.976 164.174 226.002 164.005 224.899C164.005 224.842 163.955 224.813 163.93 224.812H163.904C163.375 225.246 162.771 225.507 162.242 225.883C161.437 226.491 160.606 227.098 159.775 227.734C159.398 227.995 158.969 228.197 158.566 228.283C158.365 228.341 158.189 228.37 158.038 228.457C158.013 228.457 157.962 228.515 157.937 228.544C156.729 230.395 155.495 231.871 153.355 231.986C151.19 232.102 149.05 231.466 146.986 231.032C146.004 230.801 144.619 230.684 142.781 230.598C140.943 230.482 139.886 229.874 139.483 227.676C139.307 226.605 139.181 225.65 139.156 224.753C139.081 223.538 139.03 222.381 139.005 221.311C138.954 220.24 139.307 219.719 139.936 218.995C140.188 218.706 140.264 218.214 140.34 217.838C140.39 217.491 140.617 217.172 140.944 217.201C141.498 217.23 142.102 217.115 142.706 216.768C144.619 215.697 145.627 213.874 146.785 211.936C147.415 210.836 148.119 209.823 148.95 208.694C149 208.608 149.025 208.522 149.025 208.435C149.126 207.219 149.125 206.003 148.647 204.846C147.892 203.11 147.741 201.171 148.899 199.667C149.579 198.799 150.46 198.741 151.367 198.625C152.374 198.452 153.255 198.046 153.507 196.802C153.632 196.368 153.784 195.992 154.036 195.645C154.086 195.558 154.111 195.471 154.111 195.384C154.111 195.239 154.035 195.124 153.934 195.037C153.784 194.893 153.557 194.806 153.381 194.776C152.55 194.661 151.996 194.313 151.618 193.705C150.913 192.548 150.586 190.898 150.989 189.567C151.266 188.758 151.971 188.613 152.424 189.307C153.103 190.377 153.884 191.188 155.092 191.448C155.369 191.477 155.696 191.39 155.923 191.274C156.35 190.985 156.804 190.667 157.282 190.378C157.66 190.146 157.812 189.799 158.038 189.423V189.427C158.441 188.674 159.448 188.502 160.128 188.473C161.135 188.415 161.966 188.328 162.596 188.212C162.898 188.183 163.2 188.009 163.577 187.749C164.039 187.377 164.628 187.128 165.209 187V227.832Z" fill="#C2C2C2"/>
<path d="M165.209 182.832C164.568 181.976 164.174 181.002 164.005 179.899C164.005 179.842 163.955 179.813 163.93 179.812H163.904C163.375 180.246 162.771 180.507 162.242 180.883C161.437 181.491 160.606 182.098 159.775 182.734C159.398 182.995 158.969 183.197 158.566 183.283C158.365 183.341 158.189 183.37 158.038 183.457C158.013 183.457 157.962 183.515 157.937 183.544C156.729 185.395 155.495 186.871 153.355 186.986C151.19 187.102 149.05 186.466 146.986 186.032C146.004 185.801 144.619 185.684 142.781 185.598C140.943 185.482 139.886 184.874 139.483 182.676C139.307 181.605 139.181 180.65 139.156 179.753C139.081 178.538 139.03 177.381 139.005 176.311C138.954 175.24 139.307 174.719 139.936 173.995C140.188 173.706 140.264 173.214 140.34 172.838C140.39 172.491 140.617 172.172 140.944 172.201C141.498 172.23 142.102 172.115 142.706 171.768C144.619 170.697 145.627 168.874 146.785 166.936C147.415 165.836 148.119 164.823 148.95 163.694C149 163.608 149.025 163.522 149.025 163.435C149.126 162.219 149.125 161.003 148.647 159.846C147.892 158.11 147.741 156.171 148.899 154.667C149.579 153.799 150.46 153.741 151.367 153.625C152.374 153.452 153.255 153.046 153.507 151.802C153.632 151.368 153.784 150.992 154.036 150.645C154.086 150.558 154.111 150.471 154.111 150.384C154.111 150.239 154.035 150.124 153.934 150.037C153.784 149.893 153.557 149.806 153.381 149.776C152.55 149.661 151.996 149.313 151.618 148.705C150.913 147.548 150.586 145.898 150.989 144.567C151.266 143.758 151.971 143.613 152.424 144.307C153.103 145.377 153.884 146.188 155.092 146.448C155.369 146.477 155.696 146.39 155.923 146.274C156.35 145.985 156.804 145.667 157.282 145.378C157.66 145.146 157.812 144.799 158.038 144.423V144.427C158.441 143.674 159.448 143.502 160.128 143.473C161.135 143.415 161.966 143.328 162.596 143.212C162.898 143.183 163.2 143.009 163.577 142.749C164.039 142.377 164.628 142.128 165.209 142V182.832Z" fill="#C2C2C2"/>
<path d="M204.418 452.833C203.777 451.976 203.383 451.003 203.214 449.9C203.214 449.843 203.164 449.813 203.139 449.813H203.113C202.584 450.247 201.98 450.508 201.451 450.883C200.646 451.491 199.815 452.099 198.984 452.735C198.607 452.996 198.178 453.197 197.775 453.284C197.574 453.342 197.398 453.371 197.247 453.458C197.222 453.458 197.171 453.516 197.146 453.545C195.938 455.396 194.704 456.871 192.564 456.987C190.399 457.102 188.259 456.467 186.195 456.033C185.213 455.802 183.828 455.685 181.99 455.598C180.152 455.483 179.095 454.875 178.692 452.676C178.516 451.606 178.39 450.65 178.365 449.754C178.29 448.538 178.239 447.381 178.214 446.311C178.163 445.241 178.516 444.719 179.145 443.996C179.397 443.706 179.473 443.215 179.549 442.839C179.599 442.491 179.826 442.173 180.153 442.202C180.707 442.231 181.311 442.115 181.915 441.768C183.828 440.697 184.836 438.875 185.994 436.936C186.624 435.837 187.328 434.823 188.159 433.695C188.209 433.609 188.234 433.522 188.234 433.435C188.335 432.22 188.334 431.004 187.856 429.846C187.101 428.111 186.95 426.172 188.108 424.668C188.788 423.8 189.669 423.742 190.576 423.626C191.583 423.452 192.464 423.047 192.716 421.802C192.841 421.369 192.993 420.992 193.245 420.645C193.295 420.559 193.32 420.472 193.32 420.384C193.32 420.24 193.244 420.124 193.143 420.038C192.993 419.893 192.766 419.807 192.59 419.777C191.759 419.661 191.205 419.314 190.827 418.706C190.122 417.548 189.795 415.899 190.198 414.568C190.475 413.758 191.18 413.614 191.633 414.307C192.312 415.377 193.093 416.188 194.301 416.449C194.578 416.478 194.905 416.391 195.132 416.275C195.559 415.986 196.013 415.667 196.491 415.379C196.869 415.147 197.021 414.8 197.247 414.423V414.427C197.65 413.675 198.657 413.502 199.337 413.473C200.344 413.415 201.175 413.329 201.805 413.213C202.107 413.184 202.409 413.009 202.786 412.75C203.248 412.378 203.837 412.129 204.418 412.001V452.833Z" fill="#C2C2C2"/>
<path d="M204.418 407.833C203.777 406.976 203.383 406.003 203.214 404.9C203.214 404.842 203.164 404.813 203.139 404.813H203.113C202.584 405.247 201.98 405.508 201.451 405.883C200.646 406.491 199.815 407.099 198.984 407.735C198.607 407.995 198.178 408.197 197.775 408.284C197.574 408.341 197.398 408.371 197.247 408.458C197.222 408.458 197.171 408.516 197.146 408.544C195.938 410.396 194.704 411.871 192.564 411.987C190.399 412.102 188.259 411.467 186.195 411.033C185.213 410.802 183.828 410.685 181.99 410.598C180.152 410.483 179.095 409.875 178.692 407.676C178.516 406.605 178.39 405.65 178.365 404.753C178.29 403.538 178.239 402.381 178.214 401.311C178.163 400.241 178.516 399.719 179.145 398.996C179.397 398.706 179.473 398.215 179.549 397.838C179.599 397.491 179.826 397.173 180.153 397.202C180.707 397.231 181.311 397.115 181.915 396.768C183.828 395.697 184.836 393.875 185.994 391.936C186.624 390.836 187.328 389.823 188.159 388.695C188.209 388.608 188.234 388.522 188.234 388.435C188.335 387.22 188.334 386.004 187.856 384.846C187.101 383.11 186.95 381.172 188.108 379.667C188.788 378.8 189.669 378.742 190.576 378.625C191.583 378.452 192.464 378.047 192.716 376.802C192.841 376.368 192.993 375.992 193.245 375.645C193.295 375.558 193.32 375.471 193.32 375.384C193.32 375.24 193.244 375.124 193.143 375.038C192.993 374.893 192.766 374.806 192.59 374.777C191.759 374.661 191.205 374.314 190.827 373.706C190.122 372.548 189.795 370.899 190.198 369.568C190.475 368.758 191.18 368.614 191.633 369.307C192.312 370.377 193.093 371.188 194.301 371.449C194.578 371.478 194.905 371.39 195.132 371.275C195.559 370.985 196.013 370.667 196.491 370.378C196.869 370.147 197.021 369.8 197.247 369.423V369.427C197.65 368.675 198.657 368.502 199.337 368.473C200.344 368.415 201.175 368.329 201.805 368.212C202.107 368.183 202.409 368.009 202.786 367.75C203.248 367.378 203.837 367.128 204.418 367V407.833Z" fill="#C2C2C2"/>
<path d="M204.418 362.832C203.777 361.976 203.383 361.003 203.214 359.9C203.214 359.842 203.164 359.813 203.139 359.813H203.113C202.584 360.247 201.98 360.508 201.451 360.883C200.646 361.491 199.815 362.099 198.984 362.735C198.607 362.995 198.178 363.197 197.775 363.284C197.574 363.341 197.398 363.371 197.247 363.457C197.222 363.457 197.171 363.515 197.146 363.544C195.938 365.396 194.704 366.871 192.564 366.987C190.399 367.102 188.259 366.467 186.195 366.033C185.213 365.801 183.828 365.685 181.99 365.598C180.152 365.482 179.095 364.875 178.692 362.676C178.516 361.605 178.39 360.65 178.365 359.753C178.29 358.538 178.239 357.381 178.214 356.311C178.163 355.241 178.516 354.719 179.145 353.995C179.397 353.706 179.473 353.214 179.549 352.838C179.599 352.491 179.826 352.173 180.153 352.202C180.707 352.23 181.311 352.115 181.915 351.768C183.828 350.697 184.836 348.875 185.994 346.936C186.624 345.836 187.328 344.823 188.159 343.695C188.209 343.608 188.234 343.522 188.234 343.435C188.335 342.22 188.334 341.004 187.856 339.846C187.101 338.11 186.95 336.171 188.108 334.667C188.788 333.799 189.669 333.742 190.576 333.625C191.583 333.452 192.464 333.047 192.716 331.802C192.841 331.368 192.993 330.992 193.245 330.645C193.295 330.558 193.32 330.471 193.32 330.384C193.32 330.24 193.244 330.124 193.143 330.037C192.993 329.893 192.766 329.806 192.59 329.777C191.759 329.661 191.205 329.313 190.827 328.705C190.122 327.548 189.795 325.898 190.198 324.568C190.475 323.758 191.18 323.614 191.633 324.307C192.312 325.377 193.093 326.188 194.301 326.449C194.578 326.478 194.905 326.39 195.132 326.275C195.559 325.985 196.013 325.667 196.491 325.378C196.869 325.147 197.021 324.799 197.247 324.423V324.427C197.65 323.675 198.657 323.502 199.337 323.473C200.344 323.415 201.175 323.328 201.805 323.212C202.107 323.183 202.409 323.009 202.786 322.749C203.248 322.378 203.837 322.128 204.418 322V362.832Z" fill="#C2C2C2"/>
<path d="M204.418 317.832C203.777 316.976 203.383 316.003 203.214 314.9C203.214 314.842 203.164 314.813 203.139 314.813H203.113C202.584 315.247 201.98 315.507 201.451 315.883C200.646 316.491 199.815 317.098 198.984 317.735C198.607 317.995 198.178 318.197 197.775 318.283C197.574 318.341 197.398 318.371 197.247 318.457C197.222 318.457 197.171 318.515 197.146 318.544C195.938 320.395 194.704 321.871 192.564 321.987C190.399 322.102 188.259 321.466 186.195 321.032C185.213 320.801 183.828 320.685 181.99 320.598C180.152 320.482 179.095 319.875 178.692 317.676C178.516 316.605 178.39 315.65 178.365 314.753C178.29 313.538 178.239 312.381 178.214 311.311C178.163 310.241 178.516 309.719 179.145 308.995C179.397 308.706 179.473 308.214 179.549 307.838C179.599 307.491 179.826 307.173 180.153 307.201C180.707 307.23 181.311 307.115 181.915 306.768C183.828 305.697 184.836 303.875 185.994 301.936C186.624 300.836 187.328 299.823 188.159 298.695C188.209 298.608 188.234 298.522 188.234 298.435C188.335 297.22 188.334 296.003 187.856 294.846C187.101 293.11 186.95 291.171 188.108 289.667C188.788 288.799 189.669 288.741 190.576 288.625C191.583 288.452 192.464 288.047 192.716 286.802C192.841 286.368 192.993 285.992 193.245 285.645C193.295 285.558 193.32 285.471 193.32 285.384C193.32 285.24 193.244 285.124 193.143 285.037C192.993 284.893 192.766 284.806 192.59 284.777C191.759 284.661 191.205 284.313 190.827 283.705C190.122 282.548 189.795 280.898 190.198 279.568C190.475 278.758 191.18 278.613 191.633 279.307C192.312 280.377 193.093 281.188 194.301 281.448C194.578 281.477 194.905 281.39 195.132 281.275C195.559 280.985 196.013 280.667 196.491 280.378C196.869 280.146 197.021 279.799 197.247 279.423V279.427C197.65 278.675 198.657 278.502 199.337 278.473C200.344 278.415 201.175 278.328 201.805 278.212C202.107 278.183 202.409 278.009 202.786 277.749C203.248 277.378 203.837 277.128 204.418 277V317.832Z" fill="#C2C2C2"/>
<path d="M204.418 272.832C203.777 271.976 203.383 271.003 203.214 269.9C203.214 269.842 203.164 269.813 203.139 269.813H203.113C202.584 270.247 201.98 270.507 201.451 270.883C200.646 271.491 199.815 272.098 198.984 272.734C198.607 272.995 198.178 273.197 197.775 273.283C197.574 273.341 197.398 273.371 197.247 273.457C197.222 273.457 197.171 273.515 197.146 273.544C195.938 275.395 194.704 276.871 192.564 276.986C190.399 277.102 188.259 276.466 186.195 276.032C185.213 275.801 183.828 275.684 181.99 275.598C180.152 275.482 179.095 274.874 178.692 272.676C178.516 271.605 178.39 270.65 178.365 269.753C178.29 268.538 178.239 267.381 178.214 266.311C178.163 265.24 178.516 264.719 179.145 263.995C179.397 263.706 179.473 263.214 179.549 262.838C179.599 262.491 179.826 262.172 180.153 262.201C180.707 262.23 181.311 262.115 181.915 261.768C183.828 260.697 184.836 258.874 185.994 256.936C186.624 255.836 187.328 254.823 188.159 253.694C188.209 253.608 188.234 253.522 188.234 253.435C188.335 252.219 188.334 251.003 187.856 249.846C187.101 248.11 186.95 246.171 188.108 244.667C188.788 243.799 189.669 243.741 190.576 243.625C191.583 243.452 192.464 243.047 192.716 241.802C192.841 241.368 192.993 240.992 193.245 240.645C193.295 240.558 193.32 240.471 193.32 240.384C193.32 240.24 193.244 240.124 193.143 240.037C192.993 239.893 192.766 239.806 192.59 239.776C191.759 239.661 191.205 239.313 190.827 238.705C190.122 237.548 189.795 235.898 190.198 234.568C190.475 233.758 191.18 233.613 191.633 234.307C192.312 235.377 193.093 236.188 194.301 236.448C194.578 236.477 194.905 236.39 195.132 236.275C195.559 235.985 196.013 235.667 196.491 235.378C196.869 235.146 197.021 234.799 197.247 234.423V234.427C197.65 233.675 198.657 233.502 199.337 233.473C200.344 233.415 201.175 233.328 201.805 233.212C202.107 233.183 202.409 233.009 202.786 232.749C203.248 232.377 203.837 232.128 204.418 232V272.832Z" fill="#C2C2C2"/>
<path d="M204.418 227.832C203.777 226.976 203.383 226.002 203.214 224.899C203.214 224.842 203.164 224.813 203.139 224.812H203.113C202.584 225.246 201.98 225.507 201.451 225.883C200.646 226.491 199.815 227.098 198.984 227.734C198.607 227.995 198.178 228.197 197.775 228.283C197.574 228.341 197.398 228.37 197.247 228.457C197.222 228.457 197.171 228.515 197.146 228.544C195.938 230.395 194.704 231.871 192.564 231.986C190.399 232.102 188.259 231.466 186.195 231.032C185.213 230.801 183.828 230.684 181.99 230.598C180.152 230.482 179.095 229.874 178.692 227.676C178.516 226.605 178.39 225.65 178.365 224.753C178.29 223.538 178.239 222.381 178.214 221.311C178.163 220.24 178.516 219.719 179.145 218.995C179.397 218.706 179.473 218.214 179.549 217.838C179.599 217.491 179.826 217.172 180.153 217.201C180.707 217.23 181.311 217.115 181.915 216.768C183.828 215.697 184.836 213.874 185.994 211.936C186.624 210.836 187.328 209.823 188.159 208.694C188.209 208.608 188.234 208.522 188.234 208.435C188.335 207.219 188.334 206.003 187.856 204.846C187.101 203.11 186.95 201.171 188.108 199.667C188.788 198.799 189.669 198.741 190.576 198.625C191.583 198.452 192.464 198.046 192.716 196.802C192.841 196.368 192.993 195.992 193.245 195.645C193.295 195.558 193.32 195.471 193.32 195.384C193.32 195.239 193.244 195.124 193.143 195.037C192.993 194.893 192.766 194.806 192.59 194.776C191.759 194.661 191.205 194.313 190.827 193.705C190.122 192.548 189.795 190.898 190.198 189.567C190.475 188.758 191.18 188.613 191.633 189.307C192.312 190.377 193.093 191.188 194.301 191.448C194.578 191.477 194.905 191.39 195.132 191.274C195.559 190.985 196.013 190.667 196.491 190.378C196.869 190.146 197.021 189.799 197.247 189.423V189.427C197.65 188.674 198.657 188.502 199.337 188.473C200.344 188.415 201.175 188.328 201.805 188.212C202.107 188.183 202.409 188.009 202.786 187.749C203.248 187.377 203.837 187.128 204.418 187V227.832Z" fill="#C2C2C2"/>
<path d="M204.418 182.832C203.777 181.976 203.383 181.002 203.214 179.899C203.214 179.842 203.164 179.813 203.139 179.812H203.113C202.584 180.246 201.98 180.507 201.451 180.883C200.646 181.491 199.815 182.098 198.984 182.734C198.607 182.995 198.178 183.197 197.775 183.283C197.574 183.341 197.398 183.37 197.247 183.457C197.222 183.457 197.171 183.515 197.146 183.544C195.938 185.395 194.704 186.871 192.564 186.986C190.399 187.102 188.259 186.466 186.195 186.032C185.213 185.801 183.828 185.684 181.99 185.598C180.152 185.482 179.095 184.874 178.692 182.676C178.516 181.605 178.39 180.65 178.365 179.753C178.29 178.538 178.239 177.381 178.214 176.311C178.163 175.24 178.516 174.719 179.145 173.995C179.397 173.706 179.473 173.214 179.549 172.838C179.599 172.491 179.826 172.172 180.153 172.201C180.707 172.23 181.311 172.115 181.915 171.768C183.828 170.697 184.836 168.874 185.994 166.936C186.624 165.836 187.328 164.823 188.159 163.694C188.209 163.608 188.234 163.522 188.234 163.435C188.335 162.219 188.334 161.003 187.856 159.846C187.101 158.11 186.95 156.171 188.108 154.667C188.788 153.799 189.669 153.741 190.576 153.625C191.583 153.452 192.464 153.046 192.716 151.802C192.841 151.368 192.993 150.992 193.245 150.645C193.295 150.558 193.32 150.471 193.32 150.384C193.32 150.239 193.244 150.124 193.143 150.037C192.993 149.893 192.766 149.806 192.59 149.776C191.759 149.661 191.205 149.313 190.827 148.705C190.122 147.548 189.795 145.898 190.198 144.567C190.475 143.758 191.18 143.613 191.633 144.307C192.312 145.377 193.093 146.188 194.301 146.448C194.578 146.477 194.905 146.39 195.132 146.274C195.559 145.985 196.013 145.667 196.491 145.378C196.869 145.146 197.021 144.799 197.247 144.423V144.427C197.65 143.674 198.657 143.502 199.337 143.473C200.344 143.415 201.175 143.328 201.805 143.212C202.107 143.183 202.409 143.009 202.786 142.749C203.248 142.377 203.837 142.128 204.418 142V182.832Z" fill="#C2C2C2"/>
<path d="M243.627 452.833C242.986 451.976 242.592 451.003 242.423 449.9C242.423 449.843 242.373 449.813 242.348 449.813H242.322C241.793 450.247 241.189 450.508 240.66 450.883C239.855 451.491 239.024 452.099 238.193 452.735C237.816 452.996 237.387 453.197 236.984 453.284C236.783 453.342 236.607 453.371 236.456 453.458C236.431 453.458 236.38 453.516 236.355 453.545C235.147 455.396 233.913 456.871 231.773 456.987C229.608 457.102 227.468 456.467 225.404 456.033C224.422 455.802 223.037 455.685 221.199 455.598C219.361 455.483 218.304 454.875 217.901 452.676C217.725 451.606 217.599 450.65 217.574 449.754C217.499 448.538 217.448 447.381 217.423 446.311C217.372 445.241 217.725 444.719 218.354 443.996C218.606 443.706 218.682 443.215 218.758 442.839C218.808 442.491 219.035 442.173 219.362 442.202C219.916 442.231 220.52 442.115 221.124 441.768C223.037 440.697 224.045 438.875 225.203 436.936C225.832 435.837 226.537 434.823 227.368 433.695C227.418 433.609 227.443 433.522 227.443 433.435C227.544 432.22 227.543 431.004 227.065 429.846C226.31 428.111 226.159 426.172 227.317 424.668C227.997 423.8 228.878 423.742 229.785 423.626C230.792 423.452 231.673 423.047 231.925 421.802C232.05 421.369 232.202 420.992 232.454 420.645C232.504 420.559 232.529 420.472 232.529 420.384C232.529 420.24 232.453 420.124 232.352 420.038C232.202 419.893 231.975 419.807 231.799 419.777C230.968 419.661 230.414 419.314 230.036 418.706C229.331 417.548 229.004 415.899 229.407 414.568C229.684 413.758 230.389 413.614 230.842 414.307C231.521 415.377 232.302 416.188 233.51 416.449C233.787 416.478 234.114 416.391 234.341 416.275C234.768 415.986 235.221 415.667 235.7 415.379C236.078 415.147 236.23 414.8 236.456 414.423V414.427C236.859 413.675 237.866 413.502 238.546 413.473C239.553 413.415 240.384 413.329 241.014 413.213C241.316 413.184 241.618 413.009 241.995 412.75C242.457 412.378 243.046 412.129 243.627 412.001V452.833Z" fill="#C2C2C2"/>
<path d="M243.627 407.833C242.986 406.976 242.592 406.003 242.423 404.9C242.423 404.842 242.373 404.813 242.348 404.813H242.322C241.793 405.247 241.189 405.508 240.66 405.883C239.855 406.491 239.024 407.099 238.193 407.735C237.816 407.995 237.387 408.197 236.984 408.284C236.783 408.341 236.607 408.371 236.456 408.458C236.431 408.458 236.38 408.516 236.355 408.544C235.147 410.396 233.913 411.871 231.773 411.987C229.608 412.102 227.468 411.467 225.404 411.033C224.422 410.802 223.037 410.685 221.199 410.598C219.361 410.483 218.304 409.875 217.901 407.676C217.725 406.605 217.599 405.65 217.574 404.753C217.499 403.538 217.448 402.381 217.423 401.311C217.372 400.241 217.725 399.719 218.354 398.996C218.606 398.706 218.682 398.215 218.758 397.838C218.808 397.491 219.035 397.173 219.362 397.202C219.916 397.231 220.52 397.115 221.124 396.768C223.037 395.697 224.045 393.875 225.203 391.936C225.832 390.836 226.537 389.823 227.368 388.695C227.418 388.608 227.443 388.522 227.443 388.435C227.544 387.22 227.543 386.004 227.065 384.846C226.31 383.11 226.159 381.172 227.317 379.667C227.997 378.8 228.878 378.742 229.785 378.625C230.792 378.452 231.673 378.047 231.925 376.802C232.05 376.368 232.202 375.992 232.454 375.645C232.504 375.558 232.529 375.471 232.529 375.384C232.529 375.24 232.453 375.124 232.352 375.038C232.202 374.893 231.975 374.806 231.799 374.777C230.968 374.661 230.414 374.314 230.036 373.706C229.331 372.548 229.004 370.899 229.407 369.568C229.684 368.758 230.389 368.614 230.842 369.307C231.521 370.377 232.302 371.188 233.51 371.449C233.787 371.478 234.114 371.39 234.341 371.275C234.768 370.985 235.221 370.667 235.7 370.378C236.078 370.147 236.23 369.8 236.456 369.423V369.427C236.859 368.675 237.866 368.502 238.546 368.473C239.553 368.415 240.384 368.329 241.014 368.212C241.316 368.183 241.618 368.009 241.995 367.75C242.457 367.378 243.046 367.128 243.627 367V407.833Z" fill="#C2C2C2"/>
<path d="M243.627 362.832C242.986 361.976 242.592 361.003 242.423 359.9C242.423 359.842 242.373 359.813 242.348 359.813H242.322C241.793 360.247 241.189 360.508 240.66 360.883C239.855 361.491 239.024 362.099 238.193 362.735C237.816 362.995 237.387 363.197 236.984 363.284C236.783 363.341 236.607 363.371 236.456 363.457C236.431 363.457 236.38 363.515 236.355 363.544C235.147 365.396 233.913 366.871 231.773 366.987C229.608 367.102 227.468 366.467 225.404 366.033C224.422 365.801 223.037 365.685 221.199 365.598C219.361 365.482 218.304 364.875 217.901 362.676C217.725 361.605 217.599 360.65 217.574 359.753C217.499 358.538 217.448 357.381 217.423 356.311C217.372 355.241 217.725 354.719 218.354 353.995C218.606 353.706 218.682 353.214 218.758 352.838C218.808 352.491 219.035 352.173 219.362 352.202C219.916 352.23 220.52 352.115 221.124 351.768C223.037 350.697 224.045 348.875 225.203 346.936C225.832 345.836 226.537 344.823 227.368 343.695C227.418 343.608 227.443 343.522 227.443 343.435C227.544 342.22 227.543 341.004 227.065 339.846C226.31 338.11 226.159 336.171 227.317 334.667C227.997 333.799 228.878 333.742 229.785 333.625C230.792 333.452 231.673 333.047 231.925 331.802C232.05 331.368 232.202 330.992 232.454 330.645C232.504 330.558 232.529 330.471 232.529 330.384C232.529 330.24 232.453 330.124 232.352 330.037C232.202 329.893 231.975 329.806 231.799 329.777C230.968 329.661 230.414 329.313 230.036 328.705C229.331 327.548 229.004 325.898 229.407 324.568C229.684 323.758 230.389 323.614 230.842 324.307C231.521 325.377 232.302 326.188 233.51 326.449C233.787 326.478 234.114 326.39 234.341 326.275C234.768 325.985 235.221 325.667 235.7 325.378C236.078 325.147 236.23 324.799 236.456 324.423V324.427C236.859 323.675 237.866 323.502 238.546 323.473C239.553 323.415 240.384 323.328 241.014 323.212C241.316 323.183 241.618 323.009 241.995 322.749C242.457 322.378 243.046 322.128 243.627 322V362.832Z" fill="#C2C2C2"/>
<path d="M243.627 317.832C242.986 316.976 242.592 316.003 242.423 314.9C242.423 314.842 242.373 314.813 242.348 314.813H242.322C241.793 315.247 241.189 315.507 240.66 315.883C239.855 316.491 239.024 317.098 238.193 317.735C237.816 317.995 237.387 318.197 236.984 318.283C236.783 318.341 236.607 318.371 236.456 318.457C236.431 318.457 236.38 318.515 236.355 318.544C235.147 320.395 233.913 321.871 231.773 321.987C229.608 322.102 227.468 321.466 225.404 321.032C224.422 320.801 223.037 320.685 221.199 320.598C219.361 320.482 218.304 319.875 217.901 317.676C217.725 316.605 217.599 315.65 217.574 314.753C217.499 313.538 217.448 312.381 217.423 311.311C217.372 310.241 217.725 309.719 218.354 308.995C218.606 308.706 218.682 308.214 218.758 307.838C218.808 307.491 219.035 307.173 219.362 307.201C219.916 307.23 220.52 307.115 221.124 306.768C223.037 305.697 224.045 303.875 225.203 301.936C225.832 300.836 226.537 299.823 227.368 298.695C227.418 298.608 227.443 298.522 227.443 298.435C227.544 297.22 227.543 296.003 227.065 294.846C226.31 293.11 226.159 291.171 227.317 289.667C227.997 288.799 228.878 288.741 229.785 288.625C230.792 288.452 231.673 288.047 231.925 286.802C232.05 286.368 232.202 285.992 232.454 285.645C232.504 285.558 232.529 285.471 232.529 285.384C232.529 285.24 232.453 285.124 232.352 285.037C232.202 284.893 231.975 284.806 231.799 284.777C230.968 284.661 230.414 284.313 230.036 283.705C229.331 282.548 229.004 280.898 229.407 279.568C229.684 278.758 230.389 278.613 230.842 279.307C231.521 280.377 232.302 281.188 233.51 281.448C233.787 281.477 234.114 281.39 234.341 281.275C234.768 280.985 235.221 280.667 235.7 280.378C236.078 280.146 236.23 279.799 236.456 279.423V279.427C236.859 278.675 237.866 278.502 238.546 278.473C239.553 278.415 240.384 278.328 241.014 278.212C241.316 278.183 241.618 278.009 241.995 277.749C242.457 277.378 243.046 277.128 243.627 277V317.832Z" fill="#C2C2C2"/>
<path d="M243.627 272.832C242.986 271.976 242.592 271.003 242.423 269.9C242.423 269.842 242.373 269.813 242.348 269.813H242.322C241.793 270.247 241.189 270.507 240.66 270.883C239.855 271.491 239.024 272.098 238.193 272.734C237.816 272.995 237.387 273.197 236.984 273.283C236.783 273.341 236.607 273.371 236.456 273.457C236.431 273.457 236.38 273.515 236.355 273.544C235.147 275.395 233.913 276.871 231.773 276.986C229.608 277.102 227.468 276.466 225.404 276.032C224.422 275.801 223.037 275.684 221.199 275.598C219.361 275.482 218.304 274.874 217.901 272.676C217.725 271.605 217.599 270.65 217.574 269.753C217.499 268.538 217.448 267.381 217.423 266.311C217.372 265.24 217.725 264.719 218.354 263.995C218.606 263.706 218.682 263.214 218.758 262.838C218.808 262.491 219.035 262.172 219.362 262.201C219.916 262.23 220.52 262.115 221.124 261.768C223.037 260.697 224.045 258.874 225.203 256.936C225.832 255.836 226.537 254.823 227.368 253.694C227.418 253.608 227.443 253.522 227.443 253.435C227.544 252.219 227.543 251.003 227.065 249.846C226.31 248.11 226.159 246.171 227.317 244.667C227.997 243.799 228.878 243.741 229.785 243.625C230.792 243.452 231.673 243.047 231.925 241.802C232.05 241.368 232.202 240.992 232.454 240.645C232.504 240.558 232.529 240.471 232.529 240.384C232.529 240.24 232.453 240.124 232.352 240.037C232.202 239.893 231.975 239.806 231.799 239.776C230.968 239.661 230.414 239.313 230.036 238.705C229.331 237.548 229.004 235.898 229.407 234.568C229.684 233.758 230.389 233.613 230.842 234.307C231.521 235.377 232.302 236.188 233.51 236.448C233.787 236.477 234.114 236.39 234.341 236.275C234.768 235.985 235.221 235.667 235.7 235.378C236.078 235.146 236.23 234.799 236.456 234.423V234.427C236.859 233.675 237.866 233.502 238.546 233.473C239.553 233.415 240.384 233.328 241.014 233.212C241.316 233.183 241.618 233.009 241.995 232.749C242.457 232.377 243.046 232.128 243.627 232V272.832Z" fill="#C2C2C2"/>
<path d="M243.627 227.832C242.986 226.976 242.592 226.002 242.423 224.899C242.423 224.842 242.373 224.813 242.348 224.812H242.322C241.793 225.246 241.189 225.507 240.66 225.883C239.855 226.491 239.024 227.098 238.193 227.734C237.816 227.995 237.387 228.197 236.984 228.283C236.783 228.341 236.607 228.37 236.456 228.457C236.431 228.457 236.38 228.515 236.355 228.544C235.147 230.395 233.913 231.871 231.773 231.986C229.608 232.102 227.468 231.466 225.404 231.032C224.422 230.801 223.037 230.684 221.199 230.598C219.361 230.482 218.304 229.874 217.901 227.676C217.725 226.605 217.599 225.65 217.574 224.753C217.499 223.538 217.448 222.381 217.423 221.311C217.372 220.24 217.725 219.719 218.354 218.995C218.606 218.706 218.682 218.214 218.758 217.838C218.808 217.491 219.035 217.172 219.362 217.201C219.916 217.23 220.52 217.115 221.124 216.768C223.037 215.697 224.045 213.874 225.203 211.936C225.832 210.836 226.537 209.823 227.368 208.694C227.418 208.608 227.443 208.522 227.443 208.435C227.544 207.219 227.543 206.003 227.065 204.846C226.31 203.11 226.159 201.171 227.317 199.667C227.997 198.799 228.878 198.741 229.785 198.625C230.792 198.452 231.673 198.046 231.925 196.802C232.05 196.368 232.202 195.992 232.454 195.645C232.504 195.558 232.529 195.471 232.529 195.384C232.529 195.239 232.453 195.124 232.352 195.037C232.202 194.893 231.975 194.806 231.799 194.776C230.968 194.661 230.414 194.313 230.036 193.705C229.331 192.548 229.004 190.898 229.407 189.567C229.684 188.758 230.389 188.613 230.842 189.307C231.521 190.377 232.302 191.188 233.51 191.448C233.787 191.477 234.114 191.39 234.341 191.274C234.768 190.985 235.221 190.667 235.7 190.378C236.078 190.146 236.23 189.799 236.456 189.423V189.427C236.859 188.674 237.866 188.502 238.546 188.473C239.553 188.415 240.384 188.328 241.014 188.212C241.316 188.183 241.618 188.009 241.995 187.749C242.457 187.377 243.046 187.128 243.627 187V227.832Z" fill="#C2C2C2"/>
<path d="M243.627 182.832C242.986 181.976 242.592 181.002 242.423 179.899C242.423 179.842 242.373 179.813 242.348 179.812H242.322C241.793 180.246 241.189 180.507 240.66 180.883C239.855 181.491 239.024 182.098 238.193 182.734C237.816 182.995 237.387 183.197 236.984 183.283C236.783 183.341 236.607 183.37 236.456 183.457C236.431 183.457 236.38 183.515 236.355 183.544C235.147 185.395 233.913 186.871 231.773 186.986C229.608 187.102 227.468 186.466 225.404 186.032C224.422 185.801 223.037 185.684 221.199 185.598C219.361 185.482 218.304 184.874 217.901 182.676C217.725 181.605 217.599 180.65 217.574 179.753C217.499 178.538 217.448 177.381 217.423 176.311C217.372 175.24 217.725 174.719 218.354 173.995C218.606 173.706 218.682 173.214 218.758 172.838C218.808 172.491 219.035 172.172 219.362 172.201C219.916 172.23 220.52 172.115 221.124 171.768C223.037 170.697 224.045 168.874 225.203 166.936C225.832 165.836 226.537 164.823 227.368 163.694C227.418 163.608 227.443 163.522 227.443 163.435C227.544 162.219 227.543 161.003 227.065 159.846C226.31 158.11 226.159 156.171 227.317 154.667C227.997 153.799 228.878 153.741 229.785 153.625C230.792 153.452 231.673 153.046 231.925 151.802C232.05 151.368 232.202 150.992 232.454 150.645C232.504 150.558 232.529 150.471 232.529 150.384C232.529 150.239 232.453 150.124 232.352 150.037C232.202 149.893 231.975 149.806 231.799 149.776C230.968 149.661 230.414 149.313 230.036 148.705C229.331 147.548 229.004 145.898 229.407 144.567C229.684 143.758 230.389 143.613 230.842 144.307C231.521 145.377 232.302 146.188 233.51 146.448C233.787 146.477 234.114 146.39 234.341 146.274C234.768 145.985 235.221 145.667 235.7 145.378C236.078 145.146 236.23 144.799 236.456 144.423V144.427C236.859 143.674 237.866 143.502 238.546 143.473C239.553 143.415 240.384 143.328 241.014 143.212C241.316 143.183 241.618 143.009 241.995 142.749C242.457 142.377 243.046 142.128 243.627 142V182.832Z" fill="#C2C2C2"/>
<path d="M282.836 452.833C282.195 451.976 281.801 451.003 281.632 449.9C281.632 449.843 281.582 449.813 281.556 449.813H281.531C281.002 450.247 280.398 450.508 279.869 450.883C279.064 451.491 278.233 452.099 277.402 452.735C277.025 452.996 276.596 453.197 276.193 453.284C275.992 453.342 275.816 453.371 275.665 453.458C275.64 453.458 275.589 453.516 275.564 453.545C274.356 455.396 273.122 456.871 270.982 456.987C268.817 457.102 266.677 456.467 264.613 456.033C263.631 455.802 262.246 455.685 260.408 455.598C258.57 455.483 257.513 454.875 257.11 452.676C256.934 451.606 256.808 450.65 256.783 449.754C256.708 448.538 256.657 447.381 256.632 446.311C256.581 445.241 256.934 444.719 257.563 443.996C257.815 443.706 257.891 443.215 257.967 442.839C258.017 442.491 258.244 442.173 258.571 442.202C259.125 442.231 259.729 442.115 260.333 441.768C262.246 440.697 263.254 438.875 264.412 436.936C265.041 435.837 265.746 434.823 266.577 433.695C266.627 433.609 266.652 433.522 266.652 433.435C266.753 432.22 266.752 431.004 266.274 429.846C265.519 428.111 265.368 426.172 266.526 424.668C267.206 423.8 268.087 423.742 268.994 423.626C270.001 423.452 270.882 423.047 271.134 421.802C271.259 421.369 271.411 420.992 271.663 420.645C271.713 420.559 271.738 420.472 271.738 420.384C271.738 420.24 271.662 420.124 271.561 420.038C271.411 419.893 271.184 419.807 271.008 419.777C270.177 419.661 269.623 419.314 269.245 418.706C268.54 417.548 268.213 415.899 268.616 414.568C268.893 413.758 269.598 413.614 270.051 414.307C270.73 415.377 271.511 416.188 272.719 416.449C272.996 416.478 273.323 416.391 273.55 416.275C273.977 415.986 274.43 415.667 274.909 415.379C275.287 415.147 275.439 414.8 275.665 414.423V414.427C276.068 413.675 277.075 413.502 277.755 413.473C278.762 413.415 279.593 413.329 280.223 413.213C280.525 413.184 280.827 413.009 281.204 412.75C281.666 412.378 282.255 412.129 282.836 412.001V452.833Z" fill="#C2C2C2"/>
<path d="M282.836 407.833C282.195 406.976 281.801 406.003 281.632 404.9C281.632 404.842 281.582 404.813 281.556 404.813H281.531C281.002 405.247 280.398 405.508 279.869 405.883C279.064 406.491 278.233 407.099 277.402 407.735C277.025 407.995 276.596 408.197 276.193 408.284C275.992 408.341 275.816 408.371 275.665 408.458C275.64 408.458 275.589 408.516 275.564 408.544C274.356 410.396 273.122 411.871 270.982 411.987C268.817 412.102 266.677 411.467 264.613 411.033C263.631 410.802 262.246 410.685 260.408 410.598C258.57 410.483 257.513 409.875 257.11 407.676C256.934 406.605 256.808 405.65 256.783 404.753C256.708 403.538 256.657 402.381 256.632 401.311C256.581 400.241 256.934 399.719 257.563 398.996C257.815 398.706 257.891 398.215 257.967 397.838C258.017 397.491 258.244 397.173 258.571 397.202C259.125 397.231 259.729 397.115 260.333 396.768C262.246 395.697 263.254 393.875 264.412 391.936C265.041 390.836 265.746 389.823 266.577 388.695C266.627 388.608 266.652 388.522 266.652 388.435C266.753 387.22 266.752 386.004 266.274 384.846C265.519 383.11 265.368 381.172 266.526 379.667C267.206 378.8 268.087 378.742 268.994 378.625C270.001 378.452 270.882 378.047 271.134 376.802C271.259 376.368 271.411 375.992 271.663 375.645C271.713 375.558 271.738 375.471 271.738 375.384C271.738 375.24 271.662 375.124 271.561 375.038C271.411 374.893 271.184 374.806 271.008 374.777C270.177 374.661 269.623 374.314 269.245 373.706C268.54 372.548 268.213 370.899 268.616 369.568C268.893 368.758 269.598 368.614 270.051 369.307C270.73 370.377 271.511 371.188 272.719 371.449C272.996 371.478 273.323 371.39 273.55 371.275C273.977 370.985 274.43 370.667 274.909 370.378C275.287 370.147 275.439 369.8 275.665 369.423V369.427C276.068 368.675 277.075 368.502 277.755 368.473C278.762 368.415 279.593 368.329 280.223 368.212C280.525 368.183 280.827 368.009 281.204 367.75C281.666 367.378 282.255 367.128 282.836 367V407.833Z" fill="#C2C2C2"/>
<path d="M282.836 362.832C282.195 361.976 281.801 361.003 281.632 359.9C281.632 359.842 281.582 359.813 281.556 359.813H281.531C281.002 360.247 280.398 360.508 279.869 360.883C279.064 361.491 278.233 362.099 277.402 362.735C277.025 362.995 276.596 363.197 276.193 363.284C275.992 363.341 275.816 363.371 275.665 363.457C275.64 363.457 275.589 363.515 275.564 363.544C274.356 365.396 273.122 366.871 270.982 366.987C268.817 367.102 266.677 366.467 264.613 366.033C263.631 365.801 262.246 365.685 260.408 365.598C258.57 365.482 257.513 364.875 257.11 362.676C256.934 361.605 256.808 360.65 256.783 359.753C256.708 358.538 256.657 357.381 256.632 356.311C256.581 355.241 256.934 354.719 257.563 353.995C257.815 353.706 257.891 353.214 257.967 352.838C258.017 352.491 258.244 352.173 258.571 352.202C259.125 352.23 259.729 352.115 260.333 351.768C262.246 350.697 263.254 348.875 264.412 346.936C265.041 345.836 265.746 344.823 266.577 343.695C266.627 343.608 266.652 343.522 266.652 343.435C266.753 342.22 266.752 341.004 266.274 339.846C265.519 338.11 265.368 336.171 266.526 334.667C267.206 333.799 268.087 333.742 268.994 333.625C270.001 333.452 270.882 333.047 271.134 331.802C271.259 331.368 271.411 330.992 271.663 330.645C271.713 330.558 271.738 330.471 271.738 330.384C271.738 330.24 271.662 330.124 271.561 330.037C271.411 329.893 271.184 329.806 271.008 329.777C270.177 329.661 269.623 329.313 269.245 328.705C268.54 327.548 268.213 325.898 268.616 324.568C268.893 323.758 269.598 323.614 270.051 324.307C270.73 325.377 271.511 326.188 272.719 326.449C272.996 326.478 273.323 326.39 273.55 326.275C273.977 325.985 274.43 325.667 274.909 325.378C275.287 325.147 275.439 324.799 275.665 324.423V324.427C276.068 323.675 277.075 323.502 277.755 323.473C278.762 323.415 279.593 323.328 280.223 323.212C280.525 323.183 280.827 323.009 281.204 322.749C281.666 322.378 282.255 322.128 282.836 322V362.832Z" fill="#C2C2C2"/>
<path d="M282.836 317.832C282.195 316.976 281.801 316.003 281.632 314.9C281.632 314.842 281.582 314.813 281.556 314.813H281.531C281.002 315.247 280.398 315.507 279.869 315.883C279.064 316.491 278.233 317.098 277.402 317.735C277.025 317.995 276.596 318.197 276.193 318.283C275.992 318.341 275.816 318.371 275.665 318.457C275.64 318.457 275.589 318.515 275.564 318.544C274.356 320.395 273.122 321.871 270.982 321.987C268.817 322.102 266.677 321.466 264.613 321.032C263.631 320.801 262.246 320.685 260.408 320.598C258.57 320.482 257.513 319.875 257.11 317.676C256.934 316.605 256.808 315.65 256.783 314.753C256.708 313.538 256.657 312.381 256.632 311.311C256.581 310.241 256.934 309.719 257.563 308.995C257.815 308.706 257.891 308.214 257.967 307.838C258.017 307.491 258.244 307.173 258.571 307.201C259.125 307.23 259.729 307.115 260.333 306.768C262.246 305.697 263.254 303.875 264.412 301.936C265.041 300.836 265.746 299.823 266.577 298.695C266.627 298.608 266.652 298.522 266.652 298.435C266.753 297.22 266.752 296.003 266.274 294.846C265.519 293.11 265.368 291.171 266.526 289.667C267.206 288.799 268.087 288.741 268.994 288.625C270.001 288.452 270.882 288.047 271.134 286.802C271.259 286.368 271.411 285.992 271.663 285.645C271.713 285.558 271.738 285.471 271.738 285.384C271.738 285.24 271.662 285.124 271.561 285.037C271.411 284.893 271.184 284.806 271.008 284.777C270.177 284.661 269.623 284.313 269.245 283.705C268.54 282.548 268.213 280.898 268.616 279.568C268.893 278.758 269.598 278.613 270.051 279.307C270.73 280.377 271.511 281.188 272.719 281.448C272.996 281.477 273.323 281.39 273.55 281.275C273.977 280.985 274.43 280.667 274.909 280.378C275.287 280.146 275.439 279.799 275.665 279.423V279.427C276.068 278.675 277.075 278.502 277.755 278.473C278.762 278.415 279.593 278.328 280.223 278.212C280.525 278.183 280.827 278.009 281.204 277.749C281.666 277.378 282.255 277.128 282.836 277V317.832Z" fill="#C2C2C2"/>
<path d="M282.836 272.832C282.195 271.976 281.801 271.003 281.632 269.9C281.632 269.842 281.582 269.813 281.556 269.813H281.531C281.002 270.247 280.398 270.507 279.869 270.883C279.064 271.491 278.233 272.098 277.402 272.734C277.025 272.995 276.596 273.197 276.193 273.283C275.992 273.341 275.816 273.371 275.665 273.457C275.64 273.457 275.589 273.515 275.564 273.544C274.356 275.395 273.122 276.871 270.982 276.986C268.817 277.102 266.677 276.466 264.613 276.032C263.631 275.801 262.246 275.684 260.408 275.598C258.57 275.482 257.513 274.874 257.11 272.676C256.934 271.605 256.808 270.65 256.783 269.753C256.708 268.538 256.657 267.381 256.632 266.311C256.581 265.24 256.934 264.719 257.563 263.995C257.815 263.706 257.891 263.214 257.967 262.838C258.017 262.491 258.244 262.172 258.571 262.201C259.125 262.23 259.729 262.115 260.333 261.768C262.246 260.697 263.254 258.874 264.412 256.936C265.041 255.836 265.746 254.823 266.577 253.694C266.627 253.608 266.652 253.522 266.652 253.435C266.753 252.219 266.752 251.003 266.274 249.846C265.519 248.11 265.368 246.171 266.526 244.667C267.206 243.799 268.087 243.741 268.994 243.625C270.001 243.452 270.882 243.047 271.134 241.802C271.259 241.368 271.411 240.992 271.663 240.645C271.713 240.558 271.738 240.471 271.738 240.384C271.738 240.24 271.662 240.124 271.561 240.037C271.411 239.893 271.184 239.806 271.008 239.776C270.177 239.661 269.623 239.313 269.245 238.705C268.54 237.548 268.213 235.898 268.616 234.568C268.893 233.758 269.598 233.613 270.051 234.307C270.73 235.377 271.511 236.188 272.719 236.448C272.996 236.477 273.323 236.39 273.55 236.275C273.977 235.985 274.43 235.667 274.909 235.378C275.287 235.146 275.439 234.799 275.665 234.423V234.427C276.068 233.675 277.075 233.502 277.755 233.473C278.762 233.415 279.593 233.328 280.223 233.212C280.525 233.183 280.827 233.009 281.204 232.749C281.666 232.377 282.255 232.128 282.836 232V272.832Z" fill="#C2C2C2"/>
<path d="M282.836 227.832C282.195 226.976 281.801 226.002 281.632 224.899C281.632 224.842 281.582 224.813 281.556 224.812H281.531C281.002 225.246 280.398 225.507 279.869 225.883C279.064 226.491 278.233 227.098 277.402 227.734C277.025 227.995 276.596 228.197 276.193 228.283C275.992 228.341 275.816 228.37 275.665 228.457C275.64 228.457 275.589 228.515 275.564 228.544C274.356 230.395 273.122 231.871 270.982 231.986C268.817 232.102 266.677 231.466 264.613 231.032C263.631 230.801 262.246 230.684 260.408 230.598C258.57 230.482 257.513 229.874 257.11 227.676C256.934 226.605 256.808 225.65 256.783 224.753C256.708 223.538 256.657 222.381 256.632 221.311C256.581 220.24 256.934 219.719 257.563 218.995C257.815 218.706 257.891 218.214 257.967 217.838C258.017 217.491 258.244 217.172 258.571 217.201C259.125 217.23 259.729 217.115 260.333 216.768C262.246 215.697 263.254 213.874 264.412 211.936C265.041 210.836 265.746 209.823 266.577 208.694C266.627 208.608 266.652 208.522 266.652 208.435C266.753 207.219 266.752 206.003 266.274 204.846C265.519 203.11 265.368 201.171 266.526 199.667C267.206 198.799 268.087 198.741 268.994 198.625C270.001 198.452 270.882 198.046 271.134 196.802C271.259 196.368 271.411 195.992 271.663 195.645C271.713 195.558 271.738 195.471 271.738 195.384C271.738 195.239 271.662 195.124 271.561 195.037C271.411 194.893 271.184 194.806 271.008 194.776C270.177 194.661 269.623 194.313 269.245 193.705C268.54 192.548 268.213 190.898 268.616 189.567C268.893 188.758 269.598 188.613 270.051 189.307C270.73 190.377 271.511 191.188 272.719 191.448C272.996 191.477 273.323 191.39 273.55 191.274C273.977 190.985 274.43 190.667 274.909 190.378C275.287 190.146 275.439 189.799 275.665 189.423V189.427C276.068 188.674 277.075 188.502 277.755 188.473C278.762 188.415 279.593 188.328 280.223 188.212C280.525 188.183 280.827 188.009 281.204 187.749C281.666 187.377 282.255 187.128 282.836 187V227.832Z" fill="#C2C2C2"/>
<path d="M282.836 182.832C282.195 181.976 281.801 181.002 281.632 179.899C281.632 179.842 281.582 179.813 281.556 179.812H281.531C281.002 180.246 280.398 180.507 279.869 180.883C279.064 181.491 278.233 182.098 277.402 182.734C277.025 182.995 276.596 183.197 276.193 183.283C275.992 183.341 275.816 183.37 275.665 183.457C275.64 183.457 275.589 183.515 275.564 183.544C274.356 185.395 273.122 186.871 270.982 186.986C268.817 187.102 266.677 186.466 264.613 186.032C263.631 185.801 262.246 185.684 260.408 185.598C258.57 185.482 257.513 184.874 257.11 182.676C256.934 181.605 256.808 180.65 256.783 179.753C256.708 178.538 256.657 177.381 256.632 176.311C256.581 175.24 256.934 174.719 257.563 173.995C257.815 173.706 257.891 173.214 257.967 172.838C258.017 172.491 258.244 172.172 258.571 172.201C259.125 172.23 259.729 172.115 260.333 171.768C262.246 170.697 263.254 168.874 264.412 166.936C265.041 165.836 265.746 164.823 266.577 163.694C266.627 163.608 266.652 163.522 266.652 163.435C266.753 162.219 266.752 161.003 266.274 159.846C265.519 158.11 265.368 156.171 266.526 154.667C267.206 153.799 268.087 153.741 268.994 153.625C270.001 153.452 270.882 153.046 271.134 151.802C271.259 151.368 271.411 150.992 271.663 150.645C271.713 150.558 271.738 150.471 271.738 150.384C271.738 150.239 271.662 150.124 271.561 150.037C271.411 149.893 271.184 149.806 271.008 149.776C270.177 149.661 269.623 149.313 269.245 148.705C268.54 147.548 268.213 145.898 268.616 144.567C268.893 143.758 269.598 143.613 270.051 144.307C270.73 145.377 271.511 146.188 272.719 146.448C272.996 146.477 273.323 146.39 273.55 146.274C273.977 145.985 274.43 145.667 274.909 145.378C275.287 145.146 275.439 144.799 275.665 144.423V144.427C276.068 143.674 277.075 143.502 277.755 143.473C278.762 143.415 279.593 143.328 280.223 143.212C280.525 143.183 280.827 143.009 281.204 142.749C281.666 142.377 282.255 142.128 282.836 142V182.832Z" fill="#C2C2C2"/>
<path d="M322.045 452.833C321.404 451.976 321.01 451.003 320.841 449.9C320.841 449.843 320.791 449.813 320.765 449.813H320.74C320.211 450.247 319.607 450.508 319.078 450.883C318.273 451.491 317.442 452.099 316.611 452.735C316.234 452.996 315.805 453.197 315.402 453.284C315.201 453.342 315.025 453.371 314.874 453.458C314.849 453.458 314.798 453.516 314.773 453.545C313.565 455.396 312.331 456.871 310.191 456.987C308.026 457.102 305.886 456.467 303.822 456.033C302.84 455.802 301.455 455.685 299.617 455.598C297.779 455.483 296.722 454.875 296.319 452.676C296.143 451.606 296.017 450.65 295.992 449.754C295.917 448.538 295.866 447.381 295.841 446.311C295.79 445.241 296.143 444.719 296.772 443.996C297.024 443.706 297.1 443.215 297.176 442.839C297.226 442.491 297.453 442.173 297.78 442.202C298.334 442.231 298.938 442.115 299.542 441.768C301.455 440.697 302.463 438.875 303.621 436.936C304.25 435.837 304.955 434.823 305.786 433.695C305.836 433.609 305.861 433.522 305.861 433.435C305.962 432.22 305.961 431.004 305.483 429.846C304.728 428.111 304.577 426.172 305.735 424.668C306.415 423.8 307.296 423.742 308.203 423.626C309.21 423.452 310.091 423.047 310.343 421.802C310.468 421.369 310.62 420.992 310.872 420.645C310.922 420.559 310.947 420.472 310.947 420.384C310.947 420.24 310.871 420.124 310.77 420.038C310.62 419.893 310.393 419.807 310.217 419.777C309.386 419.661 308.832 419.314 308.454 418.706C307.749 417.548 307.422 415.899 307.825 414.568C308.102 413.758 308.807 413.614 309.26 414.307C309.939 415.377 310.72 416.188 311.928 416.449C312.205 416.478 312.532 416.391 312.759 416.275C313.186 415.986 313.639 415.667 314.118 415.379C314.496 415.147 314.648 414.8 314.874 414.423V414.427C315.277 413.675 316.284 413.502 316.964 413.473C317.971 413.415 318.802 413.329 319.431 413.213C319.734 413.184 320.036 413.009 320.413 412.75C320.875 412.378 321.464 412.129 322.045 412.001V452.833Z" fill="#C2C2C2"/>
<path d="M322.045 407.833C321.404 406.976 321.01 406.003 320.841 404.9C320.841 404.842 320.791 404.813 320.765 404.813H320.74C320.211 405.247 319.607 405.508 319.078 405.883C318.273 406.491 317.442 407.099 316.611 407.735C316.234 407.995 315.805 408.197 315.402 408.284C315.201 408.341 315.025 408.371 314.874 408.458C314.849 408.458 314.798 408.516 314.773 408.544C313.565 410.396 312.331 411.871 310.191 411.987C308.026 412.102 305.886 411.467 303.822 411.033C302.84 410.802 301.455 410.685 299.617 410.598C297.779 410.483 296.722 409.875 296.319 407.676C296.143 406.605 296.017 405.65 295.992 404.753C295.917 403.538 295.866 402.381 295.841 401.311C295.79 400.241 296.143 399.719 296.772 398.996C297.024 398.706 297.1 398.215 297.176 397.838C297.226 397.491 297.453 397.173 297.78 397.202C298.334 397.231 298.938 397.115 299.542 396.768C301.455 395.697 302.463 393.875 303.621 391.936C304.25 390.836 304.955 389.823 305.786 388.695C305.836 388.608 305.861 388.522 305.861 388.435C305.962 387.22 305.961 386.004 305.483 384.846C304.728 383.11 304.577 381.172 305.735 379.667C306.415 378.8 307.296 378.742 308.203 378.625C309.21 378.452 310.091 378.047 310.343 376.802C310.468 376.368 310.62 375.992 310.872 375.645C310.922 375.558 310.947 375.471 310.947 375.384C310.947 375.24 310.871 375.124 310.77 375.038C310.62 374.893 310.393 374.806 310.217 374.777C309.386 374.661 308.832 374.314 308.454 373.706C307.749 372.548 307.422 370.899 307.825 369.568C308.102 368.758 308.807 368.614 309.26 369.307C309.939 370.377 310.72 371.188 311.928 371.449C312.205 371.478 312.532 371.39 312.759 371.275C313.186 370.985 313.639 370.667 314.118 370.378C314.496 370.147 314.648 369.8 314.874 369.423V369.427C315.277 368.675 316.284 368.502 316.964 368.473C317.971 368.415 318.802 368.329 319.431 368.212C319.734 368.183 320.036 368.009 320.413 367.75C320.875 367.378 321.464 367.128 322.045 367V407.833Z" fill="#C2C2C2"/>
<path d="M322.045 362.832C321.404 361.976 321.01 361.003 320.841 359.9C320.841 359.842 320.791 359.813 320.765 359.813H320.74C320.211 360.247 319.607 360.508 319.078 360.883C318.273 361.491 317.442 362.099 316.611 362.735C316.234 362.995 315.805 363.197 315.402 363.284C315.201 363.341 315.025 363.371 314.874 363.457C314.849 363.457 314.798 363.515 314.773 363.544C313.565 365.396 312.331 366.871 310.191 366.987C308.026 367.102 305.886 366.467 303.822 366.033C302.84 365.801 301.455 365.685 299.617 365.598C297.779 365.482 296.722 364.875 296.319 362.676C296.143 361.605 296.017 360.65 295.992 359.753C295.917 358.538 295.866 357.381 295.841 356.311C295.79 355.241 296.143 354.719 296.772 353.995C297.024 353.706 297.1 353.214 297.176 352.838C297.226 352.491 297.453 352.173 297.78 352.202C298.334 352.23 298.938 352.115 299.542 351.768C301.455 350.697 302.463 348.875 303.621 346.936C304.25 345.836 304.955 344.823 305.786 343.695C305.836 343.608 305.861 343.522 305.861 343.435C305.962 342.22 305.961 341.004 305.483 339.846C304.728 338.11 304.577 336.171 305.735 334.667C306.415 333.799 307.296 333.742 308.203 333.625C309.21 333.452 310.091 333.047 310.343 331.802C310.468 331.368 310.62 330.992 310.872 330.645C310.922 330.558 310.947 330.471 310.947 330.384C310.947 330.24 310.871 330.124 310.77 330.037C310.62 329.893 310.393 329.806 310.217 329.777C309.386 329.661 308.832 329.313 308.454 328.705C307.749 327.548 307.422 325.898 307.825 324.568C308.102 323.758 308.807 323.614 309.26 324.307C309.939 325.377 310.72 326.188 311.928 326.449C312.205 326.478 312.532 326.39 312.759 326.275C313.186 325.985 313.639 325.667 314.118 325.378C314.496 325.147 314.648 324.799 314.874 324.423V324.427C315.277 323.675 316.284 323.502 316.964 323.473C317.971 323.415 318.802 323.328 319.431 323.212C319.734 323.183 320.036 323.009 320.413 322.749C320.875 322.378 321.464 322.128 322.045 322V362.832Z" fill="#C2C2C2"/>
<path d="M322.045 317.832C321.404 316.976 321.01 316.003 320.841 314.9C320.841 314.842 320.791 314.813 320.765 314.813H320.74C320.211 315.247 319.607 315.507 319.078 315.883C318.273 316.491 317.442 317.098 316.611 317.735C316.234 317.995 315.805 318.197 315.402 318.283C315.201 318.341 315.025 318.371 314.874 318.457C314.849 318.457 314.798 318.515 314.773 318.544C313.565 320.395 312.331 321.871 310.191 321.987C308.026 322.102 305.886 321.466 303.822 321.032C302.84 320.801 301.455 320.685 299.617 320.598C297.779 320.482 296.722 319.875 296.319 317.676C296.143 316.605 296.017 315.65 295.992 314.753C295.917 313.538 295.866 312.381 295.841 311.311C295.79 310.241 296.143 309.719 296.772 308.995C297.024 308.706 297.1 308.214 297.176 307.838C297.226 307.491 297.453 307.173 297.78 307.201C298.334 307.23 298.938 307.115 299.542 306.768C301.455 305.697 302.463 303.875 303.621 301.936C304.25 300.836 304.955 299.823 305.786 298.695C305.836 298.608 305.861 298.522 305.861 298.435C305.962 297.22 305.961 296.003 305.483 294.846C304.728 293.11 304.577 291.171 305.735 289.667C306.415 288.799 307.296 288.741 308.203 288.625C309.21 288.452 310.091 288.047 310.343 286.802C310.468 286.368 310.62 285.992 310.872 285.645C310.922 285.558 310.947 285.471 310.947 285.384C310.947 285.24 310.871 285.124 310.77 285.037C310.62 284.893 310.393 284.806 310.217 284.777C309.386 284.661 308.832 284.313 308.454 283.705C307.749 282.548 307.422 280.898 307.825 279.568C308.102 278.758 308.807 278.613 309.26 279.307C309.939 280.377 310.72 281.188 311.928 281.448C312.205 281.477 312.532 281.39 312.759 281.275C313.186 280.985 313.639 280.667 314.118 280.378C314.496 280.146 314.648 279.799 314.874 279.423V279.427C315.277 278.675 316.284 278.502 316.964 278.473C317.971 278.415 318.802 278.328 319.431 278.212C319.734 278.183 320.036 278.009 320.413 277.749C320.875 277.378 321.464 277.128 322.045 277V317.832Z" fill="#C2C2C2"/>
<path d="M322.045 272.832C321.404 271.976 321.01 271.003 320.841 269.9C320.841 269.842 320.791 269.813 320.765 269.813H320.74C320.211 270.247 319.607 270.507 319.078 270.883C318.273 271.491 317.442 272.098 316.611 272.734C316.234 272.995 315.805 273.197 315.402 273.283C315.201 273.341 315.025 273.371 314.874 273.457C314.849 273.457 314.798 273.515 314.773 273.544C313.565 275.395 312.331 276.871 310.191 276.986C308.026 277.102 305.886 276.466 303.822 276.032C302.84 275.801 301.455 275.684 299.617 275.598C297.779 275.482 296.722 274.874 296.319 272.676C296.143 271.605 296.017 270.65 295.992 269.753C295.917 268.538 295.866 267.381 295.841 266.311C295.79 265.24 296.143 264.719 296.772 263.995C297.024 263.706 297.1 263.214 297.176 262.838C297.226 262.491 297.453 262.172 297.78 262.201C298.334 262.23 298.938 262.115 299.542 261.768C301.455 260.697 302.463 258.874 303.621 256.936C304.25 255.836 304.955 254.823 305.786 253.694C305.836 253.608 305.861 253.522 305.861 253.435C305.962 252.219 305.961 251.003 305.483 249.846C304.728 248.11 304.577 246.171 305.735 244.667C306.415 243.799 307.296 243.741 308.203 243.625C309.21 243.452 310.091 243.047 310.343 241.802C310.468 241.368 310.62 240.992 310.872 240.645C310.922 240.558 310.947 240.471 310.947 240.384C310.947 240.24 310.871 240.124 310.77 240.037C310.62 239.893 310.393 239.806 310.217 239.776C309.386 239.661 308.832 239.313 308.454 238.705C307.749 237.548 307.422 235.898 307.825 234.568C308.102 233.758 308.807 233.613 309.26 234.307C309.939 235.377 310.72 236.188 311.928 236.448C312.205 236.477 312.532 236.39 312.759 236.275C313.186 235.985 313.639 235.667 314.118 235.378C314.496 235.146 314.648 234.799 314.874 234.423V234.427C315.277 233.675 316.284 233.502 316.964 233.473C317.971 233.415 318.802 233.328 319.431 233.212C319.734 233.183 320.036 233.009 320.413 232.749C320.875 232.377 321.464 232.128 322.045 232V272.832Z" fill="#C2C2C2"/>
<path d="M322.045 227.832C321.404 226.976 321.01 226.002 320.841 224.899C320.841 224.842 320.791 224.813 320.765 224.812H320.74C320.211 225.246 319.607 225.507 319.078 225.883C318.273 226.491 317.442 227.098 316.611 227.734C316.234 227.995 315.805 228.197 315.402 228.283C315.201 228.341 315.025 228.37 314.874 228.457C314.849 228.457 314.798 228.515 314.773 228.544C313.565 230.395 312.331 231.871 310.191 231.986C308.026 232.102 305.886 231.466 303.822 231.032C302.84 230.801 301.455 230.684 299.617 230.598C297.779 230.482 296.722 229.874 296.319 227.676C296.143 226.605 296.017 225.65 295.992 224.753C295.917 223.538 295.866 222.381 295.841 221.311C295.79 220.24 296.143 219.719 296.772 218.995C297.024 218.706 297.1 218.214 297.176 217.838C297.226 217.491 297.453 217.172 297.78 217.201C298.334 217.23 298.938 217.115 299.542 216.768C301.455 215.697 302.463 213.874 303.621 211.936C304.25 210.836 304.955 209.823 305.786 208.694C305.836 208.608 305.861 208.522 305.861 208.435C305.962 207.219 305.961 206.003 305.483 204.846C304.728 203.11 304.577 201.171 305.735 199.667C306.415 198.799 307.296 198.741 308.203 198.625C309.21 198.452 310.091 198.046 310.343 196.802C310.468 196.368 310.62 195.992 310.872 195.645C310.922 195.558 310.947 195.471 310.947 195.384C310.947 195.239 310.871 195.124 310.77 195.037C310.62 194.893 310.393 194.806 310.217 194.776C309.386 194.661 308.832 194.313 308.454 193.705C307.749 192.548 307.422 190.898 307.825 189.567C308.102 188.758 308.807 188.613 309.26 189.307C309.939 190.377 310.72 191.188 311.928 191.448C312.205 191.477 312.532 191.39 312.759 191.274C313.186 190.985 313.639 190.667 314.118 190.378C314.496 190.146 314.648 189.799 314.874 189.423V189.427C315.277 188.674 316.284 188.502 316.964 188.473C317.971 188.415 318.802 188.328 319.431 188.212C319.734 188.183 320.036 188.009 320.413 187.749C320.875 187.377 321.464 187.128 322.045 187V227.832Z" fill="#C2C2C2"/>
<path d="M322.045 182.832C321.404 181.976 321.01 181.002 320.841 179.899C320.841 179.842 320.791 179.813 320.765 179.812H320.74C320.211 180.246 319.607 180.507 319.078 180.883C318.273 181.491 317.442 182.098 316.611 182.734C316.234 182.995 315.805 183.197 315.402 183.283C315.201 183.341 315.025 183.37 314.874 183.457C314.849 183.457 314.798 183.515 314.773 183.544C313.565 185.395 312.331 186.871 310.191 186.986C308.026 187.102 305.886 186.466 303.822 186.032C302.84 185.801 301.455 185.684 299.617 185.598C297.779 185.482 296.722 184.874 296.319 182.676C296.143 181.605 296.017 180.65 295.992 179.753C295.917 178.538 295.866 177.381 295.841 176.311C295.79 175.24 296.143 174.719 296.772 173.995C297.024 173.706 297.1 173.214 297.176 172.838C297.226 172.491 297.453 172.172 297.78 172.201C298.334 172.23 298.938 172.115 299.542 171.768C301.455 170.697 302.463 168.874 303.621 166.936C304.25 165.836 304.955 164.823 305.786 163.694C305.836 163.608 305.861 163.522 305.861 163.435C305.962 162.219 305.961 161.003 305.483 159.846C304.728 158.11 304.577 156.171 305.735 154.667C306.415 153.799 307.296 153.741 308.203 153.625C309.21 153.452 310.091 153.046 310.343 151.802C310.468 151.368 310.62 150.992 310.872 150.645C310.922 150.558 310.947 150.471 310.947 150.384C310.947 150.239 310.871 150.124 310.77 150.037C310.62 149.893 310.393 149.806 310.217 149.776C309.386 149.661 308.832 149.313 308.454 148.705C307.749 147.548 307.422 145.898 307.825 144.567C308.102 143.758 308.807 143.613 309.26 144.307C309.939 145.377 310.72 146.188 311.928 146.448C312.205 146.477 312.532 146.39 312.759 146.274C313.186 145.985 313.639 145.667 314.118 145.378C314.496 145.146 314.648 144.799 314.874 144.423V144.427C315.277 143.674 316.284 143.502 316.964 143.473C317.971 143.415 318.802 143.328 319.431 143.212C319.734 143.183 320.036 143.009 320.413 142.749C320.875 142.377 321.464 142.128 322.045 142V182.832Z" fill="#C2C2C2"/>
<path d="M361.209 227.832C360.568 226.976 360.174 226.002 360.005 224.899C360.005 224.842 359.955 224.813 359.93 224.812H359.904C359.375 225.246 358.771 225.507 358.242 225.883C357.437 226.491 356.606 227.098 355.775 227.734C355.398 227.995 354.969 228.197 354.566 228.283C354.365 228.341 354.189 228.37 354.038 228.457C354.013 228.457 353.962 228.515 353.937 228.544C352.729 230.395 351.495 231.871 349.355 231.986C347.19 232.102 345.05 231.466 342.986 231.032C342.004 230.801 340.619 230.684 338.781 230.598C336.943 230.482 335.886 229.874 335.483 227.676C335.307 226.605 335.181 225.65 335.156 224.753C335.081 223.538 335.03 222.381 335.005 221.311C334.954 220.24 335.307 219.719 335.936 218.995C336.188 218.706 336.264 218.214 336.34 217.838C336.39 217.491 336.617 217.172 336.944 217.201C337.498 217.23 338.102 217.115 338.706 216.768C340.619 215.697 341.627 213.874 342.785 211.936C343.415 210.836 344.119 209.823 344.95 208.694C345 208.608 345.025 208.522 345.025 208.435C345.126 207.219 345.125 206.003 344.647 204.846C343.892 203.11 343.741 201.171 344.899 199.667C345.579 198.799 346.46 198.741 347.367 198.625C348.374 198.452 349.255 198.046 349.507 196.802C349.632 196.368 349.784 195.992 350.036 195.645C350.086 195.558 350.111 195.471 350.111 195.384C350.111 195.239 350.035 195.124 349.934 195.037C349.784 194.893 349.557 194.806 349.381 194.776C348.55 194.661 347.996 194.313 347.618 193.705C346.913 192.548 346.586 190.898 346.989 189.567C347.266 188.758 347.971 188.613 348.424 189.307C349.103 190.377 349.884 191.188 351.092 191.448C351.369 191.477 351.696 191.39 351.923 191.274C352.35 190.985 352.804 190.667 353.282 190.378C353.66 190.146 353.812 189.799 354.038 189.423V189.427C354.441 188.674 355.448 188.502 356.128 188.473C357.135 188.415 357.966 188.328 358.596 188.212C358.898 188.183 359.2 188.009 359.577 187.749C360.039 187.377 360.628 187.128 361.209 187V227.832Z" fill="#C2C2C2"/>
<path d="M361.254 452.833C360.613 451.976 360.219 451.003 360.05 449.9C360.05 449.843 360 449.813 359.974 449.813H359.949C359.42 450.247 358.816 450.508 358.287 450.883C357.482 451.491 356.651 452.099 355.82 452.735C355.443 452.996 355.014 453.197 354.611 453.284C354.41 453.342 354.234 453.371 354.083 453.458C354.058 453.458 354.007 453.516 353.982 453.545C352.774 455.396 351.54 456.871 349.4 456.987C347.235 457.102 345.095 456.467 343.031 456.033C342.049 455.802 340.664 455.685 338.826 455.598C336.988 455.483 335.931 454.875 335.528 452.676C335.352 451.606 335.226 450.65 335.201 449.754C335.126 448.538 335.075 447.381 335.05 446.311C334.999 445.241 335.352 444.719 335.981 443.996C336.233 443.706 336.309 443.215 336.385 442.839C336.435 442.491 336.662 442.173 336.989 442.202C337.543 442.231 338.147 442.115 338.751 441.768C340.664 440.697 341.672 438.875 342.83 436.936C343.459 435.837 344.164 434.823 344.995 433.695C345.045 433.609 345.07 433.522 345.07 433.435C345.171 432.22 345.17 431.004 344.692 429.846C343.937 428.111 343.786 426.172 344.944 424.668C345.624 423.8 346.505 423.742 347.412 423.626C348.419 423.452 349.3 423.047 349.552 421.802C349.677 421.369 349.829 420.992 350.081 420.645C350.131 420.559 350.156 420.472 350.156 420.384C350.156 420.24 350.08 420.124 349.979 420.038C349.829 419.893 349.602 419.807 349.426 419.777C348.595 419.661 348.041 419.314 347.663 418.706C346.958 417.548 346.631 415.899 347.034 414.568C347.311 413.758 348.016 413.614 348.469 414.307C349.148 415.377 349.929 416.188 351.137 416.449C351.414 416.478 351.741 416.391 351.968 416.275C352.395 415.986 352.848 415.667 353.327 415.379C353.705 415.147 353.857 414.8 354.083 414.423V414.427C354.486 413.675 355.493 413.502 356.173 413.473C357.18 413.415 358.011 413.329 358.64 413.213C358.942 413.184 359.245 413.009 359.622 412.75C360.084 412.378 360.673 412.129 361.254 412.001V452.833Z" fill="#C2C2C2"/>
<path d="M361.254 407.833C360.613 406.976 360.219 406.003 360.05 404.9C360.05 404.842 360 404.813 359.974 404.813H359.949C359.42 405.247 358.816 405.508 358.287 405.883C357.482 406.491 356.651 407.099 355.82 407.735C355.443 407.995 355.014 408.197 354.611 408.284C354.41 408.341 354.234 408.371 354.083 408.458C354.058 408.458 354.007 408.516 353.982 408.544C352.774 410.396 351.54 411.871 349.4 411.987C347.235 412.102 345.095 411.467 343.031 411.033C342.049 410.802 340.664 410.685 338.826 410.598C336.988 410.483 335.931 409.875 335.528 407.676C335.352 406.605 335.226 405.65 335.201 404.753C335.126 403.538 335.075 402.381 335.05 401.311C334.999 400.241 335.352 399.719 335.981 398.996C336.233 398.706 336.309 398.215 336.385 397.838C336.435 397.491 336.662 397.173 336.989 397.202C337.543 397.231 338.147 397.115 338.751 396.768C340.664 395.697 341.672 393.875 342.83 391.936C343.459 390.836 344.164 389.823 344.995 388.695C345.045 388.608 345.07 388.522 345.07 388.435C345.171 387.22 345.17 386.004 344.692 384.846C343.937 383.11 343.786 381.172 344.944 379.667C345.624 378.8 346.505 378.742 347.412 378.625C348.419 378.452 349.3 378.047 349.552 376.802C349.677 376.368 349.829 375.992 350.081 375.645C350.131 375.558 350.156 375.471 350.156 375.384C350.156 375.24 350.08 375.124 349.979 375.038C349.829 374.893 349.602 374.806 349.426 374.777C348.595 374.661 348.041 374.314 347.663 373.706C346.958 372.548 346.631 370.899 347.034 369.568C347.311 368.758 348.016 368.614 348.469 369.307C349.148 370.377 349.929 371.188 351.137 371.449C351.414 371.478 351.741 371.39 351.968 371.275C352.395 370.985 352.848 370.667 353.327 370.378C353.705 370.147 353.857 369.8 354.083 369.423V369.427C354.486 368.675 355.493 368.502 356.173 368.473C357.18 368.415 358.011 368.329 358.64 368.212C358.942 368.183 359.245 368.009 359.622 367.75C360.084 367.378 360.673 367.128 361.254 367V407.833Z" fill="#C2C2C2"/>
<path d="M361.254 362.832C360.613 361.976 360.219 361.003 360.05 359.9C360.05 359.842 360 359.813 359.974 359.813H359.949C359.42 360.247 358.816 360.508 358.287 360.883C357.482 361.491 356.651 362.099 355.82 362.735C355.443 362.995 355.014 363.197 354.611 363.284C354.41 363.341 354.234 363.371 354.083 363.457C354.058 363.457 354.007 363.515 353.982 363.544C352.774 365.396 351.54 366.871 349.4 366.987C347.235 367.102 345.095 366.467 343.031 366.033C342.049 365.801 340.664 365.685 338.826 365.598C336.988 365.482 335.931 364.875 335.528 362.676C335.352 361.605 335.226 360.65 335.201 359.753C335.126 358.538 335.075 357.381 335.05 356.311C334.999 355.241 335.352 354.719 335.981 353.995C336.233 353.706 336.309 353.214 336.385 352.838C336.435 352.491 336.662 352.173 336.989 352.202C337.543 352.23 338.147 352.115 338.751 351.768C340.664 350.697 341.672 348.875 342.83 346.936C343.459 345.836 344.164 344.823 344.995 343.695C345.045 343.608 345.07 343.522 345.07 343.435C345.171 342.22 345.17 341.004 344.692 339.846C343.937 338.11 343.786 336.171 344.944 334.667C345.624 333.799 346.505 333.742 347.412 333.625C348.419 333.452 349.3 333.047 349.552 331.802C349.677 331.368 349.829 330.992 350.081 330.645C350.131 330.558 350.156 330.471 350.156 330.384C350.156 330.24 350.08 330.124 349.979 330.037C349.829 329.893 349.602 329.806 349.426 329.777C348.595 329.661 348.041 329.313 347.663 328.705C346.958 327.548 346.631 325.898 347.034 324.568C347.311 323.758 348.016 323.614 348.469 324.307C349.148 325.377 349.929 326.188 351.137 326.449C351.414 326.478 351.741 326.39 351.968 326.275C352.395 325.985 352.848 325.667 353.327 325.378C353.705 325.147 353.857 324.799 354.083 324.423V324.427C354.486 323.675 355.493 323.502 356.173 323.473C357.18 323.415 358.011 323.328 358.64 323.212C358.942 323.183 359.245 323.009 359.622 322.749C360.084 322.378 360.673 322.128 361.254 322V362.832Z" fill="#C2C2C2"/>
<path d="M361.254 317.832C360.613 316.976 360.219 316.003 360.05 314.9C360.05 314.842 360 314.813 359.974 314.813H359.949C359.42 315.247 358.816 315.507 358.287 315.883C357.482 316.491 356.651 317.098 355.82 317.735C355.443 317.995 355.014 318.197 354.611 318.283C354.41 318.341 354.234 318.371 354.083 318.457C354.058 318.457 354.007 318.515 353.982 318.544C352.774 320.395 351.54 321.871 349.4 321.987C347.235 322.102 345.095 321.466 343.031 321.032C342.049 320.801 340.664 320.685 338.826 320.598C336.988 320.482 335.931 319.875 335.528 317.676C335.352 316.605 335.226 315.65 335.201 314.753C335.126 313.538 335.075 312.381 335.05 311.311C334.999 310.241 335.352 309.719 335.981 308.995C336.233 308.706 336.309 308.214 336.385 307.838C336.435 307.491 336.662 307.173 336.989 307.201C337.543 307.23 338.147 307.115 338.751 306.768C340.664 305.697 341.672 303.875 342.83 301.936C343.459 300.836 344.164 299.823 344.995 298.695C345.045 298.608 345.07 298.522 345.07 298.435C345.171 297.22 345.17 296.003 344.692 294.846C343.937 293.11 343.786 291.171 344.944 289.667C345.624 288.799 346.505 288.741 347.412 288.625C348.419 288.452 349.3 288.047 349.552 286.802C349.677 286.368 349.829 285.992 350.081 285.645C350.131 285.558 350.156 285.471 350.156 285.384C350.156 285.24 350.08 285.124 349.979 285.037C349.829 284.893 349.602 284.806 349.426 284.777C348.595 284.661 348.041 284.313 347.663 283.705C346.958 282.548 346.631 280.898 347.034 279.568C347.311 278.758 348.016 278.613 348.469 279.307C349.148 280.377 349.929 281.188 351.137 281.448C351.414 281.477 351.741 281.39 351.968 281.275C352.395 280.985 352.848 280.667 353.327 280.378C353.705 280.146 353.857 279.799 354.083 279.423V279.427C354.486 278.675 355.493 278.502 356.173 278.473C357.18 278.415 358.011 278.328 358.64 278.212C358.942 278.183 359.245 278.009 359.622 277.749C360.084 277.378 360.673 277.128 361.254 277V317.832Z" fill="#C2C2C2"/>
<path d="M361.254 272.832C360.613 271.976 360.219 271.003 360.05 269.9C360.05 269.842 360 269.813 359.974 269.813H359.949C359.42 270.247 358.816 270.507 358.287 270.883C357.482 271.491 356.651 272.098 355.82 272.734C355.443 272.995 355.014 273.197 354.611 273.283C354.41 273.341 354.234 273.371 354.083 273.457C354.058 273.457 354.007 273.515 353.982 273.544C352.774 275.395 351.54 276.871 349.4 276.986C347.235 277.102 345.095 276.466 343.031 276.032C342.049 275.801 340.664 275.684 338.826 275.598C336.988 275.482 335.931 274.874 335.528 272.676C335.352 271.605 335.226 270.65 335.201 269.753C335.126 268.538 335.075 267.381 335.05 266.311C334.999 265.24 335.352 264.719 335.981 263.995C336.233 263.706 336.309 263.214 336.385 262.838C336.435 262.491 336.662 262.172 336.989 262.201C337.543 262.23 338.147 262.115 338.751 261.768C340.664 260.697 341.672 258.874 342.83 256.936C343.459 255.836 344.164 254.823 344.995 253.694C345.045 253.608 345.07 253.522 345.07 253.435C345.171 252.219 345.17 251.003 344.692 249.846C343.937 248.11 343.786 246.171 344.944 244.667C345.624 243.799 346.505 243.741 347.412 243.625C348.419 243.452 349.3 243.047 349.552 241.802C349.677 241.368 349.829 240.992 350.081 240.645C350.131 240.558 350.156 240.471 350.156 240.384C350.156 240.24 350.08 240.124 349.979 240.037C349.829 239.893 349.602 239.806 349.426 239.776C348.595 239.661 348.041 239.313 347.663 238.705C346.958 237.548 346.631 235.898 347.034 234.568C347.311 233.758 348.016 233.613 348.469 234.307C349.148 235.377 349.929 236.188 351.137 236.448C351.414 236.477 351.741 236.39 351.968 236.275C352.395 235.985 352.848 235.667 353.327 235.378C353.705 235.146 353.857 234.799 354.083 234.423V234.427C354.486 233.675 355.493 233.502 356.173 233.473C357.18 233.415 358.011 233.328 358.64 233.212C358.942 233.183 359.245 233.009 359.622 232.749C360.084 232.377 360.673 232.128 361.254 232V272.832Z" fill="#C2C2C2"/>
</svg>
