<svg width="500" height="600" viewBox="0 0 500 600" fill="none" xmlns="http://www.w3.org/2000/svg">
<path d="M165.209 295.832C164.568 294.976 164.174 294.002 164.005 292.899C164.005 292.842 163.955 292.813 163.93 292.812H163.904C163.375 293.246 162.771 293.507 162.242 293.883C161.437 294.491 160.606 295.098 159.775 295.734C159.398 295.995 158.969 296.197 158.566 296.283C158.365 296.341 158.189 296.37 158.038 296.457C158.013 296.457 157.962 296.515 157.937 296.544C156.729 298.395 155.495 299.871 153.355 299.986C151.19 300.102 149.05 299.466 146.986 299.032C146.004 298.801 144.619 298.684 142.781 298.598C140.943 298.482 139.886 297.874 139.483 295.676C139.307 294.605 139.181 293.65 139.156 292.753C139.081 291.538 139.03 290.381 139.005 289.311C138.954 288.24 139.307 287.719 139.936 286.995C140.188 286.706 140.264 286.214 140.34 285.838C140.39 285.491 140.617 285.172 140.944 285.201C141.498 285.23 142.102 285.115 142.706 284.768C144.619 283.697 145.627 281.874 146.785 279.936C147.415 278.836 148.119 277.823 148.95 276.694C149 276.608 149.025 276.522 149.025 276.435C149.126 275.219 149.125 274.003 148.647 272.846C147.892 271.11 147.741 269.171 148.899 267.667C149.579 266.799 150.46 266.741 151.367 266.625C152.374 266.452 153.255 266.046 153.507 264.802C153.632 264.368 153.784 263.992 154.036 263.645C154.086 263.558 154.111 263.471 154.111 263.384C154.111 263.239 154.035 263.124 153.934 263.037C153.784 262.893 153.557 262.806 153.381 262.776C152.55 262.661 151.996 262.313 151.618 261.705C150.913 260.548 150.586 258.898 150.989 257.567C151.266 256.758 151.971 256.613 152.424 257.307C153.103 258.377 153.884 259.188 155.092 259.448C155.369 259.477 155.696 259.39 155.923 259.274C156.35 258.985 156.804 258.667 157.282 258.378C157.66 258.146 157.812 257.799 158.038 257.423V257.427C158.441 256.674 159.448 256.502 160.128 256.473C161.135 256.415 161.966 256.328 162.596 256.212C162.898 256.183 163.2 256.009 163.577 255.749C164.039 255.377 164.628 255.128 165.209 255V295.832Z" fill="#C2C2C2"/>
<path d="M204.418 295.832C203.777 294.976 203.383 294.002 203.214 292.899C203.214 292.842 203.164 292.813 203.139 292.812H203.113C202.584 293.246 201.98 293.507 201.451 293.883C200.646 294.491 199.815 295.098 198.984 295.734C198.607 295.995 198.178 296.197 197.775 296.283C197.574 296.341 197.398 296.37 197.247 296.457C197.222 296.457 197.171 296.515 197.146 296.544C195.938 298.395 194.704 299.871 192.564 299.986C190.399 300.102 188.259 299.466 186.195 299.032C185.213 298.801 183.828 298.684 181.99 298.598C180.152 298.482 179.095 297.874 178.692 295.676C178.516 294.605 178.39 293.65 178.365 292.753C178.29 291.538 178.239 290.381 178.214 289.311C178.163 288.24 178.516 287.719 179.145 286.995C179.397 286.706 179.473 286.214 179.549 285.838C179.599 285.491 179.826 285.172 180.153 285.201C180.707 285.23 181.311 285.115 181.915 284.768C183.828 283.697 184.836 281.874 185.994 279.936C186.624 278.836 187.328 277.823 188.159 276.694C188.209 276.608 188.234 276.522 188.234 276.435C188.335 275.219 188.334 274.003 187.856 272.846C187.101 271.11 186.95 269.171 188.108 267.667C188.788 266.799 189.669 266.741 190.576 266.625C191.583 266.452 192.464 266.046 192.716 264.802C192.841 264.368 192.993 263.992 193.245 263.645C193.295 263.558 193.32 263.471 193.32 263.384C193.32 263.239 193.244 263.124 193.143 263.037C192.993 262.893 192.766 262.806 192.59 262.776C191.759 262.661 191.205 262.313 190.827 261.705C190.122 260.548 189.795 258.898 190.198 257.567C190.475 256.758 191.18 256.613 191.633 257.307C192.312 258.377 193.093 259.188 194.301 259.448C194.578 259.477 194.905 259.39 195.132 259.274C195.559 258.985 196.013 258.667 196.491 258.378C196.869 258.146 197.021 257.799 197.247 257.423V257.427C197.65 256.674 198.657 256.502 199.337 256.473C200.344 256.415 201.175 256.328 201.805 256.212C202.107 256.183 202.409 256.009 202.786 255.749C203.248 255.377 203.837 255.128 204.418 255V295.832Z" fill="#C2C2C2"/>
<path d="M243.627 295.832C242.986 294.976 242.592 294.002 242.423 292.899C242.423 292.842 242.373 292.813 242.348 292.812H242.322C241.793 293.246 241.189 293.507 240.66 293.883C239.855 294.491 239.024 295.098 238.193 295.734C237.816 295.995 237.387 296.197 236.984 296.283C236.783 296.341 236.607 296.37 236.456 296.457C236.431 296.457 236.38 296.515 236.355 296.544C235.147 298.395 233.913 299.871 231.773 299.986C229.608 300.102 227.468 299.466 225.404 299.032C224.422 298.801 223.037 298.684 221.199 298.598C219.361 298.482 218.304 297.874 217.901 295.676C217.725 294.605 217.599 293.65 217.574 292.753C217.499 291.538 217.448 290.381 217.423 289.311C217.372 288.24 217.725 287.719 218.354 286.995C218.606 286.706 218.682 286.214 218.758 285.838C218.808 285.491 219.035 285.172 219.362 285.201C219.916 285.23 220.52 285.115 221.124 284.768C223.037 283.697 224.045 281.874 225.203 279.936C225.832 278.836 226.537 277.823 227.368 276.694C227.418 276.608 227.443 276.522 227.443 276.435C227.544 275.219 227.543 274.003 227.065 272.846C226.31 271.11 226.159 269.171 227.317 267.667C227.997 266.799 228.878 266.741 229.785 266.625C230.792 266.452 231.673 266.046 231.925 264.802C232.05 264.368 232.202 263.992 232.454 263.645C232.504 263.558 232.529 263.471 232.529 263.384C232.529 263.239 232.453 263.124 232.352 263.037C232.202 262.893 231.975 262.806 231.799 262.776C230.968 262.661 230.414 262.313 230.036 261.705C229.331 260.548 229.004 258.898 229.407 257.567C229.684 256.758 230.389 256.613 230.842 257.307C231.521 258.377 232.302 259.188 233.51 259.448C233.787 259.477 234.114 259.39 234.341 259.274C234.768 258.985 235.221 258.667 235.7 258.378C236.078 258.146 236.23 257.799 236.456 257.423V257.427C236.859 256.674 237.866 256.502 238.546 256.473C239.553 256.415 240.384 256.328 241.014 256.212C241.316 256.183 241.618 256.009 241.995 255.749C242.457 255.377 243.046 255.128 243.627 255V295.832Z" fill="#C2C2C2"/>
<path d="M282.836 295.832C282.195 294.976 281.801 294.002 281.632 292.899C281.632 292.842 281.582 292.813 281.556 292.812H281.531C281.002 293.246 280.398 293.507 279.869 293.883C279.064 294.491 278.233 295.098 277.402 295.734C277.025 295.995 276.596 296.197 276.193 296.283C275.992 296.341 275.816 296.37 275.665 296.457C275.64 296.457 275.589 296.515 275.564 296.544C274.356 298.395 273.122 299.871 270.982 299.986C268.817 300.102 266.677 299.466 264.613 299.032C263.631 298.801 262.246 298.684 260.408 298.598C258.57 298.482 257.513 297.874 257.11 295.676C256.934 294.605 256.808 293.65 256.783 292.753C256.708 291.538 256.657 290.381 256.632 289.311C256.581 288.24 256.934 287.719 257.563 286.995C257.815 286.706 257.891 286.214 257.967 285.838C258.017 285.491 258.244 285.172 258.571 285.201C259.125 285.23 259.729 285.115 260.333 284.768C262.246 283.697 263.254 281.874 264.412 279.936C265.041 278.836 265.746 277.823 266.577 276.694C266.627 276.608 266.652 276.522 266.652 276.435C266.753 275.219 266.752 274.003 266.274 272.846C265.519 271.11 265.368 269.171 266.526 267.667C267.206 266.799 268.087 266.741 268.994 266.625C270.001 266.452 270.882 266.046 271.134 264.802C271.259 264.368 271.411 263.992 271.663 263.645C271.713 263.558 271.738 263.471 271.738 263.384C271.738 263.239 271.662 263.124 271.561 263.037C271.411 262.893 271.184 262.806 271.008 262.776C270.177 262.661 269.623 262.313 269.245 261.705C268.54 260.548 268.213 258.898 268.616 257.567C268.893 256.758 269.598 256.613 270.051 257.307C270.73 258.377 271.511 259.188 272.719 259.448C272.996 259.477 273.323 259.39 273.55 259.274C273.977 258.985 274.43 258.667 274.909 258.378C275.287 258.146 275.439 257.799 275.665 257.423V257.427C276.068 256.674 277.075 256.502 277.755 256.473C278.762 256.415 279.593 256.328 280.223 256.212C280.525 256.183 280.827 256.009 281.204 255.749C281.666 255.377 282.255 255.128 282.836 255V295.832Z" fill="#C2C2C2"/>
<path d="M322.045 295.832C321.404 294.976 321.01 294.002 320.841 292.899C320.841 292.842 320.791 292.813 320.765 292.812H320.74C320.211 293.246 319.607 293.507 319.078 293.883C318.273 294.491 317.442 295.098 316.611 295.734C316.234 295.995 315.805 296.197 315.402 296.283C315.201 296.341 315.025 296.37 314.874 296.457C314.849 296.457 314.798 296.515 314.773 296.544C313.565 298.395 312.331 299.871 310.191 299.986C308.026 300.102 305.886 299.466 303.822 299.032C302.84 298.801 301.455 298.684 299.617 298.598C297.779 298.482 296.722 297.874 296.319 295.676C296.143 294.605 296.017 293.65 295.992 292.753C295.917 291.538 295.866 290.381 295.841 289.311C295.79 288.24 296.143 287.719 296.772 286.995C297.024 286.706 297.1 286.214 297.176 285.838C297.226 285.491 297.453 285.172 297.78 285.201C298.334 285.23 298.938 285.115 299.542 284.768C301.455 283.697 302.463 281.874 303.621 279.936C304.25 278.836 304.955 277.823 305.786 276.694C305.836 276.608 305.861 276.522 305.861 276.435C305.962 275.219 305.961 274.003 305.483 272.846C304.728 271.11 304.577 269.171 305.735 267.667C306.415 266.799 307.296 266.741 308.203 266.625C309.21 266.452 310.091 266.046 310.343 264.802C310.468 264.368 310.62 263.992 310.872 263.645C310.922 263.558 310.947 263.471 310.947 263.384C310.947 263.239 310.871 263.124 310.77 263.037C310.62 262.893 310.393 262.806 310.217 262.776C309.386 262.661 308.832 262.313 308.454 261.705C307.749 260.548 307.422 258.898 307.825 257.567C308.102 256.758 308.807 256.613 309.26 257.307C309.939 258.377 310.72 259.188 311.928 259.448C312.205 259.477 312.532 259.39 312.759 259.274C313.186 258.985 313.639 258.667 314.118 258.378C314.496 258.146 314.648 257.799 314.874 257.423V257.427C315.277 256.674 316.284 256.502 316.964 256.473C317.971 256.415 318.802 256.328 319.431 256.212C319.734 256.183 320.036 256.009 320.413 255.749C320.875 255.377 321.464 255.128 322.045 255V295.832Z" fill="#C2C2C2"/>
</svg>
