<svg width="500" height="600" viewBox="0 0 500 600" fill="none" xmlns="http://www.w3.org/2000/svg">
<path d="M82.0117 316.956C88.8117 318.868 95.0724 322.12 101.471 324.994C114.042 330.644 126.503 336.542 138.986 342.393V350.433C138.58 350.085 138.065 349.766 137.439 349.445C126.163 343.662 115.019 337.617 103.734 331.851C96.3404 328.071 89.1902 323.876 82 319.741L82.0117 319.735V316.956Z" fill="#5C5C5C"/>
<path d="M82.0117 283.478C88.8117 285.389 95.0724 288.641 101.471 291.516C114.042 297.165 126.503 303.063 138.986 308.914V316.955C138.58 316.607 138.065 316.288 137.439 315.968C126.163 310.184 115.019 304.138 103.734 298.372C96.3405 294.592 89.1902 290.397 82 286.263L82.0117 286.257V283.478Z" fill="#5C5C5C"/>
<path d="M82.0117 250C88.8117 251.911 95.0724 255.164 101.471 258.038C114.042 263.688 126.503 269.586 138.986 275.437V283.477C138.58 283.129 138.065 282.81 137.439 282.489C126.163 276.706 115.019 270.66 103.734 264.894C96.3405 261.114 89.1901 256.919 82 252.785L82.0117 252.779V250Z" fill="#5C5C5C"/>
<path d="M151.997 316.956C158.797 318.868 165.058 322.12 171.456 324.994C184.028 330.644 196.489 336.542 208.973 342.394V350.434C208.566 350.085 208.051 349.766 207.425 349.445C196.149 343.662 185.004 337.616 173.72 331.85C166.326 328.07 159.176 323.875 151.986 319.741L151.997 319.735V316.956Z" fill="#5C5C5C"/>
<path d="M151.997 283.478C158.797 285.389 165.058 288.64 171.456 291.515C184.028 297.164 196.489 303.063 208.973 308.914V316.955C208.566 316.607 208.051 316.287 207.425 315.967C196.149 310.183 185.004 304.137 173.72 298.371C166.326 294.591 159.176 290.396 151.986 286.262L151.997 286.256V283.478Z" fill="#5C5C5C"/>
<path d="M151.997 250C158.797 251.911 165.058 255.164 171.456 258.038C184.028 263.688 196.489 269.586 208.973 275.438V283.478C208.566 283.129 208.051 282.81 207.425 282.489C196.149 276.706 185.004 270.661 173.72 264.895C166.326 261.115 159.176 256.919 151.986 252.785L151.997 252.779V250Z" fill="#5C5C5C"/>
<path d="M221.983 316.956C228.783 318.867 235.044 322.12 241.442 324.994C254.014 330.644 266.476 336.542 278.959 342.394V350.434C278.553 350.085 278.037 349.766 277.411 349.445C266.135 343.662 254.991 337.617 243.707 331.851C236.313 328.071 229.163 323.875 221.973 319.741L221.983 319.735V316.956Z" fill="#5C5C5C"/>
<path d="M221.983 283.478C228.783 285.389 235.044 288.641 241.442 291.516C254.014 297.165 266.476 303.064 278.959 308.915V316.956C278.552 316.608 278.037 316.288 277.411 315.968C266.135 310.184 254.991 304.138 243.707 298.372C236.313 294.592 229.163 290.397 221.973 286.263L221.983 286.257V283.478Z" fill="#5C5C5C"/>
<path d="M221.983 250C228.783 251.911 235.044 255.164 241.442 258.038C254.014 263.688 266.476 269.586 278.959 275.438V283.478C278.553 283.129 278.037 282.81 277.411 282.489C266.135 276.706 254.991 270.661 243.707 264.895C236.313 261.115 229.163 256.919 221.973 252.785L221.983 252.779V250Z" fill="#5C5C5C"/>
<path d="M291.97 316.956C298.77 318.868 305.03 322.12 311.429 324.994C324 330.644 336.461 336.542 348.944 342.393V350.433C348.538 350.085 348.023 349.766 347.397 349.445C336.121 343.662 324.977 337.616 313.692 331.85C306.299 328.07 299.149 323.875 291.959 319.741L291.97 319.735V316.956Z" fill="#5C5C5C"/>
<path d="M291.97 283.478C298.77 285.389 305.031 288.64 311.429 291.515C324 297.164 336.462 303.062 348.944 308.913V316.954C348.538 316.606 348.023 316.287 347.397 315.967C336.121 310.183 324.977 304.137 313.692 298.371C306.299 294.591 299.149 290.396 291.959 286.262L291.97 286.256V283.478Z" fill="#5C5C5C"/>
<path d="M291.97 250C298.77 251.911 305.03 255.164 311.429 258.038C324 263.688 336.462 269.586 348.944 275.437V283.477C348.538 283.129 348.023 282.81 347.397 282.489C336.121 276.706 324.977 270.661 313.692 264.895C306.299 261.115 299.149 256.919 291.959 252.785L291.97 252.779V250Z" fill="#5C5C5C"/>
<path d="M361.955 316.956C368.755 318.868 375.016 322.12 381.414 324.994C393.986 330.644 406.447 336.542 418.931 342.394V350.434C418.524 350.085 418.009 349.766 417.383 349.445C406.107 343.662 394.962 337.617 383.678 331.851C376.284 328.071 369.134 323.875 361.944 319.741L361.955 319.735V316.956Z" fill="#5C5C5C"/>
<path d="M361.955 283.478C368.755 285.389 375.016 288.64 381.414 291.515C393.986 297.164 406.447 303.063 418.931 308.914V316.955C418.524 316.607 418.009 316.287 417.383 315.967C406.107 310.183 394.962 304.137 383.678 298.371C376.284 294.591 369.134 290.396 361.944 286.262L361.955 286.256V283.478Z" fill="#5C5C5C"/>
<path d="M361.955 250C368.755 251.911 375.016 255.164 381.414 258.038C393.986 263.688 406.447 269.586 418.931 275.438V283.478C418.524 283.129 418.009 282.81 417.383 282.489C406.107 276.706 394.962 270.661 383.678 264.895C376.284 261.115 369.134 256.919 361.944 252.785L361.955 252.779V250Z" fill="#5C5C5C"/>
</svg>
