<svg width="500" height="600" viewBox="0 0 500 600" fill="none" xmlns="http://www.w3.org/2000/svg">
<path d="M82.0117 333.434C88.8117 335.345 95.0724 338.597 101.471 341.472C114.042 347.121 126.503 353.019 138.986 358.87V366.91C138.58 366.562 138.065 366.243 137.439 365.923C126.163 360.139 115.019 354.094 103.734 348.328C96.3404 344.548 89.1902 340.353 82 336.219L82.0117 336.213V333.434Z" fill="#C2C2C2"/>
<path d="M82.0117 299.955C88.8117 301.867 95.0724 305.119 101.471 307.993C114.042 313.643 126.503 319.541 138.986 325.392V333.433C138.58 333.085 138.065 332.766 137.439 332.445C126.163 326.662 115.019 320.616 103.734 314.85C96.3405 311.07 89.1902 306.875 82 302.74L82.0117 302.734V299.955Z" fill="#C2C2C2"/>
<path d="M82.0117 266.478C88.8117 268.389 95.0724 271.641 101.471 274.516C114.042 280.165 126.503 286.063 138.986 291.914V299.954C138.58 299.606 138.065 299.287 137.439 298.967C126.163 293.183 115.019 287.137 103.734 281.371C96.3405 277.591 89.1901 273.397 82 269.263L82.0117 269.257V266.478Z" fill="#C2C2C2"/>
<path d="M82.0117 233C88.8117 234.911 95.0724 238.164 101.471 241.038C114.042 246.688 126.503 252.586 138.986 258.437V266.477C138.58 266.129 138.065 265.81 137.439 265.489C126.163 259.706 115.019 253.66 103.734 247.894C96.3405 244.114 89.1901 239.919 82 235.785L82.0117 235.779V233Z" fill="#C2C2C2"/>
<path d="M151.997 333.434C158.797 335.345 165.058 338.597 171.456 341.472C184.028 347.121 196.489 353.02 208.973 358.871V366.911C208.566 366.563 208.051 366.244 207.425 365.923C196.149 360.139 185.004 354.093 173.72 348.327C166.326 344.548 159.176 340.353 151.986 336.219L151.997 336.213V333.434Z" fill="#C2C2C2"/>
<path d="M151.997 299.955C158.797 301.867 165.058 305.118 171.456 307.992C184.028 313.642 196.489 319.54 208.973 325.392V333.433C208.566 333.084 208.051 332.765 207.425 332.444C196.149 326.661 185.004 320.615 173.72 314.849C166.326 311.069 159.176 306.873 151.986 302.739L151.997 302.733V299.955Z" fill="#C2C2C2"/>
<path d="M151.997 266.478C158.797 268.389 165.058 271.641 171.456 274.516C184.028 280.165 196.489 286.064 208.973 291.915V299.955C208.566 299.607 208.051 299.287 207.425 298.967C196.149 293.183 185.004 287.138 173.72 281.372C166.326 277.592 159.176 273.397 151.986 269.263L151.997 269.257V266.478Z" fill="#C2C2C2"/>
<path d="M151.997 233C158.797 234.911 165.058 238.164 171.456 241.038C184.028 246.688 196.489 252.586 208.973 258.438V266.478C208.566 266.129 208.051 265.81 207.425 265.489C196.149 259.706 185.004 253.661 173.72 247.895C166.326 244.115 159.176 239.919 151.986 235.785L151.997 235.779V233Z" fill="#C2C2C2"/>
<path d="M221.983 333.434C228.783 335.345 235.044 338.597 241.442 341.472C254.014 347.121 266.476 353.02 278.959 358.871V366.911C278.553 366.563 278.037 366.243 277.411 365.923C266.135 360.14 254.991 354.094 243.707 348.328C236.313 344.548 229.163 340.353 221.973 336.219L221.983 336.213V333.434Z" fill="#C2C2C2"/>
<path d="M221.983 299.955C228.783 301.867 235.044 305.119 241.442 307.993C254.014 313.643 266.476 319.541 278.959 325.393V333.434C278.552 333.085 278.037 332.766 277.411 332.445C266.135 326.662 254.991 320.616 243.707 314.85C236.313 311.07 229.163 306.875 221.973 302.74L221.983 302.734V299.955Z" fill="#C2C2C2"/>
<path d="M221.983 266.478C228.783 268.389 235.044 271.641 241.442 274.516C254.014 280.165 266.476 286.064 278.959 291.915V299.955C278.553 299.607 278.037 299.287 277.411 298.967C266.135 293.183 254.991 287.138 243.707 281.372C236.313 277.592 229.163 273.397 221.973 269.263L221.983 269.257V266.478Z" fill="#C2C2C2"/>
<path d="M291.97 333.434C298.77 335.345 305.03 338.597 311.429 341.472C324 347.121 336.461 353.019 348.944 358.87V366.91C348.538 366.562 348.023 366.243 347.397 365.923C336.121 360.139 324.977 354.093 313.692 348.327C306.299 344.548 299.149 340.353 291.959 336.219L291.97 336.213V333.434Z" fill="#C2C2C2"/>
<path d="M291.97 299.955C298.77 301.867 305.031 305.118 311.429 307.992C324 313.642 336.462 319.54 348.944 325.391V333.432C348.538 333.084 348.023 332.765 347.397 332.444C336.121 326.661 324.977 320.615 313.692 314.849C306.299 311.069 299.149 306.873 291.959 302.739L291.97 302.733V299.955Z" fill="#C2C2C2"/>
<path d="M291.97 266.478C298.77 268.389 305.03 271.641 311.429 274.516C324 280.165 336.462 286.063 348.944 291.914V299.954C348.538 299.606 348.023 299.287 347.397 298.967C336.121 293.183 324.977 287.138 313.692 281.372C306.299 277.592 299.149 273.397 291.959 269.263L291.97 269.257V266.478Z" fill="#C2C2C2"/>
<path d="M361.955 333.434C368.755 335.345 375.016 338.597 381.414 341.472C393.986 347.121 406.447 353.02 418.931 358.871V366.911C418.524 366.563 418.009 366.243 417.383 365.923C406.107 360.139 394.962 354.094 383.678 348.328C376.284 344.548 369.134 340.353 361.944 336.219L361.955 336.213V333.434Z" fill="#C2C2C2"/>
<path d="M361.955 299.955C368.755 301.867 375.016 305.118 381.414 307.992C393.986 313.642 406.447 319.54 418.931 325.392V333.433C418.524 333.084 418.009 332.765 417.383 332.444C406.107 326.661 394.962 320.615 383.678 314.849C376.284 311.069 369.134 306.873 361.944 302.739L361.955 302.733V299.955Z" fill="#C2C2C2"/>
<path d="M361.955 266.478C368.755 268.389 375.016 271.641 381.414 274.516C393.986 280.165 406.447 286.064 418.931 291.915V299.955C418.524 299.607 418.009 299.287 417.383 298.967C406.107 293.183 394.962 287.138 383.678 281.372C376.284 277.592 369.134 273.397 361.944 269.263L361.955 269.257V266.478Z" fill="#C2C2C2"/>
</svg>
