<svg width="500" height="600" viewBox="0 0 500 600" fill="none" xmlns="http://www.w3.org/2000/svg">
<path d="M82.0117 382.956C88.8117 384.868 95.0724 388.12 101.471 390.994C114.042 396.644 126.503 402.542 138.986 408.393V416.433C138.58 416.085 138.065 415.766 137.439 415.445C126.163 409.662 115.019 403.617 103.734 397.851C96.3404 394.071 89.1902 389.876 82 385.741L82.0117 385.735V382.956Z" fill="#C2C2C2"/>
<path d="M82.0117 349.478C88.8117 351.389 95.0724 354.641 101.471 357.516C114.042 363.165 126.503 369.063 138.986 374.914V382.955C138.58 382.607 138.065 382.288 137.439 381.968C126.163 376.184 115.019 370.138 103.734 364.372C96.3405 360.592 89.1902 356.397 82 352.263L82.0117 352.257V349.478Z" fill="#C2C2C2"/>
<path d="M82.0117 316C88.8117 317.911 95.0724 321.164 101.471 324.038C114.042 329.688 126.503 335.586 138.986 341.437V349.477C138.58 349.129 138.065 348.81 137.439 348.489C126.163 342.706 115.019 336.66 103.734 330.894C96.3405 327.114 89.1901 322.919 82 318.785L82.0117 318.779V316Z" fill="#C2C2C2"/>
<path d="M151.997 382.956C158.797 384.868 165.058 388.12 171.456 390.994C184.028 396.644 196.489 402.542 208.973 408.394V416.434C208.566 416.085 208.051 415.766 207.425 415.445C196.149 409.662 185.004 403.616 173.72 397.85C166.326 394.07 159.176 389.875 151.986 385.741L151.997 385.735V382.956Z" fill="#C2C2C2"/>
<path d="M151.997 349.478C158.797 351.389 165.058 354.64 171.456 357.515C184.028 363.164 196.489 369.063 208.973 374.914V382.955C208.566 382.607 208.051 382.287 207.425 381.967C196.149 376.183 185.004 370.137 173.72 364.371C166.326 360.591 159.176 356.396 151.986 352.262L151.997 352.256V349.478Z" fill="#C2C2C2"/>
<path d="M151.997 316C158.797 317.911 165.058 321.164 171.456 324.038C184.028 329.688 196.489 335.586 208.973 341.438V349.478C208.566 349.129 208.051 348.81 207.425 348.489C196.149 342.706 185.004 336.661 173.72 330.895C166.326 327.115 159.176 322.919 151.986 318.785L151.997 318.779V316Z" fill="#C2C2C2"/>
<path d="M221.983 382.956C228.783 384.867 235.044 388.12 241.442 390.994C254.014 396.644 266.476 402.542 278.959 408.394V416.434C278.553 416.085 278.037 415.766 277.411 415.445C266.135 409.662 254.991 403.617 243.707 397.851C236.313 394.071 229.163 389.875 221.973 385.741L221.983 385.735V382.956Z" fill="#C2C2C2"/>
<path d="M221.983 349.478C228.783 351.389 235.044 354.641 241.442 357.516C254.014 363.165 266.476 369.064 278.959 374.915V382.956C278.552 382.608 278.037 382.288 277.411 381.968C266.135 376.184 254.991 370.138 243.707 364.372C236.313 360.592 229.163 356.397 221.973 352.263L221.983 352.257V349.478Z" fill="#C2C2C2"/>
<path d="M221.983 316C228.783 317.911 235.044 321.164 241.442 324.038C254.014 329.688 266.476 335.586 278.959 341.438V349.478C278.553 349.129 278.037 348.81 277.411 348.489C266.135 342.706 254.991 336.661 243.707 330.895C236.313 327.115 229.163 322.919 221.973 318.785L221.983 318.779V316Z" fill="#C2C2C2"/>
<path d="M291.97 382.956C298.77 384.868 305.03 388.12 311.429 390.994C324 396.644 336.461 402.542 348.944 408.393V416.433C348.538 416.085 348.023 415.766 347.397 415.445C336.121 409.662 324.977 403.616 313.692 397.85C306.299 394.07 299.149 389.875 291.959 385.741L291.97 385.735V382.956Z" fill="#C2C2C2"/>
<path d="M291.97 349.478C298.77 351.389 305.031 354.64 311.429 357.515C324 363.164 336.462 369.062 348.944 374.913V382.954C348.538 382.606 348.023 382.287 347.397 381.967C336.121 376.183 324.977 370.137 313.692 364.371C306.299 360.591 299.149 356.396 291.959 352.262L291.97 352.256V349.478Z" fill="#C2C2C2"/>
<path d="M291.97 316C298.77 317.911 305.03 321.164 311.429 324.038C324 329.688 336.462 335.586 348.944 341.437V349.477C348.538 349.129 348.023 348.81 347.397 348.489C336.121 342.706 324.977 336.661 313.692 330.895C306.299 327.115 299.149 322.919 291.959 318.785L291.97 318.779V316Z" fill="#C2C2C2"/>
<path d="M361.955 382.956C368.755 384.868 375.016 388.12 381.414 390.994C393.986 396.644 406.447 402.542 418.931 408.394V416.434C418.524 416.085 418.009 415.766 417.383 415.445C406.107 409.662 394.962 403.617 383.678 397.851C376.284 394.071 369.134 389.875 361.944 385.741L361.955 385.735V382.956Z" fill="#C2C2C2"/>
<path d="M361.955 349.478C368.755 351.389 375.016 354.64 381.414 357.515C393.986 363.164 406.447 369.063 418.931 374.914V382.955C418.524 382.607 418.009 382.287 417.383 381.967C406.107 376.183 394.962 370.137 383.678 364.371C376.284 360.591 369.134 356.396 361.944 352.262L361.955 352.256V349.478Z" fill="#C2C2C2"/>
<path d="M361.955 316C368.755 317.911 375.016 321.164 381.414 324.038C393.986 329.688 406.447 335.586 418.931 341.438V349.478C418.524 349.129 418.009 348.81 417.383 348.489C406.107 342.706 394.962 336.661 383.678 330.895C376.284 327.115 369.134 322.919 361.944 318.785L361.955 318.779V316Z" fill="#C2C2C2"/>
<path d="M82.0117 282.956C88.8117 284.868 95.0724 288.12 101.471 290.994C114.042 296.644 126.503 302.542 138.986 308.393V316.433C138.58 316.085 138.065 315.766 137.439 315.445C126.163 309.662 115.019 303.617 103.734 297.851C96.3404 294.071 89.1902 289.876 82 285.741L82.0117 285.735V282.956Z" fill="#C2C2C2"/>
<path d="M82.0117 249.478C88.8117 251.389 95.0724 254.641 101.471 257.516C114.042 263.165 126.503 269.063 138.986 274.914V282.955C138.58 282.607 138.065 282.288 137.439 281.968C126.163 276.184 115.019 270.138 103.734 264.372C96.3405 260.592 89.1902 256.397 82 252.263L82.0117 252.257V249.478Z" fill="#C2C2C2"/>
<path d="M82.0117 216C88.8117 217.911 95.0724 221.164 101.471 224.038C114.042 229.688 126.503 235.586 138.986 241.437V249.477C138.58 249.129 138.065 248.81 137.439 248.489C126.163 242.706 115.019 236.66 103.734 230.894C96.3405 227.114 89.1901 222.919 82 218.785L82.0117 218.779V216Z" fill="#C2C2C2"/>
<path d="M82.0117 183C88.8117 184.911 95.0724 188.164 101.471 191.038C114.042 196.688 126.503 202.586 138.986 208.437V216.477C138.58 216.129 138.065 215.81 137.439 215.489C126.163 209.706 115.019 203.66 103.734 197.894C96.3405 194.114 89.1901 189.919 82 185.785L82.0117 185.779V183Z" fill="#C2C2C2"/>
<path d="M151.997 282.956C158.797 284.868 165.058 288.12 171.456 290.994C184.028 296.644 196.489 302.542 208.973 308.394V316.434C208.566 316.085 208.051 315.766 207.425 315.445C196.149 309.662 185.004 303.616 173.72 297.85C166.326 294.07 159.176 289.875 151.986 285.741L151.997 285.735V282.956Z" fill="#C2C2C2"/>
<path d="M151.997 249.478C158.797 251.389 165.058 254.64 171.456 257.515C184.028 263.164 196.489 269.063 208.973 274.914V282.955C208.566 282.607 208.051 282.287 207.425 281.967C196.149 276.183 185.004 270.137 173.72 264.371C166.326 260.591 159.176 256.396 151.986 252.262L151.997 252.256V249.478Z" fill="#C2C2C2"/>
<path d="M151.997 216C158.797 217.911 165.058 221.164 171.456 224.038C184.028 229.688 196.489 235.586 208.973 241.438V249.478C208.566 249.129 208.051 248.81 207.425 248.489C196.149 242.706 185.004 236.661 173.72 230.895C166.326 227.115 159.176 222.919 151.986 218.785L151.997 218.779V216Z" fill="#C2C2C2"/>
<path d="M151.997 183C158.797 184.911 165.058 188.164 171.456 191.038C184.028 196.688 196.489 202.586 208.973 208.438V216.478C208.566 216.129 208.051 215.81 207.425 215.489C196.149 209.706 185.004 203.661 173.72 197.895C166.326 194.115 159.176 189.919 151.986 185.785L151.997 185.779V183Z" fill="#C2C2C2"/>
<path d="M221.983 282.956C228.783 284.867 235.044 288.12 241.442 290.994C254.014 296.644 266.476 302.542 278.959 308.394V316.434C278.553 316.085 278.037 315.766 277.411 315.445C266.135 309.662 254.991 303.617 243.707 297.851C236.313 294.071 229.163 289.875 221.973 285.741L221.983 285.735V282.956Z" fill="#C2C2C2"/>
<path d="M221.983 249.478C228.783 251.389 235.044 254.641 241.442 257.516C254.014 263.165 266.476 269.064 278.959 274.915V282.956C278.552 282.608 278.037 282.288 277.411 281.968C266.135 276.184 254.991 270.138 243.707 264.372C236.313 260.592 229.163 256.397 221.973 252.263L221.983 252.257V249.478Z" fill="#C2C2C2"/>
<path d="M221.983 216C228.783 217.911 235.044 221.164 241.442 224.038C254.014 229.688 266.476 235.586 278.959 241.438V249.478C278.553 249.129 278.037 248.81 277.411 248.489C266.135 242.706 254.991 236.661 243.707 230.895C236.313 227.115 229.163 222.919 221.973 218.785L221.983 218.779V216Z" fill="#C2C2C2"/>
<path d="M221.983 183C228.783 184.911 235.044 188.164 241.442 191.038C254.014 196.688 266.476 202.586 278.959 208.438V216.478C278.553 216.129 278.037 215.81 277.411 215.489C266.135 209.706 254.991 203.661 243.707 197.895C236.313 194.115 229.163 189.919 221.973 185.785L221.983 185.779V183Z" fill="#C2C2C2"/>
<path d="M291.97 282.956C298.77 284.868 305.03 288.12 311.429 290.994C324 296.644 336.461 302.542 348.944 308.393V316.433C348.538 316.085 348.023 315.766 347.397 315.445C336.121 309.662 324.977 303.616 313.692 297.85C306.299 294.07 299.149 289.875 291.959 285.741L291.97 285.735V282.956Z" fill="#C2C2C2"/>
<path d="M291.97 249.478C298.77 251.389 305.031 254.64 311.429 257.515C324 263.164 336.462 269.062 348.944 274.913V282.954C348.538 282.606 348.023 282.287 347.397 281.967C336.121 276.183 324.977 270.137 313.692 264.371C306.299 260.591 299.149 256.396 291.959 252.262L291.97 252.256V249.478Z" fill="#C2C2C2"/>
<path d="M291.97 216C298.77 217.911 305.03 221.164 311.429 224.038C324 229.688 336.462 235.586 348.944 241.437V249.477C348.538 249.129 348.023 248.81 347.397 248.489C336.121 242.706 324.977 236.661 313.692 230.895C306.299 227.115 299.149 222.919 291.959 218.785L291.97 218.779V216Z" fill="#C2C2C2"/>
<path d="M361.955 282.956C368.755 284.868 375.016 288.12 381.414 290.994C393.986 296.644 406.447 302.542 418.931 308.394V316.434C418.524 316.085 418.009 315.766 417.383 315.445C406.107 309.662 394.962 303.617 383.678 297.851C376.284 294.071 369.134 289.875 361.944 285.741L361.955 285.735V282.956Z" fill="#C2C2C2"/>
<path d="M361.955 249.478C368.755 251.389 375.016 254.64 381.414 257.515C393.986 263.164 406.447 269.063 418.931 274.914V282.955C418.524 282.607 418.009 282.287 417.383 281.967C406.107 276.183 394.962 270.137 383.678 264.371C376.284 260.591 369.134 256.396 361.944 252.262L361.955 252.256V249.478Z" fill="#C2C2C2"/>
<path d="M361.955 216C368.755 217.911 375.016 221.164 381.414 224.038C393.986 229.688 406.447 235.586 418.931 241.438V249.478C418.524 249.129 418.009 248.81 417.383 248.489C406.107 242.706 394.962 236.661 383.678 230.895C376.284 227.115 369.134 222.919 361.944 218.785L361.955 218.779V216Z" fill="#C2C2C2"/>
</svg>
