<svg width="500" height="600" viewBox="0 0 500 600" fill="none" xmlns="http://www.w3.org/2000/svg">
<path d="M82.0117 566.434C88.8117 568.345 95.0724 571.597 101.471 574.472C114.042 580.121 126.503 586.019 138.986 591.87V599.91C138.58 599.562 138.065 599.243 137.439 598.923C126.163 593.139 115.019 587.094 103.734 581.328C96.3404 577.548 89.1902 573.353 82 569.219L82.0117 569.213V566.434Z" fill="#C2C2C2"/>
<path d="M82.0117 532.955C88.8117 534.867 95.0724 538.119 101.471 540.993C114.042 546.643 126.503 552.541 138.986 558.392V566.433C138.58 566.085 138.065 565.766 137.439 565.445C126.163 559.662 115.019 553.616 103.734 547.85C96.3405 544.07 89.1902 539.875 82 535.74L82.0117 535.734V532.955Z" fill="#C2C2C2"/>
<path d="M82.0117 499.478C88.8117 501.389 95.0724 504.641 101.471 507.516C114.042 513.165 126.503 519.063 138.986 524.914V532.954C138.58 532.606 138.065 532.287 137.439 531.967C126.163 526.183 115.019 520.137 103.734 514.371C96.3405 510.591 89.1901 506.397 82 502.263L82.0117 502.257V499.478Z" fill="#C2C2C2"/>
<path d="M82.0117 466C88.8117 467.911 95.0724 471.164 101.471 474.038C114.042 479.688 126.503 485.586 138.986 491.437V499.477C138.58 499.129 138.065 498.81 137.439 498.489C126.163 492.706 115.019 486.66 103.734 480.894C96.3405 477.114 89.1901 472.919 82 468.785L82.0117 468.779V466Z" fill="#C2C2C2"/>
<path d="M151.997 566.434C158.797 568.345 165.058 571.597 171.456 574.472C184.028 580.121 196.489 586.02 208.973 591.871V599.911C208.566 599.563 208.051 599.244 207.425 598.923C196.149 593.139 185.004 587.093 173.72 581.327C166.326 577.548 159.176 573.353 151.986 569.219L151.997 569.213V566.434Z" fill="#C2C2C2"/>
<path d="M151.997 532.955C158.797 534.867 165.058 538.118 171.456 540.992C184.028 546.642 196.489 552.54 208.973 558.392V566.433C208.566 566.084 208.051 565.765 207.425 565.444C196.149 559.661 185.004 553.615 173.72 547.849C166.326 544.069 159.176 539.873 151.986 535.739L151.997 535.733V532.955Z" fill="#C2C2C2"/>
<path d="M151.997 499.478C158.797 501.389 165.058 504.641 171.456 507.516C184.028 513.165 196.489 519.064 208.973 524.915V532.955C208.566 532.607 208.051 532.287 207.425 531.967C196.149 526.183 185.004 520.138 173.72 514.372C166.326 510.592 159.176 506.397 151.986 502.263L151.997 502.257V499.478Z" fill="#C2C2C2"/>
<path d="M151.997 466C158.797 467.911 165.058 471.164 171.456 474.038C184.028 479.688 196.489 485.586 208.973 491.438V499.478C208.566 499.129 208.051 498.81 207.425 498.489C196.149 492.706 185.004 486.661 173.72 480.895C166.326 477.115 159.176 472.919 151.986 468.785L151.997 468.779V466Z" fill="#C2C2C2"/>
<path d="M221.983 566.434C228.783 568.345 235.044 571.597 241.442 574.472C254.014 580.121 266.476 586.02 278.959 591.871V599.911C278.553 599.563 278.037 599.243 277.411 598.923C266.135 593.14 254.991 587.094 243.707 581.328C236.313 577.548 229.163 573.353 221.973 569.219L221.983 569.213V566.434Z" fill="#C2C2C2"/>
<path d="M221.983 532.955C228.783 534.867 235.044 538.119 241.442 540.993C254.014 546.643 266.476 552.541 278.959 558.393V566.434C278.552 566.085 278.037 565.766 277.411 565.445C266.135 559.662 254.991 553.616 243.707 547.85C236.313 544.07 229.163 539.875 221.973 535.74L221.983 535.734V532.955Z" fill="#C2C2C2"/>
<path d="M221.983 499.478C228.783 501.389 235.044 504.641 241.442 507.516C254.014 513.165 266.476 519.064 278.959 524.915V532.955C278.553 532.607 278.037 532.287 277.411 531.967C266.135 526.183 254.991 520.138 243.707 514.372C236.313 510.592 229.163 506.397 221.973 502.263L221.983 502.257V499.478Z" fill="#C2C2C2"/>
<path d="M291.97 566.434C298.77 568.345 305.03 571.597 311.429 574.472C324 580.121 336.461 586.019 348.944 591.87V599.91C348.538 599.562 348.023 599.243 347.397 598.923C336.121 593.139 324.977 587.093 313.692 581.327C306.299 577.548 299.149 573.353 291.959 569.219L291.97 569.213V566.434Z" fill="#C2C2C2"/>
<path d="M291.97 532.955C298.77 534.867 305.031 538.118 311.429 540.992C324 546.642 336.462 552.54 348.944 558.391V566.432C348.538 566.084 348.023 565.765 347.397 565.444C336.121 559.661 324.977 553.615 313.692 547.849C306.299 544.069 299.149 539.873 291.959 535.739L291.97 535.733V532.955Z" fill="#C2C2C2"/>
<path d="M291.97 499.478C298.77 501.389 305.03 504.641 311.429 507.516C324 513.165 336.462 519.063 348.944 524.914V532.954C348.538 532.606 348.023 532.287 347.397 531.967C336.121 526.183 324.977 520.138 313.692 514.372C306.299 510.592 299.149 506.397 291.959 502.263L291.97 502.257V499.478Z" fill="#C2C2C2"/>
<path d="M361.955 566.434C368.755 568.345 375.016 571.597 381.414 574.472C393.986 580.121 406.447 586.02 418.931 591.871V599.911C418.524 599.563 418.009 599.243 417.383 598.923C406.107 593.139 394.962 587.094 383.678 581.328C376.284 577.548 369.134 573.353 361.944 569.219L361.955 569.213V566.434Z" fill="#C2C2C2"/>
<path d="M361.955 532.955C368.755 534.867 375.016 538.118 381.414 540.992C393.986 546.642 406.447 552.54 418.931 558.392V566.433C418.524 566.084 418.009 565.765 417.383 565.444C406.107 559.661 394.962 553.615 383.678 547.849C376.284 544.069 369.134 539.873 361.944 535.739L361.955 535.733V532.955Z" fill="#C2C2C2"/>
<path d="M361.955 499.478C368.755 501.389 375.016 504.641 381.414 507.516C393.986 513.165 406.447 519.064 418.931 524.915V532.955C418.524 532.607 418.009 532.287 417.383 531.967C406.107 526.183 394.962 520.138 383.678 514.372C376.284 510.592 369.134 506.397 361.944 502.263L361.955 502.257V499.478Z" fill="#C2C2C2"/>
</svg>
