<svg width="500" height="600" viewBox="0 0 500 600" fill="none" xmlns="http://www.w3.org/2000/svg">
<g clip-path="url(#clip0_276_2661)">
<path d="M82.0117 566.956C88.8117 568.868 95.0724 572.12 101.471 574.994C114.042 580.644 126.503 586.542 138.986 592.393V600.433C138.58 600.085 138.065 599.766 137.439 599.445C126.163 593.662 115.019 587.617 103.734 581.851C96.3404 578.071 89.1902 573.876 82 569.741L82.0117 569.735V566.956Z" fill="#5C5C5C"/>
<path d="M82.0117 533.478C88.8117 535.389 95.0724 538.641 101.471 541.516C114.042 547.165 126.503 553.063 138.986 558.914V566.955C138.58 566.607 138.065 566.288 137.439 565.968C126.163 560.184 115.019 554.138 103.734 548.372C96.3405 544.592 89.1902 540.397 82 536.263L82.0117 536.257V533.478Z" fill="#5C5C5C"/>
<path d="M82.0117 500C88.8117 501.911 95.0724 505.164 101.471 508.038C114.042 513.688 126.503 519.586 138.986 525.437V533.477C138.58 533.129 138.065 532.81 137.439 532.489C126.163 526.706 115.019 520.66 103.734 514.894C96.3405 511.114 89.1901 506.919 82 502.785L82.0117 502.779V500Z" fill="#5C5C5C"/>
<path d="M151.997 566.956C158.797 568.868 165.058 572.12 171.456 574.994C184.028 580.644 196.489 586.542 208.973 592.394V600.434C208.566 600.085 208.051 599.766 207.425 599.445C196.149 593.662 185.004 587.616 173.72 581.85C166.326 578.07 159.176 573.875 151.986 569.741L151.997 569.735V566.956Z" fill="#5C5C5C"/>
<path d="M151.997 533.478C158.797 535.389 165.058 538.64 171.456 541.515C184.028 547.164 196.489 553.063 208.973 558.914V566.955C208.566 566.607 208.051 566.287 207.425 565.967C196.149 560.183 185.004 554.137 173.72 548.371C166.326 544.591 159.176 540.396 151.986 536.262L151.997 536.256V533.478Z" fill="#5C5C5C"/>
<path d="M151.997 500C158.797 501.911 165.058 505.164 171.456 508.038C184.028 513.688 196.489 519.586 208.973 525.438V533.478C208.566 533.129 208.051 532.81 207.425 532.489C196.149 526.706 185.004 520.661 173.72 514.895C166.326 511.115 159.176 506.919 151.986 502.785L151.997 502.779V500Z" fill="#5C5C5C"/>
<path d="M221.983 566.956C228.783 568.867 235.044 572.12 241.442 574.994C254.014 580.644 266.476 586.542 278.959 592.394V600.434C278.553 600.085 278.037 599.766 277.411 599.445C266.135 593.662 254.991 587.617 243.707 581.851C236.313 578.071 229.163 573.875 221.973 569.741L221.983 569.735V566.956Z" fill="#5C5C5C"/>
<path d="M221.983 533.478C228.783 535.389 235.044 538.641 241.442 541.516C254.014 547.165 266.476 553.064 278.959 558.915V566.956C278.552 566.608 278.037 566.288 277.411 565.968C266.135 560.184 254.991 554.138 243.707 548.372C236.313 544.592 229.163 540.397 221.973 536.263L221.983 536.257V533.478Z" fill="#5C5C5C"/>
<path d="M221.983 500C228.783 501.911 235.044 505.164 241.442 508.038C254.014 513.688 266.476 519.586 278.959 525.438V533.478C278.553 533.129 278.037 532.81 277.411 532.489C266.135 526.706 254.991 520.661 243.707 514.895C236.313 511.115 229.163 506.919 221.973 502.785L221.983 502.779V500Z" fill="#5C5C5C"/>
<path d="M291.97 566.956C298.77 568.868 305.03 572.12 311.429 574.994C324 580.644 336.461 586.542 348.944 592.393V600.433C348.538 600.085 348.023 599.766 347.397 599.445C336.121 593.662 324.977 587.616 313.692 581.85C306.299 578.07 299.149 573.875 291.959 569.741L291.97 569.735V566.956Z" fill="#5C5C5C"/>
<path d="M291.97 533.478C298.77 535.389 305.031 538.64 311.429 541.515C324 547.164 336.462 553.062 348.944 558.913V566.954C348.538 566.606 348.023 566.287 347.397 565.967C336.121 560.183 324.977 554.137 313.692 548.371C306.299 544.591 299.149 540.396 291.959 536.262L291.97 536.256V533.478Z" fill="#5C5C5C"/>
<path d="M291.97 500C298.77 501.911 305.03 505.164 311.429 508.038C324 513.688 336.462 519.586 348.944 525.437V533.477C348.538 533.129 348.023 532.81 347.397 532.489C336.121 526.706 324.977 520.661 313.692 514.895C306.299 511.115 299.149 506.919 291.959 502.785L291.97 502.779V500Z" fill="#5C5C5C"/>
<path d="M361.955 566.956C368.755 568.868 375.016 572.12 381.414 574.994C393.986 580.644 406.447 586.542 418.931 592.394V600.434C418.524 600.085 418.009 599.766 417.383 599.445C406.107 593.662 394.962 587.617 383.678 581.851C376.284 578.071 369.134 573.875 361.944 569.741L361.955 569.735V566.956Z" fill="#5C5C5C"/>
<path d="M361.955 533.478C368.755 535.389 375.016 538.64 381.414 541.515C393.986 547.164 406.447 553.063 418.931 558.914V566.955C418.524 566.607 418.009 566.287 417.383 565.967C406.107 560.183 394.962 554.137 383.678 548.371C376.284 544.591 369.134 540.396 361.944 536.262L361.955 536.256V533.478Z" fill="#5C5C5C"/>
<path d="M361.955 500C368.755 501.911 375.016 505.164 381.414 508.038C393.986 513.688 406.447 519.586 418.931 525.438V533.478C418.524 533.129 418.009 532.81 417.383 532.489C406.107 526.706 394.962 520.661 383.678 514.895C376.284 511.115 369.134 506.919 361.944 502.785L361.955 502.779V500Z" fill="#5C5C5C"/>
</g>
<defs>
<clipPath id="clip0_276_2661">
<rect width="500" height="600" fill="white"/>
</clipPath>
</defs>
</svg>
