<svg width="500" height="600" viewBox="0 0 500 600" fill="none" xmlns="http://www.w3.org/2000/svg">
<g clip-path="url(#clip0_276_2647)">
<path d="M166.257 555.235C166.442 555.028 166.65 554.964 166.883 555.019C167.223 555.099 167.498 555.386 167.6 555.766C171.299 569.563 176.619 579.41 183.382 585.735V600.052H174.806C170.204 587.464 167.263 572.793 166.003 556.018C165.981 555.727 166.074 555.44 166.257 555.235Z" fill="#C2C2C2"/>
<path d="M166.257 510.235C166.442 510.028 166.65 509.964 166.883 510.019C167.223 510.099 167.498 510.386 167.6 510.766C171.299 524.563 176.619 534.41 183.382 540.735V555.052H174.806C170.204 542.464 167.263 527.793 166.003 511.018C165.981 510.727 166.074 510.44 166.257 510.235Z" fill="#C2C2C2"/>
<path d="M196.257 555.235C196.442 555.028 196.65 554.964 196.883 555.019C197.223 555.099 197.498 555.386 197.6 555.766C201.299 569.563 206.619 579.41 213.382 585.735V600.052H204.806C200.204 587.464 197.263 572.793 196.003 556.018C195.981 555.727 196.074 555.44 196.257 555.235Z" fill="#C2C2C2"/>
<path d="M196.257 510.235C196.442 510.028 196.65 509.964 196.883 510.019C197.223 510.099 197.498 510.386 197.6 510.766C201.299 524.563 206.619 534.41 213.382 540.735V555.052H204.806C200.204 542.464 197.263 527.793 196.003 511.018C195.981 510.727 196.074 510.44 196.257 510.235Z" fill="#C2C2C2"/>
<path d="M226.257 555.235C226.442 555.028 226.65 554.964 226.883 555.019C227.223 555.099 227.498 555.386 227.6 555.766C231.299 569.563 236.619 579.41 243.382 585.735V600.052H234.806C230.204 587.464 227.263 572.793 226.003 556.018C225.981 555.727 226.074 555.44 226.257 555.235Z" fill="#C2C2C2"/>
<path d="M286.257 555.235C286.442 555.028 286.65 554.964 286.883 555.019C287.223 555.099 287.498 555.386 287.6 555.766C291.299 569.563 296.619 579.41 303.382 585.735V600.052H294.806C290.204 587.464 287.263 572.793 286.003 556.018C285.981 555.727 286.074 555.44 286.257 555.235Z" fill="#C2C2C2"/>
<path d="M256.257 555.235C256.442 555.028 256.65 554.964 256.883 555.019C257.223 555.099 257.498 555.386 257.6 555.766C261.299 569.563 266.619 579.41 273.382 585.735V600.052H264.806C260.204 587.464 257.263 572.793 256.003 556.018C255.981 555.727 256.074 555.44 256.257 555.235Z" fill="#C2C2C2"/>
<path d="M316.257 555.235C316.442 555.028 316.65 554.964 316.883 555.019C317.223 555.099 317.498 555.386 317.6 555.766C321.299 569.563 326.619 579.41 333.382 585.735V600.052H324.806C320.204 587.464 317.263 572.793 316.003 556.018C315.981 555.727 316.074 555.44 316.257 555.235Z" fill="#C2C2C2"/>
</g>
<defs>
<clipPath id="clip0_276_2647">
<rect width="500" height="600" fill="white"/>
</clipPath>
</defs>
</svg>
