<svg width="500" height="600" viewBox="0 0 500 600" fill="none" xmlns="http://www.w3.org/2000/svg">
<path d="M166.257 300.235C166.442 300.028 166.65 299.964 166.883 300.019C167.223 300.099 167.498 300.386 167.6 300.766C171.299 314.563 176.619 324.41 183.382 330.735V345.052H174.806C170.204 332.464 167.263 317.793 166.003 301.018C165.981 300.727 166.074 300.44 166.257 300.235Z" fill="#C2C2C2"/>
<path d="M166.257 255.235C166.442 255.028 166.65 254.964 166.883 255.019C167.223 255.099 167.498 255.386 167.6 255.766C171.299 269.563 176.619 279.41 183.382 285.735V300.052H174.806C170.204 287.464 167.263 272.793 166.003 256.018C165.981 255.727 166.074 255.44 166.257 255.235Z" fill="#C2C2C2"/>
<path d="M196.257 300.235C196.442 300.028 196.65 299.964 196.883 300.019C197.223 300.099 197.498 300.386 197.6 300.766C201.299 314.563 206.619 324.41 213.382 330.735V345.052H204.806C200.204 332.464 197.263 317.793 196.003 301.018C195.981 300.727 196.074 300.44 196.257 300.235Z" fill="#C2C2C2"/>
<path d="M196.257 255.235C196.442 255.028 196.65 254.964 196.883 255.019C197.223 255.099 197.498 255.386 197.6 255.766C201.299 269.563 206.619 279.41 213.382 285.735V300.052H204.806C200.204 287.464 197.263 272.793 196.003 256.018C195.981 255.727 196.074 255.44 196.257 255.235Z" fill="#C2C2C2"/>
<path d="M226.257 300.235C226.442 300.028 226.65 299.964 226.883 300.019C227.223 300.099 227.498 300.386 227.6 300.766C231.299 314.563 236.619 324.41 243.382 330.735V345.052H234.806C230.204 332.464 227.263 317.793 226.003 301.018C225.981 300.727 226.074 300.44 226.257 300.235Z" fill="#C2C2C2"/>
<path d="M286.257 300.235C286.442 300.028 286.65 299.964 286.883 300.019C287.223 300.099 287.498 300.386 287.6 300.766C291.299 314.563 296.619 324.41 303.382 330.735V345.052H294.806C290.204 332.464 287.263 317.793 286.003 301.018C285.981 300.727 286.074 300.44 286.257 300.235Z" fill="#C2C2C2"/>
<path d="M256.257 300.235C256.442 300.028 256.65 299.964 256.883 300.019C257.223 300.099 257.498 300.386 257.6 300.766C261.299 314.563 266.619 324.41 273.382 330.735V345.052H264.806C260.204 332.464 257.263 317.793 256.003 301.018C255.981 300.727 256.074 300.44 256.257 300.235Z" fill="#C2C2C2"/>
<path d="M316.257 300.235C316.442 300.028 316.65 299.964 316.883 300.019C317.223 300.099 317.498 300.386 317.6 300.766C321.299 314.563 326.619 324.41 333.382 330.735V345.052H324.806C320.204 332.464 317.263 317.793 316.003 301.018C315.981 300.727 316.074 300.44 316.257 300.235Z" fill="#C2C2C2"/>
</svg>
