<svg width="500" height="600" viewBox="0 0 500 600" fill="none" xmlns="http://www.w3.org/2000/svg">
<path d="M166.257 457.235C166.442 457.028 166.65 456.964 166.883 457.019C167.223 457.099 167.498 457.386 167.6 457.766C171.299 471.563 176.619 481.41 183.382 487.735V502.052H174.806C170.204 489.464 167.263 474.793 166.003 458.018C165.981 457.727 166.074 457.44 166.257 457.235Z" fill="#5C5C5C"/>
<path d="M166.257 412.235C166.442 412.028 166.65 411.964 166.883 412.019C167.223 412.099 167.498 412.386 167.6 412.766C171.299 426.563 176.619 436.41 183.382 442.735V457.052H174.806C170.204 444.464 167.263 429.793 166.003 413.018C165.981 412.727 166.074 412.44 166.257 412.235Z" fill="#5C5C5C"/>
<path d="M166.257 367.235C166.442 367.028 166.65 366.964 166.883 367.019C167.223 367.099 167.498 367.386 167.6 367.766C171.299 381.563 176.619 391.41 183.382 397.735V412.052H174.806C170.204 399.464 167.263 384.793 166.003 368.018C165.981 367.727 166.074 367.44 166.257 367.235Z" fill="#5C5C5C"/>
<path d="M166.257 232.235C166.442 232.028 166.65 231.964 166.883 232.019C167.223 232.099 167.498 232.386 167.6 232.766C171.299 246.563 176.619 256.41 183.382 262.735V277.052H174.806C170.204 264.464 167.263 249.793 166.003 233.018C165.981 232.727 166.074 232.44 166.257 232.235Z" fill="#5C5C5C"/>
<path d="M166.257 322.235C166.442 322.028 166.65 321.964 166.883 322.019C167.223 322.099 167.498 322.386 167.6 322.766C171.299 336.563 176.619 346.41 183.382 352.735V367.052H174.806C170.204 354.464 167.263 339.793 166.003 323.018C165.981 322.727 166.074 322.44 166.257 322.235Z" fill="#5C5C5C"/>
<path d="M166.257 187.235C166.442 187.028 166.65 186.964 166.883 187.019C167.223 187.099 167.498 187.386 167.6 187.766C171.299 201.563 176.619 211.41 183.382 217.735V232.052H174.806C170.204 219.464 167.263 204.793 166.003 188.018C165.981 187.727 166.074 187.44 166.257 187.235Z" fill="#5C5C5C"/>
<path d="M196.257 457.235C196.442 457.028 196.65 456.964 196.883 457.019C197.223 457.099 197.498 457.386 197.6 457.766C201.299 471.563 206.619 481.41 213.382 487.735V502.052H204.806C200.204 489.464 197.263 474.793 196.003 458.018C195.981 457.727 196.074 457.44 196.257 457.235Z" fill="#5C5C5C"/>
<path d="M196.257 412.235C196.442 412.028 196.65 411.964 196.883 412.019C197.223 412.099 197.498 412.386 197.6 412.766C201.299 426.563 206.619 436.41 213.382 442.735V457.052H204.806C200.204 444.464 197.263 429.793 196.003 413.018C195.981 412.727 196.074 412.44 196.257 412.235Z" fill="#5C5C5C"/>
<path d="M196.257 367.235C196.442 367.028 196.65 366.964 196.883 367.019C197.223 367.099 197.498 367.386 197.6 367.766C201.299 381.563 206.619 391.41 213.382 397.735V412.052H204.806C200.204 399.464 197.263 384.793 196.003 368.018C195.981 367.727 196.074 367.44 196.257 367.235Z" fill="#5C5C5C"/>
<path d="M196.257 232.235C196.442 232.028 196.65 231.964 196.883 232.019C197.223 232.099 197.498 232.386 197.6 232.766C201.299 246.563 206.619 256.41 213.382 262.735V277.052H204.806C200.204 264.464 197.263 249.793 196.003 233.018C195.981 232.727 196.074 232.44 196.257 232.235Z" fill="#5C5C5C"/>
<path d="M196.257 322.235C196.442 322.028 196.65 321.964 196.883 322.019C197.223 322.099 197.498 322.386 197.6 322.766C201.299 336.563 206.619 346.41 213.382 352.735V367.052H204.806C200.204 354.464 197.263 339.793 196.003 323.018C195.981 322.727 196.074 322.44 196.257 322.235Z" fill="#5C5C5C"/>
<path d="M196.257 187.235C196.442 187.028 196.65 186.964 196.883 187.019C197.223 187.099 197.498 187.386 197.6 187.766C201.299 201.563 206.619 211.41 213.382 217.735V232.052H204.806C200.204 219.464 197.263 204.793 196.003 188.018C195.981 187.727 196.074 187.44 196.257 187.235Z" fill="#5C5C5C"/>
<path d="M166.257 277.235C166.442 277.028 166.65 276.964 166.883 277.019C167.223 277.099 167.498 277.386 167.6 277.766C171.299 291.563 176.619 301.41 183.382 307.735V322.052H174.806C170.204 309.464 167.263 294.793 166.003 278.018C165.981 277.727 166.074 277.44 166.257 277.235Z" fill="#5C5C5C"/>
<path d="M166.257 142.235C166.442 142.028 166.65 141.964 166.883 142.019C167.223 142.099 167.498 142.386 167.6 142.766C171.299 156.563 176.619 166.41 183.382 172.735V187.052H174.806C170.204 174.464 167.263 159.793 166.003 143.018C165.981 142.727 166.074 142.44 166.257 142.235Z" fill="#5C5C5C"/>
<path d="M166.257 97.2354C166.442 97.028 166.65 96.9639 166.883 97.0186C167.223 97.0993 167.498 97.3857 167.6 97.7657C171.299 111.563 176.619 121.41 183.382 127.735V142.052H174.806C170.204 129.464 167.263 114.793 166.003 98.0176C165.981 97.7266 166.074 97.4395 166.257 97.2354Z" fill="#5C5C5C"/>
<path d="M226.257 457.235C226.442 457.028 226.65 456.964 226.883 457.019C227.223 457.099 227.498 457.386 227.6 457.766C231.299 471.563 236.619 481.41 243.382 487.735V502.052H234.806C230.204 489.464 227.263 474.793 226.003 458.018C225.981 457.727 226.074 457.44 226.257 457.235Z" fill="#5C5C5C"/>
<path d="M226.257 412.235C226.442 412.028 226.65 411.964 226.883 412.019C227.223 412.099 227.498 412.386 227.6 412.766C231.299 426.563 236.619 436.41 243.382 442.735V457.052H234.806C230.204 444.464 227.263 429.793 226.003 413.018C225.981 412.727 226.074 412.44 226.257 412.235Z" fill="#5C5C5C"/>
<path d="M226.257 367.235C226.442 367.028 226.65 366.964 226.883 367.019C227.223 367.099 227.498 367.386 227.6 367.766C231.299 381.563 236.619 391.41 243.382 397.735V412.052H234.806C230.204 399.464 227.263 384.793 226.003 368.018C225.981 367.727 226.074 367.44 226.257 367.235Z" fill="#5C5C5C"/>
<path d="M226.257 232.235C226.442 232.028 226.65 231.964 226.883 232.019C227.223 232.099 227.498 232.386 227.6 232.766C231.299 246.563 236.619 256.41 243.382 262.735V277.052H234.806C230.204 264.464 227.263 249.793 226.003 233.018C225.981 232.727 226.074 232.44 226.257 232.235Z" fill="#5C5C5C"/>
<path d="M226.257 322.235C226.442 322.028 226.65 321.964 226.883 322.019C227.223 322.099 227.498 322.386 227.6 322.766C231.299 336.563 236.619 346.41 243.382 352.735V367.052H234.806C230.204 354.464 227.263 339.793 226.003 323.018C225.981 322.727 226.074 322.44 226.257 322.235Z" fill="#5C5C5C"/>
<path d="M226.257 187.235C226.442 187.028 226.65 186.964 226.883 187.019C227.223 187.099 227.498 187.386 227.6 187.766C231.299 201.563 236.619 211.41 243.382 217.735V232.052H234.806C230.204 219.464 227.263 204.793 226.003 188.018C225.981 187.727 226.074 187.44 226.257 187.235Z" fill="#5C5C5C"/>
<path d="M226.257 277.235C226.442 277.028 226.65 276.964 226.883 277.019C227.223 277.099 227.498 277.386 227.6 277.766C231.299 291.563 236.619 301.41 243.382 307.735V322.052H234.806C230.204 309.464 227.263 294.793 226.003 278.018C225.981 277.727 226.074 277.44 226.257 277.235Z" fill="#5C5C5C"/>
<path d="M226.257 142.235C226.442 142.028 226.65 141.964 226.883 142.019C227.223 142.099 227.498 142.386 227.6 142.766C231.299 156.563 236.619 166.41 243.382 172.735V187.052H234.806C230.204 174.464 227.263 159.793 226.003 143.018C225.981 142.727 226.074 142.44 226.257 142.235Z" fill="#5C5C5C"/>
<path d="M226.257 97.2354C226.442 97.028 226.65 96.9639 226.883 97.0186C227.223 97.0993 227.498 97.3857 227.6 97.7657C231.299 111.563 236.619 121.41 243.382 127.735V142.052H234.806C230.204 129.464 227.263 114.793 226.003 98.0176C225.981 97.7266 226.074 97.4395 226.257 97.2354Z" fill="#5C5C5C"/>
<path d="M286.257 457.235C286.442 457.028 286.65 456.964 286.883 457.019C287.223 457.099 287.498 457.386 287.6 457.766C291.299 471.563 296.619 481.41 303.382 487.735V502.052H294.806C290.204 489.464 287.263 474.793 286.003 458.018C285.981 457.727 286.074 457.44 286.257 457.235Z" fill="#5C5C5C"/>
<path d="M286.257 412.235C286.442 412.028 286.65 411.964 286.883 412.019C287.223 412.099 287.498 412.386 287.6 412.766C291.299 426.563 296.619 436.41 303.382 442.735V457.052H294.806C290.204 444.464 287.263 429.793 286.003 413.018C285.981 412.727 286.074 412.44 286.257 412.235Z" fill="#5C5C5C"/>
<path d="M286.257 367.235C286.442 367.028 286.65 366.964 286.883 367.019C287.223 367.099 287.498 367.386 287.6 367.766C291.299 381.563 296.619 391.41 303.382 397.735V412.052H294.806C290.204 399.464 287.263 384.793 286.003 368.018C285.981 367.727 286.074 367.44 286.257 367.235Z" fill="#5C5C5C"/>
<path d="M286.257 232.235C286.442 232.028 286.65 231.964 286.883 232.019C287.223 232.099 287.498 232.386 287.6 232.766C291.299 246.563 296.619 256.41 303.382 262.735V277.052H294.806C290.204 264.464 287.263 249.793 286.003 233.018C285.981 232.727 286.074 232.44 286.257 232.235Z" fill="#5C5C5C"/>
<path d="M286.257 322.235C286.442 322.028 286.65 321.964 286.883 322.019C287.223 322.099 287.498 322.386 287.6 322.766C291.299 336.563 296.619 346.41 303.382 352.735V367.052H294.806C290.204 354.464 287.263 339.793 286.003 323.018C285.981 322.727 286.074 322.44 286.257 322.235Z" fill="#5C5C5C"/>
<path d="M286.257 187.235C286.442 187.028 286.65 186.964 286.883 187.019C287.223 187.099 287.498 187.386 287.6 187.766C291.299 201.563 296.619 211.41 303.382 217.735V232.052H294.806C290.204 219.464 287.263 204.793 286.003 188.018C285.981 187.727 286.074 187.44 286.257 187.235Z" fill="#5C5C5C"/>
<path d="M196.257 277.235C196.442 277.028 196.65 276.964 196.883 277.019C197.223 277.099 197.498 277.386 197.6 277.766C201.299 291.563 206.619 301.41 213.382 307.735V322.052H204.806C200.204 309.464 197.263 294.793 196.003 278.018C195.981 277.727 196.074 277.44 196.257 277.235Z" fill="#5C5C5C"/>
<path d="M196.257 142.235C196.442 142.028 196.65 141.964 196.883 142.019C197.223 142.099 197.498 142.386 197.6 142.766C201.299 156.563 206.619 166.41 213.382 172.735V187.052H204.806C200.204 174.464 197.263 159.793 196.003 143.018C195.981 142.727 196.074 142.44 196.257 142.235Z" fill="#5C5C5C"/>
<path d="M196.257 97.2354C196.442 97.028 196.65 96.9639 196.883 97.0186C197.223 97.0993 197.498 97.3857 197.6 97.7657C201.299 111.563 206.619 121.41 213.382 127.735V142.052H204.806C200.204 129.464 197.263 114.793 196.003 98.0176C195.981 97.7266 196.074 97.4395 196.257 97.2354Z" fill="#5C5C5C"/>
<path d="M256.257 457.235C256.442 457.028 256.65 456.964 256.883 457.019C257.223 457.099 257.498 457.386 257.6 457.766C261.299 471.563 266.619 481.41 273.382 487.735V502.052H264.806C260.204 489.464 257.263 474.793 256.003 458.018C255.981 457.727 256.074 457.44 256.257 457.235Z" fill="#5C5C5C"/>
<path d="M256.257 412.235C256.442 412.028 256.65 411.964 256.883 412.019C257.223 412.099 257.498 412.386 257.6 412.766C261.299 426.563 266.619 436.41 273.382 442.735V457.052H264.806C260.204 444.464 257.263 429.793 256.003 413.018C255.981 412.727 256.074 412.44 256.257 412.235Z" fill="#5C5C5C"/>
<path d="M256.257 367.235C256.442 367.028 256.65 366.964 256.883 367.019C257.223 367.099 257.498 367.386 257.6 367.766C261.299 381.563 266.619 391.41 273.382 397.735V412.052H264.806C260.204 399.464 257.263 384.793 256.003 368.018C255.981 367.727 256.074 367.44 256.257 367.235Z" fill="#5C5C5C"/>
<path d="M256.257 232.235C256.442 232.028 256.65 231.964 256.883 232.019C257.223 232.099 257.498 232.386 257.6 232.766C261.299 246.563 266.619 256.41 273.382 262.735V277.052H264.806C260.204 264.464 257.263 249.793 256.003 233.018C255.981 232.727 256.074 232.44 256.257 232.235Z" fill="#5C5C5C"/>
<path d="M256.257 322.235C256.442 322.028 256.65 321.964 256.883 322.019C257.223 322.099 257.498 322.386 257.6 322.766C261.299 336.563 266.619 346.41 273.382 352.735V367.052H264.806C260.204 354.464 257.263 339.793 256.003 323.018C255.981 322.727 256.074 322.44 256.257 322.235Z" fill="#5C5C5C"/>
<path d="M256.257 187.235C256.442 187.028 256.65 186.964 256.883 187.019C257.223 187.099 257.498 187.386 257.6 187.766C261.299 201.563 266.619 211.41 273.382 217.735V232.052H264.806C260.204 219.464 257.263 204.793 256.003 188.018C255.981 187.727 256.074 187.44 256.257 187.235Z" fill="#5C5C5C"/>
<path d="M256.257 277.235C256.442 277.028 256.65 276.964 256.883 277.019C257.223 277.099 257.498 277.386 257.6 277.766C261.299 291.563 266.619 301.41 273.382 307.735V322.052H264.806C260.204 309.464 257.263 294.793 256.003 278.018C255.981 277.727 256.074 277.44 256.257 277.235Z" fill="#5C5C5C"/>
<path d="M256.257 142.235C256.442 142.028 256.65 141.964 256.883 142.019C257.223 142.099 257.498 142.386 257.6 142.766C261.299 156.563 266.619 166.41 273.382 172.735V187.052H264.806C260.204 174.464 257.263 159.793 256.003 143.018C255.981 142.727 256.074 142.44 256.257 142.235Z" fill="#5C5C5C"/>
<path d="M286.257 277.235C286.442 277.028 286.65 276.964 286.883 277.019C287.223 277.099 287.498 277.386 287.6 277.766C291.299 291.563 296.619 301.41 303.382 307.735V322.052H294.806C290.204 309.464 287.263 294.793 286.003 278.018C285.981 277.727 286.074 277.44 286.257 277.235Z" fill="#5C5C5C"/>
<path d="M286.257 142.235C286.442 142.028 286.65 141.964 286.883 142.019C287.223 142.099 287.498 142.386 287.6 142.766C291.299 156.563 296.619 166.41 303.382 172.735V187.052H294.806C290.204 174.464 287.263 159.793 286.003 143.018C285.981 142.727 286.074 142.44 286.257 142.235Z" fill="#5C5C5C"/>
<path d="M316.257 277.235C316.442 277.028 316.65 276.964 316.883 277.019C317.223 277.099 317.498 277.386 317.6 277.766C321.299 291.563 326.619 301.41 333.382 307.735V322.052H324.806C320.204 309.464 317.263 294.793 316.003 278.018C315.981 277.727 316.074 277.44 316.257 277.235Z" fill="#5C5C5C"/>
<path d="M316.257 142.235C316.442 142.028 316.65 141.964 316.883 142.019C317.223 142.099 317.498 142.386 317.6 142.766C321.299 156.563 326.619 166.41 333.382 172.735V187.052H324.806C320.204 174.464 317.263 159.793 316.003 143.018C315.981 142.727 316.074 142.44 316.257 142.235Z" fill="#5C5C5C"/>
<path d="M316.257 457.235C316.442 457.028 316.65 456.964 316.883 457.019C317.223 457.099 317.498 457.386 317.6 457.766C321.299 471.563 326.619 481.41 333.382 487.735V502.052H324.806C320.204 489.464 317.263 474.793 316.003 458.018C315.981 457.727 316.074 457.44 316.257 457.235Z" fill="#5C5C5C"/>
<path d="M316.257 412.235C316.442 412.028 316.65 411.964 316.883 412.019C317.223 412.099 317.498 412.386 317.6 412.766C321.299 426.563 326.619 436.41 333.382 442.735V457.052H324.806C320.204 444.464 317.263 429.793 316.003 413.018C315.981 412.727 316.074 412.44 316.257 412.235Z" fill="#5C5C5C"/>
<path d="M316.257 367.235C316.442 367.028 316.65 366.964 316.883 367.019C317.223 367.099 317.498 367.386 317.6 367.766C321.299 381.563 326.619 391.41 333.382 397.735V412.052H324.806C320.204 399.464 317.263 384.793 316.003 368.018C315.981 367.727 316.074 367.44 316.257 367.235Z" fill="#5C5C5C"/>
<path d="M316.257 232.235C316.442 232.028 316.65 231.964 316.883 232.019C317.223 232.099 317.498 232.386 317.6 232.766C321.299 246.563 326.619 256.41 333.382 262.735V277.052H324.806C320.204 264.464 317.263 249.793 316.003 233.018C315.981 232.727 316.074 232.44 316.257 232.235Z" fill="#5C5C5C"/>
<path d="M316.257 322.235C316.442 322.028 316.65 321.964 316.883 322.019C317.223 322.099 317.498 322.386 317.6 322.766C321.299 336.563 326.619 346.41 333.382 352.735V367.052H324.806C320.204 354.464 317.263 339.793 316.003 323.018C315.981 322.727 316.074 322.44 316.257 322.235Z" fill="#5C5C5C"/>
<path d="M316.257 187.235C316.442 187.028 316.65 186.964 316.883 187.019C317.223 187.099 317.498 187.386 317.6 187.766C321.299 201.563 326.619 211.41 333.382 217.735V232.052H324.806C320.204 219.464 317.263 204.793 316.003 188.018C315.981 187.727 316.074 187.44 316.257 187.235Z" fill="#5C5C5C"/>
</svg>
