<svg width="500" height="600" viewBox="0 0 500 600" fill="none" xmlns="http://www.w3.org/2000/svg">
<g clip-path="url(#clip0_276_2649)">
<path d="M166.257 555.235C166.442 555.028 166.65 554.964 166.883 555.019C167.223 555.099 167.498 555.386 167.6 555.766C171.299 569.563 176.619 579.41 183.382 585.735V600.052H174.806C170.204 587.464 167.263 572.793 166.003 556.018C165.981 555.727 166.074 555.44 166.257 555.235Z" fill="#C2C2C2"/>
<path d="M166.257 510.235C166.442 510.028 166.65 509.964 166.883 510.019C167.223 510.099 167.498 510.386 167.6 510.766C171.299 524.563 176.619 534.41 183.382 540.735V555.052H174.806C170.204 542.464 167.263 527.793 166.003 511.018C165.981 510.727 166.074 510.44 166.257 510.235Z" fill="#C2C2C2"/>
<path d="M166.257 465.235C166.442 465.028 166.65 464.964 166.883 465.019C167.223 465.099 167.498 465.386 167.6 465.766C171.299 479.563 176.619 489.41 183.382 495.735V510.052H174.806C170.204 497.464 167.263 482.793 166.003 466.018C165.981 465.727 166.074 465.44 166.257 465.235Z" fill="#C2C2C2"/>
<path d="M166.257 285.235C166.442 285.028 166.65 284.964 166.883 285.019C167.223 285.099 167.498 285.386 167.6 285.766C171.299 299.563 176.619 309.41 183.382 315.735V330.052H174.806C170.204 317.464 167.263 302.793 166.003 286.018C165.981 285.727 166.074 285.44 166.257 285.235Z" fill="#C2C2C2"/>
<path d="M166.257 420.235C166.442 420.028 166.65 419.964 166.883 420.019C167.223 420.099 167.498 420.386 167.6 420.766C171.299 434.563 176.619 444.41 183.382 450.735V465.052H174.806C170.204 452.464 167.263 437.793 166.003 421.018C165.981 420.727 166.074 420.44 166.257 420.235Z" fill="#C2C2C2"/>
<path d="M166.257 240.235C166.442 240.028 166.65 239.964 166.883 240.019C167.223 240.099 167.498 240.386 167.6 240.766C171.299 254.563 176.619 264.41 183.382 270.735V285.052H174.806C170.204 272.464 167.263 257.793 166.003 241.018C165.981 240.727 166.074 240.44 166.257 240.235Z" fill="#C2C2C2"/>
<path d="M166.257 375.235C166.442 375.028 166.65 374.964 166.883 375.019C167.223 375.099 167.498 375.386 167.6 375.766C171.299 389.563 176.619 399.41 183.382 405.735V420.052H174.806C170.204 407.464 167.263 392.793 166.003 376.018C165.981 375.727 166.074 375.44 166.257 375.235Z" fill="#C2C2C2"/>
<path d="M166.257 195.235C166.442 195.028 166.65 194.964 166.883 195.019C167.223 195.099 167.498 195.386 167.6 195.766C171.299 209.563 176.619 219.41 183.382 225.735V240.052H174.806C170.204 227.464 167.263 212.793 166.003 196.018C165.981 195.727 166.074 195.44 166.257 195.235Z" fill="#C2C2C2"/>
<path d="M166.257 330.235C166.442 330.028 166.65 329.964 166.883 330.019C167.223 330.099 167.498 330.386 167.6 330.766C171.299 344.563 176.619 354.41 183.382 360.735V375.052H174.806C170.204 362.464 167.263 347.793 166.003 331.018C165.981 330.727 166.074 330.44 166.257 330.235Z" fill="#C2C2C2"/>
<path d="M166.257 150.235C166.442 150.028 166.65 149.964 166.883 150.019C167.223 150.099 167.498 150.386 167.6 150.766C171.299 164.563 176.619 174.41 183.382 180.735V195.052H174.806C170.204 182.464 167.263 167.793 166.003 151.018C165.981 150.727 166.074 150.44 166.257 150.235Z" fill="#C2C2C2"/>
<path d="M196.257 555.235C196.442 555.028 196.65 554.964 196.883 555.019C197.223 555.099 197.498 555.386 197.6 555.766C201.299 569.563 206.619 579.41 213.382 585.735V600.052H204.806C200.204 587.464 197.263 572.793 196.003 556.018C195.981 555.727 196.074 555.44 196.257 555.235Z" fill="#C2C2C2"/>
<path d="M196.257 510.235C196.442 510.028 196.65 509.964 196.883 510.019C197.223 510.099 197.498 510.386 197.6 510.766C201.299 524.563 206.619 534.41 213.382 540.735V555.052H204.806C200.204 542.464 197.263 527.793 196.003 511.018C195.981 510.727 196.074 510.44 196.257 510.235Z" fill="#C2C2C2"/>
<path d="M196.257 465.235C196.442 465.028 196.65 464.964 196.883 465.019C197.223 465.099 197.498 465.386 197.6 465.766C201.299 479.563 206.619 489.41 213.382 495.735V510.052H204.806C200.204 497.464 197.263 482.793 196.003 466.018C195.981 465.727 196.074 465.44 196.257 465.235Z" fill="#C2C2C2"/>
<path d="M196.257 285.235C196.442 285.028 196.65 284.964 196.883 285.019C197.223 285.099 197.498 285.386 197.6 285.766C201.299 299.563 206.619 309.41 213.382 315.735V330.052H204.806C200.204 317.464 197.263 302.793 196.003 286.018C195.981 285.727 196.074 285.44 196.257 285.235Z" fill="#C2C2C2"/>
<path d="M196.257 420.235C196.442 420.028 196.65 419.964 196.883 420.019C197.223 420.099 197.498 420.386 197.6 420.766C201.299 434.563 206.619 444.41 213.382 450.735V465.052H204.806C200.204 452.464 197.263 437.793 196.003 421.018C195.981 420.727 196.074 420.44 196.257 420.235Z" fill="#C2C2C2"/>
<path d="M196.257 240.235C196.442 240.028 196.65 239.964 196.883 240.019C197.223 240.099 197.498 240.386 197.6 240.766C201.299 254.563 206.619 264.41 213.382 270.735V285.052H204.806C200.204 272.464 197.263 257.793 196.003 241.018C195.981 240.727 196.074 240.44 196.257 240.235Z" fill="#C2C2C2"/>
<path d="M196.257 375.235C196.442 375.028 196.65 374.964 196.883 375.019C197.223 375.099 197.498 375.386 197.6 375.766C201.299 389.563 206.619 399.41 213.382 405.735V420.052H204.806C200.204 407.464 197.263 392.793 196.003 376.018C195.981 375.727 196.074 375.44 196.257 375.235Z" fill="#C2C2C2"/>
<path d="M196.257 195.235C196.442 195.028 196.65 194.964 196.883 195.019C197.223 195.099 197.498 195.386 197.6 195.766C201.299 209.563 206.619 219.41 213.382 225.735V240.052H204.806C200.204 227.464 197.263 212.793 196.003 196.018C195.981 195.727 196.074 195.44 196.257 195.235Z" fill="#C2C2C2"/>
<path d="M196.257 330.235C196.442 330.028 196.65 329.964 196.883 330.019C197.223 330.099 197.498 330.386 197.6 330.766C201.299 344.563 206.619 354.41 213.382 360.735V375.052H204.806C200.204 362.464 197.263 347.793 196.003 331.018C195.981 330.727 196.074 330.44 196.257 330.235Z" fill="#C2C2C2"/>
<path d="M196.257 150.235C196.442 150.028 196.65 149.964 196.883 150.019C197.223 150.099 197.498 150.386 197.6 150.766C201.299 164.563 206.619 174.41 213.382 180.735V195.052H204.806C200.204 182.464 197.263 167.793 196.003 151.018C195.981 150.727 196.074 150.44 196.257 150.235Z" fill="#C2C2C2"/>
<path d="M226.257 555.235C226.442 555.028 226.65 554.964 226.883 555.019C227.223 555.099 227.498 555.386 227.6 555.766C231.299 569.563 236.619 579.41 243.382 585.735V600.052H234.806C230.204 587.464 227.263 572.793 226.003 556.018C225.981 555.727 226.074 555.44 226.257 555.235Z" fill="#C2C2C2"/>
<path d="M226.257 510.235C226.442 510.028 226.65 509.964 226.883 510.019C227.223 510.099 227.498 510.386 227.6 510.766C231.299 524.563 236.619 534.41 243.382 540.735V555.052H234.806C230.204 542.464 227.263 527.793 226.003 511.018C225.981 510.727 226.074 510.44 226.257 510.235Z" fill="#C2C2C2"/>
<path d="M226.257 465.235C226.442 465.028 226.65 464.964 226.883 465.019C227.223 465.099 227.498 465.386 227.6 465.766C231.299 479.563 236.619 489.41 243.382 495.735V510.052H234.806C230.204 497.464 227.263 482.793 226.003 466.018C225.981 465.727 226.074 465.44 226.257 465.235Z" fill="#C2C2C2"/>
<path d="M226.257 285.235C226.442 285.028 226.65 284.964 226.883 285.019C227.223 285.099 227.498 285.386 227.6 285.766C231.299 299.563 236.619 309.41 243.382 315.735V330.052H234.806C230.204 317.464 227.263 302.793 226.003 286.018C225.981 285.727 226.074 285.44 226.257 285.235Z" fill="#C2C2C2"/>
<path d="M226.257 420.235C226.442 420.028 226.65 419.964 226.883 420.019C227.223 420.099 227.498 420.386 227.6 420.766C231.299 434.563 236.619 444.41 243.382 450.735V465.052H234.806C230.204 452.464 227.263 437.793 226.003 421.018C225.981 420.727 226.074 420.44 226.257 420.235Z" fill="#C2C2C2"/>
<path d="M226.257 240.235C226.442 240.028 226.65 239.964 226.883 240.019C227.223 240.099 227.498 240.386 227.6 240.766C231.299 254.563 236.619 264.41 243.382 270.735V285.052H234.806C230.204 272.464 227.263 257.793 226.003 241.018C225.981 240.727 226.074 240.44 226.257 240.235Z" fill="#C2C2C2"/>
<path d="M226.257 375.235C226.442 375.028 226.65 374.964 226.883 375.019C227.223 375.099 227.498 375.386 227.6 375.766C231.299 389.563 236.619 399.41 243.382 405.735V420.052H234.806C230.204 407.464 227.263 392.793 226.003 376.018C225.981 375.727 226.074 375.44 226.257 375.235Z" fill="#C2C2C2"/>
<path d="M226.257 195.235C226.442 195.028 226.65 194.964 226.883 195.019C227.223 195.099 227.498 195.386 227.6 195.766C231.299 209.563 236.619 219.41 243.382 225.735V240.052H234.806C230.204 227.464 227.263 212.793 226.003 196.018C225.981 195.727 226.074 195.44 226.257 195.235Z" fill="#C2C2C2"/>
<path d="M226.257 330.235C226.442 330.028 226.65 329.964 226.883 330.019C227.223 330.099 227.498 330.386 227.6 330.766C231.299 344.563 236.619 354.41 243.382 360.735V375.052H234.806C230.204 362.464 227.263 347.793 226.003 331.018C225.981 330.727 226.074 330.44 226.257 330.235Z" fill="#C2C2C2"/>
<path d="M226.257 150.235C226.442 150.028 226.65 149.964 226.883 150.019C227.223 150.099 227.498 150.386 227.6 150.766C231.299 164.563 236.619 174.41 243.382 180.735V195.052H234.806C230.204 182.464 227.263 167.793 226.003 151.018C225.981 150.727 226.074 150.44 226.257 150.235Z" fill="#C2C2C2"/>
<path d="M286.257 555.235C286.442 555.028 286.65 554.964 286.883 555.019C287.223 555.099 287.498 555.386 287.6 555.766C291.299 569.563 296.619 579.41 303.382 585.735V600.052H294.806C290.204 587.464 287.263 572.793 286.003 556.018C285.981 555.727 286.074 555.44 286.257 555.235Z" fill="#C2C2C2"/>
<path d="M286.257 510.235C286.442 510.028 286.65 509.964 286.883 510.019C287.223 510.099 287.498 510.386 287.6 510.766C291.299 524.563 296.619 534.41 303.382 540.735V555.052H294.806C290.204 542.464 287.263 527.793 286.003 511.018C285.981 510.727 286.074 510.44 286.257 510.235Z" fill="#C2C2C2"/>
<path d="M286.257 465.235C286.442 465.028 286.65 464.964 286.883 465.019C287.223 465.099 287.498 465.386 287.6 465.766C291.299 479.563 296.619 489.41 303.382 495.735V510.052H294.806C290.204 497.464 287.263 482.793 286.003 466.018C285.981 465.727 286.074 465.44 286.257 465.235Z" fill="#C2C2C2"/>
<path d="M286.257 285.235C286.442 285.028 286.65 284.964 286.883 285.019C287.223 285.099 287.498 285.386 287.6 285.766C291.299 299.563 296.619 309.41 303.382 315.735V330.052H294.806C290.204 317.464 287.263 302.793 286.003 286.018C285.981 285.727 286.074 285.44 286.257 285.235Z" fill="#C2C2C2"/>
<path d="M286.257 420.235C286.442 420.028 286.65 419.964 286.883 420.019C287.223 420.099 287.498 420.386 287.6 420.766C291.299 434.563 296.619 444.41 303.382 450.735V465.052H294.806C290.204 452.464 287.263 437.793 286.003 421.018C285.981 420.727 286.074 420.44 286.257 420.235Z" fill="#C2C2C2"/>
<path d="M286.257 240.235C286.442 240.028 286.65 239.964 286.883 240.019C287.223 240.099 287.498 240.386 287.6 240.766C291.299 254.563 296.619 264.41 303.382 270.735V285.052H294.806C290.204 272.464 287.263 257.793 286.003 241.018C285.981 240.727 286.074 240.44 286.257 240.235Z" fill="#C2C2C2"/>
<path d="M286.257 375.235C286.442 375.028 286.65 374.964 286.883 375.019C287.223 375.099 287.498 375.386 287.6 375.766C291.299 389.563 296.619 399.41 303.382 405.735V420.052H294.806C290.204 407.464 287.263 392.793 286.003 376.018C285.981 375.727 286.074 375.44 286.257 375.235Z" fill="#C2C2C2"/>
<path d="M286.257 195.235C286.442 195.028 286.65 194.964 286.883 195.019C287.223 195.099 287.498 195.386 287.6 195.766C291.299 209.563 296.619 219.41 303.382 225.735V240.052H294.806C290.204 227.464 287.263 212.793 286.003 196.018C285.981 195.727 286.074 195.44 286.257 195.235Z" fill="#C2C2C2"/>
<path d="M286.257 330.235C286.442 330.028 286.65 329.964 286.883 330.019C287.223 330.099 287.498 330.386 287.6 330.766C291.299 344.563 296.619 354.41 303.382 360.735V375.052H294.806C290.204 362.464 287.263 347.793 286.003 331.018C285.981 330.727 286.074 330.44 286.257 330.235Z" fill="#C2C2C2"/>
<path d="M286.257 150.235C286.442 150.028 286.65 149.964 286.883 150.019C287.223 150.099 287.498 150.386 287.6 150.766C291.299 164.563 296.619 174.41 303.382 180.735V195.052H294.806C290.204 182.464 287.263 167.793 286.003 151.018C285.981 150.727 286.074 150.44 286.257 150.235Z" fill="#C2C2C2"/>
<path d="M256.257 555.235C256.442 555.028 256.65 554.964 256.883 555.019C257.223 555.099 257.498 555.386 257.6 555.766C261.299 569.563 266.619 579.41 273.382 585.735V600.052H264.806C260.204 587.464 257.263 572.793 256.003 556.018C255.981 555.727 256.074 555.44 256.257 555.235Z" fill="#C2C2C2"/>
<path d="M256.257 510.235C256.442 510.028 256.65 509.964 256.883 510.019C257.223 510.099 257.498 510.386 257.6 510.766C261.299 524.563 266.619 534.41 273.382 540.735V555.052H264.806C260.204 542.464 257.263 527.793 256.003 511.018C255.981 510.727 256.074 510.44 256.257 510.235Z" fill="#C2C2C2"/>
<path d="M256.257 465.235C256.442 465.028 256.65 464.964 256.883 465.019C257.223 465.099 257.498 465.386 257.6 465.766C261.299 479.563 266.619 489.41 273.382 495.735V510.052H264.806C260.204 497.464 257.263 482.793 256.003 466.018C255.981 465.727 256.074 465.44 256.257 465.235Z" fill="#C2C2C2"/>
<path d="M256.257 285.235C256.442 285.028 256.65 284.964 256.883 285.019C257.223 285.099 257.498 285.386 257.6 285.766C261.299 299.563 266.619 309.41 273.382 315.735V330.052H264.806C260.204 317.464 257.263 302.793 256.003 286.018C255.981 285.727 256.074 285.44 256.257 285.235Z" fill="#C2C2C2"/>
<path d="M256.257 420.235C256.442 420.028 256.65 419.964 256.883 420.019C257.223 420.099 257.498 420.386 257.6 420.766C261.299 434.563 266.619 444.41 273.382 450.735V465.052H264.806C260.204 452.464 257.263 437.793 256.003 421.018C255.981 420.727 256.074 420.44 256.257 420.235Z" fill="#C2C2C2"/>
<path d="M256.257 240.235C256.442 240.028 256.65 239.964 256.883 240.019C257.223 240.099 257.498 240.386 257.6 240.766C261.299 254.563 266.619 264.41 273.382 270.735V285.052H264.806C260.204 272.464 257.263 257.793 256.003 241.018C255.981 240.727 256.074 240.44 256.257 240.235Z" fill="#C2C2C2"/>
<path d="M256.257 375.235C256.442 375.028 256.65 374.964 256.883 375.019C257.223 375.099 257.498 375.386 257.6 375.766C261.299 389.563 266.619 399.41 273.382 405.735V420.052H264.806C260.204 407.464 257.263 392.793 256.003 376.018C255.981 375.727 256.074 375.44 256.257 375.235Z" fill="#C2C2C2"/>
<path d="M256.257 195.235C256.442 195.028 256.65 194.964 256.883 195.019C257.223 195.099 257.498 195.386 257.6 195.766C261.299 209.563 266.619 219.41 273.382 225.735V240.052H264.806C260.204 227.464 257.263 212.793 256.003 196.018C255.981 195.727 256.074 195.44 256.257 195.235Z" fill="#C2C2C2"/>
<path d="M256.257 330.235C256.442 330.028 256.65 329.964 256.883 330.019C257.223 330.099 257.498 330.386 257.6 330.766C261.299 344.563 266.619 354.41 273.382 360.735V375.052H264.806C260.204 362.464 257.263 347.793 256.003 331.018C255.981 330.727 256.074 330.44 256.257 330.235Z" fill="#C2C2C2"/>
<path d="M256.257 150.235C256.442 150.028 256.65 149.964 256.883 150.019C257.223 150.099 257.498 150.386 257.6 150.766C261.299 164.563 266.619 174.41 273.382 180.735V195.052H264.806C260.204 182.464 257.263 167.793 256.003 151.018C255.981 150.727 256.074 150.44 256.257 150.235Z" fill="#C2C2C2"/>
<path d="M316.257 555.235C316.442 555.028 316.65 554.964 316.883 555.019C317.223 555.099 317.498 555.386 317.6 555.766C321.299 569.563 326.619 579.41 333.382 585.735V600.052H324.806C320.204 587.464 317.263 572.793 316.003 556.018C315.981 555.727 316.074 555.44 316.257 555.235Z" fill="#C2C2C2"/>
<path d="M316.257 510.235C316.442 510.028 316.65 509.964 316.883 510.019C317.223 510.099 317.498 510.386 317.6 510.766C321.299 524.563 326.619 534.41 333.382 540.735V555.052H324.806C320.204 542.464 317.263 527.793 316.003 511.018C315.981 510.727 316.074 510.44 316.257 510.235Z" fill="#C2C2C2"/>
<path d="M316.257 465.235C316.442 465.028 316.65 464.964 316.883 465.019C317.223 465.099 317.498 465.386 317.6 465.766C321.299 479.563 326.619 489.41 333.382 495.735V510.052H324.806C320.204 497.464 317.263 482.793 316.003 466.018C315.981 465.727 316.074 465.44 316.257 465.235Z" fill="#C2C2C2"/>
<path d="M316.257 285.235C316.442 285.028 316.65 284.964 316.883 285.019C317.223 285.099 317.498 285.386 317.6 285.766C321.299 299.563 326.619 309.41 333.382 315.735V330.052H324.806C320.204 317.464 317.263 302.793 316.003 286.018C315.981 285.727 316.074 285.44 316.257 285.235Z" fill="#C2C2C2"/>
<path d="M316.257 420.235C316.442 420.028 316.65 419.964 316.883 420.019C317.223 420.099 317.498 420.386 317.6 420.766C321.299 434.563 326.619 444.41 333.382 450.735V465.052H324.806C320.204 452.464 317.263 437.793 316.003 421.018C315.981 420.727 316.074 420.44 316.257 420.235Z" fill="#C2C2C2"/>
<path d="M316.257 240.235C316.442 240.028 316.65 239.964 316.883 240.019C317.223 240.099 317.498 240.386 317.6 240.766C321.299 254.563 326.619 264.41 333.382 270.735V285.052H324.806C320.204 272.464 317.263 257.793 316.003 241.018C315.981 240.727 316.074 240.44 316.257 240.235Z" fill="#C2C2C2"/>
<path d="M316.257 375.235C316.442 375.028 316.65 374.964 316.883 375.019C317.223 375.099 317.498 375.386 317.6 375.766C321.299 389.563 326.619 399.41 333.382 405.735V420.052H324.806C320.204 407.464 317.263 392.793 316.003 376.018C315.981 375.727 316.074 375.44 316.257 375.235Z" fill="#C2C2C2"/>
<path d="M316.257 195.235C316.442 195.028 316.65 194.964 316.883 195.019C317.223 195.099 317.498 195.386 317.6 195.766C321.299 209.563 326.619 219.41 333.382 225.735V240.052H324.806C320.204 227.464 317.263 212.793 316.003 196.018C315.981 195.727 316.074 195.44 316.257 195.235Z" fill="#C2C2C2"/>
<path d="M316.257 330.235C316.442 330.028 316.65 329.964 316.883 330.019C317.223 330.099 317.498 330.386 317.6 330.766C321.299 344.563 326.619 354.41 333.382 360.735V375.052H324.806C320.204 362.464 317.263 347.793 316.003 331.018C315.981 330.727 316.074 330.44 316.257 330.235Z" fill="#C2C2C2"/>
<path d="M316.257 150.235C316.442 150.028 316.65 149.964 316.883 150.019C317.223 150.099 317.498 150.386 317.6 150.766C321.299 164.563 326.619 174.41 333.382 180.735V195.052H324.806C320.204 182.464 317.263 167.793 316.003 151.018C315.981 150.727 316.074 150.44 316.257 150.235Z" fill="#C2C2C2"/>
</g>
<defs>
<clipPath id="clip0_276_2649">
<rect width="500" height="600" fill="white"/>
</clipPath>
</defs>
</svg>
