<svg width="500" height="600" viewBox="0 0 500 600" fill="none" xmlns="http://www.w3.org/2000/svg">
<path d="M166.257 480.235C166.442 480.028 166.65 479.964 166.883 480.019C167.223 480.099 167.498 480.386 167.6 480.766C171.299 494.563 176.619 504.41 183.382 510.735V525.052H174.806C170.204 512.464 167.263 497.793 166.003 481.018C165.981 480.727 166.074 480.44 166.257 480.235Z" fill="#C2C2C2"/>
<path d="M166.257 435.235C166.442 435.028 166.65 434.964 166.883 435.019C167.223 435.099 167.498 435.386 167.6 435.766C171.299 449.563 176.619 459.41 183.382 465.735V480.052H174.806C170.204 467.464 167.263 452.793 166.003 436.018C165.981 435.727 166.074 435.44 166.257 435.235Z" fill="#C2C2C2"/>
<path d="M166.257 390.235C166.442 390.028 166.65 389.964 166.883 390.019C167.223 390.099 167.498 390.386 167.6 390.766C171.299 404.563 176.619 414.41 183.382 420.735V435.052H174.806C170.204 422.464 167.263 407.793 166.003 391.018C165.981 390.727 166.074 390.44 166.257 390.235Z" fill="#C2C2C2"/>
<path d="M166.257 210.235C166.442 210.028 166.65 209.964 166.883 210.019C167.223 210.099 167.498 210.386 167.6 210.766C171.299 224.563 176.619 234.41 183.382 240.735V255.052H174.806C170.204 242.464 167.263 227.793 166.003 211.018C165.981 210.727 166.074 210.44 166.257 210.235Z" fill="#C2C2C2"/>
<path d="M166.257 345.235C166.442 345.028 166.65 344.964 166.883 345.019C167.223 345.099 167.498 345.386 167.6 345.766C171.299 359.563 176.619 369.41 183.382 375.735V390.052H174.806C170.204 377.464 167.263 362.793 166.003 346.018C165.981 345.727 166.074 345.44 166.257 345.235Z" fill="#C2C2C2"/>
<path d="M166.257 165.235C166.442 165.028 166.65 164.964 166.883 165.019C167.223 165.099 167.498 165.386 167.6 165.766C171.299 179.563 176.619 189.41 183.382 195.735V210.052H174.806C170.204 197.464 167.263 182.793 166.003 166.018C165.981 165.727 166.074 165.44 166.257 165.235Z" fill="#C2C2C2"/>
<path d="M166.257 300.235C166.442 300.028 166.65 299.964 166.883 300.019C167.223 300.099 167.498 300.386 167.6 300.766C171.299 314.563 176.619 324.41 183.382 330.735V345.052H174.806C170.204 332.464 167.263 317.793 166.003 301.018C165.981 300.727 166.074 300.44 166.257 300.235Z" fill="#C2C2C2"/>
<path d="M166.257 120.235C166.442 120.028 166.65 119.964 166.883 120.019C167.223 120.099 167.498 120.386 167.6 120.766C171.299 134.563 176.619 144.41 183.382 150.735V165.052H174.806C170.204 152.464 167.263 137.793 166.003 121.018C165.981 120.727 166.074 120.44 166.257 120.235Z" fill="#C2C2C2"/>
<path d="M166.257 255.235C166.442 255.028 166.65 254.964 166.883 255.019C167.223 255.099 167.498 255.386 167.6 255.766C171.299 269.563 176.619 279.41 183.382 285.735V300.052H174.806C170.204 287.464 167.263 272.793 166.003 256.018C165.981 255.727 166.074 255.44 166.257 255.235Z" fill="#C2C2C2"/>
<path d="M166.257 75.2354C166.442 75.028 166.65 74.9639 166.883 75.0186C167.223 75.0993 167.498 75.3857 167.6 75.7657C171.299 89.5632 176.619 99.41 183.382 105.735V120.052H174.806C170.204 107.464 167.263 92.7934 166.003 76.0176C165.981 75.7266 166.074 75.4395 166.257 75.2354Z" fill="#C2C2C2"/>
<path d="M196.257 480.235C196.442 480.028 196.65 479.964 196.883 480.019C197.223 480.099 197.498 480.386 197.6 480.766C201.299 494.563 206.619 504.41 213.382 510.735V525.052H204.806C200.204 512.464 197.263 497.793 196.003 481.018C195.981 480.727 196.074 480.44 196.257 480.235Z" fill="#C2C2C2"/>
<path d="M196.257 435.235C196.442 435.028 196.65 434.964 196.883 435.019C197.223 435.099 197.498 435.386 197.6 435.766C201.299 449.563 206.619 459.41 213.382 465.735V480.052H204.806C200.204 467.464 197.263 452.793 196.003 436.018C195.981 435.727 196.074 435.44 196.257 435.235Z" fill="#C2C2C2"/>
<path d="M196.257 390.235C196.442 390.028 196.65 389.964 196.883 390.019C197.223 390.099 197.498 390.386 197.6 390.766C201.299 404.563 206.619 414.41 213.382 420.735V435.052H204.806C200.204 422.464 197.263 407.793 196.003 391.018C195.981 390.727 196.074 390.44 196.257 390.235Z" fill="#C2C2C2"/>
<path d="M196.257 210.235C196.442 210.028 196.65 209.964 196.883 210.019C197.223 210.099 197.498 210.386 197.6 210.766C201.299 224.563 206.619 234.41 213.382 240.735V255.052H204.806C200.204 242.464 197.263 227.793 196.003 211.018C195.981 210.727 196.074 210.44 196.257 210.235Z" fill="#C2C2C2"/>
<path d="M196.257 345.235C196.442 345.028 196.65 344.964 196.883 345.019C197.223 345.099 197.498 345.386 197.6 345.766C201.299 359.563 206.619 369.41 213.382 375.735V390.052H204.806C200.204 377.464 197.263 362.793 196.003 346.018C195.981 345.727 196.074 345.44 196.257 345.235Z" fill="#C2C2C2"/>
<path d="M196.257 165.235C196.442 165.028 196.65 164.964 196.883 165.019C197.223 165.099 197.498 165.386 197.6 165.766C201.299 179.563 206.619 189.41 213.382 195.735V210.052H204.806C200.204 197.464 197.263 182.793 196.003 166.018C195.981 165.727 196.074 165.44 196.257 165.235Z" fill="#C2C2C2"/>
<path d="M196.257 300.235C196.442 300.028 196.65 299.964 196.883 300.019C197.223 300.099 197.498 300.386 197.6 300.766C201.299 314.563 206.619 324.41 213.382 330.735V345.052H204.806C200.204 332.464 197.263 317.793 196.003 301.018C195.981 300.727 196.074 300.44 196.257 300.235Z" fill="#C2C2C2"/>
<path d="M196.257 120.235C196.442 120.028 196.65 119.964 196.883 120.019C197.223 120.099 197.498 120.386 197.6 120.766C201.299 134.563 206.619 144.41 213.382 150.735V165.052H204.806C200.204 152.464 197.263 137.793 196.003 121.018C195.981 120.727 196.074 120.44 196.257 120.235Z" fill="#C2C2C2"/>
<path d="M196.257 255.235C196.442 255.028 196.65 254.964 196.883 255.019C197.223 255.099 197.498 255.386 197.6 255.766C201.299 269.563 206.619 279.41 213.382 285.735V300.052H204.806C200.204 287.464 197.263 272.793 196.003 256.018C195.981 255.727 196.074 255.44 196.257 255.235Z" fill="#C2C2C2"/>
<path d="M196.257 75.2354C196.442 75.028 196.65 74.9639 196.883 75.0186C197.223 75.0993 197.498 75.3857 197.6 75.7657C201.299 89.5632 206.619 99.41 213.382 105.735V120.052H204.806C200.204 107.464 197.263 92.7934 196.003 76.0176C195.981 75.7266 196.074 75.4395 196.257 75.2354Z" fill="#C2C2C2"/>
<path d="M226.257 480.235C226.442 480.028 226.65 479.964 226.883 480.019C227.223 480.099 227.498 480.386 227.6 480.766C231.299 494.563 236.619 504.41 243.382 510.735V525.052H234.806C230.204 512.464 227.263 497.793 226.003 481.018C225.981 480.727 226.074 480.44 226.257 480.235Z" fill="#C2C2C2"/>
<path d="M226.257 435.235C226.442 435.028 226.65 434.964 226.883 435.019C227.223 435.099 227.498 435.386 227.6 435.766C231.299 449.563 236.619 459.41 243.382 465.735V480.052H234.806C230.204 467.464 227.263 452.793 226.003 436.018C225.981 435.727 226.074 435.44 226.257 435.235Z" fill="#C2C2C2"/>
<path d="M226.257 390.235C226.442 390.028 226.65 389.964 226.883 390.019C227.223 390.099 227.498 390.386 227.6 390.766C231.299 404.563 236.619 414.41 243.382 420.735V435.052H234.806C230.204 422.464 227.263 407.793 226.003 391.018C225.981 390.727 226.074 390.44 226.257 390.235Z" fill="#C2C2C2"/>
<path d="M226.257 210.235C226.442 210.028 226.65 209.964 226.883 210.019C227.223 210.099 227.498 210.386 227.6 210.766C231.299 224.563 236.619 234.41 243.382 240.735V255.052H234.806C230.204 242.464 227.263 227.793 226.003 211.018C225.981 210.727 226.074 210.44 226.257 210.235Z" fill="#C2C2C2"/>
<path d="M226.257 345.235C226.442 345.028 226.65 344.964 226.883 345.019C227.223 345.099 227.498 345.386 227.6 345.766C231.299 359.563 236.619 369.41 243.382 375.735V390.052H234.806C230.204 377.464 227.263 362.793 226.003 346.018C225.981 345.727 226.074 345.44 226.257 345.235Z" fill="#C2C2C2"/>
<path d="M226.257 165.235C226.442 165.028 226.65 164.964 226.883 165.019C227.223 165.099 227.498 165.386 227.6 165.766C231.299 179.563 236.619 189.41 243.382 195.735V210.052H234.806C230.204 197.464 227.263 182.793 226.003 166.018C225.981 165.727 226.074 165.44 226.257 165.235Z" fill="#C2C2C2"/>
<path d="M226.257 300.235C226.442 300.028 226.65 299.964 226.883 300.019C227.223 300.099 227.498 300.386 227.6 300.766C231.299 314.563 236.619 324.41 243.382 330.735V345.052H234.806C230.204 332.464 227.263 317.793 226.003 301.018C225.981 300.727 226.074 300.44 226.257 300.235Z" fill="#C2C2C2"/>
<path d="M226.257 120.235C226.442 120.028 226.65 119.964 226.883 120.019C227.223 120.099 227.498 120.386 227.6 120.766C231.299 134.563 236.619 144.41 243.382 150.735V165.052H234.806C230.204 152.464 227.263 137.793 226.003 121.018C225.981 120.727 226.074 120.44 226.257 120.235Z" fill="#C2C2C2"/>
<path d="M226.257 255.235C226.442 255.028 226.65 254.964 226.883 255.019C227.223 255.099 227.498 255.386 227.6 255.766C231.299 269.563 236.619 279.41 243.382 285.735V300.052H234.806C230.204 287.464 227.263 272.793 226.003 256.018C225.981 255.727 226.074 255.44 226.257 255.235Z" fill="#C2C2C2"/>
<path d="M226.257 75.2354C226.442 75.028 226.65 74.9639 226.883 75.0186C227.223 75.0993 227.498 75.3857 227.6 75.7657C231.299 89.5632 236.619 99.41 243.382 105.735V120.052H234.806C230.204 107.464 227.263 92.7934 226.003 76.0176C225.981 75.7266 226.074 75.4395 226.257 75.2354Z" fill="#C2C2C2"/>
<path d="M286.257 480.235C286.442 480.028 286.65 479.964 286.883 480.019C287.223 480.099 287.498 480.386 287.6 480.766C291.299 494.563 296.619 504.41 303.382 510.735V525.052H294.806C290.204 512.464 287.263 497.793 286.003 481.018C285.981 480.727 286.074 480.44 286.257 480.235Z" fill="#C2C2C2"/>
<path d="M286.257 435.235C286.442 435.028 286.65 434.964 286.883 435.019C287.223 435.099 287.498 435.386 287.6 435.766C291.299 449.563 296.619 459.41 303.382 465.735V480.052H294.806C290.204 467.464 287.263 452.793 286.003 436.018C285.981 435.727 286.074 435.44 286.257 435.235Z" fill="#C2C2C2"/>
<path d="M286.257 390.235C286.442 390.028 286.65 389.964 286.883 390.019C287.223 390.099 287.498 390.386 287.6 390.766C291.299 404.563 296.619 414.41 303.382 420.735V435.052H294.806C290.204 422.464 287.263 407.793 286.003 391.018C285.981 390.727 286.074 390.44 286.257 390.235Z" fill="#C2C2C2"/>
<path d="M286.257 210.235C286.442 210.028 286.65 209.964 286.883 210.019C287.223 210.099 287.498 210.386 287.6 210.766C291.299 224.563 296.619 234.41 303.382 240.735V255.052H294.806C290.204 242.464 287.263 227.793 286.003 211.018C285.981 210.727 286.074 210.44 286.257 210.235Z" fill="#C2C2C2"/>
<path d="M286.257 345.235C286.442 345.028 286.65 344.964 286.883 345.019C287.223 345.099 287.498 345.386 287.6 345.766C291.299 359.563 296.619 369.41 303.382 375.735V390.052H294.806C290.204 377.464 287.263 362.793 286.003 346.018C285.981 345.727 286.074 345.44 286.257 345.235Z" fill="#C2C2C2"/>
<path d="M286.257 165.235C286.442 165.028 286.65 164.964 286.883 165.019C287.223 165.099 287.498 165.386 287.6 165.766C291.299 179.563 296.619 189.41 303.382 195.735V210.052H294.806C290.204 197.464 287.263 182.793 286.003 166.018C285.981 165.727 286.074 165.44 286.257 165.235Z" fill="#C2C2C2"/>
<path d="M286.257 300.235C286.442 300.028 286.65 299.964 286.883 300.019C287.223 300.099 287.498 300.386 287.6 300.766C291.299 314.563 296.619 324.41 303.382 330.735V345.052H294.806C290.204 332.464 287.263 317.793 286.003 301.018C285.981 300.727 286.074 300.44 286.257 300.235Z" fill="#C2C2C2"/>
<path d="M286.257 120.235C286.442 120.028 286.65 119.964 286.883 120.019C287.223 120.099 287.498 120.386 287.6 120.766C291.299 134.563 296.619 144.41 303.382 150.735V165.052H294.806C290.204 152.464 287.263 137.793 286.003 121.018C285.981 120.727 286.074 120.44 286.257 120.235Z" fill="#C2C2C2"/>
<path d="M286.257 255.235C286.442 255.028 286.65 254.964 286.883 255.019C287.223 255.099 287.498 255.386 287.6 255.766C291.299 269.563 296.619 279.41 303.382 285.735V300.052H294.806C290.204 287.464 287.263 272.793 286.003 256.018C285.981 255.727 286.074 255.44 286.257 255.235Z" fill="#C2C2C2"/>
<path d="M286.257 75.2354C286.442 75.028 286.65 74.9639 286.883 75.0186C287.223 75.0993 287.498 75.3857 287.6 75.7657C291.299 89.5632 296.619 99.41 303.382 105.735V120.052H294.806C290.204 107.464 287.263 92.7934 286.003 76.0176C285.981 75.7266 286.074 75.4395 286.257 75.2354Z" fill="#C2C2C2"/>
<path d="M256.257 480.235C256.442 480.028 256.65 479.964 256.883 480.019C257.223 480.099 257.498 480.386 257.6 480.766C261.299 494.563 266.619 504.41 273.382 510.735V525.052H264.806C260.204 512.464 257.263 497.793 256.003 481.018C255.981 480.727 256.074 480.44 256.257 480.235Z" fill="#C2C2C2"/>
<path d="M256.257 435.235C256.442 435.028 256.65 434.964 256.883 435.019C257.223 435.099 257.498 435.386 257.6 435.766C261.299 449.563 266.619 459.41 273.382 465.735V480.052H264.806C260.204 467.464 257.263 452.793 256.003 436.018C255.981 435.727 256.074 435.44 256.257 435.235Z" fill="#C2C2C2"/>
<path d="M256.257 390.235C256.442 390.028 256.65 389.964 256.883 390.019C257.223 390.099 257.498 390.386 257.6 390.766C261.299 404.563 266.619 414.41 273.382 420.735V435.052H264.806C260.204 422.464 257.263 407.793 256.003 391.018C255.981 390.727 256.074 390.44 256.257 390.235Z" fill="#C2C2C2"/>
<path d="M256.257 210.235C256.442 210.028 256.65 209.964 256.883 210.019C257.223 210.099 257.498 210.386 257.6 210.766C261.299 224.563 266.619 234.41 273.382 240.735V255.052H264.806C260.204 242.464 257.263 227.793 256.003 211.018C255.981 210.727 256.074 210.44 256.257 210.235Z" fill="#C2C2C2"/>
<path d="M256.257 345.235C256.442 345.028 256.65 344.964 256.883 345.019C257.223 345.099 257.498 345.386 257.6 345.766C261.299 359.563 266.619 369.41 273.382 375.735V390.052H264.806C260.204 377.464 257.263 362.793 256.003 346.018C255.981 345.727 256.074 345.44 256.257 345.235Z" fill="#C2C2C2"/>
<path d="M256.257 165.235C256.442 165.028 256.65 164.964 256.883 165.019C257.223 165.099 257.498 165.386 257.6 165.766C261.299 179.563 266.619 189.41 273.382 195.735V210.052H264.806C260.204 197.464 257.263 182.793 256.003 166.018C255.981 165.727 256.074 165.44 256.257 165.235Z" fill="#C2C2C2"/>
<path d="M256.257 300.235C256.442 300.028 256.65 299.964 256.883 300.019C257.223 300.099 257.498 300.386 257.6 300.766C261.299 314.563 266.619 324.41 273.382 330.735V345.052H264.806C260.204 332.464 257.263 317.793 256.003 301.018C255.981 300.727 256.074 300.44 256.257 300.235Z" fill="#C2C2C2"/>
<path d="M256.257 120.235C256.442 120.028 256.65 119.964 256.883 120.019C257.223 120.099 257.498 120.386 257.6 120.766C261.299 134.563 266.619 144.41 273.382 150.735V165.052H264.806C260.204 152.464 257.263 137.793 256.003 121.018C255.981 120.727 256.074 120.44 256.257 120.235Z" fill="#C2C2C2"/>
<path d="M256.257 255.235C256.442 255.028 256.65 254.964 256.883 255.019C257.223 255.099 257.498 255.386 257.6 255.766C261.299 269.563 266.619 279.41 273.382 285.735V300.052H264.806C260.204 287.464 257.263 272.793 256.003 256.018C255.981 255.727 256.074 255.44 256.257 255.235Z" fill="#C2C2C2"/>
<path d="M256.257 75.2354C256.442 75.028 256.65 74.9639 256.883 75.0186C257.223 75.0993 257.498 75.3857 257.6 75.7657C261.299 89.5632 266.619 99.41 273.382 105.735V120.052H264.806C260.204 107.464 257.263 92.7934 256.003 76.0176C255.981 75.7266 256.074 75.4395 256.257 75.2354Z" fill="#C2C2C2"/>
<path d="M316.257 480.235C316.442 480.028 316.65 479.964 316.883 480.019C317.223 480.099 317.498 480.386 317.6 480.766C321.299 494.563 326.619 504.41 333.382 510.735V525.052H324.806C320.204 512.464 317.263 497.793 316.003 481.018C315.981 480.727 316.074 480.44 316.257 480.235Z" fill="#C2C2C2"/>
<path d="M316.257 435.235C316.442 435.028 316.65 434.964 316.883 435.019C317.223 435.099 317.498 435.386 317.6 435.766C321.299 449.563 326.619 459.41 333.382 465.735V480.052H324.806C320.204 467.464 317.263 452.793 316.003 436.018C315.981 435.727 316.074 435.44 316.257 435.235Z" fill="#C2C2C2"/>
<path d="M316.257 390.235C316.442 390.028 316.65 389.964 316.883 390.019C317.223 390.099 317.498 390.386 317.6 390.766C321.299 404.563 326.619 414.41 333.382 420.735V435.052H324.806C320.204 422.464 317.263 407.793 316.003 391.018C315.981 390.727 316.074 390.44 316.257 390.235Z" fill="#C2C2C2"/>
<path d="M316.257 210.235C316.442 210.028 316.65 209.964 316.883 210.019C317.223 210.099 317.498 210.386 317.6 210.766C321.299 224.563 326.619 234.41 333.382 240.735V255.052H324.806C320.204 242.464 317.263 227.793 316.003 211.018C315.981 210.727 316.074 210.44 316.257 210.235Z" fill="#C2C2C2"/>
<path d="M316.257 345.235C316.442 345.028 316.65 344.964 316.883 345.019C317.223 345.099 317.498 345.386 317.6 345.766C321.299 359.563 326.619 369.41 333.382 375.735V390.052H324.806C320.204 377.464 317.263 362.793 316.003 346.018C315.981 345.727 316.074 345.44 316.257 345.235Z" fill="#C2C2C2"/>
<path d="M316.257 165.235C316.442 165.028 316.65 164.964 316.883 165.019C317.223 165.099 317.498 165.386 317.6 165.766C321.299 179.563 326.619 189.41 333.382 195.735V210.052H324.806C320.204 197.464 317.263 182.793 316.003 166.018C315.981 165.727 316.074 165.44 316.257 165.235Z" fill="#C2C2C2"/>
<path d="M316.257 300.235C316.442 300.028 316.65 299.964 316.883 300.019C317.223 300.099 317.498 300.386 317.6 300.766C321.299 314.563 326.619 324.41 333.382 330.735V345.052H324.806C320.204 332.464 317.263 317.793 316.003 301.018C315.981 300.727 316.074 300.44 316.257 300.235Z" fill="#C2C2C2"/>
<path d="M316.257 120.235C316.442 120.028 316.65 119.964 316.883 120.019C317.223 120.099 317.498 120.386 317.6 120.766C321.299 134.563 326.619 144.41 333.382 150.735V165.052H324.806C320.204 152.464 317.263 137.793 316.003 121.018C315.981 120.727 316.074 120.44 316.257 120.235Z" fill="#C2C2C2"/>
<path d="M316.257 255.235C316.442 255.028 316.65 254.964 316.883 255.019C317.223 255.099 317.498 255.386 317.6 255.766C321.299 269.563 326.619 279.41 333.382 285.735V300.052H324.806C320.204 287.464 317.263 272.793 316.003 256.018C315.981 255.727 316.074 255.44 316.257 255.235Z" fill="#C2C2C2"/>
<path d="M316.257 75.2354C316.442 75.028 316.65 74.9639 316.883 75.0186C317.223 75.0993 317.498 75.3857 317.6 75.7657C321.299 89.5632 326.619 99.41 333.382 105.735V120.052H324.806C320.204 107.464 317.263 92.7934 316.003 76.0176C315.981 75.7266 316.074 75.4395 316.257 75.2354Z" fill="#C2C2C2"/>
</svg>
