<svg width="500" height="600" viewBox="0 0 500 600" fill="none" xmlns="http://www.w3.org/2000/svg">
<path d="M187.444 555C186.63 559.895 185.707 566.716 185.282 574.884C184.513 589.648 185.829 599.844 184.833 599.998C183.934 600.133 181.786 591.993 180.563 583.66C178.51 569.677 179.58 558.685 179.625 555H187.444ZM178.802 555C178.09 557.412 177.142 562.772 176.743 568.3C176.568 570.708 176.55 572.864 176.518 577.078C176.439 587.737 176.809 593.107 176.294 593.171C175.978 593.208 175.514 591.218 174.947 588.781C174.471 586.732 174.185 584.99 173.824 582.441C173.456 579.838 173.23 578.231 172.926 575.369C172.399 570.417 172.113 567.732 172.027 564.397C171.931 560.741 172.105 557.517 172.337 555H178.802Z" fill="#5C5C5C"/>
<path d="M187.444 465C186.63 469.895 185.707 476.716 185.282 484.884C184.513 499.648 185.829 509.844 184.833 509.998C183.934 510.133 181.786 501.993 180.563 493.66C178.51 479.677 179.58 468.685 179.625 465H187.444ZM178.802 465C178.09 467.412 177.142 472.772 176.743 478.3C176.568 480.708 176.55 482.864 176.518 487.078C176.439 497.737 176.809 503.107 176.294 503.171C175.978 503.208 175.514 501.218 174.947 498.781C174.471 496.732 174.185 494.99 173.824 492.441C173.456 489.838 173.23 488.231 172.926 485.369C172.399 480.417 172.113 477.732 172.027 474.397C171.931 470.741 172.105 467.517 172.337 465H178.802Z" fill="#5C5C5C"/>
<path d="M187.444 510C186.63 514.895 185.707 521.716 185.282 529.884C184.513 544.648 185.829 554.844 184.833 554.998C183.934 555.133 181.786 546.993 180.563 538.66C178.51 524.677 179.58 513.685 179.625 510H187.444ZM178.802 510C178.09 512.412 177.142 517.772 176.743 523.3C176.568 525.708 176.55 527.864 176.518 532.078C176.439 542.737 176.809 548.107 176.294 548.171C175.978 548.208 175.514 546.218 174.947 543.781C174.471 541.732 174.185 539.99 173.824 537.441C173.456 534.838 173.23 533.231 172.926 530.369C172.399 525.417 172.113 522.732 172.027 519.397C171.931 515.741 172.105 512.517 172.337 510H178.802Z" fill="#5C5C5C"/>
<path d="M187.444 420C186.63 424.895 185.707 431.716 185.282 439.884C184.513 454.648 185.829 464.844 184.833 464.998C183.934 465.133 181.786 456.993 180.563 448.66C178.51 434.677 179.58 423.685 179.625 420H187.444ZM178.802 420C178.09 422.412 177.142 427.772 176.743 433.3C176.568 435.708 176.55 437.864 176.518 442.078C176.439 452.737 176.809 458.107 176.294 458.171C175.978 458.208 175.514 456.218 174.947 453.781C174.471 451.732 174.185 449.99 173.824 447.441C173.456 444.838 173.23 443.231 172.926 440.369C172.399 435.417 172.113 432.732 172.027 429.397C171.931 425.741 172.105 422.517 172.337 420H178.802Z" fill="#5C5C5C"/>
<path d="M187.444 375C186.63 379.895 185.707 386.716 185.282 394.884C184.513 409.648 185.829 419.844 184.833 419.998C183.934 420.133 181.786 411.993 180.563 403.66C178.51 389.677 179.58 378.685 179.625 375H187.444ZM178.802 375C178.09 377.412 177.142 382.772 176.743 388.3C176.568 390.708 176.55 392.864 176.518 397.078C176.439 407.737 176.809 413.107 176.294 413.171C175.978 413.208 175.514 411.218 174.947 408.781C174.471 406.732 174.185 404.99 173.824 402.441C173.456 399.838 173.23 398.231 172.926 395.369C172.399 390.417 172.113 387.732 172.027 384.397C171.931 380.741 172.105 377.517 172.337 375H178.802Z" fill="#5C5C5C"/>
<path d="M215.444 555C214.63 559.895 213.707 566.716 213.282 574.884C212.513 589.648 213.829 599.844 212.833 599.998C211.934 600.133 209.786 591.993 208.563 583.66C206.51 569.677 207.58 558.685 207.625 555H215.444ZM206.802 555C206.09 557.412 205.142 562.772 204.743 568.3C204.568 570.708 204.55 572.864 204.518 577.078C204.439 587.737 204.809 593.107 204.294 593.171C203.978 593.208 203.514 591.218 202.947 588.781C202.471 586.732 202.185 584.99 201.824 582.441C201.456 579.838 201.23 578.231 200.926 575.369C200.399 570.417 200.113 567.732 200.027 564.397C199.931 560.741 200.105 557.517 200.337 555H206.802Z" fill="#5C5C5C"/>
<path d="M215.444 465C214.63 469.895 213.707 476.716 213.282 484.884C212.513 499.648 213.829 509.844 212.833 509.998C211.934 510.133 209.786 501.993 208.563 493.66C206.51 479.677 207.58 468.685 207.625 465H215.444ZM206.802 465C206.09 467.412 205.142 472.772 204.743 478.3C204.568 480.708 204.55 482.864 204.518 487.078C204.439 497.737 204.809 503.107 204.294 503.171C203.978 503.208 203.514 501.218 202.947 498.781C202.471 496.732 202.185 494.99 201.824 492.441C201.456 489.838 201.23 488.231 200.926 485.369C200.399 480.417 200.113 477.732 200.027 474.397C199.931 470.741 200.105 467.517 200.337 465H206.802Z" fill="#5C5C5C"/>
<path d="M215.444 510C214.63 514.895 213.707 521.716 213.282 529.884C212.513 544.648 213.829 554.844 212.833 554.998C211.934 555.133 209.786 546.993 208.563 538.66C206.51 524.677 207.58 513.685 207.625 510H215.444ZM206.802 510C206.09 512.412 205.142 517.772 204.743 523.3C204.568 525.708 204.55 527.864 204.518 532.078C204.439 542.737 204.809 548.107 204.294 548.171C203.978 548.208 203.514 546.218 202.947 543.781C202.471 541.732 202.185 539.99 201.824 537.441C201.456 534.838 201.23 533.231 200.926 530.369C200.399 525.417 200.113 522.732 200.027 519.397C199.931 515.741 200.105 512.517 200.337 510H206.802Z" fill="#5C5C5C"/>
<path d="M215.444 420C214.63 424.895 213.707 431.716 213.282 439.884C212.513 454.648 213.829 464.844 212.833 464.998C211.934 465.133 209.786 456.993 208.563 448.66C206.51 434.677 207.58 423.685 207.625 420H215.444ZM206.802 420C206.09 422.412 205.142 427.772 204.743 433.3C204.568 435.708 204.55 437.864 204.518 442.078C204.439 452.737 204.809 458.107 204.294 458.171C203.978 458.208 203.514 456.218 202.947 453.781C202.471 451.732 202.185 449.99 201.824 447.441C201.456 444.838 201.23 443.231 200.926 440.369C200.399 435.417 200.113 432.732 200.027 429.397C199.931 425.741 200.105 422.517 200.337 420H206.802Z" fill="#5C5C5C"/>
<path d="M215.444 375C214.63 379.895 213.707 386.716 213.282 394.884C212.513 409.648 213.829 419.844 212.833 419.998C211.934 420.133 209.786 411.993 208.563 403.66C206.51 389.677 207.58 378.685 207.625 375H215.444ZM206.802 375C206.09 377.412 205.142 382.772 204.743 388.3C204.568 390.708 204.55 392.864 204.518 397.078C204.439 407.737 204.809 413.107 204.294 413.171C203.978 413.208 203.514 411.218 202.947 408.781C202.471 406.732 202.185 404.99 201.824 402.441C201.456 399.838 201.23 398.231 200.926 395.369C200.399 390.417 200.113 387.732 200.027 384.397C199.931 380.741 200.105 377.517 200.337 375H206.802Z" fill="#5C5C5C"/>
<path d="M243.444 555C242.63 559.895 241.707 566.716 241.282 574.884C240.513 589.648 241.829 599.844 240.833 599.998C239.934 600.133 237.786 591.993 236.563 583.66C234.51 569.677 235.58 558.685 235.625 555H243.444ZM234.802 555C234.09 557.412 233.142 562.772 232.743 568.3C232.568 570.708 232.55 572.864 232.518 577.078C232.439 587.737 232.809 593.107 232.294 593.171C231.978 593.208 231.514 591.218 230.947 588.781C230.471 586.732 230.185 584.99 229.824 582.441C229.456 579.838 229.23 578.231 228.926 575.369C228.399 570.417 228.113 567.732 228.027 564.397C227.931 560.741 228.105 557.517 228.337 555H234.802Z" fill="#5C5C5C"/>
<path d="M243.444 465C242.63 469.895 241.707 476.716 241.282 484.884C240.513 499.648 241.829 509.844 240.833 509.998C239.934 510.133 237.786 501.993 236.563 493.66C234.51 479.677 235.58 468.685 235.625 465H243.444ZM234.802 465C234.09 467.412 233.142 472.772 232.743 478.3C232.568 480.708 232.55 482.864 232.518 487.078C232.439 497.737 232.809 503.107 232.294 503.171C231.978 503.208 231.514 501.218 230.947 498.781C230.471 496.732 230.185 494.99 229.824 492.441C229.456 489.838 229.23 488.231 228.926 485.369C228.399 480.417 228.113 477.732 228.027 474.397C227.931 470.741 228.105 467.517 228.337 465H234.802Z" fill="#5C5C5C"/>
<path d="M243.444 510C242.63 514.895 241.707 521.716 241.282 529.884C240.513 544.648 241.829 554.844 240.833 554.998C239.934 555.133 237.786 546.993 236.563 538.66C234.51 524.677 235.58 513.685 235.625 510H243.444ZM234.802 510C234.09 512.412 233.142 517.772 232.743 523.3C232.568 525.708 232.55 527.864 232.518 532.078C232.439 542.737 232.809 548.107 232.294 548.171C231.978 548.208 231.514 546.218 230.947 543.781C230.471 541.732 230.185 539.99 229.824 537.441C229.456 534.838 229.23 533.231 228.926 530.369C228.399 525.417 228.113 522.732 228.027 519.397C227.931 515.741 228.105 512.517 228.337 510H234.802Z" fill="#5C5C5C"/>
<path d="M243.444 420C242.63 424.895 241.707 431.716 241.282 439.884C240.513 454.648 241.829 464.844 240.833 464.998C239.934 465.133 237.786 456.993 236.563 448.66C234.51 434.677 235.58 423.685 235.625 420H243.444ZM234.802 420C234.09 422.412 233.142 427.772 232.743 433.3C232.568 435.708 232.55 437.864 232.518 442.078C232.439 452.737 232.809 458.107 232.294 458.171C231.978 458.208 231.514 456.218 230.947 453.781C230.471 451.732 230.185 449.99 229.824 447.441C229.456 444.838 229.23 443.231 228.926 440.369C228.399 435.417 228.113 432.732 228.027 429.397C227.931 425.741 228.105 422.517 228.337 420H234.802Z" fill="#5C5C5C"/>
<path d="M243.444 375C242.63 379.895 241.707 386.716 241.282 394.884C240.513 409.648 241.829 419.844 240.833 419.998C239.934 420.133 237.786 411.993 236.563 403.66C234.51 389.677 235.58 378.685 235.625 375H243.444ZM234.802 375C234.09 377.412 233.142 382.772 232.743 388.3C232.568 390.708 232.55 392.864 232.518 397.078C232.439 407.737 232.809 413.107 232.294 413.171C231.978 413.208 231.514 411.218 230.947 408.781C230.471 406.732 230.185 404.99 229.824 402.441C229.456 399.838 229.23 398.231 228.926 395.369C228.399 390.417 228.113 387.732 228.027 384.397C227.931 380.741 228.105 377.517 228.337 375H234.802Z" fill="#5C5C5C"/>
<path d="M271.444 555C270.63 559.895 269.707 566.716 269.282 574.884C268.513 589.648 269.829 599.844 268.833 599.998C267.934 600.133 265.786 591.993 264.563 583.66C262.51 569.677 263.58 558.685 263.625 555H271.444ZM262.802 555C262.09 557.412 261.142 562.772 260.743 568.3C260.568 570.708 260.55 572.864 260.518 577.078C260.439 587.737 260.809 593.107 260.294 593.171C259.978 593.208 259.514 591.218 258.947 588.781C258.471 586.732 258.185 584.99 257.824 582.441C257.456 579.838 257.23 578.231 256.926 575.369C256.399 570.417 256.113 567.732 256.027 564.397C255.931 560.741 256.105 557.517 256.337 555H262.802Z" fill="#5C5C5C"/>
<path d="M271.444 465C270.63 469.895 269.707 476.716 269.282 484.884C268.513 499.648 269.829 509.844 268.833 509.998C267.934 510.133 265.786 501.993 264.563 493.66C262.51 479.677 263.58 468.685 263.625 465H271.444ZM262.802 465C262.09 467.412 261.142 472.772 260.743 478.3C260.568 480.708 260.55 482.864 260.518 487.078C260.439 497.737 260.809 503.107 260.294 503.171C259.978 503.208 259.514 501.218 258.947 498.781C258.471 496.732 258.185 494.99 257.824 492.441C257.456 489.838 257.23 488.231 256.926 485.369C256.399 480.417 256.113 477.732 256.027 474.397C255.931 470.741 256.105 467.517 256.337 465H262.802Z" fill="#5C5C5C"/>
<path d="M271.444 510C270.63 514.895 269.707 521.716 269.282 529.884C268.513 544.648 269.829 554.844 268.833 554.998C267.934 555.133 265.786 546.993 264.563 538.66C262.51 524.677 263.58 513.685 263.625 510H271.444ZM262.802 510C262.09 512.412 261.142 517.772 260.743 523.3C260.568 525.708 260.55 527.864 260.518 532.078C260.439 542.737 260.809 548.107 260.294 548.171C259.978 548.208 259.514 546.218 258.947 543.781C258.471 541.732 258.185 539.99 257.824 537.441C257.456 534.838 257.23 533.231 256.926 530.369C256.399 525.417 256.113 522.732 256.027 519.397C255.931 515.741 256.105 512.517 256.337 510H262.802Z" fill="#5C5C5C"/>
<path d="M271.444 420C270.63 424.895 269.707 431.716 269.282 439.884C268.513 454.648 269.829 464.844 268.833 464.998C267.934 465.133 265.786 456.993 264.563 448.66C262.51 434.677 263.58 423.685 263.625 420H271.444ZM262.802 420C262.09 422.412 261.142 427.772 260.743 433.3C260.568 435.708 260.55 437.864 260.518 442.078C260.439 452.737 260.809 458.107 260.294 458.171C259.978 458.208 259.514 456.218 258.947 453.781C258.471 451.732 258.185 449.99 257.824 447.441C257.456 444.838 257.23 443.231 256.926 440.369C256.399 435.417 256.113 432.732 256.027 429.397C255.931 425.741 256.105 422.517 256.337 420H262.802Z" fill="#5C5C5C"/>
<path d="M299.444 555C298.63 559.895 297.707 566.716 297.282 574.884C296.513 589.648 297.829 599.844 296.833 599.998C295.934 600.133 293.786 591.993 292.563 583.66C290.51 569.677 291.58 558.685 291.625 555H299.444ZM290.802 555C290.09 557.412 289.142 562.772 288.743 568.3C288.568 570.708 288.55 572.864 288.518 577.078C288.439 587.737 288.809 593.107 288.294 593.171C287.978 593.208 287.514 591.218 286.947 588.781C286.471 586.732 286.185 584.99 285.824 582.441C285.456 579.838 285.23 578.231 284.926 575.369C284.399 570.417 284.113 567.732 284.027 564.397C283.931 560.741 284.105 557.517 284.337 555H290.802Z" fill="#5C5C5C"/>
<path d="M299.444 465C298.63 469.895 297.707 476.716 297.282 484.884C296.513 499.648 297.829 509.844 296.833 509.998C295.934 510.133 293.786 501.993 292.563 493.66C290.51 479.677 291.58 468.685 291.625 465H299.444ZM290.802 465C290.09 467.412 289.142 472.772 288.743 478.3C288.568 480.708 288.55 482.864 288.518 487.078C288.439 497.737 288.809 503.107 288.294 503.171C287.978 503.208 287.514 501.218 286.947 498.781C286.471 496.732 286.185 494.99 285.824 492.441C285.456 489.838 285.23 488.231 284.926 485.369C284.399 480.417 284.113 477.732 284.027 474.397C283.931 470.741 284.105 467.517 284.337 465H290.802Z" fill="#5C5C5C"/>
<path d="M299.444 510C298.63 514.895 297.707 521.716 297.282 529.884C296.513 544.648 297.829 554.844 296.833 554.998C295.934 555.133 293.786 546.993 292.563 538.66C290.51 524.677 291.58 513.685 291.625 510H299.444ZM290.802 510C290.09 512.412 289.142 517.772 288.743 523.3C288.568 525.708 288.55 527.864 288.518 532.078C288.439 542.737 288.809 548.107 288.294 548.171C287.978 548.208 287.514 546.218 286.947 543.781C286.471 541.732 286.185 539.99 285.824 537.441C285.456 534.838 285.23 533.231 284.926 530.369C284.399 525.417 284.113 522.732 284.027 519.397C283.931 515.741 284.105 512.517 284.337 510H290.802Z" fill="#5C5C5C"/>
<path d="M299.444 420C298.63 424.895 297.707 431.716 297.282 439.884C296.513 454.648 297.829 464.844 296.833 464.998C295.934 465.133 293.786 456.993 292.563 448.66C290.51 434.677 291.58 423.685 291.625 420H299.444ZM290.802 420C290.09 422.412 289.142 427.772 288.743 433.3C288.568 435.708 288.55 437.864 288.518 442.078C288.439 452.737 288.809 458.107 288.294 458.171C287.978 458.208 287.514 456.218 286.947 453.781C286.471 451.732 286.185 449.99 285.824 447.441C285.456 444.838 285.23 443.231 284.926 440.369C284.399 435.417 284.113 432.732 284.027 429.397C283.931 425.741 284.105 422.517 284.337 420H290.802Z" fill="#5C5C5C"/>
<path d="M327.444 555C326.63 559.895 325.707 566.716 325.282 574.884C324.513 589.648 325.829 599.844 324.833 599.998C323.934 600.133 321.786 591.993 320.563 583.66C318.51 569.677 319.58 558.685 319.625 555H327.444ZM318.802 555C318.09 557.412 317.142 562.772 316.743 568.3C316.568 570.708 316.55 572.864 316.518 577.078C316.439 587.737 316.809 593.107 316.294 593.171C315.978 593.208 315.514 591.218 314.947 588.781C314.471 586.732 314.185 584.99 313.824 582.441C313.456 579.838 313.23 578.231 312.926 575.369C312.399 570.417 312.113 567.732 312.027 564.397C311.931 560.741 312.105 557.517 312.337 555H318.802Z" fill="#5C5C5C"/>
<path d="M327.444 465C326.63 469.895 325.707 476.716 325.282 484.884C324.513 499.648 325.829 509.844 324.833 509.998C323.934 510.133 321.786 501.993 320.563 493.66C318.51 479.677 319.58 468.685 319.625 465H327.444ZM318.802 465C318.09 467.412 317.142 472.772 316.743 478.3C316.568 480.708 316.55 482.864 316.518 487.078C316.439 497.737 316.809 503.107 316.294 503.171C315.978 503.208 315.514 501.218 314.947 498.781C314.471 496.732 314.185 494.99 313.824 492.441C313.456 489.838 313.23 488.231 312.926 485.369C312.399 480.417 312.113 477.732 312.027 474.397C311.931 470.741 312.105 467.517 312.337 465H318.802Z" fill="#5C5C5C"/>
<path d="M327.444 510C326.63 514.895 325.707 521.716 325.282 529.884C324.513 544.648 325.829 554.844 324.833 554.998C323.934 555.133 321.786 546.993 320.563 538.66C318.51 524.677 319.58 513.685 319.625 510H327.444ZM318.802 510C318.09 512.412 317.142 517.772 316.743 523.3C316.568 525.708 316.55 527.864 316.518 532.078C316.439 542.737 316.809 548.107 316.294 548.171C315.978 548.208 315.514 546.218 314.947 543.781C314.471 541.732 314.185 539.99 313.824 537.441C313.456 534.838 313.23 533.231 312.926 530.369C312.399 525.417 312.113 522.732 312.027 519.397C311.931 515.741 312.105 512.517 312.337 510H318.802Z" fill="#5C5C5C"/>
<path d="M327.444 420C326.63 424.895 325.707 431.716 325.282 439.884C324.513 454.648 325.829 464.844 324.833 464.998C323.934 465.133 321.786 456.993 320.563 448.66C318.51 434.677 319.58 423.685 319.625 420H327.444ZM318.802 420C318.09 422.412 317.142 427.772 316.743 433.3C316.568 435.708 316.55 437.864 316.518 442.078C316.439 452.737 316.809 458.107 316.294 458.171C315.978 458.208 315.514 456.218 314.947 453.781C314.471 451.732 314.185 449.99 313.824 447.441C313.456 444.838 313.23 443.231 312.926 440.369C312.399 435.417 312.113 432.732 312.027 429.397C311.931 425.741 312.105 422.517 312.337 420H318.802Z" fill="#5C5C5C"/>
</svg>
