<svg width="500" height="600" viewBox="0 0 500 600" fill="none" xmlns="http://www.w3.org/2000/svg">
<path d="M187.444 503C186.63 507.895 185.707 514.716 185.282 522.884C184.513 537.648 185.829 547.844 184.833 547.998C183.934 548.133 181.786 539.993 180.563 531.66C178.51 517.677 179.58 506.685 179.625 503H187.444ZM178.802 503C178.09 505.412 177.142 510.772 176.743 516.3C176.568 518.708 176.55 520.864 176.518 525.078C176.439 535.737 176.809 541.107 176.294 541.171C175.978 541.208 175.514 539.218 174.947 536.781C174.471 534.732 174.185 532.99 173.824 530.441C173.456 527.838 173.23 526.231 172.926 523.369C172.399 518.417 172.113 515.732 172.027 512.397C171.931 508.741 172.105 505.517 172.337 503H178.802Z" fill="#C2C2C2"/>
<path d="M187.444 413C186.63 417.895 185.707 424.716 185.282 432.884C184.513 447.648 185.829 457.844 184.833 457.998C183.934 458.133 181.786 449.993 180.563 441.66C178.51 427.677 179.58 416.685 179.625 413H187.444ZM178.802 413C178.09 415.412 177.142 420.772 176.743 426.3C176.568 428.708 176.55 430.864 176.518 435.078C176.439 445.737 176.809 451.107 176.294 451.171C175.978 451.208 175.514 449.218 174.947 446.781C174.471 444.732 174.185 442.99 173.824 440.441C173.456 437.838 173.23 436.231 172.926 433.369C172.399 428.417 172.113 425.732 172.027 422.397C171.931 418.741 172.105 415.517 172.337 413H178.802Z" fill="#C2C2C2"/>
<path d="M187.444 233C186.63 237.895 185.707 244.716 185.282 252.884C184.513 267.648 185.829 277.844 184.833 277.998C183.934 278.133 181.786 269.993 180.563 261.66C178.51 247.677 179.58 236.685 179.625 233H187.444ZM178.802 233C178.09 235.412 177.142 240.772 176.743 246.3C176.568 248.708 176.55 250.864 176.518 255.078C176.439 265.737 176.809 271.107 176.294 271.171C175.978 271.208 175.514 269.218 174.947 266.781C174.471 264.732 174.185 262.99 173.824 260.441C173.456 257.838 173.23 256.231 172.926 253.369C172.399 248.417 172.113 245.732 172.027 242.397C171.931 238.741 172.105 235.517 172.337 233H178.802Z" fill="#C2C2C2"/>
<path d="M187.444 323C186.63 327.895 185.707 334.716 185.282 342.884C184.513 357.648 185.829 367.844 184.833 367.998C183.934 368.133 181.786 359.993 180.563 351.66C178.51 337.677 179.58 326.685 179.625 323H187.444ZM178.802 323C178.09 325.412 177.142 330.772 176.743 336.3C176.568 338.708 176.55 340.864 176.518 345.078C176.439 355.737 176.809 361.107 176.294 361.171C175.978 361.208 175.514 359.218 174.947 356.781C174.471 354.732 174.185 352.99 173.824 350.441C173.456 347.838 173.23 346.231 172.926 343.369C172.399 338.417 172.113 335.732 172.027 332.397C171.931 328.741 172.105 325.517 172.337 323H178.802Z" fill="#C2C2C2"/>
<path d="M187.444 143C186.63 147.895 185.707 154.716 185.282 162.884C184.513 177.648 185.829 187.844 184.833 187.998C183.934 188.133 181.786 179.993 180.563 171.66C178.51 157.677 179.58 146.685 179.625 143H187.444ZM178.802 143C178.09 145.412 177.142 150.772 176.743 156.3C176.568 158.708 176.55 160.864 176.518 165.078C176.439 175.737 176.809 181.107 176.294 181.171C175.978 181.208 175.514 179.218 174.947 176.781C174.471 174.732 174.185 172.99 173.824 170.441C173.456 167.838 173.23 166.231 172.926 163.369C172.399 158.417 172.113 155.732 172.027 152.397C171.931 148.741 172.105 145.517 172.337 143H178.802Z" fill="#C2C2C2"/>
<path d="M187.444 458C186.63 462.895 185.707 469.716 185.282 477.884C184.513 492.648 185.829 502.844 184.833 502.998C183.934 503.133 181.786 494.993 180.563 486.66C178.51 472.677 179.58 461.685 179.625 458H187.444ZM178.802 458C178.09 460.412 177.142 465.772 176.743 471.3C176.568 473.708 176.55 475.864 176.518 480.078C176.439 490.737 176.809 496.107 176.294 496.171C175.978 496.208 175.514 494.218 174.947 491.781C174.471 489.732 174.185 487.99 173.824 485.441C173.456 482.838 173.23 481.231 172.926 478.369C172.399 473.417 172.113 470.732 172.027 467.397C171.931 463.741 172.105 460.517 172.337 458H178.802Z" fill="#C2C2C2"/>
<path d="M187.444 368C186.63 372.895 185.707 379.716 185.282 387.884C184.513 402.648 185.829 412.844 184.833 412.998C183.934 413.133 181.786 404.993 180.563 396.66C178.51 382.677 179.58 371.685 179.625 368H187.444ZM178.802 368C178.09 370.412 177.142 375.772 176.743 381.3C176.568 383.708 176.55 385.864 176.518 390.078C176.439 400.737 176.809 406.107 176.294 406.171C175.978 406.208 175.514 404.218 174.947 401.781C174.471 399.732 174.185 397.99 173.824 395.441C173.456 392.838 173.23 391.231 172.926 388.369C172.399 383.417 172.113 380.732 172.027 377.397C171.931 373.741 172.105 370.517 172.337 368H178.802Z" fill="#C2C2C2"/>
<path d="M187.444 188C186.63 192.895 185.707 199.716 185.282 207.884C184.513 222.648 185.829 232.844 184.833 232.998C183.934 233.133 181.786 224.993 180.563 216.66C178.51 202.677 179.58 191.685 179.625 188H187.444ZM178.802 188C178.09 190.412 177.142 195.772 176.743 201.3C176.568 203.708 176.55 205.864 176.518 210.078C176.439 220.737 176.809 226.107 176.294 226.171C175.978 226.208 175.514 224.218 174.947 221.781C174.471 219.732 174.185 217.99 173.824 215.441C173.456 212.838 173.23 211.231 172.926 208.369C172.399 203.417 172.113 200.732 172.027 197.397C171.931 193.741 172.105 190.517 172.337 188H178.802Z" fill="#C2C2C2"/>
<path d="M187.444 278C186.63 282.895 185.707 289.716 185.282 297.884C184.513 312.648 185.829 322.844 184.833 322.998C183.934 323.133 181.786 314.993 180.563 306.66C178.51 292.677 179.58 281.685 179.625 278H187.444ZM178.802 278C178.09 280.412 177.142 285.772 176.743 291.3C176.568 293.708 176.55 295.864 176.518 300.078C176.439 310.737 176.809 316.107 176.294 316.171C175.978 316.208 175.514 314.218 174.947 311.781C174.471 309.732 174.185 307.99 173.824 305.441C173.456 302.838 173.23 301.231 172.926 298.369C172.399 293.417 172.113 290.732 172.027 287.397C171.931 283.741 172.105 280.517 172.337 278H178.802Z" fill="#C2C2C2"/>
<path d="M187.444 98C186.63 102.895 185.707 109.716 185.282 117.884C184.513 132.648 185.829 142.844 184.833 142.998C183.934 143.133 181.786 134.993 180.563 126.66C178.51 112.677 179.58 101.685 179.625 98H187.444ZM178.802 98C178.09 100.412 177.142 105.772 176.743 111.3C176.568 113.708 176.55 115.864 176.518 120.078C176.439 130.737 176.809 136.107 176.294 136.171C175.978 136.208 175.514 134.218 174.947 131.781C174.471 129.732 174.185 127.99 173.824 125.441C173.456 122.838 173.23 121.231 172.926 118.369C172.399 113.417 172.113 110.732 172.027 107.397C171.931 103.741 172.105 100.517 172.337 98H178.802Z" fill="#C2C2C2"/>
<path d="M187.444 53C186.63 57.8953 185.707 64.7164 185.282 72.8838C184.513 87.648 185.829 97.8437 184.833 97.998C183.934 98.1333 181.786 89.9928 180.563 81.6602C178.51 67.6771 179.58 56.6852 179.625 53H187.444ZM178.802 53C178.09 55.4124 177.142 60.7717 176.743 66.2998C176.568 68.7077 176.55 70.8638 176.518 75.0781C176.439 85.7365 176.809 91.1073 176.294 91.1709C175.978 91.2076 175.514 89.2175 174.947 86.7812C174.471 84.7317 174.185 82.9902 173.824 80.4414C173.456 77.8382 173.23 76.2311 172.926 73.3691C172.399 68.4169 172.113 65.7316 172.027 62.3975C171.931 58.7414 172.105 55.5168 172.337 53H178.802Z" fill="#C2C2C2"/>
<path d="M215.444 503C214.63 507.895 213.707 514.716 213.282 522.884C212.513 537.648 213.829 547.844 212.833 547.998C211.934 548.133 209.786 539.993 208.563 531.66C206.51 517.677 207.58 506.685 207.625 503H215.444ZM206.802 503C206.09 505.412 205.142 510.772 204.743 516.3C204.568 518.708 204.55 520.864 204.518 525.078C204.439 535.737 204.809 541.107 204.294 541.171C203.978 541.208 203.514 539.218 202.947 536.781C202.471 534.732 202.185 532.99 201.824 530.441C201.456 527.838 201.23 526.231 200.926 523.369C200.399 518.417 200.113 515.732 200.027 512.397C199.931 508.741 200.105 505.517 200.337 503H206.802Z" fill="#C2C2C2"/>
<path d="M215.444 413C214.63 417.895 213.707 424.716 213.282 432.884C212.513 447.648 213.829 457.844 212.833 457.998C211.934 458.133 209.786 449.993 208.563 441.66C206.51 427.677 207.58 416.685 207.625 413H215.444ZM206.802 413C206.09 415.412 205.142 420.772 204.743 426.3C204.568 428.708 204.55 430.864 204.518 435.078C204.439 445.737 204.809 451.107 204.294 451.171C203.978 451.208 203.514 449.218 202.947 446.781C202.471 444.732 202.185 442.99 201.824 440.441C201.456 437.838 201.23 436.231 200.926 433.369C200.399 428.417 200.113 425.732 200.027 422.397C199.931 418.741 200.105 415.517 200.337 413H206.802Z" fill="#C2C2C2"/>
<path d="M215.444 233C214.63 237.895 213.707 244.716 213.282 252.884C212.513 267.648 213.829 277.844 212.833 277.998C211.934 278.133 209.786 269.993 208.563 261.66C206.51 247.677 207.58 236.685 207.625 233H215.444ZM206.802 233C206.09 235.412 205.142 240.772 204.743 246.3C204.568 248.708 204.55 250.864 204.518 255.078C204.439 265.737 204.809 271.107 204.294 271.171C203.978 271.208 203.514 269.218 202.947 266.781C202.471 264.732 202.185 262.99 201.824 260.441C201.456 257.838 201.23 256.231 200.926 253.369C200.399 248.417 200.113 245.732 200.027 242.397C199.931 238.741 200.105 235.517 200.337 233H206.802Z" fill="#C2C2C2"/>
<path d="M215.444 323C214.63 327.895 213.707 334.716 213.282 342.884C212.513 357.648 213.829 367.844 212.833 367.998C211.934 368.133 209.786 359.993 208.563 351.66C206.51 337.677 207.58 326.685 207.625 323H215.444ZM206.802 323C206.09 325.412 205.142 330.772 204.743 336.3C204.568 338.708 204.55 340.864 204.518 345.078C204.439 355.737 204.809 361.107 204.294 361.171C203.978 361.208 203.514 359.218 202.947 356.781C202.471 354.732 202.185 352.99 201.824 350.441C201.456 347.838 201.23 346.231 200.926 343.369C200.399 338.417 200.113 335.732 200.027 332.397C199.931 328.741 200.105 325.517 200.337 323H206.802Z" fill="#C2C2C2"/>
<path d="M215.444 143C214.63 147.895 213.707 154.716 213.282 162.884C212.513 177.648 213.829 187.844 212.833 187.998C211.934 188.133 209.786 179.993 208.563 171.66C206.51 157.677 207.58 146.685 207.625 143H215.444ZM206.802 143C206.09 145.412 205.142 150.772 204.743 156.3C204.568 158.708 204.55 160.864 204.518 165.078C204.439 175.737 204.809 181.107 204.294 181.171C203.978 181.208 203.514 179.218 202.947 176.781C202.471 174.732 202.185 172.99 201.824 170.441C201.456 167.838 201.23 166.231 200.926 163.369C200.399 158.417 200.113 155.732 200.027 152.397C199.931 148.741 200.105 145.517 200.337 143H206.802Z" fill="#C2C2C2"/>
<path d="M215.444 458C214.63 462.895 213.707 469.716 213.282 477.884C212.513 492.648 213.829 502.844 212.833 502.998C211.934 503.133 209.786 494.993 208.563 486.66C206.51 472.677 207.58 461.685 207.625 458H215.444ZM206.802 458C206.09 460.412 205.142 465.772 204.743 471.3C204.568 473.708 204.55 475.864 204.518 480.078C204.439 490.737 204.809 496.107 204.294 496.171C203.978 496.208 203.514 494.218 202.947 491.781C202.471 489.732 202.185 487.99 201.824 485.441C201.456 482.838 201.23 481.231 200.926 478.369C200.399 473.417 200.113 470.732 200.027 467.397C199.931 463.741 200.105 460.517 200.337 458H206.802Z" fill="#C2C2C2"/>
<path d="M215.444 368C214.63 372.895 213.707 379.716 213.282 387.884C212.513 402.648 213.829 412.844 212.833 412.998C211.934 413.133 209.786 404.993 208.563 396.66C206.51 382.677 207.58 371.685 207.625 368H215.444ZM206.802 368C206.09 370.412 205.142 375.772 204.743 381.3C204.568 383.708 204.55 385.864 204.518 390.078C204.439 400.737 204.809 406.107 204.294 406.171C203.978 406.208 203.514 404.218 202.947 401.781C202.471 399.732 202.185 397.99 201.824 395.441C201.456 392.838 201.23 391.231 200.926 388.369C200.399 383.417 200.113 380.732 200.027 377.397C199.931 373.741 200.105 370.517 200.337 368H206.802Z" fill="#C2C2C2"/>
<path d="M215.444 188C214.63 192.895 213.707 199.716 213.282 207.884C212.513 222.648 213.829 232.844 212.833 232.998C211.934 233.133 209.786 224.993 208.563 216.66C206.51 202.677 207.58 191.685 207.625 188H215.444ZM206.802 188C206.09 190.412 205.142 195.772 204.743 201.3C204.568 203.708 204.55 205.864 204.518 210.078C204.439 220.737 204.809 226.107 204.294 226.171C203.978 226.208 203.514 224.218 202.947 221.781C202.471 219.732 202.185 217.99 201.824 215.441C201.456 212.838 201.23 211.231 200.926 208.369C200.399 203.417 200.113 200.732 200.027 197.397C199.931 193.741 200.105 190.517 200.337 188H206.802Z" fill="#C2C2C2"/>
<path d="M215.444 278C214.63 282.895 213.707 289.716 213.282 297.884C212.513 312.648 213.829 322.844 212.833 322.998C211.934 323.133 209.786 314.993 208.563 306.66C206.51 292.677 207.58 281.685 207.625 278H215.444ZM206.802 278C206.09 280.412 205.142 285.772 204.743 291.3C204.568 293.708 204.55 295.864 204.518 300.078C204.439 310.737 204.809 316.107 204.294 316.171C203.978 316.208 203.514 314.218 202.947 311.781C202.471 309.732 202.185 307.99 201.824 305.441C201.456 302.838 201.23 301.231 200.926 298.369C200.399 293.417 200.113 290.732 200.027 287.397C199.931 283.741 200.105 280.517 200.337 278H206.802Z" fill="#C2C2C2"/>
<path d="M215.444 98C214.63 102.895 213.707 109.716 213.282 117.884C212.513 132.648 213.829 142.844 212.833 142.998C211.934 143.133 209.786 134.993 208.563 126.66C206.51 112.677 207.58 101.685 207.625 98H215.444ZM206.802 98C206.09 100.412 205.142 105.772 204.743 111.3C204.568 113.708 204.55 115.864 204.518 120.078C204.439 130.737 204.809 136.107 204.294 136.171C203.978 136.208 203.514 134.218 202.947 131.781C202.471 129.732 202.185 127.99 201.824 125.441C201.456 122.838 201.23 121.231 200.926 118.369C200.399 113.417 200.113 110.732 200.027 107.397C199.931 103.741 200.105 100.517 200.337 98H206.802Z" fill="#C2C2C2"/>
<path d="M215.444 53C214.63 57.8953 213.707 64.7164 213.282 72.8838C212.513 87.648 213.829 97.8437 212.833 97.998C211.934 98.1333 209.786 89.9928 208.563 81.6602C206.51 67.6771 207.58 56.6852 207.625 53H215.444ZM206.802 53C206.09 55.4124 205.142 60.7717 204.743 66.2998C204.568 68.7077 204.55 70.8638 204.518 75.0781C204.439 85.7365 204.809 91.1073 204.294 91.1709C203.978 91.2076 203.514 89.2175 202.947 86.7812C202.471 84.7317 202.185 82.9902 201.824 80.4414C201.456 77.8382 201.23 76.2311 200.926 73.3691C200.399 68.4169 200.113 65.7316 200.027 62.3975C199.931 58.7414 200.105 55.5168 200.337 53H206.802Z" fill="#C2C2C2"/>
<path d="M243.444 503C242.63 507.895 241.707 514.716 241.282 522.884C240.513 537.648 241.829 547.844 240.833 547.998C239.934 548.133 237.786 539.993 236.563 531.66C234.51 517.677 235.58 506.685 235.625 503H243.444ZM234.802 503C234.09 505.412 233.142 510.772 232.743 516.3C232.568 518.708 232.55 520.864 232.518 525.078C232.439 535.737 232.809 541.107 232.294 541.171C231.978 541.208 231.514 539.218 230.947 536.781C230.471 534.732 230.185 532.99 229.824 530.441C229.456 527.838 229.23 526.231 228.926 523.369C228.399 518.417 228.113 515.732 228.027 512.397C227.931 508.741 228.105 505.517 228.337 503H234.802Z" fill="#C2C2C2"/>
<path d="M243.444 413C242.63 417.895 241.707 424.716 241.282 432.884C240.513 447.648 241.829 457.844 240.833 457.998C239.934 458.133 237.786 449.993 236.563 441.66C234.51 427.677 235.58 416.685 235.625 413H243.444ZM234.802 413C234.09 415.412 233.142 420.772 232.743 426.3C232.568 428.708 232.55 430.864 232.518 435.078C232.439 445.737 232.809 451.107 232.294 451.171C231.978 451.208 231.514 449.218 230.947 446.781C230.471 444.732 230.185 442.99 229.824 440.441C229.456 437.838 229.23 436.231 228.926 433.369C228.399 428.417 228.113 425.732 228.027 422.397C227.931 418.741 228.105 415.517 228.337 413H234.802Z" fill="#C2C2C2"/>
<path d="M243.444 233C242.63 237.895 241.707 244.716 241.282 252.884C240.513 267.648 241.829 277.844 240.833 277.998C239.934 278.133 237.786 269.993 236.563 261.66C234.51 247.677 235.58 236.685 235.625 233H243.444ZM234.802 233C234.09 235.412 233.142 240.772 232.743 246.3C232.568 248.708 232.55 250.864 232.518 255.078C232.439 265.737 232.809 271.107 232.294 271.171C231.978 271.208 231.514 269.218 230.947 266.781C230.471 264.732 230.185 262.99 229.824 260.441C229.456 257.838 229.23 256.231 228.926 253.369C228.399 248.417 228.113 245.732 228.027 242.397C227.931 238.741 228.105 235.517 228.337 233H234.802Z" fill="#C2C2C2"/>
<path d="M243.444 323C242.63 327.895 241.707 334.716 241.282 342.884C240.513 357.648 241.829 367.844 240.833 367.998C239.934 368.133 237.786 359.993 236.563 351.66C234.51 337.677 235.58 326.685 235.625 323H243.444ZM234.802 323C234.09 325.412 233.142 330.772 232.743 336.3C232.568 338.708 232.55 340.864 232.518 345.078C232.439 355.737 232.809 361.107 232.294 361.171C231.978 361.208 231.514 359.218 230.947 356.781C230.471 354.732 230.185 352.99 229.824 350.441C229.456 347.838 229.23 346.231 228.926 343.369C228.399 338.417 228.113 335.732 228.027 332.397C227.931 328.741 228.105 325.517 228.337 323H234.802Z" fill="#C2C2C2"/>
<path d="M243.444 143C242.63 147.895 241.707 154.716 241.282 162.884C240.513 177.648 241.829 187.844 240.833 187.998C239.934 188.133 237.786 179.993 236.563 171.66C234.51 157.677 235.58 146.685 235.625 143H243.444ZM234.802 143C234.09 145.412 233.142 150.772 232.743 156.3C232.568 158.708 232.55 160.864 232.518 165.078C232.439 175.737 232.809 181.107 232.294 181.171C231.978 181.208 231.514 179.218 230.947 176.781C230.471 174.732 230.185 172.99 229.824 170.441C229.456 167.838 229.23 166.231 228.926 163.369C228.399 158.417 228.113 155.732 228.027 152.397C227.931 148.741 228.105 145.517 228.337 143H234.802Z" fill="#C2C2C2"/>
<path d="M243.444 458C242.63 462.895 241.707 469.716 241.282 477.884C240.513 492.648 241.829 502.844 240.833 502.998C239.934 503.133 237.786 494.993 236.563 486.66C234.51 472.677 235.58 461.685 235.625 458H243.444ZM234.802 458C234.09 460.412 233.142 465.772 232.743 471.3C232.568 473.708 232.55 475.864 232.518 480.078C232.439 490.737 232.809 496.107 232.294 496.171C231.978 496.208 231.514 494.218 230.947 491.781C230.471 489.732 230.185 487.99 229.824 485.441C229.456 482.838 229.23 481.231 228.926 478.369C228.399 473.417 228.113 470.732 228.027 467.397C227.931 463.741 228.105 460.517 228.337 458H234.802Z" fill="#C2C2C2"/>
<path d="M243.444 368C242.63 372.895 241.707 379.716 241.282 387.884C240.513 402.648 241.829 412.844 240.833 412.998C239.934 413.133 237.786 404.993 236.563 396.66C234.51 382.677 235.58 371.685 235.625 368H243.444ZM234.802 368C234.09 370.412 233.142 375.772 232.743 381.3C232.568 383.708 232.55 385.864 232.518 390.078C232.439 400.737 232.809 406.107 232.294 406.171C231.978 406.208 231.514 404.218 230.947 401.781C230.471 399.732 230.185 397.99 229.824 395.441C229.456 392.838 229.23 391.231 228.926 388.369C228.399 383.417 228.113 380.732 228.027 377.397C227.931 373.741 228.105 370.517 228.337 368H234.802Z" fill="#C2C2C2"/>
<path d="M243.444 188C242.63 192.895 241.707 199.716 241.282 207.884C240.513 222.648 241.829 232.844 240.833 232.998C239.934 233.133 237.786 224.993 236.563 216.66C234.51 202.677 235.58 191.685 235.625 188H243.444ZM234.802 188C234.09 190.412 233.142 195.772 232.743 201.3C232.568 203.708 232.55 205.864 232.518 210.078C232.439 220.737 232.809 226.107 232.294 226.171C231.978 226.208 231.514 224.218 230.947 221.781C230.471 219.732 230.185 217.99 229.824 215.441C229.456 212.838 229.23 211.231 228.926 208.369C228.399 203.417 228.113 200.732 228.027 197.397C227.931 193.741 228.105 190.517 228.337 188H234.802Z" fill="#C2C2C2"/>
<path d="M243.444 278C242.63 282.895 241.707 289.716 241.282 297.884C240.513 312.648 241.829 322.844 240.833 322.998C239.934 323.133 237.786 314.993 236.563 306.66C234.51 292.677 235.58 281.685 235.625 278H243.444ZM234.802 278C234.09 280.412 233.142 285.772 232.743 291.3C232.568 293.708 232.55 295.864 232.518 300.078C232.439 310.737 232.809 316.107 232.294 316.171C231.978 316.208 231.514 314.218 230.947 311.781C230.471 309.732 230.185 307.99 229.824 305.441C229.456 302.838 229.23 301.231 228.926 298.369C228.399 293.417 228.113 290.732 228.027 287.397C227.931 283.741 228.105 280.517 228.337 278H234.802Z" fill="#C2C2C2"/>
<path d="M243.444 98C242.63 102.895 241.707 109.716 241.282 117.884C240.513 132.648 241.829 142.844 240.833 142.998C239.934 143.133 237.786 134.993 236.563 126.66C234.51 112.677 235.58 101.685 235.625 98H243.444ZM234.802 98C234.09 100.412 233.142 105.772 232.743 111.3C232.568 113.708 232.55 115.864 232.518 120.078C232.439 130.737 232.809 136.107 232.294 136.171C231.978 136.208 231.514 134.218 230.947 131.781C230.471 129.732 230.185 127.99 229.824 125.441C229.456 122.838 229.23 121.231 228.926 118.369C228.399 113.417 228.113 110.732 228.027 107.397C227.931 103.741 228.105 100.517 228.337 98H234.802Z" fill="#C2C2C2"/>
<path d="M243.444 53C242.63 57.8953 241.707 64.7164 241.282 72.8838C240.513 87.648 241.829 97.8437 240.833 97.998C239.934 98.1333 237.786 89.9928 236.563 81.6602C234.51 67.6771 235.58 56.6852 235.625 53H243.444ZM234.802 53C234.09 55.4124 233.142 60.7717 232.743 66.2998C232.568 68.7077 232.55 70.8638 232.518 75.0781C232.439 85.7365 232.809 91.1073 232.294 91.1709C231.978 91.2076 231.514 89.2175 230.947 86.7812C230.471 84.7317 230.185 82.9902 229.824 80.4414C229.456 77.8382 229.23 76.2311 228.926 73.3691C228.399 68.4169 228.113 65.7316 228.027 62.3975C227.931 58.7414 228.105 55.5168 228.337 53H234.802Z" fill="#C2C2C2"/>
<path d="M271.444 503C270.63 507.895 269.707 514.716 269.282 522.884C268.513 537.648 269.829 547.844 268.833 547.998C267.934 548.133 265.786 539.993 264.563 531.66C262.51 517.677 263.58 506.685 263.625 503H271.444ZM262.802 503C262.09 505.412 261.142 510.772 260.743 516.3C260.568 518.708 260.55 520.864 260.518 525.078C260.439 535.737 260.809 541.107 260.294 541.171C259.978 541.208 259.514 539.218 258.947 536.781C258.471 534.732 258.185 532.99 257.824 530.441C257.456 527.838 257.23 526.231 256.926 523.369C256.399 518.417 256.113 515.732 256.027 512.397C255.931 508.741 256.105 505.517 256.337 503H262.802Z" fill="#C2C2C2"/>
<path d="M271.444 413C270.63 417.895 269.707 424.716 269.282 432.884C268.513 447.648 269.829 457.844 268.833 457.998C267.934 458.133 265.786 449.993 264.563 441.66C262.51 427.677 263.58 416.685 263.625 413H271.444ZM262.802 413C262.09 415.412 261.142 420.772 260.743 426.3C260.568 428.708 260.55 430.864 260.518 435.078C260.439 445.737 260.809 451.107 260.294 451.171C259.978 451.208 259.514 449.218 258.947 446.781C258.471 444.732 258.185 442.99 257.824 440.441C257.456 437.838 257.23 436.231 256.926 433.369C256.399 428.417 256.113 425.732 256.027 422.397C255.931 418.741 256.105 415.517 256.337 413H262.802Z" fill="#C2C2C2"/>
<path d="M271.444 233C270.63 237.895 269.707 244.716 269.282 252.884C268.513 267.648 269.829 277.844 268.833 277.998C267.934 278.133 265.786 269.993 264.563 261.66C262.51 247.677 263.58 236.685 263.625 233H271.444ZM262.802 233C262.09 235.412 261.142 240.772 260.743 246.3C260.568 248.708 260.55 250.864 260.518 255.078C260.439 265.737 260.809 271.107 260.294 271.171C259.978 271.208 259.514 269.218 258.947 266.781C258.471 264.732 258.185 262.99 257.824 260.441C257.456 257.838 257.23 256.231 256.926 253.369C256.399 248.417 256.113 245.732 256.027 242.397C255.931 238.741 256.105 235.517 256.337 233H262.802Z" fill="#C2C2C2"/>
<path d="M271.444 323C270.63 327.895 269.707 334.716 269.282 342.884C268.513 357.648 269.829 367.844 268.833 367.998C267.934 368.133 265.786 359.993 264.563 351.66C262.51 337.677 263.58 326.685 263.625 323H271.444ZM262.802 323C262.09 325.412 261.142 330.772 260.743 336.3C260.568 338.708 260.55 340.864 260.518 345.078C260.439 355.737 260.809 361.107 260.294 361.171C259.978 361.208 259.514 359.218 258.947 356.781C258.471 354.732 258.185 352.99 257.824 350.441C257.456 347.838 257.23 346.231 256.926 343.369C256.399 338.417 256.113 335.732 256.027 332.397C255.931 328.741 256.105 325.517 256.337 323H262.802Z" fill="#C2C2C2"/>
<path d="M271.444 143C270.63 147.895 269.707 154.716 269.282 162.884C268.513 177.648 269.829 187.844 268.833 187.998C267.934 188.133 265.786 179.993 264.563 171.66C262.51 157.677 263.58 146.685 263.625 143H271.444ZM262.802 143C262.09 145.412 261.142 150.772 260.743 156.3C260.568 158.708 260.55 160.864 260.518 165.078C260.439 175.737 260.809 181.107 260.294 181.171C259.978 181.208 259.514 179.218 258.947 176.781C258.471 174.732 258.185 172.99 257.824 170.441C257.456 167.838 257.23 166.231 256.926 163.369C256.399 158.417 256.113 155.732 256.027 152.397C255.931 148.741 256.105 145.517 256.337 143H262.802Z" fill="#C2C2C2"/>
<path d="M271.444 458C270.63 462.895 269.707 469.716 269.282 477.884C268.513 492.648 269.829 502.844 268.833 502.998C267.934 503.133 265.786 494.993 264.563 486.66C262.51 472.677 263.58 461.685 263.625 458H271.444ZM262.802 458C262.09 460.412 261.142 465.772 260.743 471.3C260.568 473.708 260.55 475.864 260.518 480.078C260.439 490.737 260.809 496.107 260.294 496.171C259.978 496.208 259.514 494.218 258.947 491.781C258.471 489.732 258.185 487.99 257.824 485.441C257.456 482.838 257.23 481.231 256.926 478.369C256.399 473.417 256.113 470.732 256.027 467.397C255.931 463.741 256.105 460.517 256.337 458H262.802Z" fill="#C2C2C2"/>
<path d="M271.444 368C270.63 372.895 269.707 379.716 269.282 387.884C268.513 402.648 269.829 412.844 268.833 412.998C267.934 413.133 265.786 404.993 264.563 396.66C262.51 382.677 263.58 371.685 263.625 368H271.444ZM262.802 368C262.09 370.412 261.142 375.772 260.743 381.3C260.568 383.708 260.55 385.864 260.518 390.078C260.439 400.737 260.809 406.107 260.294 406.171C259.978 406.208 259.514 404.218 258.947 401.781C258.471 399.732 258.185 397.99 257.824 395.441C257.456 392.838 257.23 391.231 256.926 388.369C256.399 383.417 256.113 380.732 256.027 377.397C255.931 373.741 256.105 370.517 256.337 368H262.802Z" fill="#C2C2C2"/>
<path d="M271.444 188C270.63 192.895 269.707 199.716 269.282 207.884C268.513 222.648 269.829 232.844 268.833 232.998C267.934 233.133 265.786 224.993 264.563 216.66C262.51 202.677 263.58 191.685 263.625 188H271.444ZM262.802 188C262.09 190.412 261.142 195.772 260.743 201.3C260.568 203.708 260.55 205.864 260.518 210.078C260.439 220.737 260.809 226.107 260.294 226.171C259.978 226.208 259.514 224.218 258.947 221.781C258.471 219.732 258.185 217.99 257.824 215.441C257.456 212.838 257.23 211.231 256.926 208.369C256.399 203.417 256.113 200.732 256.027 197.397C255.931 193.741 256.105 190.517 256.337 188H262.802Z" fill="#C2C2C2"/>
<path d="M271.444 278C270.63 282.895 269.707 289.716 269.282 297.884C268.513 312.648 269.829 322.844 268.833 322.998C267.934 323.133 265.786 314.993 264.563 306.66C262.51 292.677 263.58 281.685 263.625 278H271.444ZM262.802 278C262.09 280.412 261.142 285.772 260.743 291.3C260.568 293.708 260.55 295.864 260.518 300.078C260.439 310.737 260.809 316.107 260.294 316.171C259.978 316.208 259.514 314.218 258.947 311.781C258.471 309.732 258.185 307.99 257.824 305.441C257.456 302.838 257.23 301.231 256.926 298.369C256.399 293.417 256.113 290.732 256.027 287.397C255.931 283.741 256.105 280.517 256.337 278H262.802Z" fill="#C2C2C2"/>
<path d="M271.444 98C270.63 102.895 269.707 109.716 269.282 117.884C268.513 132.648 269.829 142.844 268.833 142.998C267.934 143.133 265.786 134.993 264.563 126.66C262.51 112.677 263.58 101.685 263.625 98H271.444ZM262.802 98C262.09 100.412 261.142 105.772 260.743 111.3C260.568 113.708 260.55 115.864 260.518 120.078C260.439 130.737 260.809 136.107 260.294 136.171C259.978 136.208 259.514 134.218 258.947 131.781C258.471 129.732 258.185 127.99 257.824 125.441C257.456 122.838 257.23 121.231 256.926 118.369C256.399 113.417 256.113 110.732 256.027 107.397C255.931 103.741 256.105 100.517 256.337 98H262.802Z" fill="#C2C2C2"/>
<path d="M271.444 53C270.63 57.8953 269.707 64.7164 269.282 72.8838C268.513 87.648 269.829 97.8437 268.833 97.998C267.934 98.1333 265.786 89.9928 264.563 81.6602C262.51 67.6771 263.58 56.6852 263.625 53H271.444ZM262.802 53C262.09 55.4124 261.142 60.7717 260.743 66.2998C260.568 68.7077 260.55 70.8638 260.518 75.0781C260.439 85.7365 260.809 91.1073 260.294 91.1709C259.978 91.2076 259.514 89.2175 258.947 86.7812C258.471 84.7317 258.185 82.9902 257.824 80.4414C257.456 77.8382 257.23 76.2311 256.926 73.3691C256.399 68.4169 256.113 65.7316 256.027 62.3975C255.931 58.7414 256.105 55.5168 256.337 53H262.802Z" fill="#C2C2C2"/>
<path d="M299.444 503C298.63 507.895 297.707 514.716 297.282 522.884C296.513 537.648 297.829 547.844 296.833 547.998C295.934 548.133 293.786 539.993 292.563 531.66C290.51 517.677 291.58 506.685 291.625 503H299.444ZM290.802 503C290.09 505.412 289.142 510.772 288.743 516.3C288.568 518.708 288.55 520.864 288.518 525.078C288.439 535.737 288.809 541.107 288.294 541.171C287.978 541.208 287.514 539.218 286.947 536.781C286.471 534.732 286.185 532.99 285.824 530.441C285.456 527.838 285.23 526.231 284.926 523.369C284.399 518.417 284.113 515.732 284.027 512.397C283.931 508.741 284.105 505.517 284.337 503H290.802Z" fill="#C2C2C2"/>
<path d="M299.444 413C298.63 417.895 297.707 424.716 297.282 432.884C296.513 447.648 297.829 457.844 296.833 457.998C295.934 458.133 293.786 449.993 292.563 441.66C290.51 427.677 291.58 416.685 291.625 413H299.444ZM290.802 413C290.09 415.412 289.142 420.772 288.743 426.3C288.568 428.708 288.55 430.864 288.518 435.078C288.439 445.737 288.809 451.107 288.294 451.171C287.978 451.208 287.514 449.218 286.947 446.781C286.471 444.732 286.185 442.99 285.824 440.441C285.456 437.838 285.23 436.231 284.926 433.369C284.399 428.417 284.113 425.732 284.027 422.397C283.931 418.741 284.105 415.517 284.337 413H290.802Z" fill="#C2C2C2"/>
<path d="M299.444 233C298.63 237.895 297.707 244.716 297.282 252.884C296.513 267.648 297.829 277.844 296.833 277.998C295.934 278.133 293.786 269.993 292.563 261.66C290.51 247.677 291.58 236.685 291.625 233H299.444ZM290.802 233C290.09 235.412 289.142 240.772 288.743 246.3C288.568 248.708 288.55 250.864 288.518 255.078C288.439 265.737 288.809 271.107 288.294 271.171C287.978 271.208 287.514 269.218 286.947 266.781C286.471 264.732 286.185 262.99 285.824 260.441C285.456 257.838 285.23 256.231 284.926 253.369C284.399 248.417 284.113 245.732 284.027 242.397C283.931 238.741 284.105 235.517 284.337 233H290.802Z" fill="#C2C2C2"/>
<path d="M299.444 323C298.63 327.895 297.707 334.716 297.282 342.884C296.513 357.648 297.829 367.844 296.833 367.998C295.934 368.133 293.786 359.993 292.563 351.66C290.51 337.677 291.58 326.685 291.625 323H299.444ZM290.802 323C290.09 325.412 289.142 330.772 288.743 336.3C288.568 338.708 288.55 340.864 288.518 345.078C288.439 355.737 288.809 361.107 288.294 361.171C287.978 361.208 287.514 359.218 286.947 356.781C286.471 354.732 286.185 352.99 285.824 350.441C285.456 347.838 285.23 346.231 284.926 343.369C284.399 338.417 284.113 335.732 284.027 332.397C283.931 328.741 284.105 325.517 284.337 323H290.802Z" fill="#C2C2C2"/>
<path d="M299.444 143C298.63 147.895 297.707 154.716 297.282 162.884C296.513 177.648 297.829 187.844 296.833 187.998C295.934 188.133 293.786 179.993 292.563 171.66C290.51 157.677 291.58 146.685 291.625 143H299.444ZM290.802 143C290.09 145.412 289.142 150.772 288.743 156.3C288.568 158.708 288.55 160.864 288.518 165.078C288.439 175.737 288.809 181.107 288.294 181.171C287.978 181.208 287.514 179.218 286.947 176.781C286.471 174.732 286.185 172.99 285.824 170.441C285.456 167.838 285.23 166.231 284.926 163.369C284.399 158.417 284.113 155.732 284.027 152.397C283.931 148.741 284.105 145.517 284.337 143H290.802Z" fill="#C2C2C2"/>
<path d="M299.444 458C298.63 462.895 297.707 469.716 297.282 477.884C296.513 492.648 297.829 502.844 296.833 502.998C295.934 503.133 293.786 494.993 292.563 486.66C290.51 472.677 291.58 461.685 291.625 458H299.444ZM290.802 458C290.09 460.412 289.142 465.772 288.743 471.3C288.568 473.708 288.55 475.864 288.518 480.078C288.439 490.737 288.809 496.107 288.294 496.171C287.978 496.208 287.514 494.218 286.947 491.781C286.471 489.732 286.185 487.99 285.824 485.441C285.456 482.838 285.23 481.231 284.926 478.369C284.399 473.417 284.113 470.732 284.027 467.397C283.931 463.741 284.105 460.517 284.337 458H290.802Z" fill="#C2C2C2"/>
<path d="M299.444 368C298.63 372.895 297.707 379.716 297.282 387.884C296.513 402.648 297.829 412.844 296.833 412.998C295.934 413.133 293.786 404.993 292.563 396.66C290.51 382.677 291.58 371.685 291.625 368H299.444ZM290.802 368C290.09 370.412 289.142 375.772 288.743 381.3C288.568 383.708 288.55 385.864 288.518 390.078C288.439 400.737 288.809 406.107 288.294 406.171C287.978 406.208 287.514 404.218 286.947 401.781C286.471 399.732 286.185 397.99 285.824 395.441C285.456 392.838 285.23 391.231 284.926 388.369C284.399 383.417 284.113 380.732 284.027 377.397C283.931 373.741 284.105 370.517 284.337 368H290.802Z" fill="#C2C2C2"/>
<path d="M299.444 188C298.63 192.895 297.707 199.716 297.282 207.884C296.513 222.648 297.829 232.844 296.833 232.998C295.934 233.133 293.786 224.993 292.563 216.66C290.51 202.677 291.58 191.685 291.625 188H299.444ZM290.802 188C290.09 190.412 289.142 195.772 288.743 201.3C288.568 203.708 288.55 205.864 288.518 210.078C288.439 220.737 288.809 226.107 288.294 226.171C287.978 226.208 287.514 224.218 286.947 221.781C286.471 219.732 286.185 217.99 285.824 215.441C285.456 212.838 285.23 211.231 284.926 208.369C284.399 203.417 284.113 200.732 284.027 197.397C283.931 193.741 284.105 190.517 284.337 188H290.802Z" fill="#C2C2C2"/>
<path d="M299.444 278C298.63 282.895 297.707 289.716 297.282 297.884C296.513 312.648 297.829 322.844 296.833 322.998C295.934 323.133 293.786 314.993 292.563 306.66C290.51 292.677 291.58 281.685 291.625 278H299.444ZM290.802 278C290.09 280.412 289.142 285.772 288.743 291.3C288.568 293.708 288.55 295.864 288.518 300.078C288.439 310.737 288.809 316.107 288.294 316.171C287.978 316.208 287.514 314.218 286.947 311.781C286.471 309.732 286.185 307.99 285.824 305.441C285.456 302.838 285.23 301.231 284.926 298.369C284.399 293.417 284.113 290.732 284.027 287.397C283.931 283.741 284.105 280.517 284.337 278H290.802Z" fill="#C2C2C2"/>
<path d="M299.444 98C298.63 102.895 297.707 109.716 297.282 117.884C296.513 132.648 297.829 142.844 296.833 142.998C295.934 143.133 293.786 134.993 292.563 126.66C290.51 112.677 291.58 101.685 291.625 98H299.444ZM290.802 98C290.09 100.412 289.142 105.772 288.743 111.3C288.568 113.708 288.55 115.864 288.518 120.078C288.439 130.737 288.809 136.107 288.294 136.171C287.978 136.208 287.514 134.218 286.947 131.781C286.471 129.732 286.185 127.99 285.824 125.441C285.456 122.838 285.23 121.231 284.926 118.369C284.399 113.417 284.113 110.732 284.027 107.397C283.931 103.741 284.105 100.517 284.337 98H290.802Z" fill="#C2C2C2"/>
<path d="M299.444 53C298.63 57.8953 297.707 64.7164 297.282 72.8838C296.513 87.648 297.829 97.8437 296.833 97.998C295.934 98.1333 293.786 89.9928 292.563 81.6602C290.51 67.6771 291.58 56.6852 291.625 53H299.444ZM290.802 53C290.09 55.4124 289.142 60.7717 288.743 66.2998C288.568 68.7077 288.55 70.8638 288.518 75.0781C288.439 85.7365 288.809 91.1073 288.294 91.1709C287.978 91.2076 287.514 89.2175 286.947 86.7812C286.471 84.7317 286.185 82.9902 285.824 80.4414C285.456 77.8382 285.23 76.2311 284.926 73.3691C284.399 68.4169 284.113 65.7316 284.027 62.3975C283.931 58.7414 284.105 55.5168 284.337 53H290.802Z" fill="#C2C2C2"/>
<path d="M327.444 503C326.63 507.895 325.707 514.716 325.282 522.884C324.513 537.648 325.829 547.844 324.833 547.998C323.934 548.133 321.786 539.993 320.563 531.66C318.51 517.677 319.58 506.685 319.625 503H327.444ZM318.802 503C318.09 505.412 317.142 510.772 316.743 516.3C316.568 518.708 316.55 520.864 316.518 525.078C316.439 535.737 316.809 541.107 316.294 541.171C315.978 541.208 315.514 539.218 314.947 536.781C314.471 534.732 314.185 532.99 313.824 530.441C313.456 527.838 313.23 526.231 312.926 523.369C312.399 518.417 312.113 515.732 312.027 512.397C311.931 508.741 312.105 505.517 312.337 503H318.802Z" fill="#C2C2C2"/>
<path d="M327.444 413C326.63 417.895 325.707 424.716 325.282 432.884C324.513 447.648 325.829 457.844 324.833 457.998C323.934 458.133 321.786 449.993 320.563 441.66C318.51 427.677 319.58 416.685 319.625 413H327.444ZM318.802 413C318.09 415.412 317.142 420.772 316.743 426.3C316.568 428.708 316.55 430.864 316.518 435.078C316.439 445.737 316.809 451.107 316.294 451.171C315.978 451.208 315.514 449.218 314.947 446.781C314.471 444.732 314.185 442.99 313.824 440.441C313.456 437.838 313.23 436.231 312.926 433.369C312.399 428.417 312.113 425.732 312.027 422.397C311.931 418.741 312.105 415.517 312.337 413H318.802Z" fill="#C2C2C2"/>
<path d="M327.444 233C326.63 237.895 325.707 244.716 325.282 252.884C324.513 267.648 325.829 277.844 324.833 277.998C323.934 278.133 321.786 269.993 320.563 261.66C318.51 247.677 319.58 236.685 319.625 233H327.444ZM318.802 233C318.09 235.412 317.142 240.772 316.743 246.3C316.568 248.708 316.55 250.864 316.518 255.078C316.439 265.737 316.809 271.107 316.294 271.171C315.978 271.208 315.514 269.218 314.947 266.781C314.471 264.732 314.185 262.99 313.824 260.441C313.456 257.838 313.23 256.231 312.926 253.369C312.399 248.417 312.113 245.732 312.027 242.397C311.931 238.741 312.105 235.517 312.337 233H318.802Z" fill="#C2C2C2"/>
<path d="M327.444 323C326.63 327.895 325.707 334.716 325.282 342.884C324.513 357.648 325.829 367.844 324.833 367.998C323.934 368.133 321.786 359.993 320.563 351.66C318.51 337.677 319.58 326.685 319.625 323H327.444ZM318.802 323C318.09 325.412 317.142 330.772 316.743 336.3C316.568 338.708 316.55 340.864 316.518 345.078C316.439 355.737 316.809 361.107 316.294 361.171C315.978 361.208 315.514 359.218 314.947 356.781C314.471 354.732 314.185 352.99 313.824 350.441C313.456 347.838 313.23 346.231 312.926 343.369C312.399 338.417 312.113 335.732 312.027 332.397C311.931 328.741 312.105 325.517 312.337 323H318.802Z" fill="#C2C2C2"/>
<path d="M327.444 143C326.63 147.895 325.707 154.716 325.282 162.884C324.513 177.648 325.829 187.844 324.833 187.998C323.934 188.133 321.786 179.993 320.563 171.66C318.51 157.677 319.58 146.685 319.625 143H327.444ZM318.802 143C318.09 145.412 317.142 150.772 316.743 156.3C316.568 158.708 316.55 160.864 316.518 165.078C316.439 175.737 316.809 181.107 316.294 181.171C315.978 181.208 315.514 179.218 314.947 176.781C314.471 174.732 314.185 172.99 313.824 170.441C313.456 167.838 313.23 166.231 312.926 163.369C312.399 158.417 312.113 155.732 312.027 152.397C311.931 148.741 312.105 145.517 312.337 143H318.802Z" fill="#C2C2C2"/>
<path d="M327.444 458C326.63 462.895 325.707 469.716 325.282 477.884C324.513 492.648 325.829 502.844 324.833 502.998C323.934 503.133 321.786 494.993 320.563 486.66C318.51 472.677 319.58 461.685 319.625 458H327.444ZM318.802 458C318.09 460.412 317.142 465.772 316.743 471.3C316.568 473.708 316.55 475.864 316.518 480.078C316.439 490.737 316.809 496.107 316.294 496.171C315.978 496.208 315.514 494.218 314.947 491.781C314.471 489.732 314.185 487.99 313.824 485.441C313.456 482.838 313.23 481.231 312.926 478.369C312.399 473.417 312.113 470.732 312.027 467.397C311.931 463.741 312.105 460.517 312.337 458H318.802Z" fill="#C2C2C2"/>
<path d="M327.444 368C326.63 372.895 325.707 379.716 325.282 387.884C324.513 402.648 325.829 412.844 324.833 412.998C323.934 413.133 321.786 404.993 320.563 396.66C318.51 382.677 319.58 371.685 319.625 368H327.444ZM318.802 368C318.09 370.412 317.142 375.772 316.743 381.3C316.568 383.708 316.55 385.864 316.518 390.078C316.439 400.737 316.809 406.107 316.294 406.171C315.978 406.208 315.514 404.218 314.947 401.781C314.471 399.732 314.185 397.99 313.824 395.441C313.456 392.838 313.23 391.231 312.926 388.369C312.399 383.417 312.113 380.732 312.027 377.397C311.931 373.741 312.105 370.517 312.337 368H318.802Z" fill="#C2C2C2"/>
<path d="M327.444 188C326.63 192.895 325.707 199.716 325.282 207.884C324.513 222.648 325.829 232.844 324.833 232.998C323.934 233.133 321.786 224.993 320.563 216.66C318.51 202.677 319.58 191.685 319.625 188H327.444ZM318.802 188C318.09 190.412 317.142 195.772 316.743 201.3C316.568 203.708 316.55 205.864 316.518 210.078C316.439 220.737 316.809 226.107 316.294 226.171C315.978 226.208 315.514 224.218 314.947 221.781C314.471 219.732 314.185 217.99 313.824 215.441C313.456 212.838 313.23 211.231 312.926 208.369C312.399 203.417 312.113 200.732 312.027 197.397C311.931 193.741 312.105 190.517 312.337 188H318.802Z" fill="#C2C2C2"/>
<path d="M327.444 278C326.63 282.895 325.707 289.716 325.282 297.884C324.513 312.648 325.829 322.844 324.833 322.998C323.934 323.133 321.786 314.993 320.563 306.66C318.51 292.677 319.58 281.685 319.625 278H327.444ZM318.802 278C318.09 280.412 317.142 285.772 316.743 291.3C316.568 293.708 316.55 295.864 316.518 300.078C316.439 310.737 316.809 316.107 316.294 316.171C315.978 316.208 315.514 314.218 314.947 311.781C314.471 309.732 314.185 307.99 313.824 305.441C313.456 302.838 313.23 301.231 312.926 298.369C312.399 293.417 312.113 290.732 312.027 287.397C311.931 283.741 312.105 280.517 312.337 278H318.802Z" fill="#C2C2C2"/>
<path d="M327.444 98C326.63 102.895 325.707 109.716 325.282 117.884C324.513 132.648 325.829 142.844 324.833 142.998C323.934 143.133 321.786 134.993 320.563 126.66C318.51 112.677 319.58 101.685 319.625 98H327.444ZM318.802 98C318.09 100.412 317.142 105.772 316.743 111.3C316.568 113.708 316.55 115.864 316.518 120.078C316.439 130.737 316.809 136.107 316.294 136.171C315.978 136.208 315.514 134.218 314.947 131.781C314.471 129.732 314.185 127.99 313.824 125.441C313.456 122.838 313.23 121.231 312.926 118.369C312.399 113.417 312.113 110.732 312.027 107.397C311.931 103.741 312.105 100.517 312.337 98H318.802Z" fill="#C2C2C2"/>
</svg>
