<svg width="500" height="600" viewBox="0 0 500 600" fill="none" xmlns="http://www.w3.org/2000/svg">
<path d="M187.444 555C186.63 559.895 185.707 566.716 185.282 574.884C184.513 589.648 185.829 599.844 184.833 599.998C183.934 600.133 181.786 591.993 180.563 583.66C178.51 569.677 179.58 558.685 179.625 555H187.444ZM178.802 555C178.09 557.412 177.142 562.772 176.743 568.3C176.568 570.708 176.55 572.864 176.518 577.078C176.439 587.737 176.809 593.107 176.294 593.171C175.978 593.208 175.514 591.218 174.947 588.781C174.471 586.732 174.185 584.99 173.824 582.441C173.456 579.838 173.23 578.231 172.926 575.369C172.399 570.417 172.113 567.732 172.027 564.397C171.931 560.741 172.105 557.517 172.337 555H178.802Z" fill="#C2C2C2"/>
<path d="M187.444 465C186.63 469.895 185.707 476.716 185.282 484.884C184.513 499.648 185.829 509.844 184.833 509.998C183.934 510.133 181.786 501.993 180.563 493.66C178.51 479.677 179.58 468.685 179.625 465H187.444ZM178.802 465C178.09 467.412 177.142 472.772 176.743 478.3C176.568 480.708 176.55 482.864 176.518 487.078C176.439 497.737 176.809 503.107 176.294 503.171C175.978 503.208 175.514 501.218 174.947 498.781C174.471 496.732 174.185 494.99 173.824 492.441C173.456 489.838 173.23 488.231 172.926 485.369C172.399 480.417 172.113 477.732 172.027 474.397C171.931 470.741 172.105 467.517 172.337 465H178.802Z" fill="#C2C2C2"/>
<path d="M187.444 285C186.63 289.895 185.707 296.716 185.282 304.884C184.513 319.648 185.829 329.844 184.833 329.998C183.934 330.133 181.786 321.993 180.563 313.66C178.51 299.677 179.58 288.685 179.625 285H187.444ZM178.802 285C178.09 287.412 177.142 292.772 176.743 298.3C176.568 300.708 176.55 302.864 176.518 307.078C176.439 317.737 176.809 323.107 176.294 323.171C175.978 323.208 175.514 321.218 174.947 318.781C174.471 316.732 174.185 314.99 173.824 312.441C173.456 309.838 173.23 308.231 172.926 305.369C172.399 300.417 172.113 297.732 172.027 294.397C171.931 290.741 172.105 287.517 172.337 285H178.802Z" fill="#C2C2C2"/>
<path d="M187.444 375C186.63 379.895 185.707 386.716 185.282 394.884C184.513 409.648 185.829 419.844 184.833 419.998C183.934 420.133 181.786 411.993 180.563 403.66C178.51 389.677 179.58 378.685 179.625 375H187.444ZM178.802 375C178.09 377.412 177.142 382.772 176.743 388.3C176.568 390.708 176.55 392.864 176.518 397.078C176.439 407.737 176.809 413.107 176.294 413.171C175.978 413.208 175.514 411.218 174.947 408.781C174.471 406.732 174.185 404.99 173.824 402.441C173.456 399.838 173.23 398.231 172.926 395.369C172.399 390.417 172.113 387.732 172.027 384.397C171.931 380.741 172.105 377.517 172.337 375H178.802Z" fill="#C2C2C2"/>
<path d="M187.444 195C186.63 199.895 185.707 206.716 185.282 214.884C184.513 229.648 185.829 239.844 184.833 239.998C183.934 240.133 181.786 231.993 180.563 223.66C178.51 209.677 179.58 198.685 179.625 195H187.444ZM178.802 195C178.09 197.412 177.142 202.772 176.743 208.3C176.568 210.708 176.55 212.864 176.518 217.078C176.439 227.737 176.809 233.107 176.294 233.171C175.978 233.208 175.514 231.218 174.947 228.781C174.471 226.732 174.185 224.99 173.824 222.441C173.456 219.838 173.23 218.231 172.926 215.369C172.399 210.417 172.113 207.732 172.027 204.397C171.931 200.741 172.105 197.517 172.337 195H178.802Z" fill="#C2C2C2"/>
<path d="M187.444 510C186.63 514.895 185.707 521.716 185.282 529.884C184.513 544.648 185.829 554.844 184.833 554.998C183.934 555.133 181.786 546.993 180.563 538.66C178.51 524.677 179.58 513.685 179.625 510H187.444ZM178.802 510C178.09 512.412 177.142 517.772 176.743 523.3C176.568 525.708 176.55 527.864 176.518 532.078C176.439 542.737 176.809 548.107 176.294 548.171C175.978 548.208 175.514 546.218 174.947 543.781C174.471 541.732 174.185 539.99 173.824 537.441C173.456 534.838 173.23 533.231 172.926 530.369C172.399 525.417 172.113 522.732 172.027 519.397C171.931 515.741 172.105 512.517 172.337 510H178.802Z" fill="#C2C2C2"/>
<path d="M187.444 420C186.63 424.895 185.707 431.716 185.282 439.884C184.513 454.648 185.829 464.844 184.833 464.998C183.934 465.133 181.786 456.993 180.563 448.66C178.51 434.677 179.58 423.685 179.625 420H187.444ZM178.802 420C178.09 422.412 177.142 427.772 176.743 433.3C176.568 435.708 176.55 437.864 176.518 442.078C176.439 452.737 176.809 458.107 176.294 458.171C175.978 458.208 175.514 456.218 174.947 453.781C174.471 451.732 174.185 449.99 173.824 447.441C173.456 444.838 173.23 443.231 172.926 440.369C172.399 435.417 172.113 432.732 172.027 429.397C171.931 425.741 172.105 422.517 172.337 420H178.802Z" fill="#C2C2C2"/>
<path d="M187.444 240C186.63 244.895 185.707 251.716 185.282 259.884C184.513 274.648 185.829 284.844 184.833 284.998C183.934 285.133 181.786 276.993 180.563 268.66C178.51 254.677 179.58 243.685 179.625 240H187.444ZM178.802 240C178.09 242.412 177.142 247.772 176.743 253.3C176.568 255.708 176.55 257.864 176.518 262.078C176.439 272.737 176.809 278.107 176.294 278.171C175.978 278.208 175.514 276.218 174.947 273.781C174.471 271.732 174.185 269.99 173.824 267.441C173.456 264.838 173.23 263.231 172.926 260.369C172.399 255.417 172.113 252.732 172.027 249.397C171.931 245.741 172.105 242.517 172.337 240H178.802Z" fill="#C2C2C2"/>
<path d="M187.444 330C186.63 334.895 185.707 341.716 185.282 349.884C184.513 364.648 185.829 374.844 184.833 374.998C183.934 375.133 181.786 366.993 180.563 358.66C178.51 344.677 179.58 333.685 179.625 330H187.444ZM178.802 330C178.09 332.412 177.142 337.772 176.743 343.3C176.568 345.708 176.55 347.864 176.518 352.078C176.439 362.737 176.809 368.107 176.294 368.171C175.978 368.208 175.514 366.218 174.947 363.781C174.471 361.732 174.185 359.99 173.824 357.441C173.456 354.838 173.23 353.231 172.926 350.369C172.399 345.417 172.113 342.732 172.027 339.397C171.931 335.741 172.105 332.517 172.337 330H178.802Z" fill="#C2C2C2"/>
<path d="M187.444 150C186.63 154.895 185.707 161.716 185.282 169.884C184.513 184.648 185.829 194.844 184.833 194.998C183.934 195.133 181.786 186.993 180.563 178.66C178.51 164.677 179.58 153.685 179.625 150H187.444ZM178.802 150C178.09 152.412 177.142 157.772 176.743 163.3C176.568 165.708 176.55 167.864 176.518 172.078C176.439 182.737 176.809 188.107 176.294 188.171C175.978 188.208 175.514 186.218 174.947 183.781C174.471 181.732 174.185 179.99 173.824 177.441C173.456 174.838 173.23 173.231 172.926 170.369C172.399 165.417 172.113 162.732 172.027 159.397C171.931 155.741 172.105 152.517 172.337 150H178.802Z" fill="#C2C2C2"/>
<path d="M187.444 105C186.63 109.895 185.707 116.716 185.282 124.884C184.513 139.648 185.829 149.844 184.833 149.998C183.934 150.133 181.786 141.993 180.563 133.66C178.51 119.677 179.58 108.685 179.625 105H187.444ZM178.802 105C178.09 107.412 177.142 112.772 176.743 118.3C176.568 120.708 176.55 122.864 176.518 127.078C176.439 137.737 176.809 143.107 176.294 143.171C175.978 143.208 175.514 141.218 174.947 138.781C174.471 136.732 174.185 134.99 173.824 132.441C173.456 129.838 173.23 128.231 172.926 125.369C172.399 120.417 172.113 117.732 172.027 114.397C171.931 110.741 172.105 107.517 172.337 105H178.802Z" fill="#C2C2C2"/>
<path d="M215.444 555C214.63 559.895 213.707 566.716 213.282 574.884C212.513 589.648 213.829 599.844 212.833 599.998C211.934 600.133 209.786 591.993 208.563 583.66C206.51 569.677 207.58 558.685 207.625 555H215.444ZM206.802 555C206.09 557.412 205.142 562.772 204.743 568.3C204.568 570.708 204.55 572.864 204.518 577.078C204.439 587.737 204.809 593.107 204.294 593.171C203.978 593.208 203.514 591.218 202.947 588.781C202.471 586.732 202.185 584.99 201.824 582.441C201.456 579.838 201.23 578.231 200.926 575.369C200.399 570.417 200.113 567.732 200.027 564.397C199.931 560.741 200.105 557.517 200.337 555H206.802Z" fill="#C2C2C2"/>
<path d="M215.444 465C214.63 469.895 213.707 476.716 213.282 484.884C212.513 499.648 213.829 509.844 212.833 509.998C211.934 510.133 209.786 501.993 208.563 493.66C206.51 479.677 207.58 468.685 207.625 465H215.444ZM206.802 465C206.09 467.412 205.142 472.772 204.743 478.3C204.568 480.708 204.55 482.864 204.518 487.078C204.439 497.737 204.809 503.107 204.294 503.171C203.978 503.208 203.514 501.218 202.947 498.781C202.471 496.732 202.185 494.99 201.824 492.441C201.456 489.838 201.23 488.231 200.926 485.369C200.399 480.417 200.113 477.732 200.027 474.397C199.931 470.741 200.105 467.517 200.337 465H206.802Z" fill="#C2C2C2"/>
<path d="M215.444 285C214.63 289.895 213.707 296.716 213.282 304.884C212.513 319.648 213.829 329.844 212.833 329.998C211.934 330.133 209.786 321.993 208.563 313.66C206.51 299.677 207.58 288.685 207.625 285H215.444ZM206.802 285C206.09 287.412 205.142 292.772 204.743 298.3C204.568 300.708 204.55 302.864 204.518 307.078C204.439 317.737 204.809 323.107 204.294 323.171C203.978 323.208 203.514 321.218 202.947 318.781C202.471 316.732 202.185 314.99 201.824 312.441C201.456 309.838 201.23 308.231 200.926 305.369C200.399 300.417 200.113 297.732 200.027 294.397C199.931 290.741 200.105 287.517 200.337 285H206.802Z" fill="#C2C2C2"/>
<path d="M215.444 375C214.63 379.895 213.707 386.716 213.282 394.884C212.513 409.648 213.829 419.844 212.833 419.998C211.934 420.133 209.786 411.993 208.563 403.66C206.51 389.677 207.58 378.685 207.625 375H215.444ZM206.802 375C206.09 377.412 205.142 382.772 204.743 388.3C204.568 390.708 204.55 392.864 204.518 397.078C204.439 407.737 204.809 413.107 204.294 413.171C203.978 413.208 203.514 411.218 202.947 408.781C202.471 406.732 202.185 404.99 201.824 402.441C201.456 399.838 201.23 398.231 200.926 395.369C200.399 390.417 200.113 387.732 200.027 384.397C199.931 380.741 200.105 377.517 200.337 375H206.802Z" fill="#C2C2C2"/>
<path d="M215.444 195C214.63 199.895 213.707 206.716 213.282 214.884C212.513 229.648 213.829 239.844 212.833 239.998C211.934 240.133 209.786 231.993 208.563 223.66C206.51 209.677 207.58 198.685 207.625 195H215.444ZM206.802 195C206.09 197.412 205.142 202.772 204.743 208.3C204.568 210.708 204.55 212.864 204.518 217.078C204.439 227.737 204.809 233.107 204.294 233.171C203.978 233.208 203.514 231.218 202.947 228.781C202.471 226.732 202.185 224.99 201.824 222.441C201.456 219.838 201.23 218.231 200.926 215.369C200.399 210.417 200.113 207.732 200.027 204.397C199.931 200.741 200.105 197.517 200.337 195H206.802Z" fill="#C2C2C2"/>
<path d="M215.444 510C214.63 514.895 213.707 521.716 213.282 529.884C212.513 544.648 213.829 554.844 212.833 554.998C211.934 555.133 209.786 546.993 208.563 538.66C206.51 524.677 207.58 513.685 207.625 510H215.444ZM206.802 510C206.09 512.412 205.142 517.772 204.743 523.3C204.568 525.708 204.55 527.864 204.518 532.078C204.439 542.737 204.809 548.107 204.294 548.171C203.978 548.208 203.514 546.218 202.947 543.781C202.471 541.732 202.185 539.99 201.824 537.441C201.456 534.838 201.23 533.231 200.926 530.369C200.399 525.417 200.113 522.732 200.027 519.397C199.931 515.741 200.105 512.517 200.337 510H206.802Z" fill="#C2C2C2"/>
<path d="M215.444 420C214.63 424.895 213.707 431.716 213.282 439.884C212.513 454.648 213.829 464.844 212.833 464.998C211.934 465.133 209.786 456.993 208.563 448.66C206.51 434.677 207.58 423.685 207.625 420H215.444ZM206.802 420C206.09 422.412 205.142 427.772 204.743 433.3C204.568 435.708 204.55 437.864 204.518 442.078C204.439 452.737 204.809 458.107 204.294 458.171C203.978 458.208 203.514 456.218 202.947 453.781C202.471 451.732 202.185 449.99 201.824 447.441C201.456 444.838 201.23 443.231 200.926 440.369C200.399 435.417 200.113 432.732 200.027 429.397C199.931 425.741 200.105 422.517 200.337 420H206.802Z" fill="#C2C2C2"/>
<path d="M215.444 240C214.63 244.895 213.707 251.716 213.282 259.884C212.513 274.648 213.829 284.844 212.833 284.998C211.934 285.133 209.786 276.993 208.563 268.66C206.51 254.677 207.58 243.685 207.625 240H215.444ZM206.802 240C206.09 242.412 205.142 247.772 204.743 253.3C204.568 255.708 204.55 257.864 204.518 262.078C204.439 272.737 204.809 278.107 204.294 278.171C203.978 278.208 203.514 276.218 202.947 273.781C202.471 271.732 202.185 269.99 201.824 267.441C201.456 264.838 201.23 263.231 200.926 260.369C200.399 255.417 200.113 252.732 200.027 249.397C199.931 245.741 200.105 242.517 200.337 240H206.802Z" fill="#C2C2C2"/>
<path d="M215.444 330C214.63 334.895 213.707 341.716 213.282 349.884C212.513 364.648 213.829 374.844 212.833 374.998C211.934 375.133 209.786 366.993 208.563 358.66C206.51 344.677 207.58 333.685 207.625 330H215.444ZM206.802 330C206.09 332.412 205.142 337.772 204.743 343.3C204.568 345.708 204.55 347.864 204.518 352.078C204.439 362.737 204.809 368.107 204.294 368.171C203.978 368.208 203.514 366.218 202.947 363.781C202.471 361.732 202.185 359.99 201.824 357.441C201.456 354.838 201.23 353.231 200.926 350.369C200.399 345.417 200.113 342.732 200.027 339.397C199.931 335.741 200.105 332.517 200.337 330H206.802Z" fill="#C2C2C2"/>
<path d="M215.444 150C214.63 154.895 213.707 161.716 213.282 169.884C212.513 184.648 213.829 194.844 212.833 194.998C211.934 195.133 209.786 186.993 208.563 178.66C206.51 164.677 207.58 153.685 207.625 150H215.444ZM206.802 150C206.09 152.412 205.142 157.772 204.743 163.3C204.568 165.708 204.55 167.864 204.518 172.078C204.439 182.737 204.809 188.107 204.294 188.171C203.978 188.208 203.514 186.218 202.947 183.781C202.471 181.732 202.185 179.99 201.824 177.441C201.456 174.838 201.23 173.231 200.926 170.369C200.399 165.417 200.113 162.732 200.027 159.397C199.931 155.741 200.105 152.517 200.337 150H206.802Z" fill="#C2C2C2"/>
<path d="M215.444 105C214.63 109.895 213.707 116.716 213.282 124.884C212.513 139.648 213.829 149.844 212.833 149.998C211.934 150.133 209.786 141.993 208.563 133.66C206.51 119.677 207.58 108.685 207.625 105H215.444ZM206.802 105C206.09 107.412 205.142 112.772 204.743 118.3C204.568 120.708 204.55 122.864 204.518 127.078C204.439 137.737 204.809 143.107 204.294 143.171C203.978 143.208 203.514 141.218 202.947 138.781C202.471 136.732 202.185 134.99 201.824 132.441C201.456 129.838 201.23 128.231 200.926 125.369C200.399 120.417 200.113 117.732 200.027 114.397C199.931 110.741 200.105 107.517 200.337 105H206.802Z" fill="#C2C2C2"/>
<path d="M243.444 555C242.63 559.895 241.707 566.716 241.282 574.884C240.513 589.648 241.829 599.844 240.833 599.998C239.934 600.133 237.786 591.993 236.563 583.66C234.51 569.677 235.58 558.685 235.625 555H243.444ZM234.802 555C234.09 557.412 233.142 562.772 232.743 568.3C232.568 570.708 232.55 572.864 232.518 577.078C232.439 587.737 232.809 593.107 232.294 593.171C231.978 593.208 231.514 591.218 230.947 588.781C230.471 586.732 230.185 584.99 229.824 582.441C229.456 579.838 229.23 578.231 228.926 575.369C228.399 570.417 228.113 567.732 228.027 564.397C227.931 560.741 228.105 557.517 228.337 555H234.802Z" fill="#C2C2C2"/>
<path d="M243.444 465C242.63 469.895 241.707 476.716 241.282 484.884C240.513 499.648 241.829 509.844 240.833 509.998C239.934 510.133 237.786 501.993 236.563 493.66C234.51 479.677 235.58 468.685 235.625 465H243.444ZM234.802 465C234.09 467.412 233.142 472.772 232.743 478.3C232.568 480.708 232.55 482.864 232.518 487.078C232.439 497.737 232.809 503.107 232.294 503.171C231.978 503.208 231.514 501.218 230.947 498.781C230.471 496.732 230.185 494.99 229.824 492.441C229.456 489.838 229.23 488.231 228.926 485.369C228.399 480.417 228.113 477.732 228.027 474.397C227.931 470.741 228.105 467.517 228.337 465H234.802Z" fill="#C2C2C2"/>
<path d="M243.444 285C242.63 289.895 241.707 296.716 241.282 304.884C240.513 319.648 241.829 329.844 240.833 329.998C239.934 330.133 237.786 321.993 236.563 313.66C234.51 299.677 235.58 288.685 235.625 285H243.444ZM234.802 285C234.09 287.412 233.142 292.772 232.743 298.3C232.568 300.708 232.55 302.864 232.518 307.078C232.439 317.737 232.809 323.107 232.294 323.171C231.978 323.208 231.514 321.218 230.947 318.781C230.471 316.732 230.185 314.99 229.824 312.441C229.456 309.838 229.23 308.231 228.926 305.369C228.399 300.417 228.113 297.732 228.027 294.397C227.931 290.741 228.105 287.517 228.337 285H234.802Z" fill="#C2C2C2"/>
<path d="M243.444 375C242.63 379.895 241.707 386.716 241.282 394.884C240.513 409.648 241.829 419.844 240.833 419.998C239.934 420.133 237.786 411.993 236.563 403.66C234.51 389.677 235.58 378.685 235.625 375H243.444ZM234.802 375C234.09 377.412 233.142 382.772 232.743 388.3C232.568 390.708 232.55 392.864 232.518 397.078C232.439 407.737 232.809 413.107 232.294 413.171C231.978 413.208 231.514 411.218 230.947 408.781C230.471 406.732 230.185 404.99 229.824 402.441C229.456 399.838 229.23 398.231 228.926 395.369C228.399 390.417 228.113 387.732 228.027 384.397C227.931 380.741 228.105 377.517 228.337 375H234.802Z" fill="#C2C2C2"/>
<path d="M243.444 195C242.63 199.895 241.707 206.716 241.282 214.884C240.513 229.648 241.829 239.844 240.833 239.998C239.934 240.133 237.786 231.993 236.563 223.66C234.51 209.677 235.58 198.685 235.625 195H243.444ZM234.802 195C234.09 197.412 233.142 202.772 232.743 208.3C232.568 210.708 232.55 212.864 232.518 217.078C232.439 227.737 232.809 233.107 232.294 233.171C231.978 233.208 231.514 231.218 230.947 228.781C230.471 226.732 230.185 224.99 229.824 222.441C229.456 219.838 229.23 218.231 228.926 215.369C228.399 210.417 228.113 207.732 228.027 204.397C227.931 200.741 228.105 197.517 228.337 195H234.802Z" fill="#C2C2C2"/>
<path d="M243.444 510C242.63 514.895 241.707 521.716 241.282 529.884C240.513 544.648 241.829 554.844 240.833 554.998C239.934 555.133 237.786 546.993 236.563 538.66C234.51 524.677 235.58 513.685 235.625 510H243.444ZM234.802 510C234.09 512.412 233.142 517.772 232.743 523.3C232.568 525.708 232.55 527.864 232.518 532.078C232.439 542.737 232.809 548.107 232.294 548.171C231.978 548.208 231.514 546.218 230.947 543.781C230.471 541.732 230.185 539.99 229.824 537.441C229.456 534.838 229.23 533.231 228.926 530.369C228.399 525.417 228.113 522.732 228.027 519.397C227.931 515.741 228.105 512.517 228.337 510H234.802Z" fill="#C2C2C2"/>
<path d="M243.444 420C242.63 424.895 241.707 431.716 241.282 439.884C240.513 454.648 241.829 464.844 240.833 464.998C239.934 465.133 237.786 456.993 236.563 448.66C234.51 434.677 235.58 423.685 235.625 420H243.444ZM234.802 420C234.09 422.412 233.142 427.772 232.743 433.3C232.568 435.708 232.55 437.864 232.518 442.078C232.439 452.737 232.809 458.107 232.294 458.171C231.978 458.208 231.514 456.218 230.947 453.781C230.471 451.732 230.185 449.99 229.824 447.441C229.456 444.838 229.23 443.231 228.926 440.369C228.399 435.417 228.113 432.732 228.027 429.397C227.931 425.741 228.105 422.517 228.337 420H234.802Z" fill="#C2C2C2"/>
<path d="M243.444 240C242.63 244.895 241.707 251.716 241.282 259.884C240.513 274.648 241.829 284.844 240.833 284.998C239.934 285.133 237.786 276.993 236.563 268.66C234.51 254.677 235.58 243.685 235.625 240H243.444ZM234.802 240C234.09 242.412 233.142 247.772 232.743 253.3C232.568 255.708 232.55 257.864 232.518 262.078C232.439 272.737 232.809 278.107 232.294 278.171C231.978 278.208 231.514 276.218 230.947 273.781C230.471 271.732 230.185 269.99 229.824 267.441C229.456 264.838 229.23 263.231 228.926 260.369C228.399 255.417 228.113 252.732 228.027 249.397C227.931 245.741 228.105 242.517 228.337 240H234.802Z" fill="#C2C2C2"/>
<path d="M243.444 330C242.63 334.895 241.707 341.716 241.282 349.884C240.513 364.648 241.829 374.844 240.833 374.998C239.934 375.133 237.786 366.993 236.563 358.66C234.51 344.677 235.58 333.685 235.625 330H243.444ZM234.802 330C234.09 332.412 233.142 337.772 232.743 343.3C232.568 345.708 232.55 347.864 232.518 352.078C232.439 362.737 232.809 368.107 232.294 368.171C231.978 368.208 231.514 366.218 230.947 363.781C230.471 361.732 230.185 359.99 229.824 357.441C229.456 354.838 229.23 353.231 228.926 350.369C228.399 345.417 228.113 342.732 228.027 339.397C227.931 335.741 228.105 332.517 228.337 330H234.802Z" fill="#C2C2C2"/>
<path d="M243.444 150C242.63 154.895 241.707 161.716 241.282 169.884C240.513 184.648 241.829 194.844 240.833 194.998C239.934 195.133 237.786 186.993 236.563 178.66C234.51 164.677 235.58 153.685 235.625 150H243.444ZM234.802 150C234.09 152.412 233.142 157.772 232.743 163.3C232.568 165.708 232.55 167.864 232.518 172.078C232.439 182.737 232.809 188.107 232.294 188.171C231.978 188.208 231.514 186.218 230.947 183.781C230.471 181.732 230.185 179.99 229.824 177.441C229.456 174.838 229.23 173.231 228.926 170.369C228.399 165.417 228.113 162.732 228.027 159.397C227.931 155.741 228.105 152.517 228.337 150H234.802Z" fill="#C2C2C2"/>
<path d="M243.444 105C242.63 109.895 241.707 116.716 241.282 124.884C240.513 139.648 241.829 149.844 240.833 149.998C239.934 150.133 237.786 141.993 236.563 133.66C234.51 119.677 235.58 108.685 235.625 105H243.444ZM234.802 105C234.09 107.412 233.142 112.772 232.743 118.3C232.568 120.708 232.55 122.864 232.518 127.078C232.439 137.737 232.809 143.107 232.294 143.171C231.978 143.208 231.514 141.218 230.947 138.781C230.471 136.732 230.185 134.99 229.824 132.441C229.456 129.838 229.23 128.231 228.926 125.369C228.399 120.417 228.113 117.732 228.027 114.397C227.931 110.741 228.105 107.517 228.337 105H234.802Z" fill="#C2C2C2"/>
<path d="M271.444 555C270.63 559.895 269.707 566.716 269.282 574.884C268.513 589.648 269.829 599.844 268.833 599.998C267.934 600.133 265.786 591.993 264.563 583.66C262.51 569.677 263.58 558.685 263.625 555H271.444ZM262.802 555C262.09 557.412 261.142 562.772 260.743 568.3C260.568 570.708 260.55 572.864 260.518 577.078C260.439 587.737 260.809 593.107 260.294 593.171C259.978 593.208 259.514 591.218 258.947 588.781C258.471 586.732 258.185 584.99 257.824 582.441C257.456 579.838 257.23 578.231 256.926 575.369C256.399 570.417 256.113 567.732 256.027 564.397C255.931 560.741 256.105 557.517 256.337 555H262.802Z" fill="#C2C2C2"/>
<path d="M271.444 465C270.63 469.895 269.707 476.716 269.282 484.884C268.513 499.648 269.829 509.844 268.833 509.998C267.934 510.133 265.786 501.993 264.563 493.66C262.51 479.677 263.58 468.685 263.625 465H271.444ZM262.802 465C262.09 467.412 261.142 472.772 260.743 478.3C260.568 480.708 260.55 482.864 260.518 487.078C260.439 497.737 260.809 503.107 260.294 503.171C259.978 503.208 259.514 501.218 258.947 498.781C258.471 496.732 258.185 494.99 257.824 492.441C257.456 489.838 257.23 488.231 256.926 485.369C256.399 480.417 256.113 477.732 256.027 474.397C255.931 470.741 256.105 467.517 256.337 465H262.802Z" fill="#C2C2C2"/>
<path d="M271.444 285C270.63 289.895 269.707 296.716 269.282 304.884C268.513 319.648 269.829 329.844 268.833 329.998C267.934 330.133 265.786 321.993 264.563 313.66C262.51 299.677 263.58 288.685 263.625 285H271.444ZM262.802 285C262.09 287.412 261.142 292.772 260.743 298.3C260.568 300.708 260.55 302.864 260.518 307.078C260.439 317.737 260.809 323.107 260.294 323.171C259.978 323.208 259.514 321.218 258.947 318.781C258.471 316.732 258.185 314.99 257.824 312.441C257.456 309.838 257.23 308.231 256.926 305.369C256.399 300.417 256.113 297.732 256.027 294.397C255.931 290.741 256.105 287.517 256.337 285H262.802Z" fill="#C2C2C2"/>
<path d="M271.444 375C270.63 379.895 269.707 386.716 269.282 394.884C268.513 409.648 269.829 419.844 268.833 419.998C267.934 420.133 265.786 411.993 264.563 403.66C262.51 389.677 263.58 378.685 263.625 375H271.444ZM262.802 375C262.09 377.412 261.142 382.772 260.743 388.3C260.568 390.708 260.55 392.864 260.518 397.078C260.439 407.737 260.809 413.107 260.294 413.171C259.978 413.208 259.514 411.218 258.947 408.781C258.471 406.732 258.185 404.99 257.824 402.441C257.456 399.838 257.23 398.231 256.926 395.369C256.399 390.417 256.113 387.732 256.027 384.397C255.931 380.741 256.105 377.517 256.337 375H262.802Z" fill="#C2C2C2"/>
<path d="M271.444 195C270.63 199.895 269.707 206.716 269.282 214.884C268.513 229.648 269.829 239.844 268.833 239.998C267.934 240.133 265.786 231.993 264.563 223.66C262.51 209.677 263.58 198.685 263.625 195H271.444ZM262.802 195C262.09 197.412 261.142 202.772 260.743 208.3C260.568 210.708 260.55 212.864 260.518 217.078C260.439 227.737 260.809 233.107 260.294 233.171C259.978 233.208 259.514 231.218 258.947 228.781C258.471 226.732 258.185 224.99 257.824 222.441C257.456 219.838 257.23 218.231 256.926 215.369C256.399 210.417 256.113 207.732 256.027 204.397C255.931 200.741 256.105 197.517 256.337 195H262.802Z" fill="#C2C2C2"/>
<path d="M271.444 510C270.63 514.895 269.707 521.716 269.282 529.884C268.513 544.648 269.829 554.844 268.833 554.998C267.934 555.133 265.786 546.993 264.563 538.66C262.51 524.677 263.58 513.685 263.625 510H271.444ZM262.802 510C262.09 512.412 261.142 517.772 260.743 523.3C260.568 525.708 260.55 527.864 260.518 532.078C260.439 542.737 260.809 548.107 260.294 548.171C259.978 548.208 259.514 546.218 258.947 543.781C258.471 541.732 258.185 539.99 257.824 537.441C257.456 534.838 257.23 533.231 256.926 530.369C256.399 525.417 256.113 522.732 256.027 519.397C255.931 515.741 256.105 512.517 256.337 510H262.802Z" fill="#C2C2C2"/>
<path d="M271.444 420C270.63 424.895 269.707 431.716 269.282 439.884C268.513 454.648 269.829 464.844 268.833 464.998C267.934 465.133 265.786 456.993 264.563 448.66C262.51 434.677 263.58 423.685 263.625 420H271.444ZM262.802 420C262.09 422.412 261.142 427.772 260.743 433.3C260.568 435.708 260.55 437.864 260.518 442.078C260.439 452.737 260.809 458.107 260.294 458.171C259.978 458.208 259.514 456.218 258.947 453.781C258.471 451.732 258.185 449.99 257.824 447.441C257.456 444.838 257.23 443.231 256.926 440.369C256.399 435.417 256.113 432.732 256.027 429.397C255.931 425.741 256.105 422.517 256.337 420H262.802Z" fill="#C2C2C2"/>
<path d="M271.444 240C270.63 244.895 269.707 251.716 269.282 259.884C268.513 274.648 269.829 284.844 268.833 284.998C267.934 285.133 265.786 276.993 264.563 268.66C262.51 254.677 263.58 243.685 263.625 240H271.444ZM262.802 240C262.09 242.412 261.142 247.772 260.743 253.3C260.568 255.708 260.55 257.864 260.518 262.078C260.439 272.737 260.809 278.107 260.294 278.171C259.978 278.208 259.514 276.218 258.947 273.781C258.471 271.732 258.185 269.99 257.824 267.441C257.456 264.838 257.23 263.231 256.926 260.369C256.399 255.417 256.113 252.732 256.027 249.397C255.931 245.741 256.105 242.517 256.337 240H262.802Z" fill="#C2C2C2"/>
<path d="M271.444 330C270.63 334.895 269.707 341.716 269.282 349.884C268.513 364.648 269.829 374.844 268.833 374.998C267.934 375.133 265.786 366.993 264.563 358.66C262.51 344.677 263.58 333.685 263.625 330H271.444ZM262.802 330C262.09 332.412 261.142 337.772 260.743 343.3C260.568 345.708 260.55 347.864 260.518 352.078C260.439 362.737 260.809 368.107 260.294 368.171C259.978 368.208 259.514 366.218 258.947 363.781C258.471 361.732 258.185 359.99 257.824 357.441C257.456 354.838 257.23 353.231 256.926 350.369C256.399 345.417 256.113 342.732 256.027 339.397C255.931 335.741 256.105 332.517 256.337 330H262.802Z" fill="#C2C2C2"/>
<path d="M271.444 150C270.63 154.895 269.707 161.716 269.282 169.884C268.513 184.648 269.829 194.844 268.833 194.998C267.934 195.133 265.786 186.993 264.563 178.66C262.51 164.677 263.58 153.685 263.625 150H271.444ZM262.802 150C262.09 152.412 261.142 157.772 260.743 163.3C260.568 165.708 260.55 167.864 260.518 172.078C260.439 182.737 260.809 188.107 260.294 188.171C259.978 188.208 259.514 186.218 258.947 183.781C258.471 181.732 258.185 179.99 257.824 177.441C257.456 174.838 257.23 173.231 256.926 170.369C256.399 165.417 256.113 162.732 256.027 159.397C255.931 155.741 256.105 152.517 256.337 150H262.802Z" fill="#C2C2C2"/>
<path d="M271.444 105C270.63 109.895 269.707 116.716 269.282 124.884C268.513 139.648 269.829 149.844 268.833 149.998C267.934 150.133 265.786 141.993 264.563 133.66C262.51 119.677 263.58 108.685 263.625 105H271.444ZM262.802 105C262.09 107.412 261.142 112.772 260.743 118.3C260.568 120.708 260.55 122.864 260.518 127.078C260.439 137.737 260.809 143.107 260.294 143.171C259.978 143.208 259.514 141.218 258.947 138.781C258.471 136.732 258.185 134.99 257.824 132.441C257.456 129.838 257.23 128.231 256.926 125.369C256.399 120.417 256.113 117.732 256.027 114.397C255.931 110.741 256.105 107.517 256.337 105H262.802Z" fill="#C2C2C2"/>
<path d="M299.444 555C298.63 559.895 297.707 566.716 297.282 574.884C296.513 589.648 297.829 599.844 296.833 599.998C295.934 600.133 293.786 591.993 292.563 583.66C290.51 569.677 291.58 558.685 291.625 555H299.444ZM290.802 555C290.09 557.412 289.142 562.772 288.743 568.3C288.568 570.708 288.55 572.864 288.518 577.078C288.439 587.737 288.809 593.107 288.294 593.171C287.978 593.208 287.514 591.218 286.947 588.781C286.471 586.732 286.185 584.99 285.824 582.441C285.456 579.838 285.23 578.231 284.926 575.369C284.399 570.417 284.113 567.732 284.027 564.397C283.931 560.741 284.105 557.517 284.337 555H290.802Z" fill="#C2C2C2"/>
<path d="M299.444 465C298.63 469.895 297.707 476.716 297.282 484.884C296.513 499.648 297.829 509.844 296.833 509.998C295.934 510.133 293.786 501.993 292.563 493.66C290.51 479.677 291.58 468.685 291.625 465H299.444ZM290.802 465C290.09 467.412 289.142 472.772 288.743 478.3C288.568 480.708 288.55 482.864 288.518 487.078C288.439 497.737 288.809 503.107 288.294 503.171C287.978 503.208 287.514 501.218 286.947 498.781C286.471 496.732 286.185 494.99 285.824 492.441C285.456 489.838 285.23 488.231 284.926 485.369C284.399 480.417 284.113 477.732 284.027 474.397C283.931 470.741 284.105 467.517 284.337 465H290.802Z" fill="#C2C2C2"/>
<path d="M299.444 285C298.63 289.895 297.707 296.716 297.282 304.884C296.513 319.648 297.829 329.844 296.833 329.998C295.934 330.133 293.786 321.993 292.563 313.66C290.51 299.677 291.58 288.685 291.625 285H299.444ZM290.802 285C290.09 287.412 289.142 292.772 288.743 298.3C288.568 300.708 288.55 302.864 288.518 307.078C288.439 317.737 288.809 323.107 288.294 323.171C287.978 323.208 287.514 321.218 286.947 318.781C286.471 316.732 286.185 314.99 285.824 312.441C285.456 309.838 285.23 308.231 284.926 305.369C284.399 300.417 284.113 297.732 284.027 294.397C283.931 290.741 284.105 287.517 284.337 285H290.802Z" fill="#C2C2C2"/>
<path d="M299.444 375C298.63 379.895 297.707 386.716 297.282 394.884C296.513 409.648 297.829 419.844 296.833 419.998C295.934 420.133 293.786 411.993 292.563 403.66C290.51 389.677 291.58 378.685 291.625 375H299.444ZM290.802 375C290.09 377.412 289.142 382.772 288.743 388.3C288.568 390.708 288.55 392.864 288.518 397.078C288.439 407.737 288.809 413.107 288.294 413.171C287.978 413.208 287.514 411.218 286.947 408.781C286.471 406.732 286.185 404.99 285.824 402.441C285.456 399.838 285.23 398.231 284.926 395.369C284.399 390.417 284.113 387.732 284.027 384.397C283.931 380.741 284.105 377.517 284.337 375H290.802Z" fill="#C2C2C2"/>
<path d="M299.444 195C298.63 199.895 297.707 206.716 297.282 214.884C296.513 229.648 297.829 239.844 296.833 239.998C295.934 240.133 293.786 231.993 292.563 223.66C290.51 209.677 291.58 198.685 291.625 195H299.444ZM290.802 195C290.09 197.412 289.142 202.772 288.743 208.3C288.568 210.708 288.55 212.864 288.518 217.078C288.439 227.737 288.809 233.107 288.294 233.171C287.978 233.208 287.514 231.218 286.947 228.781C286.471 226.732 286.185 224.99 285.824 222.441C285.456 219.838 285.23 218.231 284.926 215.369C284.399 210.417 284.113 207.732 284.027 204.397C283.931 200.741 284.105 197.517 284.337 195H290.802Z" fill="#C2C2C2"/>
<path d="M299.444 510C298.63 514.895 297.707 521.716 297.282 529.884C296.513 544.648 297.829 554.844 296.833 554.998C295.934 555.133 293.786 546.993 292.563 538.66C290.51 524.677 291.58 513.685 291.625 510H299.444ZM290.802 510C290.09 512.412 289.142 517.772 288.743 523.3C288.568 525.708 288.55 527.864 288.518 532.078C288.439 542.737 288.809 548.107 288.294 548.171C287.978 548.208 287.514 546.218 286.947 543.781C286.471 541.732 286.185 539.99 285.824 537.441C285.456 534.838 285.23 533.231 284.926 530.369C284.399 525.417 284.113 522.732 284.027 519.397C283.931 515.741 284.105 512.517 284.337 510H290.802Z" fill="#C2C2C2"/>
<path d="M299.444 420C298.63 424.895 297.707 431.716 297.282 439.884C296.513 454.648 297.829 464.844 296.833 464.998C295.934 465.133 293.786 456.993 292.563 448.66C290.51 434.677 291.58 423.685 291.625 420H299.444ZM290.802 420C290.09 422.412 289.142 427.772 288.743 433.3C288.568 435.708 288.55 437.864 288.518 442.078C288.439 452.737 288.809 458.107 288.294 458.171C287.978 458.208 287.514 456.218 286.947 453.781C286.471 451.732 286.185 449.99 285.824 447.441C285.456 444.838 285.23 443.231 284.926 440.369C284.399 435.417 284.113 432.732 284.027 429.397C283.931 425.741 284.105 422.517 284.337 420H290.802Z" fill="#C2C2C2"/>
<path d="M299.444 240C298.63 244.895 297.707 251.716 297.282 259.884C296.513 274.648 297.829 284.844 296.833 284.998C295.934 285.133 293.786 276.993 292.563 268.66C290.51 254.677 291.58 243.685 291.625 240H299.444ZM290.802 240C290.09 242.412 289.142 247.772 288.743 253.3C288.568 255.708 288.55 257.864 288.518 262.078C288.439 272.737 288.809 278.107 288.294 278.171C287.978 278.208 287.514 276.218 286.947 273.781C286.471 271.732 286.185 269.99 285.824 267.441C285.456 264.838 285.23 263.231 284.926 260.369C284.399 255.417 284.113 252.732 284.027 249.397C283.931 245.741 284.105 242.517 284.337 240H290.802Z" fill="#C2C2C2"/>
<path d="M299.444 330C298.63 334.895 297.707 341.716 297.282 349.884C296.513 364.648 297.829 374.844 296.833 374.998C295.934 375.133 293.786 366.993 292.563 358.66C290.51 344.677 291.58 333.685 291.625 330H299.444ZM290.802 330C290.09 332.412 289.142 337.772 288.743 343.3C288.568 345.708 288.55 347.864 288.518 352.078C288.439 362.737 288.809 368.107 288.294 368.171C287.978 368.208 287.514 366.218 286.947 363.781C286.471 361.732 286.185 359.99 285.824 357.441C285.456 354.838 285.23 353.231 284.926 350.369C284.399 345.417 284.113 342.732 284.027 339.397C283.931 335.741 284.105 332.517 284.337 330H290.802Z" fill="#C2C2C2"/>
<path d="M299.444 150C298.63 154.895 297.707 161.716 297.282 169.884C296.513 184.648 297.829 194.844 296.833 194.998C295.934 195.133 293.786 186.993 292.563 178.66C290.51 164.677 291.58 153.685 291.625 150H299.444ZM290.802 150C290.09 152.412 289.142 157.772 288.743 163.3C288.568 165.708 288.55 167.864 288.518 172.078C288.439 182.737 288.809 188.107 288.294 188.171C287.978 188.208 287.514 186.218 286.947 183.781C286.471 181.732 286.185 179.99 285.824 177.441C285.456 174.838 285.23 173.231 284.926 170.369C284.399 165.417 284.113 162.732 284.027 159.397C283.931 155.741 284.105 152.517 284.337 150H290.802Z" fill="#C2C2C2"/>
<path d="M299.444 105C298.63 109.895 297.707 116.716 297.282 124.884C296.513 139.648 297.829 149.844 296.833 149.998C295.934 150.133 293.786 141.993 292.563 133.66C290.51 119.677 291.58 108.685 291.625 105H299.444ZM290.802 105C290.09 107.412 289.142 112.772 288.743 118.3C288.568 120.708 288.55 122.864 288.518 127.078C288.439 137.737 288.809 143.107 288.294 143.171C287.978 143.208 287.514 141.218 286.947 138.781C286.471 136.732 286.185 134.99 285.824 132.441C285.456 129.838 285.23 128.231 284.926 125.369C284.399 120.417 284.113 117.732 284.027 114.397C283.931 110.741 284.105 107.517 284.337 105H290.802Z" fill="#C2C2C2"/>
<path d="M327.444 555C326.63 559.895 325.707 566.716 325.282 574.884C324.513 589.648 325.829 599.844 324.833 599.998C323.934 600.133 321.786 591.993 320.563 583.66C318.51 569.677 319.58 558.685 319.625 555H327.444ZM318.802 555C318.09 557.412 317.142 562.772 316.743 568.3C316.568 570.708 316.55 572.864 316.518 577.078C316.439 587.737 316.809 593.107 316.294 593.171C315.978 593.208 315.514 591.218 314.947 588.781C314.471 586.732 314.185 584.99 313.824 582.441C313.456 579.838 313.23 578.231 312.926 575.369C312.399 570.417 312.113 567.732 312.027 564.397C311.931 560.741 312.105 557.517 312.337 555H318.802Z" fill="#C2C2C2"/>
<path d="M327.444 465C326.63 469.895 325.707 476.716 325.282 484.884C324.513 499.648 325.829 509.844 324.833 509.998C323.934 510.133 321.786 501.993 320.563 493.66C318.51 479.677 319.58 468.685 319.625 465H327.444ZM318.802 465C318.09 467.412 317.142 472.772 316.743 478.3C316.568 480.708 316.55 482.864 316.518 487.078C316.439 497.737 316.809 503.107 316.294 503.171C315.978 503.208 315.514 501.218 314.947 498.781C314.471 496.732 314.185 494.99 313.824 492.441C313.456 489.838 313.23 488.231 312.926 485.369C312.399 480.417 312.113 477.732 312.027 474.397C311.931 470.741 312.105 467.517 312.337 465H318.802Z" fill="#C2C2C2"/>
<path d="M327.444 285C326.63 289.895 325.707 296.716 325.282 304.884C324.513 319.648 325.829 329.844 324.833 329.998C323.934 330.133 321.786 321.993 320.563 313.66C318.51 299.677 319.58 288.685 319.625 285H327.444ZM318.802 285C318.09 287.412 317.142 292.772 316.743 298.3C316.568 300.708 316.55 302.864 316.518 307.078C316.439 317.737 316.809 323.107 316.294 323.171C315.978 323.208 315.514 321.218 314.947 318.781C314.471 316.732 314.185 314.99 313.824 312.441C313.456 309.838 313.23 308.231 312.926 305.369C312.399 300.417 312.113 297.732 312.027 294.397C311.931 290.741 312.105 287.517 312.337 285H318.802Z" fill="#C2C2C2"/>
<path d="M327.444 375C326.63 379.895 325.707 386.716 325.282 394.884C324.513 409.648 325.829 419.844 324.833 419.998C323.934 420.133 321.786 411.993 320.563 403.66C318.51 389.677 319.58 378.685 319.625 375H327.444ZM318.802 375C318.09 377.412 317.142 382.772 316.743 388.3C316.568 390.708 316.55 392.864 316.518 397.078C316.439 407.737 316.809 413.107 316.294 413.171C315.978 413.208 315.514 411.218 314.947 408.781C314.471 406.732 314.185 404.99 313.824 402.441C313.456 399.838 313.23 398.231 312.926 395.369C312.399 390.417 312.113 387.732 312.027 384.397C311.931 380.741 312.105 377.517 312.337 375H318.802Z" fill="#C2C2C2"/>
<path d="M327.444 195C326.63 199.895 325.707 206.716 325.282 214.884C324.513 229.648 325.829 239.844 324.833 239.998C323.934 240.133 321.786 231.993 320.563 223.66C318.51 209.677 319.58 198.685 319.625 195H327.444ZM318.802 195C318.09 197.412 317.142 202.772 316.743 208.3C316.568 210.708 316.55 212.864 316.518 217.078C316.439 227.737 316.809 233.107 316.294 233.171C315.978 233.208 315.514 231.218 314.947 228.781C314.471 226.732 314.185 224.99 313.824 222.441C313.456 219.838 313.23 218.231 312.926 215.369C312.399 210.417 312.113 207.732 312.027 204.397C311.931 200.741 312.105 197.517 312.337 195H318.802Z" fill="#C2C2C2"/>
<path d="M327.444 510C326.63 514.895 325.707 521.716 325.282 529.884C324.513 544.648 325.829 554.844 324.833 554.998C323.934 555.133 321.786 546.993 320.563 538.66C318.51 524.677 319.58 513.685 319.625 510H327.444ZM318.802 510C318.09 512.412 317.142 517.772 316.743 523.3C316.568 525.708 316.55 527.864 316.518 532.078C316.439 542.737 316.809 548.107 316.294 548.171C315.978 548.208 315.514 546.218 314.947 543.781C314.471 541.732 314.185 539.99 313.824 537.441C313.456 534.838 313.23 533.231 312.926 530.369C312.399 525.417 312.113 522.732 312.027 519.397C311.931 515.741 312.105 512.517 312.337 510H318.802Z" fill="#C2C2C2"/>
<path d="M327.444 420C326.63 424.895 325.707 431.716 325.282 439.884C324.513 454.648 325.829 464.844 324.833 464.998C323.934 465.133 321.786 456.993 320.563 448.66C318.51 434.677 319.58 423.685 319.625 420H327.444ZM318.802 420C318.09 422.412 317.142 427.772 316.743 433.3C316.568 435.708 316.55 437.864 316.518 442.078C316.439 452.737 316.809 458.107 316.294 458.171C315.978 458.208 315.514 456.218 314.947 453.781C314.471 451.732 314.185 449.99 313.824 447.441C313.456 444.838 313.23 443.231 312.926 440.369C312.399 435.417 312.113 432.732 312.027 429.397C311.931 425.741 312.105 422.517 312.337 420H318.802Z" fill="#C2C2C2"/>
<path d="M327.444 240C326.63 244.895 325.707 251.716 325.282 259.884C324.513 274.648 325.829 284.844 324.833 284.998C323.934 285.133 321.786 276.993 320.563 268.66C318.51 254.677 319.58 243.685 319.625 240H327.444ZM318.802 240C318.09 242.412 317.142 247.772 316.743 253.3C316.568 255.708 316.55 257.864 316.518 262.078C316.439 272.737 316.809 278.107 316.294 278.171C315.978 278.208 315.514 276.218 314.947 273.781C314.471 271.732 314.185 269.99 313.824 267.441C313.456 264.838 313.23 263.231 312.926 260.369C312.399 255.417 312.113 252.732 312.027 249.397C311.931 245.741 312.105 242.517 312.337 240H318.802Z" fill="#C2C2C2"/>
<path d="M327.444 330C326.63 334.895 325.707 341.716 325.282 349.884C324.513 364.648 325.829 374.844 324.833 374.998C323.934 375.133 321.786 366.993 320.563 358.66C318.51 344.677 319.58 333.685 319.625 330H327.444ZM318.802 330C318.09 332.412 317.142 337.772 316.743 343.3C316.568 345.708 316.55 347.864 316.518 352.078C316.439 362.737 316.809 368.107 316.294 368.171C315.978 368.208 315.514 366.218 314.947 363.781C314.471 361.732 314.185 359.99 313.824 357.441C313.456 354.838 313.23 353.231 312.926 350.369C312.399 345.417 312.113 342.732 312.027 339.397C311.931 335.741 312.105 332.517 312.337 330H318.802Z" fill="#C2C2C2"/>
<path d="M327.444 150C326.63 154.895 325.707 161.716 325.282 169.884C324.513 184.648 325.829 194.844 324.833 194.998C323.934 195.133 321.786 186.993 320.563 178.66C318.51 164.677 319.58 153.685 319.625 150H327.444ZM318.802 150C318.09 152.412 317.142 157.772 316.743 163.3C316.568 165.708 316.55 167.864 316.518 172.078C316.439 182.737 316.809 188.107 316.294 188.171C315.978 188.208 315.514 186.218 314.947 183.781C314.471 181.732 314.185 179.99 313.824 177.441C313.456 174.838 313.23 173.231 312.926 170.369C312.399 165.417 312.113 162.732 312.027 159.397C311.931 155.741 312.105 152.517 312.337 150H318.802Z" fill="#C2C2C2"/>
</svg>
