<svg width="235" height="126" viewBox="0 0 235 126" fill="none" xmlns="http://www.w3.org/2000/svg">
<path d="M2.62374 19.6216C1.57019 22.7747 0.979219 25.5719 0.631132 27.7658C0.411451 29.1552 -0.103718 32.7724 0.0184993 37.4062C0.0772873 39.679 0.272216 41.5093 0.631132 44.8852C0.838437 46.8361 0.993142 47.9315 1.24376 49.7061C1.48975 51.4436 1.68467 52.6302 2.00956 54.0273C2.39632 55.689 2.71346 57.0458 2.92851 57.0195C3.27969 56.9762 3.02752 53.3156 3.08166 46.0502C3.10332 43.1771 3.1157 41.7073 3.23482 40.0657C3.60457 34.9477 4.6612 30.0417 5.07427 30.0927C5.62038 30.1593 4.11664 38.8033 5.84006 50.5369C6.67392 56.2181 8.13898 61.7678 8.75161 61.6734C9.43077 61.5682 8.53348 54.6183 9.05793 44.5541C9.3859 38.2602 10.1455 33.1391 10.7442 29.7617C11.9354 29.8653 13.7594 30.1608 15.8031 31.0907C17.5311 31.8766 19.7496 32.8869 21.0151 35.0792C21.7453 36.3464 21.7159 38.712 21.6277 43.3906C21.5566 47.1781 21.3709 48.6432 21.3214 53.031C21.3152 53.6235 21.292 55.5791 21.3214 56.854C21.521 65.6914 24.7512 67.8822 24.5408 74.6386C24.4635 77.145 23.7224 79.5787 22.2419 84.4445C21.4065 87.1923 20.5061 90.152 18.7162 93.7523C16.5008 98.2096 14.683 101.869 11.0521 104.889C9.95831 105.798 8.44684 107.425 5.22742 110.541C4.27753 111.46 3.15283 112.546 3.38798 113.533C3.48699 113.947 3.84591 114.432 5.53374 115.029C8.30296 116.008 10.6901 115.891 11.2052 115.86C15.1688 115.624 16.5627 114.467 17.3362 115.361C18.2118 116.373 16.6292 118.1 17.4894 120.015C18.3851 122.01 21.1481 122.475 23.314 122.84C23.9452 122.947 25.7692 123.238 27.9536 122.825C28.6003 122.703 28.6854 122.63 29.445 122.508C30.8868 122.274 32.0177 122.3 33.4302 122.342C34.5085 122.373 35.0685 122.389 35.8823 122.508C36.5181 122.601 37.5252 122.754 38.6407 123.173C39.5132 123.501 40.8777 124.152 42.3196 125.5C42.5532 125.144 43.353 124.018 44.7716 123.671C45.1135 123.588 45.7401 123.435 46.4579 123.671C47.5501 124.032 47.6352 124.897 48.4505 125C49.1266 125.087 49.3014 124.519 50.4431 124.002C51.9995 123.298 53.1211 123.698 53.2015 123.337C53.3284 122.775 50.4632 122.336 49.3695 120.012C48.9997 119.226 48.6795 117.902 49.0632 117.02C50.1708 114.473 57.1202 115.682 64.2382 116.854C75.9679 118.785 81.8328 119.751 84.6237 120.012C90.6851 120.58 96.5329 120.391 108.229 120.012C111.151 119.918 114.825 119.799 119.265 119.514C133.951 118.57 144.642 116.604 154.826 114.693C159.39 113.838 173.59 111.096 178.584 106.881C178.951 106.572 180.312 105.373 182.416 104.389C183.23 104.008 184.531 103.482 189.621 102.727C193.399 102.166 195.321 101.889 196.978 102.062C199.017 102.276 198.969 102.642 202.65 103.558C206.773 104.584 208.934 105.121 211.539 104.722C212.916 104.511 215.127 103.931 217.67 102.062C219.978 102.562 226.492 103.62 231.159 99.4025C233.913 96.9131 235.537 93.0266 234.838 92.2546C234.252 91.6063 232.321 93.4784 228.094 94.0833C226.55 94.3046 224.145 94.4361 223.956 93.7507C223.677 92.7389 228.531 90.9828 228.247 89.4295C228.111 88.6791 226.81 88.1562 225.795 88.266C224.974 88.3542 224.861 88.7998 222.884 90.0948C221.676 90.8854 221.057 91.283 220.279 91.4238C219.536 91.5599 218.3 91.5893 218.286 91.5893C216.7 91.0571 216.6 90.924 216.6 90.924C215.761 89.8209 217.672 86.4357 217.673 86.4357C217.673 86.4357 216.174 85.3744 214.915 85.2723C213.755 85.1779 212.969 85.9143 212.157 86.4357C212.157 86.4357 210.619 87.4228 205.872 87.5992C200.688 87.7926 192.571 81.0934 188.969 78.5266C185.642 76.1548 179.511 74.3741 167.247 70.8109C155.01 67.2556 143.636 63.9508 137.358 64.661C136.445 64.7646 133.108 65.2381 129.081 63.9957C127.486 63.5037 126.351 62.9173 125.862 62.6667C117.167 58.1923 108.28 54.1588 99.6518 49.5359C99.6518 49.5359 89.0637 43.864 78.3458 37.0704C75.0954 35.0096 72.566 33.3 70.3753 30.0897C68.6194 27.5152 68.5003 26.0547 65.7775 22.4436C64.6683 20.9722 63.8421 20.0919 62.2518 17.7897C61.4891 16.685 61.1735 16.1559 59.7997 14.1338C58.8885 12.7939 57.9494 11.4386 57.5008 10.8089C54.9002 7.16072 53.5991 5.33507 51.8107 4.21492C50.194 3.20153 47.3165 2.96791 41.56 2.49912C40.6921 2.42795 37.2684 2.16648 37.2684 2.16648C37.2684 2.16648 35.4615 1.40064 34.049 1.00302C32.5128 0.572905 31.2782 0.529584 30.5202 0.506377C28.5508 0.447585 28.3203 0.809621 25.155 1.00456C23.3078 1.11905 23.2954 0.999921 22.3966 1.17011C20.2029 1.58475 20.1302 2.31346 18.7177 2.33357C17.3115 2.35369 17.3671 1.63116 14.7325 1.17011C14.0905 1.05717 12.5868 0.837469 12.5868 0.837469C12.5868 0.837469 11.1913 1.51048 9.98152 2.00093C8.09102 2.76678 7.97035 2.55172 6.7621 3.1644C5.77818 3.66413 5.15626 3.97975 4.61634 4.66051C3.94337 5.50835 3.81342 6.39487 3.54268 8.48354C3.1652 11.403 2.97646 12.862 2.93005 13.47C2.80783 15.042 2.67788 17.1306 2.62374 19.62V19.6216Z" fill="#5C5C5C"/>
</svg>
