<svg width="167" height="270" viewBox="0 0 167 270" fill="none" xmlns="http://www.w3.org/2000/svg">
<path d="M16.6305 249.565C15.2655 249.884 13.9828 250.381 13.3034 251.78C13.2798 251.831 13.2616 251.886 13.2302 251.934C12.9268 252.395 12.7025 253.185 12.1647 253.11C11.6151 253.035 11.7396 252.229 11.6667 251.717C11.6313 251.475 11.6307 251.26 11.3298 251.229C11.0717 251.203 10.8116 251.195 10.654 251.461C10.5969 251.558 10.532 251.662 10.5182 251.769C10.2365 253.899 8.79235 255.409 7.67156 257.084C6.66496 258.59 5.74871 260.14 5.05926 261.817C4.94799 262.088 4.81357 263.148 4.81121 263.167C4.82448 263.157 5.51847 262.645 5.76629 262.528C6.79062 262.045 7.86665 262.103 8.92645 262.239C9.78904 262.352 10.3145 263.026 10.6218 263.765C11.7544 266.503 11.0752 267.959 8.73113 269.469C6.909 270.642 3.93079 269.518 2.73113 268.538C0.954456 267.091 0.0893262 265.091 0.00847708 262.886C-0.0407684 261.541 0.126825 260.735 0.451836 259.704C1.25554 257.161 1.96066 254.597 3.10516 252.145C3.9817 250.264 4.58499 248.191 5.00652 246.113C5.34334 244.452 5.89249 242.855 6.44598 241.261C6.7651 240.338 6.66112 239.366 6.85613 238.43C6.97824 237.84 7.06702 237.228 7.43328 236.763C8.57182 235.32 8.87113 233.581 9.17645 231.864C9.45223 230.311 10.2914 229.1 11.2468 227.945C11.552 227.577 11.8617 227.22 12.1335 226.824C12.7855 225.872 13.6321 225.235 14.8434 225.176C15.4428 225.147 16.0378 225.082 16.6305 225V249.565ZM7.57488 264.667C7.07271 264.667 6.77934 264.804 6.49969 264.934C6.21183 265.067 5.9576 265.424 5.94793 265.438C5.94793 265.438 6.27685 265.964 6.7575 266.331C6.90924 266.445 7.22234 266.537 7.46648 266.606C7.91956 266.735 8.22899 266.471 8.48113 266.157C8.67804 265.913 8.81996 265.609 8.58758 265.306C8.34727 264.994 8.087 264.687 7.57488 264.669V264.667Z" fill="#C2C2C2"/>
<path d="M16.6305 159.565C15.2653 159.884 13.9819 160.381 13.3024 161.78C13.2789 161.831 13.2615 161.886 13.2302 161.934C12.9269 162.395 12.7022 163.185 12.1647 163.11C11.6151 163.035 11.7386 162.229 11.6657 161.717C11.6303 161.474 11.6301 161.26 11.3288 161.229C11.0708 161.203 10.8105 161.195 10.653 161.461C10.5959 161.557 10.531 161.662 10.5173 161.769C10.2355 163.899 8.79139 165.409 7.67059 167.084C6.66398 168.59 5.74871 170.14 5.05926 171.817C4.94806 172.087 4.81375 173.147 4.81121 173.167C4.83008 173.153 5.51955 172.645 5.76629 172.528C6.79046 172.046 7.86585 172.103 8.92547 172.239C9.78827 172.352 10.3145 173.025 10.6218 173.765C11.7543 176.502 11.075 177.959 8.73113 179.469C6.909 180.642 3.92981 179.518 2.73016 178.538C0.953754 177.091 0.0893237 175.091 0.00847806 172.886C-0.0407688 171.541 0.126808 170.735 0.451837 169.704C1.25554 167.161 1.96066 164.597 3.10516 162.145C3.98165 160.264 4.58402 158.191 5.00555 156.113C5.34237 154.452 5.89248 152.855 6.44598 151.261C6.7651 150.338 6.66014 149.366 6.85516 148.43C6.97725 147.841 7.06623 147.228 7.43231 146.763C8.57085 145.32 8.87113 143.581 9.17645 141.864C9.45223 140.311 10.2914 139.1 11.2468 137.945C11.5519 137.577 11.8608 137.22 12.1325 136.824C12.7845 135.872 13.632 135.235 14.8434 135.176C15.4428 135.146 16.0377 135.082 16.6305 135V159.565ZM7.57488 174.667C7.07257 174.667 6.77843 174.804 6.49871 174.934C6.20803 175.068 5.95165 175.431 5.94695 175.438C5.94695 175.438 6.27599 175.964 6.75652 176.331C6.90821 176.445 7.22222 176.537 7.46649 176.606C7.91945 176.734 8.22903 176.471 8.48113 176.157C8.67798 175.913 8.81894 175.609 8.5866 175.306C8.34641 174.994 8.08662 174.687 7.57488 174.669V174.667Z" fill="#C2C2C2"/>
<path d="M16.6305 204.565C15.2653 204.884 13.9819 205.381 13.3024 206.78C13.2789 206.831 13.2615 206.886 13.2302 206.934C12.9269 207.395 12.7022 208.185 12.1647 208.11C11.6151 208.035 11.7386 207.229 11.6657 206.717C11.6303 206.474 11.6301 206.26 11.3288 206.229C11.0708 206.203 10.8105 206.195 10.653 206.461C10.5959 206.557 10.531 206.662 10.5173 206.769C10.2355 208.899 8.79139 210.409 7.67059 212.084C6.66398 213.59 5.74871 215.14 5.05926 216.817C4.94806 217.087 4.81375 218.147 4.81121 218.167C4.83008 218.153 5.51955 217.645 5.76629 217.528C6.79046 217.046 7.86585 217.103 8.92547 217.239C9.78827 217.352 10.3145 218.025 10.6218 218.765C11.7543 221.502 11.075 222.959 8.73113 224.469C6.909 225.642 3.92981 224.518 2.73016 223.538C0.953754 222.091 0.0893237 220.091 0.00847806 217.886C-0.0407688 216.541 0.126808 215.735 0.451837 214.704C1.25554 212.161 1.96066 209.597 3.10516 207.145C3.98165 205.264 4.58402 203.191 5.00555 201.113C5.34237 199.452 5.89248 197.855 6.44598 196.261C6.7651 195.338 6.66014 194.366 6.85516 193.43C6.97725 192.841 7.06623 192.228 7.43231 191.763C8.57085 190.32 8.87113 188.581 9.17645 186.864C9.45223 185.311 10.2914 184.1 11.2468 182.945C11.5519 182.577 11.8608 182.22 12.1325 181.824C12.7845 180.872 13.632 180.235 14.8434 180.176C15.4428 180.146 16.0377 180.082 16.6305 180V204.565ZM7.57488 219.667C7.07257 219.667 6.77843 219.804 6.49871 219.934C6.20803 220.068 5.95165 220.431 5.94695 220.438C5.94695 220.438 6.27599 220.964 6.75652 221.331C6.90821 221.445 7.22222 221.537 7.46649 221.606C7.91945 221.734 8.22903 221.471 8.48113 221.157C8.67798 220.913 8.81894 220.609 8.5866 220.306C8.34641 219.994 8.08662 219.687 7.57488 219.669V219.667Z" fill="#C2C2C2"/>
<path d="M16.6305 114.565C15.2656 114.884 13.9828 115.381 13.3034 116.78C13.2799 116.831 13.2624 116.886 13.2311 116.934C12.9278 117.395 12.7025 118.185 12.1647 118.11C11.6155 118.035 11.7396 117.229 11.6667 116.717C11.6313 116.474 11.631 116.26 11.3298 116.229C11.0717 116.203 10.8116 116.195 10.654 116.461C10.5969 116.557 10.532 116.662 10.5182 116.769C10.2365 118.899 8.79236 120.409 7.67156 122.084C6.66496 123.59 5.74871 125.14 5.05926 126.817C4.94791 127.088 4.81335 128.15 4.81121 128.167C4.81121 128.167 5.51709 127.647 5.76726 127.528C6.79146 127.046 7.86681 127.103 8.92644 127.239C9.78925 127.352 10.3154 128.025 10.6227 128.765C11.7553 131.502 11.0752 132.959 8.73113 134.469C6.90898 135.641 3.93074 134.518 2.73113 133.538C0.954595 132.091 0.0893189 130.091 0.0084759 127.886C-0.040768 126.542 0.126845 125.735 0.451835 124.704C1.25554 122.161 1.96066 119.597 3.10516 117.145C3.98172 115.264 4.58497 113.191 5.00652 111.113C5.34333 109.452 5.89251 107.855 6.44598 106.261C6.7651 105.338 6.66111 104.366 6.85613 103.43C6.97823 102.84 7.06712 102.228 7.43328 101.763C8.5718 100.32 8.87113 98.581 9.17644 96.8643C9.45222 95.311 10.2914 94.1004 11.2468 92.9453C11.552 92.5768 11.8617 92.2203 12.1335 91.8242C12.7855 90.8722 13.6329 90.2349 14.8444 90.1758C15.4435 90.1465 16.0381 90.0818 16.6305 90V114.565ZM7.57488 129.667C7.07274 129.667 6.77935 129.804 6.49969 129.934C6.21053 130.068 5.9554 130.427 5.94793 130.438C5.94793 130.438 6.27686 130.964 6.7575 131.331C6.90909 131.445 7.22228 131.537 7.46648 131.606C7.91955 131.735 8.22899 131.471 8.48113 131.157C8.67811 130.913 8.82002 130.609 8.58758 130.306C8.34729 129.994 8.08694 129.687 7.57488 129.669V129.667Z" fill="#C2C2C2"/>
<path d="M16.6305 69.5654C15.2655 69.8838 13.9828 70.3806 13.3034 71.7803C13.2798 71.8315 13.2616 71.8863 13.2302 71.9336C12.9268 72.3948 12.7025 73.1852 12.1647 73.1104C11.6151 73.0354 11.7396 72.2293 11.6667 71.7168C11.6313 71.4745 11.6307 71.2602 11.3298 71.2285C11.0717 71.2029 10.8116 71.1948 10.654 71.4609C10.5969 71.5575 10.532 71.6621 10.5182 71.7686C10.2365 73.8991 8.79235 75.4087 7.67156 77.084C6.66496 78.5899 5.74871 80.14 5.05926 81.8174C4.94798 82.0876 4.81355 83.1485 4.81121 83.167C4.82356 83.1579 5.51827 82.6456 5.76629 82.5283C6.79062 82.0454 7.86665 82.1033 8.92645 82.2393C9.78907 82.3517 10.3155 83.0256 10.6227 83.7646C11.7552 86.5023 11.0752 87.9589 8.73113 89.4688C6.909 90.6416 3.93079 89.5177 2.73113 88.5381C0.954472 87.0914 0.0893254 85.0912 0.00847695 82.8857C-0.0407684 81.5415 0.126827 80.7349 0.451836 79.7041C1.25554 77.1614 1.96066 74.5966 3.10516 72.1445C3.9817 70.2641 4.58498 68.1908 5.00652 66.1133C5.34334 64.4518 5.8925 62.8552 6.44598 61.2607C6.7651 60.3383 6.66112 59.366 6.85613 58.4297C6.97824 57.8404 7.06703 57.2278 7.43328 56.7627C8.57182 55.3199 8.87113 53.581 9.17645 51.8643C9.45223 50.311 10.2914 49.1004 11.2468 47.9453C11.552 47.5768 11.8617 47.2203 12.1335 46.8242C12.7855 45.8722 13.6321 45.235 14.8434 45.1758C15.4428 45.1465 16.0378 45.0818 16.6305 45V69.5654ZM7.57488 84.667C7.07269 84.667 6.77935 84.8035 6.49969 84.9336C6.2117 85.067 5.95737 85.4241 5.94793 85.4375C5.94793 85.4375 6.27685 85.9644 6.7575 86.3311C6.90922 86.4453 7.22234 86.5375 7.46648 86.6064C7.91956 86.7346 8.22899 86.4706 8.48113 86.1572C8.67805 85.9128 8.81997 85.6091 8.58758 85.3057C8.34726 84.9942 8.08702 84.6867 7.57488 84.6689V84.667Z" fill="#C2C2C2"/>
<path d="M16.6305 24.5654C15.2654 24.8837 13.9829 25.3806 13.3034 26.7803C13.2798 26.8314 13.2616 26.8863 13.2302 26.9336C12.9269 27.3947 12.7023 28.1849 12.1647 28.1104C11.6151 28.0354 11.7386 27.2293 11.6657 26.7168C11.6303 26.4745 11.6301 26.26 11.3288 26.2285C11.0708 26.2029 10.8105 26.1949 10.653 26.4609C10.5959 26.5574 10.531 26.6622 10.5173 26.7686C10.2355 28.8992 8.79139 30.4086 7.67059 32.084C6.66398 33.5899 5.74871 35.14 5.05926 36.8174C4.94805 37.0872 4.81372 38.1471 4.81121 38.167C4.82946 38.1535 5.51943 37.645 5.76629 37.5283C6.79046 37.0455 7.86585 37.1033 8.92547 37.2393C9.78827 37.3516 10.3145 38.0255 10.6218 38.7646C11.7543 41.5024 11.0751 42.9589 8.73113 44.4688C6.909 45.6416 3.92981 44.5177 2.73016 43.5381C0.95377 42.0914 0.0893229 40.0911 0.00847799 37.8857C-0.0407687 36.5414 0.12681 35.735 0.451837 34.7041C1.25555 32.1614 1.96066 29.5966 3.10516 27.1445C3.98165 25.2642 4.58402 23.1907 5.00555 21.1133C5.34237 19.4518 5.89249 17.8553 6.44598 16.2607C6.7651 15.3383 6.66014 14.366 6.85516 13.4297C6.97725 12.8405 7.06624 12.2278 7.43231 11.7627C8.57085 10.3199 8.87113 8.58104 9.17645 6.86426C9.45223 5.31102 10.2914 4.10038 11.2468 2.94531C11.5519 2.57693 11.8608 2.22016 12.1325 1.82422C12.7845 0.872172 13.632 0.234915 14.8434 0.175781C15.4428 0.146496 16.0377 0.0818126 16.6305 0V24.5654ZM7.57488 39.667C7.07257 39.667 6.77843 39.8035 6.49871 39.9336C6.20776 40.0686 5.95116 40.4315 5.94695 40.4375C5.94695 40.4375 6.27685 40.9644 6.7575 41.3311C6.90932 41.4452 7.22242 41.5375 7.46649 41.6064C7.91947 41.7345 8.22902 41.4706 8.48113 41.1572C8.67799 40.9129 8.81894 40.6091 8.5866 40.3057C8.34641 39.9944 8.08664 39.6868 7.57488 39.6689V39.667Z" fill="#C2C2C2"/>
<path d="M46.6305 249.565C45.2653 249.884 43.9819 250.381 43.3024 251.78C43.2789 251.831 43.2615 251.886 43.2302 251.934C42.9269 252.395 42.7022 253.185 42.1647 253.11C41.6151 253.035 41.7386 252.229 41.6657 251.717C41.6303 251.474 41.6301 251.26 41.3288 251.229C41.0708 251.203 40.8105 251.195 40.653 251.461C40.5959 251.557 40.531 251.662 40.5173 251.769C40.2355 253.899 38.7914 255.409 37.6706 257.084C36.664 258.59 35.7487 260.14 35.0593 261.817C34.9481 262.087 34.8137 263.147 34.8112 263.167C34.8301 263.153 35.5195 262.645 35.7663 262.528C36.7905 262.046 37.8659 262.103 38.9255 262.239C39.7883 262.352 40.3145 263.025 40.6218 263.765C41.7543 266.502 41.075 267.959 38.7311 269.469C36.909 270.642 33.9298 269.518 32.7302 268.538C30.9538 267.091 30.0893 265.091 30.0085 262.886C29.9592 261.541 30.1268 260.735 30.4518 259.704C31.2555 257.161 31.9607 254.597 33.1052 252.145C33.9817 250.264 34.584 248.191 35.0055 246.113C35.3424 244.452 35.8925 242.855 36.446 241.261C36.7651 240.338 36.6601 239.366 36.8552 238.43C36.9772 237.841 37.0662 237.228 37.4323 236.763C38.5709 235.32 38.8711 233.581 39.1764 231.864C39.4522 230.311 40.2914 229.1 41.2468 227.945C41.5519 227.577 41.8608 227.22 42.1325 226.824C42.7845 225.872 43.632 225.235 44.8434 225.176C45.4428 225.146 46.0377 225.082 46.6305 225V249.565ZM37.5749 264.667C37.0726 264.667 36.7784 264.804 36.4987 264.934C36.208 265.068 35.9517 265.431 35.947 265.438C35.947 265.438 36.276 265.964 36.7565 266.331C36.9082 266.445 37.2222 266.537 37.4665 266.606C37.9194 266.734 38.229 266.471 38.4811 266.157C38.678 265.913 38.8189 265.609 38.5866 265.306C38.3464 264.994 38.0866 264.687 37.5749 264.669V264.667Z" fill="#C2C2C2"/>
<path d="M46.6305 159.565C45.2656 159.884 43.9828 160.381 43.3034 161.78C43.2799 161.831 43.2624 161.886 43.2311 161.934C42.9278 162.395 42.7025 163.185 42.1647 163.11C41.6155 163.035 41.7396 162.229 41.6667 161.717C41.6313 161.474 41.631 161.26 41.3298 161.229C41.0717 161.203 40.8116 161.195 40.654 161.461C40.5969 161.557 40.532 161.662 40.5182 161.769C40.2365 163.899 38.7924 165.409 37.6716 167.084C36.665 168.59 35.7487 170.14 35.0593 171.817C34.9479 172.088 34.8134 173.15 34.8112 173.167C34.8112 173.167 35.5171 172.647 35.7673 172.528C36.7915 172.046 37.8668 172.103 38.9264 172.239C39.7892 172.352 40.3154 173.025 40.6227 173.765C41.7553 176.502 41.0752 177.959 38.7311 179.469C36.909 180.641 33.9307 179.518 32.7311 178.538C30.9546 177.091 30.0893 175.091 30.0085 172.886C29.9592 171.542 30.1268 170.735 30.4518 169.704C31.2555 167.161 31.9607 164.597 33.1052 162.145C33.9817 160.264 34.585 158.191 35.0065 156.113C35.3433 154.452 35.8925 152.855 36.446 151.261C36.7651 150.338 36.6611 149.366 36.8561 148.43C36.9782 147.84 37.0671 147.228 37.4333 146.763C38.5718 145.32 38.8711 143.581 39.1764 141.864C39.4522 140.311 40.2914 139.1 41.2468 137.945C41.552 137.577 41.8617 137.22 42.1335 136.824C42.7855 135.872 43.6329 135.235 44.8444 135.176C45.4435 135.146 46.0381 135.082 46.6305 135V159.565ZM37.5749 174.667C37.0727 174.667 36.7794 174.804 36.4997 174.934C36.2105 175.068 35.9554 175.427 35.9479 175.438C35.9479 175.438 36.2769 175.964 36.7575 176.331C36.9091 176.445 37.2223 176.537 37.4665 176.606C37.9196 176.735 38.229 176.471 38.4811 176.157C38.6781 175.913 38.82 175.609 38.5876 175.306C38.3473 174.994 38.0869 174.687 37.5749 174.669V174.667Z" fill="#C2C2C2"/>
<path d="M46.6305 204.565C45.2656 204.884 43.9828 205.381 43.3034 206.78C43.2799 206.831 43.2624 206.886 43.2311 206.934C42.9278 207.395 42.7025 208.185 42.1647 208.11C41.6155 208.035 41.7396 207.229 41.6667 206.717C41.6313 206.474 41.631 206.26 41.3298 206.229C41.0717 206.203 40.8116 206.195 40.654 206.461C40.5969 206.557 40.532 206.662 40.5182 206.769C40.2365 208.899 38.7924 210.409 37.6716 212.084C36.665 213.59 35.7487 215.14 35.0593 216.817C34.9479 217.088 34.8134 218.15 34.8112 218.167C34.8112 218.167 35.5171 217.647 35.7673 217.528C36.7915 217.046 37.8668 217.103 38.9264 217.239C39.7892 217.352 40.3154 218.025 40.6227 218.765C41.7553 221.502 41.0752 222.959 38.7311 224.469C36.909 225.641 33.9307 224.518 32.7311 223.538C30.9546 222.091 30.0893 220.091 30.0085 217.886C29.9592 216.542 30.1268 215.735 30.4518 214.704C31.2555 212.161 31.9607 209.597 33.1052 207.145C33.9817 205.264 34.585 203.191 35.0065 201.113C35.3433 199.452 35.8925 197.855 36.446 196.261C36.7651 195.338 36.6611 194.366 36.8561 193.43C36.9782 192.84 37.0671 192.228 37.4333 191.763C38.5718 190.32 38.8711 188.581 39.1764 186.864C39.4522 185.311 40.2914 184.1 41.2468 182.945C41.552 182.577 41.8617 182.22 42.1335 181.824C42.7855 180.872 43.6329 180.235 44.8444 180.176C45.4435 180.146 46.0381 180.082 46.6305 180V204.565ZM37.5749 219.667C37.0727 219.667 36.7794 219.804 36.4997 219.934C36.2105 220.068 35.9554 220.427 35.9479 220.438C35.9479 220.438 36.2769 220.964 36.7575 221.331C36.9091 221.445 37.2223 221.537 37.4665 221.606C37.9196 221.735 38.229 221.471 38.4811 221.157C38.6781 220.913 38.82 220.609 38.5876 220.306C38.3473 219.994 38.0869 219.687 37.5749 219.669V219.667Z" fill="#C2C2C2"/>
<path d="M46.6305 114.565C45.2655 114.884 43.9828 115.381 43.3034 116.78C43.2798 116.831 43.2616 116.886 43.2302 116.934C42.9268 117.395 42.7025 118.185 42.1647 118.11C41.6151 118.035 41.7396 117.229 41.6667 116.717C41.6313 116.475 41.6307 116.26 41.3298 116.229C41.0717 116.203 40.8116 116.195 40.654 116.461C40.5969 116.558 40.532 116.662 40.5182 116.769C40.2365 118.899 38.7924 120.409 37.6716 122.084C36.665 123.59 35.7487 125.14 35.0593 126.817C34.948 127.088 34.8135 128.149 34.8112 128.167C34.8236 128.158 35.5183 127.646 35.7663 127.528C36.7906 127.045 37.8667 127.103 38.9264 127.239C39.7891 127.352 40.3155 128.026 40.6227 128.765C41.7552 131.502 41.0752 132.959 38.7311 134.469C36.909 135.642 33.9308 134.518 32.7311 133.538C30.9545 132.091 30.0893 130.091 30.0085 127.886C29.9592 126.541 30.1268 125.735 30.4518 124.704C31.2555 122.161 31.9607 119.597 33.1052 117.145C33.9817 115.264 34.585 113.191 35.0065 111.113C35.3433 109.452 35.8925 107.855 36.446 106.261C36.7651 105.338 36.6611 104.366 36.8561 103.43C36.9782 102.84 37.067 102.228 37.4333 101.763C38.5718 100.32 38.8711 98.581 39.1764 96.8643C39.4522 95.311 40.2914 94.1004 41.2468 92.9453C41.552 92.5768 41.8617 92.2203 42.1335 91.8242C42.7855 90.8722 43.6321 90.235 44.8434 90.1758C45.4428 90.1465 46.0378 90.0818 46.6305 90V114.565ZM37.5749 129.667C37.0727 129.667 36.7793 129.804 36.4997 129.934C36.2117 130.067 35.9574 130.424 35.9479 130.438C35.9479 130.438 36.2769 130.964 36.7575 131.331C36.9092 131.445 37.2223 131.537 37.4665 131.606C37.9196 131.735 38.229 131.471 38.4811 131.157C38.678 130.913 38.82 130.609 38.5876 130.306C38.3473 129.994 38.087 129.687 37.5749 129.669V129.667Z" fill="#C2C2C2"/>
<path d="M46.6305 69.5654C45.2654 69.8837 43.9829 70.3806 43.3034 71.7803C43.2798 71.8314 43.2616 71.8863 43.2302 71.9336C42.9269 72.3947 42.7023 73.1849 42.1647 73.1104C41.6151 73.0354 41.7386 72.2293 41.6657 71.7168C41.6303 71.4745 41.6301 71.26 41.3288 71.2285C41.0708 71.2029 40.8105 71.1949 40.653 71.4609C40.5959 71.5574 40.531 71.6622 40.5173 71.7686C40.2355 73.8992 38.7914 75.4086 37.6706 77.084C36.664 78.5899 35.7487 80.14 35.0593 81.8174C34.948 82.0872 34.8137 83.1471 34.8112 83.167C34.8295 83.1535 35.5194 82.645 35.7663 82.5283C36.7905 82.0455 37.8659 82.1033 38.9255 82.2393C39.7883 82.3516 40.3145 83.0255 40.6218 83.7646C41.7543 86.5024 41.0751 87.9589 38.7311 89.4688C36.909 90.6416 33.9298 89.5177 32.7302 88.5381C30.9538 87.0914 30.0893 85.0911 30.0085 82.8857C29.9592 81.5414 30.1268 80.735 30.4518 79.7041C31.2555 77.1614 31.9607 74.5966 33.1052 72.1445C33.9817 70.2642 34.584 68.1907 35.0055 66.1133C35.3424 64.4518 35.8925 62.8553 36.446 61.2607C36.7651 60.3383 36.6601 59.366 36.8552 58.4297C36.9772 57.8405 37.0662 57.2278 37.4323 56.7627C38.5709 55.3199 38.8711 53.581 39.1764 51.8643C39.4522 50.311 40.2914 49.1004 41.2468 47.9453C41.5519 47.5769 41.8608 47.2202 42.1325 46.8242C42.7845 45.8722 43.632 45.2349 44.8434 45.1758C45.4428 45.1465 46.0377 45.0818 46.6305 45V69.5654ZM37.5749 84.667C37.0726 84.667 36.7784 84.8035 36.4987 84.9336C36.2078 85.0686 35.9512 85.4315 35.947 85.4375C35.947 85.4375 36.2769 85.9644 36.7575 86.3311C36.9093 86.4452 37.2224 86.5375 37.4665 86.6064C37.9195 86.7345 38.229 86.4706 38.4811 86.1572C38.678 85.9129 38.8189 85.6091 38.5866 85.3057C38.3464 84.9944 38.0866 84.6868 37.5749 84.6689V84.667Z" fill="#C2C2C2"/>
<path d="M46.6305 24.5654C45.2656 24.8838 43.9827 25.3807 43.3034 26.7803C43.2799 26.8313 43.2625 26.8864 43.2311 26.9336C42.9278 27.3948 42.7025 28.1853 42.1647 28.1104C41.6155 28.0352 41.7395 27.2292 41.6667 26.7168C41.6313 26.4744 41.6311 26.26 41.3298 26.2285C41.0717 26.2029 40.8116 26.1948 40.654 26.4609C40.5969 26.5575 40.532 26.6622 40.5182 26.7686C40.2365 28.8991 38.7924 30.4087 37.6716 32.084C36.665 33.5899 35.7487 35.14 35.0593 36.8174C34.9479 37.088 34.8133 38.1502 34.8112 38.167C34.8112 38.167 35.5171 37.6466 35.7673 37.5283C36.7915 37.0456 37.8668 37.1033 38.9264 37.2393C39.7892 37.3516 40.3154 38.0255 40.6227 38.7646C41.7553 41.5024 41.0752 42.9589 38.7311 44.4688C36.909 45.6413 33.9307 44.5177 32.7311 43.5381C30.9546 42.0914 30.0893 40.0911 30.0085 37.8857C29.9592 36.5415 30.1268 35.7349 30.4518 34.7041C31.2555 32.1614 31.9607 29.5966 33.1052 27.1445C33.9817 25.2641 34.585 23.1908 35.0065 21.1133C35.3434 19.4517 35.8934 17.8553 36.447 16.2607C36.7661 15.3383 36.6611 14.366 36.8561 13.4297C36.9782 12.8405 37.0671 12.2278 37.4333 11.7627C38.5718 10.3199 38.8711 8.581 39.1764 6.86426C39.4522 5.31106 40.2914 4.10036 41.2468 2.94531C41.552 2.57679 41.8617 2.22031 42.1335 1.82422C42.7855 0.872172 43.6329 0.234915 44.8444 0.175781C45.4435 0.146499 46.0381 0.0817557 46.6305 0V24.5654ZM37.5749 39.667C37.0728 39.6671 36.7793 39.8035 36.4997 39.9336C36.2104 40.0677 35.9551 40.4273 35.9479 40.4375C35.9479 40.4375 36.2769 40.9644 36.7575 41.3311C36.9091 41.4453 37.2223 41.5375 37.4665 41.6064C37.9196 41.7346 38.229 41.4706 38.4811 41.1572C38.6781 40.9128 38.82 40.6092 38.5876 40.3057C38.3473 39.9943 38.0869 39.6867 37.5749 39.6689V39.667Z" fill="#C2C2C2"/>
<path d="M76.6305 249.565C75.2656 249.884 73.9828 250.381 73.3034 251.78C73.2799 251.831 73.2624 251.886 73.2311 251.934C72.9278 252.395 72.7025 253.185 72.1647 253.11C71.6155 253.035 71.7396 252.229 71.6667 251.717C71.6313 251.474 71.631 251.26 71.3298 251.229C71.0717 251.203 70.8116 251.195 70.654 251.461C70.5969 251.557 70.532 251.662 70.5182 251.769C70.2365 253.899 68.7924 255.409 67.6716 257.084C66.665 258.59 65.7487 260.14 65.0593 261.817C64.9479 262.088 64.8134 263.15 64.8112 263.167C64.8112 263.167 65.5171 262.647 65.7673 262.528C66.7915 262.046 67.8668 262.103 68.9264 262.239C69.7892 262.352 70.3154 263.025 70.6227 263.765C71.7553 266.502 71.0752 267.959 68.7311 269.469C66.909 270.641 63.9307 269.518 62.7311 268.538C60.9546 267.091 60.0893 265.091 60.0085 262.886C59.9592 261.542 60.1268 260.735 60.4518 259.704C61.2555 257.161 61.9607 254.597 63.1052 252.145C63.9817 250.264 64.585 248.191 65.0065 246.113C65.3433 244.452 65.8925 242.855 66.446 241.261C66.7651 240.338 66.6611 239.366 66.8561 238.43C66.9782 237.84 67.0671 237.228 67.4333 236.763C68.5718 235.32 68.8711 233.581 69.1764 231.864C69.4522 230.311 70.2914 229.1 71.2468 227.945C71.552 227.577 71.8617 227.22 72.1335 226.824C72.7855 225.872 73.6329 225.235 74.8444 225.176C75.4435 225.146 76.0381 225.082 76.6305 225V249.565ZM67.5749 264.667C67.0727 264.667 66.7794 264.804 66.4997 264.934C66.2105 265.068 65.9554 265.427 65.9479 265.438C65.9479 265.438 66.2769 265.964 66.7575 266.331C66.9091 266.445 67.2223 266.537 67.4665 266.606C67.9196 266.735 68.229 266.471 68.4811 266.157C68.6781 265.913 68.82 265.609 68.5876 265.306C68.3473 264.994 68.0869 264.687 67.5749 264.669V264.667Z" fill="#C2C2C2"/>
<path d="M76.6305 159.565C75.2655 159.884 73.9828 160.381 73.3034 161.78C73.2798 161.831 73.2616 161.886 73.2302 161.934C72.9268 162.395 72.7025 163.185 72.1647 163.11C71.6151 163.035 71.7396 162.229 71.6667 161.717C71.6313 161.475 71.6307 161.26 71.3298 161.229C71.0717 161.203 70.8116 161.195 70.654 161.461C70.5969 161.558 70.532 161.662 70.5182 161.769C70.2365 163.899 68.7924 165.409 67.6716 167.084C66.665 168.59 65.7487 170.14 65.0593 171.817C64.948 172.088 64.8135 173.149 64.8112 173.167C64.8236 173.158 65.5183 172.646 65.7663 172.528C66.7906 172.045 67.8667 172.103 68.9264 172.239C69.7891 172.352 70.3155 173.026 70.6227 173.765C71.7552 176.502 71.0752 177.959 68.7311 179.469C66.909 180.642 63.9308 179.518 62.7311 178.538C60.9545 177.091 60.0893 175.091 60.0085 172.886C59.9592 171.541 60.1268 170.735 60.4518 169.704C61.2555 167.161 61.9607 164.597 63.1052 162.145C63.9817 160.264 64.585 158.191 65.0065 156.113C65.3433 154.452 65.8925 152.855 66.446 151.261C66.7651 150.338 66.6611 149.366 66.8561 148.43C66.9782 147.84 67.067 147.228 67.4333 146.763C68.5718 145.32 68.8711 143.581 69.1764 141.864C69.4522 140.311 70.2914 139.1 71.2468 137.945C71.552 137.577 71.8617 137.22 72.1335 136.824C72.7855 135.872 73.6321 135.235 74.8434 135.176C75.4428 135.147 76.0378 135.082 76.6305 135V159.565ZM67.5749 174.667C67.0727 174.667 66.7793 174.804 66.4997 174.934C66.2117 175.067 65.9574 175.424 65.9479 175.438C65.9479 175.438 66.2769 175.964 66.7575 176.331C66.9092 176.445 67.2223 176.537 67.4665 176.606C67.9196 176.735 68.229 176.471 68.4811 176.157C68.678 175.913 68.82 175.609 68.5876 175.306C68.3473 174.994 68.087 174.687 67.5749 174.669V174.667Z" fill="#C2C2C2"/>
<path d="M76.6305 204.565C75.2655 204.884 73.9828 205.381 73.3034 206.78C73.2798 206.831 73.2616 206.886 73.2302 206.934C72.9268 207.395 72.7025 208.185 72.1647 208.11C71.6151 208.035 71.7396 207.229 71.6667 206.717C71.6313 206.475 71.6307 206.26 71.3298 206.229C71.0717 206.203 70.8116 206.195 70.654 206.461C70.5969 206.558 70.532 206.662 70.5182 206.769C70.2365 208.899 68.7924 210.409 67.6716 212.084C66.665 213.59 65.7487 215.14 65.0593 216.817C64.948 217.088 64.8135 218.149 64.8112 218.167C64.8236 218.158 65.5183 217.646 65.7663 217.528C66.7906 217.045 67.8667 217.103 68.9264 217.239C69.7891 217.352 70.3155 218.026 70.6227 218.765C71.7552 221.502 71.0752 222.959 68.7311 224.469C66.909 225.642 63.9308 224.518 62.7311 223.538C60.9545 222.091 60.0893 220.091 60.0085 217.886C59.9592 216.541 60.1268 215.735 60.4518 214.704C61.2555 212.161 61.9607 209.597 63.1052 207.145C63.9817 205.264 64.585 203.191 65.0065 201.113C65.3433 199.452 65.8925 197.855 66.446 196.261C66.7651 195.338 66.6611 194.366 66.8561 193.43C66.9782 192.84 67.067 192.228 67.4333 191.763C68.5718 190.32 68.8711 188.581 69.1764 186.864C69.4522 185.311 70.2914 184.1 71.2468 182.945C71.552 182.577 71.8617 182.22 72.1335 181.824C72.7855 180.872 73.6321 180.235 74.8434 180.176C75.4428 180.147 76.0378 180.082 76.6305 180V204.565ZM67.5749 219.667C67.0727 219.667 66.7793 219.804 66.4997 219.934C66.2117 220.067 65.9574 220.424 65.9479 220.438C65.9479 220.438 66.2769 220.964 66.7575 221.331C66.9092 221.445 67.2223 221.537 67.4665 221.606C67.9196 221.735 68.229 221.471 68.4811 221.157C68.678 220.913 68.82 220.609 68.5876 220.306C68.3473 219.994 68.087 219.687 67.5749 219.669V219.667Z" fill="#C2C2C2"/>
<path d="M76.6305 114.565C75.2654 114.884 73.9829 115.381 73.3034 116.78C73.2798 116.831 73.2616 116.886 73.2302 116.934C72.9269 117.395 72.7023 118.185 72.1647 118.11C71.6151 118.035 71.7386 117.229 71.6657 116.717C71.6303 116.474 71.6301 116.26 71.3288 116.229C71.0708 116.203 70.8105 116.195 70.653 116.461C70.5959 116.557 70.531 116.662 70.5173 116.769C70.2355 118.899 68.7914 120.409 67.6706 122.084C66.664 123.59 65.7487 125.14 65.0593 126.817C64.948 127.087 64.8137 128.147 64.8112 128.167C64.8295 128.154 65.5194 127.645 65.7663 127.528C66.7905 127.046 67.8659 127.103 68.9255 127.239C69.7883 127.352 70.3145 128.025 70.6218 128.765C71.7543 131.502 71.0751 132.959 68.7311 134.469C66.909 135.642 63.9298 134.518 62.7302 133.538C60.9538 132.091 60.0893 130.091 60.0085 127.886C59.9592 126.541 60.1268 125.735 60.4518 124.704C61.2555 122.161 61.9607 119.597 63.1052 117.145C63.9817 115.264 64.584 113.191 65.0055 111.113C65.3424 109.452 65.8925 107.855 66.446 106.261C66.7651 105.338 66.6601 104.366 66.8552 103.43C66.9772 102.841 67.0662 102.228 67.4323 101.763C68.5709 100.32 68.8711 98.581 69.1764 96.8643C69.4522 95.311 70.2914 94.1004 71.2468 92.9453C71.5519 92.5769 71.8608 92.2202 72.1325 91.8242C72.7845 90.8722 73.632 90.2349 74.8434 90.1758C75.4428 90.1465 76.0377 90.0818 76.6305 90V114.565ZM67.5749 129.667C67.0726 129.667 66.7784 129.804 66.4987 129.934C66.2078 130.069 65.9512 130.432 65.947 130.438C65.947 130.438 66.2769 130.964 66.7575 131.331C66.9093 131.445 67.2224 131.538 67.4665 131.606C67.9195 131.734 68.229 131.471 68.4811 131.157C68.678 130.913 68.8189 130.609 68.5866 130.306C68.3464 129.994 68.0866 129.687 67.5749 129.669V129.667Z" fill="#C2C2C2"/>
<path d="M76.6305 69.5654C75.2656 69.8838 73.9827 70.3807 73.3034 71.7803C73.2799 71.8313 73.2625 71.8864 73.2311 71.9336C72.9278 72.3948 72.7025 73.1853 72.1647 73.1104C71.6155 73.0352 71.7395 72.2292 71.6667 71.7168C71.6313 71.4744 71.6311 71.26 71.3298 71.2285C71.0717 71.2029 70.8116 71.1948 70.654 71.4609C70.5969 71.5575 70.532 71.6622 70.5182 71.7686C70.2365 73.8991 68.7924 75.4087 67.6716 77.084C66.665 78.5899 65.7487 80.14 65.0593 81.8174C64.9479 82.088 64.8133 83.1502 64.8112 83.167C64.8112 83.167 65.5171 82.6466 65.7673 82.5283C66.7915 82.0456 67.8668 82.1033 68.9264 82.2393C69.7892 82.3516 70.3154 83.0255 70.6227 83.7646C71.7553 86.5024 71.0752 87.9589 68.7311 89.4688C66.909 90.6413 63.9307 89.5177 62.7311 88.5381C60.9546 87.0914 60.0893 85.0911 60.0085 82.8857C59.9592 81.5415 60.1268 80.7349 60.4518 79.7041C61.2555 77.1614 61.9607 74.5966 63.1052 72.1445C63.9817 70.2641 64.585 68.1908 65.0065 66.1133C65.3434 64.4517 65.8934 62.8553 66.447 61.2607C66.7661 60.3383 66.6611 59.366 66.8561 58.4297C66.9782 57.8405 67.0671 57.2278 67.4333 56.7627C68.5718 55.3199 68.8711 53.581 69.1764 51.8643C69.4522 50.3111 70.2914 49.1004 71.2468 47.9453C71.552 47.5768 71.8617 47.2203 72.1335 46.8242C72.7855 45.8722 73.6329 45.2349 74.8444 45.1758C75.4435 45.1465 76.0381 45.0818 76.6305 45V69.5654ZM67.5749 84.667C67.0728 84.6671 66.7793 84.8035 66.4997 84.9336C66.2104 85.0677 65.9551 85.4273 65.9479 85.4375C65.9479 85.4375 66.2769 85.9644 66.7575 86.3311C66.9091 86.4453 67.2223 86.5375 67.4665 86.6064C67.9196 86.7346 68.229 86.4706 68.4811 86.1572C68.6781 85.9128 68.82 85.6092 68.5876 85.3057C68.3473 84.9943 68.0869 84.6867 67.5749 84.6689V84.667Z" fill="#C2C2C2"/>
<path d="M76.6305 24.5654C75.2655 24.8838 73.9828 25.3806 73.3034 26.7803C73.2798 26.8315 73.2616 26.8863 73.2302 26.9336C72.9268 27.3948 72.7025 28.1853 72.1647 28.1104C71.6151 28.0354 71.7396 27.2293 71.6667 26.7168C71.6313 26.4745 71.6308 26.2602 71.3298 26.2285C71.0717 26.2029 70.8116 26.1948 70.654 26.4609C70.5969 26.5575 70.532 26.6621 70.5182 26.7686C70.2365 28.8991 68.7924 30.4087 67.6716 32.084C66.665 33.5899 65.7487 35.14 65.0593 36.8174C64.948 37.0876 64.8135 38.1487 64.8112 38.167C64.8226 38.1586 65.5181 37.6457 65.7663 37.5283C66.7906 37.0454 67.8667 37.1033 68.9264 37.2393C69.7891 37.3517 70.3155 38.0256 70.6227 38.7646C71.7552 41.5023 71.0752 42.9589 68.7311 44.4688C66.909 45.6416 63.9308 44.5177 62.7311 43.5381C60.9545 42.0914 60.0893 40.0912 60.0085 37.8857C59.9592 36.5415 60.1268 35.7349 60.4518 34.7041C61.2555 32.1614 61.9607 29.5966 63.1052 27.1445C63.9817 25.2641 64.585 23.1908 65.0065 21.1133C65.3433 19.4518 65.8925 17.8552 66.446 16.2607C66.7651 15.3383 66.6611 14.366 66.8561 13.4297C66.9782 12.8404 67.067 12.2278 67.4333 11.7627C68.5718 10.3199 68.8711 8.58102 69.1764 6.86426C69.4522 5.31102 70.2914 4.10038 71.2468 2.94531C71.552 2.57677 71.8617 2.22034 72.1335 1.82422C72.7855 0.872246 73.6321 0.235 74.8434 0.175781C75.4427 0.146503 76.0378 0.081793 76.6305 0V24.5654ZM67.5749 39.667C67.0727 39.667 66.7794 39.8035 66.4997 39.9336C66.2116 40.0671 65.9571 40.4244 65.9479 40.4375C65.9479 40.4375 66.2769 40.9644 66.7575 41.3311C66.9092 41.4453 67.2223 41.5375 67.4665 41.6064C67.9196 41.7346 68.229 41.4706 68.4811 41.1572C68.6781 40.9128 68.82 40.6092 68.5876 40.3057C68.3473 39.9942 68.087 39.6867 67.5749 39.6689V39.667Z" fill="#C2C2C2"/>
<path d="M106.631 249.565C105.265 249.884 103.983 250.381 103.303 251.78C103.28 251.831 103.262 251.886 103.23 251.934C102.927 252.395 102.702 253.185 102.165 253.11C101.615 253.035 101.74 252.229 101.667 251.717C101.631 251.475 101.631 251.26 101.33 251.229C101.072 251.203 100.812 251.195 100.654 251.461C100.597 251.558 100.532 251.662 100.518 251.769C100.237 253.899 98.7924 255.409 97.6716 257.084C96.665 258.59 95.7487 260.14 95.0593 261.817C94.948 262.088 94.8135 263.149 94.8112 263.167C94.8236 263.158 95.5183 262.646 95.7663 262.528C96.7906 262.045 97.8667 262.103 98.9264 262.239C99.7891 262.352 100.315 263.026 100.623 263.765C101.755 266.502 101.075 267.959 98.7311 269.469C96.909 270.642 93.9308 269.518 92.7311 268.538C90.9545 267.091 90.0893 265.091 90.0085 262.886C89.9592 261.541 90.1268 260.735 90.4518 259.704C91.2555 257.161 91.9607 254.597 93.1052 252.145C93.9817 250.264 94.585 248.191 95.0065 246.113C95.3433 244.452 95.8925 242.855 96.446 241.261C96.7651 240.338 96.6611 239.366 96.8561 238.43C96.9782 237.84 97.067 237.228 97.4333 236.763C98.5718 235.32 98.8711 233.581 99.1764 231.864C99.4522 230.311 100.291 229.1 101.247 227.945C101.552 227.577 101.862 227.22 102.133 226.824C102.785 225.872 103.632 225.235 104.843 225.176C105.443 225.147 106.038 225.082 106.631 225V249.565ZM97.5749 264.667C97.0727 264.667 96.7793 264.804 96.4997 264.934C96.2117 265.067 95.9574 265.424 95.9479 265.438C95.9479 265.438 96.2769 265.964 96.7575 266.331C96.9092 266.445 97.2223 266.537 97.4665 266.606C97.9196 266.735 98.229 266.471 98.4811 266.157C98.678 265.913 98.82 265.609 98.5876 265.306C98.3473 264.994 98.087 264.687 97.5749 264.669V264.667Z" fill="#C2C2C2"/>
<path d="M106.631 159.565C105.265 159.884 103.983 160.381 103.303 161.78C103.28 161.831 103.262 161.886 103.23 161.934C102.927 162.395 102.702 163.185 102.165 163.11C101.615 163.035 101.739 162.229 101.666 161.717C101.63 161.474 101.63 161.26 101.329 161.229C101.071 161.203 100.811 161.195 100.653 161.461C100.596 161.557 100.531 161.662 100.517 161.769C100.235 163.899 98.7914 165.409 97.6706 167.084C96.664 168.59 95.7487 170.14 95.0593 171.817C94.948 172.087 94.8137 173.147 94.8112 173.167C94.8295 173.154 95.5194 172.645 95.7663 172.528C96.7905 172.046 97.8659 172.103 98.9255 172.239C99.7883 172.352 100.314 173.025 100.622 173.765C101.754 176.502 101.075 177.959 98.7311 179.469C96.909 180.642 93.9298 179.518 92.7302 178.538C90.9538 177.091 90.0893 175.091 90.0085 172.886C89.9592 171.541 90.1268 170.735 90.4518 169.704C91.2555 167.161 91.9607 164.597 93.1052 162.145C93.9817 160.264 94.584 158.191 95.0055 156.113C95.3424 154.452 95.8925 152.855 96.446 151.261C96.7651 150.338 96.6601 149.366 96.8552 148.43C96.9772 147.841 97.0662 147.228 97.4323 146.763C98.5709 145.32 98.8711 143.581 99.1764 141.864C99.4522 140.311 100.291 139.1 101.247 137.945C101.552 137.577 101.861 137.22 102.133 136.824C102.785 135.872 103.632 135.235 104.843 135.176C105.443 135.146 106.038 135.082 106.631 135V159.565ZM97.5749 174.667C97.0726 174.667 96.7784 174.804 96.4987 174.934C96.2078 175.069 95.9512 175.432 95.947 175.438C95.947 175.438 96.2769 175.964 96.7575 176.331C96.9093 176.445 97.2224 176.538 97.4665 176.606C97.9195 176.734 98.229 176.471 98.4811 176.157C98.678 175.913 98.8189 175.609 98.5866 175.306C98.3464 174.994 98.0866 174.687 97.5749 174.669V174.667Z" fill="#C2C2C2"/>
<path d="M106.631 204.565C105.265 204.884 103.983 205.381 103.303 206.78C103.28 206.831 103.262 206.886 103.23 206.934C102.927 207.395 102.702 208.185 102.165 208.11C101.615 208.035 101.739 207.229 101.666 206.717C101.63 206.474 101.63 206.26 101.329 206.229C101.071 206.203 100.811 206.195 100.653 206.461C100.596 206.557 100.531 206.662 100.517 206.769C100.235 208.899 98.7914 210.409 97.6706 212.084C96.664 213.59 95.7487 215.14 95.0593 216.817C94.948 217.087 94.8137 218.147 94.8112 218.167C94.8295 218.154 95.5194 217.645 95.7663 217.528C96.7905 217.046 97.8659 217.103 98.9255 217.239C99.7883 217.352 100.314 218.025 100.622 218.765C101.754 221.502 101.075 222.959 98.7311 224.469C96.909 225.642 93.9298 224.518 92.7302 223.538C90.9538 222.091 90.0893 220.091 90.0085 217.886C89.9592 216.541 90.1268 215.735 90.4518 214.704C91.2555 212.161 91.9607 209.597 93.1052 207.145C93.9817 205.264 94.584 203.191 95.0055 201.113C95.3424 199.452 95.8925 197.855 96.446 196.261C96.7651 195.338 96.6601 194.366 96.8552 193.43C96.9772 192.841 97.0662 192.228 97.4323 191.763C98.5709 190.32 98.8711 188.581 99.1764 186.864C99.4522 185.311 100.291 184.1 101.247 182.945C101.552 182.577 101.861 182.22 102.133 181.824C102.785 180.872 103.632 180.235 104.843 180.176C105.443 180.146 106.038 180.082 106.631 180V204.565ZM97.5749 219.667C97.0726 219.667 96.7784 219.804 96.4987 219.934C96.2078 220.069 95.9512 220.432 95.947 220.438C95.947 220.438 96.2769 220.964 96.7575 221.331C96.9093 221.445 97.2224 221.538 97.4665 221.606C97.9195 221.734 98.229 221.471 98.4811 221.157C98.678 220.913 98.8189 220.609 98.5866 220.306C98.3464 219.994 98.0866 219.687 97.5749 219.669V219.667Z" fill="#C2C2C2"/>
<path d="M106.631 114.565C105.266 114.884 103.983 115.381 103.303 116.78C103.28 116.831 103.262 116.886 103.231 116.934C102.928 117.395 102.703 118.185 102.165 118.11C101.616 118.035 101.74 117.229 101.667 116.717C101.631 116.474 101.631 116.26 101.33 116.229C101.072 116.203 100.812 116.195 100.654 116.461C100.597 116.557 100.532 116.662 100.518 116.769C100.236 118.899 98.7924 120.409 97.6716 122.084C96.665 123.59 95.7487 125.14 95.0593 126.817C94.9479 127.088 94.8133 128.15 94.8112 128.167C94.8112 128.167 95.5171 127.647 95.7673 127.528C96.7915 127.046 97.8668 127.103 98.9264 127.239C99.7892 127.352 100.315 128.025 100.623 128.765C101.755 131.502 101.075 132.959 98.7311 134.469C96.909 135.641 93.9307 134.518 92.7311 133.538C90.9546 132.091 90.0893 130.091 90.0085 127.886C89.9592 126.542 90.1268 125.735 90.4518 124.704C91.2555 122.161 91.9607 119.597 93.1052 117.145C93.9817 115.264 94.585 113.191 95.0065 111.113C95.3434 109.452 95.8934 107.855 96.447 106.261C96.7661 105.338 96.6611 104.366 96.8561 103.43C96.9782 102.84 97.0671 102.228 97.4333 101.763C98.5718 100.32 98.8711 98.581 99.1764 96.8643C99.4522 95.3111 100.291 94.1004 101.247 92.9453C101.552 92.5768 101.862 92.2203 102.133 91.8242C102.786 90.8722 103.633 90.2349 104.844 90.1758C105.443 90.1465 106.038 90.0818 106.631 90V114.565ZM97.5749 129.667C97.0728 129.667 96.7793 129.804 96.4997 129.934C96.2104 130.068 95.9551 130.427 95.9479 130.438C95.9479 130.438 96.2769 130.964 96.7575 131.331C96.9091 131.445 97.2223 131.537 97.4665 131.606C97.9196 131.735 98.229 131.471 98.4811 131.157C98.6781 130.913 98.82 130.609 98.5876 130.306C98.3473 129.994 98.0869 129.687 97.5749 129.669V129.667Z" fill="#C2C2C2"/>
<path d="M106.631 69.5654C105.265 69.8838 103.983 70.3806 103.303 71.7803C103.28 71.8315 103.262 71.8863 103.23 71.9336C102.927 72.3948 102.703 73.1853 102.165 73.1104C101.615 73.0354 101.74 72.2293 101.667 71.7168C101.631 71.4745 101.631 71.2602 101.33 71.2285C101.072 71.2029 100.812 71.1948 100.654 71.4609C100.597 71.5575 100.532 71.6621 100.518 71.7686C100.237 73.8991 98.7924 75.4087 97.6716 77.084C96.665 78.5899 95.7487 80.14 95.0593 81.8174C94.948 82.0876 94.8135 83.1487 94.8112 83.167C94.8226 83.1586 95.5181 82.6457 95.7663 82.5283C96.7906 82.0454 97.8667 82.1033 98.9264 82.2393C99.7891 82.3517 100.315 83.0256 100.623 83.7646C101.755 86.5023 101.075 87.9589 98.7311 89.4688C96.909 90.6416 93.9308 89.5177 92.7311 88.5381C90.9545 87.0914 90.0893 85.0912 90.0085 82.8857C89.9592 81.5415 90.1268 80.7349 90.4518 79.7041C91.2555 77.1614 91.9607 74.5966 93.1052 72.1445C93.9817 70.2641 94.585 68.1908 95.0065 66.1133C95.3433 64.4518 95.8925 62.8552 96.446 61.2607C96.7651 60.3383 96.6611 59.366 96.8561 58.4297C96.9782 57.8404 97.067 57.2278 97.4333 56.7627C98.5718 55.3199 98.8711 53.581 99.1764 51.8643C99.4522 50.311 100.291 49.1004 101.247 47.9453C101.552 47.5768 101.862 47.2203 102.133 46.8242C102.785 45.8722 103.632 45.235 104.843 45.1758C105.443 45.1465 106.038 45.0818 106.631 45V69.5654ZM97.5749 84.667C97.0727 84.667 96.7794 84.8035 96.4997 84.9336C96.2116 85.0671 95.9571 85.4244 95.9479 85.4375C95.9479 85.4375 96.2769 85.9644 96.7575 86.3311C96.9092 86.4453 97.2223 86.5375 97.4665 86.6064C97.9196 86.7346 98.229 86.4706 98.4811 86.1572C98.6781 85.9128 98.82 85.6092 98.5876 85.3057C98.3473 84.9942 98.087 84.6867 97.5749 84.6689V84.667Z" fill="#C2C2C2"/>
<path d="M106.631 24.5654C105.265 24.8837 103.983 25.3806 103.303 26.7803C103.28 26.8314 103.262 26.8863 103.23 26.9336C102.927 27.3948 102.702 28.1849 102.165 28.1104C101.615 28.0354 101.739 27.2293 101.666 26.7168C101.63 26.4745 101.63 26.26 101.329 26.2285C101.071 26.2029 100.812 26.1951 100.654 26.4609C100.597 26.5575 100.531 26.6621 100.517 26.7686C100.236 28.899 98.7923 30.4088 97.6716 32.084C96.665 33.5899 95.7487 35.14 95.0593 36.8174C94.948 37.0873 94.8137 38.1473 94.8112 38.167C94.8288 38.154 95.5193 37.6451 95.7663 37.5283C96.7905 37.0455 97.8659 37.1033 98.9255 37.2393C99.7883 37.3516 100.314 38.0255 100.622 38.7646C101.754 41.5024 101.075 42.9589 98.7311 44.4688C96.909 45.6415 93.9308 44.5177 92.7311 43.5381C90.9544 42.0914 90.0893 40.0913 90.0085 37.8857C89.9592 36.5415 90.1268 35.735 90.4518 34.7041C91.2555 32.1614 91.9607 29.5966 93.1052 27.1445C93.9817 25.2642 94.584 23.1907 95.0055 21.1133C95.3424 19.4518 95.8925 17.8553 96.446 16.2607C96.7651 15.3383 96.6601 14.366 96.8552 13.4297C96.9772 12.8405 97.0663 12.2278 97.4323 11.7627C98.5709 10.3199 98.8711 8.58103 99.1764 6.86426C99.4522 5.31102 100.291 4.10038 101.247 2.94531C101.552 2.57692 101.861 2.22016 102.133 1.82422C102.785 0.872172 103.632 0.234915 104.843 0.175781C105.443 0.146497 106.038 0.0818119 106.631 0V24.5654ZM97.5749 39.667C97.0726 39.667 96.7784 39.8035 96.4987 39.9336C96.2117 40.0668 95.9588 40.4221 95.9479 40.4375C95.9479 40.4375 96.2769 40.9644 96.7575 41.3311C96.9093 41.4453 97.2224 41.5375 97.4665 41.6064C97.9195 41.7345 98.229 41.4706 98.4811 41.1572C98.678 40.9129 98.8198 40.6091 98.5876 40.3057C98.3473 39.9943 98.0869 39.6868 97.5749 39.6689V39.667Z" fill="#C2C2C2"/>
<path d="M136.631 249.565C135.265 249.884 133.983 250.381 133.303 251.78C133.28 251.831 133.262 251.886 133.23 251.934C132.927 252.395 132.702 253.185 132.165 253.11C131.615 253.035 131.739 252.229 131.666 251.717C131.63 251.474 131.63 251.26 131.329 251.229C131.071 251.203 130.811 251.195 130.653 251.461C130.596 251.557 130.531 251.662 130.517 251.769C130.235 253.899 128.791 255.409 127.671 257.084C126.664 258.59 125.749 260.14 125.059 261.817C124.948 262.087 124.814 263.147 124.811 263.167C124.829 263.154 125.519 262.645 125.766 262.528C126.79 262.046 127.866 262.103 128.925 262.239C129.788 262.352 130.314 263.025 130.622 263.765C131.754 266.502 131.075 267.959 128.731 269.469C126.909 270.642 123.93 269.518 122.73 268.538C120.954 267.091 120.089 265.091 120.008 262.886C119.959 261.541 120.127 260.735 120.452 259.704C121.256 257.161 121.961 254.597 123.105 252.145C123.982 250.264 124.584 248.191 125.006 246.113C125.342 244.452 125.892 242.855 126.446 241.261C126.765 240.338 126.66 239.366 126.855 238.43C126.977 237.841 127.066 237.228 127.432 236.763C128.571 235.32 128.871 233.581 129.176 231.864C129.452 230.311 130.291 229.1 131.247 227.945C131.552 227.577 131.861 227.22 132.133 226.824C132.785 225.872 133.632 225.235 134.843 225.176C135.443 225.146 136.038 225.082 136.631 225V249.565ZM127.575 264.667C127.073 264.667 126.778 264.804 126.499 264.934C126.208 265.069 125.951 265.432 125.947 265.438C125.947 265.438 126.277 265.964 126.758 266.331C126.909 266.445 127.222 266.538 127.466 266.606C127.919 266.734 128.229 266.471 128.481 266.157C128.678 265.913 128.819 265.609 128.587 265.306C128.346 264.994 128.087 264.687 127.575 264.669V264.667Z" fill="#C2C2C2"/>
<path d="M136.631 159.565C135.266 159.884 133.983 160.381 133.303 161.78C133.28 161.831 133.262 161.886 133.231 161.934C132.928 162.395 132.703 163.185 132.165 163.11C131.616 163.035 131.74 162.229 131.667 161.717C131.631 161.474 131.631 161.26 131.33 161.229C131.072 161.203 130.812 161.195 130.654 161.461C130.597 161.557 130.532 161.662 130.518 161.769C130.236 163.899 128.792 165.409 127.672 167.084C126.665 168.59 125.749 170.14 125.059 171.817C124.948 172.088 124.813 173.15 124.811 173.167C124.811 173.167 125.517 172.647 125.767 172.528C126.791 172.046 127.867 172.103 128.926 172.239C129.789 172.352 130.315 173.025 130.623 173.765C131.755 176.502 131.075 177.959 128.731 179.469C126.909 180.641 123.931 179.518 122.731 178.538C120.955 177.091 120.089 175.091 120.008 172.886C119.959 171.542 120.127 170.735 120.452 169.704C121.256 167.161 121.961 164.597 123.105 162.145C123.982 160.264 124.585 158.191 125.007 156.113C125.343 154.452 125.893 152.855 126.447 151.261C126.766 150.338 126.661 149.366 126.856 148.43C126.978 147.84 127.067 147.228 127.433 146.763C128.572 145.32 128.871 143.581 129.176 141.864C129.452 140.311 130.291 139.1 131.247 137.945C131.552 137.577 131.862 137.22 132.133 136.824C132.786 135.872 133.633 135.235 134.844 135.176C135.443 135.146 136.038 135.082 136.631 135V159.565ZM127.575 174.667C127.073 174.667 126.779 174.804 126.5 174.934C126.21 175.068 125.955 175.427 125.948 175.438C125.948 175.438 126.277 175.964 126.757 176.331C126.909 176.445 127.222 176.537 127.466 176.606C127.92 176.735 128.229 176.471 128.481 176.157C128.678 175.913 128.82 175.609 128.588 175.306C128.347 174.994 128.087 174.687 127.575 174.669V174.667Z" fill="#C2C2C2"/>
<path d="M136.631 204.565C135.266 204.884 133.983 205.381 133.303 206.78C133.28 206.831 133.262 206.886 133.231 206.934C132.928 207.395 132.703 208.185 132.165 208.11C131.616 208.035 131.74 207.229 131.667 206.717C131.631 206.474 131.631 206.26 131.33 206.229C131.072 206.203 130.812 206.195 130.654 206.461C130.597 206.557 130.532 206.662 130.518 206.769C130.236 208.899 128.792 210.409 127.672 212.084C126.665 213.59 125.749 215.14 125.059 216.817C124.948 217.088 124.813 218.15 124.811 218.167C124.811 218.167 125.517 217.647 125.767 217.528C126.791 217.046 127.867 217.103 128.926 217.239C129.789 217.352 130.315 218.025 130.623 218.765C131.755 221.502 131.075 222.959 128.731 224.469C126.909 225.641 123.931 224.518 122.731 223.538C120.955 222.091 120.089 220.091 120.008 217.886C119.959 216.542 120.127 215.735 120.452 214.704C121.256 212.161 121.961 209.597 123.105 207.145C123.982 205.264 124.585 203.191 125.007 201.113C125.343 199.452 125.893 197.855 126.447 196.261C126.766 195.338 126.661 194.366 126.856 193.43C126.978 192.84 127.067 192.228 127.433 191.763C128.572 190.32 128.871 188.581 129.176 186.864C129.452 185.311 130.291 184.1 131.247 182.945C131.552 182.577 131.862 182.22 132.133 181.824C132.786 180.872 133.633 180.235 134.844 180.176C135.443 180.146 136.038 180.082 136.631 180V204.565ZM127.575 219.667C127.073 219.667 126.779 219.804 126.5 219.934C126.21 220.068 125.955 220.427 125.948 220.438C125.948 220.438 126.277 220.964 126.757 221.331C126.909 221.445 127.222 221.537 127.466 221.606C127.92 221.735 128.229 221.471 128.481 221.157C128.678 220.913 128.82 220.609 128.588 220.306C128.347 219.994 128.087 219.687 127.575 219.669V219.667Z" fill="#C2C2C2"/>
<path d="M136.631 114.565C135.265 114.884 133.983 115.381 133.303 116.78C133.28 116.831 133.262 116.886 133.23 116.934C132.927 117.395 132.703 118.185 132.165 118.11C131.615 118.035 131.74 117.229 131.667 116.717C131.631 116.475 131.631 116.26 131.33 116.229C131.072 116.203 130.812 116.195 130.654 116.461C130.597 116.558 130.532 116.662 130.518 116.769C130.237 118.899 128.792 120.409 127.672 122.084C126.665 123.59 125.749 125.14 125.059 126.817C124.948 127.088 124.814 128.149 124.811 128.167C124.823 128.159 125.518 127.646 125.766 127.528C126.791 127.045 127.867 127.103 128.926 127.239C129.789 127.352 130.315 128.026 130.623 128.765C131.755 131.502 131.075 132.959 128.731 134.469C126.909 135.642 123.931 134.518 122.731 133.538C120.954 132.091 120.089 130.091 120.008 127.886C119.959 126.541 120.127 125.735 120.452 124.704C121.256 122.161 121.961 119.597 123.105 117.145C123.982 115.264 124.585 113.191 125.007 111.113C125.343 109.452 125.892 107.855 126.446 106.261C126.765 105.338 126.661 104.366 126.856 103.43C126.978 102.84 127.067 102.228 127.433 101.763C128.572 100.32 128.871 98.581 129.176 96.8643C129.452 95.311 130.291 94.1004 131.247 92.9453C131.552 92.5768 131.862 92.2203 132.133 91.8242C132.785 90.8722 133.632 90.235 134.843 90.1758C135.443 90.1465 136.038 90.0818 136.631 90V114.565ZM127.575 129.667C127.073 129.667 126.779 129.804 126.5 129.934C126.212 130.067 125.957 130.424 125.948 130.438C125.948 130.438 126.277 130.964 126.758 131.331C126.909 131.445 127.222 131.537 127.466 131.606C127.92 131.735 128.229 131.471 128.481 131.157C128.678 130.913 128.82 130.609 128.588 130.306C128.347 129.994 128.087 129.687 127.575 129.669V129.667Z" fill="#C2C2C2"/>
<path d="M136.631 69.5654C135.265 69.8837 133.983 70.3806 133.303 71.7803C133.28 71.8314 133.262 71.8863 133.23 71.9336C132.927 72.3948 132.702 73.1849 132.165 73.1104C131.615 73.0354 131.739 72.2293 131.666 71.7168C131.63 71.4745 131.63 71.26 131.329 71.2285C131.071 71.2029 130.812 71.1951 130.654 71.4609C130.597 71.5575 130.531 71.6621 130.517 71.7686C130.236 73.899 128.792 75.4088 127.672 77.084C126.665 78.5899 125.749 80.14 125.059 81.8174C124.948 82.0873 124.814 83.1473 124.811 83.167C124.829 83.154 125.519 82.6451 125.766 82.5283C126.79 82.0455 127.866 82.1033 128.925 82.2393C129.788 82.3516 130.314 83.0255 130.622 83.7646C131.754 86.5024 131.075 87.9589 128.731 89.4688C126.909 90.6415 123.931 89.5177 122.731 88.5381C120.954 87.0914 120.089 85.0913 120.008 82.8857C119.959 81.5415 120.127 80.735 120.452 79.7041C121.256 77.1614 121.961 74.5966 123.105 72.1445C123.982 70.2642 124.584 68.1907 125.006 66.1133C125.342 64.4518 125.892 62.8553 126.446 61.2607C126.765 60.3383 126.66 59.366 126.855 58.4297C126.977 57.8405 127.066 57.2278 127.432 56.7627C128.571 55.3199 128.871 53.581 129.176 51.8643C129.452 50.311 130.291 49.1004 131.247 47.9453C131.552 47.5769 131.861 47.2202 132.133 46.8242C132.785 45.8722 133.632 45.2349 134.843 45.1758C135.443 45.1465 136.038 45.0818 136.631 45V69.5654ZM127.575 84.667C127.073 84.667 126.778 84.8035 126.499 84.9336C126.212 85.0668 125.959 85.4221 125.948 85.4375C125.948 85.4375 126.277 85.9644 126.758 86.3311C126.909 86.4453 127.222 86.5375 127.466 86.6064C127.919 86.7345 128.229 86.4706 128.481 86.1572C128.678 85.9129 128.82 85.6091 128.588 85.3057C128.347 84.9943 128.087 84.6868 127.575 84.6689V84.667Z" fill="#C2C2C2"/>
<path d="M166.631 249.565C165.266 249.884 163.983 250.381 163.303 251.78C163.28 251.831 163.262 251.886 163.231 251.934C162.928 252.395 162.703 253.185 162.165 253.11C161.616 253.035 161.74 252.229 161.667 251.717C161.631 251.474 161.631 251.26 161.33 251.229C161.072 251.203 160.812 251.195 160.654 251.461C160.597 251.557 160.532 251.662 160.518 251.769C160.236 253.899 158.792 255.409 157.672 257.084C156.665 258.59 155.749 260.14 155.059 261.817C154.948 262.088 154.813 263.15 154.811 263.167C154.811 263.167 155.517 262.647 155.767 262.528C156.791 262.046 157.867 262.103 158.926 262.239C159.789 262.352 160.315 263.025 160.623 263.765C161.755 266.502 161.075 267.959 158.731 269.469C156.909 270.641 153.931 269.518 152.731 268.538C150.955 267.091 150.089 265.091 150.008 262.886C149.959 261.542 150.127 260.735 150.452 259.704C151.256 257.161 151.961 254.597 153.105 252.145C153.982 250.264 154.585 248.191 155.007 246.113C155.343 244.452 155.893 242.855 156.447 241.261C156.766 240.338 156.661 239.366 156.856 238.43C156.978 237.84 157.067 237.228 157.433 236.763C158.572 235.32 158.871 233.581 159.176 231.864C159.452 230.311 160.291 229.1 161.247 227.945C161.552 227.577 161.862 227.22 162.133 226.824C162.786 225.872 163.633 225.235 164.844 225.176C165.443 225.146 166.038 225.082 166.631 225V249.565ZM157.575 264.667C157.073 264.667 156.779 264.804 156.5 264.934C156.21 265.068 155.955 265.427 155.948 265.438C155.948 265.438 156.277 265.964 156.757 266.331C156.909 266.445 157.222 266.537 157.466 266.606C157.92 266.735 158.229 266.471 158.481 266.157C158.678 265.913 158.82 265.609 158.588 265.306C158.347 264.994 158.087 264.687 157.575 264.669V264.667Z" fill="#C2C2C2"/>
<path d="M166.631 159.565C165.265 159.884 163.983 160.381 163.303 161.78C163.28 161.831 163.262 161.886 163.23 161.934C162.927 162.395 162.703 163.185 162.165 163.11C161.615 163.035 161.74 162.229 161.667 161.717C161.631 161.475 161.631 161.26 161.33 161.229C161.072 161.203 160.812 161.195 160.654 161.461C160.597 161.558 160.532 161.662 160.518 161.769C160.237 163.899 158.792 165.409 157.672 167.084C156.665 168.59 155.749 170.14 155.059 171.817C154.948 172.088 154.814 173.149 154.811 173.167C154.823 173.159 155.518 172.646 155.766 172.528C156.791 172.045 157.867 172.103 158.926 172.239C159.789 172.352 160.315 173.026 160.623 173.765C161.755 176.502 161.075 177.959 158.731 179.469C156.909 180.642 153.931 179.518 152.731 178.538C150.954 177.091 150.089 175.091 150.008 172.886C149.959 171.541 150.127 170.735 150.452 169.704C151.256 167.161 151.961 164.597 153.105 162.145C153.982 160.264 154.585 158.191 155.007 156.113C155.343 154.452 155.892 152.855 156.446 151.261C156.765 150.338 156.661 149.366 156.856 148.43C156.978 147.84 157.067 147.228 157.433 146.763C158.572 145.32 158.871 143.581 159.176 141.864C159.452 140.311 160.291 139.1 161.247 137.945C161.552 137.577 161.862 137.22 162.133 136.824C162.785 135.872 163.632 135.235 164.843 135.176C165.443 135.147 166.038 135.082 166.631 135V159.565ZM157.575 174.667C157.073 174.667 156.779 174.804 156.5 174.934C156.212 175.067 155.957 175.424 155.948 175.438C155.948 175.438 156.277 175.964 156.758 176.331C156.909 176.445 157.222 176.537 157.466 176.606C157.92 176.735 158.229 176.471 158.481 176.157C158.678 175.913 158.82 175.609 158.588 175.306C158.347 174.994 158.087 174.687 157.575 174.669V174.667Z" fill="#C2C2C2"/>
<path d="M166.631 204.565C165.265 204.884 163.983 205.381 163.303 206.78C163.28 206.831 163.262 206.886 163.23 206.934C162.927 207.395 162.703 208.185 162.165 208.11C161.615 208.035 161.74 207.229 161.667 206.717C161.631 206.475 161.631 206.26 161.33 206.229C161.072 206.203 160.812 206.195 160.654 206.461C160.597 206.558 160.532 206.662 160.518 206.769C160.237 208.899 158.792 210.409 157.672 212.084C156.665 213.59 155.749 215.14 155.059 216.817C154.948 217.088 154.814 218.149 154.811 218.167C154.823 218.159 155.518 217.646 155.766 217.528C156.791 217.045 157.867 217.103 158.926 217.239C159.789 217.352 160.315 218.026 160.623 218.765C161.755 221.502 161.075 222.959 158.731 224.469C156.909 225.642 153.931 224.518 152.731 223.538C150.954 222.091 150.089 220.091 150.008 217.886C149.959 216.541 150.127 215.735 150.452 214.704C151.256 212.161 151.961 209.597 153.105 207.145C153.982 205.264 154.585 203.191 155.007 201.113C155.343 199.452 155.892 197.855 156.446 196.261C156.765 195.338 156.661 194.366 156.856 193.43C156.978 192.84 157.067 192.228 157.433 191.763C158.572 190.32 158.871 188.581 159.176 186.864C159.452 185.311 160.291 184.1 161.247 182.945C161.552 182.577 161.862 182.22 162.133 181.824C162.785 180.872 163.632 180.235 164.843 180.176C165.443 180.147 166.038 180.082 166.631 180V204.565ZM157.575 219.667C157.073 219.667 156.779 219.804 156.5 219.934C156.212 220.067 155.957 220.424 155.948 220.438C155.948 220.438 156.277 220.964 156.758 221.331C156.909 221.445 157.222 221.537 157.466 221.606C157.92 221.735 158.229 221.471 158.481 221.157C158.678 220.913 158.82 220.609 158.588 220.306C158.347 219.994 158.087 219.687 157.575 219.669V219.667Z" fill="#C2C2C2"/>
<path d="M166.631 114.565C165.265 114.884 163.983 115.381 163.303 116.78C163.28 116.831 163.262 116.886 163.23 116.934C162.927 117.395 162.702 118.185 162.165 118.11C161.615 118.035 161.739 117.229 161.666 116.717C161.63 116.474 161.63 116.26 161.329 116.229C161.071 116.203 160.812 116.195 160.654 116.461C160.597 116.558 160.531 116.662 160.517 116.769C160.236 118.899 158.792 120.409 157.672 122.084C156.665 123.59 155.749 125.14 155.059 126.817C154.948 127.087 154.814 128.147 154.811 128.167C154.829 128.154 155.519 127.645 155.766 127.528C156.79 127.046 157.866 127.103 158.925 127.239C159.788 127.352 160.314 128.025 160.622 128.765C161.754 131.502 161.075 132.959 158.731 134.469C156.909 135.642 153.931 134.518 152.731 133.538C150.954 132.091 150.089 130.091 150.008 127.886C149.959 126.541 150.127 125.735 150.452 124.704C151.256 122.161 151.961 119.597 153.105 117.145C153.982 115.264 154.584 113.191 155.006 111.113C155.342 109.452 155.892 107.855 156.446 106.261C156.765 105.338 156.66 104.366 156.855 103.43C156.977 102.841 157.066 102.228 157.432 101.763C158.571 100.32 158.871 98.581 159.176 96.8643C159.452 95.311 160.291 94.1004 161.247 92.9453C161.552 92.5769 161.861 92.2202 162.133 91.8242C162.785 90.8722 163.632 90.2349 164.843 90.1758C165.443 90.1465 166.038 90.0818 166.631 90V114.565ZM157.575 129.667C157.073 129.667 156.778 129.804 156.499 129.934C156.212 130.067 155.959 130.422 155.948 130.438C155.948 130.438 156.277 130.964 156.758 131.331C156.909 131.445 157.222 131.538 157.466 131.606C157.919 131.734 158.229 131.471 158.481 131.157C158.678 130.913 158.82 130.609 158.588 130.306C158.347 129.994 158.087 129.687 157.575 129.669V129.667Z" fill="#C2C2C2"/>
<path d="M166.631 69.5654C165.265 69.8837 163.982 70.3804 163.302 71.7803C163.279 71.8313 163.262 71.8864 163.23 71.9336C162.927 72.3948 162.702 73.1853 162.164 73.1104C161.615 73.0351 161.739 72.2292 161.666 71.7168C161.63 71.4744 161.63 71.26 161.329 71.2285C161.071 71.2029 160.811 71.1948 160.653 71.4609C160.596 71.5575 160.531 71.6622 160.517 71.7686C160.236 73.8991 158.791 75.4087 157.671 77.084C156.664 78.5899 155.748 80.14 155.058 81.8174C154.947 82.0881 154.812 83.1504 154.81 83.167C154.81 83.167 155.516 82.6466 155.766 82.5283C156.791 82.0456 157.866 82.1033 158.926 82.2393C159.788 82.3516 160.314 83.0255 160.622 83.7646C161.754 86.5024 161.074 87.9589 158.73 89.4688C156.908 90.6413 153.93 89.5177 152.73 88.5381C150.954 87.0914 150.089 85.0911 150.009 82.8857C149.959 81.5415 150.126 80.7349 150.451 79.7041C151.255 77.1614 151.96 74.5966 153.104 72.1445C153.981 70.2641 154.584 68.1908 155.006 66.1133C155.342 64.4517 155.893 62.8553 156.446 61.2607C156.765 60.3383 156.66 59.366 156.855 58.4297C156.977 57.8405 157.066 57.2278 157.432 56.7627C158.571 55.3199 158.87 53.581 159.176 51.8643C159.451 50.3111 160.29 49.1004 161.246 47.9453C161.551 47.5768 161.861 47.2203 162.133 46.8242C162.785 45.8722 163.632 45.2349 164.843 45.1758C165.443 45.1465 166.038 45.0818 166.631 45V69.5654ZM157.574 84.667C157.072 84.6671 156.778 84.8035 156.499 84.9336C156.209 85.0678 155.954 85.4277 155.947 85.4375C155.947 85.4375 156.276 85.9644 156.757 86.3311C156.908 86.4453 157.221 86.5375 157.466 86.6064C157.919 86.7346 158.228 86.4706 158.48 86.1572C158.677 85.9128 158.819 85.6092 158.587 85.3057C158.346 84.9943 158.086 84.6867 157.574 84.6689V84.667Z" fill="#C2C2C2"/>
</svg>
