<svg width="223" height="45" viewBox="0 0 223 45" fill="none" xmlns="http://www.w3.org/2000/svg">
<path d="M26.2088 40.832C25.5683 39.9757 25.1739 39.0025 25.0047 37.8994C25.0047 37.842 24.9548 37.8128 24.9295 37.8125H24.9042C24.3752 38.2465 23.771 38.5072 23.242 38.8828C22.4366 39.4907 21.6063 40.0982 20.7752 40.7344C20.3976 40.995 19.969 41.1965 19.5663 41.2832C19.3648 41.3409 19.1892 41.3705 19.0379 41.457C19.0128 41.457 18.9625 41.5151 18.9374 41.5439C17.7292 43.3952 16.495 44.8706 14.3553 44.9863C12.1904 45.1019 10.0501 44.4662 7.98618 44.0322C7.00418 43.8011 5.61889 43.6843 3.78111 43.5977C1.94344 43.4821 0.886027 42.8744 0.483254 40.6758C0.307279 39.605 0.181245 38.6498 0.156106 37.7529C0.0807047 36.5379 0.0298775 35.3806 0.00473884 34.3105C-0.0455383 33.2404 0.306885 32.7186 0.936379 31.9951C1.1883 31.7056 1.26428 31.2141 1.3397 30.8379C1.38998 30.4906 1.61686 30.1723 1.94419 30.2012C2.49816 30.23 3.10169 30.1147 3.70591 29.7676C5.61912 28.6968 6.62703 26.8743 7.78501 24.9355C8.41452 23.8359 9.11944 22.8229 9.95005 21.6943C10.0001 21.608 10.0252 21.5216 10.0252 21.4346C10.1258 20.2193 10.1255 19.0032 9.64732 17.8457C8.89226 16.1099 8.74087 14.171 9.89927 12.667C10.5791 11.7991 11.4605 11.7412 12.367 11.625C13.3741 11.4516 14.2548 11.0464 14.5067 9.80176C14.6324 9.36792 14.7841 8.99174 15.036 8.64453C15.0862 8.55793 15.1112 8.471 15.1112 8.38379C15.1111 8.23947 15.0354 8.12373 14.9344 8.03711C14.7836 7.8927 14.5572 7.80589 14.3807 7.77637C13.5501 7.6608 12.9956 7.31301 12.618 6.70508C11.9132 5.54761 11.5864 3.89812 11.9891 2.56738C12.2662 1.75775 12.9707 1.61315 13.4237 2.30664C14.1034 3.37672 14.8836 4.18751 16.0917 4.44824C16.3687 4.47713 16.6965 4.38998 16.9227 4.27441C17.3505 3.98496 17.8035 3.66678 18.2821 3.37793C18.6597 3.14619 18.8117 2.79905 19.0379 2.42285V2.42676C19.4407 1.67441 20.448 1.50156 21.1278 1.47266C22.1349 1.41487 22.966 1.32808 23.5956 1.21191C23.8976 1.18292 24.1997 1.00886 24.577 0.749023C25.0388 0.377318 25.6285 0.127979 26.2088 0V40.832Z" fill="#C2C2C2"/>
<path d="M65.4178 40.832C64.7773 39.9757 64.3829 39.0025 64.2137 37.8994C64.2137 37.842 64.1638 37.8128 64.1385 37.8125H64.1131C63.5842 38.2465 62.98 38.5072 62.451 38.8828C61.6456 39.4907 60.8153 40.0982 59.9842 40.7344C59.6066 40.995 59.178 41.1965 58.7752 41.2832C58.5738 41.3409 58.3982 41.3705 58.2469 41.457C58.2218 41.457 58.1715 41.5151 58.1463 41.5439C56.9382 43.3952 55.704 44.8706 53.5643 44.9863C51.3994 45.1019 49.2591 44.4662 47.1952 44.0322C46.2132 43.8011 44.8279 43.6843 42.9901 43.5977C41.1524 43.4821 40.095 42.8744 39.6922 40.6758C39.5163 39.605 39.3902 38.6498 39.3651 37.7529C39.2897 36.5379 39.2389 35.3806 39.2137 34.3105C39.1634 33.2404 39.5159 32.7186 40.1454 31.9951C40.3973 31.7056 40.4733 31.2141 40.5487 30.8379C40.599 30.4906 40.8258 30.1723 41.1532 30.2012C41.7071 30.23 42.3107 30.1147 42.9149 29.7676C44.8281 28.6968 45.836 26.8743 46.994 24.9355C47.6235 23.8359 48.3284 22.8229 49.159 21.6943C49.2091 21.608 49.2342 21.5216 49.2342 21.4346C49.3348 20.2193 49.3345 19.0032 48.8563 17.8457C48.1012 16.1099 47.9499 14.171 49.1083 12.667C49.7881 11.7991 50.6695 11.7412 51.576 11.625C52.583 11.4516 53.4638 11.0464 53.7157 9.80176C53.8414 9.36792 53.9931 8.99174 54.245 8.64453C54.2952 8.55793 54.3202 8.471 54.3202 8.38379C54.3201 8.23947 54.2444 8.12373 54.1434 8.03711C53.9926 7.8927 53.7662 7.80589 53.5897 7.77637C52.7591 7.6608 52.2046 7.31301 51.827 6.70508C51.1222 5.54761 50.7954 3.89812 51.1981 2.56738C51.4752 1.75775 52.1797 1.61315 52.6327 2.30664C53.3124 3.37672 54.0926 4.18751 55.3006 4.44824C55.5777 4.47713 55.9054 4.38998 56.1317 4.27441C56.5595 3.98496 57.0125 3.66678 57.4911 3.37793C57.8687 3.14619 58.0207 2.79905 58.2469 2.42285V2.42676C58.6497 1.67441 59.657 1.50156 60.3368 1.47266C61.3439 1.41487 62.175 1.32808 62.8045 1.21191C63.1066 1.18292 63.4086 1.00886 63.786 0.749023C64.2478 0.377318 64.8375 0.127979 65.4178 0V40.832Z" fill="#C2C2C2"/>
<path d="M104.627 40.832C103.986 39.9757 103.592 39.0025 103.423 37.8994C103.423 37.842 103.373 37.8128 103.348 37.8125H103.322C102.793 38.2465 102.189 38.5072 101.66 38.8828C100.855 39.4907 100.024 40.0982 99.1932 40.7344C98.8156 40.995 98.387 41.1965 97.9842 41.2832C97.7828 41.3409 97.6072 41.3705 97.4559 41.457C97.4308 41.457 97.3805 41.5151 97.3553 41.5439C96.1472 43.3952 94.913 44.8706 92.7733 44.9863C90.6083 45.1019 88.468 44.4662 86.4042 44.0322C85.4221 43.8011 84.0369 43.6843 82.1991 43.5977C80.3614 43.4821 79.304 42.8744 78.9012 40.6758C78.7252 39.605 78.5992 38.6498 78.5741 37.7529C78.4987 36.5379 78.4478 35.3806 78.4227 34.3105C78.3724 33.2404 78.7249 32.7186 79.3543 31.9951C79.6063 31.7056 79.6823 31.2141 79.7577 30.8379C79.8079 30.4906 80.0348 30.1723 80.3622 30.2012C80.9161 30.23 81.5197 30.1147 82.1239 29.7676C84.0371 28.6968 85.045 26.8743 86.203 24.9355C86.8325 23.8359 87.5374 22.8229 88.368 21.6943C88.418 21.608 88.4431 21.5216 88.4432 21.4346C88.5438 20.2193 88.5435 19.0032 88.0653 17.8457C87.3102 16.1099 87.1588 14.171 88.3172 12.667C88.997 11.7991 89.8785 11.7412 90.785 11.625C91.792 11.4516 92.6728 11.0464 92.9247 9.80176C93.0503 9.36792 93.2021 8.99174 93.454 8.64453C93.5042 8.55793 93.5292 8.471 93.5292 8.38379C93.5291 8.23947 93.4534 8.12373 93.3524 8.03711C93.2016 7.8927 92.9752 7.80589 92.7987 7.77637C91.968 7.6608 91.4136 7.31301 91.036 6.70508C90.3311 5.54761 90.0044 3.89812 90.4071 2.56738C90.6842 1.75775 91.3887 1.61315 91.8417 2.30664C92.5214 3.37672 93.3016 4.18751 94.5096 4.44824C94.7867 4.47713 95.1144 4.38998 95.3407 4.27441C95.7685 3.98496 96.2215 3.66678 96.7001 3.37793C97.0777 3.14619 97.2297 2.79905 97.4559 2.42285V2.42676C97.8587 1.67441 98.866 1.50156 99.5458 1.47266C100.553 1.41487 101.384 1.32808 102.014 1.21191C102.316 1.18292 102.618 1.00886 102.995 0.749023C103.457 0.377318 104.046 0.127979 104.627 0V40.832Z" fill="#C2C2C2"/>
<path d="M143.836 40.832C143.195 39.9757 142.801 39.0025 142.632 37.8994C142.632 37.842 142.582 37.8128 142.556 37.8125H142.531C142.002 38.2465 141.398 38.5072 140.869 38.8828C140.064 39.4907 139.233 40.0982 138.402 40.7344C138.025 40.995 137.596 41.1965 137.193 41.2832C136.992 41.3409 136.816 41.3705 136.665 41.457C136.64 41.457 136.589 41.5151 136.564 41.5439C135.356 43.3952 134.122 44.8706 131.982 44.9863C129.817 45.1019 127.677 44.4662 125.613 44.0322C124.631 43.8011 123.246 43.6843 121.408 43.5977C119.57 43.4821 118.513 42.8744 118.11 40.6758C117.934 39.605 117.808 38.6498 117.783 37.7529C117.708 36.5379 117.657 35.3806 117.632 34.3105C117.581 33.2404 117.934 32.7186 118.563 31.9951C118.815 31.7056 118.891 31.2141 118.967 30.8379C119.017 30.4906 119.244 30.1723 119.571 30.2012C120.125 30.23 120.729 30.1147 121.333 29.7676C123.246 28.6968 124.254 26.8743 125.412 24.9355C126.041 23.8359 126.746 22.8229 127.577 21.6943C127.627 21.608 127.652 21.5216 127.652 21.4346C127.753 20.2193 127.752 19.0032 127.274 17.8457C126.519 16.1099 126.368 14.171 127.526 12.667C128.206 11.7991 129.087 11.7412 129.994 11.625C131.001 11.4516 131.882 11.0464 132.134 9.80176C132.259 9.36792 132.411 8.99174 132.663 8.64453C132.713 8.55793 132.738 8.471 132.738 8.38379C132.738 8.23947 132.662 8.12373 132.561 8.03711C132.411 7.8927 132.184 7.80589 132.008 7.77637C131.177 7.6608 130.623 7.31301 130.245 6.70508C129.54 5.54761 129.213 3.89812 129.616 2.56738C129.893 1.75775 130.598 1.61315 131.051 2.30664C131.73 3.37672 132.511 4.18751 133.719 4.44824C133.996 4.47713 134.323 4.38998 134.55 4.27441C134.977 3.98496 135.43 3.66678 135.909 3.37793C136.287 3.14619 136.439 2.79905 136.665 2.42285V2.42676C137.068 1.67441 138.075 1.50156 138.755 1.47266C139.762 1.41487 140.593 1.32808 141.223 1.21191C141.525 1.18292 141.827 1.00886 142.204 0.749023C142.666 0.377318 143.255 0.127979 143.836 0V40.832Z" fill="#C2C2C2"/>
<path d="M183.045 40.832C182.404 39.9757 182.01 39.0025 181.841 37.8994C181.841 37.842 181.791 37.8128 181.765 37.8125H181.74C181.211 38.2465 180.607 38.5072 180.078 38.8828C179.273 39.4907 178.442 40.0982 177.611 40.7344C177.234 40.995 176.805 41.1965 176.402 41.2832C176.201 41.3409 176.025 41.3705 175.874 41.457C175.849 41.457 175.798 41.5151 175.773 41.5439C174.565 43.3952 173.331 44.8706 171.191 44.9863C169.026 45.1019 166.886 44.4662 164.822 44.0322C163.84 43.8011 162.455 43.6843 160.617 43.5977C158.779 43.4821 157.722 42.8744 157.319 40.6758C157.143 39.605 157.017 38.6498 156.992 37.7529C156.917 36.5379 156.866 35.3806 156.841 34.3105C156.79 33.2404 157.143 32.7186 157.772 31.9951C158.024 31.7056 158.1 31.2141 158.176 30.8379C158.226 30.4906 158.453 30.1723 158.78 30.2012C159.334 30.23 159.938 30.1147 160.542 29.7676C162.455 28.6968 163.463 26.8743 164.621 24.9355C165.25 23.8359 165.955 22.8229 166.786 21.6943C166.836 21.608 166.861 21.5216 166.861 21.4346C166.962 20.2193 166.961 19.0032 166.483 17.8457C165.728 16.1099 165.577 14.171 166.735 12.667C167.415 11.7991 168.296 11.7412 169.203 11.625C170.21 11.4516 171.091 11.0464 171.343 9.80176C171.468 9.36792 171.62 8.99174 171.872 8.64453C171.922 8.55793 171.947 8.471 171.947 8.38379C171.947 8.23947 171.871 8.12373 171.77 8.03711C171.62 7.8927 171.393 7.80589 171.217 7.77637C170.386 7.6608 169.832 7.31301 169.454 6.70508C168.749 5.54761 168.422 3.89812 168.825 2.56738C169.102 1.75775 169.807 1.61315 170.26 2.30664C170.939 3.37672 171.72 4.18751 172.928 4.44824C173.205 4.47713 173.532 4.38998 173.759 4.27441C174.186 3.98496 174.639 3.66678 175.118 3.37793C175.496 3.14619 175.648 2.79905 175.874 2.42285V2.42676C176.277 1.67441 177.284 1.50156 177.964 1.47266C178.971 1.41487 179.802 1.32808 180.431 1.21191C180.734 1.18292 181.036 1.00886 181.413 0.749023C181.875 0.377318 182.464 0.127979 183.045 0V40.832Z" fill="#C2C2C2"/>
</svg>
