<svg width="223" height="315" viewBox="0 0 223 315" fill="none" xmlns="http://www.w3.org/2000/svg">
<path d="M26.2088 310.833C25.5683 309.976 25.1739 309.003 25.0047 307.9C25.0047 307.843 24.9548 307.813 24.9295 307.813H24.9042C24.3752 308.247 23.771 308.508 23.242 308.883C22.4366 309.491 21.6063 310.099 20.7752 310.735C20.3976 310.996 19.969 311.197 19.5663 311.284C19.3648 311.342 19.1892 311.371 19.0379 311.458C19.0128 311.458 18.9625 311.516 18.9374 311.545C17.7292 313.396 16.495 314.871 14.3553 314.987C12.1904 315.102 10.0501 314.467 7.98618 314.033C7.00418 313.802 5.61889 313.685 3.78111 313.598C1.94344 313.483 0.886027 312.875 0.483254 310.676C0.307279 309.606 0.181245 308.65 0.156106 307.754C0.0807047 306.538 0.0298775 305.381 0.00473884 304.311C-0.0455383 303.241 0.306885 302.719 0.936379 301.996C1.1883 301.706 1.26428 301.215 1.3397 300.839C1.38998 300.491 1.61686 300.173 1.94419 300.202C2.49816 300.231 3.10169 300.115 3.70591 299.768C5.61912 298.697 6.62703 296.875 7.78501 294.936C8.41452 293.837 9.11944 292.823 9.95005 291.695C10.0001 291.609 10.0252 291.522 10.0252 291.435C10.1258 290.22 10.1255 289.004 9.64732 287.846C8.89226 286.111 8.74087 284.172 9.89927 282.668C10.5791 281.8 11.4605 281.742 12.367 281.626C13.3741 281.452 14.2548 281.047 14.5067 279.802C14.6324 279.369 14.7841 278.992 15.036 278.645C15.0862 278.559 15.1112 278.472 15.1112 278.384C15.1111 278.24 15.0354 278.124 14.9344 278.038C14.7836 277.893 14.5572 277.807 14.3807 277.777C13.5501 277.661 12.9956 277.314 12.618 276.706C11.9132 275.548 11.5864 273.899 11.9891 272.568C12.2662 271.758 12.9707 271.614 13.4237 272.307C14.1034 273.377 14.8836 274.188 16.0917 274.449C16.3687 274.478 16.6965 274.391 16.9227 274.275C17.3505 273.986 17.8035 273.667 18.2821 273.379C18.6597 273.147 18.8117 272.8 19.0379 272.423V272.427C19.4407 271.675 20.448 271.502 21.1278 271.473C22.1349 271.415 22.966 271.329 23.5956 271.213C23.8976 271.184 24.1997 271.009 24.577 270.75C25.0388 270.378 25.6285 270.129 26.2088 270.001V310.833Z" fill="#C2C2C2"/>
<path d="M26.2088 265.833C25.5683 264.976 25.1739 264.003 25.0047 262.9C25.0047 262.842 24.9548 262.813 24.9295 262.813H24.9042C24.3752 263.247 23.771 263.508 23.242 263.883C22.4366 264.491 21.6063 265.099 20.7752 265.735C20.3976 265.995 19.969 266.197 19.5663 266.284C19.3648 266.341 19.1892 266.371 19.0379 266.458C19.0128 266.458 18.9625 266.516 18.9374 266.544C17.7292 268.396 16.495 269.871 14.3553 269.987C12.1904 270.102 10.0501 269.467 7.98618 269.033C7.00418 268.802 5.61889 268.685 3.78111 268.598C1.94344 268.483 0.886027 267.875 0.483254 265.676C0.307279 264.605 0.181245 263.65 0.156106 262.753C0.0807047 261.538 0.0298775 260.381 0.00473884 259.311C-0.0455383 258.241 0.306885 257.719 0.936379 256.996C1.1883 256.706 1.26428 256.215 1.3397 255.838C1.38998 255.491 1.61686 255.173 1.94419 255.202C2.49816 255.231 3.10169 255.115 3.70591 254.768C5.61912 253.697 6.62703 251.875 7.78501 249.936C8.41452 248.836 9.11944 247.823 9.95005 246.695C10.0001 246.608 10.0252 246.522 10.0252 246.435C10.1258 245.22 10.1255 244.004 9.64732 242.846C8.89226 241.11 8.74087 239.172 9.89927 237.667C10.5791 236.8 11.4605 236.742 12.367 236.625C13.3741 236.452 14.2548 236.047 14.5067 234.802C14.6324 234.368 14.7841 233.992 15.036 233.645C15.0862 233.558 15.1112 233.471 15.1112 233.384C15.1111 233.24 15.0354 233.124 14.9344 233.038C14.7836 232.893 14.5572 232.806 14.3807 232.777C13.5501 232.661 12.9956 232.314 12.618 231.706C11.9132 230.548 11.5864 228.899 11.9891 227.568C12.2662 226.758 12.9707 226.614 13.4237 227.307C14.1034 228.377 14.8836 229.188 16.0917 229.449C16.3687 229.478 16.6965 229.39 16.9227 229.275C17.3505 228.985 17.8035 228.667 18.2821 228.378C18.6597 228.147 18.8117 227.8 19.0379 227.423V227.427C19.4407 226.675 20.448 226.502 21.1278 226.473C22.1349 226.415 22.966 226.329 23.5956 226.212C23.8976 226.183 24.1997 226.009 24.577 225.75C25.0388 225.378 25.6285 225.128 26.2088 225V265.833Z" fill="#C2C2C2"/>
<path d="M26.2088 220.832C25.5683 219.976 25.1739 219.003 25.0047 217.9C25.0047 217.842 24.9548 217.813 24.9295 217.813H24.9042C24.3752 218.247 23.771 218.508 23.242 218.883C22.4366 219.491 21.6063 220.099 20.7752 220.735C20.3976 220.995 19.969 221.197 19.5663 221.284C19.3648 221.341 19.1892 221.371 19.0379 221.457C19.0128 221.457 18.9625 221.515 18.9374 221.544C17.7292 223.396 16.495 224.871 14.3553 224.987C12.1904 225.102 10.0501 224.467 7.98618 224.033C7.00418 223.801 5.61889 223.685 3.78111 223.598C1.94344 223.482 0.886027 222.875 0.483254 220.676C0.307279 219.605 0.181245 218.65 0.156106 217.753C0.0807047 216.538 0.0298775 215.381 0.00473884 214.311C-0.0455383 213.241 0.306885 212.719 0.936379 211.995C1.1883 211.706 1.26428 211.214 1.3397 210.838C1.38998 210.491 1.61686 210.173 1.94419 210.202C2.49816 210.23 3.10169 210.115 3.70591 209.768C5.61912 208.697 6.62703 206.875 7.78501 204.936C8.41452 203.836 9.11944 202.823 9.95005 201.695C10.0001 201.608 10.0252 201.522 10.0252 201.435C10.1258 200.22 10.1255 199.004 9.64732 197.846C8.89226 196.11 8.74087 194.171 9.89927 192.667C10.5791 191.799 11.4605 191.742 12.367 191.625C13.3741 191.452 14.2548 191.047 14.5067 189.802C14.6324 189.368 14.7841 188.992 15.036 188.645C15.0862 188.558 15.1112 188.471 15.1112 188.384C15.1111 188.24 15.0354 188.124 14.9344 188.037C14.7836 187.893 14.5572 187.806 14.3807 187.777C13.5501 187.661 12.9956 187.313 12.618 186.705C11.9132 185.548 11.5864 183.898 11.9891 182.568C12.2662 181.758 12.9707 181.614 13.4237 182.307C14.1034 183.377 14.8836 184.188 16.0917 184.449C16.3687 184.478 16.6965 184.39 16.9227 184.275C17.3505 183.985 17.8035 183.667 18.2821 183.378C18.6597 183.147 18.8117 182.799 19.0379 182.423V182.427C19.4407 181.675 20.448 181.502 21.1278 181.473C22.1349 181.415 22.966 181.328 23.5956 181.212C23.8976 181.183 24.1997 181.009 24.577 180.749C25.0388 180.378 25.6285 180.128 26.2088 180V220.832Z" fill="#C2C2C2"/>
<path d="M26.2088 175.832C25.5683 174.976 25.1739 174.003 25.0047 172.9C25.0047 172.842 24.9548 172.813 24.9295 172.813H24.9042C24.3752 173.247 23.771 173.507 23.242 173.883C22.4366 174.491 21.6063 175.098 20.7752 175.735C20.3976 175.995 19.969 176.197 19.5663 176.283C19.3648 176.341 19.1892 176.371 19.0379 176.457C19.0128 176.457 18.9625 176.515 18.9374 176.544C17.7292 178.395 16.495 179.871 14.3553 179.987C12.1904 180.102 10.0501 179.466 7.98618 179.032C7.00418 178.801 5.61889 178.685 3.78111 178.598C1.94344 178.482 0.886027 177.875 0.483254 175.676C0.307279 174.605 0.181245 173.65 0.156106 172.753C0.0807047 171.538 0.0298775 170.381 0.00473884 169.311C-0.0455383 168.241 0.306885 167.719 0.936379 166.995C1.1883 166.706 1.26428 166.214 1.3397 165.838C1.38998 165.491 1.61686 165.173 1.94419 165.201C2.49816 165.23 3.10169 165.115 3.70591 164.768C5.61912 163.697 6.62703 161.875 7.78501 159.936C8.41452 158.836 9.11944 157.823 9.95005 156.695C10.0001 156.608 10.0252 156.522 10.0252 156.435C10.1258 155.22 10.1255 154.003 9.64732 152.846C8.89226 151.11 8.74087 149.171 9.89927 147.667C10.5791 146.799 11.4605 146.741 12.367 146.625C13.3741 146.452 14.2548 146.047 14.5067 144.802C14.6324 144.368 14.7841 143.992 15.036 143.645C15.0862 143.558 15.1112 143.471 15.1112 143.384C15.1111 143.24 15.0354 143.124 14.9344 143.037C14.7836 142.893 14.5572 142.806 14.3807 142.777C13.5501 142.661 12.9956 142.313 12.618 141.705C11.9132 140.548 11.5864 138.898 11.9891 137.568C12.2662 136.758 12.9707 136.613 13.4237 137.307C14.1034 138.377 14.8836 139.188 16.0917 139.448C16.3687 139.477 16.6965 139.39 16.9227 139.275C17.3505 138.985 17.8035 138.667 18.2821 138.378C18.6597 138.146 18.8117 137.799 19.0379 137.423V137.427C19.4407 136.675 20.448 136.502 21.1278 136.473C22.1349 136.415 22.966 136.328 23.5956 136.212C23.8976 136.183 24.1997 136.009 24.577 135.749C25.0388 135.378 25.6285 135.128 26.2088 135V175.832Z" fill="#C2C2C2"/>
<path d="M26.2088 130.832C25.5683 129.976 25.1739 129.003 25.0047 127.9C25.0047 127.842 24.9548 127.813 24.9295 127.813H24.9042C24.3752 128.247 23.771 128.507 23.242 128.883C22.4366 129.491 21.6063 130.098 20.7752 130.734C20.3976 130.995 19.969 131.197 19.5663 131.283C19.3648 131.341 19.1892 131.371 19.0379 131.457C19.0128 131.457 18.9625 131.515 18.9374 131.544C17.7292 133.395 16.495 134.871 14.3553 134.986C12.1904 135.102 10.0501 134.466 7.98618 134.032C7.00418 133.801 5.61889 133.684 3.78111 133.598C1.94344 133.482 0.886027 132.874 0.483254 130.676C0.307279 129.605 0.181245 128.65 0.156106 127.753C0.0807047 126.538 0.0298775 125.381 0.00473884 124.311C-0.0455383 123.24 0.306885 122.719 0.936379 121.995C1.1883 121.706 1.26428 121.214 1.3397 120.838C1.38998 120.491 1.61686 120.172 1.94419 120.201C2.49816 120.23 3.10169 120.115 3.70591 119.768C5.61912 118.697 6.62703 116.874 7.78501 114.936C8.41452 113.836 9.11944 112.823 9.95005 111.694C10.0001 111.608 10.0252 111.522 10.0252 111.435C10.1258 110.219 10.1255 109.003 9.64732 107.846C8.89226 106.11 8.74087 104.171 9.89927 102.667C10.5791 101.799 11.4605 101.741 12.367 101.625C13.3741 101.452 14.2548 101.047 14.5067 99.8019C14.6324 99.368 14.7841 98.9919 15.036 98.6447C15.0862 98.558 15.1112 98.4711 15.1112 98.3839C15.1111 98.2396 15.0354 98.1239 14.9344 98.0372C14.7836 97.8928 14.5572 97.806 14.3807 97.7765C13.5501 97.6609 12.9956 97.3131 12.618 96.7052C11.9132 95.5477 11.5864 93.8982 11.9891 92.5675C12.2662 91.7579 12.9707 91.6133 13.4237 92.3068C14.1034 93.3768 14.8836 94.1876 16.0917 94.4484C16.3687 94.4773 16.6965 94.3901 16.9227 94.2745C17.3505 93.9851 17.8035 93.6669 18.2821 93.3781C18.6597 93.1463 18.8117 92.7992 19.0379 92.423V92.4269C19.4407 91.6745 20.448 91.5017 21.1278 91.4728C22.1349 91.415 22.966 91.3282 23.5956 91.212C23.8976 91.183 24.1997 91.009 24.577 90.7491C25.0388 90.3774 25.6285 90.1281 26.2088 90.0001V130.832Z" fill="#C2C2C2"/>
<path d="M26.2088 85.832C25.5683 84.9757 25.1739 84.0025 25.0047 82.8994C25.0047 82.842 24.9548 82.8128 24.9295 82.8125H24.9042C24.3752 83.2465 23.771 83.5072 23.242 83.8828C22.4366 84.4907 21.6063 85.0982 20.7752 85.7344C20.3976 85.995 19.969 86.1965 19.5663 86.2832C19.3648 86.3409 19.1892 86.3705 19.0379 86.457C19.0128 86.457 18.9625 86.5151 18.9374 86.5439C17.7292 88.3952 16.495 89.8706 14.3553 89.9863C12.1904 90.1019 10.0501 89.4662 7.98618 89.0322C7.00418 88.8011 5.61889 88.6843 3.78111 88.5977C1.94344 88.4821 0.886027 87.8744 0.483254 85.6758C0.307279 84.605 0.181245 83.6498 0.156106 82.7529C0.0807047 81.5379 0.0298775 80.3806 0.00473884 79.3105C-0.0455383 78.2404 0.306885 77.7186 0.936379 76.9951C1.1883 76.7056 1.26428 76.2141 1.3397 75.8379C1.38998 75.4906 1.61686 75.1723 1.94419 75.2012C2.49816 75.23 3.10169 75.1147 3.70591 74.7676C5.61912 73.6968 6.62703 71.8743 7.78501 69.9355C8.41452 68.8359 9.11944 67.8229 9.95005 66.6943C10.0001 66.608 10.0252 66.5216 10.0252 66.4346C10.1258 65.2193 10.1255 64.0032 9.64732 62.8457C8.89226 61.1099 8.74087 59.171 9.89927 57.667C10.5791 56.7991 11.4605 56.7412 12.367 56.625C13.3741 56.4516 14.2548 56.0464 14.5067 54.8018C14.6324 54.3679 14.7841 53.9917 15.036 53.6445C15.0862 53.5579 15.1112 53.471 15.1112 53.3838C15.1111 53.2395 15.0354 53.1237 14.9344 53.0371C14.7836 52.8927 14.5572 52.8059 14.3807 52.7764C13.5501 52.6608 12.9956 52.313 12.618 51.7051C11.9132 50.5476 11.5864 48.8981 11.9891 47.5674C12.2662 46.7577 12.9707 46.6131 13.4237 47.3066C14.1034 48.3767 14.8836 49.1875 16.0917 49.4482C16.3687 49.4771 16.6965 49.39 16.9227 49.2744C17.3505 48.985 17.8035 48.6668 18.2821 48.3779C18.6597 48.1462 18.8117 47.799 19.0379 47.4229V47.4268C19.4407 46.6744 20.448 46.5016 21.1278 46.4727C22.1349 46.4149 22.966 46.3281 23.5956 46.2119C23.8976 46.1829 24.1997 46.0089 24.577 45.749C25.0388 45.3773 25.6285 45.128 26.2088 45V85.832Z" fill="#C2C2C2"/>
<path d="M26.2088 40.832C25.5683 39.9757 25.1739 39.0025 25.0047 37.8994C25.0047 37.842 24.9548 37.8128 24.9295 37.8125H24.9042C24.3752 38.2465 23.771 38.5072 23.242 38.8828C22.4366 39.4907 21.6063 40.0982 20.7752 40.7344C20.3976 40.995 19.969 41.1965 19.5663 41.2832C19.3648 41.3409 19.1892 41.3705 19.0379 41.457C19.0128 41.457 18.9625 41.5151 18.9374 41.5439C17.7292 43.3952 16.495 44.8706 14.3553 44.9863C12.1904 45.1019 10.0501 44.4662 7.98618 44.0322C7.00418 43.8011 5.61889 43.6843 3.78111 43.5977C1.94344 43.4821 0.886027 42.8744 0.483254 40.6758C0.307279 39.605 0.181245 38.6498 0.156106 37.7529C0.0807047 36.5379 0.0298775 35.3806 0.00473884 34.3105C-0.0455383 33.2404 0.306885 32.7186 0.936379 31.9951C1.1883 31.7056 1.26428 31.2141 1.3397 30.8379C1.38998 30.4906 1.61686 30.1723 1.94419 30.2012C2.49816 30.23 3.10169 30.1147 3.70591 29.7676C5.61912 28.6968 6.62703 26.8743 7.78501 24.9355C8.41452 23.8359 9.11944 22.8229 9.95005 21.6943C10.0001 21.608 10.0252 21.5216 10.0252 21.4346C10.1258 20.2193 10.1255 19.0032 9.64732 17.8457C8.89226 16.1099 8.74087 14.171 9.89927 12.667C10.5791 11.7991 11.4605 11.7412 12.367 11.625C13.3741 11.4516 14.2548 11.0464 14.5067 9.80176C14.6324 9.36792 14.7841 8.99174 15.036 8.64453C15.0862 8.55793 15.1112 8.471 15.1112 8.38379C15.1111 8.23947 15.0354 8.12373 14.9344 8.03711C14.7836 7.8927 14.5572 7.80589 14.3807 7.77637C13.5501 7.6608 12.9956 7.31301 12.618 6.70508C11.9132 5.54761 11.5864 3.89812 11.9891 2.56738C12.2662 1.75775 12.9707 1.61315 13.4237 2.30664C14.1034 3.37672 14.8836 4.18751 16.0917 4.44824C16.3687 4.47713 16.6965 4.38998 16.9227 4.27441C17.3505 3.98496 17.8035 3.66678 18.2821 3.37793C18.6597 3.14619 18.8117 2.79905 19.0379 2.42285V2.42676C19.4407 1.67441 20.448 1.50156 21.1278 1.47266C22.1349 1.41487 22.966 1.32808 23.5956 1.21191C23.8976 1.18292 24.1997 1.00886 24.577 0.749023C25.0388 0.377318 25.6285 0.127979 26.2088 0V40.832Z" fill="#C2C2C2"/>
<path d="M65.4178 310.833C64.7773 309.976 64.3829 309.003 64.2137 307.9C64.2137 307.843 64.1638 307.813 64.1385 307.813H64.1131C63.5842 308.247 62.98 308.508 62.451 308.883C61.6456 309.491 60.8153 310.099 59.9842 310.735C59.6066 310.996 59.178 311.197 58.7752 311.284C58.5738 311.342 58.3982 311.371 58.2469 311.458C58.2218 311.458 58.1715 311.516 58.1463 311.545C56.9382 313.396 55.704 314.871 53.5643 314.987C51.3994 315.102 49.2591 314.467 47.1952 314.033C46.2132 313.802 44.8279 313.685 42.9901 313.598C41.1524 313.483 40.095 312.875 39.6922 310.676C39.5163 309.606 39.3902 308.65 39.3651 307.754C39.2897 306.538 39.2389 305.381 39.2137 304.311C39.1634 303.241 39.5159 302.719 40.1454 301.996C40.3973 301.706 40.4733 301.215 40.5487 300.839C40.599 300.491 40.8258 300.173 41.1532 300.202C41.7071 300.231 42.3107 300.115 42.9149 299.768C44.8281 298.697 45.836 296.875 46.994 294.936C47.6235 293.837 48.3284 292.823 49.159 291.695C49.2091 291.609 49.2342 291.522 49.2342 291.435C49.3348 290.22 49.3345 289.004 48.8563 287.846C48.1012 286.111 47.9499 284.172 49.1083 282.668C49.7881 281.8 50.6695 281.742 51.576 281.626C52.583 281.452 53.4638 281.047 53.7157 279.802C53.8414 279.369 53.9931 278.992 54.245 278.645C54.2952 278.559 54.3202 278.472 54.3202 278.384C54.3201 278.24 54.2444 278.124 54.1434 278.038C53.9926 277.893 53.7662 277.807 53.5897 277.777C52.7591 277.661 52.2046 277.314 51.827 276.706C51.1222 275.548 50.7954 273.899 51.1981 272.568C51.4752 271.758 52.1797 271.614 52.6327 272.307C53.3124 273.377 54.0926 274.188 55.3006 274.449C55.5777 274.478 55.9054 274.391 56.1317 274.275C56.5595 273.986 57.0125 273.667 57.4911 273.379C57.8687 273.147 58.0207 272.8 58.2469 272.423V272.427C58.6497 271.675 59.657 271.502 60.3368 271.473C61.3439 271.415 62.175 271.329 62.8045 271.213C63.1066 271.184 63.4086 271.009 63.786 270.75C64.2478 270.378 64.8375 270.129 65.4178 270.001V310.833Z" fill="#C2C2C2"/>
<path d="M65.4178 265.833C64.7773 264.976 64.3829 264.003 64.2137 262.9C64.2137 262.842 64.1638 262.813 64.1385 262.813H64.1131C63.5842 263.247 62.98 263.508 62.451 263.883C61.6456 264.491 60.8153 265.099 59.9842 265.735C59.6066 265.995 59.178 266.197 58.7752 266.284C58.5738 266.341 58.3982 266.371 58.2469 266.458C58.2218 266.458 58.1715 266.516 58.1463 266.544C56.9382 268.396 55.704 269.871 53.5643 269.987C51.3994 270.102 49.2591 269.467 47.1952 269.033C46.2132 268.802 44.8279 268.685 42.9901 268.598C41.1524 268.483 40.095 267.875 39.6922 265.676C39.5163 264.605 39.3902 263.65 39.3651 262.753C39.2897 261.538 39.2389 260.381 39.2137 259.311C39.1634 258.241 39.5159 257.719 40.1454 256.996C40.3973 256.706 40.4733 256.215 40.5487 255.838C40.599 255.491 40.8258 255.173 41.1532 255.202C41.7071 255.231 42.3107 255.115 42.9149 254.768C44.8281 253.697 45.836 251.875 46.994 249.936C47.6235 248.836 48.3284 247.823 49.159 246.695C49.2091 246.608 49.2342 246.522 49.2342 246.435C49.3348 245.22 49.3345 244.004 48.8563 242.846C48.1012 241.11 47.9499 239.172 49.1083 237.667C49.7881 236.8 50.6695 236.742 51.576 236.625C52.583 236.452 53.4638 236.047 53.7157 234.802C53.8414 234.368 53.9931 233.992 54.245 233.645C54.2952 233.558 54.3202 233.471 54.3202 233.384C54.3201 233.24 54.2444 233.124 54.1434 233.038C53.9926 232.893 53.7662 232.806 53.5897 232.777C52.7591 232.661 52.2046 232.314 51.827 231.706C51.1222 230.548 50.7954 228.899 51.1981 227.568C51.4752 226.758 52.1797 226.614 52.6327 227.307C53.3124 228.377 54.0926 229.188 55.3006 229.449C55.5777 229.478 55.9054 229.39 56.1317 229.275C56.5595 228.985 57.0125 228.667 57.4911 228.378C57.8687 228.147 58.0207 227.8 58.2469 227.423V227.427C58.6497 226.675 59.657 226.502 60.3368 226.473C61.3439 226.415 62.175 226.329 62.8045 226.212C63.1066 226.183 63.4086 226.009 63.786 225.75C64.2478 225.378 64.8375 225.128 65.4178 225V265.833Z" fill="#C2C2C2"/>
<path d="M65.4178 220.832C64.7773 219.976 64.3829 219.003 64.2137 217.9C64.2137 217.842 64.1638 217.813 64.1385 217.813H64.1131C63.5842 218.247 62.98 218.508 62.451 218.883C61.6456 219.491 60.8153 220.099 59.9842 220.735C59.6066 220.995 59.178 221.197 58.7752 221.284C58.5738 221.341 58.3982 221.371 58.2469 221.457C58.2218 221.457 58.1715 221.515 58.1463 221.544C56.9382 223.396 55.704 224.871 53.5643 224.987C51.3994 225.102 49.2591 224.467 47.1952 224.033C46.2132 223.801 44.8279 223.685 42.9901 223.598C41.1524 223.482 40.095 222.875 39.6922 220.676C39.5163 219.605 39.3902 218.65 39.3651 217.753C39.2897 216.538 39.2389 215.381 39.2137 214.311C39.1634 213.241 39.5159 212.719 40.1454 211.995C40.3973 211.706 40.4733 211.214 40.5487 210.838C40.599 210.491 40.8258 210.173 41.1532 210.202C41.7071 210.23 42.3107 210.115 42.9149 209.768C44.8281 208.697 45.836 206.875 46.994 204.936C47.6235 203.836 48.3284 202.823 49.159 201.695C49.2091 201.608 49.2342 201.522 49.2342 201.435C49.3348 200.22 49.3345 199.004 48.8563 197.846C48.1012 196.11 47.9499 194.171 49.1083 192.667C49.7881 191.799 50.6695 191.742 51.576 191.625C52.583 191.452 53.4638 191.047 53.7157 189.802C53.8414 189.368 53.9931 188.992 54.245 188.645C54.2952 188.558 54.3202 188.471 54.3202 188.384C54.3201 188.24 54.2444 188.124 54.1434 188.037C53.9926 187.893 53.7662 187.806 53.5897 187.777C52.7591 187.661 52.2046 187.313 51.827 186.705C51.1222 185.548 50.7954 183.898 51.1981 182.568C51.4752 181.758 52.1797 181.614 52.6327 182.307C53.3124 183.377 54.0926 184.188 55.3006 184.449C55.5777 184.478 55.9054 184.39 56.1317 184.275C56.5595 183.985 57.0125 183.667 57.4911 183.378C57.8687 183.147 58.0207 182.799 58.2469 182.423V182.427C58.6497 181.675 59.657 181.502 60.3368 181.473C61.3439 181.415 62.175 181.328 62.8045 181.212C63.1066 181.183 63.4086 181.009 63.786 180.749C64.2478 180.378 64.8375 180.128 65.4178 180V220.832Z" fill="#C2C2C2"/>
<path d="M65.4178 175.832C64.7773 174.976 64.3829 174.003 64.2137 172.9C64.2137 172.842 64.1638 172.813 64.1385 172.813H64.1131C63.5842 173.247 62.98 173.507 62.451 173.883C61.6456 174.491 60.8153 175.098 59.9842 175.735C59.6066 175.995 59.178 176.197 58.7752 176.283C58.5738 176.341 58.3982 176.371 58.2469 176.457C58.2218 176.457 58.1715 176.515 58.1463 176.544C56.9382 178.395 55.704 179.871 53.5643 179.987C51.3994 180.102 49.2591 179.466 47.1952 179.032C46.2132 178.801 44.8279 178.685 42.9901 178.598C41.1524 178.482 40.095 177.875 39.6922 175.676C39.5163 174.605 39.3902 173.65 39.3651 172.753C39.2897 171.538 39.2389 170.381 39.2137 169.311C39.1634 168.241 39.5159 167.719 40.1454 166.995C40.3973 166.706 40.4733 166.214 40.5487 165.838C40.599 165.491 40.8258 165.173 41.1532 165.201C41.7071 165.23 42.3107 165.115 42.9149 164.768C44.8281 163.697 45.836 161.875 46.994 159.936C47.6235 158.836 48.3284 157.823 49.159 156.695C49.2091 156.608 49.2342 156.522 49.2342 156.435C49.3348 155.22 49.3345 154.003 48.8563 152.846C48.1012 151.11 47.9499 149.171 49.1083 147.667C49.7881 146.799 50.6695 146.741 51.576 146.625C52.583 146.452 53.4638 146.047 53.7157 144.802C53.8414 144.368 53.9931 143.992 54.245 143.645C54.2952 143.558 54.3202 143.471 54.3202 143.384C54.3201 143.24 54.2444 143.124 54.1434 143.037C53.9926 142.893 53.7662 142.806 53.5897 142.777C52.7591 142.661 52.2046 142.313 51.827 141.705C51.1222 140.548 50.7954 138.898 51.1981 137.568C51.4752 136.758 52.1797 136.613 52.6327 137.307C53.3124 138.377 54.0926 139.188 55.3006 139.448C55.5777 139.477 55.9054 139.39 56.1317 139.275C56.5595 138.985 57.0125 138.667 57.4911 138.378C57.8687 138.146 58.0207 137.799 58.2469 137.423V137.427C58.6497 136.675 59.657 136.502 60.3368 136.473C61.3439 136.415 62.175 136.328 62.8045 136.212C63.1066 136.183 63.4086 136.009 63.786 135.749C64.2478 135.378 64.8375 135.128 65.4178 135V175.832Z" fill="#C2C2C2"/>
<path d="M65.4178 130.832C64.7773 129.976 64.3829 129.003 64.2137 127.9C64.2137 127.842 64.1638 127.813 64.1385 127.813H64.1131C63.5842 128.247 62.98 128.507 62.451 128.883C61.6456 129.491 60.8153 130.098 59.9842 130.734C59.6066 130.995 59.178 131.197 58.7752 131.283C58.5738 131.341 58.3982 131.371 58.2469 131.457C58.2218 131.457 58.1715 131.515 58.1463 131.544C56.9382 133.395 55.704 134.871 53.5643 134.986C51.3994 135.102 49.2591 134.466 47.1952 134.032C46.2132 133.801 44.8279 133.684 42.9901 133.598C41.1524 133.482 40.095 132.874 39.6922 130.676C39.5163 129.605 39.3902 128.65 39.3651 127.753C39.2897 126.538 39.2389 125.381 39.2137 124.311C39.1634 123.24 39.5159 122.719 40.1454 121.995C40.3973 121.706 40.4733 121.214 40.5487 120.838C40.599 120.491 40.8258 120.172 41.1532 120.201C41.7071 120.23 42.3107 120.115 42.9149 119.768C44.8281 118.697 45.836 116.874 46.994 114.936C47.6235 113.836 48.3284 112.823 49.159 111.694C49.2091 111.608 49.2342 111.522 49.2342 111.435C49.3348 110.219 49.3345 109.003 48.8563 107.846C48.1012 106.11 47.9499 104.171 49.1083 102.667C49.7881 101.799 50.6695 101.741 51.576 101.625C52.583 101.452 53.4638 101.047 53.7157 99.8019C53.8414 99.368 53.9931 98.9919 54.245 98.6447C54.2952 98.558 54.3202 98.4711 54.3202 98.3839C54.3201 98.2396 54.2444 98.1239 54.1434 98.0372C53.9926 97.8928 53.7662 97.806 53.5897 97.7765C52.7591 97.6609 52.2046 97.3131 51.827 96.7052C51.1222 95.5477 50.7954 93.8982 51.1981 92.5675C51.4752 91.7579 52.1797 91.6133 52.6327 92.3068C53.3124 93.3768 54.0926 94.1876 55.3006 94.4484C55.5777 94.4773 55.9054 94.3901 56.1317 94.2745C56.5595 93.9851 57.0125 93.6669 57.4911 93.3781C57.8687 93.1463 58.0207 92.7992 58.2469 92.423V92.4269C58.6497 91.6745 59.657 91.5017 60.3368 91.4728C61.3439 91.415 62.175 91.3282 62.8045 91.212C63.1066 91.183 63.4086 91.009 63.786 90.7491C64.2478 90.3774 64.8375 90.1281 65.4178 90.0001V130.832Z" fill="#C2C2C2"/>
<path d="M65.4178 85.832C64.7773 84.9757 64.3829 84.0025 64.2137 82.8994C64.2137 82.842 64.1638 82.8128 64.1385 82.8125H64.1131C63.5842 83.2465 62.98 83.5072 62.451 83.8828C61.6456 84.4907 60.8153 85.0982 59.9842 85.7344C59.6066 85.995 59.178 86.1965 58.7752 86.2832C58.5738 86.3409 58.3982 86.3705 58.2469 86.457C58.2218 86.457 58.1715 86.5151 58.1463 86.5439C56.9382 88.3952 55.704 89.8706 53.5643 89.9863C51.3994 90.1019 49.2591 89.4662 47.1952 89.0322C46.2132 88.8011 44.8279 88.6843 42.9901 88.5977C41.1524 88.4821 40.095 87.8744 39.6922 85.6758C39.5163 84.605 39.3902 83.6498 39.3651 82.7529C39.2897 81.5379 39.2389 80.3806 39.2137 79.3105C39.1634 78.2404 39.5159 77.7186 40.1454 76.9951C40.3973 76.7056 40.4733 76.2141 40.5487 75.8379C40.599 75.4906 40.8258 75.1723 41.1532 75.2012C41.7071 75.23 42.3107 75.1147 42.9149 74.7676C44.8281 73.6968 45.836 71.8743 46.994 69.9355C47.6235 68.8359 48.3284 67.8229 49.159 66.6943C49.2091 66.608 49.2342 66.5216 49.2342 66.4346C49.3348 65.2193 49.3345 64.0032 48.8563 62.8457C48.1012 61.1099 47.9499 59.171 49.1083 57.667C49.7881 56.7991 50.6695 56.7412 51.576 56.625C52.583 56.4516 53.4638 56.0464 53.7157 54.8018C53.8414 54.3679 53.9931 53.9917 54.245 53.6445C54.2952 53.5579 54.3202 53.471 54.3202 53.3838C54.3201 53.2395 54.2444 53.1237 54.1434 53.0371C53.9926 52.8927 53.7662 52.8059 53.5897 52.7764C52.7591 52.6608 52.2046 52.313 51.827 51.7051C51.1222 50.5476 50.7954 48.8981 51.1981 47.5674C51.4752 46.7577 52.1797 46.6131 52.6327 47.3066C53.3124 48.3767 54.0926 49.1875 55.3006 49.4482C55.5777 49.4771 55.9054 49.39 56.1317 49.2744C56.5595 48.985 57.0125 48.6668 57.4911 48.3779C57.8687 48.1462 58.0207 47.799 58.2469 47.4229V47.4268C58.6497 46.6744 59.657 46.5016 60.3368 46.4727C61.3439 46.4149 62.175 46.3281 62.8045 46.2119C63.1066 46.1829 63.4086 46.0089 63.786 45.749C64.2478 45.3773 64.8375 45.128 65.4178 45V85.832Z" fill="#C2C2C2"/>
<path d="M65.4178 40.832C64.7773 39.9757 64.3829 39.0025 64.2137 37.8994C64.2137 37.842 64.1638 37.8128 64.1385 37.8125H64.1131C63.5842 38.2465 62.98 38.5072 62.451 38.8828C61.6456 39.4907 60.8153 40.0982 59.9842 40.7344C59.6066 40.995 59.178 41.1965 58.7752 41.2832C58.5738 41.3409 58.3982 41.3705 58.2469 41.457C58.2218 41.457 58.1715 41.5151 58.1463 41.5439C56.9382 43.3952 55.704 44.8706 53.5643 44.9863C51.3994 45.1019 49.2591 44.4662 47.1952 44.0322C46.2132 43.8011 44.8279 43.6843 42.9901 43.5977C41.1524 43.4821 40.095 42.8744 39.6922 40.6758C39.5163 39.605 39.3902 38.6498 39.3651 37.7529C39.2897 36.5379 39.2389 35.3806 39.2137 34.3105C39.1634 33.2404 39.5159 32.7186 40.1454 31.9951C40.3973 31.7056 40.4733 31.2141 40.5487 30.8379C40.599 30.4906 40.8258 30.1723 41.1532 30.2012C41.7071 30.23 42.3107 30.1147 42.9149 29.7676C44.8281 28.6968 45.836 26.8743 46.994 24.9355C47.6235 23.8359 48.3284 22.8229 49.159 21.6943C49.2091 21.608 49.2342 21.5216 49.2342 21.4346C49.3348 20.2193 49.3345 19.0032 48.8563 17.8457C48.1012 16.1099 47.9499 14.171 49.1083 12.667C49.7881 11.7991 50.6695 11.7412 51.576 11.625C52.583 11.4516 53.4638 11.0464 53.7157 9.80176C53.8414 9.36792 53.9931 8.99174 54.245 8.64453C54.2952 8.55793 54.3202 8.471 54.3202 8.38379C54.3201 8.23947 54.2444 8.12373 54.1434 8.03711C53.9926 7.8927 53.7662 7.80589 53.5897 7.77637C52.7591 7.6608 52.2046 7.31301 51.827 6.70508C51.1222 5.54761 50.7954 3.89812 51.1981 2.56738C51.4752 1.75775 52.1797 1.61315 52.6327 2.30664C53.3124 3.37672 54.0926 4.18751 55.3006 4.44824C55.5777 4.47713 55.9054 4.38998 56.1317 4.27441C56.5595 3.98496 57.0125 3.66678 57.4911 3.37793C57.8687 3.14619 58.0207 2.79905 58.2469 2.42285V2.42676C58.6497 1.67441 59.657 1.50156 60.3368 1.47266C61.3439 1.41487 62.175 1.32808 62.8045 1.21191C63.1066 1.18292 63.4086 1.00886 63.786 0.749023C64.2478 0.377318 64.8375 0.127979 65.4178 0V40.832Z" fill="#C2C2C2"/>
<path d="M104.627 310.833C103.986 309.976 103.592 309.003 103.423 307.9C103.423 307.843 103.373 307.813 103.348 307.813H103.322C102.793 308.247 102.189 308.508 101.66 308.883C100.855 309.491 100.024 310.099 99.1932 310.735C98.8156 310.996 98.387 311.197 97.9842 311.284C97.7828 311.342 97.6072 311.371 97.4559 311.458C97.4308 311.458 97.3805 311.516 97.3553 311.545C96.1472 313.396 94.913 314.871 92.7733 314.987C90.6083 315.102 88.468 314.467 86.4042 314.033C85.4221 313.802 84.0369 313.685 82.1991 313.598C80.3614 313.483 79.304 312.875 78.9012 310.676C78.7252 309.606 78.5992 308.65 78.5741 307.754C78.4987 306.538 78.4478 305.381 78.4227 304.311C78.3724 303.241 78.7249 302.719 79.3543 301.996C79.6063 301.706 79.6823 301.215 79.7577 300.839C79.8079 300.491 80.0348 300.173 80.3622 300.202C80.9161 300.231 81.5197 300.115 82.1239 299.768C84.0371 298.697 85.045 296.875 86.203 294.936C86.8325 293.837 87.5374 292.823 88.368 291.695C88.418 291.609 88.4431 291.522 88.4432 291.435C88.5438 290.22 88.5435 289.004 88.0653 287.846C87.3102 286.111 87.1588 284.172 88.3172 282.668C88.997 281.8 89.8785 281.742 90.785 281.626C91.792 281.452 92.6728 281.047 92.9247 279.802C93.0503 279.369 93.2021 278.992 93.454 278.645C93.5042 278.559 93.5292 278.472 93.5292 278.384C93.5291 278.24 93.4534 278.124 93.3524 278.038C93.2016 277.893 92.9752 277.807 92.7987 277.777C91.968 277.661 91.4136 277.314 91.036 276.706C90.3311 275.548 90.0044 273.899 90.4071 272.568C90.6842 271.758 91.3887 271.614 91.8417 272.307C92.5214 273.377 93.3016 274.188 94.5096 274.449C94.7867 274.478 95.1144 274.391 95.3407 274.275C95.7685 273.986 96.2215 273.667 96.7001 273.379C97.0777 273.147 97.2297 272.8 97.4559 272.423V272.427C97.8587 271.675 98.866 271.502 99.5458 271.473C100.553 271.415 101.384 271.329 102.014 271.213C102.316 271.184 102.618 271.009 102.995 270.75C103.457 270.378 104.046 270.129 104.627 270.001V310.833Z" fill="#C2C2C2"/>
<path d="M104.627 265.833C103.986 264.976 103.592 264.003 103.423 262.9C103.423 262.842 103.373 262.813 103.348 262.813H103.322C102.793 263.247 102.189 263.508 101.66 263.883C100.855 264.491 100.024 265.099 99.1932 265.735C98.8156 265.995 98.387 266.197 97.9842 266.284C97.7828 266.341 97.6072 266.371 97.4559 266.458C97.4308 266.458 97.3805 266.516 97.3553 266.544C96.1472 268.396 94.913 269.871 92.7733 269.987C90.6083 270.102 88.468 269.467 86.4042 269.033C85.4221 268.802 84.0369 268.685 82.1991 268.598C80.3614 268.483 79.304 267.875 78.9012 265.676C78.7252 264.605 78.5992 263.65 78.5741 262.753C78.4987 261.538 78.4478 260.381 78.4227 259.311C78.3724 258.241 78.7249 257.719 79.3543 256.996C79.6063 256.706 79.6823 256.215 79.7577 255.838C79.8079 255.491 80.0348 255.173 80.3622 255.202C80.9161 255.231 81.5197 255.115 82.1239 254.768C84.0371 253.697 85.045 251.875 86.203 249.936C86.8325 248.836 87.5374 247.823 88.368 246.695C88.418 246.608 88.4431 246.522 88.4432 246.435C88.5438 245.22 88.5435 244.004 88.0653 242.846C87.3102 241.11 87.1588 239.172 88.3172 237.667C88.997 236.8 89.8785 236.742 90.785 236.625C91.792 236.452 92.6728 236.047 92.9247 234.802C93.0503 234.368 93.2021 233.992 93.454 233.645C93.5042 233.558 93.5292 233.471 93.5292 233.384C93.5291 233.24 93.4534 233.124 93.3524 233.038C93.2016 232.893 92.9752 232.806 92.7987 232.777C91.968 232.661 91.4136 232.314 91.036 231.706C90.3311 230.548 90.0044 228.899 90.4071 227.568C90.6842 226.758 91.3887 226.614 91.8417 227.307C92.5214 228.377 93.3016 229.188 94.5096 229.449C94.7867 229.478 95.1144 229.39 95.3407 229.275C95.7685 228.985 96.2215 228.667 96.7001 228.378C97.0777 228.147 97.2297 227.8 97.4559 227.423V227.427C97.8587 226.675 98.866 226.502 99.5458 226.473C100.553 226.415 101.384 226.329 102.014 226.212C102.316 226.183 102.618 226.009 102.995 225.75C103.457 225.378 104.046 225.128 104.627 225V265.833Z" fill="#C2C2C2"/>
<path d="M104.627 220.832C103.986 219.976 103.592 219.003 103.423 217.9C103.423 217.842 103.373 217.813 103.348 217.813H103.322C102.793 218.247 102.189 218.508 101.66 218.883C100.855 219.491 100.024 220.099 99.1932 220.735C98.8156 220.995 98.387 221.197 97.9842 221.284C97.7828 221.341 97.6072 221.371 97.4559 221.457C97.4308 221.457 97.3805 221.515 97.3553 221.544C96.1472 223.396 94.913 224.871 92.7733 224.987C90.6083 225.102 88.468 224.467 86.4042 224.033C85.4221 223.801 84.0369 223.685 82.1991 223.598C80.3614 223.482 79.304 222.875 78.9012 220.676C78.7252 219.605 78.5992 218.65 78.5741 217.753C78.4987 216.538 78.4478 215.381 78.4227 214.311C78.3724 213.241 78.7249 212.719 79.3543 211.995C79.6063 211.706 79.6823 211.214 79.7577 210.838C79.8079 210.491 80.0348 210.173 80.3622 210.202C80.9161 210.23 81.5197 210.115 82.1239 209.768C84.0371 208.697 85.045 206.875 86.203 204.936C86.8325 203.836 87.5374 202.823 88.368 201.695C88.418 201.608 88.4431 201.522 88.4432 201.435C88.5438 200.22 88.5435 199.004 88.0653 197.846C87.3102 196.11 87.1588 194.171 88.3172 192.667C88.997 191.799 89.8785 191.742 90.785 191.625C91.792 191.452 92.6728 191.047 92.9247 189.802C93.0503 189.368 93.2021 188.992 93.454 188.645C93.5042 188.558 93.5292 188.471 93.5292 188.384C93.5291 188.24 93.4534 188.124 93.3524 188.037C93.2016 187.893 92.9752 187.806 92.7987 187.777C91.968 187.661 91.4136 187.313 91.036 186.705C90.3311 185.548 90.0044 183.898 90.4071 182.568C90.6842 181.758 91.3887 181.614 91.8417 182.307C92.5214 183.377 93.3016 184.188 94.5096 184.449C94.7867 184.478 95.1144 184.39 95.3407 184.275C95.7685 183.985 96.2215 183.667 96.7001 183.378C97.0777 183.147 97.2297 182.799 97.4559 182.423V182.427C97.8587 181.675 98.866 181.502 99.5458 181.473C100.553 181.415 101.384 181.328 102.014 181.212C102.316 181.183 102.618 181.009 102.995 180.749C103.457 180.378 104.046 180.128 104.627 180V220.832Z" fill="#C2C2C2"/>
<path d="M104.627 175.832C103.986 174.976 103.592 174.003 103.423 172.9C103.423 172.842 103.373 172.813 103.348 172.813H103.322C102.793 173.247 102.189 173.507 101.66 173.883C100.855 174.491 100.024 175.098 99.1932 175.735C98.8156 175.995 98.387 176.197 97.9842 176.283C97.7828 176.341 97.6072 176.371 97.4559 176.457C97.4308 176.457 97.3805 176.515 97.3553 176.544C96.1472 178.395 94.913 179.871 92.7733 179.987C90.6083 180.102 88.468 179.466 86.4042 179.032C85.4221 178.801 84.0369 178.685 82.1991 178.598C80.3614 178.482 79.304 177.875 78.9012 175.676C78.7252 174.605 78.5992 173.65 78.5741 172.753C78.4987 171.538 78.4478 170.381 78.4227 169.311C78.3724 168.241 78.7249 167.719 79.3543 166.995C79.6063 166.706 79.6823 166.214 79.7577 165.838C79.8079 165.491 80.0348 165.173 80.3622 165.201C80.9161 165.23 81.5197 165.115 82.1239 164.768C84.0371 163.697 85.045 161.875 86.203 159.936C86.8325 158.836 87.5374 157.823 88.368 156.695C88.418 156.608 88.4431 156.522 88.4432 156.435C88.5438 155.22 88.5435 154.003 88.0653 152.846C87.3102 151.11 87.1588 149.171 88.3172 147.667C88.997 146.799 89.8785 146.741 90.785 146.625C91.792 146.452 92.6728 146.047 92.9247 144.802C93.0503 144.368 93.2021 143.992 93.454 143.645C93.5042 143.558 93.5292 143.471 93.5292 143.384C93.5291 143.24 93.4534 143.124 93.3524 143.037C93.2016 142.893 92.9752 142.806 92.7987 142.777C91.968 142.661 91.4136 142.313 91.036 141.705C90.3311 140.548 90.0044 138.898 90.4071 137.568C90.6842 136.758 91.3887 136.613 91.8417 137.307C92.5214 138.377 93.3016 139.188 94.5096 139.448C94.7867 139.477 95.1144 139.39 95.3407 139.275C95.7685 138.985 96.2215 138.667 96.7001 138.378C97.0777 138.146 97.2297 137.799 97.4559 137.423V137.427C97.8587 136.675 98.866 136.502 99.5458 136.473C100.553 136.415 101.384 136.328 102.014 136.212C102.316 136.183 102.618 136.009 102.995 135.749C103.457 135.378 104.046 135.128 104.627 135V175.832Z" fill="#C2C2C2"/>
<path d="M104.627 130.832C103.986 129.976 103.592 129.003 103.423 127.9C103.423 127.842 103.373 127.813 103.348 127.813H103.322C102.793 128.247 102.189 128.507 101.66 128.883C100.855 129.491 100.024 130.098 99.1932 130.734C98.8156 130.995 98.387 131.197 97.9842 131.283C97.7828 131.341 97.6072 131.371 97.4559 131.457C97.4308 131.457 97.3805 131.515 97.3553 131.544C96.1472 133.395 94.913 134.871 92.7733 134.986C90.6083 135.102 88.468 134.466 86.4042 134.032C85.4221 133.801 84.0369 133.684 82.1991 133.598C80.3614 133.482 79.304 132.874 78.9012 130.676C78.7252 129.605 78.5992 128.65 78.5741 127.753C78.4987 126.538 78.4478 125.381 78.4227 124.311C78.3724 123.24 78.7249 122.719 79.3543 121.995C79.6063 121.706 79.6823 121.214 79.7577 120.838C79.8079 120.491 80.0348 120.172 80.3622 120.201C80.9161 120.23 81.5197 120.115 82.1239 119.768C84.0371 118.697 85.045 116.874 86.203 114.936C86.8325 113.836 87.5374 112.823 88.368 111.694C88.418 111.608 88.4431 111.522 88.4432 111.435C88.5438 110.219 88.5435 109.003 88.0653 107.846C87.3102 106.11 87.1588 104.171 88.3172 102.667C88.997 101.799 89.8785 101.741 90.785 101.625C91.792 101.452 92.6728 101.047 92.9247 99.8019C93.0503 99.368 93.2021 98.9919 93.454 98.6447C93.5042 98.558 93.5292 98.4711 93.5292 98.3839C93.5291 98.2396 93.4534 98.1239 93.3524 98.0372C93.2016 97.8928 92.9752 97.806 92.7987 97.7765C91.968 97.6609 91.4136 97.3131 91.036 96.7052C90.3311 95.5477 90.0044 93.8982 90.4071 92.5675C90.6842 91.7579 91.3887 91.6133 91.8417 92.3068C92.5214 93.3768 93.3016 94.1876 94.5096 94.4484C94.7867 94.4773 95.1144 94.3901 95.3407 94.2745C95.7685 93.9851 96.2215 93.6669 96.7001 93.3781C97.0777 93.1463 97.2297 92.7992 97.4559 92.423V92.4269C97.8587 91.6745 98.866 91.5017 99.5458 91.4728C100.553 91.415 101.384 91.3282 102.014 91.212C102.316 91.183 102.618 91.009 102.995 90.7491C103.457 90.3774 104.046 90.1281 104.627 90.0001V130.832Z" fill="#C2C2C2"/>
<path d="M104.627 85.832C103.986 84.9757 103.592 84.0025 103.423 82.8994C103.423 82.842 103.373 82.8128 103.348 82.8125H103.322C102.793 83.2465 102.189 83.5072 101.66 83.8828C100.855 84.4907 100.024 85.0982 99.1932 85.7344C98.8156 85.995 98.387 86.1965 97.9842 86.2832C97.7828 86.3409 97.6072 86.3705 97.4559 86.457C97.4308 86.457 97.3805 86.5151 97.3553 86.5439C96.1472 88.3952 94.913 89.8706 92.7733 89.9863C90.6083 90.1019 88.468 89.4662 86.4042 89.0322C85.4221 88.8011 84.0369 88.6843 82.1991 88.5977C80.3614 88.4821 79.304 87.8744 78.9012 85.6758C78.7252 84.605 78.5992 83.6498 78.5741 82.7529C78.4987 81.5379 78.4478 80.3806 78.4227 79.3105C78.3724 78.2404 78.7249 77.7186 79.3543 76.9951C79.6063 76.7056 79.6823 76.2141 79.7577 75.8379C79.8079 75.4906 80.0348 75.1723 80.3622 75.2012C80.9161 75.23 81.5197 75.1147 82.1239 74.7676C84.0371 73.6968 85.045 71.8743 86.203 69.9355C86.8325 68.8359 87.5374 67.8229 88.368 66.6943C88.418 66.608 88.4431 66.5216 88.4432 66.4346C88.5438 65.2193 88.5435 64.0032 88.0653 62.8457C87.3102 61.1099 87.1588 59.171 88.3172 57.667C88.997 56.7991 89.8785 56.7412 90.785 56.625C91.792 56.4516 92.6728 56.0464 92.9247 54.8018C93.0503 54.3679 93.2021 53.9917 93.454 53.6445C93.5042 53.5579 93.5292 53.471 93.5292 53.3838C93.5291 53.2395 93.4534 53.1237 93.3524 53.0371C93.2016 52.8927 92.9752 52.8059 92.7987 52.7764C91.968 52.6608 91.4136 52.313 91.036 51.7051C90.3311 50.5476 90.0044 48.8981 90.4071 47.5674C90.6842 46.7577 91.3887 46.6131 91.8417 47.3066C92.5214 48.3767 93.3016 49.1875 94.5096 49.4482C94.7867 49.4771 95.1144 49.39 95.3407 49.2744C95.7685 48.985 96.2215 48.6668 96.7001 48.3779C97.0777 48.1462 97.2297 47.799 97.4559 47.4229V47.4268C97.8587 46.6744 98.866 46.5016 99.5458 46.4727C100.553 46.4149 101.384 46.3281 102.014 46.2119C102.316 46.1829 102.618 46.0089 102.995 45.749C103.457 45.3773 104.046 45.128 104.627 45V85.832Z" fill="#C2C2C2"/>
<path d="M104.627 40.832C103.986 39.9757 103.592 39.0025 103.423 37.8994C103.423 37.842 103.373 37.8128 103.348 37.8125H103.322C102.793 38.2465 102.189 38.5072 101.66 38.8828C100.855 39.4907 100.024 40.0982 99.1932 40.7344C98.8156 40.995 98.387 41.1965 97.9842 41.2832C97.7828 41.3409 97.6072 41.3705 97.4559 41.457C97.4308 41.457 97.3805 41.5151 97.3553 41.5439C96.1472 43.3952 94.913 44.8706 92.7733 44.9863C90.6083 45.1019 88.468 44.4662 86.4042 44.0322C85.4221 43.8011 84.0369 43.6843 82.1991 43.5977C80.3614 43.4821 79.304 42.8744 78.9012 40.6758C78.7252 39.605 78.5992 38.6498 78.5741 37.7529C78.4987 36.5379 78.4478 35.3806 78.4227 34.3105C78.3724 33.2404 78.7249 32.7186 79.3543 31.9951C79.6063 31.7056 79.6823 31.2141 79.7577 30.8379C79.8079 30.4906 80.0348 30.1723 80.3622 30.2012C80.9161 30.23 81.5197 30.1147 82.1239 29.7676C84.0371 28.6968 85.045 26.8743 86.203 24.9355C86.8325 23.8359 87.5374 22.8229 88.368 21.6943C88.418 21.608 88.4431 21.5216 88.4432 21.4346C88.5438 20.2193 88.5435 19.0032 88.0653 17.8457C87.3102 16.1099 87.1588 14.171 88.3172 12.667C88.997 11.7991 89.8785 11.7412 90.785 11.625C91.792 11.4516 92.6728 11.0464 92.9247 9.80176C93.0503 9.36792 93.2021 8.99174 93.454 8.64453C93.5042 8.55793 93.5292 8.471 93.5292 8.38379C93.5291 8.23947 93.4534 8.12373 93.3524 8.03711C93.2016 7.8927 92.9752 7.80589 92.7987 7.77637C91.968 7.6608 91.4136 7.31301 91.036 6.70508C90.3311 5.54761 90.0044 3.89812 90.4071 2.56738C90.6842 1.75775 91.3887 1.61315 91.8417 2.30664C92.5214 3.37672 93.3016 4.18751 94.5096 4.44824C94.7867 4.47713 95.1144 4.38998 95.3407 4.27441C95.7685 3.98496 96.2215 3.66678 96.7001 3.37793C97.0777 3.14619 97.2297 2.79905 97.4559 2.42285V2.42676C97.8587 1.67441 98.866 1.50156 99.5458 1.47266C100.553 1.41487 101.384 1.32808 102.014 1.21191C102.316 1.18292 102.618 1.00886 102.995 0.749023C103.457 0.377318 104.046 0.127979 104.627 0V40.832Z" fill="#C2C2C2"/>
<path d="M143.836 310.833C143.195 309.976 142.801 309.003 142.632 307.9C142.632 307.843 142.582 307.813 142.556 307.813H142.531C142.002 308.247 141.398 308.508 140.869 308.883C140.064 309.491 139.233 310.099 138.402 310.735C138.025 310.996 137.596 311.197 137.193 311.284C136.992 311.342 136.816 311.371 136.665 311.458C136.64 311.458 136.589 311.516 136.564 311.545C135.356 313.396 134.122 314.871 131.982 314.987C129.817 315.102 127.677 314.467 125.613 314.033C124.631 313.802 123.246 313.685 121.408 313.598C119.57 313.483 118.513 312.875 118.11 310.676C117.934 309.606 117.808 308.65 117.783 307.754C117.708 306.538 117.657 305.381 117.632 304.311C117.581 303.241 117.934 302.719 118.563 301.996C118.815 301.706 118.891 301.215 118.967 300.839C119.017 300.491 119.244 300.173 119.571 300.202C120.125 300.231 120.729 300.115 121.333 299.768C123.246 298.697 124.254 296.875 125.412 294.936C126.041 293.837 126.746 292.823 127.577 291.695C127.627 291.609 127.652 291.522 127.652 291.435C127.753 290.22 127.752 289.004 127.274 287.846C126.519 286.111 126.368 284.172 127.526 282.668C128.206 281.8 129.087 281.742 129.994 281.626C131.001 281.452 131.882 281.047 132.134 279.802C132.259 279.369 132.411 278.992 132.663 278.645C132.713 278.559 132.738 278.472 132.738 278.384C132.738 278.24 132.662 278.124 132.561 278.038C132.411 277.893 132.184 277.807 132.008 277.777C131.177 277.661 130.623 277.314 130.245 276.706C129.54 275.548 129.213 273.899 129.616 272.568C129.893 271.758 130.598 271.614 131.051 272.307C131.73 273.377 132.511 274.188 133.719 274.449C133.996 274.478 134.323 274.391 134.55 274.275C134.977 273.986 135.43 273.667 135.909 273.379C136.287 273.147 136.439 272.8 136.665 272.423V272.427C137.068 271.675 138.075 271.502 138.755 271.473C139.762 271.415 140.593 271.329 141.223 271.213C141.525 271.184 141.827 271.009 142.204 270.75C142.666 270.378 143.255 270.129 143.836 270.001V310.833Z" fill="#C2C2C2"/>
<path d="M143.836 265.833C143.195 264.976 142.801 264.003 142.632 262.9C142.632 262.842 142.582 262.813 142.556 262.813H142.531C142.002 263.247 141.398 263.508 140.869 263.883C140.064 264.491 139.233 265.099 138.402 265.735C138.025 265.995 137.596 266.197 137.193 266.284C136.992 266.341 136.816 266.371 136.665 266.458C136.64 266.458 136.589 266.516 136.564 266.544C135.356 268.396 134.122 269.871 131.982 269.987C129.817 270.102 127.677 269.467 125.613 269.033C124.631 268.802 123.246 268.685 121.408 268.598C119.57 268.483 118.513 267.875 118.11 265.676C117.934 264.605 117.808 263.65 117.783 262.753C117.708 261.538 117.657 260.381 117.632 259.311C117.581 258.241 117.934 257.719 118.563 256.996C118.815 256.706 118.891 256.215 118.967 255.838C119.017 255.491 119.244 255.173 119.571 255.202C120.125 255.231 120.729 255.115 121.333 254.768C123.246 253.697 124.254 251.875 125.412 249.936C126.041 248.836 126.746 247.823 127.577 246.695C127.627 246.608 127.652 246.522 127.652 246.435C127.753 245.22 127.752 244.004 127.274 242.846C126.519 241.11 126.368 239.172 127.526 237.667C128.206 236.8 129.087 236.742 129.994 236.625C131.001 236.452 131.882 236.047 132.134 234.802C132.259 234.368 132.411 233.992 132.663 233.645C132.713 233.558 132.738 233.471 132.738 233.384C132.738 233.24 132.662 233.124 132.561 233.038C132.411 232.893 132.184 232.806 132.008 232.777C131.177 232.661 130.623 232.314 130.245 231.706C129.54 230.548 129.213 228.899 129.616 227.568C129.893 226.758 130.598 226.614 131.051 227.307C131.73 228.377 132.511 229.188 133.719 229.449C133.996 229.478 134.323 229.39 134.55 229.275C134.977 228.985 135.43 228.667 135.909 228.378C136.287 228.147 136.439 227.8 136.665 227.423V227.427C137.068 226.675 138.075 226.502 138.755 226.473C139.762 226.415 140.593 226.329 141.223 226.212C141.525 226.183 141.827 226.009 142.204 225.75C142.666 225.378 143.255 225.128 143.836 225V265.833Z" fill="#C2C2C2"/>
<path d="M143.836 220.832C143.195 219.976 142.801 219.003 142.632 217.9C142.632 217.842 142.582 217.813 142.556 217.813H142.531C142.002 218.247 141.398 218.508 140.869 218.883C140.064 219.491 139.233 220.099 138.402 220.735C138.025 220.995 137.596 221.197 137.193 221.284C136.992 221.341 136.816 221.371 136.665 221.457C136.64 221.457 136.589 221.515 136.564 221.544C135.356 223.396 134.122 224.871 131.982 224.987C129.817 225.102 127.677 224.467 125.613 224.033C124.631 223.801 123.246 223.685 121.408 223.598C119.57 223.482 118.513 222.875 118.11 220.676C117.934 219.605 117.808 218.65 117.783 217.753C117.708 216.538 117.657 215.381 117.632 214.311C117.581 213.241 117.934 212.719 118.563 211.995C118.815 211.706 118.891 211.214 118.967 210.838C119.017 210.491 119.244 210.173 119.571 210.202C120.125 210.23 120.729 210.115 121.333 209.768C123.246 208.697 124.254 206.875 125.412 204.936C126.041 203.836 126.746 202.823 127.577 201.695C127.627 201.608 127.652 201.522 127.652 201.435C127.753 200.22 127.752 199.004 127.274 197.846C126.519 196.11 126.368 194.171 127.526 192.667C128.206 191.799 129.087 191.742 129.994 191.625C131.001 191.452 131.882 191.047 132.134 189.802C132.259 189.368 132.411 188.992 132.663 188.645C132.713 188.558 132.738 188.471 132.738 188.384C132.738 188.24 132.662 188.124 132.561 188.037C132.411 187.893 132.184 187.806 132.008 187.777C131.177 187.661 130.623 187.313 130.245 186.705C129.54 185.548 129.213 183.898 129.616 182.568C129.893 181.758 130.598 181.614 131.051 182.307C131.73 183.377 132.511 184.188 133.719 184.449C133.996 184.478 134.323 184.39 134.55 184.275C134.977 183.985 135.43 183.667 135.909 183.378C136.287 183.147 136.439 182.799 136.665 182.423V182.427C137.068 181.675 138.075 181.502 138.755 181.473C139.762 181.415 140.593 181.328 141.223 181.212C141.525 181.183 141.827 181.009 142.204 180.749C142.666 180.378 143.255 180.128 143.836 180V220.832Z" fill="#C2C2C2"/>
<path d="M143.836 175.832C143.195 174.976 142.801 174.003 142.632 172.9C142.632 172.842 142.582 172.813 142.556 172.813H142.531C142.002 173.247 141.398 173.507 140.869 173.883C140.064 174.491 139.233 175.098 138.402 175.735C138.025 175.995 137.596 176.197 137.193 176.283C136.992 176.341 136.816 176.371 136.665 176.457C136.64 176.457 136.589 176.515 136.564 176.544C135.356 178.395 134.122 179.871 131.982 179.987C129.817 180.102 127.677 179.466 125.613 179.032C124.631 178.801 123.246 178.685 121.408 178.598C119.57 178.482 118.513 177.875 118.11 175.676C117.934 174.605 117.808 173.65 117.783 172.753C117.708 171.538 117.657 170.381 117.632 169.311C117.581 168.241 117.934 167.719 118.563 166.995C118.815 166.706 118.891 166.214 118.967 165.838C119.017 165.491 119.244 165.173 119.571 165.201C120.125 165.23 120.729 165.115 121.333 164.768C123.246 163.697 124.254 161.875 125.412 159.936C126.041 158.836 126.746 157.823 127.577 156.695C127.627 156.608 127.652 156.522 127.652 156.435C127.753 155.22 127.752 154.003 127.274 152.846C126.519 151.11 126.368 149.171 127.526 147.667C128.206 146.799 129.087 146.741 129.994 146.625C131.001 146.452 131.882 146.047 132.134 144.802C132.259 144.368 132.411 143.992 132.663 143.645C132.713 143.558 132.738 143.471 132.738 143.384C132.738 143.24 132.662 143.124 132.561 143.037C132.411 142.893 132.184 142.806 132.008 142.777C131.177 142.661 130.623 142.313 130.245 141.705C129.54 140.548 129.213 138.898 129.616 137.568C129.893 136.758 130.598 136.613 131.051 137.307C131.73 138.377 132.511 139.188 133.719 139.448C133.996 139.477 134.323 139.39 134.55 139.275C134.977 138.985 135.43 138.667 135.909 138.378C136.287 138.146 136.439 137.799 136.665 137.423V137.427C137.068 136.675 138.075 136.502 138.755 136.473C139.762 136.415 140.593 136.328 141.223 136.212C141.525 136.183 141.827 136.009 142.204 135.749C142.666 135.378 143.255 135.128 143.836 135V175.832Z" fill="#C2C2C2"/>
<path d="M143.836 130.832C143.195 129.976 142.801 129.003 142.632 127.9C142.632 127.842 142.582 127.813 142.556 127.813H142.531C142.002 128.247 141.398 128.507 140.869 128.883C140.064 129.491 139.233 130.098 138.402 130.734C138.025 130.995 137.596 131.197 137.193 131.283C136.992 131.341 136.816 131.371 136.665 131.457C136.64 131.457 136.589 131.515 136.564 131.544C135.356 133.395 134.122 134.871 131.982 134.986C129.817 135.102 127.677 134.466 125.613 134.032C124.631 133.801 123.246 133.684 121.408 133.598C119.57 133.482 118.513 132.874 118.11 130.676C117.934 129.605 117.808 128.65 117.783 127.753C117.708 126.538 117.657 125.381 117.632 124.311C117.581 123.24 117.934 122.719 118.563 121.995C118.815 121.706 118.891 121.214 118.967 120.838C119.017 120.491 119.244 120.172 119.571 120.201C120.125 120.23 120.729 120.115 121.333 119.768C123.246 118.697 124.254 116.874 125.412 114.936C126.041 113.836 126.746 112.823 127.577 111.694C127.627 111.608 127.652 111.522 127.652 111.435C127.753 110.219 127.752 109.003 127.274 107.846C126.519 106.11 126.368 104.171 127.526 102.667C128.206 101.799 129.087 101.741 129.994 101.625C131.001 101.452 131.882 101.047 132.134 99.8019C132.259 99.368 132.411 98.9919 132.663 98.6447C132.713 98.558 132.738 98.4711 132.738 98.3839C132.738 98.2396 132.662 98.1239 132.561 98.0372C132.411 97.8928 132.184 97.806 132.008 97.7765C131.177 97.6609 130.623 97.3131 130.245 96.7052C129.54 95.5477 129.213 93.8982 129.616 92.5675C129.893 91.7579 130.598 91.6133 131.051 92.3068C131.73 93.3768 132.511 94.1876 133.719 94.4484C133.996 94.4773 134.323 94.3901 134.55 94.2745C134.977 93.9851 135.43 93.6669 135.909 93.3781C136.287 93.1463 136.439 92.7992 136.665 92.423V92.4269C137.068 91.6745 138.075 91.5017 138.755 91.4728C139.762 91.415 140.593 91.3282 141.223 91.212C141.525 91.183 141.827 91.009 142.204 90.7491C142.666 90.3774 143.255 90.1281 143.836 90.0001V130.832Z" fill="#C2C2C2"/>
<path d="M143.836 85.832C143.195 84.9757 142.801 84.0025 142.632 82.8994C142.632 82.842 142.582 82.8128 142.556 82.8125H142.531C142.002 83.2465 141.398 83.5072 140.869 83.8828C140.064 84.4907 139.233 85.0982 138.402 85.7344C138.025 85.995 137.596 86.1965 137.193 86.2832C136.992 86.3409 136.816 86.3705 136.665 86.457C136.64 86.457 136.589 86.5151 136.564 86.5439C135.356 88.3952 134.122 89.8706 131.982 89.9863C129.817 90.1019 127.677 89.4662 125.613 89.0322C124.631 88.8011 123.246 88.6843 121.408 88.5977C119.57 88.4821 118.513 87.8744 118.11 85.6758C117.934 84.605 117.808 83.6498 117.783 82.7529C117.708 81.5379 117.657 80.3806 117.632 79.3105C117.581 78.2404 117.934 77.7186 118.563 76.9951C118.815 76.7056 118.891 76.2141 118.967 75.8379C119.017 75.4906 119.244 75.1723 119.571 75.2012C120.125 75.23 120.729 75.1147 121.333 74.7676C123.246 73.6968 124.254 71.8743 125.412 69.9355C126.041 68.8359 126.746 67.8229 127.577 66.6943C127.627 66.608 127.652 66.5216 127.652 66.4346C127.753 65.2193 127.752 64.0032 127.274 62.8457C126.519 61.1099 126.368 59.171 127.526 57.667C128.206 56.7991 129.087 56.7412 129.994 56.625C131.001 56.4516 131.882 56.0464 132.134 54.8018C132.259 54.3679 132.411 53.9917 132.663 53.6445C132.713 53.5579 132.738 53.471 132.738 53.3838C132.738 53.2395 132.662 53.1237 132.561 53.0371C132.411 52.8927 132.184 52.8059 132.008 52.7764C131.177 52.6608 130.623 52.313 130.245 51.7051C129.54 50.5476 129.213 48.8981 129.616 47.5674C129.893 46.7577 130.598 46.6131 131.051 47.3066C131.73 48.3767 132.511 49.1875 133.719 49.4482C133.996 49.4771 134.323 49.39 134.55 49.2744C134.977 48.985 135.43 48.6668 135.909 48.3779C136.287 48.1462 136.439 47.799 136.665 47.4229V47.4268C137.068 46.6744 138.075 46.5016 138.755 46.4727C139.762 46.4149 140.593 46.3281 141.223 46.2119C141.525 46.1829 141.827 46.0089 142.204 45.749C142.666 45.3773 143.255 45.128 143.836 45V85.832Z" fill="#C2C2C2"/>
<path d="M143.836 40.832C143.195 39.9757 142.801 39.0025 142.632 37.8994C142.632 37.842 142.582 37.8128 142.556 37.8125H142.531C142.002 38.2465 141.398 38.5072 140.869 38.8828C140.064 39.4907 139.233 40.0982 138.402 40.7344C138.025 40.995 137.596 41.1965 137.193 41.2832C136.992 41.3409 136.816 41.3705 136.665 41.457C136.64 41.457 136.589 41.5151 136.564 41.5439C135.356 43.3952 134.122 44.8706 131.982 44.9863C129.817 45.1019 127.677 44.4662 125.613 44.0322C124.631 43.8011 123.246 43.6843 121.408 43.5977C119.57 43.4821 118.513 42.8744 118.11 40.6758C117.934 39.605 117.808 38.6498 117.783 37.7529C117.708 36.5379 117.657 35.3806 117.632 34.3105C117.581 33.2404 117.934 32.7186 118.563 31.9951C118.815 31.7056 118.891 31.2141 118.967 30.8379C119.017 30.4906 119.244 30.1723 119.571 30.2012C120.125 30.23 120.729 30.1147 121.333 29.7676C123.246 28.6968 124.254 26.8743 125.412 24.9355C126.041 23.8359 126.746 22.8229 127.577 21.6943C127.627 21.608 127.652 21.5216 127.652 21.4346C127.753 20.2193 127.752 19.0032 127.274 17.8457C126.519 16.1099 126.368 14.171 127.526 12.667C128.206 11.7991 129.087 11.7412 129.994 11.625C131.001 11.4516 131.882 11.0464 132.134 9.80176C132.259 9.36792 132.411 8.99174 132.663 8.64453C132.713 8.55793 132.738 8.471 132.738 8.38379C132.738 8.23947 132.662 8.12373 132.561 8.03711C132.411 7.8927 132.184 7.80589 132.008 7.77637C131.177 7.6608 130.623 7.31301 130.245 6.70508C129.54 5.54761 129.213 3.89812 129.616 2.56738C129.893 1.75775 130.598 1.61315 131.051 2.30664C131.73 3.37672 132.511 4.18751 133.719 4.44824C133.996 4.47713 134.323 4.38998 134.55 4.27441C134.977 3.98496 135.43 3.66678 135.909 3.37793C136.287 3.14619 136.439 2.79905 136.665 2.42285V2.42676C137.068 1.67441 138.075 1.50156 138.755 1.47266C139.762 1.41487 140.593 1.32808 141.223 1.21191C141.525 1.18292 141.827 1.00886 142.204 0.749023C142.666 0.377318 143.255 0.127979 143.836 0V40.832Z" fill="#C2C2C2"/>
<path d="M183.045 310.833C182.404 309.976 182.01 309.003 181.841 307.9C181.841 307.843 181.791 307.813 181.765 307.813H181.74C181.211 308.247 180.607 308.508 180.078 308.883C179.273 309.491 178.442 310.099 177.611 310.735C177.234 310.996 176.805 311.197 176.402 311.284C176.201 311.342 176.025 311.371 175.874 311.458C175.849 311.458 175.798 311.516 175.773 311.545C174.565 313.396 173.331 314.871 171.191 314.987C169.026 315.102 166.886 314.467 164.822 314.033C163.84 313.802 162.455 313.685 160.617 313.598C158.779 313.483 157.722 312.875 157.319 310.676C157.143 309.606 157.017 308.65 156.992 307.754C156.917 306.538 156.866 305.381 156.841 304.311C156.79 303.241 157.143 302.719 157.772 301.996C158.024 301.706 158.1 301.215 158.176 300.839C158.226 300.491 158.453 300.173 158.78 300.202C159.334 300.231 159.938 300.115 160.542 299.768C162.455 298.697 163.463 296.875 164.621 294.936C165.25 293.837 165.955 292.823 166.786 291.695C166.836 291.609 166.861 291.522 166.861 291.435C166.962 290.22 166.961 289.004 166.483 287.846C165.728 286.111 165.577 284.172 166.735 282.668C167.415 281.8 168.296 281.742 169.203 281.626C170.21 281.452 171.091 281.047 171.343 279.802C171.468 279.369 171.62 278.992 171.872 278.645C171.922 278.559 171.947 278.472 171.947 278.384C171.947 278.24 171.871 278.124 171.77 278.038C171.62 277.893 171.393 277.807 171.217 277.777C170.386 277.661 169.832 277.314 169.454 276.706C168.749 275.548 168.422 273.899 168.825 272.568C169.102 271.758 169.807 271.614 170.26 272.307C170.939 273.377 171.72 274.188 172.928 274.449C173.205 274.478 173.532 274.391 173.759 274.275C174.186 273.986 174.639 273.667 175.118 273.379C175.496 273.147 175.648 272.8 175.874 272.423V272.427C176.277 271.675 177.284 271.502 177.964 271.473C178.971 271.415 179.802 271.329 180.431 271.213C180.734 271.184 181.036 271.009 181.413 270.75C181.875 270.378 182.464 270.129 183.045 270.001V310.833Z" fill="#C2C2C2"/>
<path d="M183.045 265.833C182.404 264.976 182.01 264.003 181.841 262.9C181.841 262.842 181.791 262.813 181.765 262.813H181.74C181.211 263.247 180.607 263.508 180.078 263.883C179.273 264.491 178.442 265.099 177.611 265.735C177.234 265.995 176.805 266.197 176.402 266.284C176.201 266.341 176.025 266.371 175.874 266.458C175.849 266.458 175.798 266.516 175.773 266.544C174.565 268.396 173.331 269.871 171.191 269.987C169.026 270.102 166.886 269.467 164.822 269.033C163.84 268.802 162.455 268.685 160.617 268.598C158.779 268.483 157.722 267.875 157.319 265.676C157.143 264.605 157.017 263.65 156.992 262.753C156.917 261.538 156.866 260.381 156.841 259.311C156.79 258.241 157.143 257.719 157.772 256.996C158.024 256.706 158.1 256.215 158.176 255.838C158.226 255.491 158.453 255.173 158.78 255.202C159.334 255.231 159.938 255.115 160.542 254.768C162.455 253.697 163.463 251.875 164.621 249.936C165.25 248.836 165.955 247.823 166.786 246.695C166.836 246.608 166.861 246.522 166.861 246.435C166.962 245.22 166.961 244.004 166.483 242.846C165.728 241.11 165.577 239.172 166.735 237.667C167.415 236.8 168.296 236.742 169.203 236.625C170.21 236.452 171.091 236.047 171.343 234.802C171.468 234.368 171.62 233.992 171.872 233.645C171.922 233.558 171.947 233.471 171.947 233.384C171.947 233.24 171.871 233.124 171.77 233.038C171.62 232.893 171.393 232.806 171.217 232.777C170.386 232.661 169.832 232.314 169.454 231.706C168.749 230.548 168.422 228.899 168.825 227.568C169.102 226.758 169.807 226.614 170.26 227.307C170.939 228.377 171.72 229.188 172.928 229.449C173.205 229.478 173.532 229.39 173.759 229.275C174.186 228.985 174.639 228.667 175.118 228.378C175.496 228.147 175.648 227.8 175.874 227.423V227.427C176.277 226.675 177.284 226.502 177.964 226.473C178.971 226.415 179.802 226.329 180.431 226.212C180.734 226.183 181.036 226.009 181.413 225.75C181.875 225.378 182.464 225.128 183.045 225V265.833Z" fill="#C2C2C2"/>
<path d="M183.045 220.832C182.404 219.976 182.01 219.003 181.841 217.9C181.841 217.842 181.791 217.813 181.765 217.813H181.74C181.211 218.247 180.607 218.508 180.078 218.883C179.273 219.491 178.442 220.099 177.611 220.735C177.234 220.995 176.805 221.197 176.402 221.284C176.201 221.341 176.025 221.371 175.874 221.457C175.849 221.457 175.798 221.515 175.773 221.544C174.565 223.396 173.331 224.871 171.191 224.987C169.026 225.102 166.886 224.467 164.822 224.033C163.84 223.801 162.455 223.685 160.617 223.598C158.779 223.482 157.722 222.875 157.319 220.676C157.143 219.605 157.017 218.65 156.992 217.753C156.917 216.538 156.866 215.381 156.841 214.311C156.79 213.241 157.143 212.719 157.772 211.995C158.024 211.706 158.1 211.214 158.176 210.838C158.226 210.491 158.453 210.173 158.78 210.202C159.334 210.23 159.938 210.115 160.542 209.768C162.455 208.697 163.463 206.875 164.621 204.936C165.25 203.836 165.955 202.823 166.786 201.695C166.836 201.608 166.861 201.522 166.861 201.435C166.962 200.22 166.961 199.004 166.483 197.846C165.728 196.11 165.577 194.171 166.735 192.667C167.415 191.799 168.296 191.742 169.203 191.625C170.21 191.452 171.091 191.047 171.343 189.802C171.468 189.368 171.62 188.992 171.872 188.645C171.922 188.558 171.947 188.471 171.947 188.384C171.947 188.24 171.871 188.124 171.77 188.037C171.62 187.893 171.393 187.806 171.217 187.777C170.386 187.661 169.832 187.313 169.454 186.705C168.749 185.548 168.422 183.898 168.825 182.568C169.102 181.758 169.807 181.614 170.26 182.307C170.939 183.377 171.72 184.188 172.928 184.449C173.205 184.478 173.532 184.39 173.759 184.275C174.186 183.985 174.639 183.667 175.118 183.378C175.496 183.147 175.648 182.799 175.874 182.423V182.427C176.277 181.675 177.284 181.502 177.964 181.473C178.971 181.415 179.802 181.328 180.431 181.212C180.734 181.183 181.036 181.009 181.413 180.749C181.875 180.378 182.464 180.128 183.045 180V220.832Z" fill="#C2C2C2"/>
<path d="M183.045 175.832C182.404 174.976 182.01 174.003 181.841 172.9C181.841 172.842 181.791 172.813 181.765 172.813H181.74C181.211 173.247 180.607 173.507 180.078 173.883C179.273 174.491 178.442 175.098 177.611 175.735C177.234 175.995 176.805 176.197 176.402 176.283C176.201 176.341 176.025 176.371 175.874 176.457C175.849 176.457 175.798 176.515 175.773 176.544C174.565 178.395 173.331 179.871 171.191 179.987C169.026 180.102 166.886 179.466 164.822 179.032C163.84 178.801 162.455 178.685 160.617 178.598C158.779 178.482 157.722 177.875 157.319 175.676C157.143 174.605 157.017 173.65 156.992 172.753C156.917 171.538 156.866 170.381 156.841 169.311C156.79 168.241 157.143 167.719 157.772 166.995C158.024 166.706 158.1 166.214 158.176 165.838C158.226 165.491 158.453 165.173 158.78 165.201C159.334 165.23 159.938 165.115 160.542 164.768C162.455 163.697 163.463 161.875 164.621 159.936C165.25 158.836 165.955 157.823 166.786 156.695C166.836 156.608 166.861 156.522 166.861 156.435C166.962 155.22 166.961 154.003 166.483 152.846C165.728 151.11 165.577 149.171 166.735 147.667C167.415 146.799 168.296 146.741 169.203 146.625C170.21 146.452 171.091 146.047 171.343 144.802C171.468 144.368 171.62 143.992 171.872 143.645C171.922 143.558 171.947 143.471 171.947 143.384C171.947 143.24 171.871 143.124 171.77 143.037C171.62 142.893 171.393 142.806 171.217 142.777C170.386 142.661 169.832 142.313 169.454 141.705C168.749 140.548 168.422 138.898 168.825 137.568C169.102 136.758 169.807 136.613 170.26 137.307C170.939 138.377 171.72 139.188 172.928 139.448C173.205 139.477 173.532 139.39 173.759 139.275C174.186 138.985 174.639 138.667 175.118 138.378C175.496 138.146 175.648 137.799 175.874 137.423V137.427C176.277 136.675 177.284 136.502 177.964 136.473C178.971 136.415 179.802 136.328 180.431 136.212C180.734 136.183 181.036 136.009 181.413 135.749C181.875 135.378 182.464 135.128 183.045 135V175.832Z" fill="#C2C2C2"/>
<path d="M183.045 130.832C182.404 129.976 182.01 129.003 181.841 127.9C181.841 127.842 181.791 127.813 181.765 127.813H181.74C181.211 128.247 180.607 128.507 180.078 128.883C179.273 129.491 178.442 130.098 177.611 130.734C177.234 130.995 176.805 131.197 176.402 131.283C176.201 131.341 176.025 131.371 175.874 131.457C175.849 131.457 175.798 131.515 175.773 131.544C174.565 133.395 173.331 134.871 171.191 134.986C169.026 135.102 166.886 134.466 164.822 134.032C163.84 133.801 162.455 133.684 160.617 133.598C158.779 133.482 157.722 132.874 157.319 130.676C157.143 129.605 157.017 128.65 156.992 127.753C156.917 126.538 156.866 125.381 156.841 124.311C156.79 123.24 157.143 122.719 157.772 121.995C158.024 121.706 158.1 121.214 158.176 120.838C158.226 120.491 158.453 120.172 158.78 120.201C159.334 120.23 159.938 120.115 160.542 119.768C162.455 118.697 163.463 116.874 164.621 114.936C165.25 113.836 165.955 112.823 166.786 111.694C166.836 111.608 166.861 111.522 166.861 111.435C166.962 110.219 166.961 109.003 166.483 107.846C165.728 106.11 165.577 104.171 166.735 102.667C167.415 101.799 168.296 101.741 169.203 101.625C170.21 101.452 171.091 101.047 171.343 99.8019C171.468 99.368 171.62 98.9919 171.872 98.6447C171.922 98.558 171.947 98.4711 171.947 98.3839C171.947 98.2396 171.871 98.1239 171.77 98.0372C171.62 97.8928 171.393 97.806 171.217 97.7765C170.386 97.6609 169.832 97.3131 169.454 96.7052C168.749 95.5477 168.422 93.8982 168.825 92.5675C169.102 91.7579 169.807 91.6133 170.26 92.3068C170.939 93.3768 171.72 94.1876 172.928 94.4484C173.205 94.4773 173.532 94.3901 173.759 94.2745C174.186 93.9851 174.639 93.6669 175.118 93.3781C175.496 93.1463 175.648 92.7992 175.874 92.423V92.4269C176.277 91.6745 177.284 91.5017 177.964 91.4728C178.971 91.415 179.802 91.3282 180.431 91.212C180.734 91.183 181.036 91.009 181.413 90.7491C181.875 90.3774 182.464 90.1281 183.045 90.0001V130.832Z" fill="#C2C2C2"/>
<path d="M183.045 85.832C182.404 84.9757 182.01 84.0025 181.841 82.8994C181.841 82.842 181.791 82.8128 181.765 82.8125H181.74C181.211 83.2465 180.607 83.5072 180.078 83.8828C179.273 84.4907 178.442 85.0982 177.611 85.7344C177.234 85.995 176.805 86.1965 176.402 86.2832C176.201 86.3409 176.025 86.3705 175.874 86.457C175.849 86.457 175.798 86.5151 175.773 86.5439C174.565 88.3952 173.331 89.8706 171.191 89.9863C169.026 90.1019 166.886 89.4662 164.822 89.0322C163.84 88.8011 162.455 88.6843 160.617 88.5977C158.779 88.4821 157.722 87.8744 157.319 85.6758C157.143 84.605 157.017 83.6498 156.992 82.7529C156.917 81.5379 156.866 80.3806 156.841 79.3105C156.79 78.2404 157.143 77.7186 157.772 76.9951C158.024 76.7056 158.1 76.2141 158.176 75.8379C158.226 75.4906 158.453 75.1723 158.78 75.2012C159.334 75.23 159.938 75.1147 160.542 74.7676C162.455 73.6968 163.463 71.8743 164.621 69.9355C165.25 68.8359 165.955 67.8229 166.786 66.6943C166.836 66.608 166.861 66.5216 166.861 66.4346C166.962 65.2193 166.961 64.0032 166.483 62.8457C165.728 61.1099 165.577 59.171 166.735 57.667C167.415 56.7991 168.296 56.7412 169.203 56.625C170.21 56.4516 171.091 56.0464 171.343 54.8018C171.468 54.3679 171.62 53.9917 171.872 53.6445C171.922 53.5579 171.947 53.471 171.947 53.3838C171.947 53.2395 171.871 53.1237 171.77 53.0371C171.62 52.8927 171.393 52.8059 171.217 52.7764C170.386 52.6608 169.832 52.313 169.454 51.7051C168.749 50.5476 168.422 48.8981 168.825 47.5674C169.102 46.7577 169.807 46.6131 170.26 47.3066C170.939 48.3767 171.72 49.1875 172.928 49.4482C173.205 49.4771 173.532 49.39 173.759 49.2744C174.186 48.985 174.639 48.6668 175.118 48.3779C175.496 48.1462 175.648 47.799 175.874 47.4229V47.4268C176.277 46.6744 177.284 46.5016 177.964 46.4727C178.971 46.4149 179.802 46.3281 180.431 46.2119C180.734 46.1829 181.036 46.0089 181.413 45.749C181.875 45.3773 182.464 45.128 183.045 45V85.832Z" fill="#C2C2C2"/>
<path d="M183.045 40.832C182.404 39.9757 182.01 39.0025 181.841 37.8994C181.841 37.842 181.791 37.8128 181.765 37.8125H181.74C181.211 38.2465 180.607 38.5072 180.078 38.8828C179.273 39.4907 178.442 40.0982 177.611 40.7344C177.234 40.995 176.805 41.1965 176.402 41.2832C176.201 41.3409 176.025 41.3705 175.874 41.457C175.849 41.457 175.798 41.5151 175.773 41.5439C174.565 43.3952 173.331 44.8706 171.191 44.9863C169.026 45.1019 166.886 44.4662 164.822 44.0322C163.84 43.8011 162.455 43.6843 160.617 43.5977C158.779 43.4821 157.722 42.8744 157.319 40.6758C157.143 39.605 157.017 38.6498 156.992 37.7529C156.917 36.5379 156.866 35.3806 156.841 34.3105C156.79 33.2404 157.143 32.7186 157.772 31.9951C158.024 31.7056 158.1 31.2141 158.176 30.8379C158.226 30.4906 158.453 30.1723 158.78 30.2012C159.334 30.23 159.938 30.1147 160.542 29.7676C162.455 28.6968 163.463 26.8743 164.621 24.9355C165.25 23.8359 165.955 22.8229 166.786 21.6943C166.836 21.608 166.861 21.5216 166.861 21.4346C166.962 20.2193 166.961 19.0032 166.483 17.8457C165.728 16.1099 165.577 14.171 166.735 12.667C167.415 11.7991 168.296 11.7412 169.203 11.625C170.21 11.4516 171.091 11.0464 171.343 9.80176C171.468 9.36792 171.62 8.99174 171.872 8.64453C171.922 8.55793 171.947 8.471 171.947 8.38379C171.947 8.23947 171.871 8.12373 171.77 8.03711C171.62 7.8927 171.393 7.80589 171.217 7.77637C170.386 7.6608 169.832 7.31301 169.454 6.70508C168.749 5.54761 168.422 3.89812 168.825 2.56738C169.102 1.75775 169.807 1.61315 170.26 2.30664C170.939 3.37672 171.72 4.18751 172.928 4.44824C173.205 4.47713 173.532 4.38998 173.759 4.27441C174.186 3.98496 174.639 3.66678 175.118 3.37793C175.496 3.14619 175.648 2.79905 175.874 2.42285V2.42676C176.277 1.67441 177.284 1.50156 177.964 1.47266C178.971 1.41487 179.802 1.32808 180.431 1.21191C180.734 1.18292 181.036 1.00886 181.413 0.749023C181.875 0.377318 182.464 0.127979 183.045 0V40.832Z" fill="#C2C2C2"/>
<path d="M222.209 85.832C221.568 84.9757 221.174 84.0025 221.005 82.8994C221.005 82.842 220.955 82.8128 220.93 82.8125H220.904C220.375 83.2465 219.771 83.5072 219.242 83.8828C218.437 84.4907 217.606 85.0982 216.775 85.7344C216.398 85.995 215.969 86.1965 215.566 86.2832C215.365 86.3409 215.189 86.3705 215.038 86.457C215.013 86.457 214.962 86.5151 214.937 86.5439C213.729 88.3952 212.495 89.8706 210.355 89.9863C208.19 90.1019 206.05 89.4662 203.986 89.0322C203.004 88.8011 201.619 88.6843 199.781 88.5977C197.943 88.4821 196.886 87.8744 196.483 85.6758C196.307 84.605 196.181 83.6498 196.156 82.7529C196.081 81.5379 196.03 80.3806 196.005 79.3105C195.954 78.2404 196.307 77.7186 196.936 76.9951C197.188 76.7056 197.264 76.2141 197.34 75.8379C197.39 75.4906 197.617 75.1723 197.944 75.2012C198.498 75.23 199.102 75.1147 199.706 74.7676C201.619 73.6968 202.627 71.8743 203.785 69.9355C204.415 68.8359 205.119 67.8229 205.95 66.6943C206 66.608 206.025 66.5216 206.025 66.4346C206.126 65.2193 206.125 64.0032 205.647 62.8457C204.892 61.1099 204.741 59.171 205.899 57.667C206.579 56.7991 207.46 56.7412 208.367 56.625C209.374 56.4516 210.255 56.0464 210.507 54.8018C210.632 54.3679 210.784 53.9917 211.036 53.6445C211.086 53.5579 211.111 53.471 211.111 53.3838C211.111 53.2395 211.035 53.1237 210.934 53.0371C210.784 52.8927 210.557 52.8059 210.381 52.7764C209.55 52.6608 208.996 52.313 208.618 51.7051C207.913 50.5476 207.586 48.8981 207.989 47.5674C208.266 46.7577 208.971 46.6131 209.424 47.3066C210.103 48.3767 210.884 49.1875 212.092 49.4482C212.369 49.4771 212.696 49.39 212.923 49.2744C213.35 48.985 213.804 48.6668 214.282 48.3779C214.66 48.1462 214.812 47.799 215.038 47.4229V47.4268C215.441 46.6744 216.448 46.5016 217.128 46.4727C218.135 46.4149 218.966 46.3281 219.596 46.2119C219.898 46.1829 220.2 46.0089 220.577 45.749C221.039 45.3773 221.628 45.128 222.209 45V85.832Z" fill="#C2C2C2"/>
<path d="M222.254 310.833C221.613 309.976 221.219 309.003 221.05 307.9C221.05 307.843 221 307.813 220.974 307.813H220.949C220.42 308.247 219.816 308.508 219.287 308.883C218.482 309.491 217.651 310.099 216.82 310.735C216.443 310.996 216.014 311.197 215.611 311.284C215.41 311.342 215.234 311.371 215.083 311.458C215.058 311.458 215.007 311.516 214.982 311.545C213.774 313.396 212.54 314.871 210.4 314.987C208.235 315.102 206.095 314.467 204.031 314.033C203.049 313.802 201.664 313.685 199.826 313.598C197.988 313.483 196.931 312.875 196.528 310.676C196.352 309.606 196.226 308.65 196.201 307.754C196.126 306.538 196.075 305.381 196.05 304.311C195.999 303.241 196.352 302.719 196.981 301.996C197.233 301.706 197.309 301.215 197.385 300.839C197.435 300.491 197.662 300.173 197.989 300.202C198.543 300.231 199.147 300.115 199.751 299.768C201.664 298.697 202.672 296.875 203.83 294.936C204.459 293.837 205.164 292.823 205.995 291.695C206.045 291.609 206.07 291.522 206.07 291.435C206.171 290.22 206.17 289.004 205.692 287.846C204.937 286.111 204.786 284.172 205.944 282.668C206.624 281.8 207.505 281.742 208.412 281.626C209.419 281.452 210.3 281.047 210.552 279.802C210.677 279.369 210.829 278.992 211.081 278.645C211.131 278.559 211.156 278.472 211.156 278.384C211.156 278.24 211.08 278.124 210.979 278.038C210.829 277.893 210.602 277.807 210.426 277.777C209.595 277.661 209.041 277.314 208.663 276.706C207.958 275.548 207.631 273.899 208.034 272.568C208.311 271.758 209.016 271.614 209.469 272.307C210.148 273.377 210.929 274.188 212.137 274.449C212.414 274.478 212.741 274.391 212.968 274.275C213.395 273.986 213.848 273.667 214.327 273.379C214.705 273.147 214.857 272.8 215.083 272.423V272.427C215.486 271.675 216.493 271.502 217.173 271.473C218.18 271.415 219.011 271.329 219.64 271.213C219.942 271.184 220.245 271.009 220.622 270.75C221.084 270.378 221.673 270.129 222.254 270.001V310.833Z" fill="#C2C2C2"/>
<path d="M222.254 265.833C221.613 264.976 221.219 264.003 221.05 262.9C221.05 262.842 221 262.813 220.974 262.813H220.949C220.42 263.247 219.816 263.508 219.287 263.883C218.482 264.491 217.651 265.099 216.82 265.735C216.443 265.995 216.014 266.197 215.611 266.284C215.41 266.341 215.234 266.371 215.083 266.458C215.058 266.458 215.007 266.516 214.982 266.544C213.774 268.396 212.54 269.871 210.4 269.987C208.235 270.102 206.095 269.467 204.031 269.033C203.049 268.802 201.664 268.685 199.826 268.598C197.988 268.483 196.931 267.875 196.528 265.676C196.352 264.605 196.226 263.65 196.201 262.753C196.126 261.538 196.075 260.381 196.05 259.311C195.999 258.241 196.352 257.719 196.981 256.996C197.233 256.706 197.309 256.215 197.385 255.838C197.435 255.491 197.662 255.173 197.989 255.202C198.543 255.231 199.147 255.115 199.751 254.768C201.664 253.697 202.672 251.875 203.83 249.936C204.459 248.836 205.164 247.823 205.995 246.695C206.045 246.608 206.07 246.522 206.07 246.435C206.171 245.22 206.17 244.004 205.692 242.846C204.937 241.11 204.786 239.172 205.944 237.667C206.624 236.8 207.505 236.742 208.412 236.625C209.419 236.452 210.3 236.047 210.552 234.802C210.677 234.368 210.829 233.992 211.081 233.645C211.131 233.558 211.156 233.471 211.156 233.384C211.156 233.24 211.08 233.124 210.979 233.038C210.829 232.893 210.602 232.806 210.426 232.777C209.595 232.661 209.041 232.314 208.663 231.706C207.958 230.548 207.631 228.899 208.034 227.568C208.311 226.758 209.016 226.614 209.469 227.307C210.148 228.377 210.929 229.188 212.137 229.449C212.414 229.478 212.741 229.39 212.968 229.275C213.395 228.985 213.848 228.667 214.327 228.378C214.705 228.147 214.857 227.8 215.083 227.423V227.427C215.486 226.675 216.493 226.502 217.173 226.473C218.18 226.415 219.011 226.329 219.64 226.212C219.942 226.183 220.245 226.009 220.622 225.75C221.084 225.378 221.673 225.128 222.254 225V265.833Z" fill="#C2C2C2"/>
<path d="M222.254 220.832C221.613 219.976 221.219 219.003 221.05 217.9C221.05 217.842 221 217.813 220.974 217.813H220.949C220.42 218.247 219.816 218.508 219.287 218.883C218.482 219.491 217.651 220.099 216.82 220.735C216.443 220.995 216.014 221.197 215.611 221.284C215.41 221.341 215.234 221.371 215.083 221.457C215.058 221.457 215.007 221.515 214.982 221.544C213.774 223.396 212.54 224.871 210.4 224.987C208.235 225.102 206.095 224.467 204.031 224.033C203.049 223.801 201.664 223.685 199.826 223.598C197.988 223.482 196.931 222.875 196.528 220.676C196.352 219.605 196.226 218.65 196.201 217.753C196.126 216.538 196.075 215.381 196.05 214.311C195.999 213.241 196.352 212.719 196.981 211.995C197.233 211.706 197.309 211.214 197.385 210.838C197.435 210.491 197.662 210.173 197.989 210.202C198.543 210.23 199.147 210.115 199.751 209.768C201.664 208.697 202.672 206.875 203.83 204.936C204.459 203.836 205.164 202.823 205.995 201.695C206.045 201.608 206.07 201.522 206.07 201.435C206.171 200.22 206.17 199.004 205.692 197.846C204.937 196.11 204.786 194.171 205.944 192.667C206.624 191.799 207.505 191.742 208.412 191.625C209.419 191.452 210.3 191.047 210.552 189.802C210.677 189.368 210.829 188.992 211.081 188.645C211.131 188.558 211.156 188.471 211.156 188.384C211.156 188.24 211.08 188.124 210.979 188.037C210.829 187.893 210.602 187.806 210.426 187.777C209.595 187.661 209.041 187.313 208.663 186.705C207.958 185.548 207.631 183.898 208.034 182.568C208.311 181.758 209.016 181.614 209.469 182.307C210.148 183.377 210.929 184.188 212.137 184.449C212.414 184.478 212.741 184.39 212.968 184.275C213.395 183.985 213.848 183.667 214.327 183.378C214.705 183.147 214.857 182.799 215.083 182.423V182.427C215.486 181.675 216.493 181.502 217.173 181.473C218.18 181.415 219.011 181.328 219.64 181.212C219.942 181.183 220.245 181.009 220.622 180.749C221.084 180.378 221.673 180.128 222.254 180V220.832Z" fill="#C2C2C2"/>
<path d="M222.254 175.832C221.613 174.976 221.219 174.003 221.05 172.9C221.05 172.842 221 172.813 220.974 172.813H220.949C220.42 173.247 219.816 173.507 219.287 173.883C218.482 174.491 217.651 175.098 216.82 175.735C216.443 175.995 216.014 176.197 215.611 176.283C215.41 176.341 215.234 176.371 215.083 176.457C215.058 176.457 215.007 176.515 214.982 176.544C213.774 178.395 212.54 179.871 210.4 179.987C208.235 180.102 206.095 179.466 204.031 179.032C203.049 178.801 201.664 178.685 199.826 178.598C197.988 178.482 196.931 177.875 196.528 175.676C196.352 174.605 196.226 173.65 196.201 172.753C196.126 171.538 196.075 170.381 196.05 169.311C195.999 168.241 196.352 167.719 196.981 166.995C197.233 166.706 197.309 166.214 197.385 165.838C197.435 165.491 197.662 165.173 197.989 165.201C198.543 165.23 199.147 165.115 199.751 164.768C201.664 163.697 202.672 161.875 203.83 159.936C204.459 158.836 205.164 157.823 205.995 156.695C206.045 156.608 206.07 156.522 206.07 156.435C206.171 155.22 206.17 154.003 205.692 152.846C204.937 151.11 204.786 149.171 205.944 147.667C206.624 146.799 207.505 146.741 208.412 146.625C209.419 146.452 210.3 146.047 210.552 144.802C210.677 144.368 210.829 143.992 211.081 143.645C211.131 143.558 211.156 143.471 211.156 143.384C211.156 143.24 211.08 143.124 210.979 143.037C210.829 142.893 210.602 142.806 210.426 142.777C209.595 142.661 209.041 142.313 208.663 141.705C207.958 140.548 207.631 138.898 208.034 137.568C208.311 136.758 209.016 136.613 209.469 137.307C210.148 138.377 210.929 139.188 212.137 139.448C212.414 139.477 212.741 139.39 212.968 139.275C213.395 138.985 213.848 138.667 214.327 138.378C214.705 138.146 214.857 137.799 215.083 137.423V137.427C215.486 136.675 216.493 136.502 217.173 136.473C218.18 136.415 219.011 136.328 219.64 136.212C219.942 136.183 220.245 136.009 220.622 135.749C221.084 135.378 221.673 135.128 222.254 135V175.832Z" fill="#C2C2C2"/>
<path d="M222.254 130.832C221.613 129.976 221.219 129.003 221.05 127.9C221.05 127.842 221 127.813 220.974 127.813H220.949C220.42 128.247 219.816 128.507 219.287 128.883C218.482 129.491 217.651 130.098 216.82 130.734C216.443 130.995 216.014 131.197 215.611 131.283C215.41 131.341 215.234 131.371 215.083 131.457C215.058 131.457 215.007 131.515 214.982 131.544C213.774 133.395 212.54 134.871 210.4 134.986C208.235 135.102 206.095 134.466 204.031 134.032C203.049 133.801 201.664 133.684 199.826 133.598C197.988 133.482 196.931 132.874 196.528 130.676C196.352 129.605 196.226 128.65 196.201 127.753C196.126 126.538 196.075 125.381 196.05 124.311C195.999 123.24 196.352 122.719 196.981 121.995C197.233 121.706 197.309 121.214 197.385 120.838C197.435 120.491 197.662 120.172 197.989 120.201C198.543 120.23 199.147 120.115 199.751 119.768C201.664 118.697 202.672 116.874 203.83 114.936C204.459 113.836 205.164 112.823 205.995 111.694C206.045 111.608 206.07 111.522 206.07 111.435C206.171 110.219 206.17 109.003 205.692 107.846C204.937 106.11 204.786 104.171 205.944 102.667C206.624 101.799 207.505 101.741 208.412 101.625C209.419 101.452 210.3 101.047 210.552 99.8019C210.677 99.368 210.829 98.9919 211.081 98.6447C211.131 98.558 211.156 98.4711 211.156 98.3839C211.156 98.2396 211.08 98.1239 210.979 98.0372C210.829 97.8928 210.602 97.806 210.426 97.7765C209.595 97.6609 209.041 97.3131 208.663 96.7052C207.958 95.5477 207.631 93.8982 208.034 92.5675C208.311 91.7579 209.016 91.6133 209.469 92.3068C210.148 93.3768 210.929 94.1876 212.137 94.4484C212.414 94.4773 212.741 94.3901 212.968 94.2745C213.395 93.9851 213.848 93.6669 214.327 93.3781C214.705 93.1463 214.857 92.7992 215.083 92.423V92.4269C215.486 91.6745 216.493 91.5017 217.173 91.4728C218.18 91.415 219.011 91.3282 219.64 91.212C219.942 91.183 220.245 91.009 220.622 90.7491C221.084 90.3774 221.673 90.1281 222.254 90.0001V130.832Z" fill="#C2C2C2"/>
</svg>
