<svg width="337" height="234" viewBox="0 0 337 234" fill="none" xmlns="http://www.w3.org/2000/svg">
<path d="M0.0117188 199.956C6.81171 201.868 13.0724 205.12 19.4707 207.994C32.0424 213.644 44.5034 219.542 56.9863 225.393V233.433C56.58 233.085 56.0647 232.766 55.4395 232.445C44.1635 226.662 33.019 220.617 21.7344 214.851C14.3404 211.071 7.19024 206.876 0 202.741L0.0117188 202.735V199.956Z" fill="#C2C2C2"/>
<path d="M0.0117188 99.9561C6.81171 101.868 13.0724 105.12 19.4707 107.994C32.0424 113.644 44.5034 119.542 56.9863 125.393V133.433C56.58 133.085 56.0647 132.766 55.4395 132.445C44.1635 126.662 33.019 120.617 21.7344 114.851C14.3404 111.071 7.19024 106.876 0 102.741L0.0117188 102.735V99.9561Z" fill="#C2C2C2"/>
<path d="M0.0117188 166.478C6.81166 168.389 13.0724 171.641 19.4707 174.516C32.0424 180.165 44.5035 186.063 56.9863 191.914V199.955C56.58 199.607 56.0648 199.288 55.4395 198.968C44.1635 193.184 33.019 187.138 21.7344 181.372C14.3405 177.592 7.1902 173.397 0 169.263L0.0117188 169.257V166.478Z" fill="#C2C2C2"/>
<path d="M0.0117188 66.4775C6.81166 68.389 13.0724 71.6412 19.4707 74.5156C32.0424 80.1651 44.5035 86.0631 56.9863 91.9141V99.9551C56.58 99.6071 56.0648 99.2882 55.4395 98.9678C44.1635 93.1843 33.019 87.1382 21.7344 81.3721C14.3405 77.5924 7.1902 73.397 0 69.2627L0.0117188 69.2568V66.4775Z" fill="#C2C2C2"/>
<path d="M0.0117188 133C6.81172 134.911 13.0724 138.164 19.4707 141.038C32.0424 146.688 44.5034 152.586 56.9863 158.437V166.477C56.58 166.129 56.0647 165.81 55.4395 165.489C44.1635 159.706 33.019 153.66 21.7344 147.894C14.3405 144.114 7.19012 139.919 0 135.785L0.0117188 135.779V133Z" fill="#C2C2C2"/>
<path d="M0.0117188 33C6.81172 34.9115 13.0724 38.1637 19.4707 41.0381C32.0424 46.6876 44.5034 52.5855 56.9863 58.4365V66.4766C56.58 66.1286 56.0647 65.8096 55.4395 65.4893C44.1635 59.7058 33.019 53.6597 21.7344 47.8936C14.3405 44.1139 7.19012 39.9194 0 35.7852L0.0117188 35.7793V33Z" fill="#C2C2C2"/>
<path d="M0.0117188 0C6.81172 1.91147 13.0724 5.16367 19.4707 8.03809C32.0424 13.6876 44.5034 19.5855 56.9863 25.4365V33.4766C56.58 33.1286 56.0647 32.8096 55.4395 32.4893C44.1635 26.7058 33.019 20.6597 21.7344 14.8936C14.3405 11.1139 7.19012 6.91942 0 2.78516L0.0117188 2.7793V0Z" fill="#C2C2C2"/>
<path d="M69.9971 199.956C76.797 201.868 83.0578 205.12 89.4561 207.994C102.028 213.644 114.489 219.542 126.973 225.394V233.434C126.566 233.085 126.051 232.766 125.425 232.445C114.149 226.662 103.004 220.616 91.7197 214.85C84.3261 211.07 77.1763 206.875 69.9863 202.741L69.9971 202.735V199.956Z" fill="#C2C2C2"/>
<path d="M69.9971 99.9561C76.797 101.868 83.0578 105.12 89.4561 107.994C102.028 113.644 114.489 119.542 126.973 125.394V133.434C126.566 133.085 126.051 132.766 125.425 132.445C114.149 126.662 103.004 120.616 91.7197 114.85C84.3261 111.07 77.1763 106.875 69.9863 102.741L69.9971 102.735V99.9561Z" fill="#C2C2C2"/>
<path d="M69.9971 166.478C76.797 168.389 83.0578 171.64 89.4561 174.515C102.028 180.164 114.489 186.063 126.973 191.914V199.955C126.566 199.607 126.051 199.287 125.425 198.967C114.149 193.183 103.004 187.137 91.7197 181.371C84.3259 177.591 77.1764 173.396 69.9863 169.262L69.9971 169.256V166.478Z" fill="#C2C2C2"/>
<path d="M69.9971 66.4775C76.797 68.389 83.0578 71.6403 89.4561 74.5146C102.028 80.1643 114.489 86.0629 126.973 91.9141V99.9551C126.566 99.6068 126.051 99.2875 125.425 98.9668C114.149 93.1834 103.004 87.1372 91.7197 81.3711C84.3259 77.5915 77.1764 73.396 69.9863 69.2617L69.9971 69.2559V66.4775Z" fill="#C2C2C2"/>
<path d="M69.9971 133C76.797 134.911 83.0578 138.164 89.4561 141.038C102.028 146.688 114.489 152.586 126.973 158.438V166.478C126.566 166.129 126.051 165.81 125.425 165.489C114.149 159.706 103.004 153.661 91.7197 147.895C84.3259 144.115 77.1764 139.919 69.9863 135.785L69.9971 135.779V133Z" fill="#C2C2C2"/>
<path d="M69.9971 33C76.797 34.9115 83.0578 38.1637 89.4561 41.0381C102.028 46.6878 114.489 52.5863 126.973 58.4375V66.4775C126.566 66.1293 126.051 65.8099 125.425 65.4893C114.149 59.7058 103.004 53.6607 91.7197 47.8945C84.3259 44.1149 77.1764 39.9194 69.9863 35.7852L69.9971 35.7793V33Z" fill="#C2C2C2"/>
<path d="M69.9971 0C76.797 1.91145 83.0578 5.16369 89.4561 8.03809C102.028 13.6878 114.489 19.5863 126.973 25.4375V33.4775C126.566 33.1293 126.051 32.8099 125.425 32.4893C114.149 26.7058 103.004 20.6607 91.7197 14.8945C84.3259 11.1149 77.1764 6.9194 69.9863 2.78516L69.9971 2.7793V0Z" fill="#C2C2C2"/>
<path d="M139.983 199.956C146.783 201.867 153.044 205.12 159.442 207.994C172.014 213.644 184.476 219.542 196.959 225.394V233.434C196.553 233.085 196.037 232.766 195.411 232.445C184.135 226.662 172.991 220.617 161.707 214.851C154.313 211.071 147.163 206.875 139.973 202.741L139.983 202.735V199.956Z" fill="#C2C2C2"/>
<path d="M139.983 99.9561C146.783 101.867 153.044 105.12 159.442 107.994C172.014 113.644 184.476 119.542 196.959 125.394V133.434C196.553 133.085 196.037 132.766 195.411 132.445C184.135 126.662 172.991 120.617 161.707 114.851C154.313 111.071 147.163 106.875 139.973 102.741L139.983 102.735V99.9561Z" fill="#C2C2C2"/>
<path d="M139.983 166.478C146.783 168.389 153.044 171.641 159.442 174.516C172.014 180.165 184.476 186.064 196.959 191.915V199.956C196.552 199.608 196.037 199.288 195.411 198.968C184.135 193.184 172.991 187.138 161.707 181.372C154.313 177.592 147.163 173.397 139.973 169.263L139.983 169.257V166.478Z" fill="#C2C2C2"/>
<path d="M139.983 66.4775C146.783 68.389 153.044 71.6413 159.442 74.5156C172.014 80.1653 184.476 86.0639 196.959 91.915V99.9561C196.552 99.6078 196.037 99.2885 195.411 98.9678C184.135 93.1844 172.991 87.1382 161.707 81.3721C154.313 77.5924 147.163 73.397 139.973 69.2627L139.983 69.2568V66.4775Z" fill="#C2C2C2"/>
<path d="M139.983 133C146.783 134.911 153.044 138.164 159.442 141.038C172.014 146.688 184.476 152.586 196.959 158.438V166.478C196.553 166.129 196.037 165.81 195.411 165.489C184.135 159.706 172.991 153.661 161.707 147.895C154.313 144.115 147.163 139.919 139.973 135.785L139.983 135.779V133Z" fill="#C2C2C2"/>
<path d="M139.983 33C146.783 34.9114 153.044 38.1637 159.442 41.0381C172.014 46.6878 184.476 52.5863 196.959 58.4375V66.4775C196.553 66.1293 196.037 65.8099 195.411 65.4893C184.135 59.7059 172.991 53.6606 161.707 47.8945C154.313 44.1149 147.163 39.9194 139.973 35.7852L139.983 35.7793V33Z" fill="#C2C2C2"/>
<path d="M139.983 0C146.783 1.91144 153.044 5.1637 159.442 8.03809C172.014 13.6878 184.476 19.5863 196.959 25.4375V33.4775C196.553 33.1293 196.037 32.8099 195.411 32.4893C184.135 26.7059 172.991 20.6606 161.707 14.8945C154.313 11.1149 147.163 6.91944 139.973 2.78516L139.983 2.7793V0Z" fill="#C2C2C2"/>
<path d="M209.97 199.956C216.77 201.868 223.03 205.12 229.429 207.994C242 213.644 254.461 219.542 266.944 225.393V233.433C266.538 233.085 266.023 232.766 265.397 232.445C254.121 226.662 242.977 220.616 231.692 214.85C224.299 211.07 217.149 206.875 209.959 202.741L209.97 202.735V199.956Z" fill="#C2C2C2"/>
<path d="M209.97 99.9561C216.77 101.868 223.03 105.12 229.429 107.994C242 113.644 254.461 119.542 266.944 125.393V133.433C266.538 133.085 266.023 132.766 265.397 132.445C254.121 126.662 242.977 120.616 231.692 114.85C224.299 111.07 217.149 106.875 209.959 102.741L209.97 102.735V99.9561Z" fill="#C2C2C2"/>
<path d="M209.97 166.478C216.77 168.389 223.031 171.64 229.429 174.515C242 180.164 254.462 186.062 266.944 191.913V199.954C266.538 199.606 266.023 199.287 265.397 198.967C254.121 193.183 242.977 187.137 231.692 181.371C224.299 177.591 217.149 173.396 209.959 169.262L209.97 169.256V166.478Z" fill="#C2C2C2"/>
<path d="M209.97 66.4775C216.77 68.389 223.031 71.6403 229.429 74.5146C242 80.1641 254.462 86.0621 266.944 91.9131V99.9541C266.538 99.6061 266.023 99.2872 265.397 98.9668C254.121 93.1834 242.977 87.1372 231.692 81.3711C224.299 77.5915 217.149 73.396 209.959 69.2617L209.97 69.2559V66.4775Z" fill="#C2C2C2"/>
<path d="M209.97 133C216.77 134.911 223.03 138.164 229.429 141.038C242 146.688 254.462 152.586 266.944 158.437V166.477C266.538 166.129 266.023 165.81 265.397 165.489C254.121 159.706 242.977 153.661 231.692 147.895C224.299 144.115 217.149 139.919 209.959 135.785L209.97 135.779V133Z" fill="#C2C2C2"/>
<path d="M209.97 33C216.77 34.9115 223.03 38.1637 229.429 41.0381C242 46.6876 254.462 52.5855 266.944 58.4365V66.4766C266.538 66.1287 266.023 65.8096 265.397 65.4893C254.121 59.7058 242.977 53.6607 231.692 47.8945C224.299 44.1149 217.149 39.9194 209.959 35.7852L209.97 35.7793V33Z" fill="#C2C2C2"/>
<path d="M279.955 199.956C286.755 201.868 293.016 205.12 299.414 207.994C311.986 213.644 324.447 219.542 336.931 225.394V233.434C336.524 233.085 336.009 232.766 335.383 232.445C324.107 226.662 312.962 220.617 301.678 214.851C294.284 211.071 287.134 206.875 279.944 202.741L279.955 202.735V199.956Z" fill="#C2C2C2"/>
<path d="M279.955 99.9561C286.755 101.868 293.016 105.12 299.414 107.994C311.986 113.644 324.447 119.542 336.931 125.394V133.434C336.524 133.085 336.009 132.766 335.383 132.445C324.107 126.662 312.962 120.617 301.678 114.851C294.284 111.071 287.134 106.875 279.944 102.741L279.955 102.735V99.9561Z" fill="#C2C2C2"/>
<path d="M279.955 166.478C286.755 168.389 293.016 171.64 299.414 174.515C311.986 180.164 324.447 186.063 336.931 191.914V199.955C336.524 199.607 336.009 199.287 335.383 198.967C324.107 193.183 312.962 187.137 301.678 181.371C294.284 177.591 287.134 173.396 279.944 169.262L279.955 169.256V166.478Z" fill="#C2C2C2"/>
<path d="M279.955 66.4775C286.755 68.389 293.016 71.6403 299.414 74.5146C311.986 80.1643 324.447 86.0629 336.931 91.9141V99.9551C336.524 99.6068 336.009 99.2875 335.383 98.9668C324.107 93.1834 312.962 87.1372 301.678 81.3711C294.284 77.5915 287.134 73.396 279.944 69.2617L279.955 69.2559V66.4775Z" fill="#C2C2C2"/>
<path d="M279.955 133C286.755 134.911 293.016 138.164 299.414 141.038C311.986 146.688 324.447 152.586 336.931 158.438V166.478C336.524 166.129 336.009 165.81 335.383 165.489C324.107 159.706 312.962 153.661 301.678 147.895C294.284 144.115 287.134 139.919 279.944 135.785L279.955 135.779V133Z" fill="#C2C2C2"/>
<path d="M279.955 33C286.755 34.9115 293.016 38.1637 299.414 41.0381C311.986 46.6878 324.447 52.5863 336.931 58.4375V66.4775C336.524 66.1293 336.009 65.8099 335.383 65.4893C324.107 59.7058 312.962 53.6607 301.678 47.8945C294.284 44.1149 287.134 39.9194 279.944 35.7852L279.955 35.7793V33Z" fill="#C2C2C2"/>
</svg>
