<svg width="337" height="134" viewBox="0 0 337 134" fill="none" xmlns="http://www.w3.org/2000/svg">
<path d="M0.0117188 100.434C6.81171 102.345 13.0724 105.597 19.4707 108.472C32.0424 114.121 44.5034 120.019 56.9863 125.87V133.91C56.58 133.562 56.0647 133.243 55.4395 132.923C44.1635 127.139 33.019 121.094 21.7344 115.328C14.3404 111.548 7.19024 107.353 0 103.219L0.0117188 103.213V100.434Z" fill="#C2C2C2"/>
<path d="M0.0117188 66.9551C6.81166 68.8665 13.0724 72.1188 19.4707 74.9932C32.0424 80.6427 44.5035 86.5406 56.9863 92.3916V100.433C56.58 100.085 56.0648 99.7657 55.4395 99.4453C44.1635 93.6619 33.019 87.6158 21.7344 81.8496C14.3405 78.0699 7.1902 73.8745 0 69.7402L0.0117188 69.7344V66.9551Z" fill="#C2C2C2"/>
<path d="M0.0117188 33.4775C6.81172 35.389 13.0724 38.6412 19.4707 41.5156C32.0424 47.1652 44.5034 53.063 56.9863 58.9141V66.9541C56.58 66.6062 56.0647 66.2872 55.4395 65.9668C44.1635 60.1834 33.019 54.1372 21.7344 48.3711C14.3405 44.5914 7.19012 40.397 0 36.2627L0.0117188 36.2568V33.4775Z" fill="#C2C2C2"/>
<path d="M0.0117188 0C6.81172 1.91147 13.0724 5.16367 19.4707 8.03809C32.0424 13.6876 44.5034 19.5855 56.9863 25.4365V33.4766C56.58 33.1286 56.0647 32.8096 55.4395 32.4893C44.1635 26.7058 33.019 20.6597 21.7344 14.8936C14.3405 11.1139 7.19012 6.91942 0 2.78516L0.0117188 2.7793V0Z" fill="#C2C2C2"/>
<path d="M69.9971 100.434C76.797 102.345 83.0578 105.597 89.4561 108.472C102.028 114.121 114.489 120.02 126.973 125.871V133.911C126.566 133.563 126.051 133.244 125.425 132.923C114.149 127.139 103.004 121.093 91.7197 115.327C84.3261 111.548 77.1763 107.353 69.9863 103.219L69.9971 103.213V100.434Z" fill="#C2C2C2"/>
<path d="M69.9971 66.9551C76.797 68.8665 83.0578 72.1178 89.4561 74.9922C102.028 80.6419 114.489 86.5405 126.973 92.3916V100.433C126.566 100.084 126.051 99.765 125.425 99.4443C114.149 93.6609 103.004 87.6148 91.7197 81.8486C84.3259 78.069 77.1764 73.8735 69.9863 69.7393L69.9971 69.7334V66.9551Z" fill="#C2C2C2"/>
<path d="M69.9971 33.4775C76.797 35.389 83.0578 38.6412 89.4561 41.5156C102.028 47.1653 114.489 53.0639 126.973 58.915V66.9551C126.566 66.6069 126.051 66.2874 125.425 65.9668C114.149 60.1834 103.004 54.1382 91.7197 48.3721C84.3259 44.5924 77.1764 40.3969 69.9863 36.2627L69.9971 36.2568V33.4775Z" fill="#C2C2C2"/>
<path d="M69.9971 0C76.797 1.91145 83.0578 5.16369 89.4561 8.03809C102.028 13.6878 114.489 19.5863 126.973 25.4375V33.4775C126.566 33.1293 126.051 32.8099 125.425 32.4893C114.149 26.7058 103.004 20.6607 91.7197 14.8945C84.3259 11.1149 77.1764 6.9194 69.9863 2.78516L69.9971 2.7793V0Z" fill="#C2C2C2"/>
<path d="M139.983 100.434C146.783 102.345 153.044 105.597 159.442 108.472C172.014 114.121 184.476 120.02 196.959 125.871V133.911C196.553 133.563 196.037 133.243 195.411 132.923C184.135 127.14 172.991 121.094 161.707 115.328C154.313 111.548 147.163 107.353 139.973 103.219L139.983 103.213V100.434Z" fill="#C2C2C2"/>
<path d="M139.983 66.9551C146.783 68.8665 153.044 72.1188 159.442 74.9932C172.014 80.6428 184.476 86.5414 196.959 92.3926V100.434C196.552 100.085 196.037 99.766 195.411 99.4453C184.135 93.6619 172.991 87.6157 161.707 81.8496C154.313 78.0699 147.163 73.8745 139.973 69.7402L139.983 69.7344V66.9551Z" fill="#C2C2C2"/>
<path d="M139.983 33.4775C146.783 35.389 153.044 38.6412 159.442 41.5156C172.014 47.1653 184.476 53.0639 196.959 58.915V66.9551C196.553 66.6069 196.037 66.2874 195.411 65.9668C184.135 60.1835 172.991 54.1381 161.707 48.3721C154.313 44.5924 147.163 40.397 139.973 36.2627L139.983 36.2568V33.4775Z" fill="#C2C2C2"/>
<path d="M209.97 100.434C216.77 102.345 223.03 105.597 229.429 108.472C242 114.121 254.461 120.019 266.944 125.87V133.91C266.538 133.562 266.023 133.243 265.397 132.923C254.121 127.139 242.977 121.093 231.692 115.327C224.299 111.548 217.149 107.353 209.959 103.219L209.97 103.213V100.434Z" fill="#C2C2C2"/>
<path d="M209.97 66.9551C216.77 68.8665 223.031 72.1178 229.429 74.9922C242 80.6417 254.462 86.5397 266.944 92.3906V100.432C266.538 100.084 266.023 99.7647 265.397 99.4443C254.121 93.6609 242.977 87.6148 231.692 81.8486C224.299 78.069 217.149 73.8735 209.959 69.7393L209.97 69.7334V66.9551Z" fill="#C2C2C2"/>
<path d="M209.97 33.4775C216.77 35.389 223.03 38.6412 229.429 41.5156C242 47.1651 254.462 53.0631 266.944 58.9141V66.9541C266.538 66.6062 266.023 66.2871 265.397 65.9668C254.121 60.1834 242.977 54.1382 231.692 48.3721C224.299 44.5924 217.149 40.3969 209.959 36.2627L209.97 36.2568V33.4775Z" fill="#C2C2C2"/>
<path d="M279.955 100.434C286.755 102.345 293.016 105.597 299.414 108.472C311.986 114.121 324.447 120.02 336.931 125.871V133.911C336.524 133.563 336.009 133.243 335.383 132.923C324.107 127.139 312.962 121.094 301.678 115.328C294.284 111.548 287.134 107.353 279.944 103.219L279.955 103.213V100.434Z" fill="#C2C2C2"/>
<path d="M279.955 66.9551C286.755 68.8665 293.016 72.1178 299.414 74.9922C311.986 80.6419 324.447 86.5405 336.931 92.3916V100.433C336.524 100.084 336.009 99.765 335.383 99.4443C324.107 93.6609 312.962 87.6148 301.678 81.8486C294.284 78.069 287.134 73.8735 279.944 69.7393L279.955 69.7334V66.9551Z" fill="#C2C2C2"/>
<path d="M279.955 33.4775C286.755 35.389 293.016 38.6412 299.414 41.5156C311.986 47.1653 324.447 53.0639 336.931 58.915V66.9551C336.524 66.6069 336.009 66.2874 335.383 65.9668C324.107 60.1834 312.962 54.1382 301.678 48.3721C294.284 44.5924 287.134 40.3969 279.944 36.2627L279.955 36.2568V33.4775Z" fill="#C2C2C2"/>
</svg>
