<svg width="337" height="101" viewBox="0 0 337 101" fill="none" xmlns="http://www.w3.org/2000/svg">
<path d="M0.0117188 66.9561C6.81171 68.8675 13.0724 72.1197 19.4707 74.9941C32.0424 80.6437 44.5034 86.5416 56.9863 92.3926V100.433C56.58 100.085 56.0647 99.7657 55.4395 99.4453C44.1635 93.6619 33.019 87.6167 21.7344 81.8506C14.3404 78.0709 7.19024 73.8755 0 69.7412L0.0117188 69.7354V66.9561Z" fill="#5C5C5C"/>
<path d="M0.0117188 33.4775C6.81166 35.389 13.0724 38.6412 19.4707 41.5156C32.0424 47.1651 44.5035 53.0631 56.9863 58.9141V66.9551C56.58 66.6071 56.0648 66.2882 55.4395 65.9678C44.1635 60.1843 33.019 54.1382 21.7344 48.3721C14.3405 44.5924 7.1902 40.397 0 36.2627L0.0117188 36.2568V33.4775Z" fill="#5C5C5C"/>
<path d="M0.0117188 0C6.81172 1.91147 13.0724 5.16367 19.4707 8.03809C32.0424 13.6876 44.5034 19.5855 56.9863 25.4365V33.4766C56.58 33.1286 56.0647 32.8096 55.4395 32.4893C44.1635 26.7058 33.019 20.6597 21.7344 14.8936C14.3405 11.1139 7.19012 6.91942 0 2.78516L0.0117188 2.7793V0Z" fill="#5C5C5C"/>
<path d="M69.9971 66.9561C76.797 68.8675 83.0578 72.1197 89.4561 74.9941C102.028 80.6438 114.489 86.5424 126.973 92.3936V100.434C126.566 100.085 126.051 99.766 125.425 99.4453C114.149 93.6619 103.004 87.6158 91.7197 81.8496C84.3261 78.07 77.1763 73.8754 69.9863 69.7412L69.9971 69.7354V66.9561Z" fill="#5C5C5C"/>
<path d="M69.9971 33.4775C76.797 35.389 83.0578 38.6403 89.4561 41.5146C102.028 47.1643 114.489 53.0629 126.973 58.9141V66.9551C126.566 66.6068 126.051 66.2875 125.425 65.9668C114.149 60.1834 103.004 54.1372 91.7197 48.3711C84.3259 44.5915 77.1764 40.396 69.9863 36.2617L69.9971 36.2559V33.4775Z" fill="#5C5C5C"/>
<path d="M69.9971 0C76.797 1.91145 83.0578 5.16369 89.4561 8.03809C102.028 13.6878 114.489 19.5863 126.973 25.4375V33.4775C126.566 33.1293 126.051 32.8099 125.425 32.4893C114.149 26.7058 103.004 20.6607 91.7197 14.8945C84.3259 11.1149 77.1764 6.9194 69.9863 2.78516L69.9971 2.7793V0Z" fill="#5C5C5C"/>
<path d="M139.983 66.9561C146.783 68.8675 153.044 72.1198 159.442 74.9941C172.014 80.6438 184.476 86.5424 196.959 92.3936V100.434C196.553 100.085 196.037 99.7659 195.411 99.4453C184.135 93.662 172.991 87.6166 161.707 81.8506C154.313 78.0709 147.163 73.8755 139.973 69.7412L139.983 69.7354V66.9561Z" fill="#5C5C5C"/>
<path d="M139.983 33.4775C146.783 35.389 153.044 38.6413 159.442 41.5156C172.014 47.1653 184.476 53.0639 196.959 58.915V66.9561C196.552 66.6078 196.037 66.2885 195.411 65.9678C184.135 60.1844 172.991 54.1382 161.707 48.3721C154.313 44.5924 147.163 40.397 139.973 36.2627L139.983 36.2568V33.4775Z" fill="#5C5C5C"/>
<path d="M139.983 0C146.783 1.91144 153.044 5.1637 159.442 8.03809C172.014 13.6878 184.476 19.5863 196.959 25.4375V33.4775C196.553 33.1293 196.037 32.8099 195.411 32.4893C184.135 26.7059 172.991 20.6606 161.707 14.8945C154.313 11.1149 147.163 6.91944 139.973 2.78516L139.983 2.7793V0Z" fill="#5C5C5C"/>
<path d="M209.97 66.9561C216.77 68.8675 223.03 72.1197 229.429 74.9941C242 80.6437 254.461 86.5416 266.944 92.3926V100.433C266.538 100.085 266.023 99.7657 265.397 99.4453C254.121 93.6619 242.977 87.6158 231.692 81.8496C224.299 78.07 217.149 73.8754 209.959 69.7412L209.97 69.7354V66.9561Z" fill="#5C5C5C"/>
<path d="M209.97 33.4775C216.77 35.389 223.031 38.6403 229.429 41.5146C242 47.1641 254.462 53.0621 266.944 58.9131V66.9541C266.538 66.6061 266.023 66.2872 265.397 65.9668C254.121 60.1834 242.977 54.1372 231.692 48.3711C224.299 44.5915 217.149 40.396 209.959 36.2617L209.97 36.2559V33.4775Z" fill="#5C5C5C"/>
<path d="M209.97 0C216.77 1.91145 223.03 5.16369 229.429 8.03809C242 13.6876 254.462 19.5855 266.944 25.4365V33.4766C266.538 33.1287 266.023 32.8096 265.397 32.4893C254.121 26.7058 242.977 20.6607 231.692 14.8945C224.299 11.1149 217.149 6.9194 209.959 2.78516L209.97 2.7793V0Z" fill="#5C5C5C"/>
<path d="M279.955 66.9561C286.755 68.8675 293.016 72.1197 299.414 74.9941C311.986 80.6438 324.447 86.5424 336.931 92.3936V100.434C336.524 100.085 336.009 99.7659 335.383 99.4453C324.107 93.6619 312.962 87.6167 301.678 81.8506C294.284 78.071 287.134 73.8755 279.944 69.7412L279.955 69.7354V66.9561Z" fill="#5C5C5C"/>
<path d="M279.955 33.4775C286.755 35.389 293.016 38.6403 299.414 41.5146C311.986 47.1643 324.447 53.0629 336.931 58.9141V66.9551C336.524 66.6068 336.009 66.2875 335.383 65.9668C324.107 60.1834 312.962 54.1372 301.678 48.3711C294.284 44.5915 287.134 40.396 279.944 36.2617L279.955 36.2559V33.4775Z" fill="#5C5C5C"/>
<path d="M279.955 0C286.755 1.91145 293.016 5.16369 299.414 8.03809C311.986 13.6878 324.447 19.5863 336.931 25.4375V33.4775C336.524 33.1293 336.009 32.8099 335.383 32.4893C324.107 26.7058 312.962 20.6607 301.678 14.8945C294.284 11.1149 287.134 6.9194 279.944 2.78516L279.955 2.7793V0Z" fill="#5C5C5C"/>
</svg>
