<svg width="168" height="91" viewBox="0 0 168 91" fill="none" xmlns="http://www.w3.org/2000/svg">
<path d="M0.257004 45.2354C0.441652 45.028 0.650366 44.9639 0.882981 45.0186C1.22324 45.0993 1.498 45.3857 1.59978 45.7657C5.29865 59.5632 10.6193 69.41 17.382 75.7354V90.0518H8.80583C4.20424 77.4642 1.26333 62.7934 0.00309772 46.0176C-0.0185941 45.7266 0.0744382 45.4395 0.257004 45.2354Z" fill="#C2C2C2"/>
<path d="M0.257004 0.235413C0.441652 0.0279893 0.650366 -0.036114 0.882981 0.0186161C1.22324 0.0992979 1.498 0.385702 1.59978 0.765686C5.29865 14.5632 10.6193 24.41 17.382 30.7354V45.0518H8.80583C4.20424 32.4642 1.26333 17.7934 0.00309774 1.01764C-0.0185942 0.726588 0.0744381 0.439508 0.257004 0.235413Z" fill="#C2C2C2"/>
<path d="M30.257 45.2354C30.4417 45.028 30.6504 44.9639 30.883 45.0186C31.2232 45.0993 31.498 45.3857 31.5998 45.7657C35.2987 59.5632 40.6193 69.41 47.382 75.7354V90.0518H38.8058C34.2042 77.4642 31.2633 62.7934 30.0031 46.0176C29.9814 45.7266 30.0744 45.4395 30.257 45.2354Z" fill="#C2C2C2"/>
<path d="M30.257 0.235413C30.4417 0.0279893 30.6504 -0.036114 30.883 0.0186161C31.2232 0.0992979 31.498 0.385702 31.5998 0.765686C35.2987 14.5632 40.6193 24.41 47.382 30.7354V45.0518H38.8058C34.2042 32.4642 31.2633 17.7934 30.0031 1.01764C29.9814 0.726588 30.0744 0.439508 30.257 0.235413Z" fill="#C2C2C2"/>
<path d="M60.257 45.2354C60.4417 45.028 60.6504 44.9639 60.883 45.0186C61.2232 45.0993 61.498 45.3857 61.5998 45.7657C65.2987 59.5632 70.6193 69.41 77.382 75.7354V90.0518H68.8058C64.2042 77.4642 61.2633 62.7934 60.0031 46.0176C59.9814 45.7266 60.0744 45.4395 60.257 45.2354Z" fill="#C2C2C2"/>
<path d="M120.257 45.2354C120.442 45.028 120.65 44.9639 120.883 45.0186C121.223 45.0993 121.498 45.3857 121.6 45.7657C125.299 59.5632 130.619 69.41 137.382 75.7354V90.0518H128.806C124.204 77.4642 121.263 62.7934 120.003 46.0176C119.981 45.7266 120.074 45.4395 120.257 45.2354Z" fill="#C2C2C2"/>
<path d="M90.257 45.2354C90.4417 45.028 90.6504 44.9639 90.883 45.0186C91.2232 45.0993 91.498 45.3857 91.5998 45.7657C95.2987 59.5632 100.619 69.41 107.382 75.7354V90.0518H98.8058C94.2042 77.4642 91.2633 62.7934 90.0031 46.0176C89.9814 45.7266 90.0744 45.4395 90.257 45.2354Z" fill="#C2C2C2"/>
<path d="M150.257 45.2354C150.442 45.028 150.65 44.9639 150.883 45.0186C151.223 45.0993 151.498 45.3857 151.6 45.7657C155.299 59.5632 160.619 69.41 167.382 75.7354V90.0518H158.806C154.204 77.4642 151.263 62.7934 150.003 46.0176C149.981 45.7266 150.074 45.4395 150.257 45.2354Z" fill="#C2C2C2"/>
</svg>
