<svg width="168" height="451" viewBox="0 0 168 451" fill="none" xmlns="http://www.w3.org/2000/svg">
<path d="M0.257004 405.235C0.441652 405.028 0.650366 404.964 0.882981 405.019C1.22324 405.099 1.498 405.386 1.59978 405.766C5.29865 419.563 10.6193 429.41 17.382 435.735V450.052H8.80583C4.20424 437.464 1.26333 422.793 0.00309772 406.018C-0.0185941 405.727 0.0744382 405.44 0.257004 405.235Z" fill="#C2C2C2"/>
<path d="M0.257004 360.235C0.441652 360.028 0.650366 359.964 0.882981 360.019C1.22324 360.099 1.498 360.386 1.59978 360.766C5.29865 374.563 10.6193 384.41 17.382 390.735V405.052H8.80583C4.20424 392.464 1.26333 377.793 0.00309772 361.018C-0.0185941 360.727 0.0744382 360.44 0.257004 360.235Z" fill="#C2C2C2"/>
<path d="M0.257004 315.235C0.441652 315.028 0.650366 314.964 0.882981 315.019C1.22324 315.099 1.498 315.386 1.59978 315.766C5.29865 329.563 10.6193 339.41 17.382 345.735V360.052H8.80583C4.20424 347.464 1.26333 332.793 0.00309772 316.018C-0.0185941 315.727 0.0744382 315.44 0.257004 315.235Z" fill="#C2C2C2"/>
<path d="M0.257004 135.235C0.441652 135.028 0.650366 134.964 0.882981 135.019C1.22324 135.099 1.498 135.386 1.59978 135.766C5.29865 149.563 10.6193 159.41 17.382 165.735V180.052H8.80583C4.20424 167.464 1.26333 152.793 0.00309772 136.018C-0.0185941 135.727 0.0744382 135.44 0.257004 135.235Z" fill="#C2C2C2"/>
<path d="M0.257004 270.235C0.441652 270.028 0.650366 269.964 0.882981 270.019C1.22324 270.099 1.498 270.386 1.59978 270.766C5.29865 284.563 10.6193 294.41 17.382 300.735V315.052H8.80583C4.20424 302.464 1.26333 287.793 0.00309772 271.018C-0.0185941 270.727 0.0744382 270.44 0.257004 270.235Z" fill="#C2C2C2"/>
<path d="M0.257004 90.2354C0.441652 90.028 0.650366 89.9639 0.882981 90.0186C1.22324 90.0993 1.498 90.3857 1.59978 90.7657C5.29865 104.563 10.6193 114.41 17.382 120.735V135.052H8.80583C4.20424 122.464 1.26333 107.793 0.00309772 91.0176C-0.0185941 90.7266 0.0744382 90.4395 0.257004 90.2354Z" fill="#C2C2C2"/>
<path d="M0.257004 225.235C0.441652 225.028 0.650366 224.964 0.882981 225.019C1.22324 225.099 1.498 225.386 1.59978 225.766C5.29865 239.563 10.6193 249.41 17.382 255.735V270.052H8.80583C4.20424 257.464 1.26333 242.793 0.00309772 226.018C-0.0185941 225.727 0.0744382 225.44 0.257004 225.235Z" fill="#C2C2C2"/>
<path d="M0.257004 45.2354C0.441652 45.028 0.650366 44.9639 0.882981 45.0186C1.22324 45.0993 1.498 45.3857 1.59978 45.7657C5.29865 59.5632 10.6193 69.41 17.382 75.7354V90.0518H8.80583C4.20424 77.4642 1.26333 62.7934 0.00309772 46.0176C-0.0185941 45.7266 0.0744382 45.4395 0.257004 45.2354Z" fill="#C2C2C2"/>
<path d="M0.257004 180.235C0.441652 180.028 0.650366 179.964 0.882981 180.019C1.22324 180.099 1.498 180.386 1.59978 180.766C5.29865 194.563 10.6193 204.41 17.382 210.735V225.052H8.80583C4.20424 212.464 1.26333 197.793 0.00309772 181.018C-0.0185941 180.727 0.0744382 180.44 0.257004 180.235Z" fill="#C2C2C2"/>
<path d="M0.257004 0.235413C0.441652 0.0279893 0.650366 -0.036114 0.882981 0.0186161C1.22324 0.0992979 1.498 0.385702 1.59978 0.765686C5.29865 14.5632 10.6193 24.41 17.382 30.7354V45.0518H8.80583C4.20424 32.4642 1.26333 17.7934 0.00309772 1.01764C-0.0185941 0.726588 0.0744382 0.439508 0.257004 0.235413Z" fill="#C2C2C2"/>
<path d="M30.257 405.235C30.4417 405.028 30.6504 404.964 30.883 405.019C31.2232 405.099 31.498 405.386 31.5998 405.766C35.2987 419.563 40.6193 429.41 47.382 435.735V450.052H38.8058C34.2042 437.464 31.2633 422.793 30.0031 406.018C29.9814 405.727 30.0744 405.44 30.257 405.235Z" fill="#C2C2C2"/>
<path d="M30.257 360.235C30.4417 360.028 30.6504 359.964 30.883 360.019C31.2232 360.099 31.498 360.386 31.5998 360.766C35.2987 374.563 40.6193 384.41 47.382 390.735V405.052H38.8058C34.2042 392.464 31.2633 377.793 30.0031 361.018C29.9814 360.727 30.0744 360.44 30.257 360.235Z" fill="#C2C2C2"/>
<path d="M30.257 315.235C30.4417 315.028 30.6504 314.964 30.883 315.019C31.2232 315.099 31.498 315.386 31.5998 315.766C35.2987 329.563 40.6193 339.41 47.382 345.735V360.052H38.8058C34.2042 347.464 31.2633 332.793 30.0031 316.018C29.9814 315.727 30.0744 315.44 30.257 315.235Z" fill="#C2C2C2"/>
<path d="M30.257 135.235C30.4417 135.028 30.6504 134.964 30.883 135.019C31.2232 135.099 31.498 135.386 31.5998 135.766C35.2987 149.563 40.6193 159.41 47.382 165.735V180.052H38.8058C34.2042 167.464 31.2633 152.793 30.0031 136.018C29.9814 135.727 30.0744 135.44 30.257 135.235Z" fill="#C2C2C2"/>
<path d="M30.257 270.235C30.4417 270.028 30.6504 269.964 30.883 270.019C31.2232 270.099 31.498 270.386 31.5998 270.766C35.2987 284.563 40.6193 294.41 47.382 300.735V315.052H38.8058C34.2042 302.464 31.2633 287.793 30.0031 271.018C29.9814 270.727 30.0744 270.44 30.257 270.235Z" fill="#C2C2C2"/>
<path d="M30.257 90.2354C30.4417 90.028 30.6504 89.9639 30.883 90.0186C31.2232 90.0993 31.498 90.3857 31.5998 90.7657C35.2987 104.563 40.6193 114.41 47.382 120.735V135.052H38.8058C34.2042 122.464 31.2633 107.793 30.0031 91.0176C29.9814 90.7266 30.0744 90.4395 30.257 90.2354Z" fill="#C2C2C2"/>
<path d="M30.257 225.235C30.4417 225.028 30.6504 224.964 30.883 225.019C31.2232 225.099 31.498 225.386 31.5998 225.766C35.2987 239.563 40.6193 249.41 47.382 255.735V270.052H38.8058C34.2042 257.464 31.2633 242.793 30.0031 226.018C29.9814 225.727 30.0744 225.44 30.257 225.235Z" fill="#C2C2C2"/>
<path d="M30.257 45.2354C30.4417 45.028 30.6504 44.9639 30.883 45.0186C31.2232 45.0993 31.498 45.3857 31.5998 45.7657C35.2987 59.5632 40.6193 69.41 47.382 75.7354V90.0518H38.8058C34.2042 77.4642 31.2633 62.7934 30.0031 46.0176C29.9814 45.7266 30.0744 45.4395 30.257 45.2354Z" fill="#C2C2C2"/>
<path d="M30.257 180.235C30.4417 180.028 30.6504 179.964 30.883 180.019C31.2232 180.099 31.498 180.386 31.5998 180.766C35.2987 194.563 40.6193 204.41 47.382 210.735V225.052H38.8058C34.2042 212.464 31.2633 197.793 30.0031 181.018C29.9814 180.727 30.0744 180.44 30.257 180.235Z" fill="#C2C2C2"/>
<path d="M30.257 0.235413C30.4417 0.0279893 30.6504 -0.036114 30.883 0.0186161C31.2232 0.0992979 31.498 0.385702 31.5998 0.765686C35.2987 14.5632 40.6193 24.41 47.382 30.7354V45.0518H38.8058C34.2042 32.4642 31.2633 17.7934 30.0031 1.01764C29.9814 0.726588 30.0744 0.439508 30.257 0.235413Z" fill="#C2C2C2"/>
<path d="M60.257 405.235C60.4417 405.028 60.6504 404.964 60.883 405.019C61.2232 405.099 61.498 405.386 61.5998 405.766C65.2987 419.563 70.6193 429.41 77.382 435.735V450.052H68.8058C64.2042 437.464 61.2633 422.793 60.0031 406.018C59.9814 405.727 60.0744 405.44 60.257 405.235Z" fill="#C2C2C2"/>
<path d="M60.257 360.235C60.4417 360.028 60.6504 359.964 60.883 360.019C61.2232 360.099 61.498 360.386 61.5998 360.766C65.2987 374.563 70.6193 384.41 77.382 390.735V405.052H68.8058C64.2042 392.464 61.2633 377.793 60.0031 361.018C59.9814 360.727 60.0744 360.44 60.257 360.235Z" fill="#C2C2C2"/>
<path d="M60.257 315.235C60.4417 315.028 60.6504 314.964 60.883 315.019C61.2232 315.099 61.498 315.386 61.5998 315.766C65.2987 329.563 70.6193 339.41 77.382 345.735V360.052H68.8058C64.2042 347.464 61.2633 332.793 60.0031 316.018C59.9814 315.727 60.0744 315.44 60.257 315.235Z" fill="#C2C2C2"/>
<path d="M60.257 135.235C60.4417 135.028 60.6504 134.964 60.883 135.019C61.2232 135.099 61.498 135.386 61.5998 135.766C65.2987 149.563 70.6193 159.41 77.382 165.735V180.052H68.8058C64.2042 167.464 61.2633 152.793 60.0031 136.018C59.9814 135.727 60.0744 135.44 60.257 135.235Z" fill="#C2C2C2"/>
<path d="M60.257 270.235C60.4417 270.028 60.6504 269.964 60.883 270.019C61.2232 270.099 61.498 270.386 61.5998 270.766C65.2987 284.563 70.6193 294.41 77.382 300.735V315.052H68.8058C64.2042 302.464 61.2633 287.793 60.0031 271.018C59.9814 270.727 60.0744 270.44 60.257 270.235Z" fill="#C2C2C2"/>
<path d="M60.257 90.2354C60.4417 90.028 60.6504 89.9639 60.883 90.0186C61.2232 90.0993 61.498 90.3857 61.5998 90.7657C65.2987 104.563 70.6193 114.41 77.382 120.735V135.052H68.8058C64.2042 122.464 61.2633 107.793 60.0031 91.0176C59.9814 90.7266 60.0744 90.4395 60.257 90.2354Z" fill="#C2C2C2"/>
<path d="M60.257 225.235C60.4417 225.028 60.6504 224.964 60.883 225.019C61.2232 225.099 61.498 225.386 61.5998 225.766C65.2987 239.563 70.6193 249.41 77.382 255.735V270.052H68.8058C64.2042 257.464 61.2633 242.793 60.0031 226.018C59.9814 225.727 60.0744 225.44 60.257 225.235Z" fill="#C2C2C2"/>
<path d="M60.257 45.2354C60.4417 45.028 60.6504 44.9639 60.883 45.0186C61.2232 45.0993 61.498 45.3857 61.5998 45.7657C65.2987 59.5632 70.6193 69.41 77.382 75.7354V90.0518H68.8058C64.2042 77.4642 61.2633 62.7934 60.0031 46.0176C59.9814 45.7266 60.0744 45.4395 60.257 45.2354Z" fill="#C2C2C2"/>
<path d="M60.257 180.235C60.4417 180.028 60.6504 179.964 60.883 180.019C61.2232 180.099 61.498 180.386 61.5998 180.766C65.2987 194.563 70.6193 204.41 77.382 210.735V225.052H68.8058C64.2042 212.464 61.2633 197.793 60.0031 181.018C59.9814 180.727 60.0744 180.44 60.257 180.235Z" fill="#C2C2C2"/>
<path d="M60.257 0.235413C60.4417 0.0279893 60.6504 -0.036114 60.883 0.0186161C61.2232 0.0992979 61.498 0.385702 61.5998 0.765686C65.2987 14.5632 70.6193 24.41 77.382 30.7354V45.0518H68.8058C64.2042 32.4642 61.2633 17.7934 60.0031 1.01764C59.9814 0.726588 60.0744 0.439508 60.257 0.235413Z" fill="#C2C2C2"/>
<path d="M120.257 405.235C120.442 405.028 120.65 404.964 120.883 405.019C121.223 405.099 121.498 405.386 121.6 405.766C125.299 419.563 130.619 429.41 137.382 435.735V450.052H128.806C124.204 437.464 121.263 422.793 120.003 406.018C119.981 405.727 120.074 405.44 120.257 405.235Z" fill="#C2C2C2"/>
<path d="M120.257 360.235C120.442 360.028 120.65 359.964 120.883 360.019C121.223 360.099 121.498 360.386 121.6 360.766C125.299 374.563 130.619 384.41 137.382 390.735V405.052H128.806C124.204 392.464 121.263 377.793 120.003 361.018C119.981 360.727 120.074 360.44 120.257 360.235Z" fill="#C2C2C2"/>
<path d="M120.257 315.235C120.442 315.028 120.65 314.964 120.883 315.019C121.223 315.099 121.498 315.386 121.6 315.766C125.299 329.563 130.619 339.41 137.382 345.735V360.052H128.806C124.204 347.464 121.263 332.793 120.003 316.018C119.981 315.727 120.074 315.44 120.257 315.235Z" fill="#C2C2C2"/>
<path d="M120.257 135.235C120.442 135.028 120.65 134.964 120.883 135.019C121.223 135.099 121.498 135.386 121.6 135.766C125.299 149.563 130.619 159.41 137.382 165.735V180.052H128.806C124.204 167.464 121.263 152.793 120.003 136.018C119.981 135.727 120.074 135.44 120.257 135.235Z" fill="#C2C2C2"/>
<path d="M120.257 270.235C120.442 270.028 120.65 269.964 120.883 270.019C121.223 270.099 121.498 270.386 121.6 270.766C125.299 284.563 130.619 294.41 137.382 300.735V315.052H128.806C124.204 302.464 121.263 287.793 120.003 271.018C119.981 270.727 120.074 270.44 120.257 270.235Z" fill="#C2C2C2"/>
<path d="M120.257 90.2354C120.442 90.028 120.65 89.9639 120.883 90.0186C121.223 90.0993 121.498 90.3857 121.6 90.7657C125.299 104.563 130.619 114.41 137.382 120.735V135.052H128.806C124.204 122.464 121.263 107.793 120.003 91.0176C119.981 90.7266 120.074 90.4395 120.257 90.2354Z" fill="#C2C2C2"/>
<path d="M120.257 225.235C120.442 225.028 120.65 224.964 120.883 225.019C121.223 225.099 121.498 225.386 121.6 225.766C125.299 239.563 130.619 249.41 137.382 255.735V270.052H128.806C124.204 257.464 121.263 242.793 120.003 226.018C119.981 225.727 120.074 225.44 120.257 225.235Z" fill="#C2C2C2"/>
<path d="M120.257 45.2354C120.442 45.028 120.65 44.9639 120.883 45.0186C121.223 45.0993 121.498 45.3857 121.6 45.7657C125.299 59.5632 130.619 69.41 137.382 75.7354V90.0518H128.806C124.204 77.4642 121.263 62.7934 120.003 46.0176C119.981 45.7266 120.074 45.4395 120.257 45.2354Z" fill="#C2C2C2"/>
<path d="M120.257 180.235C120.442 180.028 120.65 179.964 120.883 180.019C121.223 180.099 121.498 180.386 121.6 180.766C125.299 194.563 130.619 204.41 137.382 210.735V225.052H128.806C124.204 212.464 121.263 197.793 120.003 181.018C119.981 180.727 120.074 180.44 120.257 180.235Z" fill="#C2C2C2"/>
<path d="M120.257 0.235413C120.442 0.0279893 120.65 -0.036114 120.883 0.0186161C121.223 0.0992979 121.498 0.385702 121.6 0.765686C125.299 14.5632 130.619 24.41 137.382 30.7354V45.0518H128.806C124.204 32.4642 121.263 17.7934 120.003 1.01764C119.981 0.726588 120.074 0.439508 120.257 0.235413Z" fill="#C2C2C2"/>
<path d="M90.257 405.235C90.4417 405.028 90.6504 404.964 90.883 405.019C91.2232 405.099 91.498 405.386 91.5998 405.766C95.2987 419.563 100.619 429.41 107.382 435.735V450.052H98.8058C94.2042 437.464 91.2633 422.793 90.0031 406.018C89.9814 405.727 90.0744 405.44 90.257 405.235Z" fill="#C2C2C2"/>
<path d="M90.257 360.235C90.4417 360.028 90.6504 359.964 90.883 360.019C91.2232 360.099 91.498 360.386 91.5998 360.766C95.2987 374.563 100.619 384.41 107.382 390.735V405.052H98.8058C94.2042 392.464 91.2633 377.793 90.0031 361.018C89.9814 360.727 90.0744 360.44 90.257 360.235Z" fill="#C2C2C2"/>
<path d="M90.257 315.235C90.4417 315.028 90.6504 314.964 90.883 315.019C91.2232 315.099 91.498 315.386 91.5998 315.766C95.2987 329.563 100.619 339.41 107.382 345.735V360.052H98.8058C94.2042 347.464 91.2633 332.793 90.0031 316.018C89.9814 315.727 90.0744 315.44 90.257 315.235Z" fill="#C2C2C2"/>
<path d="M90.257 135.235C90.4417 135.028 90.6504 134.964 90.883 135.019C91.2232 135.099 91.498 135.386 91.5998 135.766C95.2987 149.563 100.619 159.41 107.382 165.735V180.052H98.8058C94.2042 167.464 91.2633 152.793 90.0031 136.018C89.9814 135.727 90.0744 135.44 90.257 135.235Z" fill="#C2C2C2"/>
<path d="M90.257 270.235C90.4417 270.028 90.6504 269.964 90.883 270.019C91.2232 270.099 91.498 270.386 91.5998 270.766C95.2987 284.563 100.619 294.41 107.382 300.735V315.052H98.8058C94.2042 302.464 91.2633 287.793 90.0031 271.018C89.9814 270.727 90.0744 270.44 90.257 270.235Z" fill="#C2C2C2"/>
<path d="M90.257 90.2354C90.4417 90.028 90.6504 89.9639 90.883 90.0186C91.2232 90.0993 91.498 90.3857 91.5998 90.7657C95.2987 104.563 100.619 114.41 107.382 120.735V135.052H98.8058C94.2042 122.464 91.2633 107.793 90.0031 91.0176C89.9814 90.7266 90.0744 90.4395 90.257 90.2354Z" fill="#C2C2C2"/>
<path d="M90.257 225.235C90.4417 225.028 90.6504 224.964 90.883 225.019C91.2232 225.099 91.498 225.386 91.5998 225.766C95.2987 239.563 100.619 249.41 107.382 255.735V270.052H98.8058C94.2042 257.464 91.2633 242.793 90.0031 226.018C89.9814 225.727 90.0744 225.44 90.257 225.235Z" fill="#C2C2C2"/>
<path d="M90.257 45.2354C90.4417 45.028 90.6504 44.9639 90.883 45.0186C91.2232 45.0993 91.498 45.3857 91.5998 45.7657C95.2987 59.5632 100.619 69.41 107.382 75.7354V90.0518H98.8058C94.2042 77.4642 91.2633 62.7934 90.0031 46.0176C89.9814 45.7266 90.0744 45.4395 90.257 45.2354Z" fill="#C2C2C2"/>
<path d="M90.257 180.235C90.4417 180.028 90.6504 179.964 90.883 180.019C91.2232 180.099 91.498 180.386 91.5998 180.766C95.2987 194.563 100.619 204.41 107.382 210.735V225.052H98.8058C94.2042 212.464 91.2633 197.793 90.0031 181.018C89.9814 180.727 90.0744 180.44 90.257 180.235Z" fill="#C2C2C2"/>
<path d="M90.257 0.235413C90.4417 0.0279893 90.6504 -0.036114 90.883 0.0186161C91.2232 0.0992979 91.498 0.385702 91.5998 0.765686C95.2987 14.5632 100.619 24.41 107.382 30.7354V45.0518H98.8058C94.2042 32.4642 91.2633 17.7934 90.0031 1.01764C89.9814 0.726588 90.0744 0.439508 90.257 0.235413Z" fill="#C2C2C2"/>
<path d="M150.257 405.235C150.442 405.028 150.65 404.964 150.883 405.019C151.223 405.099 151.498 405.386 151.6 405.766C155.299 419.563 160.619 429.41 167.382 435.735V450.052H158.806C154.204 437.464 151.263 422.793 150.003 406.018C149.981 405.727 150.074 405.44 150.257 405.235Z" fill="#C2C2C2"/>
<path d="M150.257 360.235C150.442 360.028 150.65 359.964 150.883 360.019C151.223 360.099 151.498 360.386 151.6 360.766C155.299 374.563 160.619 384.41 167.382 390.735V405.052H158.806C154.204 392.464 151.263 377.793 150.003 361.018C149.981 360.727 150.074 360.44 150.257 360.235Z" fill="#C2C2C2"/>
<path d="M150.257 315.235C150.442 315.028 150.65 314.964 150.883 315.019C151.223 315.099 151.498 315.386 151.6 315.766C155.299 329.563 160.619 339.41 167.382 345.735V360.052H158.806C154.204 347.464 151.263 332.793 150.003 316.018C149.981 315.727 150.074 315.44 150.257 315.235Z" fill="#C2C2C2"/>
<path d="M150.257 135.235C150.442 135.028 150.65 134.964 150.883 135.019C151.223 135.099 151.498 135.386 151.6 135.766C155.299 149.563 160.619 159.41 167.382 165.735V180.052H158.806C154.204 167.464 151.263 152.793 150.003 136.018C149.981 135.727 150.074 135.44 150.257 135.235Z" fill="#C2C2C2"/>
<path d="M150.257 270.235C150.442 270.028 150.65 269.964 150.883 270.019C151.223 270.099 151.498 270.386 151.6 270.766C155.299 284.563 160.619 294.41 167.382 300.735V315.052H158.806C154.204 302.464 151.263 287.793 150.003 271.018C149.981 270.727 150.074 270.44 150.257 270.235Z" fill="#C2C2C2"/>
<path d="M150.257 90.2354C150.442 90.028 150.65 89.9639 150.883 90.0186C151.223 90.0993 151.498 90.3857 151.6 90.7657C155.299 104.563 160.619 114.41 167.382 120.735V135.052H158.806C154.204 122.464 151.263 107.793 150.003 91.0176C149.981 90.7266 150.074 90.4395 150.257 90.2354Z" fill="#C2C2C2"/>
<path d="M150.257 225.235C150.442 225.028 150.65 224.964 150.883 225.019C151.223 225.099 151.498 225.386 151.6 225.766C155.299 239.563 160.619 249.41 167.382 255.735V270.052H158.806C154.204 257.464 151.263 242.793 150.003 226.018C149.981 225.727 150.074 225.44 150.257 225.235Z" fill="#C2C2C2"/>
<path d="M150.257 45.2354C150.442 45.028 150.65 44.9639 150.883 45.0186C151.223 45.0993 151.498 45.3857 151.6 45.7657C155.299 59.5632 160.619 69.41 167.382 75.7354V90.0518H158.806C154.204 77.4642 151.263 62.7934 150.003 46.0176C149.981 45.7266 150.074 45.4395 150.257 45.2354Z" fill="#C2C2C2"/>
<path d="M150.257 180.235C150.442 180.028 150.65 179.964 150.883 180.019C151.223 180.099 151.498 180.386 151.6 180.766C155.299 194.563 160.619 204.41 167.382 210.735V225.052H158.806C154.204 212.464 151.263 197.793 150.003 181.018C149.981 180.727 150.074 180.44 150.257 180.235Z" fill="#C2C2C2"/>
<path d="M150.257 0.235413C150.442 0.0279893 150.65 -0.036114 150.883 0.0186161C151.223 0.0992979 151.498 0.385702 151.6 0.765686C155.299 14.5632 160.619 24.41 167.382 30.7354V45.0518H158.806C154.204 32.4642 151.263 17.7934 150.003 1.01764C149.981 0.726588 150.074 0.439508 150.257 0.235413Z" fill="#C2C2C2"/>
</svg>
