<svg width="156" height="495" viewBox="0 0 156 495" fill="none" xmlns="http://www.w3.org/2000/svg">
<path d="M15.45 450C14.6351 454.895 13.7134 461.716 13.2878 469.884C12.5186 484.646 13.8343 494.842 12.8386 494.998C11.9399 495.136 9.79041 486.994 8.56714 478.66C6.51338 464.677 7.58315 453.685 7.62769 450H15.45ZM6.80542 450C6.09256 452.412 5.14425 457.772 4.74487 463.3C4.57016 465.708 4.55203 467.864 4.52026 472.078C4.44083 482.737 4.81083 488.107 4.29565 488.171C3.98021 488.209 3.51523 486.218 2.948 483.781C2.4714 481.732 2.18483 479.99 1.82397 477.441C1.45634 474.838 1.22964 473.231 0.925537 470.369C0.399028 465.417 0.11334 462.732 0.0270998 459.397C-0.0693137 455.741 0.105052 452.517 0.33667 450H6.80542Z" fill="#C2C2C2"/>
<path d="M15.45 360C14.6351 364.895 13.7134 371.716 13.2878 379.884C12.5186 394.646 13.8343 404.842 12.8386 404.998C11.9399 405.136 9.79041 396.994 8.56714 388.66C6.51338 374.677 7.58315 363.685 7.62769 360H15.45ZM6.80542 360C6.09256 362.412 5.14425 367.772 4.74487 373.3C4.57016 375.708 4.55203 377.864 4.52026 382.078C4.44083 392.737 4.81083 398.107 4.29565 398.171C3.98021 398.209 3.51523 396.218 2.948 393.781C2.4714 391.732 2.18483 389.99 1.82397 387.441C1.45634 384.838 1.22964 383.231 0.925537 380.369C0.399028 375.417 0.11334 372.732 0.0270998 369.397C-0.0693137 365.741 0.105052 362.517 0.33667 360H6.80542Z" fill="#C2C2C2"/>
<path d="M15.45 180C14.6351 184.895 13.7134 191.716 13.2878 199.884C12.5186 214.646 13.8343 224.842 12.8386 224.998C11.9399 225.136 9.79041 216.994 8.56714 208.66C6.51338 194.677 7.58315 183.685 7.62769 180H15.45ZM6.80542 180C6.09256 182.412 5.14425 187.772 4.74487 193.3C4.57016 195.708 4.55203 197.864 4.52026 202.078C4.44083 212.737 4.81083 218.107 4.29565 218.171C3.98021 218.209 3.51523 216.218 2.948 213.781C2.4714 211.732 2.18483 209.99 1.82397 207.441C1.45634 204.838 1.22964 203.231 0.925537 200.369C0.399028 195.417 0.11334 192.732 0.0270998 189.397C-0.0693137 185.741 0.105052 182.517 0.33667 180H6.80542Z" fill="#C2C2C2"/>
<path d="M15.45 270C14.6351 274.895 13.7134 281.716 13.2878 289.884C12.5186 304.646 13.8343 314.842 12.8386 314.998C11.9399 315.136 9.79041 306.994 8.56714 298.66C6.51338 284.677 7.58315 273.685 7.62769 270H15.45ZM6.80542 270C6.09256 272.412 5.14425 277.772 4.74487 283.3C4.57016 285.708 4.55203 287.864 4.52026 292.078C4.44083 302.737 4.81083 308.107 4.29565 308.171C3.98021 308.209 3.51523 306.218 2.948 303.781C2.4714 301.732 2.18483 299.99 1.82397 297.441C1.45634 294.838 1.22964 293.231 0.925537 290.369C0.399028 285.417 0.11334 282.732 0.0270998 279.397C-0.0693137 275.741 0.105052 272.517 0.33667 270H6.80542Z" fill="#C2C2C2"/>
<path d="M15.45 90C14.6351 94.8953 13.7134 101.716 13.2878 109.884C12.5186 124.646 13.8343 134.842 12.8386 134.998C11.9399 135.136 9.79041 126.994 8.56714 118.66C6.51338 104.677 7.58315 93.6852 7.62769 90H15.45ZM6.80542 90C6.09256 92.4124 5.14425 97.7717 4.74487 103.3C4.57016 105.708 4.55203 107.864 4.52026 112.078C4.44083 122.737 4.81083 128.107 4.29565 128.171C3.98021 128.209 3.51523 126.218 2.948 123.781C2.4714 121.732 2.18483 119.99 1.82397 117.441C1.45634 114.838 1.22964 113.231 0.925537 110.369C0.399028 105.417 0.11334 102.732 0.0270998 99.3975C-0.0693137 95.7414 0.105052 92.5168 0.33667 90H6.80542Z" fill="#C2C2C2"/>
<path d="M15.45 405C14.6351 409.895 13.7134 416.716 13.2878 424.884C12.5186 439.646 13.8343 449.842 12.8386 449.998C11.9399 450.136 9.79041 441.994 8.56714 433.66C6.51338 419.677 7.58315 408.685 7.62769 405H15.45ZM6.80542 405C6.09256 407.412 5.14425 412.772 4.74487 418.3C4.57016 420.708 4.55203 422.864 4.52026 427.078C4.44083 437.737 4.81083 443.107 4.29565 443.171C3.98021 443.209 3.51523 441.218 2.948 438.781C2.4714 436.732 2.18483 434.99 1.82397 432.441C1.45634 429.838 1.22964 428.231 0.925537 425.369C0.399028 420.417 0.11334 417.732 0.0270998 414.397C-0.0693137 410.741 0.105052 407.517 0.33667 405H6.80542Z" fill="#C2C2C2"/>
<path d="M15.45 315C14.6351 319.895 13.7134 326.716 13.2878 334.884C12.5186 349.646 13.8343 359.842 12.8386 359.998C11.9399 360.136 9.79041 351.994 8.56714 343.66C6.51338 329.677 7.58315 318.685 7.62769 315H15.45ZM6.80542 315C6.09256 317.412 5.14425 322.772 4.74487 328.3C4.57016 330.708 4.55203 332.864 4.52026 337.078C4.44083 347.737 4.81083 353.107 4.29565 353.171C3.98021 353.209 3.51523 351.218 2.948 348.781C2.4714 346.732 2.18483 344.99 1.82397 342.441C1.45634 339.838 1.22964 338.231 0.925537 335.369C0.399028 330.417 0.11334 327.732 0.0270998 324.397C-0.0693137 320.741 0.105052 317.517 0.33667 315H6.80542Z" fill="#C2C2C2"/>
<path d="M15.45 135C14.6351 139.895 13.7134 146.716 13.2878 154.884C12.5186 169.646 13.8343 179.842 12.8386 179.998C11.9399 180.136 9.79041 171.994 8.56714 163.66C6.51338 149.677 7.58315 138.685 7.62769 135H15.45ZM6.80542 135C6.09256 137.412 5.14425 142.772 4.74487 148.3C4.57016 150.708 4.55203 152.864 4.52026 157.078C4.44083 167.737 4.81083 173.107 4.29565 173.171C3.98021 173.209 3.51523 171.218 2.948 168.781C2.4714 166.732 2.18483 164.99 1.82397 162.441C1.45634 159.838 1.22964 158.231 0.925537 155.369C0.399028 150.417 0.11334 147.732 0.0270998 144.397C-0.0693137 140.741 0.105052 137.517 0.33667 135H6.80542Z" fill="#C2C2C2"/>
<path d="M15.45 225C14.6351 229.895 13.7134 236.716 13.2878 244.884C12.5186 259.646 13.8343 269.842 12.8386 269.998C11.9399 270.136 9.79041 261.994 8.56714 253.66C6.51338 239.677 7.58315 228.685 7.62769 225H15.45ZM6.80542 225C6.09256 227.412 5.14425 232.772 4.74487 238.3C4.57016 240.708 4.55203 242.864 4.52026 247.078C4.44083 257.737 4.81083 263.107 4.29565 263.171C3.98021 263.209 3.51523 261.218 2.948 258.781C2.4714 256.732 2.18483 254.99 1.82397 252.441C1.45634 249.838 1.22964 248.231 0.925537 245.369C0.399028 240.417 0.11334 237.732 0.0270998 234.397C-0.0693137 230.741 0.105052 227.517 0.33667 225H6.80542Z" fill="#C2C2C2"/>
<path d="M15.45 45C14.6351 49.8953 13.7134 56.7164 13.2878 64.8838C12.5186 79.6463 13.8343 89.8415 12.8386 89.998C11.9399 90.1365 9.79041 81.9944 8.56714 73.6602C6.51338 59.6771 7.58315 48.6852 7.62769 45H15.45ZM6.80542 45C6.09256 47.4124 5.14425 52.7717 4.74487 58.2998C4.57016 60.7077 4.55203 62.8638 4.52026 67.0781C4.44083 77.7365 4.81083 83.1073 4.29565 83.1709C3.98021 83.2088 3.51523 81.2183 2.948 78.7812C2.4714 76.7317 2.18483 74.9902 1.82397 72.4414C1.45634 69.8383 1.22964 68.2311 0.925537 65.3691C0.399028 60.4169 0.11334 57.7316 0.0270998 54.3975C-0.0693137 50.7414 0.105052 47.5168 0.33667 45H6.80542Z" fill="#C2C2C2"/>
<path d="M15.45 0C14.6351 4.89528 13.7134 11.7164 13.2878 19.8838C12.5186 34.6463 13.8343 44.8415 12.8386 44.998C11.9399 45.1365 9.79041 36.9944 8.56714 28.6602C6.51338 14.6771 7.58315 3.68518 7.62769 0H15.45ZM6.80542 0C6.09256 2.41239 5.14425 7.77167 4.74487 13.2998C4.57016 15.7077 4.55203 17.8638 4.52026 22.0781C4.44083 32.7365 4.81083 38.1073 4.29565 38.1709C3.98021 38.2088 3.51523 36.2183 2.948 33.7812C2.4714 31.7317 2.18483 29.9902 1.82397 27.4414C1.45634 24.8383 1.22964 23.2311 0.925537 20.3691C0.399028 15.4169 0.11334 12.7316 0.0270998 9.39746C-0.0693137 5.74142 0.105052 2.51681 0.33667 0H6.80542Z" fill="#C2C2C2"/>
<path d="M43.45 450C42.6351 454.895 41.7135 461.716 41.2878 469.884C40.5185 484.648 41.8349 494.844 40.8386 494.998C39.9399 495.136 37.7904 486.994 36.5671 478.66C34.5133 464.677 35.5841 453.685 35.6287 450H43.45ZM34.8054 450C34.0925 452.412 33.1443 457.772 32.7449 463.3C32.5702 465.708 32.552 467.864 32.5203 472.078C32.4408 482.737 32.8108 488.107 32.2957 488.171C31.9802 488.208 31.5152 486.218 30.948 483.781C30.4714 481.732 30.1848 479.99 29.824 477.441C29.4563 474.838 29.2296 473.231 28.9255 470.369C28.399 465.417 28.1133 462.732 28.0271 459.397C27.9307 455.741 28.105 452.517 28.3367 450H34.8054Z" fill="#C2C2C2"/>
<path d="M43.45 360C42.6351 364.895 41.7135 371.716 41.2878 379.884C40.5185 394.648 41.8349 404.844 40.8386 404.998C39.9399 405.136 37.7904 396.994 36.5671 388.66C34.5133 374.677 35.5841 363.685 35.6287 360H43.45ZM34.8054 360C34.0925 362.412 33.1443 367.772 32.7449 373.3C32.5702 375.708 32.552 377.864 32.5203 382.078C32.4408 392.737 32.8108 398.107 32.2957 398.171C31.9802 398.208 31.5152 396.218 30.948 393.781C30.4714 391.732 30.1848 389.99 29.824 387.441C29.4563 384.838 29.2296 383.231 28.9255 380.369C28.399 375.417 28.1133 372.732 28.0271 369.397C27.9307 365.741 28.105 362.517 28.3367 360H34.8054Z" fill="#C2C2C2"/>
<path d="M43.45 180C42.6351 184.895 41.7135 191.716 41.2878 199.884C40.5185 214.648 41.8349 224.844 40.8386 224.998C39.9399 225.136 37.7904 216.994 36.5671 208.66C34.5133 194.677 35.5841 183.685 35.6287 180H43.45ZM34.8054 180C34.0925 182.412 33.1443 187.772 32.7449 193.3C32.5702 195.708 32.552 197.864 32.5203 202.078C32.4408 212.737 32.8108 218.107 32.2957 218.171C31.9802 218.208 31.5152 216.218 30.948 213.781C30.4714 211.732 30.1848 209.99 29.824 207.441C29.4563 204.838 29.2296 203.231 28.9255 200.369C28.399 195.417 28.1133 192.732 28.0271 189.397C27.9307 185.741 28.105 182.517 28.3367 180H34.8054Z" fill="#C2C2C2"/>
<path d="M43.45 270C42.6351 274.895 41.7135 281.716 41.2878 289.884C40.5185 304.648 41.8349 314.844 40.8386 314.998C39.9399 315.136 37.7904 306.994 36.5671 298.66C34.5133 284.677 35.5841 273.685 35.6287 270H43.45ZM34.8054 270C34.0925 272.412 33.1443 277.772 32.7449 283.3C32.5702 285.708 32.552 287.864 32.5203 292.078C32.4408 302.737 32.8108 308.107 32.2957 308.171C31.9802 308.208 31.5152 306.218 30.948 303.781C30.4714 301.732 30.1848 299.99 29.824 297.441C29.4563 294.838 29.2296 293.231 28.9255 290.369C28.399 285.417 28.1133 282.732 28.0271 279.397C27.9307 275.741 28.105 272.517 28.3367 270H34.8054Z" fill="#C2C2C2"/>
<path d="M43.45 90C42.6351 94.8953 41.7135 101.716 41.2878 109.884C40.5185 124.648 41.8349 134.844 40.8386 134.998C39.9399 135.136 37.7904 126.994 36.5671 118.66C34.5133 104.677 35.5841 93.6852 35.6287 90H43.45ZM34.8054 90C34.0925 92.4124 33.1443 97.7717 32.7449 103.3C32.5702 105.708 32.552 107.864 32.5203 112.078C32.4408 122.737 32.8108 128.107 32.2957 128.171C31.9802 128.208 31.5152 126.218 30.948 123.781C30.4714 121.732 30.1848 119.99 29.824 117.441C29.4563 114.838 29.2296 113.231 28.9255 110.369C28.399 105.417 28.1133 102.732 28.0271 99.3975C27.9307 95.7414 28.105 92.5168 28.3367 90H34.8054Z" fill="#C2C2C2"/>
<path d="M43.45 405C42.6351 409.895 41.7135 416.716 41.2878 424.884C40.5185 439.648 41.8349 449.844 40.8386 449.998C39.9399 450.136 37.7904 441.994 36.5671 433.66C34.5133 419.677 35.5841 408.685 35.6287 405H43.45ZM34.8054 405C34.0925 407.412 33.1443 412.772 32.7449 418.3C32.5702 420.708 32.552 422.864 32.5203 427.078C32.4408 437.737 32.8108 443.107 32.2957 443.171C31.9802 443.208 31.5152 441.218 30.948 438.781C30.4714 436.732 30.1848 434.99 29.824 432.441C29.4563 429.838 29.2296 428.231 28.9255 425.369C28.399 420.417 28.1133 417.732 28.0271 414.397C27.9307 410.741 28.105 407.517 28.3367 405H34.8054Z" fill="#C2C2C2"/>
<path d="M43.45 315C42.6351 319.895 41.7135 326.716 41.2878 334.884C40.5185 349.648 41.8349 359.844 40.8386 359.998C39.9399 360.136 37.7904 351.994 36.5671 343.66C34.5133 329.677 35.5841 318.685 35.6287 315H43.45ZM34.8054 315C34.0925 317.412 33.1443 322.772 32.7449 328.3C32.5702 330.708 32.552 332.864 32.5203 337.078C32.4408 347.737 32.8108 353.107 32.2957 353.171C31.9802 353.208 31.5152 351.218 30.948 348.781C30.4714 346.732 30.1848 344.99 29.824 342.441C29.4563 339.838 29.2296 338.231 28.9255 335.369C28.399 330.417 28.1133 327.732 28.0271 324.397C27.9307 320.741 28.105 317.517 28.3367 315H34.8054Z" fill="#C2C2C2"/>
<path d="M43.45 135C42.6351 139.895 41.7135 146.716 41.2878 154.884C40.5185 169.648 41.8349 179.844 40.8386 179.998C39.9399 180.136 37.7904 171.994 36.5671 163.66C34.5133 149.677 35.5841 138.685 35.6287 135H43.45ZM34.8054 135C34.0925 137.412 33.1443 142.772 32.7449 148.3C32.5702 150.708 32.552 152.864 32.5203 157.078C32.4408 167.737 32.8108 173.107 32.2957 173.171C31.9802 173.208 31.5152 171.218 30.948 168.781C30.4714 166.732 30.1848 164.99 29.824 162.441C29.4563 159.838 29.2296 158.231 28.9255 155.369C28.399 150.417 28.1133 147.732 28.0271 144.397C27.9307 140.741 28.105 137.517 28.3367 135H34.8054Z" fill="#C2C2C2"/>
<path d="M43.45 225C42.6351 229.895 41.7135 236.716 41.2878 244.884C40.5185 259.648 41.8349 269.844 40.8386 269.998C39.9399 270.136 37.7904 261.994 36.5671 253.66C34.5133 239.677 35.5841 228.685 35.6287 225H43.45ZM34.8054 225C34.0925 227.412 33.1443 232.772 32.7449 238.3C32.5702 240.708 32.552 242.864 32.5203 247.078C32.4408 257.737 32.8108 263.107 32.2957 263.171C31.9802 263.208 31.5152 261.218 30.948 258.781C30.4714 256.732 30.1848 254.99 29.824 252.441C29.4563 249.838 29.2296 248.231 28.9255 245.369C28.399 240.417 28.1133 237.732 28.0271 234.397C27.9307 230.741 28.105 227.517 28.3367 225H34.8054Z" fill="#C2C2C2"/>
<path d="M43.45 45C42.6351 49.8953 41.7135 56.7164 41.2878 64.8838C40.5185 79.6479 41.8349 89.8436 40.8386 89.998C39.9399 90.1365 37.7904 81.9944 36.5671 73.6602C34.5133 59.6771 35.5841 48.6852 35.6287 45H43.45ZM34.8054 45C34.0925 47.4124 33.1443 52.7717 32.7449 58.2998C32.5702 60.7077 32.552 62.8638 32.5203 67.0781C32.4408 77.7365 32.8108 83.1073 32.2957 83.1709C31.9802 83.2083 31.5152 81.218 30.948 78.7812C30.4714 76.7317 30.1848 74.9902 29.824 72.4414C29.4563 69.8383 29.2296 68.2311 28.9255 65.3691C28.399 60.4169 28.1133 57.7316 28.0271 54.3975C27.9307 50.7414 28.105 47.5168 28.3367 45H34.8054Z" fill="#C2C2C2"/>
<path d="M43.45 0C42.6351 4.89527 41.7135 11.7164 41.2878 19.8838C40.5185 34.6479 41.8349 44.8436 40.8386 44.998C39.9399 45.1365 37.7904 36.9944 36.5671 28.6602C34.5133 14.6771 35.5841 3.68517 35.6287 0H43.45ZM34.8054 0C34.0925 2.41241 33.1443 7.77171 32.7449 13.2998C32.5702 15.7077 32.552 17.8638 32.5203 22.0781C32.4408 32.7365 32.8108 38.1073 32.2957 38.1709C31.9802 38.2083 31.5152 36.218 30.948 33.7812C30.4714 31.7317 30.1848 29.9902 29.824 27.4414C29.4563 24.8383 29.2296 23.2311 28.9255 20.3691C28.399 15.4169 28.1133 12.7316 28.0271 9.39746C27.9307 5.74142 28.105 2.51681 28.3367 0H34.8054Z" fill="#C2C2C2"/>
<path d="M71.45 450C70.6351 454.895 69.7134 461.716 69.2878 469.884C68.5186 484.646 69.8343 494.842 68.8386 494.998C67.9399 495.136 65.7904 486.994 64.5671 478.66C62.5134 464.677 63.5831 453.685 63.6277 450H71.45ZM62.8054 450C62.0926 452.412 61.1442 457.772 60.7449 463.3C60.5702 465.708 60.552 467.864 60.5203 472.078C60.4408 482.737 60.8108 488.107 60.2957 488.171C59.9802 488.209 59.5152 486.218 58.948 483.781C58.4714 481.732 58.1848 479.99 57.824 477.441C57.4563 474.838 57.2296 473.231 56.9255 470.369C56.399 465.417 56.1133 462.732 56.0271 459.397C55.9307 455.741 56.1051 452.517 56.3367 450H62.8054Z" fill="#C2C2C2"/>
<path d="M71.45 360C70.6351 364.895 69.7134 371.716 69.2878 379.884C68.5186 394.646 69.8343 404.842 68.8386 404.998C67.9399 405.136 65.7904 396.994 64.5671 388.66C62.5134 374.677 63.5831 363.685 63.6277 360H71.45ZM62.8054 360C62.0926 362.412 61.1442 367.772 60.7449 373.3C60.5702 375.708 60.552 377.864 60.5203 382.078C60.4408 392.737 60.8108 398.107 60.2957 398.171C59.9802 398.209 59.5152 396.218 58.948 393.781C58.4714 391.732 58.1848 389.99 57.824 387.441C57.4563 384.838 57.2296 383.231 56.9255 380.369C56.399 375.417 56.1133 372.732 56.0271 369.397C55.9307 365.741 56.1051 362.517 56.3367 360H62.8054Z" fill="#C2C2C2"/>
<path d="M71.45 180C70.6351 184.895 69.7134 191.716 69.2878 199.884C68.5186 214.646 69.8343 224.842 68.8386 224.998C67.9399 225.136 65.7904 216.994 64.5671 208.66C62.5134 194.677 63.5831 183.685 63.6277 180H71.45ZM62.8054 180C62.0926 182.412 61.1442 187.772 60.7449 193.3C60.5702 195.708 60.552 197.864 60.5203 202.078C60.4408 212.737 60.8108 218.107 60.2957 218.171C59.9802 218.209 59.5152 216.218 58.948 213.781C58.4714 211.732 58.1848 209.99 57.824 207.441C57.4563 204.838 57.2296 203.231 56.9255 200.369C56.399 195.417 56.1133 192.732 56.0271 189.397C55.9307 185.741 56.1051 182.517 56.3367 180H62.8054Z" fill="#C2C2C2"/>
<path d="M71.45 270C70.6351 274.895 69.7134 281.716 69.2878 289.884C68.5186 304.646 69.8343 314.842 68.8386 314.998C67.9399 315.136 65.7904 306.994 64.5671 298.66C62.5134 284.677 63.5831 273.685 63.6277 270H71.45ZM62.8054 270C62.0926 272.412 61.1442 277.772 60.7449 283.3C60.5702 285.708 60.552 287.864 60.5203 292.078C60.4408 302.737 60.8108 308.107 60.2957 308.171C59.9802 308.209 59.5152 306.218 58.948 303.781C58.4714 301.732 58.1848 299.99 57.824 297.441C57.4563 294.838 57.2296 293.231 56.9255 290.369C56.399 285.417 56.1133 282.732 56.0271 279.397C55.9307 275.741 56.1051 272.517 56.3367 270H62.8054Z" fill="#C2C2C2"/>
<path d="M71.45 90C70.6351 94.8953 69.7134 101.716 69.2878 109.884C68.5186 124.646 69.8343 134.842 68.8386 134.998C67.9399 135.136 65.7904 126.994 64.5671 118.66C62.5134 104.677 63.5831 93.6852 63.6277 90H71.45ZM62.8054 90C62.0926 92.4124 61.1442 97.7717 60.7449 103.3C60.5702 105.708 60.552 107.864 60.5203 112.078C60.4408 122.737 60.8108 128.107 60.2957 128.171C59.9802 128.209 59.5152 126.218 58.948 123.781C58.4714 121.732 58.1848 119.99 57.824 117.441C57.4563 114.838 57.2296 113.231 56.9255 110.369C56.399 105.417 56.1133 102.732 56.0271 99.3975C55.9307 95.7414 56.1051 92.5168 56.3367 90H62.8054Z" fill="#C2C2C2"/>
<path d="M71.45 405C70.6351 409.895 69.7134 416.716 69.2878 424.884C68.5186 439.646 69.8343 449.842 68.8386 449.998C67.9399 450.136 65.7904 441.994 64.5671 433.66C62.5134 419.677 63.5831 408.685 63.6277 405H71.45ZM62.8054 405C62.0926 407.412 61.1442 412.772 60.7449 418.3C60.5702 420.708 60.552 422.864 60.5203 427.078C60.4408 437.737 60.8108 443.107 60.2957 443.171C59.9802 443.209 59.5152 441.218 58.948 438.781C58.4714 436.732 58.1848 434.99 57.824 432.441C57.4563 429.838 57.2296 428.231 56.9255 425.369C56.399 420.417 56.1133 417.732 56.0271 414.397C55.9307 410.741 56.1051 407.517 56.3367 405H62.8054Z" fill="#C2C2C2"/>
<path d="M71.45 315C70.6351 319.895 69.7134 326.716 69.2878 334.884C68.5186 349.646 69.8343 359.842 68.8386 359.998C67.9399 360.136 65.7904 351.994 64.5671 343.66C62.5134 329.677 63.5831 318.685 63.6277 315H71.45ZM62.8054 315C62.0926 317.412 61.1442 322.772 60.7449 328.3C60.5702 330.708 60.552 332.864 60.5203 337.078C60.4408 347.737 60.8108 353.107 60.2957 353.171C59.9802 353.209 59.5152 351.218 58.948 348.781C58.4714 346.732 58.1848 344.99 57.824 342.441C57.4563 339.838 57.2296 338.231 56.9255 335.369C56.399 330.417 56.1133 327.732 56.0271 324.397C55.9307 320.741 56.1051 317.517 56.3367 315H62.8054Z" fill="#C2C2C2"/>
<path d="M71.45 135C70.6351 139.895 69.7134 146.716 69.2878 154.884C68.5186 169.646 69.8343 179.842 68.8386 179.998C67.9399 180.136 65.7904 171.994 64.5671 163.66C62.5134 149.677 63.5831 138.685 63.6277 135H71.45ZM62.8054 135C62.0926 137.412 61.1442 142.772 60.7449 148.3C60.5702 150.708 60.552 152.864 60.5203 157.078C60.4408 167.737 60.8108 173.107 60.2957 173.171C59.9802 173.209 59.5152 171.218 58.948 168.781C58.4714 166.732 58.1848 164.99 57.824 162.441C57.4563 159.838 57.2296 158.231 56.9255 155.369C56.399 150.417 56.1133 147.732 56.0271 144.397C55.9307 140.741 56.1051 137.517 56.3367 135H62.8054Z" fill="#C2C2C2"/>
<path d="M71.45 225C70.6351 229.895 69.7134 236.716 69.2878 244.884C68.5186 259.646 69.8343 269.842 68.8386 269.998C67.9399 270.136 65.7904 261.994 64.5671 253.66C62.5134 239.677 63.5831 228.685 63.6277 225H71.45ZM62.8054 225C62.0926 227.412 61.1442 232.772 60.7449 238.3C60.5702 240.708 60.552 242.864 60.5203 247.078C60.4408 257.737 60.8108 263.107 60.2957 263.171C59.9802 263.209 59.5152 261.218 58.948 258.781C58.4714 256.732 58.1848 254.99 57.824 252.441C57.4563 249.838 57.2296 248.231 56.9255 245.369C56.399 240.417 56.1133 237.732 56.0271 234.397C55.9307 230.741 56.1051 227.517 56.3367 225H62.8054Z" fill="#C2C2C2"/>
<path d="M71.45 45C70.6351 49.8953 69.7134 56.7164 69.2878 64.8838C68.5186 79.6463 69.8343 89.8415 68.8386 89.998C67.9399 90.1365 65.7904 81.9944 64.5671 73.6602C62.5134 59.6771 63.5831 48.6852 63.6277 45H71.45ZM62.8054 45C62.0926 47.4124 61.1442 52.7717 60.7449 58.2998C60.5702 60.7077 60.552 62.8638 60.5203 67.0781C60.4408 77.7365 60.8108 83.1073 60.2957 83.1709C59.9802 83.2088 59.5152 81.2183 58.948 78.7812C58.4714 76.7317 58.1848 74.9902 57.824 72.4414C57.4563 69.8383 57.2296 68.2311 56.9255 65.3691C56.399 60.4169 56.1133 57.7316 56.0271 54.3975C55.9307 50.7414 56.1051 47.5168 56.3367 45H62.8054Z" fill="#C2C2C2"/>
<path d="M71.45 0C70.6351 4.89528 69.7134 11.7164 69.2878 19.8838C68.5186 34.6463 69.8343 44.8415 68.8386 44.998C67.9399 45.1365 65.7904 36.9944 64.5671 28.6602C62.5134 14.6771 63.5831 3.68518 63.6277 0H71.45ZM62.8054 0C62.0926 2.41239 61.1442 7.77167 60.7449 13.2998C60.5702 15.7077 60.552 17.8638 60.5203 22.0781C60.4408 32.7365 60.8108 38.1073 60.2957 38.1709C59.9802 38.2088 59.5152 36.2183 58.948 33.7812C58.4714 31.7317 58.1848 29.9902 57.824 27.4414C57.4563 24.8383 57.2296 23.2311 56.9255 20.3691C56.399 15.4169 56.1133 12.7316 56.0271 9.39746C55.9307 5.74142 56.1051 2.51681 56.3367 0H62.8054Z" fill="#C2C2C2"/>
<path d="M99.45 450C98.6351 454.895 97.7134 461.716 97.2878 469.884C96.5186 484.646 97.8343 494.842 96.8386 494.998C95.9399 495.136 93.7904 486.994 92.5671 478.66C90.5134 464.677 91.5831 453.685 91.6277 450H99.45ZM90.8054 450C90.0926 452.412 89.1442 457.772 88.7449 463.3C88.5702 465.708 88.552 467.864 88.5203 472.078C88.4408 482.737 88.8108 488.107 88.2957 488.171C87.9802 488.209 87.5152 486.218 86.948 483.781C86.4714 481.732 86.1848 479.99 85.824 477.441C85.4563 474.838 85.2296 473.231 84.9255 470.369C84.399 465.417 84.1133 462.732 84.0271 459.397C83.9307 455.741 84.1051 452.517 84.3367 450H90.8054Z" fill="#C2C2C2"/>
<path d="M99.45 360C98.6351 364.895 97.7134 371.716 97.2878 379.884C96.5186 394.646 97.8343 404.842 96.8386 404.998C95.9399 405.136 93.7904 396.994 92.5671 388.66C90.5134 374.677 91.5831 363.685 91.6277 360H99.45ZM90.8054 360C90.0926 362.412 89.1442 367.772 88.7449 373.3C88.5702 375.708 88.552 377.864 88.5203 382.078C88.4408 392.737 88.8108 398.107 88.2957 398.171C87.9802 398.209 87.5152 396.218 86.948 393.781C86.4714 391.732 86.1848 389.99 85.824 387.441C85.4563 384.838 85.2296 383.231 84.9255 380.369C84.399 375.417 84.1133 372.732 84.0271 369.397C83.9307 365.741 84.1051 362.517 84.3367 360H90.8054Z" fill="#C2C2C2"/>
<path d="M99.45 180C98.6351 184.895 97.7134 191.716 97.2878 199.884C96.5186 214.646 97.8343 224.842 96.8386 224.998C95.9399 225.136 93.7904 216.994 92.5671 208.66C90.5134 194.677 91.5831 183.685 91.6277 180H99.45ZM90.8054 180C90.0926 182.412 89.1442 187.772 88.7449 193.3C88.5702 195.708 88.552 197.864 88.5203 202.078C88.4408 212.737 88.8108 218.107 88.2957 218.171C87.9802 218.209 87.5152 216.218 86.948 213.781C86.4714 211.732 86.1848 209.99 85.824 207.441C85.4563 204.838 85.2296 203.231 84.9255 200.369C84.399 195.417 84.1133 192.732 84.0271 189.397C83.9307 185.741 84.1051 182.517 84.3367 180H90.8054Z" fill="#C2C2C2"/>
<path d="M99.45 270C98.6351 274.895 97.7134 281.716 97.2878 289.884C96.5186 304.646 97.8343 314.842 96.8386 314.998C95.9399 315.136 93.7904 306.994 92.5671 298.66C90.5134 284.677 91.5831 273.685 91.6277 270H99.45ZM90.8054 270C90.0926 272.412 89.1442 277.772 88.7449 283.3C88.5702 285.708 88.552 287.864 88.5203 292.078C88.4408 302.737 88.8108 308.107 88.2957 308.171C87.9802 308.209 87.5152 306.218 86.948 303.781C86.4714 301.732 86.1848 299.99 85.824 297.441C85.4563 294.838 85.2296 293.231 84.9255 290.369C84.399 285.417 84.1133 282.732 84.0271 279.397C83.9307 275.741 84.1051 272.517 84.3367 270H90.8054Z" fill="#C2C2C2"/>
<path d="M99.45 90C98.6351 94.8953 97.7134 101.716 97.2878 109.884C96.5186 124.646 97.8343 134.842 96.8386 134.998C95.9399 135.136 93.7904 126.994 92.5671 118.66C90.5134 104.677 91.5831 93.6852 91.6277 90H99.45ZM90.8054 90C90.0926 92.4124 89.1442 97.7717 88.7449 103.3C88.5702 105.708 88.552 107.864 88.5203 112.078C88.4408 122.737 88.8108 128.107 88.2957 128.171C87.9802 128.209 87.5152 126.218 86.948 123.781C86.4714 121.732 86.1848 119.99 85.824 117.441C85.4563 114.838 85.2296 113.231 84.9255 110.369C84.399 105.417 84.1133 102.732 84.0271 99.3975C83.9307 95.7414 84.1051 92.5168 84.3367 90H90.8054Z" fill="#C2C2C2"/>
<path d="M99.45 405C98.6351 409.895 97.7134 416.716 97.2878 424.884C96.5186 439.646 97.8343 449.842 96.8386 449.998C95.9399 450.136 93.7904 441.994 92.5671 433.66C90.5134 419.677 91.5831 408.685 91.6277 405H99.45ZM90.8054 405C90.0926 407.412 89.1442 412.772 88.7449 418.3C88.5702 420.708 88.552 422.864 88.5203 427.078C88.4408 437.737 88.8108 443.107 88.2957 443.171C87.9802 443.209 87.5152 441.218 86.948 438.781C86.4714 436.732 86.1848 434.99 85.824 432.441C85.4563 429.838 85.2296 428.231 84.9255 425.369C84.399 420.417 84.1133 417.732 84.0271 414.397C83.9307 410.741 84.1051 407.517 84.3367 405H90.8054Z" fill="#C2C2C2"/>
<path d="M99.45 315C98.6351 319.895 97.7134 326.716 97.2878 334.884C96.5186 349.646 97.8343 359.842 96.8386 359.998C95.9399 360.136 93.7904 351.994 92.5671 343.66C90.5134 329.677 91.5831 318.685 91.6277 315H99.45ZM90.8054 315C90.0926 317.412 89.1442 322.772 88.7449 328.3C88.5702 330.708 88.552 332.864 88.5203 337.078C88.4408 347.737 88.8108 353.107 88.2957 353.171C87.9802 353.209 87.5152 351.218 86.948 348.781C86.4714 346.732 86.1848 344.99 85.824 342.441C85.4563 339.838 85.2296 338.231 84.9255 335.369C84.399 330.417 84.1133 327.732 84.0271 324.397C83.9307 320.741 84.1051 317.517 84.3367 315H90.8054Z" fill="#C2C2C2"/>
<path d="M99.45 135C98.6351 139.895 97.7134 146.716 97.2878 154.884C96.5186 169.646 97.8343 179.842 96.8386 179.998C95.9399 180.136 93.7904 171.994 92.5671 163.66C90.5134 149.677 91.5831 138.685 91.6277 135H99.45ZM90.8054 135C90.0926 137.412 89.1442 142.772 88.7449 148.3C88.5702 150.708 88.552 152.864 88.5203 157.078C88.4408 167.737 88.8108 173.107 88.2957 173.171C87.9802 173.209 87.5152 171.218 86.948 168.781C86.4714 166.732 86.1848 164.99 85.824 162.441C85.4563 159.838 85.2296 158.231 84.9255 155.369C84.399 150.417 84.1133 147.732 84.0271 144.397C83.9307 140.741 84.1051 137.517 84.3367 135H90.8054Z" fill="#C2C2C2"/>
<path d="M99.45 225C98.6351 229.895 97.7134 236.716 97.2878 244.884C96.5186 259.646 97.8343 269.842 96.8386 269.998C95.9399 270.136 93.7904 261.994 92.5671 253.66C90.5134 239.677 91.5831 228.685 91.6277 225H99.45ZM90.8054 225C90.0926 227.412 89.1442 232.772 88.7449 238.3C88.5702 240.708 88.552 242.864 88.5203 247.078C88.4408 257.737 88.8108 263.107 88.2957 263.171C87.9802 263.209 87.5152 261.218 86.948 258.781C86.4714 256.732 86.1848 254.99 85.824 252.441C85.4563 249.838 85.2296 248.231 84.9255 245.369C84.399 240.417 84.1133 237.732 84.0271 234.397C83.9307 230.741 84.1051 227.517 84.3367 225H90.8054Z" fill="#C2C2C2"/>
<path d="M99.45 45C98.6351 49.8953 97.7134 56.7164 97.2878 64.8838C96.5186 79.6463 97.8343 89.8415 96.8386 89.998C95.9399 90.1365 93.7904 81.9944 92.5671 73.6602C90.5134 59.6771 91.5831 48.6852 91.6277 45H99.45ZM90.8054 45C90.0926 47.4124 89.1442 52.7717 88.7449 58.2998C88.5702 60.7077 88.552 62.8638 88.5203 67.0781C88.4408 77.7365 88.8108 83.1073 88.2957 83.1709C87.9802 83.2088 87.5152 81.2183 86.948 78.7812C86.4714 76.7317 86.1848 74.9902 85.824 72.4414C85.4563 69.8383 85.2296 68.2311 84.9255 65.3691C84.399 60.4169 84.1133 57.7316 84.0271 54.3975C83.9307 50.7414 84.1051 47.5168 84.3367 45H90.8054Z" fill="#C2C2C2"/>
<path d="M99.45 0C98.6351 4.89528 97.7134 11.7164 97.2878 19.8838C96.5186 34.6463 97.8343 44.8415 96.8386 44.998C95.9399 45.1365 93.7904 36.9944 92.5671 28.6602C90.5134 14.6771 91.5831 3.68518 91.6277 0H99.45ZM90.8054 0C90.0926 2.41239 89.1442 7.77167 88.7449 13.2998C88.5702 15.7077 88.552 17.8638 88.5203 22.0781C88.4408 32.7365 88.8108 38.1073 88.2957 38.1709C87.9802 38.2088 87.5152 36.2183 86.948 33.7812C86.4714 31.7317 86.1848 29.9902 85.824 27.4414C85.4563 24.8383 85.2296 23.2311 84.9255 20.3691C84.399 15.4169 84.1133 12.7316 84.0271 9.39746C83.9307 5.74142 84.1051 2.51681 84.3367 0H90.8054Z" fill="#C2C2C2"/>
<path d="M127.45 450C126.635 454.895 125.713 461.716 125.288 469.884C124.519 484.646 125.834 494.842 124.839 494.998C123.94 495.136 121.79 486.994 120.567 478.66C118.513 464.677 119.583 453.685 119.628 450H127.45ZM118.805 450C118.093 452.412 117.144 457.772 116.745 463.3C116.57 465.708 116.552 467.864 116.52 472.078C116.441 482.737 116.811 488.107 116.296 488.171C115.98 488.209 115.515 486.218 114.948 483.781C114.471 481.732 114.185 479.99 113.824 477.441C113.456 474.838 113.23 473.231 112.926 470.369C112.399 465.417 112.113 462.732 112.027 459.397C111.931 455.741 112.105 452.517 112.337 450H118.805Z" fill="#C2C2C2"/>
<path d="M127.45 360C126.635 364.895 125.713 371.716 125.288 379.884C124.519 394.646 125.834 404.842 124.839 404.998C123.94 405.136 121.79 396.994 120.567 388.66C118.513 374.677 119.583 363.685 119.628 360H127.45ZM118.805 360C118.093 362.412 117.144 367.772 116.745 373.3C116.57 375.708 116.552 377.864 116.52 382.078C116.441 392.737 116.811 398.107 116.296 398.171C115.98 398.209 115.515 396.218 114.948 393.781C114.471 391.732 114.185 389.99 113.824 387.441C113.456 384.838 113.23 383.231 112.926 380.369C112.399 375.417 112.113 372.732 112.027 369.397C111.931 365.741 112.105 362.517 112.337 360H118.805Z" fill="#C2C2C2"/>
<path d="M127.45 180C126.635 184.895 125.713 191.716 125.288 199.884C124.519 214.646 125.834 224.842 124.839 224.998C123.94 225.136 121.79 216.994 120.567 208.66C118.513 194.677 119.583 183.685 119.628 180H127.45ZM118.805 180C118.093 182.412 117.144 187.772 116.745 193.3C116.57 195.708 116.552 197.864 116.52 202.078C116.441 212.737 116.811 218.107 116.296 218.171C115.98 218.209 115.515 216.218 114.948 213.781C114.471 211.732 114.185 209.99 113.824 207.441C113.456 204.838 113.23 203.231 112.926 200.369C112.399 195.417 112.113 192.732 112.027 189.397C111.931 185.741 112.105 182.517 112.337 180H118.805Z" fill="#C2C2C2"/>
<path d="M127.45 270C126.635 274.895 125.713 281.716 125.288 289.884C124.519 304.646 125.834 314.842 124.839 314.998C123.94 315.136 121.79 306.994 120.567 298.66C118.513 284.677 119.583 273.685 119.628 270H127.45ZM118.805 270C118.093 272.412 117.144 277.772 116.745 283.3C116.57 285.708 116.552 287.864 116.52 292.078C116.441 302.737 116.811 308.107 116.296 308.171C115.98 308.209 115.515 306.218 114.948 303.781C114.471 301.732 114.185 299.99 113.824 297.441C113.456 294.838 113.23 293.231 112.926 290.369C112.399 285.417 112.113 282.732 112.027 279.397C111.931 275.741 112.105 272.517 112.337 270H118.805Z" fill="#C2C2C2"/>
<path d="M127.45 90C126.635 94.8953 125.713 101.716 125.288 109.884C124.519 124.646 125.834 134.842 124.839 134.998C123.94 135.136 121.79 126.994 120.567 118.66C118.513 104.677 119.583 93.6852 119.628 90H127.45ZM118.805 90C118.093 92.4124 117.144 97.7717 116.745 103.3C116.57 105.708 116.552 107.864 116.52 112.078C116.441 122.737 116.811 128.107 116.296 128.171C115.98 128.209 115.515 126.218 114.948 123.781C114.471 121.732 114.185 119.99 113.824 117.441C113.456 114.838 113.23 113.231 112.926 110.369C112.399 105.417 112.113 102.732 112.027 99.3975C111.931 95.7414 112.105 92.5168 112.337 90H118.805Z" fill="#C2C2C2"/>
<path d="M127.45 405C126.635 409.895 125.713 416.716 125.288 424.884C124.519 439.646 125.834 449.842 124.839 449.998C123.94 450.136 121.79 441.994 120.567 433.66C118.513 419.677 119.583 408.685 119.628 405H127.45ZM118.805 405C118.093 407.412 117.144 412.772 116.745 418.3C116.57 420.708 116.552 422.864 116.52 427.078C116.441 437.737 116.811 443.107 116.296 443.171C115.98 443.209 115.515 441.218 114.948 438.781C114.471 436.732 114.185 434.99 113.824 432.441C113.456 429.838 113.23 428.231 112.926 425.369C112.399 420.417 112.113 417.732 112.027 414.397C111.931 410.741 112.105 407.517 112.337 405H118.805Z" fill="#C2C2C2"/>
<path d="M127.45 315C126.635 319.895 125.713 326.716 125.288 334.884C124.519 349.646 125.834 359.842 124.839 359.998C123.94 360.136 121.79 351.994 120.567 343.66C118.513 329.677 119.583 318.685 119.628 315H127.45ZM118.805 315C118.093 317.412 117.144 322.772 116.745 328.3C116.57 330.708 116.552 332.864 116.52 337.078C116.441 347.737 116.811 353.107 116.296 353.171C115.98 353.209 115.515 351.218 114.948 348.781C114.471 346.732 114.185 344.99 113.824 342.441C113.456 339.838 113.23 338.231 112.926 335.369C112.399 330.417 112.113 327.732 112.027 324.397C111.931 320.741 112.105 317.517 112.337 315H118.805Z" fill="#C2C2C2"/>
<path d="M127.45 135C126.635 139.895 125.713 146.716 125.288 154.884C124.519 169.646 125.834 179.842 124.839 179.998C123.94 180.136 121.79 171.994 120.567 163.66C118.513 149.677 119.583 138.685 119.628 135H127.45ZM118.805 135C118.093 137.412 117.144 142.772 116.745 148.3C116.57 150.708 116.552 152.864 116.52 157.078C116.441 167.737 116.811 173.107 116.296 173.171C115.98 173.209 115.515 171.218 114.948 168.781C114.471 166.732 114.185 164.99 113.824 162.441C113.456 159.838 113.23 158.231 112.926 155.369C112.399 150.417 112.113 147.732 112.027 144.397C111.931 140.741 112.105 137.517 112.337 135H118.805Z" fill="#C2C2C2"/>
<path d="M127.45 225C126.635 229.895 125.713 236.716 125.288 244.884C124.519 259.646 125.834 269.842 124.839 269.998C123.94 270.136 121.79 261.994 120.567 253.66C118.513 239.677 119.583 228.685 119.628 225H127.45ZM118.805 225C118.093 227.412 117.144 232.772 116.745 238.3C116.57 240.708 116.552 242.864 116.52 247.078C116.441 257.737 116.811 263.107 116.296 263.171C115.98 263.209 115.515 261.218 114.948 258.781C114.471 256.732 114.185 254.99 113.824 252.441C113.456 249.838 113.23 248.231 112.926 245.369C112.399 240.417 112.113 237.732 112.027 234.397C111.931 230.741 112.105 227.517 112.337 225H118.805Z" fill="#C2C2C2"/>
<path d="M127.45 45C126.635 49.8953 125.713 56.7164 125.288 64.8838C124.519 79.6463 125.834 89.8415 124.839 89.998C123.94 90.1365 121.79 81.9944 120.567 73.6602C118.513 59.6771 119.583 48.6852 119.628 45H127.45ZM118.805 45C118.093 47.4124 117.144 52.7717 116.745 58.2998C116.57 60.7077 116.552 62.8638 116.52 67.0781C116.441 77.7365 116.811 83.1073 116.296 83.1709C115.98 83.2088 115.515 81.2183 114.948 78.7812C114.471 76.7317 114.185 74.9902 113.824 72.4414C113.456 69.8383 113.23 68.2311 112.926 65.3691C112.399 60.4169 112.113 57.7316 112.027 54.3975C111.931 50.7414 112.105 47.5168 112.337 45H118.805Z" fill="#C2C2C2"/>
<path d="M127.45 0C126.635 4.89528 125.713 11.7164 125.288 19.8838C124.519 34.6463 125.834 44.8415 124.839 44.998C123.94 45.1365 121.79 36.9944 120.567 28.6602C118.513 14.6771 119.583 3.68518 119.628 0H127.45ZM118.805 0C118.093 2.41239 117.144 7.77167 116.745 13.2998C116.57 15.7077 116.552 17.8638 116.52 22.0781C116.441 32.7365 116.811 38.1073 116.296 38.1709C115.98 38.2088 115.515 36.2183 114.948 33.7812C114.471 31.7317 114.185 29.9902 113.824 27.4414C113.456 24.8383 113.23 23.2311 112.926 20.3691C112.399 15.4169 112.113 12.7316 112.027 9.39746C111.931 5.74142 112.105 2.51681 112.337 0H118.805Z" fill="#C2C2C2"/>
<path d="M155.45 450C154.635 454.895 153.713 461.716 153.288 469.884C152.519 484.646 153.834 494.842 152.839 494.998C151.94 495.136 149.79 486.994 148.567 478.66C146.513 464.677 147.583 453.685 147.628 450H155.45ZM146.805 450C146.093 452.412 145.144 457.772 144.745 463.3C144.57 465.708 144.552 467.864 144.52 472.078C144.441 482.737 144.811 488.107 144.296 488.171C143.98 488.209 143.515 486.218 142.948 483.781C142.471 481.732 142.185 479.99 141.824 477.441C141.456 474.838 141.23 473.231 140.926 470.369C140.399 465.417 140.113 462.732 140.027 459.397C139.931 455.741 140.105 452.517 140.337 450H146.805Z" fill="#C2C2C2"/>
<path d="M155.45 360C154.635 364.895 153.713 371.716 153.288 379.884C152.519 394.646 153.834 404.842 152.839 404.998C151.94 405.136 149.79 396.994 148.567 388.66C146.513 374.677 147.583 363.685 147.628 360H155.45ZM146.805 360C146.093 362.412 145.144 367.772 144.745 373.3C144.57 375.708 144.552 377.864 144.52 382.078C144.441 392.737 144.811 398.107 144.296 398.171C143.98 398.209 143.515 396.218 142.948 393.781C142.471 391.732 142.185 389.99 141.824 387.441C141.456 384.838 141.23 383.231 140.926 380.369C140.399 375.417 140.113 372.732 140.027 369.397C139.931 365.741 140.105 362.517 140.337 360H146.805Z" fill="#C2C2C2"/>
<path d="M155.45 180C154.635 184.895 153.713 191.716 153.288 199.884C152.519 214.646 153.834 224.842 152.839 224.998C151.94 225.136 149.79 216.994 148.567 208.66C146.513 194.677 147.583 183.685 147.628 180H155.45ZM146.805 180C146.093 182.412 145.144 187.772 144.745 193.3C144.57 195.708 144.552 197.864 144.52 202.078C144.441 212.737 144.811 218.107 144.296 218.171C143.98 218.209 143.515 216.218 142.948 213.781C142.471 211.732 142.185 209.99 141.824 207.441C141.456 204.838 141.23 203.231 140.926 200.369C140.399 195.417 140.113 192.732 140.027 189.397C139.931 185.741 140.105 182.517 140.337 180H146.805Z" fill="#C2C2C2"/>
<path d="M155.45 270C154.635 274.895 153.713 281.716 153.288 289.884C152.519 304.646 153.834 314.842 152.839 314.998C151.94 315.136 149.79 306.994 148.567 298.66C146.513 284.677 147.583 273.685 147.628 270H155.45ZM146.805 270C146.093 272.412 145.144 277.772 144.745 283.3C144.57 285.708 144.552 287.864 144.52 292.078C144.441 302.737 144.811 308.107 144.296 308.171C143.98 308.209 143.515 306.218 142.948 303.781C142.471 301.732 142.185 299.99 141.824 297.441C141.456 294.838 141.23 293.231 140.926 290.369C140.399 285.417 140.113 282.732 140.027 279.397C139.931 275.741 140.105 272.517 140.337 270H146.805Z" fill="#C2C2C2"/>
<path d="M155.45 90C154.635 94.8953 153.713 101.716 153.288 109.884C152.519 124.646 153.834 134.842 152.839 134.998C151.94 135.136 149.79 126.994 148.567 118.66C146.513 104.677 147.583 93.6852 147.628 90H155.45ZM146.805 90C146.093 92.4124 145.144 97.7717 144.745 103.3C144.57 105.708 144.552 107.864 144.52 112.078C144.441 122.737 144.811 128.107 144.296 128.171C143.98 128.209 143.515 126.218 142.948 123.781C142.471 121.732 142.185 119.99 141.824 117.441C141.456 114.838 141.23 113.231 140.926 110.369C140.399 105.417 140.113 102.732 140.027 99.3975C139.931 95.7414 140.105 92.5168 140.337 90H146.805Z" fill="#C2C2C2"/>
<path d="M155.45 405C154.635 409.895 153.713 416.716 153.288 424.884C152.519 439.646 153.834 449.842 152.839 449.998C151.94 450.136 149.79 441.994 148.567 433.66C146.513 419.677 147.583 408.685 147.628 405H155.45ZM146.805 405C146.093 407.412 145.144 412.772 144.745 418.3C144.57 420.708 144.552 422.864 144.52 427.078C144.441 437.737 144.811 443.107 144.296 443.171C143.98 443.209 143.515 441.218 142.948 438.781C142.471 436.732 142.185 434.99 141.824 432.441C141.456 429.838 141.23 428.231 140.926 425.369C140.399 420.417 140.113 417.732 140.027 414.397C139.931 410.741 140.105 407.517 140.337 405H146.805Z" fill="#C2C2C2"/>
<path d="M155.45 315C154.635 319.895 153.713 326.716 153.288 334.884C152.519 349.646 153.834 359.842 152.839 359.998C151.94 360.136 149.79 351.994 148.567 343.66C146.513 329.677 147.583 318.685 147.628 315H155.45ZM146.805 315C146.093 317.412 145.144 322.772 144.745 328.3C144.57 330.708 144.552 332.864 144.52 337.078C144.441 347.737 144.811 353.107 144.296 353.171C143.98 353.209 143.515 351.218 142.948 348.781C142.471 346.732 142.185 344.99 141.824 342.441C141.456 339.838 141.23 338.231 140.926 335.369C140.399 330.417 140.113 327.732 140.027 324.397C139.931 320.741 140.105 317.517 140.337 315H146.805Z" fill="#C2C2C2"/>
<path d="M155.45 135C154.635 139.895 153.713 146.716 153.288 154.884C152.519 169.646 153.834 179.842 152.839 179.998C151.94 180.136 149.79 171.994 148.567 163.66C146.513 149.677 147.583 138.685 147.628 135H155.45ZM146.805 135C146.093 137.412 145.144 142.772 144.745 148.3C144.57 150.708 144.552 152.864 144.52 157.078C144.441 167.737 144.811 173.107 144.296 173.171C143.98 173.209 143.515 171.218 142.948 168.781C142.471 166.732 142.185 164.99 141.824 162.441C141.456 159.838 141.23 158.231 140.926 155.369C140.399 150.417 140.113 147.732 140.027 144.397C139.931 140.741 140.105 137.517 140.337 135H146.805Z" fill="#C2C2C2"/>
<path d="M155.45 225C154.635 229.895 153.713 236.716 153.288 244.884C152.519 259.646 153.834 269.842 152.839 269.998C151.94 270.136 149.79 261.994 148.567 253.66C146.513 239.677 147.583 228.685 147.628 225H155.45ZM146.805 225C146.093 227.412 145.144 232.772 144.745 238.3C144.57 240.708 144.552 242.864 144.52 247.078C144.441 257.737 144.811 263.107 144.296 263.171C143.98 263.209 143.515 261.218 142.948 258.781C142.471 256.732 142.185 254.99 141.824 252.441C141.456 249.838 141.23 248.231 140.926 245.369C140.399 240.417 140.113 237.732 140.027 234.397C139.931 230.741 140.105 227.517 140.337 225H146.805Z" fill="#C2C2C2"/>
<path d="M155.45 45C154.635 49.8953 153.713 56.7164 153.288 64.8838C152.519 79.6463 153.834 89.8415 152.839 89.998C151.94 90.1365 149.79 81.9944 148.567 73.6602C146.513 59.6771 147.583 48.6852 147.628 45H155.45ZM146.805 45C146.093 47.4124 145.144 52.7717 144.745 58.2998C144.57 60.7077 144.552 62.8638 144.52 67.0781C144.441 77.7365 144.811 83.1073 144.296 83.1709C143.98 83.2088 143.515 81.2183 142.948 78.7812C142.471 76.7317 142.185 74.9902 141.824 72.4414C141.456 69.8383 141.23 68.2311 140.926 65.3691C140.399 60.4169 140.113 57.7316 140.027 54.3975C139.931 50.7414 140.105 47.5168 140.337 45H146.805Z" fill="#C2C2C2"/>
</svg>
