<svg width="195" height="132" viewBox="0 0 195 132" fill="none" xmlns="http://www.w3.org/2000/svg">
<path fill-rule="evenodd" clip-rule="evenodd" d="M58.0932 13.1471C59.2534 11.2282 60.8551 9.32463 62.5573 8.39869C63.5322 7.86769 64.6344 7.93507 65.5895 7.30963C66.5799 6.66037 67.3454 5.58606 68.3472 4.98118C69.2754 4.42037 70.4186 4.20266 71.402 3.73386C72.6981 3.11586 73.8329 2.17648 75.1983 1.72939C76.1562 1.41577 77.1537 1.44607 78.113 1.15335C79.6256 0.692004 81.2881 -0.158607 82.8898 0.0257382C83.8704 0.138645 84.783 0.716467 85.6504 1.34224C86.4682 1.4877 87.2733 1.70525 88.0515 1.99132C91.245 3.1664 93.9815 5.47606 96.7816 7.5335C101.358 10.8959 106.154 14.039 111.32 15.9753C113.096 16.6414 114.908 17.3564 116.782 17.5534C121.08 18.0055 125.467 17.5695 129.734 17.06C131.558 16.8421 133.433 16.8159 135.228 16.3581C140.076 15.1219 145.423 12.8047 150.453 14.3468C151.747 14.744 152.953 15.4971 154.071 16.3262C155.122 17.105 156.274 17.6992 157.385 18.3582C159.295 19.4919 161.164 20.7841 163.153 21.737C165.972 23.0872 168.827 23.9347 171.414 25.8718C171.565 25.9855 171.715 26.1042 171.864 26.2262C172.362 26.1787 172.858 26.1613 173.358 26.2278C177.314 26.7567 178.996 30.138 181.286 33.3418C182.645 35.2445 184.164 37.0404 185.574 38.8998C186.035 39.5068 186.521 40.1038 186.901 40.7752C188.349 42.4414 189.683 44.7543 189.927 46.8184C190.153 48.7435 189.983 50.7245 190.227 52.6779C190.613 55.7658 191.38 58.9841 191.367 62.1129C191.363 62.8015 191.35 63.4913 191.32 64.1792C191.593 64.9665 191.835 65.8698 191.899 66.7461C191.93 67.1787 191.919 67.6031 191.847 68.0048C191.963 69.3979 191.828 70.8963 191.837 72.27C191.855 75.3657 191.913 77.8295 191.534 80.8037C191.68 81.9667 191.821 83.1315 191.937 84.3027C192.113 86.0781 192.253 87.8729 192.574 89.6257C192.689 90.2526 192.812 90.8876 192.894 91.5209C192.925 91.7704 192.97 92.0134 192.983 92.2661C192.986 92.3082 193.018 92.4184 192.988 92.3924C190.669 90.4291 189.658 86.3227 189.249 82.8998C189.126 82.6001 188.976 82.3086 188.788 82.0283C187.149 79.5823 186.635 76.5644 186.463 73.5287C186.439 73.1124 186.412 72.6863 186.398 72.2587C186.299 76.0379 185.805 79.8512 185.154 83.5397C184.983 84.5132 184.763 85.4949 184.541 86.4847C184.599 87.2185 184.602 87.9491 184.548 88.665C184.54 88.7736 184.526 88.887 184.503 89.0052C185.363 89.867 186.217 90.7337 187.102 91.5388C188.766 93.0485 190.389 94.6166 190.802 97.1793C191.129 99.2058 190.251 101.513 189.863 103.453C189.522 105.159 189.61 106.767 189.784 108.489C190.068 111.3 191.258 114.023 191.708 116.829C192.206 117.276 192.814 117.541 193.262 118.073C194.828 119.934 195.81 123.402 194.103 125.461C193.312 126.417 192.12 126.849 191.08 127.337C189.983 127.851 188.878 128.328 187.772 128.801C185.331 130.739 181.938 130.752 178.601 130.313C177.315 130.143 174.576 130.076 173.677 128.601C173.243 129.65 172.49 130.713 171.933 131.234C170.604 132.48 167.968 131.92 166.453 131.536C166.239 131.481 166.026 131.434 165.81 131.393C165.031 131.871 163.306 131.643 162.471 131.678C159.834 131.787 157.385 131.714 154.809 131C154.034 130.784 153.216 130.57 152.497 130.164C151.496 130.253 150.644 130.067 150.42 129.148C149.924 127.092 152.056 124.724 153.161 123.441C155.855 120.315 157.113 116.009 159.07 112.299C159.698 109.643 160.178 106.902 160.509 104.193C160.544 103.91 160.582 103.526 160.649 103.124C160.139 99.9072 159.2 96.8585 158.357 93.7062C158.075 93.4178 157.808 93.1149 157.561 92.7942C155.917 90.6413 154.652 87.3789 153.568 84.4452C150.647 86.3437 147.425 87.6024 144.272 88.874C140.098 90.5587 136.073 92.1802 131.691 93.0453C127.15 93.9427 122.555 93.7337 117.963 93.7337C113.897 93.7337 109.764 93.9767 105.714 93.5118C103.703 93.2818 101.99 92.0393 100.052 91.5226C99.736 92.8962 99.4233 94.2699 99.1531 95.6517C99.5167 97.9973 99.869 100.341 99.5068 102.723C99.013 105.969 98.181 109.23 97.5372 112.447C97.2429 113.921 96.667 115.546 96.7646 117.077C97.025 121.157 101.517 125.639 99.903 129.538C99.1587 131.337 97.2387 131.435 95.7516 131.704C91.5464 132.47 87.6157 130.627 83.4841 130.238C81.6985 130.07 78.8375 131.81 77.6192 129.587C77.025 128.503 77.4579 127.591 77.9914 126.692C77.5074 126.755 77.0235 126.83 76.5311 126.862C76.043 126.895 75.4897 127.018 75.1671 126.503C73.7069 124.172 75.4699 121.432 76.9684 119.9C77.6249 119.229 78.3762 118.823 78.7314 117.835C79.5945 115.429 80.2482 112.406 80.5934 109.845C80.6118 109.709 80.6274 109.568 80.6401 109.422C80.3359 108.958 80.0274 108.494 79.794 107.973C79.0667 106.351 78.5559 104.629 78.1229 102.88C75.5251 100.179 73.8682 97.2181 71.6864 93.7337C68.5948 88.7963 65.639 83.5251 64.2778 77.6092L64.2891 77.6043C63.9694 76.5142 63.685 75.4045 63.419 74.2868C63.0964 74.1426 62.7865 73.7992 62.5389 73.6178C61.9602 73.1901 61.3192 72.9552 60.6811 72.6799C60.3061 72.5162 59.9538 72.2732 59.5689 72.1404C58.7044 71.8424 57.755 72.0659 56.9103 71.7257C56.5919 71.5961 56.2877 71.3774 56.0316 71.128C55.8165 70.9158 55.6821 70.6436 55.4062 70.5205C55.0907 70.378 54.6917 70.4784 54.3563 70.4249C53.6163 71.5103 52.7447 72.4757 51.7557 73.2792C50.0111 74.6982 48.0061 75.6686 46.0988 76.7539C44.0273 77.9316 42.0153 79.2729 39.8561 80.2464C39.1006 80.5866 38.229 80.7599 37.3984 80.8733C37.189 81.0256 36.9711 81.1536 36.7489 81.2475C36.0613 81.5391 35.293 81.4468 34.6067 81.7432C32.6711 82.5807 30.6562 83.4214 28.8847 84.659C28.2891 85.0753 27.8179 85.6844 27.4104 86.3259C27.068 86.8621 26.7454 87.4858 26.2006 87.7838C25.3805 88.2325 24.2817 87.9118 23.419 87.7935C22.3806 87.651 21.6201 87.5927 20.6138 88.0236C20.099 88.2439 19.4337 88.9048 18.8909 88.9129C18.6334 88.9161 18.3397 88.6051 18.1344 88.4512C17.3668 87.8745 16.5306 86.4604 16.6026 85.3945C16.4609 85.699 16.3237 86.0084 16.1956 86.3259C15.9429 86.9512 15.5868 88.0673 14.9207 88.2471C14.3173 88.4091 14.0706 87.5489 13.697 87.178C13.244 86.726 12.7006 86.5738 12.1651 86.3049C11.5925 86.0165 11.1039 85.6569 10.6187 85.2082C9.21197 83.9074 7.40906 83.3518 6.12303 81.8679C5.72982 81.416 5.22017 80.8312 5.05589 80.2075C4.83884 79.3814 5.11023 78.356 5.16456 77.5217C5.20715 76.8689 5.34454 76.1869 5.61309 75.5957C4.9942 75.0465 4.55218 74.2495 4.04931 73.574C2.53717 71.5443 1.50201 69.4838 0.735544 66.9729C0.527124 66.291 0.2713 65.7272 0.157964 65.0025C0.0167542 64.0986 0.00840637 63.2015 0.00614248 62.2849C0.00543501 62.0439 -0.0402666 61.5221 0.128818 61.3308C0.373318 61.0541 1.05362 61.6114 1.26176 61.7484C2.2839 62.4212 3.03905 63.5875 4.26806 63.848C4.84818 63.9709 5.53655 63.3618 5.85434 62.8576C6.0837 62.4936 6.18444 62.0847 6.57836 61.9083C7.84133 61.3426 9.07798 62.1497 10.3111 61.6951C11.4536 61.2738 12.4299 60.3466 13.3665 59.5235C13.5803 59.3356 13.8044 59.1643 14.0307 58.9962C13.9751 58.4678 13.9203 57.9392 13.8726 57.411C13.8321 56.9621 13.7321 56.3762 13.7223 55.8361C8.94809 43.0633 5.90825 28.1157 4.6208 10.9706C4.59901 10.6792 4.6924 10.3918 4.87521 10.1875C5.05986 9.98004 5.26799 9.91606 5.50061 9.97081C5.84104 10.0515 6.11582 10.3382 6.21756 10.7186C10.3401 26.1028 16.4745 36.58 24.3781 42.739C24.735 42.6198 25.1254 42.5693 25.5573 42.6051C26.9576 40.8505 29.5554 40.2097 30.7298 38.1714C31.5972 36.6628 32.0033 34.8449 32.5211 33.157C33.3276 30.5256 34.2926 27.5822 35.7726 25.1916C35.7726 25.1742 35.7726 25.1569 35.7712 25.1396C35.767 24.791 35.8123 24.4924 35.8986 24.2389C34.8062 24.2711 33.7266 23.1711 32.9824 22.4042C31.2052 20.5765 31.0326 17.7342 30.9222 15.1469C30.8458 13.3558 30.6463 11.6375 31.0453 9.87394C31.218 9.11388 31.576 8.18697 31.3015 7.41039C31.1345 6.93592 30.444 6.42824 30.4299 5.94372C30.4214 5.6604 30.935 5.57731 31.0935 5.55706C32.7418 5.34599 34.0874 6.10167 35.3043 7.29359C36.4306 8.39674 36.7702 9.65671 37.4125 11.1171C37.8087 12.0163 38.3931 12.9053 38.9675 13.6655C39.5052 14.3782 40.2297 14.8751 40.8749 15.4461C41.3687 15.8836 41.9191 16.3552 42.4752 16.8624C41.8045 14.9823 41.8314 12.7036 42.2007 10.8192C42.4653 9.4701 43.0397 8.21629 43.31 6.85963C43.5166 5.82435 43.4048 4.72735 43.1968 3.7034C43.0581 3.01786 42.6832 2.44458 42.9279 1.73166C43.0963 1.2405 43.5208 0.734608 44.0259 0.827266C44.8112 0.971275 45.5399 1.70882 46.3139 1.98355C47.6637 2.46288 48.957 2.3145 50.1993 3.20901C50.8275 3.66177 51.293 4.3371 51.7826 4.96206C53.4833 7.13419 54.2828 9.59612 55.4784 12.1355C55.4925 12.1661 55.5067 12.1962 55.5222 12.2262C56.4405 11.5123 57.3574 12.3582 58.0932 13.1471ZM174.966 108.318C174.176 109.883 173.274 111.363 172.396 112.7C172.308 112.832 172.216 112.972 172.12 113.114C172.009 113.407 171.907 113.699 171.815 113.994C171.266 115.751 171.067 117.673 171.09 119.591C171.518 121.068 172.166 122.523 172.731 123.759C172.98 124.306 173.308 124.836 173.573 125.391C173.635 125.097 173.7 124.812 173.754 124.539C174.017 123.2 174.211 121.799 174.644 120.511C175.206 118.839 175.947 117.292 176.299 115.531C176.756 113.249 175.96 110.624 174.966 108.318ZM187.69 66.5858C187.207 67.386 186.71 68.1814 186.239 68.9298C186.341 69.6037 186.403 70.2905 186.413 70.9935C186.449 70.4897 186.526 69.9924 186.675 69.5146C186.797 69.1242 186.976 68.7386 187.193 68.3612C187.34 67.7683 187.508 67.1754 187.69 66.5858Z" fill="#C2C2C2"/>
</svg>
