<svg width="255" height="118" viewBox="0 0 255 118" fill="none" xmlns="http://www.w3.org/2000/svg">
<path d="M4.51809e-06 2.54106C6.56108 6.3132 13.0855 10.1406 19.8325 13.5892C30.1296 18.8502 40.2985 24.3663 50.5879 29.6431C52.7033 30.7269 53.4417 31.7896 52.8316 34.2675C51.5749 39.3654 51.8079 44.2082 57.005 47.3279C61.7202 57.1871 72.0043 59.0179 80.4348 63.2135C89.3077 67.6301 99.0026 70.0265 109.014 70.3738C111.578 70.4632 112.36 72.0152 113.313 73.8355C117.552 81.9348 122.765 89.1187 131.667 92.6094C135.704 94.1929 139.88 95.303 144.249 95.2478C148.912 95.1873 150.057 93.2249 147.595 89.3423C145.378 85.8437 143.655 82.1242 142.042 78.3336C140.503 74.7167 139.032 71.0445 134.348 70.3211C141.888 69.4583 149.072 68.1142 155.937 65.3179C166.593 60.9776 176.995 62.4559 187.156 66.9515C195.652 70.7105 203.548 75.5453 211.101 80.9694C212.845 82.2215 213.235 83.4842 212.617 85.5333C211.065 90.6865 209.47 95.8554 209.153 101.279C208.886 105.88 209.648 110.331 211.656 114.511C212.204 115.65 212.85 116.776 213.968 117.468C215.301 118.294 216.602 118.315 216.628 116.4C216.691 111.462 219.199 108.069 223.003 105.37C223.344 105.128 223.629 104.804 223.92 104.499C227.766 100.461 231.104 96.2684 227.645 89.7711C234.288 92.3437 238.34 89.6422 241.569 84.5416C243.475 81.5297 245.339 78.431 248.151 76.0872C249.622 74.8614 251.093 73.7171 252.968 73.1726C253.869 72.9122 254.913 72.6202 254.995 71.4654C255.086 70.1659 254.01 69.6425 253.044 69.2689C249.075 67.7433 244.967 67.9984 240.909 68.6876C235.233 69.6556 230.201 72.3782 225.132 74.9561C224.103 75.4795 223.074 76.0556 221.98 76.3792C219.602 77.0815 217.746 76.5581 216.476 74.117C211.4 64.3683 205.676 55.0038 198.971 46.2994C188.713 32.9865 176.741 21.799 160.592 15.9435C148.313 11.49 135.751 11.1954 122.946 12.7711C113.986 13.8733 105.092 15.5699 96.0206 15.7646C90.9466 15.8751 85.9512 15.2201 80.9322 14.7571C75.8608 14.2889 70.8549 14.3836 65.9433 15.9224C62.3145 17.0588 59.123 18.9659 57.1044 22.1988C55.6173 24.5768 54.125 24.2059 52.1116 23.2615C40.6834 17.9058 29.2761 12.5054 17.7668 7.33383C11.9283 4.71122 6.21551 1.74402 0.0104992 0V2.5358L4.51809e-06 2.54106Z" fill="#C2C2C2"/>
</svg>
