<svg width="197" height="132" viewBox="0 0 197 132" fill="none" xmlns="http://www.w3.org/2000/svg">
<path d="M29.7817 15.9879C30.4118 14.8109 31.9873 14.5397 33.0508 14.4945C34.6263 14.4041 35.9257 14.2685 36.9105 14.0868C37.3832 14.0416 37.856 13.7695 38.4467 13.3627C39.234 12.729 40.2582 12.3213 41.243 12.1405C46.0474 11.0539 50.9312 10.5115 55.7356 10.4663C57.9805 10.4663 60.6588 10.7375 63.7697 11.326C64.0057 11.326 64.3604 11.4164 64.5972 11.2808C66.8814 9.92302 69.0477 8.70082 71.4106 8.24791C76.9245 7.0709 82.5564 6.66413 88.2276 6.21122C90.4725 6.03043 92.5199 5.80351 94.4502 5.48713C106.187 3.54083 117.214 1.86572 127.532 0.372336C132.928 -0.351757 138.205 -0.035378 143.364 1.45895C145.097 1.91186 146.673 2.59075 148.366 3.26965C151.596 4.53705 155.022 5.35154 158.291 6.30161C166.207 8.56429 173.139 12.955 180.109 18.8843C185.386 23.3202 190.388 28.9321 193.263 35.4499C193.854 36.6721 194.169 37.8943 194.327 39.1617C194.445 39.931 194.563 40.6551 194.799 41.334C196.255 46.2689 197.2 51.2472 196.964 56.0908C196.925 57.2678 196.609 60.3449 195.625 61.0238C194.444 61.7931 193.735 60.4353 193.144 59.4853C193.026 59.2141 192.908 59.2593 192.868 59.5305C191.569 65.7309 189.875 71.9323 187.118 77.3183C185.661 80.2156 183.692 83.112 181.211 84.9227C180.975 85.0583 180.778 85.2391 180.62 85.5112C179.872 86.7334 179.163 87.8652 177.981 88.5441C177.942 88.6345 177.824 88.6797 177.824 88.8153C177.155 91.3501 177.273 94.2464 178.1 96.6908C179.085 99.7237 180.03 102.801 178.928 105.789C178.416 107.237 177.471 108.414 176.644 109.681C175.029 112.261 174.123 115.294 173.847 118.507C173.532 121.675 173.02 124.844 171.838 127.695C171.248 129.143 169.909 130.683 168.491 129.325C167.624 128.465 167.033 127.514 165.734 128.33C164.119 129.28 162.543 130.366 160.85 130.683C159.511 130.954 158.212 131.09 156.99 131.09C156.203 131.09 155.73 130.231 155.454 129.552C155.454 129.416 155.415 129.416 155.297 129.416C154.39 129.507 153.366 129.507 152.264 129.461C151.477 129.371 150.965 128.918 150.728 128.104C150.728 127.968 150.689 127.923 150.571 127.923C150.177 127.878 149.823 127.878 149.586 127.923C147.184 128.331 144.781 128.421 142.497 127.334C141.552 126.927 140.331 125.841 140.843 124.483C141.355 123.125 142.301 122.311 143.64 122.129C149.98 121.224 153.446 112.262 154.549 106.107C154.588 105.836 154.588 105.473 154.549 105.156C153.919 101.082 153.643 96.8274 153.801 92.4376C153.801 92.302 153.84 92.1212 153.84 91.9847C153.919 91.8491 153.84 91.8039 153.366 91.7578C148.68 94.9263 143.993 97.7774 139.228 100.267C135.486 102.304 131.311 104.205 127.216 104.929C125.68 105.155 124.341 105.246 123.277 105.11C119.024 104.566 114.574 103.662 109.808 102.53C105.594 101.489 101.813 99.9045 97.7176 98.2756C95.512 97.4159 93.0312 96.6456 90.3922 96.0581C90.2742 96.0581 90.2349 96.1033 90.2349 96.2389C90.5495 98.6833 90.8256 101.036 91.1804 103.255C91.7711 107.012 91.5351 110.316 91.0624 114.027C90.9051 115.249 90.8657 116.652 90.9051 118.281C90.9837 119.232 91.141 119.956 91.4958 120.635C92.4806 122.309 92.8345 124.392 92.5986 126.835C92.4413 128.465 91.7719 130.502 90.3143 130.954C89.0936 131.316 88.3456 130.365 87.4001 129.687C86.4546 129.053 84.9192 129.551 84.0524 130.003C83.0676 130.546 82.123 130.999 81.2955 131.27C79.7986 131.814 78.0658 132.04 76.0576 131.994C75.4276 131.994 74.9942 131.451 74.7189 130.863C74.7189 130.772 74.6796 130.727 74.5616 130.727C74.0495 130.727 73.4588 130.727 72.8681 130.772C71.726 130.817 70.6232 130.682 70.2685 129.279C70.2291 129.053 70.0325 128.917 69.8744 128.871C68.3382 128.509 66.9601 128.373 65.4239 128.826C62.2335 129.866 59.0833 130.003 56.2084 128.509C55.539 128.147 55.0269 127.694 54.6722 127.015C54.0815 125.883 55.657 124.118 56.3657 123.711C56.8384 123.395 57.5078 123.303 58.0199 123.258C59.3586 123.123 60.7375 122.308 61.7215 121.357C63.2577 119.909 63.8484 117.148 63.9664 114.839C64.0843 111.852 63.9664 109.046 63.5723 106.33C63.0995 103.298 61.9968 101.08 60.6973 98.4997C59.0038 95.1956 57.3497 91.1222 56.759 87.5008C56.4042 85.1477 56.1289 82.7937 55.4202 80.6214C55.3415 80.4406 55.1843 80.2137 54.9475 80.1685C53.9233 79.9877 53.1753 79.58 52.2298 78.9011C51.245 78.0866 50.2209 77.4077 49.2369 76.6836C49.0796 76.5481 48.8822 76.5481 48.7249 76.6836C48.2521 77.0452 47.7401 77.3625 47.1493 77.7703C45.4952 78.9021 43.605 78.7665 42.1475 77.3625C40.454 75.7326 39.4692 73.7873 39.1152 71.4785C39.1152 71.3881 39.0366 71.3429 38.9973 71.3429H38.9579C38.1304 72.0218 37.1858 72.4295 36.3583 73.017C35.0982 73.9681 33.7988 74.9181 32.4986 75.9134C31.9078 76.3211 31.2385 76.6375 30.6084 76.7731C30.293 76.8635 30.0177 76.9087 29.7809 77.0443C29.7416 77.0443 29.6629 77.1347 29.6236 77.1799C27.7335 80.0762 25.8032 82.3851 22.4555 82.5658C19.0685 82.7466 15.7208 81.7514 12.492 81.0725C10.9558 80.7109 8.78953 80.5292 5.9146 80.3936C3.03966 80.2128 1.38549 79.2618 0.755443 75.8221C0.480157 74.147 0.282705 72.6536 0.243378 71.2506C0.125399 69.3495 0.0467551 67.5388 0.00742855 65.8646C-0.0712246 64.1905 0.48015 63.375 1.46495 62.2432C1.85904 61.7903 1.97703 61.021 2.09501 60.4325C2.17367 59.8892 2.52841 59.392 3.04047 59.4372C3.9073 59.4824 4.85196 59.3016 5.79744 58.7583C8.79036 57.0832 10.3659 54.2321 12.1773 51.1991C13.1622 49.4788 14.2649 47.8951 15.5644 46.1296C15.643 45.994 15.6823 45.8584 15.6823 45.7218C15.8396 43.8207 15.8396 41.9196 15.0916 40.1089C13.9102 37.3934 13.6734 34.3605 15.4857 32.0074C16.5492 30.6496 17.9272 30.5592 19.3454 30.3775C20.921 30.1063 22.299 29.4726 22.6931 27.5254C22.8898 26.8465 23.1265 26.258 23.5206 25.7147C23.5993 25.5791 23.6386 25.4435 23.6386 25.3069C23.6386 25.081 23.5206 24.8992 23.3625 24.7636C23.1265 24.5376 22.7718 24.4021 22.4957 24.3559C21.1963 24.1751 20.3294 23.6318 19.7387 22.6808C18.6359 20.8701 18.1239 18.2901 18.7539 16.2082C19.1873 14.9408 20.2901 14.7148 20.9988 15.8005C22.0623 17.4747 23.283 18.7421 25.1732 19.1498C25.6066 19.195 26.1186 19.0594 26.4726 18.8786C27.1419 18.4257 27.8506 17.9276 28.5995 17.4756C29.1902 17.1131 29.427 16.5707 29.7809 15.9822L29.7817 15.9879Z" fill="#C2C2C2"/>
</svg>
