<svg width="186" height="142" viewBox="0 0 186 142" fill="none" xmlns="http://www.w3.org/2000/svg">
<path d="M153.597 98.1442C151.121 102.88 149.425 107.599 149.061 112.765C148.838 115.962 148.224 119.119 148.15 122.338C148.053 126.645 148.803 130.727 150.977 134.486C151.735 135.792 151.752 137.253 151.915 138.687C152.002 139.454 151.682 139.998 150.906 140.292C149.254 140.919 147.615 141.559 145.792 141.243C145.485 141.191 145.139 141.129 144.854 141.217C141.177 142.335 137.482 142.011 133.718 141.726C131.346 141.546 129.138 141.138 126.973 140.235C126.135 139.884 125.921 139.222 125.925 138.415C125.938 136.498 126.232 134.841 127.814 133.345C132.784 128.64 133.989 122.579 133.314 116.036C133.108 114.032 132.933 112.028 132.806 110.02C132.517 105.406 131.057 101.24 128.546 97.3153C126.521 94.1535 125.027 90.654 123.743 87.115C123.26 85.7862 122.691 85.4047 121.288 85.5231C116.586 85.9222 111.852 86.023 107.163 85.4661C104.638 85.1635 102.175 84.3128 99.7078 83.6199C97.6129 83.0322 97.3192 83.1112 96.7056 85.1109C95.8861 87.764 94.8649 90.3251 93.4361 92.7151C89.7678 98.8502 90.0527 105.279 92.5947 111.598C94.374 116.028 98.3097 118.304 102.736 119.685C104.59 120.264 106.505 120.663 108.052 121.987C110.139 123.777 110.686 126.206 109.157 128.491C107.798 130.517 106.483 132.666 104.884 134.429C103.17 136.319 100.777 137.735 98.4456 138.88C96.1841 139.994 94.2689 138.994 93.5063 136.165C92.4544 132.267 89.8599 129.561 87.0812 127.07C84.8504 125.075 82.5627 123.11 80.2398 121.211C75.1121 117.023 73.4423 111.489 73.4379 105.183C73.4379 102.358 73.2757 99.5343 73.3853 96.7189C73.4598 94.7236 74.0252 92.737 73.3283 90.7505C73.2056 90.404 73.1092 90.0444 72.9251 89.448C71.1589 94.3421 68.8623 98.8458 68.9105 103.937C68.9368 106.88 69.2217 109.822 69.2042 112.778C69.191 114.923 69.1341 117.019 68.687 119.146C67.9376 122.733 68.6651 126.276 69.6819 129.723C70.1728 131.398 71.0274 132.964 71.7023 134.591C73.0829 137.919 71.9872 139.937 68.389 140.379C65.2817 140.761 62.2006 141.081 59.0144 140.476C57.0115 140.099 54.8771 141.112 52.7033 140.555C51.6076 140.274 51.0817 139.901 50.8582 138.845C50.4462 136.911 50.6172 134.977 51.5419 133.332C53.295 130.21 53.7157 126.75 54.0926 123.373C54.8552 116.571 53.8735 109.91 52.2125 103.231C50.3323 95.6708 49.3681 87.9219 50.192 80.0502C50.4769 77.3225 50.7443 74.5773 50.455 71.7838C50.2008 69.3149 48.5573 67.5695 47.7377 65.4163C47.4441 64.6445 46.8743 65.2233 46.4843 65.4075C44.6304 66.2846 42.8861 67.3809 40.835 67.8414C39.6648 68.1001 38.4639 68.1659 37.32 68.4246C34.1645 69.1307 31.1623 70.2051 29.5977 73.4283C29.5451 73.5423 29.5057 73.6651 29.4356 73.7704C28.7606 74.7966 28.261 76.5551 27.0645 76.3884C25.8417 76.2218 26.1179 74.4282 25.9557 73.288C25.8768 72.7486 25.8768 72.2706 25.2063 72.2004C24.6321 72.1434 24.0536 72.1259 23.703 72.7179C23.5759 72.9328 23.4313 73.1652 23.4006 73.402C22.7739 78.1426 19.5613 81.5018 17.0676 85.2293C14.828 88.5797 12.7901 92.0266 11.2561 95.7585C11.0063 96.3637 10.7039 98.7625 10.7039 98.7625C10.7039 98.7625 12.2729 97.6048 12.8295 97.3416C15.1085 96.2672 17.5015 96.3944 19.8594 96.697C21.779 96.947 22.9492 98.4468 23.6329 100.091C26.1529 106.183 24.6409 109.423 19.4255 112.782C15.3715 115.392 8.74483 112.892 6.07577 110.713C2.12257 107.494 0.198565 103.043 0.0188738 98.1354C-0.0906937 95.1446 0.281836 93.351 1.00498 91.0574C2.79312 85.4003 4.36213 79.695 6.90848 74.2396C8.85878 70.056 10.1999 65.4426 11.1378 60.8204C11.8872 57.1236 13.11 53.5715 14.3415 50.0237C15.0515 47.9714 14.8193 45.8094 15.2531 43.7263C15.5249 42.4151 15.7221 41.0513 16.5373 40.0163C19.0705 36.8063 19.7366 32.9384 20.416 29.1187C21.0295 25.6631 22.8966 22.9705 25.0222 20.4007C25.7015 19.5806 26.3896 18.7868 26.9944 17.9054C28.4451 15.7873 30.3296 14.3708 33.025 14.2392C38.052 13.9937 42.9387 12.6386 47.9569 12.279C55.4732 11.7396 62.5425 9.15223 69.7739 7.31915C71.9916 6.75783 74.2574 6.79729 76.4751 6.56049C84.25 5.72727 91.7444 3.60037 99.3703 2.10497C104.292 1.14458 109.17 0 114.245 0C116.112 0 117.835 0.504315 119.632 0.727968C124.238 1.30245 128.787 2.1269 133.292 3.26709C137.596 4.35465 141.3 6.51663 144.867 9.02067C145.638 9.56007 146.344 10.253 147.194 10.6169C151.901 12.643 155.215 16.4319 158.646 19.9533C161.482 22.8652 163.875 26.2419 166.237 29.5748C167.85 31.8508 168.854 34.561 170.51 36.7975C173.232 40.468 174.783 44.5596 175.94 48.9054C176.997 52.8698 176.799 56.8912 176.576 60.8774C176.352 64.8462 177.299 68.622 177.913 72.4372C178.443 75.7306 179.022 79.0153 179.223 82.3394C179.381 84.9837 180.003 87.3343 181.752 89.4392C183.089 91.0487 183.242 93.2063 183.115 95.1928C183.005 96.9163 183.058 98.5564 183.422 100.232C183.799 101.968 183.645 103.617 182.142 104.871C181.599 105.327 181.02 105.257 181.208 104.551C182.357 100.354 179.328 97.2715 178.395 93.6404C178.11 92.5397 177.676 91.4872 177.856 90.3382C178.491 86.3037 177.15 82.4753 176.366 78.66C175.323 73.5993 174.604 68.5123 173.802 63.4209C173.149 59.2724 173.71 58.1191 172.851 54.0012C172.781 53.6592 171.286 50.2737 170.339 50.0193C170.339 52.0673 170.256 54.0188 170.361 55.9615C170.471 58.0401 170.58 60.11 170.278 62.1755C169.607 66.7582 170.821 71.1743 171.501 75.6298C172.369 81.3483 173.004 87.0975 174.201 92.7677C175.734 100.025 177.606 107.191 179.609 114.335C180.959 119.154 182.707 123.895 183.198 128.934C183.343 130.398 183.86 131.727 184.732 132.938C185.714 134.297 186.319 135.735 185.823 137.525C185.525 138.603 184.964 139.235 183.926 139.296C180.231 139.52 176.572 140.458 172.851 140.081C170.659 139.862 168.516 139.647 166.303 139.937C164.918 140.116 163.564 139.516 162.407 138.722C160.886 137.674 160.474 135.2 161.938 133.503C165.457 129.412 165.071 124.877 164.033 120.141C162.516 113.217 159.304 107.064 155.526 101.157C154.925 100.214 154.321 99.2756 153.593 98.1354L153.597 98.1442ZM16.8528 102.1C15.7352 102.1 15.0822 102.402 14.4599 102.692C13.8069 102.994 13.2327 103.814 13.2327 103.814C13.2327 103.814 13.9646 104.985 15.034 105.801C15.3715 106.055 16.0683 106.261 16.6118 106.415C17.6198 106.7 18.3079 106.112 18.8689 105.415C19.3071 104.871 19.6227 104.196 19.1055 103.521C18.5708 102.828 17.9923 102.144 16.8528 102.104V102.1Z" fill="#C2C2C2"/>
</svg>
